<svg version="1.1" width="200" height="200" viewBox="0 0 1024 1024" xmlns="http://www.w3.org/2000/svg" xmlns:xlink="http://www.w3.org/1999/xlink" overflow="hidden"><path d=" M 492.096 179.488 C 653.86 195.879 771.708 340.303 755.317 502.067 C 738.926 663.831 594.502 781.68 432.738 765.288 C 432.001 765.214 431.264 765.136 430.528 765.056 C 268.819 748.055 151.51 603.181 168.512 441.472 C 185.514 279.763 330.387 162.454 492.096 179.456 Z M 485.376 243.136 C 358.886 229.286 245.117 320.599 231.267 447.089 C 217.417 573.579 308.73 687.348 435.22 701.198 C 435.885 701.271 436.55 701.341 437.216 701.408 C 563.822 714.156 676.791 621.855 689.539 495.249 C 702.208 369.422 611.088 256.901 485.376 243.136 Z M 702.304 702.784 C 713.905 691.571 732.039 690.748 744.608 700.864 L 747.552 703.584 L 816.352 774.816 C 828.633 787.525 828.285 807.784 815.576 820.064 C 803.976 831.273 785.847 832.096 773.28 821.984 L 770.336 819.296 L 701.536 748.032 C 689.253 735.325 689.597 715.067 702.304 702.784 Z" fill="#FFFFFF"/></svg>