<svg version="1.1" width="200" height="200" viewBox="0 0 1024 1024" xmlns="http://www.w3.org/2000/svg" xmlns:xlink="http://www.w3.org/1999/xlink" overflow="hidden"><path d=" M 850.336 456.32 C 863.398 468.224 864.337 488.464 852.432 501.526 C 841.504 513.517 823.332 515.433 810.144 505.984 L 807.232 503.648 L 533.568 254.144 C 522.408 243.97 505.654 242.982 493.376 251.776 L 490.432 254.144 L 216.768 503.648 C 203.75 515.601 183.507 514.738 171.554 501.72 C 160.515 489.698 160.293 471.293 171.04 459.008 L 173.664 456.352 L 447.328 206.848 C 482.376 174.916 535.487 173.352 572.352 203.168 L 576.672 206.848 L 850.336 456.352 Z" stroke="none" stroke-width="1.70667" stroke-linecap="butt" stroke-linejoin="miter" stroke-miterlimit="4" stroke-opacity="1" fill="#999999" fill-opacity="1"/><path d=" M 288 416 L 288 704 C 288.002 720.223 300.144 733.878 316.256 735.776 L 320 736 L 704 736 C 720.223 735.998 733.878 723.856 735.776 707.744 L 736 704 L 736 416 L 800 416 L 800 704 C 800.003 754.834 760.378 796.858 709.632 799.84 L 704 800 L 320 800 C 269.166 800.003 227.142 760.378 224.16 709.632 L 224 704 L 224 416 L 288 416 Z" stroke="none" stroke-width="1.70667" stroke-linecap="butt" stroke-linejoin="miter" stroke-miterlimit="4" stroke-opacity="1" fill="#999999" fill-opacity="1"/><path d=" M 582.528 555.712 L 586.208 552.576 C 598.899 540.277 619.158 540.595 631.457 553.287 C 643.756 565.978 643.438 586.237 630.747 598.536 C 630.434 598.838 630.116 599.135 629.792 599.424 C 602.08 625.184 558.56 640 511.936 640 C 465.408 640 421.952 625.248 394.24 599.584 C 381.277 587.566 380.51 567.315 392.528 554.352 C 404.546 541.389 424.797 540.622 437.76 552.64 C 452.768 566.528 480.64 576 511.936 576 C 540.896 576 566.912 567.904 582.528 555.712 Z" stroke="none" stroke-width="1.70667" stroke-linecap="butt" stroke-linejoin="miter" stroke-miterlimit="4" stroke-opacity="1" fill="#999999" fill-opacity="1"/></svg>