<svg version="1.1" width="200" height="200" viewBox="0 0 1024 1024" xmlns="http://www.w3.org/2000/svg" xmlns:xlink="http://www.w3.org/1999/xlink" overflow="hidden"><style>
.MsftOfcThm_Accent1_Fill_v2 {
 fill:#00329D; 
}
</style>
<path d=" M 736 192 L 288 192 C 234.981 192 192 234.981 192 288 L 192 736 C 192 789.019 234.981 832 288 832 L 736 832 C 789.019 832 832 789.019 832 736 L 832 288 C 832 234.981 789.019 192 736 192 Z M 288 256 L 736 256 C 753.673 256 768 270.327 768 288 L 768 736 C 768 753.673 753.673 768 736 768 L 288 768 C 270.327 768 256 753.673 256 736 L 256 288 C 256 270.327 270.327 256 288 256 Z" class="MsftOfcThm_Accent1_Fill_v2" stroke="none" stroke-width="1" stroke-linecap="butt" stroke-linejoin="miter" stroke-miterlimit="4" fill="#00329D" fill-opacity="1"/><path d=" M 647.424 427.52 C 658.795 413.991 678.981 412.241 692.51 423.612 C 704.777 433.922 707.526 451.716 698.944 465.248 L 696.576 468.48 L 589.92 596.48 C 578.611 610.061 558.433 611.903 544.852 600.593 C 544.375 600.196 543.909 599.785 543.456 599.36 L 540.736 596.48 L 458.656 497.984 L 376.576 596.48 C 366.262 608.873 348.339 611.656 334.752 602.976 L 331.52 600.576 C 319.127 590.262 316.344 572.339 325.024 558.752 L 327.424 555.52 L 434.08 427.52 C 445.389 413.939 465.567 412.097 479.147 423.406 C 479.625 423.804 480.091 424.215 480.544 424.64 L 483.264 427.52 L 565.312 525.984 L 647.424 427.52 Z" class="MsftOfcThm_Accent1_Fill_v2" stroke="none" stroke-width="1" stroke-linecap="butt" stroke-linejoin="miter" stroke-miterlimit="4" fill="#00329D" fill-opacity="1"/></svg>