<svg version="1.1" width="200" height="200" viewBox="0 0 1024 1024" xmlns="http://www.w3.org/2000/svg" xmlns:xlink="http://www.w3.org/1999/xlink" overflow="hidden"><path d=" M 736 192 L 288 192 C 234.981 192 192 234.981 192 288 L 192 736 C 192 789.019 234.981 832 288 832 L 736 832 C 789.019 832 832 789.019 832 736 L 832 288 C 832 234.981 789.019 192 736 192 Z M 288 256 L 736 256 C 753.673 256 768 270.327 768 288 L 768 736 C 768 753.673 753.673 768 736 768 L 288 768 C 270.327 768 256 753.673 256 736 L 256 288 C 256 270.327 270.327 256 288 256 Z" fill="#999999"/><path d=" M 432 320 C 493.856 320 544 370.144 544 432 C 544 493.856 493.856 544 432 544 C 370.144 544 320 493.856 320 432 C 320 370.144 370.144 320 432 320 Z M 432 384 C 405.49 384 384 405.49 384 432 C 384 458.51 405.49 480 432 480 C 458.51 480 480 458.51 480 432 C 480 405.49 458.51 384 432 384 Z M 672 640 C 689.673 640 704 654.327 704 672 C 704 689.673 689.673 704 672 704 L 352 704 C 334.327 704 320 689.673 320 672 C 320 654.327 334.327 640 352 640 L 672 640 Z M 672 480 C 689.673 480 704 494.327 704 512 C 704 529.673 689.673 544 672 544 L 608 544 C 590.327 544 576 529.673 576 512 C 576 494.327 590.327 480 608 480 L 672 480 Z" fill="#979797"/></svg>