<svg version="1.1" width="200" height="200" viewBox="0 0 1024 1024" xmlns="http://www.w3.org/2000/svg" xmlns:xlink="http://www.w3.org/1999/xlink" overflow="hidden"><style>
.MsftOfcThm_Accent2_Fill_v2 {
 fill:#4480FB; 
}
</style>
<path d=" M 642.56 220.992 C 653.961 209.592 672.061 208.454 684.8 218.336 L 687.808 220.992 L 802.144 335.296 C 821.44 354.592 809.184 386.976 783.168 389.76 L 779.52 389.952 L 728.416 389.952 C 642.742 389.94 572.262 457.415 568.544 543.008 L 568.416 549.952 L 568.416 616.64 C 568.396 634.313 554.054 648.624 536.381 648.604 C 520.183 648.587 506.553 636.468 504.64 620.384 L 504.416 616.64 L 504.416 549.952 C 504.418 437.984 587.086 343.21 698.016 328 L 703.616 327.296 L 642.56 266.24 C 631.16 254.839 630.022 236.739 639.904 224 L 642.56 220.992 Z" class="MsftOfcThm_Accent2_Fill_v2" stroke="none" stroke-width="1" stroke-linecap="butt" stroke-linejoin="miter" stroke-miterlimit="4" fill="#4480FB" fill-opacity="1"/><path d=" M 504.736 227.872 C 522.409 227.751 536.833 241.98 536.954 259.653 C 537.066 276.057 524.755 289.889 508.448 291.68 L 504.736 291.872 L 340.48 291.872 C 306.977 291.863 279.136 317.694 276.64 351.104 L 276.48 355.904 L 276.48 684.384 C 276.469 717.876 302.282 745.712 335.68 748.224 L 340.48 748.384 L 668.992 748.384 C 702.472 748.378 730.289 722.569 732.8 689.184 L 732.992 684.384 L 732.992 520.128 C 733.029 502.455 747.386 488.158 765.059 488.195 C 781.245 488.229 794.857 500.344 796.768 516.416 L 796.992 520.128 L 796.992 684.384 C 796.992 752.589 743.512 808.814 675.392 812.224 L 668.992 812.384 L 340.48 812.384 C 272.275 812.384 216.05 758.904 212.64 690.784 L 212.48 684.384 L 212.48 355.872 C 212.48 287.667 265.96 231.442 334.08 228.032 L 340.48 227.872 L 504.736 227.872 Z" class="MsftOfcThm_Accent2_Fill_v2" stroke="none" stroke-width="1" stroke-linecap="butt" stroke-linejoin="miter" stroke-miterlimit="4" fill="#4480FB" fill-opacity="1"/></svg>