<svg version="1.1" width="200" height="200" viewBox="0 0 1024 1024" xmlns="http://www.w3.org/2000/svg" xmlns:xlink="http://www.w3.org/1999/xlink" overflow="hidden"><style>
.MsftOfcThm_Background1_Fill_v2 {
 fill:#FFFFFF; 
}
</style>
<path d=" M 782.208 573.44 C 786.254 573.442 789.92 575.825 791.562 579.523 L 794.829 586.87 C 801.792 602.783 820.193 610.248 836.608 603.781 L 844.288 600.76 C 848.08 599.269 852.394 600.168 855.276 603.049 L 905.974 653.747 C 908.855 656.628 909.753 660.943 908.262 664.735 L 905.242 672.415 C 898.78 688.333 906.24 707.231 922.158 714.194 L 929.505 717.461 C 933.202 719.105 935.584 722.773 935.583 726.82 L 935.583 796.073 C 935.584 800.12 933.202 803.787 929.505 805.432 L 922.158 808.699 C 906.24 815.662 898.78 834.063 905.247 850.478 L 908.252 858.133 C 909.747 861.937 908.835 866.267 905.933 869.146 L 854.779 919.885 C 851.897 922.742 847.599 923.628 843.822 922.143 L 836.111 919.112 C 820.193 912.645 801.792 920.11 794.332 936.023 L 787.866 949.453 L 711.46 949.453 C 707.412 949.453 703.744 947.069 702.1 943.37 L 698.834 936.023 C 691.871 920.11 673.469 912.645 657.055 919.112 L 649.375 922.133 C 645.583 923.623 641.268 922.725 638.387 919.844 L 587.689 869.146 C 584.808 866.265 583.909 861.95 585.4 858.158 L 588.421 850.478 C 594.888 834.56 587.423 815.662 571.51 808.699 L 564.163 805.432 C 560.463 803.789 558.079 800.121 558.08 796.073 L 558.08 726.82 C 558.08 722.772 560.463 719.104 564.163 717.46 L 571.51 714.194 C 587.423 707.231 594.888 688.829 588.421 672.415 L 586.097 664.284 C 585.075 660.708 586.072 656.858 588.703 654.229 L 639.882 603.049 C 642.762 600.17 647.074 599.272 650.865 600.76 L 658.545 603.781 C 674.468 610.248 692.869 602.783 700.324 586.87 L 703.596 579.523 C 705.238 575.825 708.904 573.442 712.95 573.44 L 782.208 573.44 Z M 804.966 76.8 C 820.98 76.7994 834.308 89.1001 835.589 105.062 L 862.94 445.44 L 912.21 445.44 C 912.62 445.44 913.029 445.449 913.439 445.466 L 914.668 445.537 C 931.131 446.858 943.604 460.959 942.904 477.46 L 942.833 478.612 L 936.883 552.96 L 864.973 552.96 L 867.84 517.12 L 161.27 517.12 L 161.27 517.115 L 157.01 517.12 L 183.634 849.787 L 517.545 849.787 L 517.545 921.467 L 145.823 921.467 C 130.255 921.466 117.15 909.821 115.318 894.362 L 115.2 893.199 L 82.0224 478.612 C 80.6672 461.701 93.2785 446.892 110.19 445.537 C 110.622 445.502 111.055 445.477 111.488 445.46 L 112.64 445.44 L 167.03 445.44 L 194.381 105.062 C 195.662 89.1001 208.99 76.7994 225.004 76.8 L 804.966 76.8 Z M 758.523 620.191 L 731.663 620.191 C 714.255 645.064 684.411 657.495 654.572 652.027 L 634.675 671.918 C 635.173 676.547 635.173 681.216 634.675 685.844 C 634.675 711.214 622.239 734.587 601.349 749.01 L 601.349 775.869 C 622.05 789.145 635.172 811.503 636.667 836.05 C 637.164 840.679 637.164 845.348 636.667 849.976 L 656.558 869.873 C 686.899 865.398 716.744 878.828 733.153 904.192 L 760.013 904.192 C 777.518 879.725 807.436 867.372 837.105 872.361 L 857.001 852.465 C 856.504 847.836 856.504 843.167 857.001 838.538 C 857.001 813.67 868.936 790.292 888.832 775.869 L 888.832 749.01 C 867.942 734.587 855.506 711.214 855.506 685.844 C 855.009 681.216 855.009 676.547 855.506 671.918 L 835.615 652.027 C 805.945 657.015 776.027 644.66 758.523 620.191 Z M 746.583 687.836 C 787.369 687.836 820.69 721.157 820.69 761.943 C 820.69 802.729 787.369 836.05 746.583 836.05 C 705.797 836.05 672.476 802.729 672.476 761.943 C 672.476 721.157 705.797 687.836 746.583 687.836 Z M 747.08 732.6 L 746.583 732.6 L 746.583 733.097 C 730.656 733.108 717.748 746.016 717.737 761.943 C 717.748 777.87 730.656 790.778 746.583 790.789 C 762.51 790.778 775.418 777.87 775.429 761.943 C 775.931 746.03 762.998 732.6 747.08 732.6 Z M 767.165 148.48 L 262.81 148.48 L 238.95 445.44 L 791.04 445.44 L 767.171 148.48 Z M 665.6 327.68 C 671.255 327.68 675.84 332.265 675.84 337.92 L 675.84 378.88 C 675.84 384.535 671.255 389.12 665.6 389.12 L 358.4 389.12 C 352.745 389.12 348.16 384.535 348.16 378.88 L 348.16 337.92 C 348.16 332.265 352.745 327.68 358.4 327.68 L 665.6 327.68 Z M 665.6 204.8 C 671.255 204.8 675.84 209.385 675.84 215.04 L 675.84 256 C 675.84 261.655 671.255 266.24 665.6 266.24 L 358.4 266.24 C 352.745 266.24 348.16 261.655 348.16 256 L 348.16 215.04 C 348.16 209.385 352.745 204.8 358.4 204.8 L 665.6 204.8 Z" class="MsftOfcThm_Background1_Fill_v2" fill="#FFFFFF"/></svg>