<svg version="1.1" width="200" height="200" viewBox="0 0 1024 1024" xmlns="http://www.w3.org/2000/svg" xmlns:xlink="http://www.w3.org/1999/xlink" overflow="hidden"><path d=" M 927 693.9 C 927 697.62 926.88 701.31 926.71 704.99 L 926.4 704.99 C 928.46 716.79 925.17 728.88 917.35 738.19 C 909.53 747.5 897.93 753.14 885.51 753.68 L 885.51 753.79 L 842.17 753.79 L 836.02 709.43 L 839.4 709.43 L 839.4 709.32 C 854.74 708.58 868.55 700.14 875.77 687.1 C 882.99 674.06 882.56 658.32 874.64 645.66 C 857.26 579.54 805.69 526.71 738.2 505.86 L 737.96 505.37 C 737.96 505.37 714.9 501.76 714.9 483.19 C 714.9 464.62 737.96 461 737.96 461 L 737.77 459.72 C 739.12 460.05 740.5 460.3 741.83 460.64 C 779.3 442.92 799.69 403.16 791.51 363.77 C 783.32 324.37 748.62 295.21 706.94 292.71 L 680.63 249.68 C 741.05 240.88 800.3 271.33 826.3 324.54 C 852.29 377.75 838.85 441.06 793.24 480.2 C 875.53 522.08 927.02 604.33 927 693.9 Z M 623.77 491.17 C 738.23 537.41 812.42 645.46 811.72 764.88 L 811.72 802.59 C 811.72 812 807.84 821.03 800.92 827.69 C 794 834.35 784.62 838.08 774.83 838.08 L 249.17 838.08 C 239.39 838.08 230.01 834.34 223.08 827.69 C 216.16 821.04 212.28 812.01 212.28 802.59 L 212.28 764.88 C 211.55 644.3 287.19 535.44 403.28 489.98 C 344.33 444.52 321.74 368.15 346.99 299.65 C 372.23 231.15 439.76 185.52 515.32 185.93 C 590.86 186.34 657.86 232.7 682.3 301.47 C 706.73 370.24 683.25 446.36 623.77 491.17 Z M 258.98 752.09 C 258.6 754.11 258.4 756.17 258.39 758.22 C 258.39 759.31 258.46 760.39 258.56 761.46 C 258.56 761.86 258.51 762.25 258.49 762.66 L 258.7 762.66 C 261.02 780.4 276.69 793.7 295.26 793.71 L 728.71 793.71 C 747.29 793.69 762.96 780.39 765.28 762.66 L 765.48 762.66 C 765.48 762.26 765.43 761.86 765.43 761.46 C 765.53 760.39 765.6 759.31 765.6 758.22 C 765.585 756.163 765.384 754.111 765 752.09 C 757.52 635.22 664.78 539.94 544.04 525.11 C 523.72 528.46 502.94 528.35 482.66 524.78 C 360.76 538.48 266.53 634.22 258.98 752.09 Z M 514.31 230.33 C 441.73 230.33 382.89 286.93 382.89 356.75 C 382.89 426.58 441.73 483.19 514.31 483.19 C 586.89 483.19 645.73 426.58 645.73 356.75 C 645.72 286.93 586.89 230.33 514.31 230.33 Z M 229.63 381.15 C 229.59 414.82 249.35 445.62 280.67 460.65 C 282 460.3 283.36 460.05 284.7 459.73 L 284.51 461.01 C 284.51 461.01 307.38 464.62 307.38 483.2 C 307.38 501.77 284.51 505.38 284.51 505.38 L 284.28 505.87 C 217.14 526.92 166 579.75 148.95 645.67 C 141.11 658.3 140.68 673.95 147.82 686.96 C 154.97 699.97 168.65 708.45 183.91 709.33 L 183.91 709.44 L 187.26 709.44 L 181.17 753.8 L 138.18 753.8 L 138.18 753.69 C 115.03 752.43 96.95 733.97 97.02 711.66 C 97.04 709.43 97.23 707.21 97.61 705.01 L 97.3 705.01 C 97.12 701.32 97.03 697.62 97.02 693.92 C 96.85 604.58 147.86 522.42 229.7 480.22 C 187.28 443.47 172.67 385.43 192.89 334.08 C 213.12 282.73 264.03 248.58 321.12 248.1 C 327.91 248.15 334.7 248.68 341.41 249.71 L 315.31 292.74 C 266.96 295.84 229.47 334.55 229.63 381.15 Z" fill="#383838"/></svg>