<svg version="1.1" width="200" height="200" viewBox="0 0 1024 1024" xmlns="http://www.w3.org/2000/svg" xmlns:xlink="http://www.w3.org/1999/xlink" class="icon" overflow="hidden"><style>
.MsftOfcThm_Background1_Fill_v2 {
 fill:#FFFFFF; 
}
</style>
<path d=" M 862.72 254.72 C 853.76 216.32 843.52 186.88 830.72 165.12 C 816.64 140.8 800 128 780.8 128 L 779.52 128 C 762.88 128 747.52 136.96 734.72 153.6 L 602.88 270.08 L 345.6 270.08 C 231.68 270.08 139.52 362.24 139.52 476.16 L 139.52 481.28 C 139.52 578.56 209.92 661.76 305.92 678.4 L 405.76 852.48 C 421.12 879.36 450.56 896 482.56 896 C 497.92 896 513.28 892.16 526.08 884.48 C 546.56 872.96 560.64 853.76 567.04 830.72 C 573.44 807.68 569.6 784.64 558.08 764.16 L 512 682.24 L 604.16 682.24 L 734.72 797.44 C 747.52 815.36 762.88 824.32 780.8 824.32 C 800 824.32 817.92 811.52 832 787.2 C 844.8 766.72 855.04 736 864 697.6 C 883.2 611.84 884.48 513.28 884.48 476.16 C 884.48 396.8 876.8 314.88 862.72 254.72 Z M 830.72 476.16 C 830.72 654.08 797.44 753.92 779.52 770.56 C 761.6 753.92 728.32 654.08 728.32 476.16 C 728.32 298.24 761.6 198.4 779.52 181.76 C 798.72 198.4 830.72 299.52 830.72 476.16 Z M 675.84 476.16 C 675.84 554.24 683.52 634.88 696.32 695.04 L 634.88 640 C 627.2 616.96 609.28 556.8 609.28 476.16 C 609.28 392.96 628.48 330.24 633.6 312.32 L 696.32 257.28 C 683.52 316.16 675.84 398.08 675.84 476.16 Z M 444.16 643.84 C 439.04 651.52 439.04 661.76 444.16 669.44 L 513.28 789.76 C 518.4 798.72 519.68 807.68 517.12 816.64 C 514.56 825.6 508.16 833.28 500.48 838.4 C 483.84 848.64 460.8 842.24 451.84 825.6 L 345.6 641.28 C 341.76 633.6 334.08 629.76 325.12 628.48 C 248.32 620.8 192 558.08 192 482.56 L 192 477.44 C 192 391.68 261.12 322.56 345.6 322.56 L 577.28 322.56 C 569.6 350.72 558.08 407.04 558.08 476.16 C 558.08 541.44 568.32 595.2 577.28 629.76 L 467.2 629.76 C 456.96 631.04 448 634.88 444.16 643.84 Z" class="MsftOfcThm_Background1_Fill_v2" fill="#FFFFFF"/></svg>