<svg version="1.1" width="200" height="200" viewBox="0 0 1024 1024" xmlns="http://www.w3.org/2000/svg" xmlns:xlink="http://www.w3.org/1999/xlink" overflow="hidden"><path d=" M 497.8 883.1 L 404.5 831.8 L 177.8 831.8 C 151.6 831.8 130.4 810.6 130.4 784.4 L 130.4 184.9 C 130.4 158.7 151.6 137.5 177.8 137.5 L 421.6 137.5 L 466 168.5 C 481.1 179.1 484.9 199.9 474.3 215.1 C 463.8 230.3 442.9 234 427.7 223.4 L 400.5 204.4 L 197.3 204.4 L 197.3 764.9 L 421.7 764.9 L 520.4 819.2 L 614.4 764.9 L 828.8 764.9 L 828.8 204.4 L 585.3 204.4 L 585.3 640.4 C 585.3 658.9 570.3 673.8 551.9 673.8 C 533.4 673.8 518.5 658.8 518.5 640.4 L 518.5 184.9 C 518.5 158.7 539.7 137.5 565.9 137.5 L 848.3 137.5 C 874.5 137.5 895.7 158.7 895.7 184.9 L 895.7 784.4 C 895.7 810.6 874.5 831.8 848.3 831.8 L 632.3 831.8 L 544.3 882.6 C 529.9 890.9 512.3 891.1 497.8 883.1 Z" fill="#202A35"/><path d=" M 446.7 377.8 L 343.7 377.8 C 325.2 377.8 310.3 362.8 310.3 344.4 C 310.3 326 325.3 311 343.7 311 L 446.7 311 C 465.2 311 480.1 326 480.1 344.4 C 480.1 362.8 465.2 377.8 446.7 377.8 Z M 446.7 673.8 L 343.7 673.8 C 325.2 673.8 310.3 658.8 310.3 640.4 C 310.3 621.9 325.3 607 343.7 607 L 446.7 607 C 465.2 607 480.1 622 480.1 640.4 C 480.2 658.9 465.2 673.8 446.7 673.8 Z M 446.7 528.6 L 326.3 528.6 C 307.8 528.6 292.9 513.6 292.9 495.2 C 292.9 476.7 307.9 461.8 326.3 461.8 L 446.8 461.8 C 465.3 461.8 480.2 476.8 480.2 495.2 C 480.2 513.7 465.2 528.6 446.7 528.6 Z" fill="#202A35"/></svg>