<svg version="1.1" width="1897" height="1897" xmlns="http://www.w3.org/2000/svg" xmlns:xlink="http://www.w3.org/1999/xlink" overflow="hidden"><defs><clipPath id="clip0"><rect x="120" y="0" width="1897" height="1897"/></clipPath></defs><g clip-path="url(#clip0)" transform="matrix(1,0,0,1,-120,0)"><path d=" M 0 0 L 967.906 967.906" stroke="#ED9442" stroke-width="1.33333" stroke-miterlimit="8" stroke-opacity="0.8" fill="none" fill-rule="evenodd" transform="matrix(-1,0,0,1,1088.41,0.499948)"/><path d=" M 0 0 L 967.906 967.906" stroke="#ED9442" stroke-width="1.33333" stroke-miterlimit="8" stroke-opacity="0.8" fill="none" fill-rule="evenodd" transform="matrix(-1,0,0,1,1120.41,32.4999)"/><path d=" M 0 0 L 967.906 967.906" stroke="#ED9442" stroke-width="1.33333" stroke-miterlimit="8" stroke-opacity="0.8" fill="none" fill-rule="evenodd" transform="matrix(-1,0,0,1,1152.41,64.4999)"/><path d=" M 0 0 L 967.906 967.906" stroke="#ED9442" stroke-width="1.33333" stroke-miterlimit="8" stroke-opacity="0.8" fill="none" fill-rule="evenodd" transform="matrix(-1,0,0,1,1184.41,96.4999)"/><path d=" M 0 0 L 967.906 967.906" stroke="#ED9442" stroke-width="1.33333" stroke-miterlimit="8" stroke-opacity="0.8" fill="none" fill-rule="evenodd" transform="matrix(-1,0,0,1,1216.41,128.5)"/><path d=" M 0 0 L 967.906 967.906" stroke="#ED9442" stroke-width="1.33333" stroke-miterlimit="8" stroke-opacity="0.8" fill="none" fill-rule="evenodd" transform="matrix(-1,0,0,1,1248.41,160.5)"/><path d=" M 0 0 L 967.906 967.906" stroke="#ED9442" stroke-width="1.33333" stroke-miterlimit="8" stroke-opacity="0.8" fill="none" fill-rule="evenodd" transform="matrix(-1,0,0,1,1280.41,192.5)"/><path d=" M 0 0 L 967.906 967.906" stroke="#ED9442" stroke-width="1.33333" stroke-miterlimit="8" stroke-opacity="0.8" fill="none" fill-rule="evenodd" transform="matrix(-1,0,0,1,1312.41,224.5)"/><path d=" M 0 0 L 967.906 967.906" stroke="#ED9442" stroke-width="1.33333" stroke-miterlimit="8" stroke-opacity="0.8" fill="none" fill-rule="evenodd" transform="matrix(-1,0,0,1,1344.41,256.5)"/><path d=" M 0 0 L 967.906 967.906" stroke="#ED9442" stroke-width="1.33333" stroke-miterlimit="8" stroke-opacity="0.8" fill="none" fill-rule="evenodd" transform="matrix(-1,0,0,1,1376.41,288.5)"/><path d=" M 0 0 L 967.906 967.906" stroke="#ED9442" stroke-width="1.33333" stroke-miterlimit="8" stroke-opacity="0.8" fill="none" fill-rule="evenodd" transform="matrix(-1,0,0,1,1408.41,320.5)"/><path d=" M 0 0 L 967.906 967.906" stroke="#ED9442" stroke-width="1.33333" stroke-miterlimit="8" stroke-opacity="0.8" fill="none" fill-rule="evenodd" transform="matrix(-1,0,0,1,1440.41,352.5)"/><path d=" M 0 0 L 967.906 967.906" stroke="#ED9442" stroke-width="1.33333" stroke-miterlimit="8" stroke-opacity="0.8" fill="none" fill-rule="evenodd" transform="matrix(-1,0,0,1,1472.41,384.5)"/><path d=" M 0 0 L 967.906 967.906" stroke="#ED9442" stroke-width="1.33333" stroke-miterlimit="8" stroke-opacity="0.8" fill="none" fill-rule="evenodd" transform="matrix(-1,0,0,1,1504.41,416.5)"/><path d=" M 0 0 L 967.906 967.906" stroke="#ED9442" stroke-width="1.33333" stroke-miterlimit="8" stroke-opacity="0.8" fill="none" fill-rule="evenodd" transform="matrix(-1,0,0,1,1536.41,448.5)"/><path d=" M 0 0 L 967.906 967.906" stroke="#ED9442" stroke-width="1.33333" stroke-miterlimit="8" stroke-opacity="0.8" fill="none" fill-rule="evenodd" transform="matrix(-1,0,0,1,1568.41,480.5)"/><path d=" M 0 0 L 967.906 967.906" stroke="#ED9442" stroke-width="1.33333" stroke-miterlimit="8" stroke-opacity="0.8" fill="none" fill-rule="evenodd" transform="matrix(-1,0,0,1,1600.41,512.5)"/><path d=" M 0 0 L 967.906 967.906" stroke="#ED9442" stroke-width="1.33333" stroke-miterlimit="8" stroke-opacity="0.8" fill="none" fill-rule="evenodd" transform="matrix(-1,0,0,1,1632.41,544.5)"/><path d=" M 0 0 L 967.906 967.906" stroke="#ED9442" stroke-width="1.33333" stroke-miterlimit="8" stroke-opacity="0.8" fill="none" fill-rule="evenodd" transform="matrix(-1,0,0,1,1664.41,576.5)"/><path d=" M 0 0 L 967.906 967.906" stroke="#ED9442" stroke-width="1.33333" stroke-miterlimit="8" stroke-opacity="0.8" fill="none" fill-rule="evenodd" transform="matrix(-1,0,0,1,1696.41,608.5)"/><path d=" M 0 0 L 967.906 967.906" stroke="#ED9442" stroke-width="1.33333" stroke-miterlimit="8" stroke-opacity="0.8" fill="none" fill-rule="evenodd" transform="matrix(-1,0,0,1,1728.41,640.5)"/><path d=" M 0 0 L 967.906 967.906" stroke="#ED9442" stroke-width="1.33333" stroke-miterlimit="8" stroke-opacity="0.8" fill="none" fill-rule="evenodd" transform="matrix(-1,0,0,1,1760.41,672.5)"/><path d=" M 0 0 L 967.906 967.906" stroke="#ED9442" stroke-width="1.33333" stroke-miterlimit="8" stroke-opacity="0.8" fill="none" fill-rule="evenodd" transform="matrix(-1,0,0,1,1792.41,704.5)"/><path d=" M 0 0 L 967.906 967.906" stroke="#ED9442" stroke-width="1.33333" stroke-miterlimit="8" stroke-opacity="0.8" fill="none" fill-rule="evenodd" transform="matrix(-1,0,0,1,1824.41,736.5)"/><path d=" M 0 0 L 967.906 967.906" stroke="#ED9442" stroke-width="1.33333" stroke-miterlimit="8" stroke-opacity="0.8" fill="none" fill-rule="evenodd" transform="matrix(-1,0,0,1,1856.41,768.5)"/><path d=" M 0 0 L 967.906 967.906" stroke="#ED9442" stroke-width="1.33333" stroke-miterlimit="8" stroke-opacity="0.8" fill="none" fill-rule="evenodd" transform="matrix(-1,0,0,1,1888.41,800.5)"/><path d=" M 0 0 L 967.906 967.906" stroke="#ED9442" stroke-width="1.33333" stroke-miterlimit="8" stroke-opacity="0.8" fill="none" fill-rule="evenodd" transform="matrix(-1,0,0,1,1920.41,832.5)"/><path d=" M 0 0 L 967.906 967.906" stroke="#ED9442" stroke-width="1.33333" stroke-miterlimit="8" stroke-opacity="0.8" fill="none" fill-rule="evenodd" transform="matrix(-1,0,0,1,1952.41,864.5)"/><path d=" M 0 0 L 967.906 967.906" stroke="#ED9442" stroke-width="1.33333" stroke-miterlimit="8" stroke-opacity="0.8" fill="none" fill-rule="evenodd" transform="matrix(-1,0,0,1,1984.41,896.5)"/><path d=" M 0 0 L 967.906 967.906" stroke="#ED9442" stroke-width="1.33333" stroke-miterlimit="8" stroke-opacity="0.8" fill="none" fill-rule="evenodd" transform="matrix(-1,0,0,1,2016.41,928.5)"/></g></svg>