<?xml version='1.0' encoding='utf-8'?>
<svg xmlns="http://www.w3.org/2000/svg" version="1.1" width="1280" height="720" viewBox="0 0 1280 720"><rect x="0" y="0" width="1280" height="720" fill="#FFFFFF" />
<g id="layout-shape-15" data-name="直接连接符 14">
<line x1="0" y1="64.68" x2="1279.68" y2="64.68" stroke-width="4" stroke="#000000" fill="#305598" />
</g>
<g id="shape-5" data-name="矩形 4">
<rect x="20.9" y="6.7" width="523.93" height="54.93" fill="none" />
<text x="30.5" y="43.23" text-anchor="start" xml:space="preserve" font-family="&quot;思源黑体 CN Heavy&quot;, Roboto, sans-serif" font-size="37.33" fill="#000000"><tspan fill="#000000" font-size="37.33">{{SUBTITLE}}</tspan></text>
</g>
<g id="shape-2" data-name="箭头: 五边形 1">
<polygon points="459.34,510.55 1224.36,510.55 1269.82,607.27 1224.36,704 459.34,704" fill="#4474C5" stroke="none" stroke-width="1" />
</g>
<g id="shape-7" data-name="箭头: 五边形 6" transform="translate(254.2 607.27) scale(-1 1) translate(-254.2 -607.27)">
<polygon points="10.18,510.55 452.77,510.55 498.23,607.27 452.77,704 10.18,704" stroke="none" fill="#305598" stroke-width="1" />
</g>
<g id="shape-36" data-name="组合 35">
<g id="shape-37" data-name="Freeform 262">
<path d="M 564.14 296.82 C 563.71 295.1 562.85 293.37 562.42 291.65 C 561.56 289.92 560.7 288.63 559.83 286.91 C 559.83 286.91 559.83 286.91 559.83 286.91 C 570.61 275.27 570.61 275.27 570.61 275.27 C 568.88 272.26 566.73 269.24 564.57 266.65 C 549.92 271.83 549.92 271.83 549.92 271.83 C 547.77 269.24 544.75 266.65 542.17 264.07 C 547.34 249.42 547.34 249.42 547.34 249.42 C 544.75 247.26 541.74 245.11 538.72 243.38 C 527.08 254.16 527.08 254.16 527.08 254.16 C 524.07 252.43 520.62 251.14 517.17 249.85 C 517.17 249.85 517.17 249.85 517.17 249.85 C 516.31 234.33 516.31 234.33 516.31 234.33 C 512.86 233.47 509.42 232.61 505.97 232.18 C 499.5 246.4 499.5 246.4 499.5 246.4 C 495.63 245.97 492.18 245.97 488.3 246.4 C 488.3 246.4 488.3 246.4 488.3 246.4 C 481.84 232.18 481.84 232.18 481.84 232.18 C 478.39 232.61 474.94 233.47 471.49 234.33 C 470.63 249.85 470.63 249.85 470.63 249.85 C 468.91 250.28 467.18 251.14 465.46 251.57 C 463.74 252.43 462.01 253.29 460.72 254.16 C 449.08 243.38 449.08 243.38 449.08 243.38 C 446.07 245.11 443.05 247.26 440.47 249.42 C 445.64 264.07 445.64 264.07 445.64 264.07 C 442.62 266.65 440.03 269.24 437.88 271.83 C 437.88 271.83 437.88 271.83 437.88 271.83 C 423.23 266.65 423.23 266.65 423.23 266.65 C 421.07 269.24 418.92 272.26 417.2 275.27 C 427.97 286.91 427.97 286.91 427.97 286.91 C 427.97 286.91 427.97 286.91 427.97 286.91 C 426.25 289.92 424.95 293.37 423.66 296.82 C 408.15 297.68 408.15 297.68 408.15 297.68 C 407.28 301.13 406.42 304.58 405.99 308.02 C 420.21 314.49 420.21 314.49 420.21 314.49 C 419.78 318.37 419.78 321.81 420.21 325.69 C 405.99 332.16 405.99 332.16 405.99 332.16 C 406.42 335.6 407.28 339.05 408.15 342.5 C 423.66 343.36 423.66 343.36 423.66 343.36 C 423.66 343.36 423.66 343.36 423.66 343.36 C 424.09 345.08 424.95 346.81 425.38 348.53 C 426.25 350.25 427.11 351.98 427.97 353.27 C 427.97 353.27 427.97 353.27 427.97 353.27 C 417.2 364.91 417.2 364.91 417.2 364.91 C 418.92 367.92 421.07 370.94 423.23 373.53 C 437.88 368.35 437.88 368.35 437.88 368.35 C 440.03 371.37 443.05 373.96 445.64 376.11 C 440.47 390.76 440.47 390.76 440.47 390.76 C 443.05 392.92 446.07 395.07 449.08 396.8 C 460.72 386.02 460.72 386.02 460.72 386.02 C 463.74 387.75 467.18 389.04 470.63 390.33 C 470.63 390.33 470.63 390.33 470.63 390.33 C 471.49 405.85 471.49 405.85 471.49 405.85 C 474.94 407.14 478.39 407.57 481.84 408 C 488.3 393.78 488.3 393.78 488.3 393.78 C 492.18 394.21 495.63 394.21 499.5 393.78 C 499.5 393.78 499.5 393.78 499.5 393.78 C 505.97 408 505.97 408 505.97 408 C 509.42 407.57 512.86 407.14 516.31 405.85 C 517.17 390.33 517.17 390.33 517.17 390.33 C 518.9 389.9 520.62 389.04 522.34 388.61 C 524.07 387.75 525.79 386.88 527.08 386.02 C 538.72 396.8 538.72 396.8 538.72 396.8 C 541.74 395.07 544.75 392.92 547.34 390.76 C 542.17 376.11 542.17 376.11 542.17 376.11 C 545.18 373.96 547.77 371.37 549.92 368.35 C 549.92 368.35 549.92 368.35 549.92 368.35 C 564.57 373.53 564.57 373.53 564.57 373.53 C 566.73 370.94 568.88 367.92 570.61 364.91 C 559.83 353.27 559.83 353.27 559.83 353.27 C 559.83 353.27 559.83 353.27 559.83 353.27 C 561.56 350.25 562.85 346.81 564.14 343.36 C 579.66 342.5 579.66 342.5 579.66 342.5 C 580.52 339.05 581.38 335.6 581.81 332.16 C 567.59 325.69 567.59 325.69 567.59 325.69 C 568.02 321.81 568.02 318.37 567.59 314.49 C 581.81 308.02 581.81 308.02 581.81 308.02 C 581.38 304.58 580.52 301.13 579.66 297.68 C 564.14 296.82 564.14 296.82 564.14 296.82 C 564.14 296.82 564.14 296.82 564.14 296.82 Z M 516.31 373.96 C 486.58 386.02 452.53 371.8 440.03 342.5 C 427.97 312.76 442.19 278.72 471.49 266.65 C 501.23 254.16 535.27 268.38 547.77 298.11 C 559.83 327.42 545.61 361.46 516.31 373.96 Z" stroke="none" fill="none" />
</g>
<g id="shape-38" data-name="椭圆 37">
<ellipse cx="493.9" cy="320.09" rx="60.68" ry="60.68" stroke="none" fill="#305598" stroke-width="1" />
</g>
</g>
<g id="shape-39" data-name="组合 38">
<g id="shape-64" data-name="Freeform 262">
<path d="M 671.28 204.12 C 670.89 202.55 670.11 200.99 669.72 199.43 C 668.94 197.87 668.16 196.7 667.38 195.14 C 667.38 195.14 667.38 195.14 667.38 195.14 C 677.13 184.61 677.13 184.61 677.13 184.61 C 675.57 181.88 673.62 179.15 671.67 176.81 C 658.41 181.49 658.41 181.49 658.41 181.49 C 656.46 179.15 653.73 176.81 651.39 174.47 C 656.07 161.2 656.07 161.2 656.07 161.2 C 653.73 159.25 651 157.3 648.27 155.74 C 637.73 165.5 637.73 165.5 637.73 165.5 C 635 163.93 631.88 162.76 628.76 161.59 C 628.76 161.59 628.76 161.59 628.76 161.59 C 627.98 147.55 627.98 147.55 627.98 147.55 C 624.86 146.77 621.74 145.99 618.62 145.6 C 612.77 158.47 612.77 158.47 612.77 158.47 C 609.26 158.08 606.14 158.08 602.62 158.47 C 602.62 158.47 602.62 158.47 602.62 158.47 C 596.77 145.6 596.77 145.6 596.77 145.6 C 593.65 145.99 590.53 146.77 587.41 147.55 C 586.63 161.59 586.63 161.59 586.63 161.59 C 585.07 161.98 583.51 162.76 581.95 163.15 C 580.39 163.93 578.83 164.72 577.66 165.5 C 567.13 155.74 567.13 155.74 567.13 155.74 C 564.39 157.3 561.66 159.25 559.32 161.2 C 564 174.47 564 174.47 564 174.47 C 561.27 176.81 558.93 179.15 556.98 181.49 C 556.98 181.49 556.98 181.49 556.98 181.49 C 543.72 176.81 543.72 176.81 543.72 176.81 C 541.77 179.15 539.82 181.88 538.26 184.61 C 548.01 195.14 548.01 195.14 548.01 195.14 C 548.01 195.14 548.01 195.14 548.01 195.14 C 546.45 197.87 545.28 200.99 544.11 204.12 C 530.07 204.9 530.07 204.9 530.07 204.9 C 529.29 208.02 528.51 211.14 528.12 214.26 C 540.99 220.11 540.99 220.11 540.99 220.11 C 540.6 223.62 540.6 226.74 540.99 230.25 C 528.12 236.1 528.12 236.1 528.12 236.1 C 528.51 239.22 529.29 242.35 530.07 245.47 C 544.11 246.25 544.11 246.25 544.11 246.25 C 544.11 246.25 544.11 246.25 544.11 246.25 C 544.5 247.81 545.28 249.37 545.67 250.93 C 546.45 252.49 547.23 254.05 548.01 255.22 C 548.01 255.22 548.01 255.22 548.01 255.22 C 538.26 265.75 538.26 265.75 538.26 265.75 C 539.82 268.48 541.77 271.21 543.72 273.55 C 556.98 268.87 556.98 268.87 556.98 268.87 C 558.93 271.6 561.66 273.94 564 275.89 C 559.32 289.16 559.32 289.16 559.32 289.16 C 561.66 291.11 564.39 293.06 567.13 294.62 C 577.66 284.87 577.66 284.87 577.66 284.87 C 580.39 286.43 583.51 287.6 586.63 288.77 C 586.63 288.77 586.63 288.77 586.63 288.77 C 587.41 302.81 587.41 302.81 587.41 302.81 C 590.53 303.98 593.65 304.37 596.77 304.76 C 602.62 291.89 602.62 291.89 602.62 291.89 C 606.14 292.28 609.26 292.28 612.77 291.89 C 612.77 291.89 612.77 291.89 612.77 291.89 C 618.62 304.76 618.62 304.76 618.62 304.76 C 621.74 304.37 624.86 303.98 627.98 302.81 C 628.76 288.77 628.76 288.77 628.76 288.77 C 630.32 288.38 631.88 287.6 633.44 287.21 C 635 286.43 636.56 285.65 637.73 284.87 C 648.27 294.62 648.27 294.62 648.27 294.62 C 651 293.06 653.73 291.11 656.07 289.16 C 651.39 275.89 651.39 275.89 651.39 275.89 C 654.12 273.94 656.46 271.6 658.41 268.87 C 658.41 268.87 658.41 268.87 658.41 268.87 C 671.67 273.55 671.67 273.55 671.67 273.55 C 673.62 271.21 675.57 268.48 677.13 265.75 C 667.38 255.22 667.38 255.22 667.38 255.22 C 667.38 255.22 667.38 255.22 667.38 255.22 C 668.94 252.49 670.11 249.37 671.28 246.25 C 685.33 245.47 685.33 245.47 685.33 245.47 C 686.11 242.35 686.89 239.22 687.28 236.1 C 674.4 230.25 674.4 230.25 674.4 230.25 C 674.79 226.74 674.79 223.62 674.4 220.11 C 687.28 214.26 687.28 214.26 687.28 214.26 C 686.89 211.14 686.11 208.02 685.33 204.9 C 671.28 204.12 671.28 204.12 671.28 204.12 C 671.28 204.12 671.28 204.12 671.28 204.12 Z M 627.98 273.94 C 601.06 284.87 570.25 271.99 558.93 245.47 C 548.01 218.55 560.88 187.73 587.41 176.81 C 614.33 165.5 645.15 178.37 656.46 205.29 C 667.38 231.81 654.51 262.63 627.98 273.94 Z" stroke="none" fill="none" />
</g>
<g id="shape-65" data-name="椭圆 64">
<ellipse cx="607.7" cy="225.18" rx="54.93" ry="54.93" stroke="none" fill="#305598" stroke-width="1" />
</g>
</g>
<g id="shape-66" data-name="组合 65">
<g id="shape-67" data-name="Freeform 262">
<path d="M 690.13 317.55 C 689.78 316.16 689.08 314.76 688.74 313.36 C 688.04 311.97 687.34 310.92 686.64 309.52 C 686.64 309.52 686.64 309.52 686.64 309.52 C 695.37 300.09 695.37 300.09 695.37 300.09 C 693.97 297.65 692.23 295.2 690.48 293.1 C 678.61 297.3 678.61 297.3 678.61 297.3 C 676.86 295.2 674.42 293.1 672.32 291.01 C 676.51 279.13 676.51 279.13 676.51 279.13 C 674.42 277.39 671.97 275.64 669.53 274.24 C 660.1 282.98 660.1 282.98 660.1 282.98 C 657.65 281.58 654.86 280.53 652.06 279.48 C 652.06 279.48 652.06 279.48 652.06 279.48 C 651.36 266.91 651.36 266.91 651.36 266.91 C 648.57 266.21 645.78 265.51 642.98 265.16 C 637.74 276.69 637.74 276.69 637.74 276.69 C 634.6 276.34 631.8 276.34 628.66 276.69 C 628.66 276.69 628.66 276.69 628.66 276.69 C 623.42 265.16 623.42 265.16 623.42 265.16 C 620.63 265.51 617.83 266.21 615.04 266.91 C 614.34 279.48 614.34 279.48 614.34 279.48 C 612.94 279.83 611.55 280.53 610.15 280.88 C 608.75 281.58 607.36 282.28 606.31 282.98 C 596.88 274.24 596.88 274.24 596.88 274.24 C 594.43 275.64 591.99 277.39 589.89 279.13 C 594.08 291.01 594.08 291.01 594.08 291.01 C 591.64 293.1 589.54 295.2 587.8 297.3 C 587.8 297.3 587.8 297.3 587.8 297.3 C 575.92 293.1 575.92 293.1 575.92 293.1 C 574.18 295.2 572.43 297.65 571.03 300.09 C 579.76 309.52 579.76 309.52 579.76 309.52 C 579.76 309.52 579.76 309.52 579.76 309.52 C 578.37 311.97 577.32 314.76 576.27 317.55 C 563.7 318.25 563.7 318.25 563.7 318.25 C 563 321.05 562.3 323.84 561.95 326.63 C 573.48 331.87 573.48 331.87 573.48 331.87 C 573.13 335.02 573.13 337.81 573.48 340.95 C 561.95 346.19 561.95 346.19 561.95 346.19 C 562.3 348.99 563 351.78 563.7 354.58 C 576.27 355.27 576.27 355.27 576.27 355.27 C 576.27 355.27 576.27 355.27 576.27 355.27 C 576.62 356.67 577.32 358.07 577.67 359.47 C 578.37 360.86 579.07 362.26 579.76 363.31 C 579.76 363.31 579.76 363.31 579.76 363.31 C 571.03 372.74 571.03 372.74 571.03 372.74 C 572.43 375.18 574.18 377.63 575.92 379.72 C 587.8 375.53 587.8 375.53 587.8 375.53 C 589.54 377.98 591.99 380.07 594.08 381.82 C 589.89 393.69 589.89 393.69 589.89 393.69 C 591.99 395.44 594.43 397.19 596.88 398.58 C 606.31 389.85 606.31 389.85 606.31 389.85 C 608.75 391.25 611.55 392.3 614.34 393.34 C 614.34 393.34 614.34 393.34 614.34 393.34 C 615.04 405.92 615.04 405.92 615.04 405.92 C 617.83 406.97 620.63 407.32 623.42 407.66 C 628.66 396.14 628.66 396.14 628.66 396.14 C 631.8 396.49 634.6 396.49 637.74 396.14 C 637.74 396.14 637.74 396.14 637.74 396.14 C 642.98 407.66 642.98 407.66 642.98 407.66 C 645.78 407.32 648.57 406.97 651.36 405.92 C 652.06 393.34 652.06 393.34 652.06 393.34 C 653.46 393 654.86 392.3 656.25 391.95 C 657.65 391.25 659.05 390.55 660.1 389.85 C 669.53 398.58 669.53 398.58 669.53 398.58 C 671.97 397.19 674.42 395.44 676.51 393.69 C 672.32 381.82 672.32 381.82 672.32 381.82 C 674.76 380.07 676.86 377.98 678.61 375.53 C 678.61 375.53 678.61 375.53 678.61 375.53 C 690.48 379.72 690.48 379.72 690.48 379.72 C 692.23 377.63 693.97 375.18 695.37 372.74 C 686.64 363.31 686.64 363.31 686.64 363.31 C 686.64 363.31 686.64 363.31 686.64 363.31 C 688.04 360.86 689.08 358.07 690.13 355.27 C 702.71 354.58 702.71 354.58 702.71 354.58 C 703.4 351.78 704.1 348.99 704.45 346.19 C 692.93 340.95 692.93 340.95 692.93 340.95 C 693.28 337.81 693.28 335.02 692.93 331.87 C 704.45 326.63 704.45 326.63 704.45 326.63 C 704.1 323.84 703.4 321.05 702.71 318.25 C 690.13 317.55 690.13 317.55 690.13 317.55 C 690.13 317.55 690.13 317.55 690.13 317.55 Z M 651.36 380.07 C 627.26 389.85 599.67 378.33 589.54 354.58 C 579.76 330.48 591.29 302.88 615.04 293.1 C 639.14 282.98 666.73 294.5 676.86 318.6 C 686.64 342.35 675.11 369.94 651.36 380.07 Z" stroke="none" fill="none" />
</g>
<g id="shape-68" data-name="椭圆 67">
<ellipse cx="633.2" cy="336.41" rx="49.18" ry="49.18" stroke="none" fill="#305598" stroke-width="1" />
</g>
</g>
<g id="shape-69" data-name="组合 68">
<g id="shape-70" data-name="Freeform 262">
<path d="M 851.93 229.97 C 851.41 227.91 850.38 225.85 849.87 223.78 C 848.83 221.72 847.8 220.17 846.77 218.11 C 846.77 218.11 846.77 218.11 846.77 218.11 C 859.67 204.18 859.67 204.18 859.67 204.18 C 857.6 200.57 855.02 196.96 852.44 193.86 C 834.91 200.05 834.91 200.05 834.91 200.05 C 832.33 196.96 828.72 193.86 825.62 190.77 C 831.81 173.23 831.81 173.23 831.81 173.23 C 828.72 170.65 825.11 168.07 821.5 166.01 C 807.57 178.91 807.57 178.91 807.57 178.91 C 803.96 176.84 799.83 175.29 795.7 173.75 C 795.7 173.75 795.7 173.75 795.7 173.75 C 794.67 155.18 794.67 155.18 794.67 155.18 C 790.55 154.15 786.42 153.11 782.29 152.6 C 774.56 169.62 774.56 169.62 774.56 169.62 C 769.91 169.1 765.79 169.1 761.14 169.62 C 761.14 169.62 761.14 169.62 761.14 169.62 C 753.41 152.6 753.41 152.6 753.41 152.6 C 749.28 153.11 745.15 154.15 741.03 155.18 C 740 173.75 740 173.75 740 173.75 C 737.93 174.26 735.87 175.29 733.81 175.81 C 731.74 176.84 729.68 177.87 728.13 178.91 C 714.2 166.01 714.2 166.01 714.2 166.01 C 710.59 168.07 706.98 170.65 703.89 173.23 C 710.08 190.77 710.08 190.77 710.08 190.77 C 706.47 193.86 703.37 196.96 700.79 200.05 C 700.79 200.05 700.79 200.05 700.79 200.05 C 683.26 193.86 683.26 193.86 683.26 193.86 C 680.68 196.96 678.1 200.57 676.03 204.18 C 688.93 218.11 688.93 218.11 688.93 218.11 C 688.93 218.11 688.93 218.11 688.93 218.11 C 686.87 221.72 685.32 225.85 683.77 229.97 C 665.2 231 665.2 231 665.2 231 C 664.17 235.13 663.14 239.26 662.62 243.38 C 679.64 251.12 679.64 251.12 679.64 251.12 C 679.13 255.76 679.13 259.89 679.64 264.53 C 662.62 272.27 662.62 272.27 662.62 272.27 C 663.14 276.4 664.17 280.52 665.2 284.65 C 683.77 285.68 683.77 285.68 683.77 285.68 C 683.77 285.68 683.77 285.68 683.77 285.68 C 684.29 287.74 685.32 289.81 685.83 291.87 C 686.87 293.93 687.9 296 688.93 297.54 C 688.93 297.54 688.93 297.54 688.93 297.54 C 676.03 311.47 676.03 311.47 676.03 311.47 C 678.1 315.08 680.68 318.69 683.26 321.79 C 700.79 315.6 700.79 315.6 700.79 315.6 C 703.37 319.21 706.98 322.3 710.08 324.88 C 703.89 342.42 703.89 342.42 703.89 342.42 C 706.98 345 710.59 347.58 714.2 349.64 C 728.13 336.75 728.13 336.75 728.13 336.75 C 731.74 338.81 735.87 340.36 740 341.9 C 740 341.9 740 341.9 740 341.9 C 741.03 360.47 741.03 360.47 741.03 360.47 C 745.15 362.02 749.28 362.54 753.41 363.05 C 761.14 346.03 761.14 346.03 761.14 346.03 C 765.79 346.55 769.91 346.55 774.56 346.03 C 774.56 346.03 774.56 346.03 774.56 346.03 C 782.29 363.05 782.29 363.05 782.29 363.05 C 786.42 362.54 790.55 362.02 794.67 360.47 C 795.7 341.9 795.7 341.9 795.7 341.9 C 797.77 341.39 799.83 340.36 801.89 339.84 C 803.96 338.81 806.02 337.78 807.57 336.75 C 821.5 349.64 821.5 349.64 821.5 349.64 C 825.11 347.58 828.72 345 831.81 342.42 C 825.62 324.88 825.62 324.88 825.62 324.88 C 829.23 322.3 832.33 319.21 834.91 315.6 C 834.91 315.6 834.91 315.6 834.91 315.6 C 852.44 321.79 852.44 321.79 852.44 321.79 C 855.02 318.69 857.6 315.08 859.67 311.47 C 846.77 297.54 846.77 297.54 846.77 297.54 C 846.77 297.54 846.77 297.54 846.77 297.54 C 848.83 293.93 850.38 289.81 851.93 285.68 C 870.5 284.65 870.5 284.65 870.5 284.65 C 871.53 280.52 872.56 276.4 873.08 272.27 C 856.06 264.53 856.06 264.53 856.06 264.53 C 856.57 259.89 856.57 255.76 856.06 251.12 C 873.08 243.38 873.08 243.38 873.08 243.38 C 872.56 239.26 871.53 235.13 870.5 231 C 851.93 229.97 851.93 229.97 851.93 229.97 C 851.93 229.97 851.93 229.97 851.93 229.97 Z M 794.67 322.3 C 759.08 336.75 718.33 319.72 703.37 284.65 C 688.93 249.06 705.95 208.31 741.03 193.86 C 776.62 178.91 817.37 195.93 832.33 231.52 C 846.77 266.6 829.75 307.34 794.67 322.3 Z" stroke="none" fill="none" />
</g>
<g id="shape-71" data-name="椭圆 70">
<ellipse cx="767.85" cy="257.83" rx="72.63" ry="72.63" stroke="none" fill="#305598" stroke-width="1" />
</g>
</g>
<g id="shape-74" data-name="任意多边形: 形状 73">
<path d="M 57.6 113.6 L 619.2 113.6 L 619.2 152.6" fill="none" stroke="#D9D9D9" stroke-width="1" />
</g>
<g id="shape-76" data-name="文本框 75">
<rect x="50.21" y="126.31" width="226.33" height="38.57" fill="none" />
<text x="59.81" y="149.25" text-anchor="start" xml:space="preserve" font-family="&quot;思源黑体 CN Heavy&quot;, Roboto, sans-serif" font-size="21.33" fill="#305598"><tspan fill="#305598" font-size="21.33">{{TAGLINE}}</tspan></text>
</g>
<g id="shape-77" data-name="文本框 76">
<rect x="50.95" y="159.59" width="291.36" height="101.19" fill="none" />
<text x="60.55" y="177.99" text-anchor="start" xml:space="preserve" font-family="&quot;思源黑体 CN Normal&quot;, Roboto, sans-serif" font-size="16" fill="#595959"><tspan fill="#595959" font-size="16">{{TAGLINE}}</tspan></text>
</g>
<g id="shape-81" data-name="任意多边形: 形状 80" transform="translate(273.6 434.92) scale(1 -1) translate(-273.6 -434.92)">
<path d="M 57.6 391.66 L 489.6 391.66 L 489.6 478.18" fill="none" stroke="#D9D9D9" stroke-width="1" />
</g>
<g id="shape-82" data-name="文本框 81">
<rect x="50.21" y="330.79" width="226.33" height="38.57" fill="none" />
<text x="59.81" y="353.73" text-anchor="start" xml:space="preserve" font-family="&quot;思源黑体 CN Heavy&quot;, Roboto, sans-serif" font-size="21.33" fill="#305598"><tspan fill="#305598" font-size="21.33">{{TAGLINE}}</tspan></text>
</g>
<g id="shape-84" data-name="文本框 83">
<rect x="50.95" y="364.07" width="291.36" height="101.19" fill="none" />
<text x="60.55" y="382.47" text-anchor="start" xml:space="preserve" font-family="&quot;思源黑体 CN Normal&quot;, Roboto, sans-serif" font-size="16" fill="#595959"><tspan fill="#595959" font-size="16">{{TAGLINE}}</tspan></text>
</g>
<g id="shape-85" data-name="任意多边形: 形状 84" transform="translate(997.83 141.93) scale(-1 1) translate(-997.83 -141.93)">
<path d="M 765.87 113.6 L 1229.79 113.6 L 1229.79 170.25" fill="none" stroke="#D9D9D9" stroke-width="1" />
</g>
<g id="shape-87" data-name="文本框 86">
<rect x="1016.71" y="126.31" width="226.33" height="38.57" fill="none" />
<text x="1233.44" y="149.25" text-anchor="end" xml:space="preserve" font-family="&quot;思源黑体 CN Heavy&quot;, Roboto, sans-serif" font-size="21.33" fill="#305598"><tspan fill="#305598" font-size="21.33">{{TAGLINE}}</tspan></text>
</g>
<g id="shape-88" data-name="文本框 87">
<rect x="951.67" y="159.59" width="291.36" height="101.19" fill="none" />
<text x="961.27" y="177.99" text-anchor="start" xml:space="preserve" font-family="&quot;思源黑体 CN Normal&quot;, Roboto, sans-serif" font-size="16" fill="#595959"><tspan fill="#595959" font-size="16">{{TAGLINE}}</tspan></text>
</g>
<g id="shape-89" data-name="任意多边形: 形状 88" transform="translate(934.9 434.92) scale(-1 -1) translate(-934.9 -434.92)">
<path d="M 640 391.66 L 1229.79 391.66 L 1229.79 478.18" fill="none" stroke="#D9D9D9" stroke-width="1" />
</g>
<g id="shape-90" data-name="文本框 89">
<rect x="1016.71" y="330.79" width="226.33" height="38.57" fill="none" />
<text x="1233.44" y="353.73" text-anchor="end" xml:space="preserve" font-family="&quot;思源黑体 CN Heavy&quot;, Roboto, sans-serif" font-size="21.33" fill="#305598"><tspan fill="#305598" font-size="21.33">{{TAGLINE}}</tspan></text>
</g>
<g id="shape-91" data-name="文本框 90">
<rect x="951.67" y="364.07" width="291.36" height="101.19" fill="none" />
<text x="961.27" y="382.47" text-anchor="start" xml:space="preserve" font-family="&quot;思源黑体 CN Normal&quot;, Roboto, sans-serif" font-size="16" fill="#595959"><tspan fill="#595959" font-size="16">{{TAGLINE}}</tspan></text>
</g>
<g id="shape-92" data-name="文本框 91">
<rect x="531.29" y="197.44" width="151.09" height="45.79" fill="none" />
<text x="606.84" y="224.91" text-anchor="middle" xml:space="preserve" font-family="&quot;思源黑体 CN Heavy&quot;, Roboto, sans-serif" font-size="26.67" fill="#FFFFFF"><tspan fill="#FFFFFF" font-size="26.67">{{TAGLINE}}</tspan></text>
</g>
<g id="shape-93" data-name="文本框 92">
<rect x="418.36" y="296.97" width="151.09" height="45.79" fill="none" />
<text x="493.9" y="324.44" text-anchor="middle" xml:space="preserve" font-family="&quot;思源黑体 CN Heavy&quot;, Roboto, sans-serif" font-size="26.67" fill="#FFFFFF"><tspan fill="#FFFFFF" font-size="26.67">{{TAGLINE}}</tspan></text>
</g>
<g id="shape-94" data-name="文本框 93">
<rect x="558.93" y="312.81" width="151.09" height="45.79" fill="none" />
<text x="634.47" y="340.27" text-anchor="middle" xml:space="preserve" font-family="&quot;思源黑体 CN Heavy&quot;, Roboto, sans-serif" font-size="26.67" fill="#FFFFFF"><tspan fill="#FFFFFF" font-size="26.67">{{TAGLINE}}</tspan></text>
</g>
<g id="shape-95" data-name="文本框 94">
<rect x="693.78" y="234.93" width="151.09" height="45.79" fill="none" />
<text x="769.32" y="262.4" text-anchor="middle" xml:space="preserve" font-family="&quot;思源黑体 CN Heavy&quot;, Roboto, sans-serif" font-size="26.67" fill="#FFFFFF"><tspan fill="#FFFFFF" font-size="26.67">{{TAGLINE}}</tspan></text>
</g>
<g id="shape-96" data-name="文本框 95">
<rect x="51.49" y="553.69" width="141.58" height="107.16" fill="none" />
<text x="61.09" y="619.69" text-anchor="start" xml:space="preserve" font-family="&quot;思源黑体 CN Heavy&quot;, Roboto, sans-serif" font-size="72" fill="#FFFFFF"><tspan fill="#FFFFFF" font-size="72">{{TITLE}}</tspan></text>
</g>
<g id="shape-97" data-name="文本框 96">
<rect x="196.63" y="547.53" width="271.22" height="124.46" fill="none" />
<text x="206.23" y="565.93" text-anchor="start" xml:space="preserve" font-family="&quot;思源黑体 CN Normal&quot;, Roboto, sans-serif" font-size="16" fill="#F2F2F2"><tspan fill="#F2F2F2" font-size="16">{{TAGLINE}}</tspan></text>
</g>
<g id="shape-98" data-name="椭圆 97">
<ellipse cx="568.56" cy="575.83" rx="22.64" ry="22.64" fill="#305598" fill-opacity="0" stroke="#F2F2F2" stroke-width="1" />
</g>
<g id="shape-99" data-name="文本框 98">
<rect x="595.68" y="547.5" width="244.8" height="54.66" fill="none" />
<text x="605.28" y="565.9" text-anchor="start" xml:space="preserve" font-family="&quot;思源黑体 CN Normal&quot;, Roboto, sans-serif" font-size="16" fill="#F2F2F2"><tspan fill="#F2F2F2" font-size="16">{{TAGLINE}}</tspan></text>
</g>
<g id="shape-100" data-name="椭圆 99">
<ellipse cx="568.56" cy="647.69" rx="22.64" ry="22.64" fill="#305598" fill-opacity="0" stroke="#F2F2F2" stroke-width="1" />
</g>
<g id="shape-101" data-name="文本框 100">
<rect x="595.68" y="619.36" width="244.8" height="54.66" fill="none" />
<text x="605.28" y="637.76" text-anchor="start" xml:space="preserve" font-family="&quot;思源黑体 CN Normal&quot;, Roboto, sans-serif" font-size="16" fill="#F2F2F2"><tspan fill="#F2F2F2" font-size="16">{{TAGLINE}}</tspan></text>
</g>
<g id="shape-102" data-name="椭圆 101">
<ellipse cx="924.55" cy="575.83" rx="22.64" ry="22.64" fill="#305598" fill-opacity="0" stroke="#F2F2F2" stroke-width="1" />
</g>
<g id="shape-103" data-name="文本框 102">
<rect x="951.67" y="547.5" width="244.8" height="54.66" fill="none" />
<text x="961.27" y="565.9" text-anchor="start" xml:space="preserve" font-family="&quot;思源黑体 CN Normal&quot;, Roboto, sans-serif" font-size="16" fill="#F2F2F2"><tspan fill="#F2F2F2" font-size="16">{{TAGLINE}}</tspan></text>
</g>
<g id="shape-104" data-name="椭圆 103">
<ellipse cx="924.55" cy="647.69" rx="22.64" ry="22.64" fill="#305598" fill-opacity="0" stroke="#F2F2F2" stroke-width="1" />
</g>
<g id="shape-105" data-name="文本框 104">
<rect x="951.67" y="619.36" width="244.8" height="54.66" fill="none" />
<text x="961.27" y="637.76" text-anchor="start" xml:space="preserve" font-family="&quot;思源黑体 CN Normal&quot;, Roboto, sans-serif" font-size="16" fill="#F2F2F2"><tspan fill="#F2F2F2" font-size="16">{{TAGLINE}}</tspan></text>
</g>
<g id="shape-107" data-name="直接连接符 106">
<line x1="863.48" y1="553.2" x2="863.48" y2="670.32" stroke="#F2F2F2" stroke-opacity="0.5" fill="#305598" stroke-width="1" />
</g>
<g id="shape-109" data-name="Freeform: Shape 60">
<path d="M 557.78 585.11 L 581.11 585.11 C 581.66 585.11 582.1 585.56 582.1 586.1 C 582.1 586.65 581.66 587.09 581.11 587.09 L 557.78 587.09 C 557.23 587.09 556.79 586.65 556.79 586.1 C 556.79 585.56 557.23 585.11 557.78 585.11 Z M 573.45 571.82 C 572.9 571.82 572.46 572.26 572.46 572.8 L 572.46 581.16 L 574.44 581.16 L 574.44 572.8 C 574.44 572.26 573.99 571.82 573.45 571.82 Z M 569.49 571.82 C 568.95 571.82 568.51 572.26 568.51 572.8 L 568.51 581.16 L 570.48 581.16 L 570.48 572.8 C 570.48 572.26 570.04 571.82 569.49 571.82 Z M 565.54 571.82 C 564.99 571.82 564.55 572.26 564.55 572.8 L 564.55 581.16 L 566.53 581.16 L 566.53 572.8 C 566.53 572.26 566.08 571.82 565.54 571.82 Z M 561.58 571.82 C 561.04 571.82 560.6 572.26 560.6 572.8 L 560.6 581.16 L 562.57 581.16 L 562.57 572.8 C 562.57 572.26 562.13 571.82 561.58 571.82 Z M 569.44 566.23 C 569.99 566.23 570.43 566.67 570.43 567.22 C 570.43 567.76 569.99 568.21 569.44 568.21 C 568.9 568.21 568.46 567.76 568.46 567.22 C 568.46 566.67 568.9 566.23 569.44 566.23 Z M 569.42 564.05 L 558.77 568.8 L 558.77 569.79 L 580.12 569.79 L 580.12 568.8 Z M 569.42 561.98 C 569.56 561.98 569.69 562.01 569.82 562.06 L 581.51 567.25 C 581.87 567.41 582.1 567.77 582.1 568.16 L 582.1 570.78 C 582.1 570.79 582.1 570.79 582.1 570.8 C 582.1 570.81 582.1 570.82 582.1 570.83 C 582.1 571.37 581.66 571.82 581.11 571.82 C 580.42 571.82 580.37 572.57 580.37 572.8 L 580.37 577.18 C 580.37 577.73 579.93 578.17 579.38 578.17 C 578.83 578.17 578.39 577.73 578.39 577.18 L 578.39 572.8 C 578.39 572.26 577.95 571.82 577.4 571.82 C 576.86 571.82 576.41 572.26 576.41 572.8 L 576.41 581.16 L 579.38 581.16 C 579.93 581.16 580.37 581.6 580.37 582.15 C 580.37 582.69 579.93 583.14 579.38 583.14 L 559.61 583.14 C 559.06 583.14 558.62 582.69 558.62 582.15 C 558.62 582.13 558.62 582.11 558.62 582.09 C 558.62 582.07 558.62 582.04 558.62 582.02 L 558.62 572.8 C 558.62 572.31 558.36 571.82 557.78 571.82 C 557.23 571.82 556.79 571.37 556.79 570.83 C 556.79 570.82 556.79 570.81 556.79 570.8 C 556.79 570.79 556.79 570.79 556.79 570.78 L 556.79 568.16 C 556.79 567.77 557.02 567.41 557.38 567.25 L 569.02 562.06 C 569.15 562.01 569.28 561.98 569.42 561.98 Z" fill="#FFFFFF" stroke-width="1" stroke-linecap="butt" stroke="none" stroke-linejoin="miter" />
</g>
<g id="shape-110" data-name="Freeform: Shape 64">
<path d="M 936.89 654.63 C 937.35 654.63 937.77 654.95 937.86 655.41 C 938.05 656.31 937.83 657.23 937.25 657.93 C 936.68 658.63 935.83 659.04 934.93 659.04 L 930.46 659.04 C 929.92 659.04 929.48 658.59 929.48 658.05 C 929.48 657.5 929.92 657.06 930.46 657.06 L 934.93 657.06 C 935.35 657.06 935.6 656.82 935.72 656.68 C 935.92 656.44 935.99 656.13 935.93 655.82 C 935.82 655.28 936.16 654.76 936.69 654.65 C 936.76 654.63 936.83 654.63 936.89 654.63 Z M 925.22 651.63 L 924.33 655.7 L 925.22 656.6 L 926.12 655.71 Z M 925.27 635.7 C 922.66 635.7 920.53 637.83 920.53 640.45 C 920.53 642.99 922.53 645.07 925.04 645.19 C 925.12 645.19 925.2 645.19 925.27 645.19 C 925.35 645.19 925.43 645.19 925.51 645.19 C 928.02 645.07 930.02 642.99 930.02 640.45 C 930.02 637.83 927.89 635.7 925.27 635.7 Z M 925.27 633.73 C 928.98 633.73 932 636.74 932 640.45 C 932 642.65 930.94 644.6 929.3 645.83 C 931.98 646.72 934.34 648.48 935.96 650.89 C 936.27 651.35 936.15 651.96 935.69 652.27 C 935.24 652.57 934.62 652.45 934.32 652 C 932.48 649.25 929.53 647.51 926.28 647.21 L 928.17 655.81 C 928.24 656.14 928.14 656.48 927.9 656.72 L 925.92 658.7 C 925.74 658.88 925.49 658.99 925.22 658.99 C 924.96 658.99 924.71 658.88 924.52 658.7 L 922.55 656.72 C 922.31 656.48 922.21 656.14 922.28 655.81 L 924.17 647.22 C 919.51 647.7 915.59 651.17 914.62 655.82 C 914.55 656.13 914.63 656.44 914.83 656.68 C 914.94 656.82 915.2 657.06 915.62 657.06 L 919.93 657.06 C 920.48 657.06 920.92 657.5 920.92 658.05 C 920.92 658.59 920.48 659.04 919.93 659.04 L 915.62 659.04 C 914.71 659.04 913.87 658.63 913.29 657.93 C 912.72 657.23 912.5 656.31 912.68 655.41 C 913.28 652.56 914.85 649.97 917.11 648.11 C 918.34 647.1 919.75 646.33 921.25 645.83 C 919.61 644.61 918.55 642.65 918.55 640.45 C 918.55 636.74 921.57 633.73 925.27 633.73 Z" fill="#FFFFFF" stroke-width="1" stroke-linecap="butt" stroke="none" stroke-linejoin="miter" />
</g>
<g id="shape-111" data-name="Freeform: Shape 69">
<path d="M 934.51 584.61 L 934.51 586.59 L 934.96 586.59 C 935.5 586.59 935.94 586.15 935.94 585.6 C 935.94 585.05 935.5 584.61 934.95 584.61 Z M 916.47 582.63 L 934.95 582.63 C 936.59 582.63 937.92 583.96 937.92 585.6 C 937.92 587.24 936.59 588.57 934.95 588.57 L 933.52 588.56 C 932.97 588.56 932.53 588.12 932.53 587.58 L 932.53 584.61 L 916.77 584.61 L 915.35 585.56 L 916.8 586.58 L 928.58 586.58 C 929.13 586.58 929.57 587.03 929.57 587.57 C 929.57 588.12 929.13 588.56 928.58 588.56 L 916.48 588.56 C 916.28 588.56 916.08 588.5 915.91 588.38 L 913.04 586.34 C 912.77 586.15 912.61 585.85 912.62 585.52 C 912.62 585.2 912.79 584.89 913.06 584.71 L 915.92 582.8 C 916.08 582.69 916.27 582.63 916.47 582.63 Z M 932.98 574.77 C 933.52 574.77 933.97 575.22 933.97 575.76 C 933.97 576.31 933.52 576.75 932.98 576.75 C 932.43 576.75 931.99 576.31 931.99 575.76 C 931.99 575.22 932.43 574.77 932.98 574.77 Z M 930.01 574.77 C 930.56 574.77 931 575.22 931 575.76 C 931 576.31 930.56 576.75 930.01 576.75 C 929.47 576.75 929.02 576.31 929.02 575.76 C 929.02 575.22 929.47 574.77 930.01 574.77 Z M 927.05 574.77 C 927.59 574.77 928.04 575.22 928.04 575.76 C 928.04 576.31 927.59 576.75 927.05 576.75 C 926.5 576.75 926.06 576.31 926.06 575.76 C 926.06 575.22 926.5 574.77 927.05 574.77 Z M 917.56 574.77 L 923.09 574.77 C 923.64 574.77 924.08 575.22 924.08 575.76 C 924.08 576.31 923.64 576.75 923.09 576.75 L 917.56 576.75 C 917.01 576.75 916.57 576.31 916.57 575.76 C 916.57 575.22 917.01 574.77 917.56 574.77 Z M 932.98 571.22 C 933.52 571.22 933.97 571.66 933.97 572.2 C 933.97 572.75 933.52 573.19 932.98 573.19 C 932.43 573.19 931.99 572.75 931.99 572.2 C 931.99 571.66 932.43 571.22 932.98 571.22 Z M 930.01 571.22 C 930.56 571.22 931 571.66 931 572.2 C 931 572.75 930.56 573.19 930.01 573.19 C 929.47 573.19 929.02 572.75 929.02 572.2 C 929.02 571.66 929.47 571.22 930.01 571.22 Z M 917.56 571.22 L 926.01 571.22 C 926.56 571.22 927 571.66 927 572.2 C 927 572.75 926.56 573.19 926.01 573.19 L 917.56 573.19 C 917.01 573.19 916.57 572.75 916.57 572.2 C 916.57 571.66 917.01 571.22 917.56 571.22 Z M 916.57 565.24 C 915.48 565.24 914.6 566.12 914.6 567.21 L 914.6 567.26 L 935.94 567.26 L 935.94 567.21 C 935.94 566.12 935.06 565.24 933.97 565.24 Z M 916.57 563.26 L 933.97 563.26 C 936.15 563.26 937.92 565.03 937.92 567.21 L 937.92 571.81 C 937.92 572.35 937.48 572.8 936.93 572.8 C 936.39 572.8 935.94 572.35 935.94 571.81 L 935.94 569.24 L 914.6 569.24 L 914.6 576.75 C 914.6 577.84 915.48 578.73 916.57 578.73 L 933.97 578.73 C 935.06 578.73 935.94 577.84 935.94 576.75 C 935.94 576.2 936.39 575.76 936.93 575.76 C 937.48 575.76 937.92 576.2 937.92 576.75 C 937.92 578.93 936.15 580.7 933.97 580.7 L 916.57 580.7 C 914.39 580.7 912.62 578.93 912.62 576.75 L 912.62 567.21 C 912.62 565.03 914.39 563.26 916.57 563.26 Z" fill="#FFFFFF" stroke-width="1" stroke-linecap="butt" stroke="none" stroke-linejoin="miter" />
</g>
<g id="shape-112" data-name="Freeform: Shape 78">
<path d="M 567.79 656.61 C 568.34 656.61 568.78 657.05 568.78 657.59 C 568.78 658.14 568.34 658.58 567.79 658.58 C 567.25 658.58 566.81 658.14 566.81 657.59 C 566.81 657.05 567.25 656.61 567.79 656.61 Z M 576.16 644.64 C 576.71 644.64 577.15 645.08 577.15 645.63 L 577.15 645.77 C 577.69 645.77 578.13 646.21 578.13 646.76 C 578.13 647.3 577.69 647.74 577.15 647.74 L 575.93 647.74 C 575.75 647.74 575.62 647.87 575.62 648.05 L 575.62 648.09 C 575.62 648.27 575.76 648.43 575.93 648.43 L 576.59 648.43 C 577.85 648.43 578.87 649.44 578.87 650.69 L 578.87 651.09 C 578.87 652.15 578.14 653.04 577.15 653.29 L 577.15 653.46 C 577.15 654 576.71 654.44 576.16 654.44 C 575.62 654.44 575.18 654 575.18 653.46 L 575.18 653.36 L 574.59 653.36 C 574.04 653.36 573.6 652.92 573.6 652.37 C 573.6 651.83 574.04 651.39 574.59 651.39 L 576.59 651.39 C 576.77 651.39 576.9 651.26 576.9 651.09 L 576.9 650.69 C 576.9 650.52 576.77 650.4 576.59 650.4 L 575.93 650.4 C 574.67 650.4 573.65 649.36 573.65 648.09 L 573.65 648.05 C 573.65 647.06 574.29 646.21 575.18 645.9 L 575.18 645.63 C 575.18 645.08 575.62 644.64 576.16 644.64 Z M 566.81 640.36 L 568.78 640.36 C 569.32 640.36 569.76 640.8 569.76 641.34 C 569.76 641.89 569.32 642.33 568.78 642.33 L 566.81 642.33 C 566.26 642.33 565.82 641.89 565.82 641.34 C 565.82 640.8 566.26 640.36 566.81 640.36 Z M 563.01 638.82 C 561.93 638.82 561.05 639.71 561.05 640.79 L 561.05 658.13 C 561.05 659.21 561.93 660.1 563.01 660.1 L 572.57 660.1 C 573.65 660.1 574.54 659.21 574.54 658.13 L 574.54 657.58 C 570.78 656.82 567.94 653.49 567.94 649.52 C 567.94 645.54 570.78 642.21 574.54 641.45 L 574.54 640.79 C 574.54 639.71 573.65 638.82 572.57 638.82 Z M 563.01 636.86 L 572.57 636.86 C 574.74 636.86 576.51 638.62 576.51 640.79 L 576.51 641.3 C 580.88 641.48 584.39 645.1 584.39 649.52 C 584.39 650.67 584.15 651.8 583.68 652.85 C 583.46 653.34 582.88 653.57 582.38 653.35 C 581.89 653.13 581.66 652.55 581.88 652.05 C 582.24 651.25 582.42 650.4 582.42 649.52 C 582.42 646.07 579.61 643.26 576.16 643.26 C 572.71 643.26 569.91 646.07 569.91 649.52 C 569.91 652.96 572.71 655.77 576.16 655.77 C 577.18 655.77 578.2 655.52 579.09 655.04 C 579.57 654.79 580.17 654.97 580.42 655.45 C 580.68 655.93 580.49 656.53 580.01 656.78 C 578.94 657.35 577.73 657.68 576.51 657.73 L 576.51 658.13 C 576.51 660.3 574.74 662.07 572.57 662.07 L 563.01 662.07 C 560.84 662.07 559.08 660.3 559.08 658.13 L 559.08 640.79 C 559.08 638.62 560.84 636.86 563.01 636.86 Z" fill="#FFFFFF" stroke-width="1" stroke-linecap="butt" stroke="none" stroke-linejoin="miter" />
</g></svg>