<?xml version='1.0' encoding='utf-8'?>
<svg xmlns="http://www.w3.org/2000/svg" version="1.1" width="1280" height="720" viewBox="0 0 1280 720"><defs><marker id="marrow1" viewBox="0 0 10 10" refX="10" refY="5" markerWidth="7" markerHeight="7" orient="auto" markerUnits="strokeWidth"><path d="M 0 0 L 10 5 L 0 10" fill="#305598" /></marker><marker id="marrow2" viewBox="0 0 10 10" refX="10" refY="5" markerWidth="7" markerHeight="7" orient="auto" markerUnits="strokeWidth"><path d="M 0 0 L 10 5 L 0 10" fill="#305598" /></marker></defs><rect x="0" y="0" width="1280" height="720" fill="#FFFFFF" />
<g id="layout-shape-15" data-name="直接连接符 14">
<line x1="0" y1="64.68" x2="1279.68" y2="64.68" stroke-width="4" stroke="#000000" fill="#305598" />
</g>
<g id="shape-5" data-name="矩形 4">
<rect x="20.23" y="6.7" width="523.93" height="54.93" fill="none" />
<text x="29.83" y="43.23" text-anchor="start" xml:space="preserve" font-family="&quot;思源黑体 CN Heavy&quot;, Roboto, sans-serif" font-size="37.33" fill="#000000"><tspan fill="#000000" font-size="37.33">{{TOC_ITEM_1_TITLE}}</tspan></text>
</g>
<g id="shape-42" data-name="任意多边形: 形状 41" transform="translate(640 266.52) scale(1 -1) translate(-640 -266.52)">
<path d="M 417.64 341.04 L 862.36 341.04 L 853.03 329.61 C 841.42 314.3 829.9 296.62 818.67 276.89 L 812.97 266.23 L 802.07 245.81 C 796.62 234.97 791.28 223.65 786.07 211.91 L 782.16 202.55 L 781.44 202.41 C 743.01 195.91 693.73 192 640 192 C 586.27 192 536.99 195.91 498.56 202.41 L 497.84 202.55 L 493.93 211.91 C 488.72 223.65 483.38 234.97 477.93 245.81 L 467.03 266.23 L 461.33 276.89 C 450.1 296.62 438.58 314.3 426.97 329.61 Z" fill="#305598" stroke="none" stroke-width="1" />
</g>
<g id="shape-161" data-name="任意多边形: 形状 160" transform="translate(640 396.05) scale(1 -1) translate(-640 -396.05)">
<path d="M 782.16 461.6 L 770.83 434.48 L 763.73 415.22 L 761.62 415.9 L 761.62 415.9 L 758.87 416.59 L 758.84 416.56 L 761.62 415.9 L 761.62 415.9 L 763.73 415.22 L 756.52 395.66 C 751.93 382.35 747.51 368.7 743.3 354.74 L 739.08 339.67 L 736.17 339.04 C 708.72 333.64 675.62 330.49 640 330.49 C 604.38 330.49 571.28 333.64 543.83 339.04 L 540.92 339.67 L 536.7 354.74 C 532.49 368.7 528.08 382.35 523.48 395.66 L 516.27 415.22 L 516.27 415.22 L 509.17 434.48 L 497.84 461.6 L 498.56 461.47 C 536.99 454.96 586.27 451.05 640 451.05 C 693.73 451.05 743.01 454.96 781.44 461.47 Z" fill="#4474C5" stroke="none" stroke-width="1" />
</g>
<g id="shape-159" data-name="任意多边形: 形状 158" transform="translate(640 512.48) scale(1 -1) translate(-640 -512.48)">
<path d="M 640 552.48 L 638.99 552.46 L 636.75 552.42 L 636.75 552.42 L 638.99 552.46 L 640 552.48 Z M 540.92 572.55 L 543.83 571.91 C 571.28 566.52 604.38 563.37 640 563.37 C 675.62 563.37 708.72 566.52 736.17 571.91 L 739.08 572.55 L 731.33 544.86 L 731.31 544.79 L 731.31 544.79 L 724.24 515.96 C 719.81 496.82 715.98 477.96 712.73 459.47 L 712.34 457.11 L 706.95 456.35 C 686.37 453.82 663.75 452.42 640 452.42 C 616.25 452.42 593.63 453.82 573.05 456.35 L 567.66 457.11 L 567.28 459.47 C 564.02 477.96 560.19 496.82 555.76 515.96 L 548.69 544.79 L 558.01 546.44 L 573.95 548.43 L 573.46 548.54 L 558.01 546.44 L 548.69 544.79 L 548.67 544.86 Z" fill="#5B80D0" stroke="none" stroke-width="1" />
</g>
<g id="shape-45" data-name="任意多边形: 形状 44" transform="translate(640 629.74) scale(1 -1) translate(-640 -629.74)">
<path d="M 567.66 691.62 L 573.05 690.86 C 593.63 688.33 616.25 686.93 640 686.93 C 663.75 686.93 686.37 688.33 706.95 690.86 L 712.34 691.62 L 709.08 671.47 L 708.28 666.56 C 704.27 639.46 701.56 613.36 700.13 588.64 L 699.4 571.37 L 674.66 568.96 C 663.47 568.24 651.87 567.86 640 567.86 C 628.13 567.86 616.53 568.24 605.34 568.96 L 580.6 571.37 L 579.88 588.64 C 578.44 613.36 575.73 639.46 571.72 666.56 L 570.92 671.47 Z" fill="#99B0E3" stroke="none" stroke-width="1" />
</g>
<g id="shape-14" data-name="椭圆 13">
<ellipse cx="640" cy="192" rx="222.36" ry="37.33" fill="#244072" stroke="none" stroke-width="1" />
</g>
<g id="shape-15" data-name="椭圆 14">
<ellipse cx="640" cy="192" rx="122.13" ry="20.51" fill="#7294D2" fill-opacity="0.3" stroke="none" stroke-width="1" />
</g>
<g id="shape-46" data-name="任意多边形: 形状 45">
<path d="M 727.46 684.95 C 729.51 650.64 731.55 616.33 739.2 574.02 C 746.84 531.71 760.35 474.11 773.33 431.09 C 786.31 388.06 800 352.69 817.06 315.89 C 834.13 279.09 854.93 244.69 875.73 210.29" fill="none" stroke-width="4" stroke="#305598" marker-end="url(#marrow1)" />
</g>
<g id="shape-47" data-name="任意多边形: 形状 46" transform="translate(477.76 447.62) scale(-1 1) translate(-477.76 -447.62)">
<path d="M 403.63 684.95 C 405.68 650.64 407.72 616.33 415.36 574.02 C 423.01 531.71 436.52 474.11 449.5 431.09 C 462.48 388.06 476.16 352.69 493.23 315.89 C 510.3 279.09 531.1 244.69 551.9 210.29" fill="none" stroke-width="4" stroke="#305598" marker-end="url(#marrow2)" />
</g>
<g id="shape-63" data-name="文本框 62">
<rect x="10.67" y="87.06" width="226.33" height="45.79" fill="none" />
<text x="20.27" y="114.52" text-anchor="start" xml:space="preserve" font-family="&quot;思源黑体 CN Heavy&quot;, Roboto, sans-serif" font-size="26.67" fill="#000000"><tspan fill="#000000" font-size="26.67">{{TOC_ITEM_2_TITLE}}</tspan></text>
</g>
<g id="shape-72" data-name="文本框 71">
<rect x="11.42" y="129.22" width="392.22" height="54.66" fill="none" />
<text x="21.02" y="147.62" text-anchor="start" xml:space="preserve" font-family="&quot;思源黑体 CN Normal&quot;, Roboto, sans-serif" font-size="16" fill="#595959"><tspan fill="#595959" font-size="16">{{TOC_ITEM_3_TITLE}}</tspan></text>
</g>
<g id="shape-129" data-name="任意多边形: 形状 128" transform="translate(1049.19 271.5) scale(-1 1) translate(-1049.19 -271.5)">
<path d="M 838.56 212.51 L 1183.93 212.51 L 1188.94 218.88 C 1208.75 244.96 1227.46 272.95 1244.71 302.59 L 1259.83 330.49 L 838.56 330.49 L 838.56 212.51 Z" fill="#F2F2F2" stroke="#D9D9D9" stroke-width="1" />
</g>
<g id="shape-130" data-name="任意多边形: 形状 129" transform="translate(1026.12 401.77) scale(-1 1) translate(-1026.12 -401.77)">
<path d="M 792.4 345.26 L 1218.32 345.26 L 1223.3 356.38 C 1231.16 375.29 1238.62 394.66 1245.62 414.45 L 1259.83 458.27 L 792.4 458.27 L 792.4 345.26 Z" fill="#F2F2F2" stroke="#D9D9D9" stroke-width="1" />
</g>
<g id="shape-131" data-name="任意多边形: 形状 130" transform="translate(1011.4 521.8) scale(-1 1) translate(-1011.4 -521.8)">
<path d="M 762.96 468.65 L 1233.76 468.65 L 1235.37 473.62 C 1241.16 493.26 1246.35 512.8 1250.93 532.17 L 1259.83 574.95 L 762.96 574.95 L 762.96 468.65 Z" fill="#F2F2F2" stroke="#D9D9D9" stroke-width="1" />
</g>
<g id="shape-132" data-name="任意多边形: 形状 131" transform="translate(1003.56 638.47) scale(-1 1) translate(-1003.56 -638.47)">
<path d="M 747.28 585.32 L 1246.31 585.32 L 1247.23 589.76 C 1250.63 608.76 1253.45 627.54 1255.68 646.05 L 1259.83 691.62 L 747.28 691.62 L 747.28 585.32 Z" fill="#F2F2F2" stroke="#D9D9D9" stroke-width="1" />
</g>
<g id="shape-133" data-name="矩形: 圆顶角 132" transform="rotate(270 1227.96 271.5) translate(1227.96 271.5) scale(-1 1) translate(-1227.96 -271.5)">
<path d="M 1227.96 239.62 L 1227.96 239.62 A 31.7 31.7 0 0 1 1259.65 271.32 L 1259.65 303.38 L 1259.65 303.38 L 1196.26 303.38 L 1196.26 303.38 L 1196.26 271.32 A 31.7 31.7 0 0 1 1227.96 239.62 Z" data-pptx-prst="round2SameRect" data-pptx-adj1="50000" data-pptx-adj2="0" stroke="none" fill="#305598" stroke-width="1" />
</g>
<g id="shape-134" data-name="文本框 133" transform="translate(1232.24 270.52) scale(-1 1) translate(-1232.24 -270.52)">
<rect x="1204.65" y="247.63" width="55.19" height="45.79" fill="none" />
<text x="1232.24" y="275.09" text-anchor="middle" xml:space="preserve" font-family="&quot;思源黑体 CN Heavy&quot;, Roboto, sans-serif" font-size="26.67" fill="#FFFFFF"><tspan fill="#FFFFFF" font-size="26.67">01</tspan></text>
</g>
<g id="shape-135" data-name="文本框 134" transform="translate(1075.51 245.57) scale(-1 1) translate(-1075.51 -245.57)">
<rect x="962.34" y="228.09" width="226.33" height="34.96" fill="none" />
<text x="1179.08" y="248.76" text-anchor="end" xml:space="preserve" font-family="&quot;思源黑体 CN Heavy&quot;, Roboto, sans-serif" font-size="18.67" fill="#305598"><tspan fill="#305598" font-size="18.67">{{TOC_ITEM_4_TITLE}}</tspan></text>
</g>
<g id="shape-136" data-name="文本框 135" transform="translate(1040.77 288.49) scale(-1 1) translate(-1040.77 -288.49)">
<rect x="892.87" y="261.16" width="295.8" height="54.66" fill="none" />
<text x="1179.08" y="279.56" text-anchor="end" xml:space="preserve" font-family="&quot;思源黑体 CN Normal&quot;, Roboto, sans-serif" font-size="16" fill="#595959"><tspan fill="#595959" font-size="16">{{TOC_ITEM_1_DESC}}</tspan></text>
</g>
<g id="shape-137" data-name="矩形: 圆顶角 136" transform="rotate(270 1227.96 401.52) translate(1227.96 401.52) scale(-1 1) translate(-1227.96 -401.52)">
<path d="M 1227.96 369.65 L 1227.96 369.65 A 31.7 31.7 0 0 1 1259.65 401.34 L 1259.65 433.4 L 1259.65 433.4 L 1196.26 433.4 L 1196.26 433.4 L 1196.26 401.34 A 31.7 31.7 0 0 1 1227.96 369.65 Z" data-pptx-prst="round2SameRect" data-pptx-adj1="50000" data-pptx-adj2="0" fill="#4474C5" stroke="none" stroke-width="1" />
</g>
<g id="shape-138" data-name="文本框 137" transform="translate(1232.24 400.55) scale(-1 1) translate(-1232.24 -400.55)">
<rect x="1204.65" y="377.65" width="55.19" height="45.79" fill="none" />
<text x="1232.24" y="405.12" text-anchor="middle" xml:space="preserve" font-family="&quot;思源黑体 CN Heavy&quot;, Roboto, sans-serif" font-size="26.67" fill="#FFFFFF"><tspan fill="#FFFFFF" font-size="26.67">02</tspan></text>
</g>
<g id="shape-139" data-name="文本框 138" transform="translate(1075.51 375.6) scale(-1 1) translate(-1075.51 -375.6)">
<rect x="962.34" y="358.12" width="226.33" height="34.96" fill="none" />
<text x="1179.08" y="378.78" text-anchor="end" xml:space="preserve" font-family="&quot;思源黑体 CN Heavy&quot;, Roboto, sans-serif" font-size="18.67" fill="#305598"><tspan fill="#305598" font-size="18.67">问题改进思维</tspan></text>
</g>
<g id="shape-140" data-name="文本框 139" transform="translate(1007.33 418.51) scale(-1 1) translate(-1007.33 -418.51)">
<rect x="825.98" y="391.18" width="362.7" height="54.66" fill="none" />
<text x="1179.08" y="409.58" text-anchor="end" xml:space="preserve" font-family="&quot;思源黑体 CN Normal&quot;, Roboto, sans-serif" font-size="16" fill="#595959"><tspan fill="#595959" font-size="16">{{TOC_ITEM_2_DESC}}</tspan></text>
</g>
<g id="shape-141" data-name="矩形: 圆顶角 140" transform="rotate(270 1227.96 522.31) translate(1227.96 522.31) scale(-1 1) translate(-1227.96 -522.31)">
<path d="M 1227.96 490.43 L 1227.96 490.43 A 31.7 31.7 0 0 1 1259.65 522.13 L 1259.65 554.19 L 1259.65 554.19 L 1196.26 554.19 L 1196.26 554.19 L 1196.26 522.13 A 31.7 31.7 0 0 1 1227.96 490.43 Z" data-pptx-prst="round2SameRect" data-pptx-adj1="50000" data-pptx-adj2="0" fill="#5B80D0" stroke="none" stroke-width="1" />
</g>
<g id="shape-142" data-name="文本框 141" transform="translate(1232.24 521.33) scale(-1 1) translate(-1232.24 -521.33)">
<rect x="1204.65" y="498.44" width="55.19" height="45.79" fill="none" />
<text x="1232.24" y="525.9" text-anchor="middle" xml:space="preserve" font-family="&quot;思源黑体 CN Heavy&quot;, Roboto, sans-serif" font-size="26.67" fill="#FFFFFF"><tspan fill="#FFFFFF" font-size="26.67">03</tspan></text>
</g>
<g id="shape-143" data-name="文本框 142" transform="translate(1075.51 496.38) scale(-1 1) translate(-1075.51 -496.38)">
<rect x="962.34" y="478.9" width="226.33" height="34.96" fill="none" />
<text x="1179.08" y="499.57" text-anchor="end" xml:space="preserve" font-family="&quot;思源黑体 CN Heavy&quot;, Roboto, sans-serif" font-size="18.67" fill="#305598"><tspan fill="#305598" font-size="18.67">沟通表达技巧</tspan></text>
</g>
<g id="shape-144" data-name="文本框 143" transform="translate(990.91 539.3) scale(-1 1) translate(-990.91 -539.3)">
<rect x="793.14" y="511.97" width="395.53" height="54.66" fill="none" />
<text x="1179.08" y="530.37" text-anchor="end" xml:space="preserve" font-family="&quot;思源黑体 CN Normal&quot;, Roboto, sans-serif" font-size="16" fill="#595959"><tspan fill="#595959" font-size="16">{{TOC_ITEM_3_DESC}}</tspan></text>
</g>
<g id="shape-145" data-name="矩形: 圆顶角 144" transform="rotate(270 1227.96 640.31) translate(1227.96 640.31) scale(-1 1) translate(-1227.96 -640.31)">
<path d="M 1227.96 608.44 L 1227.96 608.44 A 31.7 31.7 0 0 1 1259.65 640.13 L 1259.65 672.19 L 1259.65 672.19 L 1196.26 672.19 L 1196.26 672.19 L 1196.26 640.13 A 31.7 31.7 0 0 1 1227.96 608.44 Z" data-pptx-prst="round2SameRect" data-pptx-adj1="50000" data-pptx-adj2="0" fill="#99B0E3" stroke="none" stroke-width="1" />
</g>
<g id="shape-146" data-name="文本框 145" transform="translate(1232.24 639.34) scale(-1 1) translate(-1232.24 -639.34)">
<rect x="1204.65" y="616.44" width="55.19" height="45.79" fill="none" />
<text x="1232.24" y="643.91" text-anchor="middle" xml:space="preserve" font-family="&quot;思源黑体 CN Heavy&quot;, Roboto, sans-serif" font-size="26.67" fill="#FFFFFF"><tspan fill="#FFFFFF" font-size="26.67">04</tspan></text>
</g>
<g id="shape-147" data-name="文本框 146" transform="translate(1075.51 614.39) scale(-1 1) translate(-1075.51 -614.39)">
<rect x="962.34" y="596.91" width="226.33" height="34.96" fill="none" />
<text x="1179.08" y="617.57" text-anchor="end" xml:space="preserve" font-family="&quot;思源黑体 CN Heavy&quot;, Roboto, sans-serif" font-size="18.67" fill="#305598"><tspan fill="#305598" font-size="18.67">数据化分析</tspan></text>
</g>
<g id="shape-148" data-name="文本框 147" transform="translate(976.19 657.3) scale(-1 1) translate(-976.19 -657.3)">
<rect x="763.7" y="629.97" width="424.97" height="54.66" fill="none" />
<text x="1179.08" y="648.37" text-anchor="end" xml:space="preserve" font-family="&quot;思源黑体 CN Normal&quot;, Roboto, sans-serif" font-size="16" fill="#595959"><tspan fill="#595959" font-size="16">{{TOC_ITEM_4_DESC}}</tspan></text>
</g>
<g id="shape-60" data-name="任意多边形: 形状 59">
<path d="M 20.17 212.51 L 365.55 212.51 L 370.55 218.88 C 390.36 244.96 409.07 272.95 426.32 302.59 L 441.45 330.49 L 20.17 330.49 L 20.17 212.51 Z" fill="#F2F2F2" stroke="#D9D9D9" stroke-width="1" />
</g>
<g id="shape-59" data-name="任意多边形: 形状 58">
<path d="M 20.17 345.26 L 446.09 345.26 L 451.07 356.38 C 458.93 375.29 466.38 394.66 473.39 414.45 L 487.6 458.27 L 20.17 458.27 L 20.17 345.26 Z" fill="#F2F2F2" stroke="#D9D9D9" stroke-width="1" />
</g>
<g id="shape-58" data-name="任意多边形: 形状 57">
<path d="M 20.17 468.65 L 490.97 468.65 L 492.58 473.62 C 498.37 493.26 503.55 512.8 508.14 532.17 L 517.04 574.95 L 20.17 574.95 L 20.17 468.65 Z" fill="#F2F2F2" stroke="#D9D9D9" stroke-width="1" />
</g>
<g id="shape-57" data-name="任意多边形: 形状 56">
<path d="M 20.17 585.32 L 519.2 585.32 L 520.12 589.76 C 523.52 608.76 526.34 627.54 528.57 646.05 L 532.72 691.62 L 20.17 691.62 L 20.17 585.32 Z" fill="#F2F2F2" stroke="#D9D9D9" stroke-width="1" />
</g>
<g id="shape-62" data-name="矩形: 圆顶角 61" transform="rotate(90 52.04 271.5)">
<path d="M 52.04 239.62 L 52.04 239.62 A 31.7 31.7 0 0 1 83.74 271.32 L 83.74 303.38 L 83.74 303.38 L 20.35 303.38 L 20.35 303.38 L 20.35 271.32 A 31.7 31.7 0 0 1 52.04 239.62 Z" data-pptx-prst="round2SameRect" data-pptx-adj1="50000" data-pptx-adj2="0" stroke="none" fill="#305598" stroke-width="1" />
</g>
<g id="shape-78" data-name="文本框 77">
<rect x="20.17" y="247.63" width="55.19" height="45.79" fill="none" />
<text x="47.76" y="275.09" text-anchor="middle" xml:space="preserve" font-family="&quot;思源黑体 CN Heavy&quot;, Roboto, sans-serif" font-size="26.67" fill="#FFFFFF"><tspan fill="#FFFFFF" font-size="26.67">01</tspan></text>
</g>
<g id="shape-79" data-name="文本框 78">
<rect x="91.33" y="228.09" width="226.33" height="34.96" fill="none" />
<text x="100.93" y="248.76" text-anchor="start" xml:space="preserve" font-family="&quot;思源黑体 CN Heavy&quot;, Roboto, sans-serif" font-size="18.67" fill="#305598"><tspan fill="#305598" font-size="18.67">核心业务精通</tspan></text>
</g>
<g id="shape-80" data-name="文本框 79">
<rect x="92.07" y="261.16" width="295.8" height="54.66" fill="none" />
<text x="101.67" y="279.56" text-anchor="start" xml:space="preserve" font-family="&quot;思源黑体 CN Normal&quot;, Roboto, sans-serif" font-size="16" fill="#595959"><tspan fill="#595959" font-size="16">围绕各岗位核心业务模块，开展“理论 </tspan><tspan x="101.67" dy="19.2" fill="#595959" font-size="16">+ </tspan><tspan fill="#595959" font-size="16">实践”双轨培训</tspan></text>
</g>
<g id="shape-83" data-name="矩形: 圆顶角 82" transform="rotate(90 52.04 401.52)">
<path d="M 52.04 369.65 L 52.04 369.65 A 31.7 31.7 0 0 1 83.74 401.34 L 83.74 433.4 L 83.74 433.4 L 20.35 433.4 L 20.35 433.4 L 20.35 401.34 A 31.7 31.7 0 0 1 52.04 369.65 Z" data-pptx-prst="round2SameRect" data-pptx-adj1="50000" data-pptx-adj2="0" fill="#4474C5" stroke="none" stroke-width="1" />
</g>
<g id="shape-86" data-name="文本框 85">
<rect x="20.17" y="377.65" width="55.19" height="45.79" fill="none" />
<text x="47.76" y="405.12" text-anchor="middle" xml:space="preserve" font-family="&quot;思源黑体 CN Heavy&quot;, Roboto, sans-serif" font-size="26.67" fill="#FFFFFF"><tspan fill="#FFFFFF" font-size="26.67">02</tspan></text>
</g>
<g id="shape-106" data-name="文本框 105">
<rect x="91.33" y="358.12" width="226.33" height="34.96" fill="none" />
<text x="100.93" y="378.78" text-anchor="start" xml:space="preserve" font-family="&quot;思源黑体 CN Heavy&quot;, Roboto, sans-serif" font-size="18.67" fill="#305598"><tspan fill="#305598" font-size="18.67">工具应用</tspan></text>
</g>
<g id="shape-108" data-name="文本框 107">
<rect x="92.07" y="391.18" width="362.7" height="54.66" fill="none" />
<text x="101.67" y="409.58" text-anchor="start" xml:space="preserve" font-family="&quot;思源黑体 CN Normal&quot;, Roboto, sans-serif" font-size="16" fill="#595959"><tspan fill="#595959" font-size="16">HR </tspan><tspan fill="#595959" font-size="16">岗深化薪酬核算系统、招聘管理平台财务岗强</tspan><tspan x="101.67" dy="19.2" fill="#595959" font-size="16">化 </tspan><tspan fill="#595959" font-size="16">ERP </tspan><tspan fill="#595959" font-size="16">财务模块与数据分析工具使用</tspan></text>
</g>
<g id="shape-113" data-name="矩形: 圆顶角 112" transform="rotate(90 52.04 522.31)">
<path d="M 52.04 490.43 L 52.04 490.43 A 31.7 31.7 0 0 1 83.74 522.13 L 83.74 554.19 L 83.74 554.19 L 20.35 554.19 L 20.35 554.19 L 20.35 522.13 A 31.7 31.7 0 0 1 52.04 490.43 Z" data-pptx-prst="round2SameRect" data-pptx-adj1="50000" data-pptx-adj2="0" fill="#5B80D0" stroke="none" stroke-width="1" />
</g>
<g id="shape-114" data-name="文本框 113">
<rect x="20.17" y="498.44" width="55.19" height="45.79" fill="none" />
<text x="47.76" y="525.9" text-anchor="middle" xml:space="preserve" font-family="&quot;思源黑体 CN Heavy&quot;, Roboto, sans-serif" font-size="26.67" fill="#FFFFFF"><tspan fill="#FFFFFF" font-size="26.67">03</tspan></text>
</g>
<g id="shape-115" data-name="文本框 114">
<rect x="91.33" y="478.9" width="226.33" height="34.96" fill="none" />
<text x="100.93" y="499.57" text-anchor="start" xml:space="preserve" font-family="&quot;思源黑体 CN Heavy&quot;, Roboto, sans-serif" font-size="18.67" fill="#305598"><tspan fill="#305598" font-size="18.67">流程规范落地</tspan></text>
</g>
<g id="shape-116" data-name="文本框 115">
<rect x="92.07" y="511.97" width="395.53" height="54.66" fill="none" />
<text x="101.67" y="530.37" text-anchor="start" xml:space="preserve" font-family="&quot;思源黑体 CN Normal&quot;, Roboto, sans-serif" font-size="16" fill="#595959"><tspan fill="#595959" font-size="16">梳理各岗位标准化作业流程（</tspan><tspan fill="#595959" font-size="16">SOP</tspan><tspan fill="#595959" font-size="16">），制作图文手册</tspan><tspan x="101.67" dy="19.2" fill="#595959" font-size="16">与视频教程，减少因流程不规范导致的工作失误</tspan></text>
</g>
<g id="shape-121" data-name="矩形: 圆顶角 120" transform="rotate(90 52.04 640.31)">
<path d="M 52.04 608.44 L 52.04 608.44 A 31.7 31.7 0 0 1 83.74 640.13 L 83.74 672.19 L 83.74 672.19 L 20.35 672.19 L 20.35 672.19 L 20.35 640.13 A 31.7 31.7 0 0 1 52.04 608.44 Z" data-pptx-prst="round2SameRect" data-pptx-adj1="50000" data-pptx-adj2="0" fill="#99B0E3" stroke="none" stroke-width="1" />
</g>
<g id="shape-122" data-name="文本框 121">
<rect x="20.17" y="616.44" width="55.19" height="45.79" fill="none" />
<text x="47.76" y="643.91" text-anchor="middle" xml:space="preserve" font-family="&quot;思源黑体 CN Heavy&quot;, Roboto, sans-serif" font-size="26.67" fill="#FFFFFF"><tspan fill="#FFFFFF" font-size="26.67">04</tspan></text>
</g>
<g id="shape-123" data-name="文本框 122">
<rect x="91.33" y="596.91" width="226.33" height="34.96" fill="none" />
<text x="100.93" y="617.57" text-anchor="start" xml:space="preserve" font-family="&quot;思源黑体 CN Heavy&quot;, Roboto, sans-serif" font-size="18.67" fill="#305598"><tspan fill="#305598" font-size="18.67">专业认证考取</tspan></text>
</g>
<g id="shape-124" data-name="文本框 123">
<rect x="92.07" y="629.97" width="424.97" height="54.66" fill="none" />
<text x="101.67" y="648.37" text-anchor="start" xml:space="preserve" font-family="&quot;思源黑体 CN Normal&quot;, Roboto, sans-serif" font-size="16" fill="#595959"><tspan fill="#595959" font-size="16">鼓励员工考取岗位相关专业认证，如 </tspan><tspan fill="#595959" font-size="16">HR </tspan><tspan fill="#595959" font-size="16">岗考取人力资源</tspan><tspan x="101.67" dy="19.2" fill="#595959" font-size="16">管理师、薪酬管理师认证，技术岗考取 </tspan><tspan fill="#595959" font-size="16">PMP</tspan><tspan fill="#595959" font-size="16">等</tspan></text>
</g>
<g id="shape-125" data-name="文本框 124">
<rect x="1041.61" y="87.06" width="226.33" height="45.79" fill="none" />
<text x="1258.35" y="114.52" text-anchor="end" xml:space="preserve" font-family="&quot;思源黑体 CN Heavy&quot;, Roboto, sans-serif" font-size="26.67" fill="#000000"><tspan fill="#000000" font-size="26.67">横向能力提升</tspan></text>
</g>
<g id="shape-126" data-name="文本框 125">
<rect x="875.73" y="129.22" width="392.22" height="54.66" fill="none" />
<text x="1258.35" y="147.62" text-anchor="end" xml:space="preserve" font-family="&quot;思源黑体 CN Normal&quot;, Roboto, sans-serif" font-size="16" fill="#595959"><tspan fill="#595959" font-size="16">开展内外部演讲训练、公文写作实训，涵盖制度宣贯</tspan><tspan x="1258.35" dy="19.2" fill="#595959" font-size="16">、跨层级沟通场景，半年内完成 </tspan><tspan fill="#595959" font-size="16">8 </tspan><tspan fill="#595959" font-size="16">场部门内训</tspan></text>
</g>
<g id="shape-151" data-name="图形 149">
<path d="M 592.87 139.68 L 592.87 180.68 C 592.87 184.6 596.04 187.78 599.97 187.78 L 606.36 187.78 L 606.36 132.65 L 599.97 132.58 C 596.05 132.58 592.87 135.76 592.87 139.68 Z M 676.48 125.13 L 648.25 125.31 C 649.58 120.65 650.25 116.5 650.25 112.85 C 650.25 104.57 642.99 96.46 635.75 97.52 C 629.36 98.44 628.66 103.96 628.66 110.88 L 628.66 117.13 C 628.66 125.15 621.93 131.98 614.13 132.73 L 613.1 132.72 L 613.1 187.78 L 668.71 187.78 C 673.91 187.78 678.38 184.08 679.35 178.97 L 687.12 137.97 C 688.23 132.1 684.37 126.43 678.49 125.32 C 677.83 125.2 677.16 125.13 676.48 125.13 Z" fill="#4474C5" stroke-width="0.117" stroke-linecap="butt" stroke="none" stroke-linejoin="miter" />
</g>
<g id="shape-152" data-name="Freeform: Shape 39">
<path d="M 638.76 651.36 L 643.43 651.36 C 643.91 651.36 644.3 651.75 644.3 652.23 C 644.3 652.71 643.91 653.11 643.43 653.11 L 638.76 653.11 C 638.28 653.11 637.89 652.71 637.89 652.23 C 637.89 651.75 638.28 651.36 638.76 651.36 Z M 620.45 650.66 L 620.45 651.27 C 620.45 652.67 621.58 653.81 622.98 653.81 L 659.21 653.81 C 660.61 653.81 661.75 652.67 661.75 651.27 L 661.75 650.66 Z M 645.82 640.33 L 645.82 643.48 L 655.04 643.48 L 655.04 640.33 Z M 644.94 638.58 L 655.92 638.58 C 656.4 638.58 656.79 638.98 656.79 639.46 L 656.79 644.36 C 656.79 644.84 656.4 645.23 655.92 645.23 L 644.94 645.23 C 644.46 645.23 644.07 644.84 644.07 644.36 L 644.07 639.46 C 644.07 638.98 644.46 638.58 644.94 638.58 Z M 626.22 635.78 L 626.22 645.23 L 637.07 645.23 L 637.07 635.78 Z M 655.92 634.03 C 656.15 634.03 656.37 634.12 656.54 634.29 C 656.7 634.45 656.79 634.67 656.79 634.9 C 656.79 635.13 656.7 635.36 656.54 635.52 C 656.37 635.69 656.15 635.78 655.92 635.78 C 655.69 635.78 655.46 635.69 655.3 635.52 C 655.14 635.36 655.04 635.13 655.04 634.9 C 655.04 634.67 655.14 634.45 655.3 634.29 C 655.46 634.12 655.69 634.03 655.92 634.03 Z M 644.94 634.03 L 652.49 634.03 C 652.97 634.03 653.36 634.42 653.36 634.9 C 653.36 635.39 652.97 635.78 652.49 635.78 L 644.94 635.78 C 644.46 635.78 644.07 635.39 644.07 634.9 C 644.07 634.42 644.46 634.03 644.94 634.03 Z M 625.35 634.03 L 637.95 634.03 C 638.43 634.03 638.82 634.42 638.82 634.9 L 638.82 646.1 C 638.82 646.59 638.43 646.98 637.95 646.98 L 625.35 646.98 C 624.86 646.98 624.47 646.59 624.47 646.1 L 624.47 634.9 C 624.47 634.42 624.86 634.03 625.35 634.03 Z M 626.75 629.59 C 625.95 630.6 624.66 631.23 623.16 631.23 C 622.89 631.23 622.62 631.21 622.37 631.17 L 622.37 648.91 L 659.82 648.91 L 659.82 631.17 C 659.57 631.21 659.3 631.23 659.03 631.23 C 657.53 631.23 656.25 630.6 655.45 629.59 C 654.65 630.6 653.36 631.23 651.86 631.23 C 650.35 631.23 649.07 630.6 648.27 629.59 C 647.47 630.6 646.19 631.23 644.68 631.23 C 643.18 631.23 641.9 630.6 641.1 629.59 C 640.3 630.6 639.01 631.23 637.51 631.23 C 636 631.23 634.72 630.6 633.92 629.59 C 633.12 630.6 631.84 631.23 630.33 631.23 C 628.83 631.23 627.55 630.6 626.75 629.59 Z M 656.32 625.72 L 656.32 627.03 C 656.32 628.45 657.46 629.48 659.03 629.48 C 660.6 629.48 661.75 628.45 661.75 627.03 L 661.75 625.72 Z M 649.15 625.72 L 649.15 627.03 C 649.15 628.45 650.29 629.48 651.86 629.48 C 653.43 629.48 654.57 628.45 654.57 627.03 L 654.57 625.72 Z M 641.97 625.72 L 641.97 627.03 C 641.97 628.45 643.11 629.48 644.68 629.48 C 646.25 629.48 647.4 628.45 647.4 627.03 L 647.4 625.72 Z M 634.8 625.72 L 634.8 627.03 C 634.8 628.45 635.94 629.48 637.51 629.48 C 639.08 629.48 640.22 628.45 640.22 627.03 L 640.22 625.72 Z M 627.62 625.72 L 627.62 627.03 C 627.62 628.45 628.76 629.48 630.33 629.48 C 631.9 629.48 633.05 628.45 633.05 627.03 L 633.05 625.72 Z M 620.45 625.72 L 620.45 627.03 C 620.45 628.45 621.59 629.48 623.16 629.48 C 624.73 629.48 625.87 628.45 625.87 627.03 L 625.87 625.72 Z M 622.09 620.82 L 620.85 623.97 L 626.75 623.97 L 633.92 623.97 L 641.1 623.97 L 648.27 623.97 L 655.45 623.97 L 661.34 623.97 L 660.1 620.82 Z M 623.6 615.92 C 622.92 615.92 622.37 616.47 622.37 617.14 L 622.37 619.07 L 659.82 619.07 L 659.82 617.14 C 659.82 616.47 659.27 615.92 658.6 615.92 Z M 623.6 614.17 L 658.6 614.17 C 660.24 614.17 661.57 615.5 661.57 617.14 L 661.57 619.78 L 663.43 624.52 C 663.48 624.63 663.5 624.74 663.5 624.84 C 663.5 624.84 663.5 624.84 663.5 624.84 L 663.5 627.03 C 663.5 628.52 662.75 629.79 661.57 630.53 L 661.57 648.91 L 662.62 648.91 C 663.1 648.91 663.5 649.3 663.5 649.78 L 663.5 651.27 C 663.5 653.63 661.57 655.56 659.21 655.56 L 622.98 655.56 C 620.62 655.56 618.7 653.63 618.7 651.27 L 618.7 649.78 C 618.7 649.3 619.09 648.91 619.57 648.91 L 620.62 648.91 L 620.62 630.53 C 619.44 629.79 618.7 628.52 618.7 627.03 L 618.7 624.84 C 618.7 624.84 618.7 624.84 618.7 624.84 C 618.7 624.74 618.72 624.63 618.76 624.52 L 620.62 619.78 L 620.62 617.14 C 620.62 615.5 621.95 614.17 623.6 614.17 Z" fill="#FFFFFF" stroke-width="1" stroke-linecap="butt" stroke="none" stroke-linejoin="miter" />
</g>
<g id="shape-153" data-name="Freeform: Shape 47">
<path d="M 658.88 526.37 C 659.36 526.37 659.75 526.76 659.75 527.24 L 659.75 532.49 C 659.75 532.98 659.36 533.37 658.88 533.37 C 658.39 533.37 658 532.98 658 532.49 L 658 527.24 C 658 526.76 658.39 526.37 658.88 526.37 Z M 658.88 522.87 C 659.36 522.87 659.75 523.26 659.75 523.74 C 659.75 524.23 659.36 524.62 658.88 524.62 C 658.39 524.62 658 524.23 658 523.74 C 658 523.26 658.39 522.87 658.88 522.87 Z M 652.49 521.12 L 652.49 535.12 L 661.5 535.12 L 661.5 521.12 Z M 641.73 521.12 L 641.73 535.12 L 650.74 535.12 L 650.74 521.12 Z M 635.92 521.12 L 633.53 523.51 C 632.92 524.11 632.12 524.47 631.27 524.52 L 630.97 524.83 L 630.97 535.12 L 639.98 535.12 L 639.98 521.12 Z M 620.2 521.12 L 620.2 535.12 L 629.22 535.12 L 629.22 526.58 L 628.58 527.22 C 627.55 528.24 625.89 528.24 624.87 527.22 C 623.84 526.19 623.84 524.53 624.87 523.51 L 627.25 521.12 Z M 642.54 507.07 L 629.82 519.79 C 629.47 520.14 629.28 520.62 629.31 521.13 C 629.32 521.38 629.23 521.62 629.05 521.79 L 626.1 524.74 C 625.76 525.09 625.76 525.64 626.1 525.98 C 626.45 526.32 627 526.32 627.34 525.98 C 630.71 522.62 630.04 523.29 630.29 523.03 C 630.47 522.86 630.71 522.76 630.96 522.78 C 631.45 522.81 631.94 522.62 632.29 522.27 L 645.02 509.54 Z M 655.06 493.83 C 653.72 493.91 652.46 494.87 652.01 496.22 C 650.94 499.44 649.29 501.75 646.18 503.59 C 645.84 503.79 645.4 503.74 645.12 503.45 L 644.71 503.04 C 644.2 502.53 643.37 502.53 642.85 503.04 C 642.34 503.56 642.34 504.39 642.85 504.9 C 643.88 505.93 646.6 508.65 647.18 509.23 C 647.7 509.74 648.53 509.74 649.04 509.23 C 649.55 508.72 649.55 507.89 649.04 507.37 L 648.63 506.96 C 648.35 506.68 648.29 506.24 648.5 505.9 C 650.31 502.83 652.62 501.16 655.86 500.07 C 658.04 499.35 659.17 496.54 657.36 494.72 C 656.68 494.04 655.85 493.77 655.06 493.83 Z M 655.11 492.07 C 656.33 492.04 657.58 492.47 658.6 493.48 C 661.35 496.24 659.8 500.56 656.47 501.72 C 655.79 502.01 652.74 502.63 650.36 506.22 C 651.47 507.42 651.45 509.3 650.28 510.47 C 649.19 511.55 647.48 511.66 646.28 510.75 L 637.67 519.37 L 662.38 519.37 C 662.86 519.37 663.25 519.76 663.25 520.24 L 663.25 535.99 C 663.25 536.48 662.86 536.87 662.38 536.87 L 619.33 536.87 C 618.84 536.87 618.45 536.48 618.45 535.99 L 618.45 520.24 C 618.45 519.76 618.84 519.37 619.33 519.37 L 627.97 519.37 C 628.13 519.07 628.34 518.8 628.58 518.56 L 641.33 505.81 C 640.43 504.62 640.52 502.91 641.62 501.81 C 642.79 500.63 644.67 500.61 645.86 501.73 C 649.5 499.31 650.11 496.2 650.37 495.61 C 651.1 493.5 653.07 492.14 655.11 492.07 Z" fill="#FFFFFF" stroke-width="1" stroke-linecap="butt" stroke="none" stroke-linejoin="miter" />
</g>
<g id="shape-154" data-name="Freeform: Shape 53">
<path d="M 636.69 412.26 L 633.65 414.01 L 638.03 421.59 C 638.51 422.42 639.58 422.71 640.42 422.23 C 641.26 421.74 641.54 420.67 641.06 419.84 C 640.98 419.7 641.75 421.03 636.69 412.26 Z M 639.72 410.51 L 638.2 411.38 L 639.08 412.9 L 640.59 412.02 Z M 632.12 408.91 C 632.46 408.87 632.8 409.03 632.98 409.35 C 633.22 409.76 633.08 410.3 632.66 410.54 L 631.15 411.42 C 629.89 412.14 628.28 411.7 627.56 410.45 C 627.32 410.04 627.46 409.5 627.88 409.26 C 628.3 409.02 628.84 409.16 629.08 409.58 C 629.32 410 629.85 410.14 630.27 409.9 L 631.79 409.02 C 631.89 408.96 632 408.93 632.12 408.91 Z M 635.15 407.16 C 635.49 407.12 635.83 407.28 636.01 407.6 C 636.26 408.01 636.11 408.55 635.69 408.79 C 635.28 409.03 634.74 408.89 634.5 408.47 C 634.26 408.05 634.4 407.52 634.82 407.27 C 634.92 407.21 635.04 407.18 635.15 407.16 Z M 634.47 401.42 L 627.65 405.35 C 626.3 406.13 625.46 407.59 625.46 409.15 C 625.46 409.91 625.66 410.66 626.05 411.33 C 627.25 413.42 629.93 414.14 632.02 412.93 L 638.84 408.99 Z M 662.97 393.78 C 663.08 393.77 663.2 393.77 663.32 393.8 L 666.7 394.71 C 667.16 394.83 667.44 395.31 667.32 395.78 C 667.19 396.25 666.71 396.53 666.24 396.4 L 662.86 395.49 C 662.4 395.37 662.12 394.89 662.24 394.42 C 662.34 394.07 662.63 393.83 662.97 393.78 Z M 656.28 392.26 L 654.32 392.37 L 656.41 395.98 L 657.49 394.35 Z M 645.63 387.82 L 635.84 400.3 L 640.48 408.33 L 655.75 405.34 Z M 667.54 385.54 C 667.88 385.51 668.22 385.67 668.4 385.99 C 668.63 386.41 668.48 386.94 668.06 387.18 L 663.18 389.89 C 662.76 390.13 662.23 389.97 661.99 389.55 C 661.76 389.13 661.91 388.6 662.33 388.36 L 667.21 385.65 C 667.31 385.59 667.43 385.55 667.54 385.54 Z M 647.86 385.53 C 647.7 385.52 647.33 385.56 647.1 385.95 C 647.05 386.02 647.02 386.05 646.8 386.34 L 657.56 404.98 C 657.87 404.93 657.92 404.91 658.04 404.9 C 658.71 404.89 659.11 404.17 658.78 403.59 L 648.6 385.96 C 648.38 385.57 648 385.53 647.86 385.53 Z M 647.84 383.78 C 647.85 383.78 647.87 383.78 647.88 383.78 C 648.81 383.79 649.65 384.28 650.12 385.09 L 653.35 390.68 L 656.71 390.48 C 657.04 390.46 657.36 390.63 657.52 390.91 L 659.27 393.95 C 659.44 394.23 659.43 394.59 659.24 394.86 L 657.39 397.68 L 660.29 402.72 C 661.28 404.42 660.11 406.54 658.17 406.65 C 642.43 409.74 641.54 409.91 641.41 409.94 L 642.55 411.91 C 642.79 412.33 642.64 412.86 642.22 413.1 L 639.95 414.42 L 642.58 418.96 C 643.54 420.64 642.97 422.78 641.3 423.74 C 639.6 424.72 637.47 424.11 636.51 422.46 L 632.11 414.83 C 629.34 415.94 626.08 414.88 624.53 412.2 C 622.84 409.27 623.85 405.52 626.77 403.84 L 634.2 399.55 L 645.63 384.99 C 646.12 384.23 646.94 383.78 647.84 383.78 Z M 658.93 381.83 C 659.04 381.81 659.16 381.82 659.27 381.85 C 659.74 381.97 660.02 382.45 659.89 382.92 L 658.99 386.3 C 658.86 386.77 658.38 387.05 657.91 386.92 C 657.45 386.8 657.17 386.32 657.29 385.85 L 658.2 382.47 C 658.3 382.12 658.59 381.88 658.93 381.83 Z" fill="#FFFFFF" stroke-width="1" stroke-linecap="butt" stroke="none" stroke-linejoin="miter" />
</g>
<g id="shape-155" data-name="Freeform: Shape 60">
<path d="M 638.79 305.62 C 639.02 305.62 639.25 305.71 639.41 305.87 C 639.57 306.04 639.67 306.26 639.67 306.49 C 639.67 306.72 639.57 306.95 639.41 307.11 C 639.25 307.27 639.02 307.37 638.79 307.37 C 638.56 307.37 638.33 307.27 638.17 307.11 C 638.01 306.95 637.92 306.72 637.92 306.49 C 637.92 306.26 638.01 306.04 638.17 305.87 C 638.33 305.71 638.56 305.62 638.79 305.62 Z M 642.48 293.81 C 642.96 293.81 643.35 294.2 643.35 294.69 L 643.35 301.39 C 643.35 301.87 642.96 302.26 642.48 302.26 C 641.99 302.26 641.6 301.87 641.6 301.39 L 641.6 294.69 C 641.6 294.2 641.99 293.81 642.48 293.81 Z M 650.57 290.4 C 651.05 290.49 651.36 290.94 651.28 291.42 L 649.47 301.54 C 649.39 301.96 649.02 302.26 648.61 302.26 C 648.56 302.26 648.51 302.26 648.45 302.25 C 647.98 302.16 647.66 301.71 647.75 301.23 L 649.56 291.11 C 649.64 290.64 650.09 290.32 650.57 290.4 Z M 627.35 290.4 C 627.82 290.32 628.28 290.64 628.36 291.11 L 630.17 301.23 C 630.26 301.71 629.94 302.16 629.46 302.25 C 629.41 302.26 629.36 302.26 629.31 302.26 C 628.89 302.26 628.53 301.96 628.45 301.54 L 626.64 291.42 C 626.55 290.94 626.87 290.49 627.35 290.4 Z M 635.44 290.39 C 635.92 290.39 636.32 290.78 636.32 291.27 L 636.32 301.39 C 636.32 301.87 635.92 302.26 635.44 302.26 C 634.96 302.26 634.57 301.87 634.57 301.39 L 634.57 291.27 C 634.57 290.78 634.96 290.39 635.44 290.39 Z M 642.48 290.39 C 642.71 290.39 642.93 290.48 643.1 290.65 C 643.26 290.81 643.35 291.04 643.35 291.27 C 643.35 291.5 643.26 291.72 643.1 291.88 C 642.93 292.05 642.71 292.14 642.48 292.14 C 642.25 292.14 642.02 292.05 641.86 291.88 C 641.7 291.72 641.6 291.5 641.6 291.27 C 641.6 291.04 641.7 290.81 641.86 290.65 C 642.02 290.48 642.25 290.39 642.48 290.39 Z M 619.18 279.02 L 620.96 279.02 C 621.45 279.02 621.84 279.41 621.84 279.89 C 621.84 280.38 621.45 280.77 620.96 280.77 L 619.18 280.77 C 618.7 280.77 618.31 281.16 618.31 281.64 L 618.31 284.44 C 618.31 284.92 618.7 285.32 619.18 285.32 L 658.73 285.32 C 659.22 285.32 659.61 284.92 659.61 284.44 L 659.61 281.64 C 659.61 281.16 659.22 280.77 658.73 280.77 L 656.66 280.77 C 656.18 280.77 655.79 280.38 655.79 279.89 C 655.79 279.41 656.18 279.02 656.66 279.02 L 658.73 279.02 C 660.18 279.02 661.36 280.19 661.36 281.64 L 661.36 284.44 C 661.36 285.7 660.47 286.75 659.29 287.01 L 656.16 303.24 C 655.7 305.63 653.59 307.37 651.16 307.37 L 642.48 307.37 C 641.99 307.37 641.6 306.98 641.6 306.49 C 641.6 306.01 641.99 305.62 642.48 305.62 L 651.16 305.62 C 652.76 305.62 654.14 304.48 654.44 302.91 L 657.5 287.07 L 620.42 287.07 L 623.48 302.91 C 623.78 304.48 625.16 305.62 626.76 305.62 L 634.85 305.62 C 635.33 305.62 635.72 306.01 635.72 306.49 C 635.72 306.98 635.33 307.37 634.85 307.37 L 626.76 307.37 C 624.33 307.37 622.22 305.63 621.76 303.24 L 618.63 287.01 C 617.45 286.75 616.56 285.7 616.56 284.44 L 616.56 281.64 C 616.56 280.19 617.74 279.02 619.18 279.02 Z M 642.64 271.32 C 642.39 271.32 642.13 271.42 641.94 271.62 C 641.55 272 641.55 272.64 641.94 273.02 L 650.79 281.88 C 650.97 282.06 651.22 282.17 651.49 282.17 C 651.76 282.17 652.01 282.06 652.2 281.88 C 652.58 281.49 652.58 280.85 652.2 280.47 L 643.35 271.62 C 643.15 271.42 642.9 271.32 642.64 271.32 Z M 635.28 271.32 C 635.02 271.32 634.77 271.42 634.57 271.62 L 625.72 280.47 C 625.33 280.85 625.33 281.49 625.72 281.88 C 625.91 282.06 626.16 282.17 626.43 282.17 C 626.69 282.17 626.94 282.06 627.13 281.88 L 635.98 273.02 C 636.37 272.64 636.37 272 635.98 271.62 C 635.79 271.42 635.53 271.32 635.28 271.32 Z M 642.64 269.58 C 643.34 269.57 644.05 269.84 644.58 270.38 L 653.43 279.23 C 654.5 280.3 654.5 282.04 653.43 283.11 C 652.91 283.63 652.22 283.92 651.49 283.92 C 650.76 283.92 650.07 283.63 649.55 283.11 L 647.19 280.76 C 647.15 280.76 647.11 280.77 647.07 280.77 L 630.72 280.77 L 628.37 283.11 C 627.85 283.63 627.16 283.92 626.43 283.92 C 625.69 283.92 625 283.63 624.49 283.11 C 623.41 282.04 623.41 280.3 624.49 279.23 L 633.34 270.38 C 634.41 269.31 636.15 269.31 637.22 270.38 C 638.29 271.45 638.29 273.19 637.22 274.26 L 632.47 279.02 L 645.45 279.02 L 640.7 274.26 C 639.63 273.19 639.63 271.45 640.7 270.38 C 641.23 269.84 641.94 269.58 642.64 269.58 Z" fill="#FFFFFF" stroke-width="1" stroke-linecap="butt" stroke="none" stroke-linejoin="miter" />
</g></svg>