<?xml version='1.0' encoding='utf-8'?>
<svg xmlns="http://www.w3.org/2000/svg" version="1.1" width="1280" height="720" viewBox="0 0 1280 720"><defs><filter id="fx1" x="-25%" y="-25%" width="150%" height="150%"><feDropShadow dx="0" dy="0" stdDeviation="13.33" flood-color="#1C4273" flood-opacity="0.15" /></filter><linearGradient id="ggrad1" x1="0.5" y1="0" x2="0.5" y2="1"><stop offset="0.03" stop-color="#F6ACA0" /><stop offset="0.89" stop-color="#FAD0C9" stop-opacity="0" /></linearGradient><filter id="fx2" x="-25%" y="-25%" width="150%" height="150%"><feDropShadow dx="4.71" dy="4.71" stdDeviation="10.67" flood-color="#1C4273" flood-opacity="0.19" /></filter><filter id="fx3" x="-25%" y="-25%" width="150%" height="150%"><feDropShadow dx="4.71" dy="4.71" stdDeviation="10.67" flood-color="#1C4273" flood-opacity="0.19" /></filter><linearGradient id="ggrad2" x1="0.5" y1="0" x2="0.5" y2="1"><stop offset="0.03" stop-color="#F6ACA0" /><stop offset="0.89" stop-color="#FAD0C9" stop-opacity="0" /></linearGradient><filter id="fx4" x="-25%" y="-25%" width="150%" height="150%"><feDropShadow dx="4.71" dy="4.71" stdDeviation="10.67" flood-color="#81A2C8" flood-opacity="0.19" /></filter><filter id="fx5" x="-25%" y="-25%" width="150%" height="150%"><feDropShadow dx="4.71" dy="4.71" stdDeviation="10.67" flood-color="#81A2C8" flood-opacity="0.19" /></filter><linearGradient id="ggrad3" x1="0.5" y1="0" x2="0.5" y2="1"><stop offset="0.03" stop-color="#F6ACA0" /><stop offset="0.89" stop-color="#FAD0C9" stop-opacity="0" /></linearGradient><filter id="fx6" x="-25%" y="-25%" width="150%" height="150%"><feDropShadow dx="4.71" dy="4.71" stdDeviation="10.67" flood-color="#9D3728" flood-opacity="0.19" /></filter><filter id="fx7" x="-25%" y="-25%" width="150%" height="150%"><feDropShadow dx="4.71" dy="4.71" stdDeviation="10.67" flood-color="#9D3728" flood-opacity="0.19" /></filter><linearGradient id="ggrad4" x1="0.5" y1="0" x2="0.5" y2="1"><stop offset="0.03" stop-color="#F6ACA0" /><stop offset="0.89" stop-color="#FAD0C9" stop-opacity="0" /></linearGradient><filter id="fx8" x="-25%" y="-25%" width="150%" height="150%"><feDropShadow dx="4.71" dy="4.71" stdDeviation="10.67" flood-color="#F07662" flood-opacity="0.19" /></filter><filter id="fx9" x="-25%" y="-25%" width="150%" height="150%"><feDropShadow dx="4.71" dy="4.71" stdDeviation="10.67" flood-color="#F07662" flood-opacity="0.19" /></filter></defs><rect x="0" y="0" width="1280" height="720" fill="#FFFFFF" />
<g id="layout-shape-4" data-name="矩形: 圆角 3">
<rect x="0" y="79.7" width="50.72" height="4.98" rx="0" ry="0" fill="#1C4273" stroke="#1C4273" stroke-width="1" filter="url(#fx1)" />
</g>
<g id="shape-94" data-name="梯形 93" transform="rotate(128.31 60.12 534.6)">
<polygon points="8.49,522.21 111.75,522.21 126.25,547 -6.01,547" fill="#89B0E2" stroke="none" stroke-width="1" />
</g>
<g id="shape-2" data-name="标题 1" data-ph-type="title">
<rect x="0" y="19.09" width="984.49" height="57.67" fill="none" />
<text x="9.6" y="44.29" text-anchor="start" xml:space="preserve" font-family="sans-serif" font-size="24" fill="#000000"><tspan fill="#000000" font-size="24">{{TOC_ITEM_1_TITLE}}</tspan></text>
</g>
<g id="shape-8" data-name="矩形: 圆角 7">
<rect x="72.9" y="99.17" width="287.94" height="487.27" rx="0" ry="0" fill="#FFFFFF" stroke-width="0" stroke-linecap="butt" stroke="#1C4273" stroke-linejoin="miter" />
</g>
<g id="shape-31" data-name="文本框 30">
<rect x="83.85" y="291.7" width="280.08" height="48.33" fill="none" />
<text x="93.45" y="310.1" text-anchor="start" xml:space="preserve" font-family="Roboto, &quot;思源黑体 CN Normal&quot;, sans-serif" font-size="16" fill="#000000"><tspan fill="#000000" font-size="16">{{TOC_ITEM_2_TITLE}}</tspan></text>
</g>
<g id="shape-36" data-name="图形52">
<path d="M 123.38 238.55 L 95.68 238.55 L 95.68 238.55 L 94.32 238.86 L 93.26 239.34 L 92.65 240.61 L 92.35 242.03 L 92.35 292.89 L 92.35 292.89 L 92.65 294.31 L 93.26 295.42 L 94.32 296.06 L 95.68 296.21 L 129.74 296.21 L 129.74 296.21 L 131.1 296.06 L 132.16 295.42 L 133.07 294.31 L 133.07 292.89 L 133.07 249.48 L 123.38 238.55 Z M 124.29 243.78 L 128.68 248.53 L 124.29 248.53 L 124.29 243.78 Z M 130.34 292.89 L 130.34 292.89 L 130.34 293.05 L 129.74 293.36 L 95.68 293.36 L 95.68 293.36 L 95.38 293.05 L 95.22 292.89 L 95.22 242.03 L 95.22 242.03 L 95.38 241.72 L 95.68 241.4 L 121.56 241.4 L 121.56 249.95 L 121.56 249.95 L 121.56 250.59 L 121.71 251.22 L 122.32 251.54 L 122.93 251.54 L 130.34 251.54 L 130.34 292.89 Z M 100.07 254.39 L 124.29 254.39 L 124.29 254.39 L 124.74 254.39 L 125.04 254.55 L 125.35 254.87 L 125.35 255.5 L 125.35 255.5 L 125.35 255.82 L 125.04 256.29 L 124.74 256.29 L 124.29 256.61 L 100.07 256.61 L 100.07 256.61 L 99.76 256.29 L 99.61 256.29 L 99.31 255.82 L 99.01 255.5 L 99.01 255.5 L 99.31 254.87 L 99.61 254.55 L 99.76 254.39 L 100.07 254.39 L 100.07 254.39 Z M 125.35 262.94 L 125.35 262.94 L 125.35 263.26 L 125.04 263.9 L 124.74 264.05 L 124.29 264.05 L 100.07 264.05 L 100.07 264.05 L 99.76 264.05 L 99.61 263.9 L 99.31 263.26 L 99.01 262.94 L 99.01 262.94 L 99.31 262.31 L 99.61 262.15 L 99.76 261.84 L 100.07 261.84 L 124.29 261.84 L 124.29 261.84 L 124.74 261.84 L 125.04 262.15 L 125.35 262.31 L 125.35 262.94 L 125.35 262.94 Z M 125.35 270.07 L 125.35 270.07 L 125.35 270.71 L 125.04 271.02 L 124.74 271.34 L 124.29 271.34 L 100.07 271.34 L 100.07 271.34 L 99.76 271.34 L 99.61 271.02 L 99.31 270.71 L 99.01 270.07 L 99.01 270.07 L 99.31 269.92 L 99.61 269.28 L 99.76 269.28 L 100.07 268.97 L 124.29 268.97 L 124.29 268.97 L 124.74 269.28 L 125.04 269.28 L 125.35 269.92 L 125.35 270.07 L 125.35 270.07 Z M 125.35 277.68 L 125.35 277.68 L 125.35 277.84 L 125.04 278.47 L 124.74 278.47 L 124.29 278.79 L 100.07 278.79 L 100.07 278.79 L 99.76 278.47 L 99.61 278.47 L 99.31 277.84 L 99.01 277.68 L 99.01 277.68 L 99.31 277.04 L 99.61 276.73 L 99.76 276.41 L 100.07 276.41 L 124.29 276.41 L 124.29 276.41 L 124.74 276.41 L 125.04 276.73 L 125.35 277.04 L 125.35 277.68 L 125.35 277.68 Z" fill="url(#ggrad1)" stroke-width="1" stroke="none" stroke-linejoin="round" />
</g>
<g id="shape-37" data-name="文本框 36">
<rect x="116.18" y="246.38" width="219.89" height="41.87" fill="none" />
<text x="226.13" y="273.84" text-anchor="middle" xml:space="preserve" font-family="Roboto, &quot;思源黑体 CN Normal&quot;, sans-serif" font-size="26.67" fill="#9D3728"><tspan fill="#9D3728" font-size="26.67">{{TOC_ITEM_3_TITLE}}</tspan></text>
</g>
<g id="shape-39" data-name="矩形: 圆角 38">
<rect x="91.73" y="196.05" width="128.23" height="30.31" rx="15.15" ry="15.15" fill="#1C4273" stroke="none" stroke-width="1" filter="url(#fx2)" />
<text x="155.84" y="218.99" text-anchor="middle" xml:space="preserve" font-family="Roboto, &quot;思源黑体 CN Normal&quot;, sans-serif" font-size="21.33" fill="#FFFFFF"><tspan fill="#FFFFFF" font-size="21.33">{{TOC_ITEM_4_TITLE}}</tspan></text>
</g>
<g id="shape-44" data-name="文本框 43">
<rect x="83.85" y="408.23" width="266.43" height="125.67" fill="none" />
<text x="93.45" y="426.63" text-anchor="start" xml:space="preserve" font-family="Roboto, &quot;思源黑体 CN Normal&quot;, sans-serif" font-size="16" fill="#000000"><tspan fill="#000000" font-size="16">{{TOC_ITEM_1_DESC}}</tspan></text>
<text x="93.45" y="465.03" text-anchor="start" xml:space="preserve" font-family="Roboto, &quot;思源黑体 CN Normal&quot;, sans-serif" font-size="16" fill="#000000"><tspan fill="#000000" font-size="16">{{TOC_ITEM_2_DESC}}</tspan></text>
</g>
<g id="shape-43" data-name="矩形: 圆角 42">
<rect x="91.73" y="363.78" width="128.23" height="30.31" rx="15.15" ry="15.15" fill="#1C4273" stroke="none" stroke-width="1" filter="url(#fx3)" />
<text x="155.84" y="386.72" text-anchor="middle" xml:space="preserve" font-family="Roboto, &quot;思源黑体 CN Normal&quot;, sans-serif" font-size="21.33" fill="#FFFFFF"><tspan fill="#FFFFFF" font-size="21.33">数据支撑</tspan></text>
</g>
<g id="shape-59" data-name="矩形: 圆角 58">
<rect x="371.05" y="99.17" width="287.94" height="487.27" rx="0" ry="0" fill="#FFFFFF" stroke-width="0" stroke-linecap="butt" stroke="#1C4273" stroke-linejoin="miter" />
</g>
<g id="shape-56" data-name="文本框 55">
<rect x="381.99" y="291.7" width="280.08" height="48.33" fill="none" />
<text x="391.59" y="310.1" text-anchor="start" xml:space="preserve" font-family="Roboto, &quot;思源黑体 CN Normal&quot;, sans-serif" font-size="16" fill="#000000"><tspan fill="#000000" font-size="16">{{TOC_ITEM_3_DESC}}</tspan></text>
</g>
<g id="shape-57" data-name="图形 52">
<path d="M 421.53 238.55 L 393.83 238.55 L 393.83 238.55 L 392.46 238.86 L 391.4 239.34 L 390.8 240.61 L 390.5 242.03 L 390.5 292.89 L 390.5 292.89 L 390.8 294.31 L 391.4 295.42 L 392.46 296.06 L 393.83 296.21 L 427.89 296.21 L 427.89 296.21 L 429.25 296.06 L 430.31 295.42 L 431.22 294.31 L 431.22 292.89 L 431.22 249.48 L 421.53 238.55 Z M 422.44 243.78 L 426.83 248.53 L 422.44 248.53 L 422.44 243.78 Z M 428.49 292.89 L 428.49 292.89 L 428.49 293.05 L 427.89 293.36 L 393.83 293.36 L 393.83 293.36 L 393.52 293.05 L 393.37 292.89 L 393.37 242.03 L 393.37 242.03 L 393.52 241.72 L 393.83 241.4 L 419.71 241.4 L 419.71 249.95 L 419.71 249.95 L 419.71 250.59 L 419.86 251.22 L 420.47 251.54 L 421.07 251.54 L 428.49 251.54 L 428.49 292.89 Z M 398.22 254.39 L 422.44 254.39 L 422.44 254.39 L 422.89 254.39 L 423.19 254.55 L 423.5 254.87 L 423.5 255.5 L 423.5 255.5 L 423.5 255.82 L 423.19 256.29 L 422.89 256.29 L 422.44 256.61 L 398.22 256.61 L 398.22 256.61 L 397.91 256.29 L 397.76 256.29 L 397.46 255.82 L 397.16 255.5 L 397.16 255.5 L 397.46 254.87 L 397.76 254.55 L 397.91 254.39 L 398.22 254.39 L 398.22 254.39 Z M 423.5 262.94 L 423.5 262.94 L 423.5 263.26 L 423.19 263.9 L 422.89 264.05 L 422.44 264.05 L 398.22 264.05 L 398.22 264.05 L 397.91 264.05 L 397.76 263.9 L 397.46 263.26 L 397.16 262.94 L 397.16 262.94 L 397.46 262.31 L 397.76 262.15 L 397.91 261.84 L 398.22 261.84 L 422.44 261.84 L 422.44 261.84 L 422.89 261.84 L 423.19 262.15 L 423.5 262.31 L 423.5 262.94 L 423.5 262.94 Z M 423.5 270.07 L 423.5 270.07 L 423.5 270.71 L 423.19 271.02 L 422.89 271.34 L 422.44 271.34 L 398.22 271.34 L 398.22 271.34 L 397.91 271.34 L 397.76 271.02 L 397.46 270.71 L 397.16 270.07 L 397.16 270.07 L 397.46 269.92 L 397.76 269.28 L 397.91 269.28 L 398.22 268.97 L 422.44 268.97 L 422.44 268.97 L 422.89 269.28 L 423.19 269.28 L 423.5 269.92 L 423.5 270.07 L 423.5 270.07 Z M 423.5 277.68 L 423.5 277.68 L 423.5 277.84 L 423.19 278.47 L 422.89 278.47 L 422.44 278.79 L 398.22 278.79 L 398.22 278.79 L 397.91 278.47 L 397.76 278.47 L 397.46 277.84 L 397.16 277.68 L 397.16 277.68 L 397.46 277.04 L 397.76 276.73 L 397.91 276.41 L 398.22 276.41 L 422.44 276.41 L 422.44 276.41 L 422.89 276.41 L 423.19 276.73 L 423.5 277.04 L 423.5 277.68 L 423.5 277.68 Z" fill="url(#ggrad2)" stroke-width="1" stroke="none" stroke-linejoin="round" />
</g>
<g id="shape-58" data-name="文本框 57">
<rect x="414.33" y="256.07" width="219.89" height="32.2" fill="none" />
<text x="524.27" y="276.74" text-anchor="middle" xml:space="preserve" font-family="Roboto, &quot;思源黑体 CN Normal&quot;, sans-serif" font-size="18.67" fill="#9D3728"><tspan fill="#9D3728" font-size="18.67">协助生态新功能上线</tspan></text>
</g>
<g id="shape-55" data-name="矩形: 圆角 54">
<rect x="389.88" y="196.05" width="128.23" height="30.31" rx="15.15" ry="15.15" fill="#81A2C8" stroke="none" stroke-width="1" filter="url(#fx4)" />
<text x="453.99" y="218.99" text-anchor="middle" xml:space="preserve" font-family="Roboto, &quot;思源黑体 CN Normal&quot;, sans-serif" font-size="21.33" fill="#FFFFFF"><tspan fill="#FFFFFF" font-size="21.33">成果描述</tspan></text>
</g>
<g id="shape-52" data-name="文本框 51">
<rect x="381.99" y="408.23" width="266.43" height="125.67" fill="none" />
<text x="391.59" y="426.63" text-anchor="start" xml:space="preserve" font-family="Roboto, &quot;思源黑体 CN Normal&quot;, sans-serif" font-size="16" fill="#000000"><tspan fill="#000000" font-size="16">{{TOC_ITEM_4_DESC}}</tspan></text>
<text x="391.59" y="465.03" text-anchor="start" xml:space="preserve" font-family="Roboto, &quot;思源黑体 CN Normal&quot;, sans-serif" font-size="16" fill="#000000"><tspan fill="#000000" font-size="16">• </tspan><tspan fill="#000000" font-size="16">功能上线后，目标机型用户活跃</tspan><tspan x="391.59" dy="19.2" fill="#000000" font-size="16">度</tspan><tspan fill="#9D3728" font-size="16" font-weight="bold">提升</tspan><tspan fill="#9D3728" font-size="16" font-weight="bold">18%</tspan><tspan fill="#000000" font-size="16">，</tspan><tspan fill="#000000" font-size="16">NPS</tspan><tspan fill="#000000" font-size="16">（净推荐值）</tspan><tspan fill="#9D3728" font-size="16" font-weight="bold">增长</tspan><tspan x="391.59" dy="19.2" fill="#9D3728" font-size="16" font-weight="bold">12</tspan><tspan fill="#9D3728" font-size="16" font-weight="bold">分</tspan><tspan fill="#000000" font-size="16">。</tspan></text>
</g>
<g id="shape-53" data-name="矩形: 圆角 52">
<rect x="389.88" y="363.78" width="128.23" height="30.31" rx="15.15" ry="15.15" fill="#81A2C8" stroke="none" stroke-width="1" filter="url(#fx5)" />
<text x="453.99" y="386.72" text-anchor="middle" xml:space="preserve" font-family="Roboto, &quot;思源黑体 CN Normal&quot;, sans-serif" font-size="21.33" fill="#FFFFFF"><tspan fill="#FFFFFF" font-size="21.33">数据支撑</tspan></text>
</g>
<g id="shape-83" data-name="矩形: 圆角 82">
<rect x="669.2" y="99.17" width="287.94" height="487.27" rx="0" ry="0" fill="#FFFFFF" stroke-width="0" stroke-linecap="butt" stroke="#1C4273" stroke-linejoin="miter" />
</g>
<g id="shape-66" data-name="文本框 65">
<rect x="680.14" y="291.7" width="280.08" height="48.33" fill="none" />
<text x="689.74" y="310.1" text-anchor="start" xml:space="preserve" font-family="Roboto, &quot;思源黑体 CN Normal&quot;, sans-serif" font-size="16" fill="#000000"><tspan fill="#000000" font-size="16">联动市场部、渠道部策划旗舰机型线</tspan><tspan x="689.74" dy="16" fill="#000000" font-size="16">下体验活动，设计用户交互流程。</tspan></text>
</g>
<g id="shape-67" data-name="图形 52">
<path d="M 719.67 238.55 L 691.97 238.55 L 691.97 238.55 L 690.61 238.86 L 689.55 239.34 L 688.95 240.61 L 688.64 242.03 L 688.64 292.89 L 688.64 292.89 L 688.95 294.31 L 689.55 295.42 L 690.61 296.06 L 691.97 296.21 L 726.03 296.21 L 726.03 296.21 L 727.4 296.06 L 728.45 295.42 L 729.36 294.31 L 729.36 292.89 L 729.36 249.48 L 719.67 238.55 Z M 720.58 243.78 L 724.97 248.53 L 720.58 248.53 L 720.58 243.78 Z M 726.64 292.89 L 726.64 292.89 L 726.64 293.05 L 726.03 293.36 L 691.97 293.36 L 691.97 293.36 L 691.67 293.05 L 691.52 292.89 L 691.52 242.03 L 691.52 242.03 L 691.67 241.72 L 691.97 241.4 L 717.86 241.4 L 717.86 249.95 L 717.86 249.95 L 717.86 250.59 L 718.01 251.22 L 718.62 251.54 L 719.22 251.54 L 726.64 251.54 L 726.64 292.89 Z M 696.36 254.39 L 720.58 254.39 L 720.58 254.39 L 721.04 254.39 L 721.34 254.55 L 721.64 254.87 L 721.64 255.5 L 721.64 255.5 L 721.64 255.82 L 721.34 256.29 L 721.04 256.29 L 720.58 256.61 L 696.36 256.61 L 696.36 256.61 L 696.06 256.29 L 695.91 256.29 L 695.61 255.82 L 695.3 255.5 L 695.3 255.5 L 695.61 254.87 L 695.91 254.55 L 696.06 254.39 L 696.36 254.39 L 696.36 254.39 Z M 721.64 262.94 L 721.64 262.94 L 721.64 263.26 L 721.34 263.9 L 721.04 264.05 L 720.58 264.05 L 696.36 264.05 L 696.36 264.05 L 696.06 264.05 L 695.91 263.9 L 695.61 263.26 L 695.3 262.94 L 695.3 262.94 L 695.61 262.31 L 695.91 262.15 L 696.06 261.84 L 696.36 261.84 L 720.58 261.84 L 720.58 261.84 L 721.04 261.84 L 721.34 262.15 L 721.64 262.31 L 721.64 262.94 L 721.64 262.94 Z M 721.64 270.07 L 721.64 270.07 L 721.64 270.71 L 721.34 271.02 L 721.04 271.34 L 720.58 271.34 L 696.36 271.34 L 696.36 271.34 L 696.06 271.34 L 695.91 271.02 L 695.61 270.71 L 695.3 270.07 L 695.3 270.07 L 695.61 269.92 L 695.91 269.28 L 696.06 269.28 L 696.36 268.97 L 720.58 268.97 L 720.58 268.97 L 721.04 269.28 L 721.34 269.28 L 721.64 269.92 L 721.64 270.07 L 721.64 270.07 Z M 721.64 277.68 L 721.64 277.68 L 721.64 277.84 L 721.34 278.47 L 721.04 278.47 L 720.58 278.79 L 696.36 278.79 L 696.36 278.79 L 696.06 278.47 L 695.91 278.47 L 695.61 277.84 L 695.3 277.68 L 695.3 277.68 L 695.61 277.04 L 695.91 276.73 L 696.06 276.41 L 696.36 276.41 L 720.58 276.41 L 720.58 276.41 L 721.04 276.41 L 721.34 276.73 L 721.64 277.04 L 721.64 277.68 L 721.64 277.68 Z" fill="url(#ggrad3)" stroke-width="1" stroke="none" stroke-linejoin="round" />
</g>
<g id="shape-68" data-name="文本框 67">
<rect x="712.48" y="256.07" width="219.89" height="32.2" fill="none" />
<text x="822.42" y="276.74" text-anchor="middle" xml:space="preserve" font-family="Roboto, &quot;思源黑体 CN Normal&quot;, sans-serif" font-size="18.67" fill="#9D3728"><tspan fill="#9D3728" font-size="18.67">提升产品推广效率</tspan></text>
</g>
<g id="shape-69" data-name="矩形: 圆角 68">
<rect x="688.02" y="196.05" width="128.23" height="30.31" rx="15.15" ry="15.15" fill="#9D3728" stroke="none" stroke-width="1" filter="url(#fx6)" />
<text x="752.14" y="218.99" text-anchor="middle" xml:space="preserve" font-family="Roboto, &quot;思源黑体 CN Normal&quot;, sans-serif" font-size="21.33" fill="#FFFFFF"><tspan fill="#FFFFFF" font-size="21.33">成果描述</tspan></text>
</g>
<g id="shape-70" data-name="文本框 69">
<rect x="680.14" y="408.23" width="266.43" height="102.47" fill="none" />
<text x="689.74" y="426.63" text-anchor="start" xml:space="preserve" font-family="Roboto, &quot;思源黑体 CN Normal&quot;, sans-serif" font-size="16" fill="#000000"><tspan fill="#000000" font-size="16">• </tspan><tspan fill="#000000" font-size="16">活动覆盖</tspan><tspan fill="#9D3728" font-size="16" font-weight="bold">15</tspan><tspan fill="#9D3728" font-size="16" font-weight="bold">个重点城市</tspan><tspan fill="#000000" font-size="16">，单场平</tspan><tspan x="689.74" dy="19.2" fill="#000000" font-size="16">均参与</tspan><tspan fill="#9D3728" font-size="16" font-weight="bold">人数</tspan><tspan fill="#9D3728" font-size="16" font-weight="bold">200+</tspan><tspan fill="#000000" font-size="16">；</tspan></text>
<text x="689.74" y="465.03" text-anchor="start" xml:space="preserve" font-family="Roboto, &quot;思源黑体 CN Normal&quot;, sans-serif" font-size="16" fill="#000000"><tspan fill="#000000" font-size="16">• </tspan><tspan fill="#000000" font-size="16">活动期间门店客流量环比</tspan><tspan fill="#9D3728" font-size="16" font-weight="bold">增长</tspan><tspan x="689.74" dy="19.2" fill="#9D3728" font-size="16" font-weight="bold">35%</tspan><tspan fill="#000000" font-size="16">，现场转化率</tspan><tspan fill="#9D3728" font-size="16" font-weight="bold">提升</tspan><tspan fill="#9D3728" font-size="16" font-weight="bold">25%</tspan><tspan fill="#000000" font-size="16">。</tspan></text>
</g>
<g id="shape-71" data-name="矩形: 圆角 70">
<rect x="688.02" y="363.78" width="128.23" height="30.31" rx="15.15" ry="15.15" fill="#9D3728" stroke="none" stroke-width="1" filter="url(#fx7)" />
<text x="752.14" y="386.72" text-anchor="middle" xml:space="preserve" font-family="Roboto, &quot;思源黑体 CN Normal&quot;, sans-serif" font-size="21.33" fill="#FFFFFF"><tspan fill="#FFFFFF" font-size="21.33">数据支撑</tspan></text>
</g>
<g id="shape-79" data-name="矩形: 圆角 78">
<rect x="967.34" y="99.17" width="287.94" height="487.27" rx="0" ry="0" fill="#FFFFFF" stroke-width="0" stroke-linecap="butt" stroke="#1C4273" stroke-linejoin="miter" />
</g>
<g id="shape-73" data-name="文本框 72">
<rect x="978.29" y="291.7" width="280.08" height="48.33" fill="none" />
<text x="987.89" y="310.1" text-anchor="start" xml:space="preserve" font-family="Roboto, &quot;思源黑体 CN Normal&quot;, sans-serif" font-size="16" fill="#000000"><tspan fill="#000000" font-size="16">通过分析用户行为数据定位系统交互</tspan><tspan x="987.89" dy="16" fill="#000000" font-size="16">卡点，推动优化</tspan><tspan fill="#000000" font-size="16">2</tspan><tspan fill="#000000" font-size="16">项核心操作流程。</tspan></text>
</g>
<g id="shape-74" data-name="图形 52">
<path d="M 1017.82 238.55 L 990.12 238.55 L 990.12 238.55 L 988.76 238.86 L 987.7 239.34 L 987.09 240.61 L 986.79 242.03 L 986.79 292.89 L 986.79 292.89 L 987.09 294.31 L 987.7 295.42 L 988.76 296.06 L 990.12 296.21 L 1024.18 296.21 L 1024.18 296.21 L 1025.54 296.06 L 1026.6 295.42 L 1027.51 294.31 L 1027.51 292.89 L 1027.51 249.48 L 1017.82 238.55 Z M 1018.73 243.78 L 1023.12 248.53 L 1018.73 248.53 L 1018.73 243.78 Z M 1024.79 292.89 L 1024.79 292.89 L 1024.79 293.05 L 1024.18 293.36 L 990.12 293.36 L 990.12 293.36 L 989.82 293.05 L 989.67 292.89 L 989.67 242.03 L 989.67 242.03 L 989.82 241.72 L 990.12 241.4 L 1016.01 241.4 L 1016.01 249.95 L 1016.01 249.95 L 1016.01 250.59 L 1016.16 251.22 L 1016.76 251.54 L 1017.37 251.54 L 1024.79 251.54 L 1024.79 292.89 Z M 994.51 254.39 L 1018.73 254.39 L 1018.73 254.39 L 1019.18 254.39 L 1019.49 254.55 L 1019.79 254.87 L 1019.79 255.5 L 1019.79 255.5 L 1019.79 255.82 L 1019.49 256.29 L 1019.18 256.29 L 1018.73 256.61 L 994.51 256.61 L 994.51 256.61 L 994.21 256.29 L 994.06 256.29 L 993.75 255.82 L 993.45 255.5 L 993.45 255.5 L 993.75 254.87 L 994.06 254.55 L 994.21 254.39 L 994.51 254.39 L 994.51 254.39 Z M 1019.79 262.94 L 1019.79 262.94 L 1019.79 263.26 L 1019.49 263.9 L 1019.18 264.05 L 1018.73 264.05 L 994.51 264.05 L 994.51 264.05 L 994.21 264.05 L 994.06 263.9 L 993.75 263.26 L 993.45 262.94 L 993.45 262.94 L 993.75 262.31 L 994.06 262.15 L 994.21 261.84 L 994.51 261.84 L 1018.73 261.84 L 1018.73 261.84 L 1019.18 261.84 L 1019.49 262.15 L 1019.79 262.31 L 1019.79 262.94 L 1019.79 262.94 Z M 1019.79 270.07 L 1019.79 270.07 L 1019.79 270.71 L 1019.49 271.02 L 1019.18 271.34 L 1018.73 271.34 L 994.51 271.34 L 994.51 271.34 L 994.21 271.34 L 994.06 271.02 L 993.75 270.71 L 993.45 270.07 L 993.45 270.07 L 993.75 269.92 L 994.06 269.28 L 994.21 269.28 L 994.51 268.97 L 1018.73 268.97 L 1018.73 268.97 L 1019.18 269.28 L 1019.49 269.28 L 1019.79 269.92 L 1019.79 270.07 L 1019.79 270.07 Z M 1019.79 277.68 L 1019.79 277.68 L 1019.79 277.84 L 1019.49 278.47 L 1019.18 278.47 L 1018.73 278.79 L 994.51 278.79 L 994.51 278.79 L 994.21 278.47 L 994.06 278.47 L 993.75 277.84 L 993.45 277.68 L 993.45 277.68 L 993.75 277.04 L 994.06 276.73 L 994.21 276.41 L 994.51 276.41 L 1018.73 276.41 L 1018.73 276.41 L 1019.18 276.41 L 1019.49 276.73 L 1019.79 277.04 L 1019.79 277.68 L 1019.79 277.68 Z" fill="url(#ggrad4)" stroke-width="1" stroke="none" stroke-linejoin="round" />
</g>
<g id="shape-76" data-name="矩形: 圆角 75">
<rect x="986.17" y="196.05" width="128.23" height="30.31" rx="15.15" ry="15.15" fill="#F07662" stroke="none" stroke-width="1" filter="url(#fx8)" />
<text x="1050.28" y="218.99" text-anchor="middle" xml:space="preserve" font-family="Roboto, &quot;思源黑体 CN Normal&quot;, sans-serif" font-size="21.33" fill="#FFFFFF"><tspan fill="#FFFFFF" font-size="21.33">成果描述</tspan></text>
</g>
<g id="shape-77" data-name="文本框 76">
<rect x="978.29" y="408.23" width="266.43" height="102.47" fill="none" />
<text x="987.89" y="426.63" text-anchor="start" xml:space="preserve" font-family="Roboto, &quot;思源黑体 CN Normal&quot;, sans-serif" font-size="16" fill="#000000"><tspan fill="#000000" font-size="16">• </tspan><tspan fill="#000000" font-size="16">功能页面跳出率</tspan><tspan fill="#9D3728" font-size="16" font-weight="bold">下降</tspan><tspan fill="#9D3728" font-size="16" font-weight="bold">30%</tspan><tspan fill="#000000" font-size="16">，用户</tspan><tspan x="987.89" dy="19.2" fill="#000000" font-size="16">平均任务完成时间</tspan><tspan fill="#9D3728" font-size="16" font-weight="bold">缩短</tspan><tspan fill="#9D3728" font-size="16" font-weight="bold">40%</tspan><tspan fill="#000000" font-size="16">；</tspan></text>
<text x="987.89" y="465.03" text-anchor="start" xml:space="preserve" font-family="Roboto, &quot;思源黑体 CN Normal&quot;, sans-serif" font-size="16" fill="#000000"><tspan fill="#000000" font-size="16">• </tspan><tspan fill="#000000" font-size="16">相关优化纳入产品标准设计规范</tspan><tspan x="987.89" dy="19.2" fill="#000000" font-size="16">，节省后续迭代成本</tspan><tspan fill="#9D3728" font-size="16" font-weight="bold">15</tspan><tspan fill="#9D3728" font-size="16" font-weight="bold">万元</tspan><tspan fill="#9D3728" font-size="16" font-weight="bold">/</tspan><tspan fill="#9D3728" font-size="16" font-weight="bold">项目</tspan><tspan x="987.89" dy="19.2" fill="#000000" font-size="16">。</tspan></text>
</g>
<g id="shape-78" data-name="矩形: 圆角 77">
<rect x="986.17" y="363.78" width="128.23" height="30.31" rx="15.15" ry="15.15" fill="#F07662" stroke="none" stroke-width="1" filter="url(#fx9)" />
<text x="1050.28" y="386.72" text-anchor="middle" xml:space="preserve" font-family="Roboto, &quot;思源黑体 CN Normal&quot;, sans-serif" font-size="21.33" fill="#FFFFFF"><tspan fill="#FFFFFF" font-size="21.33">数据支撑</tspan></text>
</g>
<g id="shape-87" data-name="文本框 86">
<rect x="1007.64" y="246.38" width="219.89" height="41.87" fill="none" />
<text x="1117.58" y="273.84" text-anchor="middle" xml:space="preserve" font-family="Roboto, &quot;思源黑体 CN Normal&quot;, sans-serif" font-size="26.67" fill="#9D3728"><tspan fill="#9D3728" font-size="26.67">2</tspan><tspan fill="#9D3728" font-size="26.67">项  </tspan><tspan fill="#9D3728" font-size="18.67">核心操作流程</tspan></text>
</g>
<g id="shape-97" data-name="任意多边形: 形状 96">
<path d="M 1195.73 578.73 L 1174.87 561.4 L 1174.67 549.13 L 1194.93 565.13 L 1195.73 578.73 Z" fill="#89B0E2" stroke="none" stroke-width="1" />
</g>
<g id="shape-98" data-name="梯形 97">
<polygon points="20.16,560.4 1184.96,560.4 1195.73,579.3 9.39,579.3" fill="#89B0E2" stroke="none" stroke-width="1" />
</g>
<g id="shape-99" data-name="箭头: 右 98">
<polygon points="9.39,578.85 639.13,578.85 639.13,564.88 1268.87,638.74 639.13,712.61 639.13,698.63 9.39,698.63" stroke="none" fill="#1C4273" stroke-width="1" />
</g>
<g id="shape-102" data-name="文本框 101">
<rect x="74.73" y="585.68" width="309.09" height="100.07" fill="none" />
<text x="84.33" y="622.21" text-anchor="start" xml:space="preserve" font-family="Roboto, &quot;思源黑体 CN Normal&quot;, sans-serif" font-size="37.33" fill="#FFFFFF"><tspan fill="#FFFFFF" font-size="37.33">4</tspan><tspan fill="#FFFFFF" font-size="37.33">大工作成果</tspan></text>
<text x="84.33" y="659.55" text-anchor="start" xml:space="preserve" font-family="Roboto, &quot;思源黑体 CN Normal&quot;, sans-serif" font-size="37.33" fill="#FFFFFF"><tspan fill="#FFFFFF" font-size="37.33">展示核心能力</tspan></text>
</g>
<g id="shape-103" data-name="文本框 102">
<rect x="513.27" y="633.24" width="181.99" height="48.47" fill="none" />
<text x="522.87" y="651.64" text-anchor="start" xml:space="preserve" font-family="&quot;思源黑体 CN Normal&quot;, sans-serif" font-size="16" fill="#FFFFFF"><tspan fill="#FFFFFF" font-size="16">从海量数据中提炼关键</tspan><tspan x="522.87" dy="16" fill="#FFFFFF" font-size="16">需求，支撑产品战略</tspan></text>
</g>
<g id="shape-104" data-name="文本框 103">
<rect x="513.27" y="597.61" width="219.89" height="38.67" fill="none" />
<text x="522.87" y="622.81" text-anchor="start" xml:space="preserve" font-family="Roboto, &quot;思源黑体 CN Normal&quot;, sans-serif" font-size="24" fill="#FFFFFF"><tspan fill="#FFFFFF" font-size="24">市场洞察力</tspan></text>
</g>
<g id="shape-107" data-name="文本框 106">
<rect x="764.06" y="633.24" width="181.99" height="48.47" fill="none" />
<text x="773.66" y="651.64" text-anchor="start" xml:space="preserve" font-family="&quot;思源黑体 CN Normal&quot;, sans-serif" font-size="16" fill="#FFFFFF"><tspan fill="#FFFFFF" font-size="16">全流程把控复杂项目，保障目标达成</tspan></text>
</g>
<g id="shape-108" data-name="文本框 107">
<rect x="764.06" y="597.61" width="219.89" height="38.67" fill="none" />
<text x="773.66" y="622.81" text-anchor="start" xml:space="preserve" font-family="Roboto, &quot;思源黑体 CN Normal&quot;, sans-serif" font-size="24" fill="#FFFFFF"><tspan fill="#FFFFFF" font-size="24">项目执行力</tspan></text>
</g>
<g id="shape-110" data-name="文本框 109">
<rect x="1014.84" y="633.24" width="181.99" height="48.47" fill="none" />
<text x="1024.44" y="651.64" text-anchor="start" xml:space="preserve" font-family="&quot;思源黑体 CN Normal&quot;, sans-serif" font-size="16" fill="#FFFFFF"><tspan fill="#FFFFFF" font-size="16">跨部门高效协作，驱动业务增长</tspan></text>
</g>
<g id="shape-111" data-name="文本框 110">
<rect x="1014.84" y="597.61" width="219.89" height="38.67" fill="none" />
<text x="1024.44" y="622.81" text-anchor="start" xml:space="preserve" font-family="Roboto, &quot;思源黑体 CN Normal&quot;, sans-serif" font-size="24" fill="#FFFFFF"><tspan fill="#FFFFFF" font-size="24">资源整合力</tspan></text>
</g>
<g id="shape-114" data-name="箭头: 右 113">
<polygon points="336.07,619.54 413.87,619.54 413.87,602.48 491.66,636.29 413.87,670.11 413.87,653.04 336.07,653.04" fill="#F2D2CD" stroke="none" stroke-width="1" />
</g>
<g id="shape-41" data-name="组合 40">
<g id="shape-42" data-name="等腰三角形 41" transform="translate(515.02 168.72) scale(1 -1) translate(-515.02 -168.72)">
<polygon points="515.02,152.82 546.29,184.62 483.75,184.62" stroke="none" fill="#1C4273" stroke-width="1" />
</g>
<g id="shape-45" data-name="流程图: 过程 44">
<rect x="371.05" y="107.06" width="287.94" height="57.67" stroke="none" fill="#1C4273" stroke-width="1" />
</g>
</g>
<g id="shape-46" data-name="组合 45">
<g id="shape-47" data-name="等腰三角形 46" transform="translate(813.16 168.72) scale(1 -1) translate(-813.16 -168.72)">
<polygon points="813.16,152.82 844.44,184.62 781.89,184.62" stroke="none" fill="#1C4273" stroke-width="1" />
</g>
<g id="shape-48" data-name="流程图: 过程 47">
<rect x="669.2" y="107.06" width="287.94" height="57.67" stroke="none" fill="#1C4273" stroke-width="1" />
</g>
</g>
<g id="shape-49" data-name="组合 48">
<g id="shape-50" data-name="等腰三角形 49" transform="translate(1111.31 168.72) scale(1 -1) translate(-1111.31 -168.72)">
<polygon points="1111.31,152.82 1142.58,184.62 1080.04,184.62" stroke="none" fill="#1C4273" stroke-width="1" />
</g>
<g id="shape-51" data-name="流程图: 过程 50">
<rect x="967.34" y="107.06" width="287.94" height="57.67" stroke="none" fill="#1C4273" stroke-width="1" />
</g>
</g>
<g id="shape-54" data-name="组合 53">
<g id="shape-63" data-name="等腰三角形 62" transform="translate(515.02 160.82) scale(1 -1) translate(-515.02 -160.82)">
<polygon points="515.02,144.92 546.29,176.72 483.75,176.72" fill="#81A2C8" stroke="none" stroke-width="1" />
</g>
<g id="shape-64" data-name="流程图: 过程 63">
<rect x="371.05" y="99.17" width="287.94" height="57.67" fill="#81A2C8" stroke="none" stroke-width="1" />
<text x="515.02" y="136.4" text-anchor="middle" xml:space="preserve" font-family="Roboto, &quot;思源黑体 CN Bold&quot;, &quot;思源黑体 CN Normal&quot;, sans-serif" font-size="24" fill="#FFFFFF"><tspan fill="#FFFFFF" font-size="24">2.</tspan><tspan fill="#FFFFFF" font-size="24">产品全生命周期管理</tspan></text>
</g>
</g>
<g id="shape-65" data-name="组合 64">
<g id="shape-72" data-name="等腰三角形 71" transform="translate(813.16 160.82) scale(1 -1) translate(-813.16 -160.82)">
<polygon points="813.16,144.92 844.44,176.72 781.89,176.72" fill="#9D3728" stroke="none" stroke-width="1" />
</g>
<g id="shape-75" data-name="流程图: 过程 74">
<rect x="669.2" y="99.17" width="287.94" height="57.67" fill="#9D3728" stroke="none" stroke-width="1" />
<text x="813.16" y="136.4" text-anchor="middle" xml:space="preserve" font-family="Roboto, &quot;思源黑体 CN Bold&quot;, &quot;思源黑体 CN Normal&quot;, sans-serif" font-size="24" fill="#FFFFFF"><tspan fill="#FFFFFF" font-size="24">3.</tspan><tspan fill="#FFFFFF" font-size="24">跨部门协作与资源整合</tspan></text>
</g>
</g>
<g id="shape-88" data-name="组合 87">
<g id="shape-89" data-name="等腰三角形 88" transform="translate(1111.31 160.82) scale(1 -1) translate(-1111.31 -160.82)">
<polygon points="1111.31,144.92 1142.58,176.72 1080.04,176.72" fill="#F07662" stroke="none" stroke-width="1" />
</g>
<g id="shape-90" data-name="流程图: 过程 89">
<rect x="967.34" y="99.17" width="287.94" height="57.67" fill="#F07662" stroke="none" stroke-width="1" />
<text x="1111.31" y="136.4" text-anchor="middle" xml:space="preserve" font-family="Roboto, &quot;思源黑体 CN Bold&quot;, &quot;思源黑体 CN Normal&quot;, sans-serif" font-size="24" fill="#FFFFFF"><tspan fill="#FFFFFF" font-size="24">4.</tspan><tspan fill="#FFFFFF" font-size="24">精准定位用户体验问题</tspan></text>
</g>
</g>
<g id="shape-91" data-name="组合 90">
<g id="shape-92" data-name="等腰三角形 91" transform="translate(216.87 168.72) scale(1 -1) translate(-216.87 -168.72)">
<polygon points="216.87,152.82 248.14,184.62 185.6,184.62" stroke="none" fill="#1C4273" stroke-width="1" />
</g>
<g id="shape-93" data-name="流程图: 过程 92">
<rect x="72.9" y="107.06" width="287.94" height="57.67" stroke="none" fill="#1C4273" stroke-width="1" />
</g>
</g>
<g id="shape-95" data-name="组合 94">
<g id="shape-96" data-name="等腰三角形 95" transform="translate(216.87 160.82) scale(1 -1) translate(-216.87 -160.82)">
<polygon points="216.87,144.92 248.14,176.72 185.6,176.72" fill="#1C4273" stroke="none" stroke-width="1" />
</g>
<g id="shape-100" data-name="流程图: 过程 99">
<rect x="72.9" y="99.17" width="287.94" height="57.67" fill="#1C4273" stroke="none" stroke-width="1" />
<text x="216.87" y="136.4" text-anchor="middle" xml:space="preserve" font-family="Roboto, &quot;思源黑体 CN Bold&quot;, &quot;思源黑体 CN Normal&quot;, sans-serif" font-size="24" fill="#FFFFFF"><tspan fill="#FFFFFF" font-size="24">1.</tspan><tspan fill="#FFFFFF" font-size="24">支撑产品迭代决策</tspan></text>
</g>
</g></svg>