<?xml version='1.0' encoding='utf-8'?>
<svg xmlns="http://www.w3.org/2000/svg" version="1.1" width="1280" height="720" viewBox="0 0 1280 720"><rect x="0" y="0" width="1280" height="720" fill="#F2F2F2" />
<g id="shape-5" data-name="矩形 4">
<rect x="1115.73" y="143.53" width="125.6" height="546.14" fill="#D9D9D9" stroke="#091724" stroke-width="1" />
</g>
<g id="shape-4" data-name="图片 3" transform="rotate(270 617.97 415.7)">
<svg x="344.8" y="-164.93" width="546.33" height="1161.27" viewBox="0.07815 -0.00903 0.86388 1" preserveAspectRatio="none"><image href="assets/image1.png" x="0" y="0" width="1" height="1" preserveAspectRatio="none" /></svg>
</g>
<g id="shape-7" data-name="矩形 6" transform="rotate(270 639.33 80.55)">
<rect x="591.13" y="-521.42" width="96.4" height="1203.93" fill="#FFFFFF" stroke-width="1.333" stroke="#262626" />
</g>
<g id="shape-17" data-name="矩形 16" transform="rotate(270 72.3 80.55)">
<rect x="24" y="44.32" width="96.6" height="72.47" fill="#435BE1" stroke-width="1.333" stroke="#262626" />
</g>
<g id="shape-19" data-name="标题" data-ph-type="title">
<rect x="124.92" y="52.2" width="1014.6" height="69.8" fill="none" />
<text x="134.52" y="93.27" text-anchor="start" xml:space="preserve" font-family="&quot;思源黑体 CN Heavy&quot;, sans-serif" font-size="42.67" fill="#0D0D0D"><tspan fill="#0D0D0D" font-size="42.67">{{PAGE_TITLE}}</tspan></text>
</g>
<g id="shape-20" data-name="文本框 19">
<rect x="105.87" y="297.87" width="517" height="197.53" fill="none" />
<text x="115.47" y="316.27" text-anchor="start" xml:space="preserve" font-family="&quot;思源黑体 CN Medium&quot;, sans-serif" font-size="16" fill="#404040"><tspan fill="#404040" font-size="16">{{CONTENT_1}}</tspan></text>
<text x="115.47" y="401.6" text-anchor="start" xml:space="preserve" font-family="&quot;思源黑体 CN Medium&quot;, sans-serif" font-size="16" fill="#404040"><tspan fill="#404040" font-size="16">{{CONTENT_2}}</tspan></text>
</g>
<g id="shape-21" data-name="组合 20">
<g id="shape-22" data-name="直接连接符 21">
<line x1="1199.93" y1="73.57" x2="1220.31" y2="73.57" stroke-width="2.667" stroke-linecap="round" stroke="#000000" stroke-linejoin="round" fill="#5B9BD5" />
</g>
<g id="shape-23" data-name="直接连接符 22">
<line x1="1199.93" y1="80.55" x2="1220.31" y2="80.55" stroke-width="2.667" stroke-linecap="round" stroke="#000000" stroke-linejoin="round" fill="#5B9BD5" />
</g>
<g id="shape-24" data-name="直接连接符 23">
<line x1="1199.93" y1="87.53" x2="1220.31" y2="87.53" stroke-width="2.667" stroke-linecap="round" stroke="#000000" stroke-linejoin="round" fill="#5B9BD5" />
</g>
</g>
<g id="shape-3" data-name="组合 2" transform="translate(76.8 82.23) scale(-1 1) translate(-76.8 -82.23)">
<g id="shape-18" data-name="等腰三角形 17" transform="rotate(270 72.36 82.21)">
<polygon points="72.36,70.39 82.77,94.03 61.96,94.03" fill="#000000" stroke-width="1.333" stroke="#000000" />
</g>
<g id="shape-2" data-name="等腰三角形 1" transform="rotate(270 81.24 82.26)">
<polygon points="81.24,70.44 91.64,94.07 70.83,94.07" fill="#FFFFFF" stroke-width="1.333" stroke="#000000" />
</g>
</g>
<g id="shape-8" data-name="矩形 7">
<rect x="105.87" y="262.67" width="363.87" height="13.33" fill="#D9D9D9" stroke-width="1.667" stroke="none" />
</g>
<g id="shape-6" data-name="标题">
<rect x="105.87" y="221.6" width="383.4" height="69.8" fill="none" />
<text x="115.47" y="267.17" text-anchor="start" xml:space="preserve" font-family="&quot;思源黑体 CN Heavy&quot;, sans-serif" font-size="42.67" fill="#0D0D0D"><tspan fill="#0D0D0D" font-size="42.67">本季度工作概述</tspan></text>
</g>
<g id="shape-16" data-name="矩形 15">
<rect x="683.47" y="249.87" width="438.53" height="348.4" fill="#F2F2F2" stroke-width="1.333" stroke="#000000" />
</g>
<g id="shape-35" data-name="组合 34">
<g id="shape-13" data-name="椭圆 12">
<ellipse cx="152.88" cy="569.2" rx="38.81" ry="38.8" fill="#435BE1" stroke="#000000" stroke-width="1" />
</g>
<g id="shape-27" data-name="椭圆 26">
<ellipse cx="262.16" cy="569.2" rx="38.81" ry="38.8" fill="#D9D9D9" stroke="#000000" stroke-width="1" />
</g>
<g id="shape-28" data-name="椭圆 27">
<ellipse cx="371.44" cy="569.2" rx="38.81" ry="38.8" fill="#435BE1" stroke="#000000" stroke-width="1" />
</g>
<g id="shape-29" data-name="椭圆 28">
<ellipse cx="480.72" cy="569.2" rx="38.81" ry="38.8" fill="#D9D9D9" stroke="#000000" stroke-width="1" />
</g>
<g id="shape-31" data-name="图片 30">
<image href="assets/image13.png" x="131.71" y="548.48" width="41.52" height="41.5" preserveAspectRatio="none" />
</g>
<g id="shape-32" data-name="图片 31">
<image href="assets/image15.png" x="241.11" y="548.48" width="41.52" height="41.5" preserveAspectRatio="none" />
</g>
<g id="shape-33" data-name="图片 32">
<image href="assets/image17.png" x="350.52" y="548.48" width="41.52" height="41.5" preserveAspectRatio="none" />
</g>
<g id="shape-34" data-name="图片 33">
<image href="assets/image19.png" x="459.92" y="548.48" width="41.52" height="41.5" preserveAspectRatio="none" />
</g>
</g>
<g id="shape-58" data-name="组合 57">
<g id="shape-39" data-name="图形 24" transform="rotate(90 1149.93 661.6)">
<image href="assets/image21.png" x="1142.53" y="647" width="14.8" height="29.2" preserveAspectRatio="none" />
</g>
<g id="shape-40" data-name="图片 39">
<svg x="1160.53" y="567.93" width="82.73" height="122.53" viewBox="0.61573 0.60734 0.06463 0.30096" preserveAspectRatio="none"><image href="assets/image12.png" x="0" y="0" width="1" height="1" preserveAspectRatio="none" /></svg>
</g>
<g id="shape-54" data-name="组合 53" transform="rotate(90 1081.6 661.6)">
<g id="shape-55" data-name="任意多边形: 形状 52">
<path d="M 1073.93 623.67 L 1081.6 623.67 L 1081.6 631.25 L 1073.93 631.25 Z" fill="#0D0D0D" stroke-width="1.333" stroke-linecap="butt" stroke="#000000" stroke-linejoin="miter" />
</g>
<g id="shape-56" data-name="任意多边形: 形状 55">
<path d="M 1081.6 631.25 L 1089.27 631.25 L 1089.27 638.84 L 1081.6 638.84 Z" fill="#0D0D0D" stroke-width="1.333" stroke-linecap="butt" stroke="#000000" stroke-linejoin="miter" />
</g>
<g id="shape-57" data-name="任意多边形: 形状 56">
<path d="M 1073.93 638.84 L 1081.6 638.84 L 1081.6 646.43 L 1073.93 646.43 Z" fill="#0D0D0D" stroke-width="1.333" stroke-linecap="butt" stroke="#000000" stroke-linejoin="miter" />
</g>
<g id="shape-60" data-name="任意多边形: 形状 59">
<path d="M 1081.6 646.43 L 1089.27 646.43 L 1089.27 654.01 L 1081.6 654.01 Z" fill="#0D0D0D" stroke-width="1.333" stroke-linecap="butt" stroke="#000000" stroke-linejoin="miter" />
</g>
<g id="shape-61" data-name="任意多边形: 形状 60">
<path d="M 1073.93 654.01 L 1081.6 654.01 L 1081.6 661.6 L 1073.93 661.6 Z" fill="#0D0D0D" stroke-width="1.333" stroke-linecap="butt" stroke="#000000" stroke-linejoin="miter" />
</g>
<g id="shape-64" data-name="任意多边形: 形状 63">
<path d="M 1081.6 661.6 L 1089.27 661.6 L 1089.27 669.19 L 1081.6 669.19 Z" fill="#0D0D0D" stroke-width="1.333" stroke-linecap="butt" stroke="#000000" stroke-linejoin="miter" />
</g>
<g id="shape-65" data-name="任意多边形: 形状 64">
<path d="M 1073.93 669.19 L 1081.6 669.19 L 1081.6 676.77 L 1073.93 676.77 Z" fill="#0D0D0D" stroke-width="1.333" stroke-linecap="butt" stroke="#000000" stroke-linejoin="miter" />
</g>
<g id="shape-68" data-name="任意多边形: 形状 67">
<path d="M 1081.6 676.77 L 1089.27 676.77 L 1089.27 684.36 L 1081.6 684.36 Z" fill="#0D0D0D" stroke-width="1.333" stroke-linecap="butt" stroke="#000000" stroke-linejoin="miter" />
</g>
<g id="shape-69" data-name="任意多边形: 形状 68">
<path d="M 1073.93 684.36 L 1081.6 684.36 L 1081.6 691.95 L 1073.93 691.95 Z" fill="#0D0D0D" stroke-width="1.333" stroke-linecap="butt" stroke="#000000" stroke-linejoin="miter" />
</g>
<g id="shape-76" data-name="任意多边形: 形状 75">
<path d="M 1081.6 691.95 L 1089.27 691.95 L 1089.27 699.53 L 1081.6 699.53 Z" fill="#0D0D0D" stroke-width="1.333" stroke-linecap="butt" stroke="#000000" stroke-linejoin="miter" />
</g>
</g>
</g>
<g id="shape-42" data-name="图片 41">
<svg x="699.8" y="229.07" width="441.27" height="348.4" viewBox="0.06333 0.40667 0.91931 0.48389" preserveAspectRatio="none"><image href="assets/image23.jpeg" x="0" y="0" width="1" height="1" preserveAspectRatio="none" /></svg>
</g>
<g id="shape-43" data-name="矩形 42">
<rect x="698.87" y="515.87" width="75.07" height="61.73" fill="#435BE1" stroke="#0D0D0D" stroke-width="1" />
</g>
<g id="shape-46" data-name="组合 45">
<g id="shape-44" data-name="图片 43">
<image href="assets/image24.png" x="721.13" y="536.33" width="20.84" height="20.87" preserveAspectRatio="none" />
</g>
<g id="shape-45" data-name="图片 44">
<image href="assets/image24.png" x="732.96" y="536.33" width="20.84" height="20.87" preserveAspectRatio="none" />
</g>
</g></svg>