<?xml version="1.0" encoding="UTF-8" standalone="yes"?><svg id="Capa_1" xmlns="http://www.w3.org/2000/svg" xmlns:xlink="http://www.w3.org/1999/xlink" version="1.2" baseProfile="tiny" x="0" y="0" width="512" height="512" viewBox="0 0 512 512"><defs><linearGradient id="wps{f886d79b-c250-4fca-8ff7-563059dc33b0}_solid@Accent5_0.00@Accent5_0.00" x1="0" y1="0.5" x2="1" y2="0.5" spreadMethod="pad" gradientUnits="userSpaceOnUse"><stop offset="0" stop-color="#6c3632" stop-opacity="1"/><stop offset="1" stop-color="#6c3632" stop-opacity="1"/></linearGradient><linearGradient id="wps{0402e066-3b3e-452e-a8ef-b22c267b1407}_solid@Accent3_0.00@Accent3_0.00" x1="0" y1="0.5" x2="1" y2="0.5" spreadMethod="pad" gradientUnits="userSpaceOnUse"><stop offset="0" stop-color="#924437" stop-opacity="1"/><stop offset="1" stop-color="#924437" stop-opacity="1"/></linearGradient></defs><defs/><defs/><g><path fill="url(#wps{0402e066-3b3e-452e-a8ef-b22c267b1407}_solid@Accent3_0.00@Accent3_0.00)" fill-opacity="1" stroke="url(#wps{f886d79b-c250-4fca-8ff7-563059dc33b0}_solid@Accent5_0.00@Accent5_0.00)" stroke-width="1" stroke-opacity="1" d="M 506.886 57.275 L 406.886 1.275 C 403.791 -0.459 400.007 -0.422 396.944 1.373 C 393.881 3.167 392 6.451 392 10 L 392 26 L 256 26 C 162.262 26 86 102.262 86 196 L 86 256 C 86 317.674 119.584 375.904 176.061 406 L 120 406 L 120 390 C 120 386.451 118.119 383.167 115.057 381.373 C 111.995 379.579 108.212 379.541 105.114 381.275 L 5.114 437.275 C 1.956 439.043 4.44089e-15 442.38 4.44089e-15 446 C 4.44089e-15 449.62 1.956 452.957 5.114 454.725 L 105.114 510.725 C 108.164 512.433 111.948 512.449 115.057 510.627 C 118.119 508.832 120 505.549 120 502 L 120 486 L 256 486 C 283.118 486 310.099 479.456 334.024 467.076 C 338.929 464.538 340.848 458.504 338.31 453.599 C 335.771 448.693 329.735 446.776 324.832 449.313 C 303.435 460.386 280.275 466 256 466 L 110 466 C 104.477 466 100 470.477 100 476 L 100 484.939 L 30.466 446 L 100 407.061 L 100 416 C 100 421.523 104.477 426 110 426 L 256 426 C 317.486 426 373.877 393.033 404.149 339.433 C 401.243 357.88 394.936 375.671 385.467 391.807 C 382.671 396.57 384.267 402.698 389.03 405.493 C 393.781 408.282 399.915 406.704 402.716 401.93 C 417.948 375.974 426 346.26 426 316 L 426 256 C 426 194.736 392.558 136.177 336.137 106 L 392 106 L 392 122 C 392 125.549 393.881 128.833 396.943 130.627 C 400.005 132.422 403.789 132.459 406.885 130.725 L 506.885 74.725 C 510.044 72.956 512 69.62 512 66 C 512 62.38 510.044 59.043 506.886 57.275 M 109.016 226 L 116 226 C 121.514 226 126 230.486 126 236 C 126 252.542 139.458 266 156 266 L 196 266 C 201.514 266 206 270.486 206 276 C 206 281.514 201.514 286 196 286 C 179.458 286 166 299.458 166 316 C 166 321.514 161.514 326 156 326 C 145.687 326 136.573 331.232 131.172 339.181 C 114.833 314.677 106 285.783 106 256 C 106 245.882 107.024 235.825 109.016 226 M 146 357.973 L 146 356 C 146 350.486 150.486 346 156 346 C 172.542 346 186 332.542 186 316 C 186 310.486 190.486 306 196 306 C 212.542 306 226 292.542 226 276 C 226 259.458 212.542 246 196 246 L 156 246 C 150.486 246 146 241.514 146 236 C 146 219.458 132.542 206 116 206 L 114.557 206 C 122.611 183.145 136.083 162.646 154.054 146 L 216 146 C 221.514 146 226 150.486 226 156 C 226 161.514 221.514 166 216 166 C 199.458 166 186 179.458 186 196 C 186 212.542 199.458 226 216 226 L 236 226 C 241.514 226 246 230.486 246 236 L 246 256 C 246 272.542 259.458 286 276 286 C 292.542 286 306 272.542 306 256 L 306 216 C 306 210.486 310.486 206 316 206 C 332.542 206 346 192.542 346 176 C 346 170.486 350.486 166 356 166 L 376.006 166 C 393.639 189.435 403.789 216.833 405.674 246 L 376 246 C 359.458 246 346 259.458 346 276 L 346 316 C 346 321.514 341.514 326 336 326 L 296 326 C 279.458 326 266 339.458 266 356 C 266 372.542 279.458 386 296 386 C 301.514 386 306 390.486 306 396 L 306 397.463 C 289.99 403.127 273.203 406 256 406 C 214.232 406 174.357 388.539 146 357.973 M 325.192 389.109 C 322.069 375.879 310.17 366 296 366 C 290.486 366 286 361.514 286 356 C 286 350.486 290.486 346 296 346 L 336 346 C 352.542 346 366 332.542 366 316 L 366 276 C 366 270.486 370.486 266 376 265.99 L 405.654 265.99 C 402.21 318.59 371.772 364.987 325.192 389.109 M 357.998 146 L 356 146 C 339.458 146 326 159.458 326 176 C 326 181.514 321.514 186 316 186 C 299.458 186 286 199.458 286 216 L 286 256 C 286 261.514 281.514 266 276 266 C 270.486 266 266 261.514 266 256 L 266 236 C 266 219.458 252.542 206 236 206 L 216 206 C 210.486 206 206 201.514 206 196 C 206 190.486 210.486 186 216 186 C 232.542 186 246 172.542 246 156 C 246 139.458 232.542 126 216 126 L 181.16 126 C 203.766 112.98 229.532 106 256 106 C 294.299 106 330.432 120.366 357.998 146 M 412 104.939 L 412 96 C 412 90.477 407.522 86 402 86 L 256 86 C 193.704 86 137.487 119.954 107.841 172.526 C 119.143 100.927 181.274 46 256 46 L 402 46 C 407.522 46 412 41.523 412 36 L 412 27.061 L 481.533 66 L 412 104.939"/><circle fill="url(#wps{0402e066-3b3e-452e-a8ef-b22c267b1407}_solid@Accent3_0.00@Accent3_0.00)" fill-opacity="1" stroke="url(#wps{f886d79b-c250-4fca-8ff7-563059dc33b0}_solid@Accent5_0.00@Accent5_0.00)" stroke-width="1" stroke-opacity="1" cx="366" cy="432" r="10"/></g></svg>
