<?xml version="1.0" encoding="UTF-8" standalone="yes"?><svg id="svg2" font-size="128" xmlns="http://www.w3.org/2000/svg" xmlns:xlink="http://www.w3.org/1999/xlink" version="1.2" baseProfile="tiny" x="0" y="0" width="128" height="128" viewBox="0 0 256 256"><defs><linearGradient id="wps{13abdfd1-c8a3-4635-be7e-2857f3846738}_solid@Accent1_0.40@Accent1_0.40" x1="0" y1="0.5" x2="1" y2="0.5" spreadMethod="pad" gradientUnits="userSpaceOnUse"><stop offset="0" stop-color="#cba19c" stop-opacity="1"/><stop offset="1" stop-color="#cba19c" stop-opacity="1"/></linearGradient></defs><defs/><defs/><defs id="defs6"/><g transform="matrix(0.724527,0,0,0.724527,-17.3592,-17.2879)"><g id="g10" transform="matrix(1.33333,0,0,-1.33333,0,400)"><g id="g12" transform="matrix(0.1,0,0,0.1,0,0)"><path id="path14" fill="url(#wps{13abdfd1-c8a3-4635-be7e-2857f3846738}_solid@Accent1_0.40@Accent1_0.40)" fill-opacity="1" d="M 1503.99 1431.75 L 1337.67 1431.75 L 1337.67 1098.51 L 1503.99 1098.51 L 1671.65 1098.51 L 1671.65 1265.43 L 1671.65 1431.75 L 1503.99 1431.75 M 1793.86 1166.46 L 1793.86 1037 C 1793.86 1002.35 1767.06 975.57 1733.83 975.57 L 1732.34 975.57 L 1503.99 975.57 L 1276.24 975.57 C 1242.26 975.57 1214.79 1002.35 1214.79 1037 L 1214.79 1038.49 L 1214.79 1166.46 L 463.047 1166.46 L 463.047 424.031 L 2545.61 424.031 L 2545.61 1166.46 L 1793.86 1166.46 M 1276.24 1554.62 L 1733.83 1554.62 C 1767.06 1554.62 1793.86 1527.83 1793.86 1493.85 L 1793.86 1492.45 L 1793.86 1370.98 L 2625.85 1370.98 L 2625.85 2221.77 L 383.551 2221.77 L 383.551 1370.98 L 1214.79 1370.98 L 1214.79 1493.85 C 1214.79 1527.83 1242.26 1554.62 1276.24 1554.62 M 1028.34 2424.88 L 1982.46 2424.88 L 1982.46 2514.52 C 1982.46 2551.38 1966.62 2586.09 1941.97 2610.68 C 1917.4 2635.98 1884.16 2649.02 1846.56 2649.02 L 1162.76 2649.02 C 1125.16 2649.02 1091.92 2635.98 1067.35 2610.68 L 1066.61 2610.68 C 1042.77 2586.09 1028.34 2551.38 1028.34 2514.52 L 1028.34 2424.88 M 282.363 2424.88 L 905.465 2424.88 L 905.465 2514.52 C 905.465 2585.36 934.336 2649.02 980.598 2696.02 L 981.34 2696.02 C 1028.34 2742.95 1091.92 2771.89 1162.76 2771.89 L 1846.56 2771.89 C 1916.73 2771.89 1982.46 2742.95 2028.72 2696.02 C 2074.99 2649.02 2103.93 2585.36 2103.93 2514.52 L 2103.93 2424.88 L 2727.03 2424.88 C 2784.1 2424.88 2829.7 2379.36 2829.7 2323.69 L 2829.7 2319.4 L 2829.7 1269.05 C 2829.7 1219.9 2794.98 1180.16 2749.46 1169.35 L 2749.46 324.34 L 2749.46 321.449 C 2749.46 265.781 2703.87 220.191 2647.53 220.191 L 364.746 220.191 L 361.859 220.191 C 305.461 220.191 260.676 265.781 260.676 321.449 L 260.676 1169.35 C 214.414 1180.16 179.695 1219.9 179.695 1269.05 L 179.695 1271.27 L 179.695 2323.69 C 179.695 2379.36 225.961 2424.88 282.363 2424.88"/></g></g></g></svg>
