<?xml version="1.0" encoding="UTF-8" standalone="yes"?><svg xmlns="http://www.w3.org/2000/svg" xmlns:xlink="http://www.w3.org/1999/xlink" version="1.2" baseProfile="tiny" x="0" y="0" width="30" height="30" viewBox="0 0 30 30"><defs/><defs/><defs/><g><path fill="#ffffff" fill-rule="evenodd" clip-rule="evenodd" d="M 15.5 20 L 16.5 19.7 L 17.2 19.2 L 17.7 18.4 L 17.9 17.4 L 17.7 16.4 L 17.2 15.6 L 16.5 15.1 L 15.5 14.8 L 14.5 15.1 L 13.8 15.6 L 13.3 16.4 L 13.1 17.4 L 13.3 18.4 L 13.8 19.2 L 14.5 19.7 L 15.5 20 M 15.5 16 L 16 16 L 16.5 16.5 L 17 17 L 17 17.5 L 17 18 L 16.5 18.5 L 16 19 L 15.5 19 L 15 19 L 14.5 18.5 L 14 18 L 14 17.5 L 14 17 L 14.5 16.5 L 15 16 L 15.5 16"/><path fill="#ffffff" fill-rule="evenodd" clip-rule="evenodd" d="M 28 0 L 27.2 0.2 L 26.6 0.6 L 26.2 1.2 L 26 2 L 26.2 2.8 L 26.6 3.4 L 27.2 3.8 L 28 4 L 28.8 3.8 L 29.4 3.4 L 29.8 2.8 L 30 2 L 29.8 1.2 L 29.4 0.6 L 28.8 0.2 L 28 0 M 28 3.2 L 27.6 3.2 L 27.2 2.8 L 26.8 2.4 L 26.8 2 L 26.8 1.6 L 27.2 1.2 L 27.6 0.8 L 28 0.8 L 28.4 0.8 L 28.8 1.2 L 29.2 1.6 L 29.2 2 L 29.2 2.4 L 28.8 2.8 L 28.4 3.2 L 28 3.2"/><path fill="#ffffff" fill-rule="evenodd" clip-rule="evenodd" d="M 8 16 L 8.2 16.8 L 8.4 17.6 L 9 17.9 L 9.5 18 L 10.1 17.7 L 10.7 17.4 L 10.9 16.6 L 11 16 L 10.8 15.2 L 10.6 14.4 L 10 14.1 L 9.5 14 L 8.9 14.3 L 8.3 14.6 L 8.1 15.4 L 8 16 M 9.5 15 L 9.9 15 L 10.1 15.3 L 10.3 15.6 L 10.3 16 L 10.3 16.5 L 10.1 16.8 L 9.9 17 L 9.5 17 L 9.1 17 L 8.9 16.7 L 8.7 16.4 L 8.7 16 L 8.7 15.5 L 8.9 15.2 L 9.1 15 L 9.5 15"/><path fill="#ffffff" fill-rule="evenodd" clip-rule="evenodd" d="M 12 22 L 12.5 22 L 12.7 21.8 L 13 21.5 L 13 21 L 13 20.5 L 12.7 20.3 L 12.5 20 L 12 20 L 11.5 20 L 11.2 20.3 L 11 20.5 L 11 21 L 11 21.5 L 11.2 21.8 L 11.5 22 L 12 22 Z"/><path fill="#ffffff" fill-rule="evenodd" clip-rule="evenodd" d="M 28 6 L 27.5 6 L 27.2 6.3 L 27 6.5 L 27 7 L 27 7.5 L 27.2 7.8 L 27.5 8 L 28 8 L 28.5 8 L 28.7 7.8 L 29 7.5 L 29 7 L 29 6.5 L 28.7 6.3 L 28.5 6 L 28 6 Z"/><path fill="#ffffff" fill-rule="evenodd" clip-rule="evenodd" d="M 19.9 2.7 L 18.9 2.2 L 18.2 2 L 17.2 2.2 L 16.5 2.7 L 15.1 4.1 L 14.6 4.8 L 14.4 5.8 L 14.4 6.3 L 14.6 7 L 1.7 12.4 L 1.2 12.6 L 0.7 13.1 L 0.2 13.8 L 0 14.3 L 0 15 L 0.2 15.7 L 0.4 16.4 L 1 17 L 13 29.1 L 14 29.8 L 15.2 30 L 15.7 30 L 16.4 29.8 L 17.1 29.3 L 17.6 28.8 L 17.8 28.1 L 22.8 15.3 L 23.5 15.5 L 24.2 15.7 L 25.2 15.5 L 25.9 15 L 27.3 13.6 L 27.8 12.9 L 28 11.9 L 27.8 10.9 L 27.3 10.2 L 19.9 2.7 M 16 27.3 L 15.5 27.8 L 15.3 28 L 15.1 28 L 14.4 27.8 L 2.2 15.5 L 2 15.3 L 2 14.8 L 2.2 14.3 L 2.4 14.1 L 8.4 11.7 L 10.1 12.2 L 11.5 12.4 L 14.4 12.6 L 16.1 13.1 L 17.5 13.8 L 18.9 14.5 L 20.6 15.9 L 16 27.3 M 25.8 12.1 L 24.4 13.5 L 24.2 13.7 L 23.7 13.5 L 22 11.9 L 20.8 15.3 L 20.8 15 L 19.8 14 L 18.6 13.3 L 16.4 12.3 L 14.2 11.6 L 12.3 11.4 L 9.7 11.2 L 17.8 7.8 L 16.4 6.1 L 16.2 5.9 L 16.4 5.4 L 17.6 4.2 L 18.1 4 L 18.3 4.2 L 25.7 11.4 L 25.9 11.9 L 25.8 12.1"/></g></svg>
