<?xml version="1.0" encoding="UTF-8" standalone="yes"?><svg xmlns="http://www.w3.org/2000/svg" xmlns:xlink="http://www.w3.org/1999/xlink" version="1.2" baseProfile="tiny" x="0" y="0" width="256" height="256" viewBox="0 0 256 256"><defs/><defs/><defs/><defs/><g transform="matrix(0.281319,0,0,0.281319,-16.0352,-5.34505)"><g id="计划" fill="none" fill-rule="evenodd"><path id="形状" stroke="#ffffff" stroke-width="49.7778" d="M 365.387 139.974 L 658.613 139.974 M 786.436 139 L 900.673 139 C 923.497 139 942 158.312 942 182.135 L 942 855.865 C 942 879.688 923.497 899 900.673 899 L 123.327 899 C 100.503 899 82 879.688 82 855.865 L 82 182.135 C 82 158.312 100.503 139 123.327 139 L 234.256 139"/><rect id="矩形备份-4" stroke="#ffffff" stroke-width="49.7778" x="245" y="49" width="110" height="180" rx="55" ry="54.9"/><rect id="矩形备份-5" stroke="#ffffff" stroke-width="49.7778" x="669" y="49" width="110" height="180" rx="55" ry="54.9"/><path id="路径-4" stroke="#ffffff" stroke-width="49.7778" d="M 300 571.448 L 474.754 751 L 765 456"/><line id="直线-5" stroke="#ffffff" stroke-width="49.7778" x1="102.5" y1="330.5" x2="921.5" y2="330.5"/></g></g></svg>
