<?xml version="1.0" encoding="UTF-8" standalone="yes"?><svg xmlns="http://www.w3.org/2000/svg" xmlns:xlink="http://www.w3.org/1999/xlink" version="1.2" baseProfile="tiny" x="0" y="0" width="256" height="256" viewBox="0 0 256 256"><defs><linearGradient id="wps{a8f06a8b-ccb1-4523-b73b-0501d26f2538}_solid@Accent4_0.00@Accent4_0.00" x1="0" y1="0.5" x2="1" y2="0.5" spreadMethod="pad" gradientUnits="userSpaceOnUse"><stop offset="0" stop-color="#973c2c" stop-opacity="1"/><stop offset="1" stop-color="#973c2c" stop-opacity="1"/></linearGradient></defs><defs/><defs/><defs/><defs/><g transform="matrix(0.254473,0,0,0.254473,-2.03579,2.03579)"><g id="灵感" fill="none" fill-rule="evenodd"><path id="形状结合" stroke="url(#wps{a8f06a8b-ccb1-4523-b73b-0501d26f2538}_solid@Accent4_0.00@Accent4_0.00)" stroke-width="49.7778" stroke-opacity="1" d="M 512 216 C 683.208 216 822 354.792 822 526 C 822 642.794 757.412 744.503 662.004 797.356 L 662 916 C 662 932.569 648.569 946 632 946 L 392 946 C 375.431 946 362 932.569 362 916 L 361.997 797.356 C 266.589 744.503 202 642.794 202 526 C 202 354.792 340.792 216 512 216 Z"/><path id="路径" stroke="url(#wps{a8f06a8b-ccb1-4523-b73b-0501d26f2538}_solid@Accent4_0.00@Accent4_0.00)" stroke-width="49.7778" stroke-opacity="1" d="M 512 315 C 397.677 315 305 407.677 305 522"/><line id="直线-2备份-3" stroke="url(#wps{a8f06a8b-ccb1-4523-b73b-0501d26f2538}_solid@Accent4_0.00@Accent4_0.00)" stroke-width="49.7778" stroke-opacity="1" x1="850.64" y1="184" x2="787" y2="247.64"/><line id="直线-2备份-4" stroke="url(#wps{a8f06a8b-ccb1-4523-b73b-0501d26f2538}_solid@Accent4_0.00@Accent4_0.00)" stroke-width="49.7778" stroke-opacity="1" transform="matrix(-1,0,0,1,409.64,0)" x1="236.64" y1="184" x2="173" y2="247.64"/><line id="直线备份" stroke="url(#wps{a8f06a8b-ccb1-4523-b73b-0501d26f2538}_solid@Accent4_0.00@Accent4_0.00)" stroke-width="49.7778" stroke-opacity="1" x1="362" y1="845.5" x2="662" y2="845.5"/><line id="直线-2" stroke="url(#wps{a8f06a8b-ccb1-4523-b73b-0501d26f2538}_solid@Accent4_0.00@Accent4_0.00)" stroke-width="49.7778" stroke-opacity="1" x1="33" y1="492" x2="123" y2="492"/><line id="直线-2备份" stroke="url(#wps{a8f06a8b-ccb1-4523-b73b-0501d26f2538}_solid@Accent4_0.00@Accent4_0.00)" stroke-width="49.7778" stroke-opacity="1" x1="899" y1="492" x2="989" y2="492"/><line id="直线-2备份-2" stroke="url(#wps{a8f06a8b-ccb1-4523-b73b-0501d26f2538}_solid@Accent4_0.00@Accent4_0.00)" stroke-width="49.7778" stroke-opacity="1" transform="matrix(0,1,-1,0,601,-423)" x1="467" y1="89" x2="557" y2="89"/></g></g></svg>
