<?xml version="1.0" encoding="UTF-8" standalone="yes"?><svg id="Capa_1" xmlns="http://www.w3.org/2000/svg" xmlns:xlink="http://www.w3.org/1999/xlink" version="1.2" baseProfile="tiny" x="0" y="0" width="512" height="512" viewBox="0 0 512 512"><defs><linearGradient id="wps{44591f23-8c67-4788-ab51-1d554642e027}_solid@Accent3_0.00@Accent3_0.00" x1="0" y1="0.5" x2="1" y2="0.5" spreadMethod="pad" gradientUnits="userSpaceOnUse"><stop offset="0" stop-color="#924437" stop-opacity="1"/><stop offset="1" stop-color="#924437" stop-opacity="1"/></linearGradient><linearGradient id="wps{74734e6a-a0e1-4175-a716-f6005004c808}_solid@Accent5_0.00@Accent5_0.00" x1="0" y1="0.5" x2="1" y2="0.5" spreadMethod="pad" gradientUnits="userSpaceOnUse"><stop offset="0" stop-color="#6c3632" stop-opacity="1"/><stop offset="1" stop-color="#6c3632" stop-opacity="1"/></linearGradient></defs><defs/><defs/><g><path fill="url(#wps{44591f23-8c67-4788-ab51-1d554642e027}_solid@Accent3_0.00@Accent3_0.00)" fill-opacity="1" stroke="url(#wps{74734e6a-a0e1-4175-a716-f6005004c808}_solid@Accent5_0.00@Accent5_0.00)" stroke-width="1" stroke-opacity="1" d="M 44.045 226 L 153.045 226 L 153.045 482 C 153.045 487.523 157.522 492 163.045 492 L 213.045 492 L 213.045 502 C 213.045 505.466 214.839 508.685 217.788 510.506 C 220.737 512.328 224.417 512.494 227.517 510.944 L 263.045 493.18 L 298.573 510.944 C 301.68 512.497 305.36 512.325 308.302 510.506 C 311.25 508.684 313.045 505.465 313.045 502 L 313.045 492 L 487.955 492 C 493.478 492 497.955 487.523 497.955 482 C 497.955 476.477 493.478 472 487.955 472 L 483.045 472 C 478.968 472 473.045 464.209 473.045 452 C 473.045 439.791 478.968 432 483.045 432 C 488.568 432 493.045 427.523 493.045 422 L 493.045 10 C 493.045 4.477 488.568 0 483.045 0 L 368.045 0 C 362.522 0 358.045 4.477 358.045 10 C 358.045 15.523 362.522 20 368.045 20 L 473.045 20 L 473.045 412 C 438.26 412 202.765 412 173.045 412 L 173.045 226 L 193.045 226 L 193.045 342 C 193.045 347.523 197.522 352 203.045 352 C 219.587 352 233.045 365.458 233.045 382 C 233.045 387.523 237.522 392 243.045 392 L 403.045 392 C 408.568 392 413.045 387.523 413.045 382 C 413.045 365.458 426.503 352 443.045 352 C 448.568 352 453.045 347.523 453.045 342 L 453.045 90 C 453.045 84.477 448.568 80 443.045 80 C 426.503 80 413.045 66.542 413.045 50 C 413.045 44.477 408.568 40 403.045 40 L 243.045 40 C 237.522 40 233.045 44.477 233.045 50 C 233.045 66.542 219.587 80 203.045 80 C 197.522 80 193.045 84.477 193.045 90 L 193.045 166 L 173.045 166 L 173.045 20 L 278.045 20 C 283.568 20 288.045 15.523 288.045 10 C 288.045 4.477 283.568 0 278.045 0 L 163.045 0 C 157.522 0 153.045 4.477 153.045 10 L 153.045 166 L 44.045 166 C 27.503 166 14.045 179.458 14.045 196 C 14.045 212.542 27.503 226 44.045 226 M 456.949 472 L 313.045 472 L 313.045 431.99 L 456.949 431.99 C 454.462 437.852 453.045 444.663 453.045 452 C 453.045 459.337 454.462 466.148 456.949 472 M 293.045 485.82 L 267.517 473.056 C 264.706 471.651 261.394 471.646 258.573 473.056 L 233.045 485.82 L 233.045 432 L 293.045 432 L 293.045 485.82 M 213.045 432 L 213.045 472 L 173.045 472 L 173.045 432 L 213.045 432 M 213.045 98.996 C 232.606 95.009 248.053 79.561 252.041 60 L 394.05 60 C 398.037 79.561 413.485 95.008 433.046 98.996 L 433.046 333.005 C 413.485 336.992 398.038 352.44 394.05 372.001 L 252.041 372.001 C 248.054 352.44 232.606 336.993 213.045 333.005 L 213.045 226 L 263.045 226 L 263.045 266 L 253.045 266 C 247.522 266 243.045 270.477 243.045 276 C 243.045 281.523 247.522 286 253.045 286 L 393.045 286 C 398.568 286 403.045 281.523 403.045 276 C 403.045 270.477 398.568 266 393.045 266 L 383.045 266 L 383.045 120 L 393.045 120 C 398.568 120 403.045 115.523 403.045 110 C 403.045 104.477 398.568 100 393.045 100 L 253.045 100 C 247.522 100 243.045 104.477 243.045 110 C 243.045 115.523 247.522 120 253.045 120 L 263.045 120 L 263.045 166 L 213.045 166 L 213.045 98.996 M 363.045 120 L 363.045 266 L 283.045 266 C 283.045 250.181 283.045 134.632 283.045 120 L 363.045 120 M 44.045 186 L 263.045 186 L 263.045 206 L 44.045 206 C 38.531 206 34.045 201.514 34.045 196 C 34.045 190.486 38.531 186 44.045 186"/><path fill="url(#wps{44591f23-8c67-4788-ab51-1d554642e027}_solid@Accent3_0.00@Accent3_0.00)" fill-opacity="1" stroke="url(#wps{74734e6a-a0e1-4175-a716-f6005004c808}_solid@Accent5_0.00@Accent5_0.00)" stroke-width="1" stroke-opacity="1" d="M 363.045 306 L 283.045 306 C 277.522 306 273.045 310.477 273.045 316 C 273.045 321.523 277.522 326 283.045 326 L 363.045 326 C 368.568 326 373.045 321.523 373.045 316 C 373.045 310.477 368.568 306 363.045 306 Z"/><circle fill="url(#wps{44591f23-8c67-4788-ab51-1d554642e027}_solid@Accent3_0.00@Accent3_0.00)" fill-opacity="1" stroke="url(#wps{74734e6a-a0e1-4175-a716-f6005004c808}_solid@Accent5_0.00@Accent5_0.00)" stroke-width="1" stroke-opacity="1" cx="323.045" cy="10" r="10"/></g></svg>
