<?xml version="1.0" encoding="UTF-8" standalone="yes"?><svg xmlns="http://www.w3.org/2000/svg" xmlns:xlink="http://www.w3.org/1999/xlink" version="1.2" baseProfile="tiny" x="0" y="0" width="31" height="30" viewBox="0 0 31 30"><defs/><defs/><defs/><g><path fill="#ffffff" fill-rule="evenodd" clip-rule="evenodd" d="M 8 5.6 L 8 2.8 L 7.7 1.6 L 7 0.9 L 6.2 0.2 L 5 0 L 3.7 0.2 L 3 0.9 L 2.2 1.6 L 2 2.8 L 2 5.6 L 1.2 6.3 L 0.5 7.3 L 0.2 8.2 L 0 9.4 L 0.2 10.6 L 0.4 11.5 L 1.1 12.4 L 2 13.1 L 2 27.2 L 2.2 28.4 L 3 29.1 L 3.7 29.8 L 5 30 L 6.2 29.8 L 7 29.1 L 7.7 28.4 L 8 27.2 L 8 13.1 L 8.7 12.4 L 9.4 11.5 L 9.6 10.6 L 10 9.4 L 9.7 8.2 L 9.5 7.3 L 8.7 6.3 L 8 5.6 M 4 2.8 L 4 2.3 L 4.2 2.1 L 4.4 1.9 L 5 1.9 L 5.5 1.9 L 5.7 2.1 L 6 2.3 L 6 2.8 L 6 4.7 L 5 4.7 L 4 4.7 L 4 2.8 M 6 27.2 L 6 27.7 L 5.8 27.9 L 5.6 28.1 L 5 28.1 L 4.5 28.1 L 4.3 27.9 L 4 27.7 L 4 27.2 L 4 14.1 L 5 14.1 L 6 14.1 L 6 27.2 M 7.7 10.1 L 7.7 10.3 L 7.5 11 L 6.8 11.7 L 6 12 L 5 12.2 L 4 12 L 3.3 11.8 L 2.5 11 L 2.3 10.3 L 2.3 10.1 L 2 9.4 L 2.2 8.7 L 2.2 8.4 L 2.4 7.7 L 3.2 7 L 4 6.8 L 5 6.6 L 6 6.8 L 6.7 7 L 7.4 7.7 L 7.6 8.4 L 7.6 8.6 L 8 9.4 L 7.7 10.1"/><path fill="#ffffff" fill-rule="evenodd" clip-rule="evenodd" d="M 29 5.6 L 29 2.8 L 28.8 1.6 L 28 0.9 L 27.3 0.2 L 26 0 L 24.8 0.2 L 24 0.9 L 23.3 1.6 L 23 2.8 L 23 5.6 L 22.3 6.3 L 21.6 7.2 L 21.4 8.1 L 21 9.4 L 21.2 10.6 L 21.4 11.5 L 22.1 12.4 L 22.8 13.1 L 22.8 27.2 L 23 28.4 L 23.7 29.1 L 24.4 29.8 L 26 30 L 27.2 29.8 L 27.9 29.1 L 28.6 28.4 L 28.8 27.2 L 28.8 13.1 L 29.5 12.4 L 30.2 11.5 L 30.4 10.6 L 31 9.4 L 30.8 8.2 L 30.6 7.3 L 29.9 6.4 L 29 5.6 M 25 2.8 L 25 2.3 L 25.2 2.1 L 25.4 1.9 L 26 1.9 L 26.5 1.9 L 26.7 2.1 L 27 2.3 L 27 2.8 L 27 4.7 L 26 4.7 L 25 4.7 L 25 2.8 M 27 27.2 L 27 27.7 L 26.8 27.9 L 26.6 28.1 L 26 28.1 L 25.5 28.1 L 25.3 27.9 L 25 27.7 L 25 27.2 L 25 14.1 L 26 14.1 L 27 14.1 L 27 27.2 M 28.7 10.1 L 28.7 10.3 L 28.5 11 L 27.8 11.7 L 27 12 L 26 12.2 L 25 12 L 24.3 11.8 L 23.5 11 L 23.3 10.3 L 23.3 10.1 L 23 9.4 L 23.2 8.7 L 23.2 8.4 L 23.4 7.7 L 24.2 7 L 25 6.8 L 26 6.6 L 27 6.8 L 27.7 7 L 28.4 7.7 L 28.6 8.4 L 28.6 8.6 L 29 9.4 L 28.7 10.1"/><path fill="#ffffff" fill-rule="evenodd" clip-rule="evenodd" d="M 18.2 16.9 L 18.2 2.8 L 18 1.6 L 17.3 0.9 L 16.6 0.2 L 15.5 0 L 14.4 0.2 L 13.7 0.9 L 13 1.6 L 12.8 2.8 L 12.8 16.9 L 12.1 17.6 L 11.4 18.5 L 11.2 19.4 L 11 20.6 L 11.2 21.8 L 11.4 22.7 L 12.1 23.6 L 12.8 24.3 L 12.8 27.1 L 13 28.3 L 13.7 29 L 14.4 29.7 L 15.5 29.9 L 16.6 29.7 L 17.3 29 L 18 28.3 L 18.2 27.1 L 18.2 24.3 L 18.9 23.6 L 19.6 22.7 L 19.8 21.8 L 20 20.6 L 19.8 19.4 L 19.6 18.5 L 18.9 17.6 L 18.2 16.9 M 14.6 2.8 L 14.6 2.3 L 14.8 2.1 L 15 1.9 L 15.4 1.9 L 15.8 1.9 L 16 2.1 L 16.2 2.3 L 16.2 2.8 L 16.2 15.9 L 15.3 15.9 L 14.4 15.9 L 14.4 2.8 L 14.6 2.8 M 16.4 27.2 L 16.4 27.7 L 16.2 27.9 L 16 28.1 L 15.6 28.1 L 15 28.1 L 14.8 27.9 L 14.6 27.7 L 14.6 27.2 L 14.6 25.3 L 15.5 25.3 L 16.4 25.3 L 16.4 27.2 M 18 21.3 L 18 21.5 L 17.8 22.2 L 17.1 23 L 16.4 23.2 L 15.5 23.4 L 14.6 23.2 L 13.9 23 L 13.2 22.3 L 13 21.6 L 13 21.4 L 12.8 20.7 L 13 20 L 13 19.8 L 13.2 19.1 L 13.9 18.4 L 14.6 18.2 L 15.5 18 L 16.4 18.2 L 17.1 18.4 L 17.8 19.1 L 18 19.8 L 18 20 L 18.2 20.7 L 18 21.3"/></g></svg>
