<?xml version="1.0" encoding="UTF-8" standalone="yes"?><svg id="图层_1" xmlns="http://www.w3.org/2000/svg" xmlns:xlink="http://www.w3.org/1999/xlink" version="1.2" baseProfile="tiny" x="0" y="0" width="256" height="256" viewBox="0 0 256 256"><defs><linearGradient id="wps{9afdee71-4ec2-4584-90a3-66c19935e2fa}_solid@Accent4_0.00@Accent4_0.00" x1="0" y1="0.5" x2="1" y2="0.5" spreadMethod="pad" gradientUnits="userSpaceOnUse"><stop offset="0" stop-color="#973c2c" stop-opacity="1"/><stop offset="1" stop-color="#973c2c" stop-opacity="1"/></linearGradient></defs><defs/><defs/><defs/><g transform="matrix(0.275269,0,0,0.275269,-12.9376,-12.9376)"><g id="Layer_1"><path fill="url(#wps{9afdee71-4ec2-4584-90a3-66c19935e2fa}_solid@Accent4_0.00@Accent4_0.00)" fill-opacity="1" d="M 382.227 79.337 C 367.887 79.3751 353.591 80.9108 339.57 83.919 C 339.14 83.919 338.97 84.349 338.54 84.349 C 319.91 88.544 302.135 94.798 286.033 104.006 C 138.612 186.838 47 343.68 47 512.643 C 47.0752 681.848 138.356 837.873 285.818 920.85 C 302.563 930.487 320.553 936.739 339.57 940.937 C 353.36 943.849 367.579 945.949 382.227 945.949 C 413.563 945.831 438.91 920.406 438.933 889.07 L 438.933 778.656 C 438.933 747.691 413.407 722.207 382.227 722.207 L 339.57 722.207 C 288.52 722.178 247.149 680.789 247.143 629.739 L 247.143 381.713 C 247.143 357.044 256.566 335.713 273.483 320.68 C 290.658 306.032 313.443 299.352 337.683 302.692 L 382.225 302.692 C 413.463 302.773 438.852 277.514 438.933 246.276 C 438.933 246.251 438.933 246.225 438.933 246.2 L 438.933 135.786 C 438.876 104.553 413.51 79.2796 382.276 79.3369 C 382.26 79.3369 382.243 79.337 382.227 79.337 M 410.666 778.656 L 410.666 889.07 C 410.735 904.708 398.113 917.44 382.476 917.509 C 382.393 917.509 382.31 917.509 382.227 917.509 C 372.622 917.528 363.034 916.697 353.575 915.025 L 353.575 750.218 L 382.227 750.218 C 397.899 750.299 410.584 762.984 410.666 778.656 M 255.109 299.356 C 231.681 319.828 218.919 349.124 218.919 381.717 L 218.919 629.739 C 218.919 691.239 265.559 742.251 325.35 749.361 L 325.35 907.915 C 316.57 904.532 307.79 901.192 299.823 896.615 C 161.184 818.4 75.012 671.154 75.012 512.643 C 75.012 353.702 161.184 206.498 299.823 128.243 C 308.003 123.661 316.57 120.319 325.35 116.979 L 325.35 273.825 C 299.01 273.825 274.339 282.605 255.109 299.352 L 255.109 299.356 M 410.666 246.2 C 410.599 261.879 397.906 274.572 382.227 274.639 L 353.575 274.639 L 353.575 109.874 C 362.997 108.588 372.42 107.346 382.227 107.346 C 397.899 107.429 410.584 120.114 410.666 135.786 L 410.666 246.2"/><path fill="url(#wps{9afdee71-4ec2-4584-90a3-66c19935e2fa}_solid@Accent4_0.00@Accent4_0.00)" fill-opacity="1" d="M 977 511.785 C 977 408.909 943.336 311.859 879.564 230.738 C 792.534 120.324 662.247 57.151 522.151 57.151 C 521.508 57.151 520.909 57.579 520.266 57.579 C 519.333 57.5265 518.399 57.6723 517.526 58.007 C 516.711 58.437 515.856 58.821 515.041 59.249 C 514.29 59.7381 513.587 60.2972 512.941 60.919 C 512.21 61.5188 511.574 62.227 511.057 63.019 C 510.629 63.447 510.242 63.447 510.027 64.261 C 510.027 64.261 509.814 64.689 509.599 65.117 C 509.219 65.9093 508.932 66.7428 508.744 67.601 C 508.419 68.5569 508.218 69.5502 508.144 70.557 L 508.144 511.785 L 508.144 711.713 C 507.854 712.221 507.706 712.798 507.715 713.383 C 507.759 713.839 507.906 714.278 508.144 714.669 L 508.144 952.629 L 508.144 953.487 C 508.261 954.473 508.462 955.447 508.744 956.399 C 508.932 957.271 509.219 958.119 509.599 958.927 C 509.727 959.179 509.801 959.456 509.814 959.739 C 510.395 960.803 511.1 961.795 511.914 962.694 L 512.129 962.694 C 513.336 963.801 514.657 964.777 516.069 965.607 C 516.496 965.607 516.926 965.607 517.139 966.035 C 518.769 966.514 520.453 966.788 522.151 966.849 C 662.251 966.849 792.534 903.29 879.564 793.304 C 943.336 712.141 977 615.133 977 511.785 M 830.824 753.558 C 823.714 750.646 816.604 748.119 809.494 745.593 C 803.194 743.536 796.944 741.438 790.477 739.339 C 783.154 736.813 775.617 734.756 767.864 732.657 C 761.397 730.987 755.101 728.889 748.634 727.219 C 747.177 726.789 745.934 726.361 744.649 725.933 C 773.595 663.153 789.395 595.116 791.077 526.005 L 948.133 526.005 C 945.433 613.849 916.781 696.681 864.058 766.92 C 859.258 764.866 854.036 762.766 849.026 760.668 C 842.944 758.141 836.9 755.656 830.824 753.558 M 767.265 291.385 C 774.974 289.285 782.939 287.185 790.649 284.705 C 796.731 282.605 802.599 280.505 808.638 278.405 C 816.176 275.923 823.714 273.395 831.038 270.483 C 836.905 268.383 842.517 265.857 848.169 263.373 C 853.609 261.273 859.049 259.603 864.059 257.073 C 916.781 327.362 945.435 410.151 948.133 498 L 790.864 498 C 788.712 428.926 772.858 360.967 744.222 298.072 C 745.722 297.644 747.177 297.258 748.634 296.83 C 754.886 295.155 760.969 293.485 767.265 291.385 M 705.119 717.153 C 696.767 715.483 688.419 714.241 680.019 712.999 C 673.552 711.713 667.084 710.471 660.361 709.229 C 651.581 707.987 642.415 707.129 633.42 705.889 C 627.339 705.033 621.044 704.604 615.004 703.789 C 604.768 702.547 594.489 702.117 584.252 701.689 C 579.027 701.262 574.017 700.447 568.79 700.447 C 557.913 700.019 547.035 699.592 536.155 699.592 L 536.155 526.005 L 762.855 526.005 C 761.138 593.082 745.396 659.056 716.64 719.681 C 712.657 718.823 708.887 718.009 705.119 717.153 M 536.156 498 L 536.156 324.406 C 547.036 324.406 557.914 324.406 568.791 323.592 C 573.803 323.592 578.813 322.736 584.04 322.736 C 594.275 321.922 604.769 321.066 615.005 320.252 C 621.045 319.396 626.912 318.582 632.993 318.152 C 642.203 316.91 651.367 316.052 660.575 314.382 C 666.875 313.568 672.91 312.282 679.207 311.47 C 687.987 309.8 696.552 308.515 705.119 306.845 C 708.887 306.03 712.442 305.175 716.212 304.36 C 744.75 365.069 760.62 430.955 762.852 498 L 536.156 498 M 697.2 279.693 C 689.234 280.935 681.095 282.605 672.915 283.847 C 666.877 284.705 660.795 285.947 654.543 286.803 C 645.976 288.045 637.152 289.287 628.587 290.143 C 622.763 290.957 616.895 291.815 611.028 292.243 C 601.219 293.486 591.583 293.913 581.728 294.298 C 576.716 294.728 571.705 295.156 566.694 295.583 C 556.672 295.97 546.394 295.97 536.157 296.398 L 536.157 96.9 C 606.122 142.462 663.515 204.875 703.063 278.407 C 701.178 278.407 699.293 279.265 697.2 279.693 M 536.156 727.647 C 546.393 727.647 556.671 728.031 566.693 728.461 C 571.705 728.889 576.715 729.317 581.727 729.703 C 591.578 730.131 601.214 730.987 611.027 731.803 C 616.894 732.231 622.762 733.045 628.586 733.903 C 637.366 734.76 645.975 736.003 654.542 736.817 C 660.794 738.1 666.876 738.917 672.914 740.157 C 681.094 741.442 689.233 743.112 697.199 744.357 C 699.299 744.784 701.353 745.599 703.451 746.027 C 663.412 819.227 605.953 881.434 536.156 927.147 L 536.156 727.647 M 845.684 234.08 C 841.916 235.75 838.574 236.992 834.806 238.705 C 829.154 241.19 823.499 243.288 817.631 245.387 C 810.736 248.3 803.841 250.398 796.944 252.925 C 790.864 254.98 785.044 256.65 778.957 258.75 C 771.847 260.85 764.524 262.95 757.199 265.05 C 751.16 266.72 745.079 268.39 738.782 270.062 C 736.407 270.823 733.971 271.382 731.502 271.732 C 693.8 199.301 639.82 136.597 573.8 88.544 C 679.207 101.094 775.617 152.531 845.684 234.08 M 573.375 935.5 C 639.443 887.274 693.652 824.627 731.887 752.316 C 734.199 752.703 736.512 753.558 738.787 753.986 C 744.965 755.223 751.047 756.898 756.987 758.998 C 764.527 761.098 771.85 763.198 779.174 765.25 C 785.042 766.92 790.867 769.02 796.519 771.118 C 803.844 773.646 810.954 776.13 817.849 778.656 C 823.502 780.756 828.942 782.856 834.382 785.338 C 838.149 786.58 841.919 788.293 845.682 789.963 C 775.617 871.51 678.992 922.949 573.375 935.5"/></g></g></svg>
