<?xml version="1.0" encoding="UTF-8" standalone="yes"?><svg id="Layer_1" xmlns="http://www.w3.org/2000/svg" xmlns:xlink="http://www.w3.org/1999/xlink" version="1.2" baseProfile="tiny" x="0" y="0" width="512" height="512" viewBox="0 0 512 512"><defs><linearGradient id="wps{ad21817e-60ef-42f8-951f-038110e8b864}_solid@Accent6_0.00@Accent6_0.00" x1="0" y1="0.5" x2="1" y2="0.5" spreadMethod="pad" gradientUnits="userSpaceOnUse"><stop offset="0" stop-color="#481914" stop-opacity="1"/><stop offset="1" stop-color="#481914" stop-opacity="1"/></linearGradient></defs><defs/><defs/><path fill="url(#wps{ad21817e-60ef-42f8-951f-038110e8b864}_solid@Accent6_0.00@Accent6_0.00)" fill-opacity="1" d="M 474 79.588 L 324.77 79.588 C 314.755 34.4 265.863 0 207.238 0 C 148.613 0 99.723 34.4 89.708 79.588 L 38 79.588 C 16.691 79.588 0 91.763 0 107.306 L 0 393.87 C 0 409.413 16.691 421.588 38 421.588 L 178.541 421.588 C 170.247 454.765 156.141 477.321 131.274 497.828 C 127.865 500.639 127.381 505.681 130.192 509.09 C 131.712 510.933 133.975 512 136.364 512 L 375.636 512 C 380.054 512 383.636 508.418 383.635 503.999 C 383.635 501.916 382.822 499.915 381.37 498.422 C 358.383 474.792 338.293 454.122 332.57 421.588 L 474 421.588 C 495.309 421.588 512 409.413 512 393.87 L 512 107.306 C 512 91.763 495.309 79.588 474 79.588 M 474 95.588 C 486.592 95.588 496 101.774 496 107.306 L 496 347.983 L 487 347.983 L 487 113.231 C 487 109.59 484.541 106.408 481.018 105.49 C 478.722 104.914 476.367 104.612 474 104.59 L 326.251 104.59 C 326.51 101.996 326.651 99.375 326.651 96.728 C 326.651 96.348 326.639 95.969 326.634 95.59 L 474 95.588 M 117.338 160.447 L 117.338 216.571 C 117.338 220.989 120.92 224.571 125.338 224.571 C 126.742 224.571 128.122 224.201 129.338 223.499 L 184.438 191.689 C 185.315 191.826 186.2 191.928 187.082 192.049 C 185.938 197.456 185.36 202.968 185.356 208.495 C 185.356 261.83 238.922 305.221 304.765 305.221 C 312.399 305.222 320.022 304.632 327.565 303.458 L 382.665 335.268 C 386.491 337.477 391.384 336.166 393.593 332.34 C 394.295 331.124 394.665 329.744 394.665 328.34 L 394.665 272.216 C 413.724 254.591 424.173 232.094 424.173 208.495 C 424.173 169.683 396.141 135.948 354.841 120.588 L 471 120.588 L 471 347.988 L 41 347.988 L 41 120.588 L 91.482 120.588 C 96.06 135.259 104.851 148.9 117.338 160.447 M 251.7 202.086 C 255.24 202.086 258.109 204.955 258.109 208.495 C 258.109 212.035 255.24 214.904 251.7 214.904 C 248.16 214.904 245.291 212.035 245.291 208.495 C 245.295 204.957 248.162 202.09 251.7 202.086 M 251.7 230.904 C 264.076 230.903 274.108 220.868 274.106 208.492 C 274.105 196.56 264.754 186.722 252.837 186.115 C 284.101 175.615 308.703 154.648 319.957 128.642 C 370.517 134.442 408.167 168.242 408.167 208.495 C 408.167 228.495 398.667 247.695 381.432 262.581 C 379.671 264.101 378.659 266.311 378.659 268.637 L 378.659 314.483 L 333.078 288.167 C 331.446 287.223 329.534 286.887 327.678 287.218 C 320.11 288.552 312.44 289.222 304.756 289.218 C 247.735 289.218 201.347 253.005 201.347 208.492 C 201.352 203.397 201.966 198.32 203.177 193.371 C 204.529 193.408 205.877 193.449 207.232 193.449 C 217.968 193.459 228.672 192.281 239.149 189.935 C 228.896 196.857 226.196 210.781 233.118 221.034 C 237.286 227.208 244.251 230.906 251.7 230.9 L 251.7 230.904 M 207.238 16 C 264.259 16 310.647 52.213 310.647 96.726 C 310.647 141.239 264.259 177.452 207.238 177.452 C 199.553 177.455 191.883 176.786 184.315 175.452 C 182.459 175.123 180.547 175.459 178.915 176.401 L 133.334 202.717 L 133.334 156.868 C 133.334 154.542 132.322 152.332 130.561 150.812 C 113.321 135.93 103.826 116.722 103.826 96.726 C 103.83 52.213 150.219 16 207.238 16 M 38 95.588 L 87.848 95.588 C 87.842 95.967 87.83 96.346 87.83 96.726 C 87.83 99.363 87.968 101.984 88.23 104.588 L 38 104.588 C 35.6333 104.61 33.2776 104.912 30.982 105.488 C 27.4581 106.407 24.9992 109.589 25 113.231 L 25 347.983 L 16 347.983 L 16 107.306 C 16 101.774 25.408 95.588 38 95.588 M 356.88 496 L 156.74 496 C 175.881 475.878 187.8 452.517 195 421.588 L 316.351 421.588 C 321.163 453.529 337.616 475.321 356.88 496 M 474 405.588 L 38 405.588 C 25.408 405.588 16 399.401 16 393.87 L 16 363.983 L 496 363.983 L 496 393.87 C 496 399.4 486.592 405.588 474 405.588 M 154.18 119.134 C 166.556 119.134 176.589 109.101 176.589 96.725 C 176.589 84.3489 166.556 74.316 154.18 74.316 C 141.804 74.316 131.771 84.3489 131.771 96.725 C 131.771 96.7253 131.771 96.7257 131.771 96.726 C 131.785 109.096 141.81 119.12 154.18 119.134 M 154.18 90.317 C 157.72 90.317 160.589 93.1864 160.589 96.726 C 160.589 100.266 157.72 103.135 154.18 103.135 C 150.64 103.135 147.771 100.266 147.771 96.726 C 147.775 93.188 150.642 90.3209 154.18 90.317 M 207.238 119.134 C 219.614 119.135 229.647 109.102 229.648 96.726 C 229.649 84.3499 219.616 74.3166 207.24 74.316 C 194.864 74.3155 184.831 84.3479 184.83 96.724 C 184.83 96.7247 184.83 96.7253 184.83 96.726 C 184.844 109.096 194.868 119.12 207.238 119.134 M 207.238 90.317 C 210.778 90.3165 213.647 93.1854 213.648 96.725 C 213.649 100.265 210.78 103.134 207.24 103.135 C 203.7 103.136 200.831 100.267 200.83 96.727 C 200.83 96.7267 200.83 96.7263 200.83 96.726 C 200.834 93.1884 203.7 90.3214 207.238 90.317 M 260.3 119.134 C 272.676 119.135 282.709 109.102 282.71 96.726 C 282.711 84.3499 272.678 74.3166 260.302 74.316 C 247.926 74.3155 237.893 84.3479 237.892 96.724 C 237.892 96.7247 237.892 96.7253 237.892 96.726 C 237.906 109.096 247.93 119.12 260.3 119.134 M 260.3 90.317 C 263.84 90.3165 266.709 93.1854 266.71 96.725 C 266.711 100.265 263.842 103.134 260.302 103.135 C 256.762 103.136 253.893 100.267 253.892 96.727 C 253.892 96.7267 253.892 96.7263 253.892 96.726 C 253.896 93.1884 256.762 90.3214 260.3 90.317 M 357.82 230.9 C 370.196 230.901 380.229 220.868 380.23 208.492 C 380.231 196.116 370.198 186.083 357.822 186.082 C 345.446 186.081 335.413 196.114 335.412 208.49 C 335.412 208.493 335.412 208.497 335.412 208.5 C 335.431 220.866 345.454 230.885 357.82 230.9 M 357.82 202.082 C 361.36 202.081 364.229 204.95 364.23 208.49 C 364.231 212.03 361.362 214.899 357.822 214.9 C 354.282 214.901 351.413 212.032 351.412 208.492 C 351.412 208.492 351.412 208.491 351.412 208.491 C 351.418 204.955 354.284 202.09 357.82 202.086 L 357.82 202.082 M 304.762 230.9 C 317.138 230.901 327.171 220.868 327.172 208.492 C 327.173 196.116 317.14 186.083 304.764 186.082 C 292.388 186.081 282.355 196.114 282.354 208.49 C 282.354 208.493 282.354 208.497 282.354 208.5 C 282.373 220.866 292.396 230.885 304.762 230.9 M 304.762 202.082 C 308.302 202.081 311.171 204.95 311.172 208.49 C 311.173 212.03 308.304 214.899 304.764 214.9 C 301.224 214.901 298.355 212.032 298.354 208.492 C 298.354 208.492 298.354 208.491 298.354 208.491 C 298.36 204.955 301.226 202.09 304.762 202.086 L 304.762 202.082"/></svg>
