<?xml version="1.0" encoding="UTF-8" standalone="yes"?><svg id="Capa_1" xmlns="http://www.w3.org/2000/svg" xmlns:xlink="http://www.w3.org/1999/xlink" version="1.2" baseProfile="tiny" x="0" y="0" width="512" height="512" viewBox="0 0 512 512"><defs><linearGradient id="wps{eb7fc022-0170-461c-823a-2a128a1da903}_solid@Accent3_0.00@Accent3_0.00" x1="0" y1="0.5" x2="1" y2="0.5" spreadMethod="pad" gradientUnits="userSpaceOnUse"><stop offset="0" stop-color="#924437" stop-opacity="1"/><stop offset="1" stop-color="#924437" stop-opacity="1"/></linearGradient><linearGradient id="wps{df689a78-5684-48cc-8c09-63c2f097f1cb}_solid@Accent5_0.00@Accent5_0.00" x1="0" y1="0.5" x2="1" y2="0.5" spreadMethod="pad" gradientUnits="userSpaceOnUse"><stop offset="0" stop-color="#6c3632" stop-opacity="1"/><stop offset="1" stop-color="#6c3632" stop-opacity="1"/></linearGradient></defs><defs/><defs/><g><path fill="url(#wps{eb7fc022-0170-461c-823a-2a128a1da903}_solid@Accent3_0.00@Accent3_0.00)" fill-opacity="1" stroke="url(#wps{df689a78-5684-48cc-8c09-63c2f097f1cb}_solid@Accent5_0.00@Accent5_0.00)" stroke-width="1" stroke-opacity="1" d="M 256 512 C 263.015 512 270.049 511.684 276.907 511.059 C 282.407 510.558 286.46 505.693 285.959 500.193 C 285.458 494.693 280.588 490.641 275.093 491.141 C 268.836 491.711 262.412 492 256 492 C 140.206 492 46 397.794 46 282 C 46 216.32 77.506 154.003 129.47 114.527 L 129.021 116.202 C 127.591 121.536 130.757 127.02 136.092 128.449 C 141.438 129.883 146.914 126.698 148.339 121.378 L 155.659 94.058 C 157.088 88.724 153.923 83.24 148.588 81.811 L 121.268 74.491 C 115.931 73.059 110.45 76.227 109.02 81.562 C 107.59 86.897 110.756 92.38 116.091 93.81 L 121.799 95.34 C 61.42 138.894 26 208.114 26 282 C 26 408.822 129.178 512 256 512 Z"/><path fill="url(#wps{eb7fc022-0170-461c-823a-2a128a1da903}_solid@Accent3_0.00@Accent3_0.00)" fill-opacity="1" stroke="url(#wps{df689a78-5684-48cc-8c09-63c2f097f1cb}_solid@Accent5_0.00@Accent5_0.00)" stroke-width="1" stroke-opacity="1" d="M 86 282 C 86 376.465 162.779 452 256 452 C 296.974 452 334.746 437.465 364.233 413.099 C 368.49 409.581 369.089 403.278 365.572 399.02 C 362.053 394.763 355.751 394.165 351.493 397.681 C 343.331 404.426 334.514 410.237 325.188 415.091 C 322.059 401.87 310.164 392 296 392 C 290.486 392 286 387.514 286 382 C 286 376.486 290.486 372 296 372 L 336 372 C 352.542 372 366 358.542 366 342 L 366 302 C 366 296.486 370.486 292 376 291.99 L 405.666 291.99 C 404.844 304.501 402.485 316.789 398.61 328.645 C 396.895 333.895 399.759 339.541 405.009 341.257 C 410.246 342.969 415.901 340.12 417.621 334.858 C 423.181 317.844 426 300.061 426 282 C 426 245.093 413.861 208.979 391.718 179.631 L 402.771 152 L 420.805 152 C 449.982 188.928 466 234.905 466 282 C 466 355.359 426.708 423.954 364.464 461.743 L 365.498 457.895 C 366.931 452.561 363.769 447.076 358.435 445.643 C 353.106 444.211 347.616 447.372 346.183 452.706 L 338.843 480.026 C 337.41 485.359 340.572 490.845 345.905 492.278 L 373.215 499.618 C 378.524 501.046 384.029 497.912 385.468 492.556 C 386.902 487.222 383.74 481.737 378.406 480.303 L 374.282 479.195 C 442.271 438.304 486 364.284 486 282 C 486 235.56 471.779 190.116 445.627 152 L 456 152 C 472.542 152 486 138.542 486 122 C 486 105.458 472.542 92 456 92 L 395.109 92 L 365.445 6.715 C 364.046 2.694 360.256 -5.32907e-14 356 -5.32907e-14 L 336 -5.32907e-14 C 330.477 -5.32907e-14 326 4.477 326 10 L 326 92 L 282.18 92 L 264.944 57.528 C 263.25 54.14 259.788 52 256 52 L 236 52 C 230.477 52 226 56.477 226 62 L 226 102 C 226 106.192 226.532 110.344 227.556 114.366 C 146.115 128.012 86 198.868 86 282 M 276 152 L 326 152 L 326 202 C 326 207.514 321.514 212 316 212 C 299.458 212 286 225.458 286 242 L 286 282 C 286 287.514 281.514 292 276 292 C 270.486 292 266 287.514 266 282 L 266 262 C 266 245.458 252.542 232 236 232 L 216 232 C 210.486 232 206 227.514 206 222 C 206 216.486 210.486 212 216 212 C 232.542 212 246 198.542 246 182 C 246 165.458 232.542 152 216 152 L 181.065 152 C 198.177 142.091 217.056 135.713 236.914 133.204 C 246.351 145.078 260.54 152 276 152 M 109.016 252 L 116 252 C 121.514 252 126 256.486 126 262 C 126 278.542 139.458 292 156 292 L 196 292 C 201.514 292 206 296.486 206 302 C 206 307.514 201.514 312 196 312 C 179.458 312 166 325.458 166 342 C 166 347.514 161.514 352 156 352 C 145.687 352 136.573 357.232 131.172 365.181 C 114.833 340.677 106 311.783 106 282 C 106 271.882 107.024 261.825 109.016 252 M 405.66 272 L 376 272 C 359.458 272 346 285.458 346 302 L 346 342 C 346 347.514 341.514 352 336 352 L 296 352 C 279.458 352 266 365.458 266 382 C 266 398.542 279.458 412 296 412 C 301.514 412 306 416.486 306 422 L 306 423.463 C 289.99 429.127 273.203 432 256 432 C 214.232 432 174.357 414.54 146 383.973 L 146 382 C 146 376.486 150.486 372 156 372 C 172.542 372 186 358.542 186 342 C 186 336.486 190.486 332 196 332 C 212.542 332 226 318.542 226 302 C 226 285.458 212.542 272 196 272 L 156 272 C 150.486 272 146 267.514 146 262 C 146 245.458 132.542 232 116 232 L 114.558 232 C 122.613 209.15 136.085 188.651 154.055 172 L 216 172 C 221.514 172 226 176.486 226 182 C 226 187.514 221.514 192 216 192 C 199.458 192 186 205.458 186 222 C 186 238.542 199.458 252 216 252 L 236 252 C 241.514 252 246 256.486 246 262 L 246 282 C 246 298.542 259.458 312 276 312 C 292.542 312 306 298.542 306 282 L 306 242 C 306 236.486 310.486 232 316 232 C 319.506 232 322.87 231.39 326 230.28 L 326 242 C 326 247.523 330.477 252 336 252 L 356 252 C 360.089 252 363.766 249.511 365.285 245.714 L 382.813 201.894 C 396.082 222.926 403.985 247.094 405.66 272 M 346 20 L 348.891 20 L 373.935 92 L 346 92 L 346 20 M 246 72 L 249.82 72 L 267.056 106.472 C 268.75 109.86 272.212 112 276 112 L 456 112 C 461.514 112 466 116.486 466 122 C 466 127.514 461.514 132 456 132 C 433.821 132 417.158 132 396 132 C 391.911 132 388.234 134.489 386.715 138.286 C 378.165 159.661 357.752 210.693 349.229 232 L 346 232 L 346 142 C 346 136.477 341.523 132 336 132 L 276 132 C 259.028 132 246 118.236 246 102 L 246 72"/><circle fill="url(#wps{eb7fc022-0170-461c-823a-2a128a1da903}_solid@Accent3_0.00@Accent3_0.00)" fill-opacity="1" stroke="url(#wps{df689a78-5684-48cc-8c09-63c2f097f1cb}_solid@Accent5_0.00@Accent5_0.00)" stroke-width="1" stroke-opacity="1" cx="388" cy="372" r="10"/></g></svg>
