<?xml version="1.0" encoding="UTF-8" standalone="yes"?><svg id="svg2" font-size="128" xmlns="http://www.w3.org/2000/svg" xmlns:xlink="http://www.w3.org/1999/xlink" version="1.2" baseProfile="tiny" x="0" y="0" width="128" height="128" viewBox="0 0 256 256"><defs><linearGradient id="wps{1ba399af-e283-4dcb-a0c4-0561d501f199}_solid@Accent6_0.50@Accent6_0.50" x1="0" y1="0.5" x2="1" y2="0.5" spreadMethod="pad" gradientUnits="userSpaceOnUse"><stop offset="0" stop-color="#d2675b" stop-opacity="1"/><stop offset="1" stop-color="#d2675b" stop-opacity="1"/></linearGradient><linearGradient id="wps{1c9c5fec-1844-477e-b936-11c3b97cfb0b}_solid@Accent6_0.50@Accent6_0.50" x1="0" y1="0.5" x2="1" y2="0.5" spreadMethod="pad" gradientUnits="userSpaceOnUse"><stop offset="0" stop-color="#d2675b" stop-opacity="1"/><stop offset="1" stop-color="#d2675b" stop-opacity="1"/></linearGradient></defs><defs/><defs/><defs id="defs6"/><g transform="matrix(0.724528,0,0,0.724528,-16.6532,-17.2834)"><g id="g10" transform="matrix(1.33333,0,0,-1.33333,0,400)"><g id="g12" transform="matrix(0.1,0,0,0.1,0,0)"><path id="path14" fill="url(#wps{1c9c5fec-1844-477e-b936-11c3b97cfb0b}_solid@Accent6_0.50@Accent6_0.50)" fill-opacity="1" stroke="url(#wps{1ba399af-e283-4dcb-a0c4-0561d501f199}_solid@Accent6_0.50@Accent6_0.50)" stroke-width="1" stroke-opacity="1" d="M 1578.8 828.539 L 1415.27 828.539 L 1415.27 665.012 L 1578.8 665.012 L 1578.8 828.539 M 953.207 828.539 L 790.387 828.539 L 790.387 665.012 L 953.207 665.012 L 953.207 828.539 M 732.211 945.66 L 1012.09 945.66 C 1043.95 945.66 1070.26 919.281 1070.26 886.07 L 1070.26 884.648 L 1070.26 607.539 C 1070.26 574.27 1043.95 547.949 1012.09 547.949 L 1010.67 547.949 L 732.211 547.949 C 700.289 547.949 673.258 574.27 673.258 607.539 L 673.258 608.25 L 673.258 886.07 C 673.258 919.281 700.289 945.66 732.211 945.66 M 2203.75 1454.2 L 2040.22 1454.2 L 2040.22 1289.96 L 2203.75 1289.96 L 2203.75 1454.2 M 1982.05 1571.96 L 2263.34 1571.96 C 2295.2 1571.96 2320.81 1544.94 2320.81 1511.66 L 2320.81 1510.31 L 2320.81 1231.07 C 2320.81 1199.22 2295.2 1173.54 2263.34 1173.54 L 2261.92 1173.54 L 1982.05 1173.54 C 1949.49 1173.54 1923.8 1199.22 1923.8 1231.07 L 1923.8 1232.5 L 1923.8 1511.66 C 1923.8 1544.94 1949.49 1571.96 1982.05 1571.96 M 1578.8 1454.2 L 1415.27 1454.2 L 1415.27 1289.96 L 1578.8 1289.96 L 1578.8 1454.2 M 1357.1 1571.96 L 1636.97 1571.96 C 1669.53 1571.96 1696.56 1544.94 1696.56 1511.66 L 1696.56 1510.31 L 1696.56 1231.07 C 1696.56 1199.22 1669.53 1173.54 1636.97 1173.54 L 1635.63 1173.54 L 1357.1 1173.54 C 1325.24 1173.54 1298.93 1199.22 1298.93 1231.07 L 1298.93 1232.5 L 1298.93 1511.66 C 1298.93 1544.94 1325.24 1571.96 1357.1 1571.96 M 953.207 1454.2 L 790.387 1454.2 L 790.387 1289.96 L 953.207 1289.96 L 953.207 1454.2 M 732.211 1571.96 L 1012.09 1571.96 C 1043.95 1571.96 1070.26 1544.94 1070.26 1511.66 L 1070.26 1510.31 L 1070.26 1231.07 C 1070.26 1199.22 1043.95 1173.54 1012.09 1173.54 L 1010.67 1173.54 L 732.211 1173.54 C 700.289 1173.54 673.258 1199.22 673.258 1231.07 L 673.258 1232.5 L 673.258 1511.66 C 673.258 1544.94 700.289 1571.96 732.211 1571.96 M 2274.41 2313.27 C 2274.41 2345.12 2300.02 2372.15 2332.59 2372.15 C 2364.44 2372.15 2390.76 2345.12 2390.76 2313.27 C 2390.76 2241.89 2361.68 2176.77 2314.56 2128.95 C 2267.46 2081.85 2202.33 2054.18 2131.67 2054.18 C 2059.66 2054.18 1994.53 2081.85 1947.36 2128.95 C 1900.24 2176.77 1870.45 2241.89 1870.45 2313.27 C 1870.45 2345.12 1897.48 2372.15 1929.4 2372.15 C 1962.61 2372.15 1988.29 2345.12 1988.29 2313.27 C 1988.29 2273.75 2004.18 2238.42 2030.5 2212.1 C 2055.48 2187.2 2091.51 2171.23 2131.67 2171.23 C 2170.48 2171.23 2206.51 2187.2 2231.42 2212.1 C 2257.73 2238.42 2274.41 2273.75 2274.41 2313.27 M 1005.14 2313.27 C 1005.14 2345.12 1031.46 2372.15 1064.73 2372.15 C 1096.59 2372.15 1122.91 2345.12 1122.91 2313.27 C 1122.91 2241.89 1093.82 2176.77 1046.71 2128.95 C 999.605 2081.85 935.184 2054.18 863.813 2054.18 C 791.734 2054.18 726.605 2081.85 679.504 2128.95 C 632.395 2176.77 603.305 2241.89 603.305 2313.27 C 603.305 2345.12 629.629 2372.15 662.898 2372.15 C 694.758 2372.15 720.434 2345.12 720.434 2313.27 C 720.434 2273.75 736.332 2238.42 762.645 2212.1 C 788.328 2187.2 823.66 2171.23 863.813 2171.23 C 902.621 2171.23 937.953 2187.2 963.563 2212.1 C 989.242 2238.42 1005.14 2273.75 1005.14 2313.27 M 738.383 2710.91 L 765.422 2710.91 L 765.422 2724.11 C 765.422 2777.46 809.758 2821.09 863.813 2821.09 C 916.453 2821.09 960.797 2777.46 960.797 2724.11 L 960.797 2710.91 L 2033.27 2710.91 L 2033.27 2724.11 C 2033.27 2777.46 2077.61 2821.09 2131.67 2821.09 C 2185.02 2821.09 2228.65 2777.46 2228.65 2724.11 L 2228.65 2710.91 L 2254.97 2710.91 C 2396.37 2710.91 2525.2 2653.45 2616.65 2561.29 C 2709.51 2469.84 2766.98 2341.01 2766.98 2199.61 C 2766.98 1694.56 2766.98 1189.5 2766.98 682.391 C 2766.98 542.41 2709.51 414.219 2616.65 320.711 C 2525.2 229.27 2396.37 171.09 2254.97 171.09 L 738.383 171.09 C 597.773 171.09 469.578 229.27 377.488 320.711 C 284.625 414.219 227.793 542.41 227.793 682.391 C 227.793 1189.5 227.793 1694.56 227.793 2199.61 C 227.793 2341.01 284.625 2469.84 377.488 2561.29 C 469.578 2653.45 597.773 2710.91 738.383 2710.91 M 2570.97 1711.23 L 422.465 1711.23 L 422.465 682.391 C 422.465 595.762 458.508 517.441 516.047 459.98 C 572.797 402.441 651.832 366.469 738.383 366.469 L 2254.97 366.469 C 2342.3 366.469 2421.27 402.441 2479.44 459.98 C 2535.56 517.441 2570.97 595.762 2570.97 682.391 L 2570.97 1711.23 M 422.465 1906.54 L 2570.97 1906.54 L 2570.97 2199.61 C 2570.97 2286.95 2535.56 2365.91 2479.44 2423.44 C 2421.27 2479.56 2342.3 2515.53 2254.97 2515.53 L 2228.65 2515.53 L 2228.65 2313.27 C 2228.65 2259.92 2185.02 2214.87 2131.67 2214.87 C 2077.61 2214.87 2033.27 2259.92 2033.27 2313.27 L 2033.27 2515.53 L 960.797 2515.53 L 960.797 2313.27 C 960.797 2259.92 916.453 2214.87 863.813 2214.87 C 809.758 2214.87 765.422 2259.92 765.422 2313.27 L 765.422 2515.53 L 738.383 2515.53 C 651.832 2515.53 572.797 2479.56 516.047 2423.44 C 458.508 2365.91 422.465 2286.95 422.465 2199.61 L 422.465 1906.54 M 1357.1 945.66 L 1636.97 945.66 C 1669.53 945.66 1696.56 919.281 1696.56 886.07 L 1696.56 884.648 L 1696.56 607.539 C 1696.56 574.27 1669.53 547.949 1636.97 547.949 L 1635.63 547.949 L 1357.1 547.949 C 1325.24 547.949 1298.93 574.27 1298.93 607.539 L 1298.93 608.25 L 1298.93 886.07 C 1298.93 919.281 1325.24 945.66 1357.1 945.66"/></g></g></g></svg>
