<?xml version="1.0" encoding="UTF-8" standalone="yes"?><svg xmlns="http://www.w3.org/2000/svg" xmlns:xlink="http://www.w3.org/1999/xlink" version="1.2" baseProfile="tiny" x="0" y="0" width="21" height="31" viewBox="0 0 21 31"><defs/><defs/><defs/><g><path fill="#ffffff" fill-rule="evenodd" clip-rule="evenodd" d="M 10.5 0 L 8.3 0.2 L 6.4 0.7 L 4.5 1.9 L 3.1 3.1 L 1.9 4.6 L 0.7 6.5 L 0.2 8.5 L 0 10.7 L 0.2 12.2 L 0.4 13.7 L 1.8 16.8 L 3.5 19.7 L 4.7 22.4 L 6 25.9 L 7 28.8 L 7.5 29.8 L 8.2 30.5 L 9.2 30.7 L 10.6 30.9 L 12 30.7 L 13 30.5 L 13.7 29.8 L 14.2 28.8 L 15.2 25.9 L 16.4 22.3 L 17.6 19.6 L 19.3 16.7 L 20.7 13.6 L 20.9 12.1 L 21.1 10.6 L 20.9 8.4 L 20.4 6.5 L 19.2 4.6 L 18 3.1 L 16.6 1.9 L 14.7 0.7 L 12.8 0.2 L 10.5 0 M 12.9 26.4 L 8.4 26.9 L 7.7 25.2 L 7.7 25 L 13.7 24.3 L 13.5 25.3 L 12.9 26.4 M 7.4 24.2 L 6.7 22.3 L 14.3 22.3 L 13.8 23.3 L 7.4 24.2 M 10.5 29.1 L 9.8 29.1 L 9.3 28.9 L 9.1 28.7 L 8.6 28 L 12.7 27.5 L 12.2 28.5 L 11.7 29 L 11.2 29.2 L 10.5 29.2 L 10.5 29.1 M 15 20.3 L 6 20.3 L 4.6 17.2 L 2.7 13.8 L 2.2 12.1 L 2 10.6 L 2.1 9 L 2.6 7.3 L 3.3 5.8 L 4.5 4.6 L 5.7 3.4 L 7.1 2.7 L 8.8 2.2 L 10.5 2 L 12.2 2.2 L 13.9 2.7 L 15.3 3.4 L 16.5 4.6 L 17.7 5.8 L 18.4 7.3 L 18.8 9 L 19 10.7 L 18.8 12.2 L 18.3 13.9 L 16.4 17.3 L 15 20.3"/><path fill="#ffffff" fill-rule="evenodd" clip-rule="evenodd" d="M 10.5 5 L 9.4 5 L 8.5 5.5 L 7.5 5.9 L 6.6 6.6 L 5.9 7.5 L 5.5 8.5 L 5 9.4 L 5 10.5 L 5.2 10.8 L 5.5 11 L 5.7 10.8 L 5.9 10.5 L 5.9 9.6 L 6.4 8.7 L 6.6 8 L 7.3 7.3 L 8 6.6 L 8.7 6.4 L 9.6 5.9 L 10.5 5.9 L 10.8 5.7 L 11 5.5 L 10.8 5.2 L 10.5 5 Z"/><path fill="#ffffff" fill-rule="evenodd" clip-rule="evenodd" d="M 10.5 5 L 9.4 5 L 8.5 5.5 L 7.5 5.9 L 6.6 6.6 L 5.9 7.5 L 5.5 8.5 L 5 9.4 L 5 10.5 L 5.2 10.8 L 5.5 11 L 5.7 10.8 L 5.9 10.5 L 5.9 9.6 L 6.4 8.7 L 6.6 8 L 7.3 7.3 L 8 6.6 L 8.7 6.4 L 9.6 5.9 L 10.5 5.9 L 10.8 5.7 L 11 5.5 L 10.8 5.2 L 10.5 5 Z"/></g></svg>
