<?xml version="1.0" encoding="UTF-8" standalone="yes"?><svg xmlns="http://www.w3.org/2000/svg" xmlns:xlink="http://www.w3.org/1999/xlink" version="1.2" baseProfile="tiny" x="0" y="0" width="256" height="256" viewBox="0 0 256 256"><defs><linearGradient id="wps{14a6e3a8-623c-442f-ae1c-ae1e56899f82}_solid@Accent4_0.00@Accent4_0.00" x1="0" y1="0.5" x2="1" y2="0.5" spreadMethod="pad" gradientUnits="userSpaceOnUse"><stop offset="0" stop-color="#973c2c" stop-opacity="1"/><stop offset="1" stop-color="#973c2c" stop-opacity="1"/></linearGradient></defs><defs/><defs/><defs/><defs/><g transform="matrix(0.261158,0,0,0.261158,-6.00663,-3.49286)"><g id="团队" fill="none" fill-rule="evenodd"><path id="形状结合备份" stroke="url(#wps{14a6e3a8-623c-442f-ae1c-ae1e56899f82}_solid@Accent4_0.00@Accent4_0.00)" stroke-width="49.7778" stroke-opacity="1" d="M 430.251 183.621 C 405.402 168.021 376.005 159 344.5 159 C 255.306 159 183 231.306 183 320.5 C 183 409.694 255.306 482 344.5 482 C 359.821 482 374.644 479.867 388.688 475.88 M 399.123 486.919 C 381.238 483.687 362.816 482 344 482 C 173.896 482 48 619.896 48 790 C 61.8268 790 111.539 790 190.976 790"/><path id="形状结合备份-2" stroke="url(#wps{14a6e3a8-623c-442f-ae1c-ae1e56899f82}_solid@Accent4_0.00@Accent4_0.00)" stroke-width="49.7778" stroke-opacity="1" transform="matrix(-1,0,0,1,1574.25,0)" d="M 978.251 183.621 C 953.402 168.021 924.005 159 892.5 159 C 803.306 159 731 231.306 731 320.5 C 731 409.694 803.306 482 892.5 482 C 907.821 482 922.644 479.867 936.688 475.88 M 947.123 486.919 C 929.238 483.687 910.816 482 892 482 C 721.896 482 596 619.896 596 790 C 609.827 790 659.539 790 738.976 790"/><path id="形状结合" stroke="url(#wps{14a6e3a8-623c-442f-ae1c-ae1e56899f82}_solid@Accent4_0.00@Accent4_0.00)" stroke-width="49.7778" stroke-opacity="1" d="M 512 520 C 693.149 520 840 666.851 840 848 L 184 848 C 184 666.851 330.851 520 512 520 M 512 176 C 606.993 176 684 253.007 684 348 C 684 442.993 606.993 520 512 520 C 417.007 520 340 442.993 340 348 C 340 253.007 417.007 176 512 176"/></g></g></svg>
