<?xml version="1.0" encoding="UTF-8" standalone="yes"?><svg id="Capa_1" xmlns="http://www.w3.org/2000/svg" xmlns:xlink="http://www.w3.org/1999/xlink" version="1.2" baseProfile="tiny" x="0" y="0" width="512" height="512" viewBox="0 0 512 512"><defs><linearGradient id="wps{55f70a97-1969-4757-b4d1-e752945fd31d}_solid@Accent5_0.00@Accent5_0.00" x1="0" y1="0.5" x2="1" y2="0.5" spreadMethod="pad" gradientUnits="userSpaceOnUse"><stop offset="0" stop-color="#6c3632" stop-opacity="1"/><stop offset="1" stop-color="#6c3632" stop-opacity="1"/></linearGradient><linearGradient id="wps{a2b08b8f-b736-42a9-b690-9553ce5d3e09}_solid@Accent3_0.00@Accent3_0.00" x1="0" y1="0.5" x2="1" y2="0.5" spreadMethod="pad" gradientUnits="userSpaceOnUse"><stop offset="0" stop-color="#924437" stop-opacity="1"/><stop offset="1" stop-color="#924437" stop-opacity="1"/></linearGradient></defs><defs/><defs/><g><path fill="url(#wps{a2b08b8f-b736-42a9-b690-9553ce5d3e09}_solid@Accent3_0.00@Accent3_0.00)" fill-opacity="1" stroke="url(#wps{55f70a97-1969-4757-b4d1-e752945fd31d}_solid@Accent5_0.00@Accent5_0.00)" stroke-width="1" stroke-opacity="1" d="M 100 61 C 100 38.944 82.056 21 60 21 C 37.944 21 20 38.944 20 61 C 20 83.056 37.944 101 60 101 C 82.056 101 100 83.056 100 61 M 60 81 C 48.972 81 40 72.028 40 61 C 40 49.972 48.972 41 60 41 C 71.028 41 80 49.972 80 61 C 80 72.028 71.028 81 60 81"/><path fill="url(#wps{a2b08b8f-b736-42a9-b690-9553ce5d3e09}_solid@Accent3_0.00@Accent3_0.00)" fill-opacity="1" stroke="url(#wps{55f70a97-1969-4757-b4d1-e752945fd31d}_solid@Accent5_0.00@Accent5_0.00)" stroke-width="1" stroke-opacity="1" d="M 492 61 C 492 38.944 474.056 21 452 21 C 429.944 21 412 38.944 412 61 C 412 83.056 429.944 101 452 101 C 474.056 101 492 83.056 492 61 M 452 81 C 440.972 81 432 72.028 432 61 C 432 49.972 440.972 41 452 41 C 463.028 41 472 49.972 472 61 C 472 72.028 463.028 81 452 81"/><path fill="url(#wps{a2b08b8f-b736-42a9-b690-9553ce5d3e09}_solid@Accent3_0.00@Accent3_0.00)" fill-opacity="1" stroke="url(#wps{55f70a97-1969-4757-b4d1-e752945fd31d}_solid@Accent5_0.00@Accent5_0.00)" stroke-width="1" stroke-opacity="1" d="M 512 151 C 512 123.43 489.57 101 462 101 L 442 101 C 426.268 101 411.671 108.486 402.354 120.558 C 363.26 82.562 310.668 61 256 61 C 201.347 61 148.732 82.569 109.643 120.568 C 100.323 108.493 85.716 101 70 101 L 50 101 C 22.43 101 -2.84217e-14 123.43 -2.84217e-14 151 C -2.84217e-14 156.523 4.477 161 10 160.99 L 77.165 160.99 C 56.726 194.03 46 231.686 46 271 C 46 298.586 51.439 325.79 61.874 351.056 C 61.251 351.026 60.627 351 60 351 C 37.944 351 20 368.944 20 391 C 20 413.056 37.944 431 60 431 C 76.219 431 90.203 421.292 96.475 407.386 C 136.901 454.563 195.033 481 256 481 C 316.79 481 374.986 454.703 415.527 407.391 C 421.8 421.294 435.784 431 452 431 C 474.056 431 492 413.056 492 391 C 492 368.944 474.056 351 452 351 C 451.373 351 450.749 351.026 450.125 351.056 C 460.561 325.79 466 298.586 466 271 C 466 231.685 455.274 194.03 434.835 161 L 502 161 C 507.522 161 512 156.523 512 151 M 50 121 L 70 121 C 82.445 121 93.735 128.823 98.095 140.467 C 98.096 140.469 98.097 140.471 98.098 140.474 C 98.163 140.649 98.227 140.825 98.29 141 L 21.713 141 C 25.841 129.359 36.962 121 50 121 M 60 411 C 48.972 411 40 402.028 40 391 C 40 379.972 48.972 371 60 371 C 71.384 371 80 380.296 80 391 C 80 402.028 71.028 411 60 411 M 472 391 C 472 402.028 463.028 411 452 411 C 440.972 411 432 402.028 432 391 C 432 380.277 440.628 371 452 371 C 463.028 371 472 379.972 472 391 M 446 271 C 446 373.945 362.801 461 256 461 C 149.129 461 66 373.862 66 271 C 66 231.2 78.148 193.278 101.169 161 L 110 161 C 115.523 161 120 156.523 120 151 C 120 147.197 119.572 143.443 118.729 139.779 C 154.531 102.361 204.265 81 256 81 C 307.751 81 357.46 102.357 393.269 139.775 C 392.429 143.435 392 147.19 392 151 C 392 156.523 396.478 161 402 161 L 410.831 161 C 433.853 193.278 446 231.2 446 271 M 413.703 141 C 413.751 140.865 413.8 140.731 413.849 140.597 C 418.183 128.875 429.495 121 442 121 L 462 121 C 475.037 121 486.159 129.359 490.286 141 L 413.703 141"/><path fill="url(#wps{a2b08b8f-b736-42a9-b690-9553ce5d3e09}_solid@Accent3_0.00@Accent3_0.00)" fill-opacity="1" stroke="url(#wps{55f70a97-1969-4757-b4d1-e752945fd31d}_solid@Accent5_0.00@Accent5_0.00)" stroke-width="1" stroke-opacity="1" d="M 392 481 C 392 486.523 396.478 491 402 491 L 502 491 C 507.522 491 512 486.523 512 481 C 512 453.43 489.57 431 462 431 L 442 431 C 414.43 431 392 453.43 392 481 M 462 451 C 475.037 451 486.159 459.359 490.286 471 L 413.714 471 C 417.841 459.359 428.963 451 442 451 L 462 451"/><path fill="url(#wps{a2b08b8f-b736-42a9-b690-9553ce5d3e09}_solid@Accent3_0.00@Accent3_0.00)" fill-opacity="1" stroke="url(#wps{55f70a97-1969-4757-b4d1-e752945fd31d}_solid@Accent5_0.00@Accent5_0.00)" stroke-width="1" stroke-opacity="1" d="M 0 481 C 0 486.523 4.477 491 10 491 L 110 491 C 115.523 491 120 486.523 120 481 C 120 453.43 97.57 431 70 431 L 50 431 C 22.43 431 0 453.43 0 481 M 70 451 C 83.038 451 94.159 459.359 98.287 471 L 21.713 471 C 25.84 459.359 36.962 451 50 451 L 70 451"/><circle fill="url(#wps{a2b08b8f-b736-42a9-b690-9553ce5d3e09}_solid@Accent3_0.00@Accent3_0.00)" fill-opacity="1" stroke="url(#wps{55f70a97-1969-4757-b4d1-e752945fd31d}_solid@Accent5_0.00@Accent5_0.00)" stroke-width="1" stroke-opacity="1" cx="388" cy="361" r="10"/><path fill="url(#wps{a2b08b8f-b736-42a9-b690-9553ce5d3e09}_solid@Accent3_0.00@Accent3_0.00)" fill-opacity="1" stroke="url(#wps{55f70a97-1969-4757-b4d1-e752945fd31d}_solid@Accent5_0.00@Accent5_0.00)" stroke-width="1" stroke-opacity="1" d="M 256 101 C 178.586 101 110.962 153.356 91.513 227.974 C 91.485 228.062 91.464 228.152 91.439 228.241 C 91.413 228.331 91.38 228.416 91.356 228.506 C 87.802 242.312 86 256.608 86 271 C 86 365.465 162.779 441 256 441 C 297.061 441 334.811 426.41 364.233 402.1 C 368.49 398.582 369.089 392.279 365.572 388.021 C 362.054 383.763 355.751 383.164 351.493 386.682 C 343.33 393.427 334.514 399.238 325.188 404.092 C 322.059 390.87 310.164 381 296 381 C 290.486 381 286 376.514 286 371 C 286 365.486 290.486 361 296 361 L 336 361 C 352.542 361 366 347.542 366 331 L 366 291 C 366 285.486 370.486 281 376 281 L 405.666 280.99 C 404.844 293.491 402.485 305.788 398.611 317.645 C 396.895 322.895 399.76 328.541 405.009 330.256 C 410.269 331.973 415.908 329.099 417.62 323.857 C 423.181 306.842 426 289.059 426 271 C 426 178.157 350.999 101 256 101 M 357.998 161 L 356 161 C 339.458 161 326 174.458 326 191 C 326 196.514 321.514 201 316 201 C 299.458 201 286 214.458 286 231 L 286 271 C 286 276.514 281.514 281 276 281 C 270.486 281 266 276.514 266 271 L 266 251 C 266 234.458 252.542 221 236 221 L 216 221 C 210.486 221 206 216.514 206 211 C 206 205.486 210.486 201 216 201 C 232.542 201 246 187.542 246 171 C 246 154.458 232.542 141 216 141 L 181.16 141 C 203.766 127.98 229.532 121 256 121 C 294.299 121 330.432 135.366 357.998 161 M 109.016 241 L 116 241 C 121.514 241 126 245.486 126 251 C 126 267.542 139.458 281 156 281 L 196 281 C 201.514 281 206 285.486 206 291 C 206 296.514 201.514 301 196 301 C 179.458 301 166 314.458 166 331 C 166 336.514 161.514 341 156 341 C 145.687 341 136.573 346.232 131.172 354.181 C 114.833 329.678 106 300.783 106 271 C 106 260.882 107.024 250.825 109.016 241 M 346 291 L 346 331 C 346 336.514 341.514 341 336 341 L 296 341 C 279.458 341 266 354.458 266 371 C 266 387.542 279.458 401 296 401 C 301.514 401 306 405.486 306 411 L 306 412.463 C 289.99 418.127 273.203 421 256 421 C 214.232 421 174.357 403.54 146 372.973 L 146 371 C 146 365.486 150.486 361 156 361 C 172.542 361 186 347.542 186 331 C 186 325.486 190.486 321 196 321 C 212.542 321 226 307.542 226 291 C 226 274.458 212.542 261 196 261 L 156 261 C 150.486 261 146 256.514 146 251 C 146 234.458 132.542 221 116 221 L 114.557 221 C 122.611 198.145 136.083 177.646 154.054 161 L 216 161 C 221.514 161 226 165.486 226 171 C 226 176.514 221.514 181 216 181 C 199.458 181 186 194.458 186 211 C 186 227.542 199.458 241 216 241 L 236 241 C 241.514 241 246 245.486 246 251 L 246 271 C 246 287.542 259.458 301 276 301 C 292.542 301 306 287.542 306 271 L 306 231 C 306 225.486 310.486 221 316 221 C 332.542 221 346 207.542 346 191 C 346 185.486 350.486 181 356 181 L 376.006 181 C 393.639 204.435 403.789 231.833 405.674 261 L 376 261 C 359.458 261 346 274.458 346 291"/></g></svg>
