<?xml version="1.0" encoding="UTF-8" standalone="yes"?><svg id="Capa_1" xmlns="http://www.w3.org/2000/svg" xmlns:xlink="http://www.w3.org/1999/xlink" version="1.2" baseProfile="tiny" x="0" y="0" width="512" height="512" viewBox="0 0 512.001 512.001"><defs><linearGradient id="wps{0cbf95f4-11f7-4025-8c13-2696b1a178a6}_solid@Accent3_0.00@Accent3_0.00" x1="0" y1="0.5" x2="1" y2="0.5" spreadMethod="pad" gradientUnits="userSpaceOnUse"><stop offset="0" stop-color="#924437" stop-opacity="1"/><stop offset="1" stop-color="#924437" stop-opacity="1"/></linearGradient><linearGradient id="wps{a5528677-32e1-4ce0-9b1b-a645476f2de8}_solid@Accent5_0.00@Accent5_0.00" x1="0" y1="0.5" x2="1" y2="0.5" spreadMethod="pad" gradientUnits="userSpaceOnUse"><stop offset="0" stop-color="#6c3632" stop-opacity="1"/><stop offset="1" stop-color="#6c3632" stop-opacity="1"/></linearGradient></defs><defs/><defs/><g><path fill="url(#wps{0cbf95f4-11f7-4025-8c13-2696b1a178a6}_solid@Accent3_0.00@Accent3_0.00)" fill-opacity="1" stroke="url(#wps{a5528677-32e1-4ce0-9b1b-a645476f2de8}_solid@Accent5_0.00@Accent5_0.00)" stroke-width="1" stroke-opacity="1" d="M 36.001 466.001 L 266.001 466.001 L 266.001 502.001 C 266.001 504.997 267.344 507.835 269.661 509.734 C 272.04 511.685 275.11 512.379 277.962 511.806 L 477.962 471.806 C 482.636 470.871 486.001 466.767 486.001 462 L 486.001 301 C 486.001 295.478 481.524 291 476.001 291 C 470.478 291 466.001 295.478 466.001 301 L 466.001 453.802 L 286.001 489.802 L 286.001 22.2 L 466.001 58.2 L 466.001 211.002 C 466.001 216.524 470.478 221.002 476.001 221.002 C 481.524 221.002 486.001 216.524 486.001 211.002 L 486.001 50.002 C 486.001 45.235 482.636 41.131 477.962 40.196 L 277.962 0.196 C 275.021 -0.395 271.978 0.368 269.661 2.268 C 267.344 4.167 266.001 7.005 266.001 10.001 L 266.001 46.001 L 196.001 46.001 C 190.478 46.001 186.001 50.479 186.001 56.001 L 186.001 246.001 L 36.001 246.001 C 30.478 246.001 26.001 250.479 26.001 256.001 L 26.001 456.001 C 26.001 461.524 30.478 466.001 36.001 466.001 M 206.001 66.001 L 266.001 66.001 L 266.001 446.001 L 246.001 446.001 L 246.001 256.001 C 246.001 250.479 241.524 246.001 236.001 246.001 L 206.001 246.001 L 206.001 66.001 M 116.001 266.001 L 156.001 266.001 L 156.001 306.001 L 116.001 306.001 L 116.001 266.001 M 46.001 266.001 L 96.001 266.001 L 96.001 316.001 C 96.001 321.523 100.478 326.001 106.001 326.001 L 166.001 326.001 C 171.524 326.001 176.001 321.523 176.001 316.001 L 176.001 266.001 L 226.001 266.001 L 226.001 446.001 L 46.001 446.001 L 46.001 266.001"/><path fill="url(#wps{0cbf95f4-11f7-4025-8c13-2696b1a178a6}_solid@Accent3_0.00@Accent3_0.00)" fill-opacity="1" stroke="url(#wps{a5528677-32e1-4ce0-9b1b-a645476f2de8}_solid@Accent5_0.00@Accent5_0.00)" stroke-width="1" stroke-opacity="1" d="M 196.001 406.001 L 136.001 406.001 C 130.478 406.001 126.001 410.479 126.001 416.001 C 126.001 421.523 130.478 426.001 136.001 426.001 L 196.001 426.001 C 201.524 426.001 206.001 421.523 206.001 416.001 C 206.001 410.479 201.524 406.001 196.001 406.001 Z"/><path fill="url(#wps{0cbf95f4-11f7-4025-8c13-2696b1a178a6}_solid@Accent3_0.00@Accent3_0.00)" fill-opacity="1" stroke="url(#wps{a5528677-32e1-4ce0-9b1b-a645476f2de8}_solid@Accent5_0.00@Accent5_0.00)" stroke-width="1" stroke-opacity="1" d="M 136.001 386.001 L 176.001 386.001 C 181.524 386.001 186.001 381.523 186.001 376.001 C 186.001 370.479 181.524 366.001 176.001 366.001 L 136.001 366.001 C 130.478 366.001 126.001 370.479 126.001 376.001 C 126.001 381.523 130.478 386.001 136.001 386.001 Z"/><path fill="url(#wps{0cbf95f4-11f7-4025-8c13-2696b1a178a6}_solid@Accent3_0.00@Accent3_0.00)" fill-opacity="1" stroke="url(#wps{a5528677-32e1-4ce0-9b1b-a645476f2de8}_solid@Accent5_0.00@Accent5_0.00)" stroke-width="1" stroke-opacity="1" d="M 437.962 227.017 C 442.636 226.082 446.001 221.978 446.001 217.211 L 446.001 82.791 C 446.001 78.024 442.636 73.92 437.962 72.985 L 317.962 48.985 C 315.024 48.394 311.978 49.157 309.661 51.057 C 307.344 52.956 306.001 55.794 306.001 58.79 L 306.001 241.21 C 306.001 244.206 307.344 247.044 309.661 248.943 C 312.034 250.889 315.104 251.59 317.962 251.015 C 330.921 248.425 425.235 229.562 437.962 227.017 M 386.001 217.013 L 386.001 160.001 L 426.001 160.001 L 426.001 209.013 L 386.001 217.013 M 426.001 140.001 L 386.001 140.001 L 386.001 82.99 L 426.001 90.99 L 426.001 140.001 M 366.001 78.99 L 366.001 140.002 L 326.001 140.002 L 326.001 70.99 L 366.001 78.99 M 326.001 160.001 L 366.001 160.001 L 366.001 221.013 L 326.001 229.013 L 326.001 160.001"/><path fill="url(#wps{0cbf95f4-11f7-4025-8c13-2696b1a178a6}_solid@Accent3_0.00@Accent3_0.00)" fill-opacity="1" stroke="url(#wps{a5528677-32e1-4ce0-9b1b-a645476f2de8}_solid@Accent5_0.00@Accent5_0.00)" stroke-width="1" stroke-opacity="1" d="M 306.001 316.001 C 306.001 332.543 319.459 346.001 336.001 346.001 C 352.543 346.001 366.001 332.543 366.001 316.001 C 366.001 299.459 352.543 286.001 336.001 286.001 C 319.459 286.001 306.001 299.459 306.001 316.001 M 346.001 316.001 C 346.001 321.515 341.515 326.001 336.001 326.001 C 330.487 326.001 326.001 321.515 326.001 316.001 C 326.001 310.487 330.487 306.001 336.001 306.001 C 341.515 306.001 346.001 310.488 346.001 316.001"/><path fill="url(#wps{0cbf95f4-11f7-4025-8c13-2696b1a178a6}_solid@Accent3_0.00@Accent3_0.00)" fill-opacity="1" stroke="url(#wps{a5528677-32e1-4ce0-9b1b-a645476f2de8}_solid@Accent5_0.00@Accent5_0.00)" stroke-width="1" stroke-opacity="1" d="M 56.001 206.001 L 111.859 206.001 L 108.93 208.93 C 105.025 212.835 105.025 219.167 108.93 223.073 C 112.836 226.978 119.167 226.978 123.073 223.073 L 143.073 203.073 C 146.978 199.168 146.978 192.836 143.073 188.93 L 123.073 168.93 C 119.168 165.026 112.836 165.026 108.93 168.93 C 105.025 172.835 105.025 179.167 108.93 183.073 L 111.859 186.002 L 56.001 186.002 C 50.478 186.002 46.001 190.48 46.001 196.002 C 46.001 201.524 50.478 206.001 56.001 206.001 Z"/><circle fill="url(#wps{0cbf95f4-11f7-4025-8c13-2696b1a178a6}_solid@Accent3_0.00@Accent3_0.00)" fill-opacity="1" stroke="url(#wps{a5528677-32e1-4ce0-9b1b-a645476f2de8}_solid@Accent5_0.00@Accent5_0.00)" stroke-width="1" stroke-opacity="1" cx="476.001" cy="256.001" r="10"/></g></svg>
