<?xml version="1.0" encoding="UTF-8" standalone="yes"?><svg id="svg2" font-size="128" xmlns="http://www.w3.org/2000/svg" xmlns:xlink="http://www.w3.org/1999/xlink" version="1.2" baseProfile="tiny" x="0" y="0" width="128" height="128" viewBox="0 0 256 256"><defs><linearGradient id="wps{3658faac-a94c-4f19-8a65-38b05af02cbe}_solid@Accent4_0.00@Accent4_0.00" x1="0" y1="0.5" x2="1" y2="0.5" spreadMethod="pad" gradientUnits="userSpaceOnUse"><stop offset="0" stop-color="#973c2c" stop-opacity="1"/><stop offset="1" stop-color="#973c2c" stop-opacity="1"/></linearGradient></defs><defs/><defs/><defs id="defs6"/><g transform="matrix(0.724271,0,0,0.724271,-16.9881,-17.1628)"><g id="g10" transform="matrix(1.33333,0,0,-1.33333,0,400)"><g id="g12" transform="matrix(0.1,0,0,0.1,0,0)"><path id="path14" fill="url(#wps{3658faac-a94c-4f19-8a65-38b05af02cbe}_solid@Accent4_0.00@Accent4_0.00)" fill-opacity="1" d="M 2511.59 2420.02 L 2275.24 2181.41 L 2407.4 2146.16 L 2645.25 2383.26 L 2511.59 2420.02 M 2388.31 2639.45 L 2150.46 2402.35 L 2187.14 2269.52 L 2424.99 2507.37 L 2388.31 2639.45 M 1566.81 1710.07 C 1541.09 1719.62 1511.03 1724.74 1480.88 1724.74 C 1411.87 1724.74 1350.23 1696.84 1304.75 1651.36 C 1260.69 1607.31 1232.06 1544.16 1232.06 1475.16 C 1232.06 1406.14 1260.69 1345.25 1304.75 1300.45 C 1350.23 1255.64 1411.87 1227 1480.88 1227 C 1549.89 1227 1611.61 1255.64 1656.34 1298.95 L 1656.34 1300.45 C 1701.14 1345.25 1729.03 1406.14 1729.03 1475.16 C 1729.03 1506.73 1723.92 1536.12 1714.37 1561.83 L 1554.33 1402.46 C 1513.2 1362.84 1448.63 1362.84 1407.51 1402.46 C 1367.82 1442.83 1367.82 1508.91 1407.51 1548.6 L 1566.81 1710.07 M 1480.88 1848.09 C 1545.53 1848.09 1607.18 1831.93 1661.52 1802.61 L 1887.57 2029.41 C 1773.09 2112.4 1632.88 2160.82 1480.88 2160.82 C 1291.52 2160.82 1119.75 2085.19 996.383 1961.15 L 996.383 1961.9 L 996.383 1961.15 C 871.598 1837.11 795.219 1665.27 795.219 1475.16 C 795.219 1287.22 871.598 1115.44 996.383 991.41 C 1119.75 866.539 1291.52 789.488 1480.88 789.488 C 1668.82 789.488 1839.16 865.871 1962.52 987.719 L 1965.45 991.41 C 2090.24 1114.69 2166.54 1287.22 2166.54 1475.16 C 2166.54 1628.58 2118.13 1769.54 2034.46 1881.85 L 1806.84 1657.22 C 1836.23 1601.45 1853.82 1541.98 1853.82 1475.16 C 1853.82 1373.9 1811.27 1279.92 1744.44 1212.34 L 1743.69 1212.34 C 1676.18 1146.27 1582.97 1102.97 1480.88 1102.97 C 1378.12 1102.97 1284.9 1146.27 1218.07 1212.34 C 1150.57 1279.92 1107.94 1372.39 1107.94 1475.16 C 1107.94 1578.67 1150.57 1671.88 1218.07 1737.96 L 1218.07 1739.46 C 1284.9 1806.97 1378.12 1848.09 1480.88 1848.09 M 2530.68 1793.74 C 2513.85 1851.03 2545.34 1907.55 2599.7 1923.72 C 2654.05 1940.63 2711.26 1909.06 2728.17 1854.71 C 2746.51 1793.74 2761.25 1732.09 2770.04 1667.52 C 2778.84 1605.81 2783.95 1540.48 2783.95 1475.16 C 2783.95 1116.19 2638.64 789.488 2402.97 554.57 C 2166.54 319.648 1840.59 171.332 1480.88 171.332 C 1121.17 171.332 795.219 319.648 558.871 554.57 C 323.949 789.488 176.387 1116.19 176.387 1475.16 C 176.387 1835.61 323.949 2162.32 558.871 2398.67 C 795.219 2633.59 1121.17 2778.98 1480.88 2778.98 C 1544.78 2778.98 1610.11 2775.29 1671.75 2764.31 C 1736.4 2756.2 1799.54 2741.53 1859.69 2723.87 C 1914.03 2708.46 1944.85 2649.75 1928.69 2594.72 C 1912.53 2540.37 1853.82 2509.55 1799.54 2525.71 C 1748.12 2541.88 1695.27 2552.85 1642.43 2560.97 C 1591.02 2569.01 1536.66 2573.45 1480.88 2573.45 C 1177.71 2573.45 903.922 2450.08 705.684 2250.43 C 506.699 2052.94 384.094 1779.08 384.094 1475.16 C 384.094 1173.4 506.699 899.621 705.684 699.961 C 903.922 502.469 1177.71 379.121 1480.88 379.121 C 1783.38 379.121 2057.92 502.469 2256.15 699.961 C 2454.38 899.621 2577.68 1173.4 2577.68 1475.16 C 2577.68 1530.93 2573.31 1586.79 2565.95 1636.7 C 2558.57 1690.98 2546.85 1742.4 2530.68 1793.74 M 2038.08 2464.75 L 2376.5 2804.68 C 2401.46 2828.14 2441.15 2828.14 2463.86 2804.68 C 2473.41 2795.14 2477.84 2786.34 2480.77 2776.79 L 2480.77 2776.04 L 2480.77 2774.54 L 2543.92 2539.63 L 2778.84 2476.48 L 2780.26 2475.8 L 2781.02 2475.8 C 2790.57 2472.86 2800.86 2469.18 2808.23 2459.63 C 2832.44 2436.11 2832.44 2397.23 2808.23 2372.28 L 2470.47 2033.85 C 2454.38 2018.44 2432.36 2011.82 2409.58 2017.69 L 2219.46 2068.35 L 2122.49 1969.95 C 2228.26 1834.86 2290.65 1662.34 2290.65 1475.16 C 2290.65 1253.47 2200.37 1050.12 2053.49 903.301 L 2050.55 901.039 C 1903.06 754.238 1702.65 664.699 1480.88 664.699 C 1257.76 664.699 1054.34 755.738 908.281 903.301 C 761.465 1050.12 670.43 1253.47 670.43 1475.16 C 670.43 1699.1 761.465 1900.94 908.281 2048.51 C 1054.34 2195.32 1257.76 2285.61 1480.88 2285.61 C 1667.39 2285.61 1839.16 2223.21 1975.67 2117.52 L 2073.33 2213.66 L 2021.98 2405.28 C 2015.37 2426.56 2022.67 2450.08 2038.08 2464.75"/></g></g></g></svg>
