<?xml version="1.0" encoding="UTF-8" standalone="yes"?><svg id="Capa_1" xmlns="http://www.w3.org/2000/svg" xmlns:xlink="http://www.w3.org/1999/xlink" version="1.2" baseProfile="tiny" x="0" y="0" width="512" height="512" viewBox="0 0 512 512"><defs><linearGradient id="wps{662a3c9d-64f2-41f2-99be-d877d14a04f0}_solid@Accent5_0.00@Accent5_0.00" x1="0" y1="0.5" x2="1" y2="0.5" spreadMethod="pad" gradientUnits="userSpaceOnUse"><stop offset="0" stop-color="#6c3632" stop-opacity="1"/><stop offset="1" stop-color="#6c3632" stop-opacity="1"/></linearGradient><linearGradient id="wps{85edaec4-83cc-4b0a-ba53-95bbd02c8cf7}_solid@Accent3_0.00@Accent3_0.00" x1="0" y1="0.5" x2="1" y2="0.5" spreadMethod="pad" gradientUnits="userSpaceOnUse"><stop offset="0" stop-color="#924437" stop-opacity="1"/><stop offset="1" stop-color="#924437" stop-opacity="1"/></linearGradient></defs><defs/><defs/><g><path fill="url(#wps{85edaec4-83cc-4b0a-ba53-95bbd02c8cf7}_solid@Accent3_0.00@Accent3_0.00)" fill-opacity="1" stroke="url(#wps{662a3c9d-64f2-41f2-99be-d877d14a04f0}_solid@Accent5_0.00@Accent5_0.00)" stroke-width="1" stroke-opacity="1" d="M 502 16 L 10 16 C 4.478 16 0 20.478 0 26 L 0 366 C 0 371.522 4.478 376 10 376 L 106 376 L 106 396 L 96 396 C 90.478 396 86 400.478 86 406 L 86 436 L 76 436 C 70.478 436 66 440.478 66 446 L 66 486 C 66 491.522 70.478 496 76 496 L 211 496 C 216.522 496 221 491.522 221 486 C 221 480.478 216.522 476 211 476 L 86 476 L 86 456 L 136 456 C 141.522 456 146 451.522 146 446 C 146 440.478 141.522 436 136 436 L 106 436 L 106 416 L 406 416 L 406 436 L 376 436 C 370.478 436 366 440.478 366 446 C 366 451.522 370.478 456 376 456 L 426 456 L 426 476 L 301 476 C 295.478 476 291 480.478 291 486 C 291 491.522 295.478 496 301 496 L 436 496 C 441.522 496 446 491.522 446 486 L 446 446 C 446 440.478 441.522 436 436 436 L 426 436 L 426 406 C 426 400.478 421.522 396 416 396 L 406 396 L 406 376 L 502 376 C 507.522 376 512 371.522 512 366 L 512 26 C 512 20.478 507.522 16 502 16 M 492 76 L 146 76 L 146 36 L 492 36 L 492 76 M 126 36 L 126 76 L 20 76 L 20 36 L 126 36 M 156 236 C 161.522 236 166 231.522 166 226 C 166 220.478 161.522 216 156 216 L 114.591 216 L 256 137.439 L 397.409 216 L 356 216 C 350.478 216 346 220.478 346 226 C 346 231.522 350.478 236 356 236 L 426 236 L 426 256 L 86 256 L 86 236 L 156 236 M 346 296 L 346 276 L 406 276 L 406 296 L 346 296 M 176 316 C 181.522 316 186 311.522 186 306 L 186 276 L 206 276 L 206 306 C 206 311.522 210.478 316 216 316 L 226 316 L 226 356 L 166 356 L 166 316 L 176 316 M 286 276 L 286 296 L 226 296 L 226 276 L 286 276 M 166 376 L 226 376 L 226 396 L 166 396 L 166 376 M 246 316 L 266 316 L 266 396 L 246 396 L 246 316 M 286 376 L 346 376 L 346 396 L 286 396 L 286 376 M 346 356 L 286 356 L 286 316 L 296 316 C 301.522 316 306 311.522 306 306 L 306 276 L 326 276 L 326 306 C 326 311.522 330.478 316 336 316 L 346 316 L 346 356 M 166 276 L 166 296 L 106 296 L 106 276 L 166 276 M 126 316 L 146 316 L 146 396 L 126 396 L 126 316 M 366 396 L 366 316 L 386 316 L 386 396 L 366 396 M 406 356 L 406 316 L 416 316 C 421.522 316 426 311.522 426 306 L 426 276 L 436 276 C 441.522 276 446 271.522 446 266 L 446 226 C 446 222.251 443.851 218.859 440.743 217.196 L 260.857 117.259 C 257.837 115.581 254.164 115.581 251.144 117.259 C 251.144 117.259 71.22 217.217 71.2 217.228 C 71.1 217.327 66 219.848 66 226 L 66 266 C 66 271.522 70.478 276 76 276 L 86 276 L 86 306 C 86 311.522 90.478 316 96 316 L 106 316 L 106 356 L 20 356 L 20 96 L 492 96 L 492 356 L 406 356"/><path fill="url(#wps{85edaec4-83cc-4b0a-ba53-95bbd02c8cf7}_solid@Accent3_0.00@Accent3_0.00)" fill-opacity="1" stroke="url(#wps{662a3c9d-64f2-41f2-99be-d877d14a04f0}_solid@Accent5_0.00@Accent5_0.00)" stroke-width="1" stroke-opacity="1" d="M 256 236 C 272.542 236 286 222.542 286 206 C 286 189.458 272.542 176 256 176 C 239.458 176 226 189.458 226 206 C 226 222.542 239.458 236 256 236 M 256 196 C 261.514 196 266 200.486 266 206 C 266 211.514 261.514 216 256 216 C 250.486 216 246 211.514 246 206 C 246 200.486 250.486 196 256 196"/><circle fill="url(#wps{85edaec4-83cc-4b0a-ba53-95bbd02c8cf7}_solid@Accent3_0.00@Accent3_0.00)" fill-opacity="1" stroke="url(#wps{662a3c9d-64f2-41f2-99be-d877d14a04f0}_solid@Accent5_0.00@Accent5_0.00)" stroke-width="1" stroke-opacity="1" cx="256" cy="486" r="10"/></g></svg>
