<?xml version='1.0' encoding='utf-8'?>
<svg xmlns="http://www.w3.org/2000/svg" version="1.1" width="1280" height="720" viewBox="0 0 1280 720"><rect x="0" y="0" width="1280" height="720" fill="#FFFFFF" />
<g id="shape-5" data-name="图片 4" transform="rotate(90 640 360)">
<image href="bg_peach_soft.jpg" x="280" y="-280" width="720" height="1280" preserveAspectRatio="none" />
</g>
<g id="shape-7" data-name="图片 6" transform="rotate(270 107.73 206.35) translate(107.73 206.35) scale(1 -1) translate(-107.73 -206.35)">
<svg x="-98.61" y="98.61" width="412.69" height="215.47" viewBox="0.57833 0 0.42167 1" preserveAspectRatio="none"><image href="blossom_top.png" x="0" y="0" width="1" height="1" preserveAspectRatio="none" /></svg>
</g>
<g id="shape-8" data-name="图片 7" transform="rotate(90 1172.27 206.35) translate(1172.27 206.35) scale(-1 -1) translate(-1172.27 -206.35)">
<svg x="965.92" y="98.61" width="412.69" height="215.47" viewBox="0.57833 0 0.42167 1" preserveAspectRatio="none"><image href="blossom_top.png" x="0" y="0" width="1" height="1" preserveAspectRatio="none" /></svg>
</g>
<g id="shape-14" data-name="图片 13">
<svg x="42.49" y="480" width="165.51" height="268.56" viewBox="0.40564 0.06245 0.21434 0.29029" preserveAspectRatio="none"><image href="blossom_bottom.png" x="0" y="0" width="1" height="1" preserveAspectRatio="none" /></svg>
</g>
<g id="shape-15" data-name="组合 14">
<g id="shape-16" data-name="文本框 15">
<rect x="496.3" y="101.09" width="148.64" height="260.64" fill="none" />
</g>
<g id="shape-16-text" data-name="文本框 15 text">
<text x="570.62" y="210.08" text-anchor="middle" xml:space="preserve" font-family="&quot;海派腔调奶油简&quot;, sans-serif" font-size="106.67" fill="#404040" letter-spacing="-4">{{TITLE}}</text>
</g>
<g id="shape-17" data-name="矩形 16">
<rect x="522.42" y="376.42" width="72.7" height="243.68" fill="none" />
</g>
<g id="shape-17-text" data-name="矩形 16 text">
<text x="558.77" y="388.89" text-anchor="middle" xml:space="preserve" font-family="Arial, sans-serif" font-size="14.67" fill="#404040"><tspan fill="#404040" font-size="14.67">L</tspan><tspan x="558.77" dy="15.4" fill="#404040" font-size="14.67">o</tspan><tspan x="558.77" dy="15.4" fill="#404040" font-size="14.67">r</tspan><tspan x="558.77" dy="15.4" fill="#404040" font-size="14.67">e</tspan><tspan x="558.77" dy="15.4" fill="#404040" font-size="14.67">m</tspan><tspan x="558.77" dy="15.4" fill="#404040" font-size="14.67">i</tspan><tspan x="558.77" dy="15.4" fill="#404040" font-size="14.67">p</tspan><tspan x="558.77" dy="15.4" fill="#404040" font-size="14.67">s</tspan><tspan x="558.77" dy="15.4" fill="#404040" font-size="14.67">u</tspan><tspan x="558.77" dy="15.4" fill="#404040" font-size="14.67">m</tspan><tspan x="558.77" dy="15.4" fill="#404040" font-size="14.67">d</tspan><tspan x="558.77" dy="15.4" fill="#404040" font-size="14.67">o</tspan><tspan x="558.77" dy="15.4" fill="#404040" font-size="14.67">l</tspan><tspan x="558.77" dy="15.4" fill="#404040" font-size="14.67">o</tspan><tspan x="558.77" dy="15.4" fill="#404040" font-size="14.67">r</tspan></text>
</g>
<g id="shape-18" data-name="直接连接符 17">
<line x1="666.52" y1="173.87" x2="666.52" y2="437.26" stroke-width="2.667" stroke="#404040" fill="#63BD87" />
</g>
<g id="shape-19" data-name="文本框 18">
<rect x="664.2" y="274.85" width="106.63" height="336.08" fill="none" />
</g>
<g id="shape-19-text" data-name="文本框 18 text">
<text x="717.52" y="352.88" text-anchor="middle" xml:space="preserve" font-family="&quot;海派腔调奶油简&quot;, sans-serif" font-size="72" fill="#404040" letter-spacing="-4">{{SUBTITLE}}</text>
</g>
<g id="shape-20" data-name="组合 19">
<g id="shape-30" data-name="直接连接符 29" transform="translate(768.08 153.43) scale(1 -1) translate(-768.08 -153.43)">
<line x1="721.1" y1="110.67" x2="815.06" y2="196.2" stroke-width="1.667" stroke="#404040" fill="#63BD87" />
</g>
<g id="shape-31" data-name="椭圆 30">
<ellipse cx="715.85" cy="201.23" rx="7.26" ry="7.26" stroke-width="1.667" stroke="#404040" fill="#63BD87" />
</g>
<g id="shape-32" data-name="椭圆 31">
<ellipse cx="774.89" cy="225.43" rx="7.26" ry="7.26" stroke-width="1.667" stroke="#404040" fill="#63BD87" />
</g>
</g>
<g id="shape-21" data-name="文本框 20">
<rect x="581.57" y="372.48" width="51.7" height="196.93" fill="none" />
</g>
<g id="shape-21-text" data-name="文本框 20 text">
<text x="607.42" y="437.62" text-anchor="middle" xml:space="preserve" font-family="&quot;微软雅黑&quot;, sans-serif" font-size="26.67" fill="#404040" letter-spacing="8"><tspan fill="#404040" font-size="26.67" letter-spacing="8">工</tspan><tspan x="607.42" dy="28" fill="#404040" font-size="26.67" letter-spacing="8">作</tspan><tspan x="607.42" dy="28" fill="#404040" font-size="26.67" letter-spacing="8">总</tspan><tspan x="607.42" dy="28" fill="#404040" font-size="26.67" letter-spacing="8">结</tspan></text>
</g>
<g id="shape-22" data-name="组合 21">
<g id="shape-23" data-name="组合 22">
<g id="shape-27" data-name="直接连接符 26" transform="translate(470.19 390.92) scale(1 -1) translate(-470.19 -390.92)">
<line x1="423.21" y1="348.16" x2="517.17" y2="433.69" stroke-width="1.667" stroke="#404040" fill="#63BD87" />
</g>
<g id="shape-28" data-name="椭圆 27">
<ellipse cx="417.96" cy="438.72" rx="7.26" ry="7.26" stroke-width="1.667" stroke="#404040" fill="#63BD87" />
</g>
<g id="shape-29" data-name="椭圆 28">
<ellipse cx="477.12" cy="314.12" rx="7.26" ry="7.26" stroke-width="1.667" stroke="#404040" fill="#63BD87" />
</g>
</g>
<g id="shape-24" data-name="组合 23">
<g id="shape-25" data-name="直接连接符 24" transform="translate(470.11 494.94) scale(1 -1) translate(-470.11 -494.94)">
<line x1="429.03" y1="457.55" x2="511.19" y2="532.33" stroke-width="1.667" stroke="#404040" fill="#63BD87" />
</g>
<g id="shape-26" data-name="椭圆 25">
<ellipse cx="424.45" cy="536.73" rx="6.35" ry="6.35" stroke-width="1.667" stroke="#404040" fill="#63BD87" />
</g>
</g>
</g>
</g></svg>