<svg viewBox="0 0 512 512" xmlns="http://www.w3.org/2000/svg" xmlns:xlink="http://www.w3.org/1999/xlink" id="Capa_1" overflow="hidden"><style>
.MsftOfcThm_Accent1_Fill_v2 {
 fill:#1D4223; 
}
.MsftOfcThm_Accent1_Fill {
 fill:#B51D25; 
}
</style>
<g><g><path d="M497.36 69.995C489.828 62.45 477.607 62.437 470.075 69.963L238.582 300.845 155.06 210.132C147.843 202.298 135.641 201.79 127.794 209.006 119.953 216.223 119.451 228.431 126.668 236.272L223.794 341.753C227.351 345.619 232.329 347.864 237.578 347.973 237.719 347.979 237.855 347.979 237.99 347.979 243.091 347.979 247.998 345.953 251.613 342.351L497.322 97.286C504.873 89.761 504.886 77.54 497.36 69.995Z" fill="#B51D25"/></g></g><g><g><path d="M492.703 236.703C482.045 236.703 473.407 245.341 473.407 256 473.407 375.883 375.883 473.407 256 473.407 136.124 473.407 38.593 375.883 38.593 256 38.593 136.124 136.124 38.593 256 38.593 266.658 38.593 275.297 29.955 275.297 19.297 275.297 8.638 266.658 0 256 0 114.84 0 0 114.84 0 256 0 397.154 114.84 512 256 512 397.154 512 512 397.154 512 256 512 245.342 503.362 236.703 492.703 236.703Z" fill="#B51D25"/></g></g><g></g><g></g><g></g><g></g><g></g><g></g><g></g><g></g><g></g><g></g><g></g><g></g><g></g><g></g><g></g></svg>