<svg version="1.1" width="200" height="200" viewBox="0 0 1024 1024" xmlns="http://www.w3.org/2000/svg" xmlns:xlink="http://www.w3.org/1999/xlink" class="icon" overflow="hidden"><style>
.MsftOfcThm_Background1_lumMod_85_Fill {
 fill:#D9D9D9; 
}
</style>
<defs></defs><path d=" M 883.2 268.8 C 838.4 224 774.4 198.4 704 198.4 C 672 198.4 640 204.8 608 217.6 C 576 230.4 550.4 249.6 524.8 268.8 L 294.4 499.2 C 268.8 524.8 256 563.2 256 601.6 C 256 640 268.8 672 300.8 704 C 326.4 729.6 364.8 742.4 403.2 742.4 C 441.6 742.4 480 729.6 505.6 704 L 710.4 499.2 C 716.8 492.8 723.2 486.4 723.2 473.6 C 723.2 467.2 716.8 454.4 710.4 448 C 704 441.6 691.2 435.2 684.8 435.2 C 678.4 435.2 665.6 441.6 659.2 448 L 454.4 652.8 C 441.6 665.6 422.4 672 403.2 672 C 384 672 364.8 665.6 352 652.8 C 339.2 640 332.8 620.8 332.8 601.6 C 332.8 582.4 339.2 563.2 352 550.4 L 582.4 320 C 614.4 288 659.2 268.8 710.4 268.8 C 755.2 268.8 800 288 838.4 320 C 870.4 352 889.6 396.8 889.6 441.6 C 889.6 486.4 870.4 531.2 838.4 563.2 L 588.8 806.4 C 537.6 857.6 473.6 883.2 403.2 883.2 C 332.8 883.2 268.8 857.6 217.6 806.4 C 166.4 755.2 140.8 691.2 140.8 620.8 C 140.8 550.4 166.4 486.4 217.6 435.2 L 537.6 121.6 C 544 115.2 550.4 108.8 550.4 96 C 550.4 83.2 544 76.8 537.6 70.4 C 524.8 57.6 499.2 57.6 486.4 70.4 L 166.4 384 C 102.4 448 70.4 531.2 70.4 620.8 C 70.4 710.4 108.8 793.6 166.4 857.6 C 198.4 889.6 236.8 915.2 275.2 928 C 313.6 947.2 358.4 953.6 403.2 953.6 C 448 953.6 486.4 947.2 531.2 928 C 569.6 908.8 608 889.6 640 857.6 L 889.6 614.4 C 915.2 588.8 934.4 563.2 947.2 531.2 C 972.8 441.6 953.6 332.8 883.2 268.8 Z" class="MsftOfcThm_Background1_lumMod_85_Fill" stroke="none" stroke-width="1" stroke-dasharray="" stroke-dashoffset="1" fill="#D9D9D9" fill-opacity="1"/></svg>