<svg version="1.1" width="9.18" height="7.47" viewBox="0 0 9.18 7.47" xmlns="http://www.w3.org/2000/svg" xmlns:xlink="http://www.w3.org/1999/xlink" overflow="hidden"><defs></defs><g><path d=" M 3.48 0.31 C 1.72 1.62 1.61 3.41 2.06 3.46 C 2.54 3.52 3.02 3.66 3.42 4.06 C 4.22 4.83 4.24 6.08 3.45 6.87 C 2.68 7.66 1.38 7.66 0.61 6.87 C -0.58 5.68 0.18 3.41 1.01 2.1 C 1.38 1.5 1.98 0.68 3.23 0 L 3.48 0.31 Z M 8.65 0.31 C 6.89 1.62 6.78 3.41 7.23 3.46 C 7.71 3.52 8.2 3.66 8.59 4.06 C 9.36 4.83 9.38 6.08 8.62 6.87 C 7.82 7.66 6.55 7.66 5.78 6.87 C 4.57 5.68 5.33 3.41 6.18 2.1 C 6.55 1.5 7.12 0.68 8.4 0 L 8.65 0.31 Z" stroke="none" stroke-width="1" stroke-dasharray="" stroke-dashoffset="1" fill="#FAA718" fill-opacity="1"/></g></svg>