<svg version="1.1" width="200" height="200" viewBox="0 0 1024 1024" xmlns="http://www.w3.org/2000/svg" xmlns:xlink="http://www.w3.org/1999/xlink" class="icon" overflow="hidden"><style>
.MsftOfcThm_Background1_Fill {
 fill:#FFFFFF; 
}
</style>
<defs></defs><path d=" M 683.008 780.288 L 754.688 780.288 C 774.144 780.288 790.528 762.88 790.528 741.376 L 790.528 471.04 C 790.528 449.536 774.144 432.128 754.688 432.128 L 683.008 432.128 C 663.552 432.128 647.168 449.536 647.168 471.04 L 647.168 741.376 C 647.168 762.88 662.528 780.288 683.008 780.288 Z M 493.568 776.192 L 565.248 776.192 C 584.704 776.192 601.088 758.784 601.088 738.304 L 601.088 322.56 C 601.088 302.08 584.704 284.672 565.248 284.672 L 493.568 284.672 C 474.112 284.672 457.728 302.08 457.728 322.56 L 457.728 738.304 C 457.728 758.784 474.112 776.192 493.568 776.192 Z M 305.152 777.216 L 376.832 777.216 C 396.288 777.216 412.672 759.808 412.672 739.328 L 412.672 548.864 C 412.672 527.36 396.288 510.976 376.832 510.976 L 305.152 510.976 C 285.696 510.976 269.312 528.384 269.312 548.864 L 269.312 739.328 C 269.312 759.808 284.672 777.216 305.152 777.216 Z" class="MsftOfcThm_Background1_Fill" stroke="none" stroke-width="1" stroke-dasharray="" stroke-dashoffset="1" fill="#FFFFFF" fill-opacity="1"/><path d=" M 867.328 828.416 L 215.04 828.416 L 215.04 268.288 C 215.04 239.616 192.512 217.088 163.84 217.088 C 135.168 217.088 112.64 239.616 112.64 268.288 L 112.64 879.616 C 112.64 908.288 135.168 930.816 163.84 930.816 L 867.328 930.816 C 896 930.816 918.528 908.288 918.528 879.616 C 918.528 850.944 894.976 828.416 867.328 828.416 Z" class="MsftOfcThm_Background1_Fill" stroke="none" stroke-width="1" stroke-dasharray="" stroke-dashoffset="1" fill="#FFFFFF" fill-opacity="1"/></svg>