<?xml version='1.0' encoding='utf-8'?>
<svg xmlns="http://www.w3.org/2000/svg" version="1.1" width="1280" height="720" viewBox="0 0 1280 720"><rect x="0" y="0" width="1280" height="720" fill="#FDFEFB" />
<g id="shape-7" data-name="Group 4">
<g id="shape-26" data-name="PA-椭圆 5">
<ellipse cx="643.23" cy="400.63" rx="80.57" ry="80.57" fill="#FFFFFF" stroke-width="4" stroke="#A9D3A9" />
</g>
<g id="shape-27" data-name="PA-任意多边形 80">
<path d="M 670.2 371.24 C 663.46 371.24 663.46 371.24 663.46 371.24 C 662.19 371.24 661.35 370.4 661.35 369.13 C 624.67 369.13 624.67 369.13 624.67 369.13 C 623.83 369.13 622.98 369.98 622.98 371.24 C 613.71 371.24 613.71 371.24 613.71 371.24 C 612.44 371.24 611.6 372.5 611.6 373.77 C 611.6 382.2 611.6 382.2 611.6 382.2 C 611.6 394 630.99 404.11 638.58 407.48 C 638.58 421.39 638.58 421.39 638.58 421.39 C 638.58 421.39 632.68 422.23 628.04 424.34 C 627.2 424.76 626.78 425.18 626.78 426.02 C 626.78 427.71 626.78 427.71 626.78 427.71 C 626.78 428.55 625.93 429.39 624.67 429.39 C 623.83 429.39 622.98 430.24 622.98 431.5 C 622.98 435.29 622.98 435.29 622.98 435.29 C 622.98 436.56 623.83 437.4 624.67 437.4 C 659.24 437.4 659.24 437.4 659.24 437.4 C 660.51 437.4 661.35 436.56 661.35 435.29 C 661.35 431.5 661.35 431.5 661.35 431.5 C 661.35 430.24 660.51 429.39 659.24 429.39 C 657.98 429.39 657.13 428.55 657.13 427.71 C 657.13 426.02 657.13 426.02 657.13 426.02 C 657.13 425.18 656.71 424.76 656.29 424.34 C 651.65 422.23 645.33 421.39 645.33 421.39 C 645.33 407.48 645.33 407.48 645.33 407.48 C 653.34 404.11 672.73 394 672.73 382.2 C 672.73 373.77 672.73 373.77 672.73 373.77 C 672.73 372.5 671.47 371.24 670.2 371.24 Z M 615.39 380.93 C 615.39 377.98 615.39 377.98 615.39 377.98 C 615.39 376.72 616.66 375.88 617.92 375.88 C 622.98 375.88 622.98 375.88 622.98 375.88 C 622.98 375.88 623.41 388.94 626.78 394.42 C 626.78 394.42 615.39 389.78 615.39 380.93 Z M 668.52 380.93 C 668.52 389.78 657.13 394.42 657.13 394.42 C 660.93 388.94 660.93 375.88 660.93 375.88 C 665.99 375.88 665.99 375.88 665.99 375.88 C 667.67 375.88 668.52 376.72 668.52 377.98 L 668.52 380.93 Z" fill="#A9D3A9" stroke="none" />
</g>
</g>
<g id="shape-8" data-name="PA-椭圆 76">
<ellipse cx="499.1" cy="255.47" rx="60.57" ry="60.67" fill="#A9C683" stroke="none" />
</g>
<g id="shape-9" data-name="PA-椭圆 74">
<ellipse cx="411.8" cy="400.93" rx="60.87" ry="60.67" fill="#5B805B" stroke="none" />
</g>
<g id="shape-10" data-name="PA-椭圆 75">
<ellipse cx="499.1" cy="546.47" rx="60.57" ry="60.87" fill="#A9C683" stroke="none" />
</g>
<g id="shape-11" data-name="PA-椭圆 83">
<ellipse cx="787.3" cy="255.47" rx="60.57" ry="60.67" fill="#5B805B" stroke="none" />
</g>
<g id="shape-12" data-name="PA-椭圆 81">
<ellipse cx="874.6" cy="400.93" rx="60.87" ry="60.67" fill="#A9C683" stroke="none" />
</g>
<g id="shape-13" data-name="PA-椭圆 82">
<ellipse cx="787.3" cy="546.47" rx="60.57" ry="60.87" fill="#5B805B" stroke="none" />
</g>
<g id="shape-14" data-name="PA-任意多边形 14">
<path d="M 593.4 401.33 C 593.4 397.6 590.69 394.9 586.94 394.9 C 501.51 394.9 501.51 394.9 501.51 394.9 C 501.51 384.73 501.51 384.73 501.51 384.73 C 479.53 401.33 479.53 401.33 479.53 401.33 C 501.51 417.8 501.51 417.8 501.51 417.8 C 501.51 407.64 501.51 407.64 501.51 407.64 C 586.94 407.64 586.94 407.64 586.94 407.64 C 590.82 407.64 593.4 404.42 593.4 401.33 Z" fill="#5B805B" stroke-width="4" stroke="#FFFFFF" stroke-linejoin="round" />
</g>
<g id="shape-15" data-name="PA-任意多边形 15">
<path d="M 606.26 446.31 C 603.55 443.73 599.8 443.73 597.08 446.31 C 565.65 477.14 565.65 477.14 565.65 477.14 C 558.28 469.92 558.28 469.92 558.28 469.92 C 554.4 497 554.4 497 554.4 497 C 581.95 493.13 581.95 493.13 581.95 493.13 C 574.96 486.17 574.96 486.17 574.96 486.17 C 606.26 455.47 606.26 455.47 606.26 455.47 C 607.69 454.05 608.33 452.25 608.33 450.44 C 608.2 448.76 607.43 447.22 606.26 446.31 Z" fill="#5B805B" stroke-width="4" stroke="#FFFFFF" stroke-linejoin="round" />
</g>
<g id="shape-16" data-name="PA-任意多边形 16">
<path d="M 574.84 315.81 C 581.82 308.6 581.82 308.6 581.82 308.6 C 554.4 304.73 554.4 304.73 554.4 304.73 C 558.28 331.78 558.28 331.78 558.28 331.78 C 565.65 324.95 565.65 324.95 565.65 324.95 C 597.08 355.99 597.08 355.99 597.08 355.99 C 598.25 357.15 599.8 357.67 601.87 357.67 C 603.55 357.67 605.23 357.02 606.26 355.99 C 607.56 354.7 608.33 353.16 608.33 351.48 C 608.33 349.81 607.56 348.14 606.26 346.85 L 574.84 315.81 Z" fill="#5B805B" stroke-width="4" stroke="#FFFFFF" stroke-linejoin="round" />
</g>
<g id="shape-17" data-name="PA-任意多边形 17">
<path d="M 806.53 401.33 C 784.56 384.73 784.56 384.73 784.56 384.73 C 784.56 394.9 784.56 394.9 784.56 394.9 C 699.13 394.9 699.13 394.9 699.13 394.9 C 695.38 394.9 692.67 397.6 692.67 401.33 C 692.67 404.42 695.25 407.64 699.13 407.64 C 784.56 407.64 784.56 407.64 784.56 407.64 C 784.56 417.8 784.56 417.8 784.56 417.8 L 806.53 401.33 Z" fill="#5B805B" stroke-width="4" stroke="#FFFFFF" stroke-linejoin="round" />
</g>
<g id="shape-18" data-name="PA-任意多边形 18">
<path d="M 720.48 477.14 C 689.05 446.31 689.05 446.31 689.05 446.31 C 686.34 443.73 682.59 443.73 679.87 446.31 C 678.71 447.22 677.93 448.76 677.8 450.44 C 677.8 452.25 678.45 454.05 679.87 455.47 C 711.17 486.17 711.17 486.17 711.17 486.17 C 704.18 493.13 704.18 493.13 704.18 493.13 C 731.73 497 731.73 497 731.73 497 C 727.85 469.92 727.85 469.92 727.85 469.92 L 720.48 477.14 Z" fill="#5B805B" stroke-width="4" stroke="#FFFFFF" stroke-linejoin="round" />
</g>
<g id="shape-19" data-name="PA-任意多边形 19">
<path d="M 684.27 357.67 C 686.34 357.67 687.89 357.15 689.05 355.99 C 720.48 324.95 720.48 324.95 720.48 324.95 C 727.85 331.78 727.85 331.78 727.85 331.78 C 731.73 304.73 731.73 304.73 731.73 304.73 C 704.31 308.6 704.31 308.6 704.31 308.6 C 711.3 315.81 711.3 315.81 711.3 315.81 C 679.87 346.85 679.87 346.85 679.87 346.85 C 678.58 348.14 677.8 349.81 677.8 351.48 C 677.8 353.16 678.58 354.7 679.87 355.99 C 680.9 357.02 682.59 357.67 684.27 357.67 Z" fill="#5B805B" stroke-width="4" stroke="#FFFFFF" stroke-linejoin="round" />
</g>
<g id="shape-29" data-name="PA-文本框 13">
<rect x="883.73" y="141.67" width="231.33" height="67.73" fill="none" />
<text x="893.33" y="173.67" text-anchor="start" xml:space="preserve" font-family="&quot;思源黑体 CN Medium&quot;, &quot;思源黑体 CN Regular&quot;, sans-serif" font-size="32" fill="#000000"><tspan fill="#000000" font-size="32">{{SUBTITLE}}</tspan></text>
</g>
<g id="shape-30" data-name="PA-矩形 29">
<rect x="880.93" y="199.07" width="230.13" height="67.73" fill="none" />
<text x="890.53" y="217.47" text-anchor="start" xml:space="preserve" font-family="&quot;思源黑体 CN Medium&quot;, &quot;思源黑体 CN Regular&quot;, sans-serif" font-size="16" fill="#5B805B"><tspan fill="#5B805B" font-size="16">{{TAGLINE}}</tspan></text>
</g>
<g id="shape-32" data-name="PA-文本框 13">
<rect x="855.53" y="523.33" width="231.33" height="67.73" fill="none" />
<text x="865.13" y="555.33" text-anchor="start" xml:space="preserve" font-family="&quot;思源黑体 CN Medium&quot;, &quot;思源黑体 CN Regular&quot;, sans-serif" font-size="32" fill="#000000"><tspan fill="#000000" font-size="32">模型训练</tspan></text>
</g>
<g id="shape-33" data-name="PA-矩形 32">
<rect x="856.73" y="580.73" width="279.53" height="96.8" fill="none" />
<text x="866.33" y="599.13" text-anchor="start" xml:space="preserve" font-family="&quot;思源黑体 CN Medium&quot;, &quot;思源黑体 CN Regular&quot;, sans-serif" font-size="16" fill="#5B805B"><tspan fill="#5B805B" font-size="16">{{TAGLINE}}</tspan></text>
</g>
<g id="shape-35" data-name="PA-文本框 13">
<rect x="973.67" y="326.4" width="231.33" height="67.73" fill="none" />
<text x="983.27" y="358.4" text-anchor="start" xml:space="preserve" font-family="&quot;思源黑体 CN Medium&quot;, &quot;思源黑体 CN Regular&quot;, sans-serif" font-size="32" fill="#000000"><tspan fill="#000000" font-size="32">{{TAGLINE}}</tspan></text>
</g>
<g id="shape-36" data-name="PA-矩形 35">
<rect x="970.87" y="383.87" width="230.13" height="67.73" fill="none" />
<text x="980.47" y="402.27" text-anchor="start" xml:space="preserve" font-family="&quot;思源黑体 CN Medium&quot;, &quot;思源黑体 CN Regular&quot;, sans-serif" font-size="16" fill="#5B805B"><tspan fill="#5B805B" font-size="16">{{TAGLINE}}</tspan></text>
</g>
<g id="shape-38" data-name="PA-文本框 13">
<rect x="179.47" y="141.67" width="229.27" height="67.73" fill="none" />
<text x="399.13" y="173.67" text-anchor="end" xml:space="preserve" font-family="&quot;思源黑体 CN Medium&quot;, &quot;思源黑体 CN Regular&quot;, sans-serif" font-size="32" fill="#000000"><tspan fill="#000000" font-size="32">研究内容</tspan></text>
</g>
<g id="shape-39" data-name="PA-矩形 38">
<rect x="124" y="199.07" width="285.6" height="125.87" fill="none" />
<text x="400" y="217.47" text-anchor="end" xml:space="preserve" font-family="&quot;思源黑体 CN Medium&quot;, &quot;思源黑体 CN Regular&quot;, sans-serif" font-size="16" fill="#5B805B"><tspan fill="#5B805B" font-size="16">{{TAGLINE}}</tspan></text>
</g>
<g id="shape-41" data-name="PA-文本框 13">
<rect x="89.2" y="326.4" width="229.27" height="67.73" fill="none" />
<text x="308.87" y="358.4" text-anchor="end" xml:space="preserve" font-family="&quot;思源黑体 CN Medium&quot;, &quot;思源黑体 CN Regular&quot;, sans-serif" font-size="32" fill="#000000"><tspan fill="#000000" font-size="32">{{TAGLINE}}</tspan></text>
</g>
<g id="shape-42" data-name="PA-矩形 41">
<rect x="89.2" y="383.87" width="230.13" height="96.8" fill="none" />
<text x="309.73" y="402.27" text-anchor="end" xml:space="preserve" font-family="&quot;思源黑体 CN Medium&quot;, &quot;思源黑体 CN Regular&quot;, sans-serif" font-size="16" fill="#5B805B"><tspan fill="#5B805B" font-size="16">{{TAGLINE}}</tspan></text>
</g>
<g id="shape-44" data-name="PA-文本框 13">
<rect x="189.07" y="523.33" width="229.27" height="67.73" fill="none" />
<text x="408.73" y="555.33" text-anchor="end" xml:space="preserve" font-family="&quot;思源黑体 CN Medium&quot;, &quot;思源黑体 CN Regular&quot;, sans-serif" font-size="32" fill="#000000"><tspan fill="#000000" font-size="32">{{TAGLINE}}</tspan></text>
</g>
<g id="shape-45" data-name="PA-矩形 44">
<rect x="189.07" y="580.73" width="230.13" height="96.8" fill="none" />
<text x="409.6" y="599.13" text-anchor="end" xml:space="preserve" font-family="&quot;思源黑体 CN Medium&quot;, &quot;思源黑体 CN Regular&quot;, sans-serif" font-size="16" fill="#5B805B"><tspan fill="#5B805B" font-size="16">{{TAGLINE}}</tspan></text>
</g>
<g id="shape-55" data-name="图片 54">
<image href="assets/image6.png" x="472.67" y="229.47" width="52" height="52" preserveAspectRatio="none" />
</g>
<g id="shape-56" data-name="图片 55">
<image href="assets/image7.png" x="764.27" y="232.4" width="46.13" height="46.13" preserveAspectRatio="none" />
</g>
<g id="shape-57" data-name="图片 56">
<image href="assets/image8.png" x="389.13" y="380.4" width="43" height="43" preserveAspectRatio="none" />
</g>
<g id="shape-6" data-name="图片 5">
<image href="assets/image9.png" x="475.73" y="525.87" width="45.87" height="45.87" preserveAspectRatio="none" />
</g>
<g id="shape-28" data-name="图片 27">
<image href="assets/image10.png" x="765.93" y="529.07" width="42.67" height="42.67" preserveAspectRatio="none" />
</g>
<g id="shape-31" data-name="图片 30">
<image href="assets/image11.png" x="852.33" y="380.4" width="45.67" height="45.67" preserveAspectRatio="none" />
</g>
<g id="shape-20" data-name="组合 19">
<g id="shape-22" data-name="矩形 21">
<rect x="76.13" y="109.87" width="40.23" height="8.11" fill="#5B805B" stroke="none" stroke-width="1" />
</g>
<g id="shape-23" data-name="矩形 22">
<rect x="116.37" y="109.87" width="40.23" height="8.11" fill="#A9C683" stroke="none" stroke-width="1" />
</g>
</g>
<g id="shape-21" data-name="文本框 20">
<rect x="63.2" y="42.87" width="1153.6" height="71.6" fill="none" />
<text x="72.8" y="89.33" text-anchor="start" xml:space="preserve" font-family="&quot;思源黑体 CN Medium&quot;, &quot;思源黑体 Regular&quot;, sans-serif" font-size="42.67" fill="#000000"><tspan fill="#000000" font-size="42.67">{{TITLE}}</tspan></text>
</g></svg>