<?xml version='1.0' encoding='utf-8'?>
<svg xmlns="http://www.w3.org/2000/svg" version="1.1" width="1280" height="720" viewBox="0 0 1280 720"><rect x="0" y="0" width="1280" height="720" fill="#FDFEFB" />
<g id="shape-7" data-name="圆角矩形 6">
<rect x="120.87" y="235" width="223.67" height="206.13" rx="19.27" ry="19.27" fill="#5B805B" stroke="none" stroke-width="1" />
</g>
<g id="shape-11" data-name="任意多边形 10">
<path d="M 105.93 359.67 L 359.47 359.67 L 359.47 603.24 L 359.47 603.24 L 359.47 619.96 C 359.47 627.12 350.85 632.93 340.21 632.93 L 125.19 632.93 C 114.55 632.93 105.93 627.12 105.93 619.96 L 105.93 507.11 L 105.93 507.11 Z" fill="#FFFFFF" stroke-width="2.667" stroke="none" />
</g>
<g id="shape-12" data-name="椭圆 11">
<ellipse cx="232.7" cy="359.7" rx="41.1" ry="41.17" fill="#5B805B" stroke="none" stroke-width="1" />
</g>
<g id="shape-13" data-name="文本框 11">
<rect x="178.13" y="260.27" width="115" height="80.67" fill="none" />
<text x="235.63" y="314.93" text-anchor="middle" xml:space="preserve" font-family="&quot;思源黑体 Medium&quot;, &quot;思源黑体 Regular&quot;, sans-serif" font-size="58.67" fill="#FFFFFF"><tspan fill="#FFFFFF" font-size="58.67">01</tspan></text>
</g>
<g id="shape-37" data-name="文本框 64">
<rect x="156.6" y="423.07" width="152.13" height="48.33" fill="none" />
<text x="232.67" y="455.07" text-anchor="middle" xml:space="preserve" font-family="&quot;思源黑体 CN Bold&quot;, &quot;思源黑体 Regular&quot;, sans-serif" font-size="32" fill="#000000" font-weight="bold"><tspan fill="#000000" font-size="32">{{PAGE_TITLE}}</tspan></text>
</g>
<g id="shape-40" data-name="圆角矩形 39">
<rect x="393.8" y="235" width="223.67" height="206.13" rx="19.27" ry="19.27" fill="#A9C683" stroke="none" stroke-width="1" />
</g>
<g id="shape-41" data-name="任意多边形 40">
<path d="M 378.87 359.67 L 632.4 359.67 L 632.4 603.24 L 632.4 603.24 L 632.4 619.96 C 632.4 627.12 623.78 632.93 613.15 632.93 L 398.12 632.93 C 387.49 632.93 378.87 627.12 378.87 619.96 L 378.87 507.11 L 378.87 507.11 Z" fill="#FFFFFF" stroke-width="2.667" stroke="none" />
</g>
<g id="shape-42" data-name="椭圆 41">
<ellipse cx="505.63" cy="359.7" rx="41.1" ry="41.17" fill="#A9C683" stroke="none" stroke-width="1" />
</g>
<g id="shape-43" data-name="文本框 48">
<rect x="446.67" y="260.27" width="122.67" height="80.67" fill="none" stroke="none" />
<text x="508" y="314.93" text-anchor="middle" xml:space="preserve" font-family="&quot;思源黑体 Medium&quot;, &quot;思源黑体 Regular&quot;, sans-serif" font-size="58.67" fill="#FFFFFF"><tspan fill="#FFFFFF" font-size="58.67">02</tspan></text>
</g>
<g id="shape-47" data-name="圆角矩形 46">
<rect x="665.67" y="235" width="223.67" height="206.13" rx="19.27" ry="19.27" fill="#A9D3A9" stroke="none" stroke-width="1" />
</g>
<g id="shape-48" data-name="任意多边形 47">
<path d="M 650.73 359.67 L 904.27 359.67 L 904.27 603.24 L 904.27 603.24 L 904.27 619.96 C 904.27 627.12 895.65 632.93 885.01 632.93 L 669.99 632.93 C 659.35 632.93 650.73 627.12 650.73 619.96 L 650.73 507.11 L 650.73 507.11 Z" fill="#FFFFFF" stroke-width="2.667" stroke="none" />
</g>
<g id="shape-49" data-name="椭圆 48">
<ellipse cx="777.5" cy="359.7" rx="41.1" ry="41.17" fill="#A9D3A9" stroke="none" stroke-width="1" />
</g>
<g id="shape-50" data-name="文本框 54">
<rect x="711.2" y="260.27" width="134.07" height="80.67" fill="none" stroke="none" />
<text x="778.23" y="314.93" text-anchor="middle" xml:space="preserve" font-family="&quot;思源黑体 Medium&quot;, &quot;思源黑体 Regular&quot;, sans-serif" font-size="58.67" fill="#FFFFFF"><tspan fill="#FFFFFF" font-size="58.67">03</tspan></text>
</g>
<g id="shape-54" data-name="圆角矩形 53">
<rect x="938.6" y="235" width="223.67" height="206.13" rx="19.27" ry="19.27" fill="#66A4A4" stroke="none" stroke-width="1" />
</g>
<g id="shape-55" data-name="任意多边形 54">
<path d="M 923.67 359.67 L 1177.2 359.67 L 1177.2 603.24 L 1177.2 603.24 L 1177.2 619.96 C 1177.2 627.12 1168.58 632.93 1157.95 632.93 L 942.92 632.93 C 932.29 632.93 923.67 627.12 923.67 619.96 L 923.67 507.11 L 923.67 507.11 Z" fill="#FFFFFF" stroke-width="2.667" stroke="none" />
</g>
<g id="shape-56" data-name="椭圆 55">
<ellipse cx="1050.43" cy="359.7" rx="41.1" ry="41.17" fill="#66A4A4" stroke="none" stroke-width="1" />
</g>
<g id="shape-57" data-name="文本框 67">
<rect x="988.53" y="260.27" width="120.07" height="80.67" fill="none" stroke="none" />
<text x="1048.57" y="314.93" text-anchor="middle" xml:space="preserve" font-family="&quot;思源黑体 Medium&quot;, &quot;思源黑体 Regular&quot;, sans-serif" font-size="58.67" fill="#FFFFFF"><tspan fill="#FFFFFF" font-size="58.67">04</tspan></text>
</g>
<g id="shape-15" data-name="矩形 44">
<rect x="136.53" y="485.73" width="195.4" height="102.33" fill="none" stroke="none" />
<text x="146.13" y="504.13" text-anchor="start" xml:space="preserve" font-family="&quot;思源黑体 CN Medium&quot;, &quot;思源黑体 Regular&quot;, sans-serif" font-size="16" fill="#404040" fill-opacity="0.85"><tspan fill="#404040" font-size="16">{{CONTENT_1}}</tspan></text>
</g>
<g id="shape-16" data-name="文本框 66">
<rect x="430.4" y="423.07" width="152.13" height="48.33" fill="none" />
<text x="506.47" y="455.07" text-anchor="middle" xml:space="preserve" font-family="&quot;思源黑体 CN Bold&quot;, &quot;思源黑体 Regular&quot;, sans-serif" font-size="32" fill="#000000" font-weight="bold"><tspan fill="#000000" font-size="32" font-weight="bold">软件工程</tspan></text>
</g>
<g id="shape-17" data-name="矩形 45">
<rect x="410.33" y="485.73" width="195.4" height="79.13" fill="none" stroke="none" />
<text x="419.93" y="504.13" text-anchor="start" xml:space="preserve" font-family="&quot;思源黑体 CN Medium&quot;, &quot;思源黑体 Regular&quot;, sans-serif" font-size="16" fill="#404040" fill-opacity="0.85"><tspan fill="#404040" font-size="16">{{CONTENT_2}}</tspan></text>
</g>
<g id="shape-18" data-name="文本框 55">
<rect x="701.87" y="423.07" width="152.13" height="48.33" fill="none" />
<text x="777.93" y="455.07" text-anchor="middle" xml:space="preserve" font-family="&quot;思源黑体 CN Bold&quot;, &quot;思源黑体 Regular&quot;, sans-serif" font-size="32" fill="#000000" font-weight="bold"><tspan fill="#000000" font-size="32" font-weight="bold">实验设计</tspan></text>
</g>
<g id="shape-19" data-name="矩形 46">
<rect x="681.8" y="485.73" width="195.4" height="125.53" fill="none" stroke="none" />
<text x="691.4" y="504.13" text-anchor="start" xml:space="preserve" font-family="&quot;思源黑体 CN Medium&quot;, &quot;思源黑体 Regular&quot;, sans-serif" font-size="16" fill="#404040" fill-opacity="0.85"><tspan fill="#404040" font-size="16">{{CONTENT_3}}</tspan></text>
</g>
<g id="shape-20" data-name="文本框 64">
<rect x="973.47" y="423.07" width="152.13" height="48.33" fill="none" />
<text x="1049.53" y="455.07" text-anchor="middle" xml:space="preserve" font-family="&quot;思源黑体 CN Bold&quot;, &quot;思源黑体 Regular&quot;, sans-serif" font-size="32" fill="#000000" font-weight="bold"><tspan fill="#000000" font-size="32" font-weight="bold">用户体验</tspan></text>
</g>
<g id="shape-21" data-name="矩形 47">
<rect x="953.4" y="485.73" width="195.4" height="102.33" fill="none" stroke="none" />
<text x="963" y="504.13" text-anchor="start" xml:space="preserve" font-family="&quot;思源黑体 CN Medium&quot;, &quot;思源黑体 Regular&quot;, sans-serif" font-size="16" fill="#404040" fill-opacity="0.85"><tspan fill="#404040" font-size="16" fill-opacity="0.85">结合问卷和访谈，评估程</tspan><tspan x="963" dy="19.2" fill="#404040" font-size="16" fill-opacity="0.85">序员对</tspan><tspan fill="#404040" font-size="16" fill-opacity="0.85">LLMs</tspan><tspan fill="#404040" font-size="16" fill-opacity="0.85">辅助工具的</tspan><tspan x="963" dy="19.2" fill="#404040" font-size="16" fill-opacity="0.85">接受度、满意度和认知负</tspan><tspan x="963" dy="19.2" fill="#404040" font-size="16" fill-opacity="0.85">荷</tspan></text>
</g>
<g id="shape-3" data-name="组合 2">
<g id="shape-22" data-name="矩形 21">
<rect x="76.13" y="109.87" width="40.23" height="8.11" fill="#5B805B" stroke="none" stroke-width="1" />
</g>
<g id="shape-23" data-name="矩形 22">
<rect x="116.37" y="109.87" width="40.23" height="8.11" fill="#A9C683" stroke="none" stroke-width="1" />
</g>
</g>
<g id="shape-5" data-name="文本框 4">
<rect x="63.2" y="42.87" width="1153.6" height="71.6" fill="none" />
<text x="72.8" y="89.33" text-anchor="start" xml:space="preserve" font-family="&quot;思源黑体 CN Bold&quot;, &quot;思源黑体 Regular&quot;, sans-serif" font-size="42.67" fill="#000000"><tspan fill="#000000" font-size="42.67">LLMs</tspan><tspan fill="#000000" font-size="42.67">驱动的编程辅助效率提升研究方法</tspan></text>
</g></svg>