<?xml version="1.0" encoding="UTF-8" standalone="yes"?><svg class="icon" xmlns="http://www.w3.org/2000/svg" xmlns:xlink="http://www.w3.org/1999/xlink" version="1.2" baseProfile="tiny" x="0" y="0" width="200" height="200" viewBox="0 0 1024 1024"><defs><linearGradient id="wps{69be9352-014e-43fa-850b-82604709bd53}_solid@Background1_0.00@Background1_0.00" x1="0" y1="0.5" x2="1" y2="0.5" spreadMethod="pad" gradientUnits="userSpaceOnUse"><stop offset="0" stop-color="#ffffff" stop-opacity="1"/><stop offset="1" stop-color="#ffffff" stop-opacity="1"/></linearGradient></defs><defs/><path fill="url(#wps{69be9352-014e-43fa-850b-82604709bd53}_solid@Background1_0.00@Background1_0.00)" fill-opacity="1" d="M 425.216 873.472 L 261.837 873.472 C 209.282 873.415 166.707 830.795 166.707 778.24 L 166.707 245.453 C 166.735 192.926 209.31 150.351 261.837 150.323 L 722.637 150.323 C 775.152 150.38 817.71 192.938 817.766 245.453 L 817.766 416 C 817.766 432.966 831.52 446.72 848.486 446.72 C 865.453 446.72 879.206 432.966 879.206 416 L 879.206 245.453 C 879.094 159.029 809.061 88.996 722.637 88.8832 L 261.837 88.8832 C 175.413 88.996 105.38 159.029 105.267 245.453 L 105.267 778.24 C 105.324 864.704 175.373 934.799 261.837 934.912 L 425.216 934.912 C 442.182 934.912 455.936 921.158 455.936 904.192 C 455.936 887.226 442.182 873.472 425.216 873.472 Z"/><path fill="url(#wps{69be9352-014e-43fa-850b-82604709bd53}_solid@Background1_0.00@Background1_0.00)" fill-opacity="1" d="M 715.878 350.618 C 715.878 333.651 702.125 319.898 685.158 319.898 L 299.418 319.898 C 282.451 319.898 268.698 333.651 268.698 350.618 C 268.698 367.584 282.451 381.338 299.418 381.338 L 685.158 381.338 C 702.125 381.338 715.878 367.584 715.878 350.618 M 299.418 481.28 C 282.451 481.28 268.698 495.034 268.698 512 C 268.698 528.966 282.451 542.72 299.418 542.72 L 606.157 542.72 C 623.123 542.72 636.877 528.966 636.877 512 C 636.877 495.034 623.123 481.28 606.157 481.28 L 299.418 481.28 M 523.008 673.178 C 523.008 656.211 509.254 642.458 492.288 642.458 L 299.418 642.458 C 282.451 642.458 268.698 656.211 268.698 673.178 C 268.698 690.144 282.451 703.898 299.418 703.898 L 492.288 703.898 C 509.254 703.898 523.008 690.144 523.008 673.178 M 940.288 632.832 C 938.513 615.172 930.616 598.689 917.965 586.24 L 861.645 529.92 C 849.173 517.28 832.672 509.401 815.002 507.648 C 796.524 505.769 778.165 512.182 764.877 525.158 L 526.746 763.29 C 517.682 772.418 512.711 784.835 512.973 797.696 L 513.69 879.36 C 514.491 909.219 538.464 933.259 568.32 934.144 L 650.24 934.912 L 650.701 934.912 C 663.392 935.016 675.597 930.038 684.595 921.088 L 922.726 682.957 C 935.727 669.682 942.161 651.318 940.288 632.832 M 878.848 639.744 L 645.171 873.421 L 575.078 872.755 L 574.464 802.662 L 808.09 569.037 C 812.013 568.889 815.788 570.549 818.33 573.542 L 874.65 629.862 C 877.534 632.431 879.144 636.138 879.053 640 L 878.848 639.744"/></svg>
