<?xml version="1.0" encoding="UTF-8" standalone="yes"?><svg id="图层_1" xmlns="http://www.w3.org/2000/svg" xmlns:xlink="http://www.w3.org/1999/xlink" version="1.2" baseProfile="tiny" x="0" y="0" width="256" height="256" viewBox="0 0 256 256"><defs><linearGradient id="wps{afa8009b-a1d7-4e08-a49b-8a6da403d2db}_solid@Background1_0.00@Background1_0.00" x1="0" y1="0.5" x2="1" y2="0.5" spreadMethod="pad" gradientUnits="userSpaceOnUse"><stop offset="0" stop-color="#ffffff" stop-opacity="1"/><stop offset="1" stop-color="#ffffff" stop-opacity="1"/></linearGradient></defs><defs/><defs/><g id="å_ç_é__10757508888.ç_è_å_"><g id="Group"><g id="Group_2"><g id="Group_3"><path id="Vector" fill="url(#wps{afa8009b-a1d7-4e08-a49b-8a6da403d2db}_solid@Background1_0.00@Background1_0.00)" fill-opacity="1" d="M 151 190.11 L 151 177.43 L 157.34 177.43 L 157.34 190.11 L 151 190.11 Z"/></g><g id="Group_4"><path id="Vector_2" fill="url(#wps{afa8009b-a1d7-4e08-a49b-8a6da403d2db}_solid@Background1_0.00@Background1_0.00)" fill-opacity="1" d="M 92.28 110.63 C 81.2214 109.021 73.0486 99.4947 73.14 88.32 C 73.14 75.64 82.65 66 95.45 66 C 108.25 66 119.34 75.51 119.34 88.31 C 119.34 99.4 109.84 108.91 98.62 110.62 L 98.62 112.2 L 92.28 112.2 L 92.28 110.63 Z"/></g><g id="Group_5"><path id="Vector_3" fill="url(#wps{afa8009b-a1d7-4e08-a49b-8a6da403d2db}_solid@Background1_0.00@Background1_0.00)" fill-opacity="1" d="M 151 164.63 L 151 150.37 L 157.34 150.37 L 157.34 164.63 L 151 164.63 Z"/></g><g id="Group_6"><path id="Vector_4" fill="url(#wps{afa8009b-a1d7-4e08-a49b-8a6da403d2db}_solid@Background1_0.00@Background1_0.00)" fill-opacity="1" d="M 213.09 66 C 197.24 66 184.44 53.32 184.44 35.77 C 184.413 28.1643 187.424 20.8626 192.803 15.4854 C 198.182 10.1083 205.484 7.10064 213.09 7.13 C 228.94 7.13 243.32 19.81 243.32 35.78 C 243.32 52.474 229.784 66.0055 213.09 66 Z"/></g><g id="Group_7"><path id="Vector_5" fill="url(#wps{afa8009b-a1d7-4e08-a49b-8a6da403d2db}_solid@Background1_0.00@Background1_0.00)" fill-opacity="1" d="M 216.26 72.35 L 216.26 85 L 209.92 85 L 209.92 72.35 L 216.26 72.35 Z"/></g><g id="Group_8"><path id="Vector_6" fill="url(#wps{afa8009b-a1d7-4e08-a49b-8a6da403d2db}_solid@Background1_0.00@Background1_0.00)" fill-opacity="1" d="M 209.92 164.63 L 209.92 150.37 L 216.26 150.37 L 216.26 164.63 L 209.92 164.63 Z"/></g><g id="Group_9"><path id="Vector_7" fill="url(#wps{afa8009b-a1d7-4e08-a49b-8a6da403d2db}_solid@Background1_0.00@Background1_0.00)" fill-opacity="1" d="M 209.92 137.57 L 209.92 124.89 L 216.26 124.89 L 216.26 137.57 L 209.92 137.57 Z"/></g><g id="Group_10"><path id="Vector_8" fill="url(#wps{afa8009b-a1d7-4e08-a49b-8a6da403d2db}_solid@Background1_0.00@Background1_0.00)" fill-opacity="1" d="M 33.4 202.79 L 33.4 32.61 L 46.08 32.61 L 46.08 202.79 L 256 202.79 L 256 215.47 L 46.08 215.47 L 46.08 248.87 L 33.4 248.87 L 33.4 215.47 L 0 215.47 L 0 202.79 L 33.4 202.79 Z"/></g><g id="Group_11"><path id="Vector_9" fill="url(#wps{afa8009b-a1d7-4e08-a49b-8a6da403d2db}_solid@Background1_0.00@Background1_0.00)" fill-opacity="1" d="M 209.92 190.11 L 209.92 177.43 L 216.26 177.43 L 216.26 190.11 L 209.92 190.11 Z"/></g><g id="Group_12"><path id="Vector_10" fill="url(#wps{afa8009b-a1d7-4e08-a49b-8a6da403d2db}_solid@Background1_0.00@Background1_0.00)" fill-opacity="1" d="M 209.92 112.09 L 209.92 97.83 L 216.26 97.83 L 216.26 112.09 L 209.92 112.09 Z"/></g><g id="Group_13"><path id="Vector_11" fill="url(#wps{afa8009b-a1d7-4e08-a49b-8a6da403d2db}_solid@Background1_0.00@Background1_0.00)" fill-opacity="1" d="M 92.28 164.63 L 92.28 150.37 L 98.62 150.37 L 98.62 164.63 L 92.28 164.63 Z"/></g><g id="Group_14"><path id="Vector_12" fill="url(#wps{afa8009b-a1d7-4e08-a49b-8a6da403d2db}_solid@Background1_0.00@Background1_0.00)" fill-opacity="1" d="M 98.62 177.31 L 98.62 190 L 92.28 190 L 92.28 177.31 L 98.62 177.31 Z"/></g><g id="Group_15"><path id="Vector_13" fill="url(#wps{afa8009b-a1d7-4e08-a49b-8a6da403d2db}_solid@Background1_0.00@Background1_0.00)" fill-opacity="1" d="M 163.84 121.72 C 163.84 124.89 162.26 129.65 157.5 131.23 L 157.5 137.57 L 151.16 137.57 L 151.16 131.23 C 147.99 129.65 144.82 124.89 144.82 121.72 C 144.82 115.38 149.58 112.21 154.33 112.21 C 160.55 112.09 163.84 115.38 163.84 121.72 Z"/></g><g id="Group_16"><path id="Vector_14" fill="url(#wps{afa8009b-a1d7-4e08-a49b-8a6da403d2db}_solid@Background1_0.00@Background1_0.00)" fill-opacity="1" d="M 98.62 124.89 L 98.62 137.57 L 92.28 137.57 L 92.28 124.89 L 98.62 124.89 Z"/></g></g></g></g></svg>
