<?xml version="1.0" encoding="UTF-8" standalone="yes"?><svg id="图层_1" xmlns="http://www.w3.org/2000/svg" xmlns:xlink="http://www.w3.org/1999/xlink" version="1.2" baseProfile="tiny" x="0" y="0" width="256" height="256" viewBox="0 0 256 256"><defs><linearGradient id="wps{0b26b033-4f82-4ad9-92a1-7d4063878813}_solid@Accent1_0.00@Accent1_0.00" x1="0" y1="0.5" x2="1" y2="0.5" spreadMethod="pad" gradientUnits="userSpaceOnUse"><stop offset="0" stop-color="#335ca7" stop-opacity="1"/><stop offset="1" stop-color="#335ca7" stop-opacity="1"/></linearGradient></defs><defs/><defs/><g><defs><rect id="SVGID_1_" fill="url(#wps{0b26b033-4f82-4ad9-92a1-7d4063878813}_solid@Accent1_0.00@Accent1_0.00)" fill-opacity="1" x="0" y="0" width="256" height="256"/></defs><clipPath id="SVGID_2_" clipPathUnits="userSpaceOnUse"><use x="0" y="0" xlink:href="#SVGID_1_"/></clipPath><g clip-path="url(#SVGID_2_)"><g><g><g><path fill="url(#wps{0b26b033-4f82-4ad9-92a1-7d4063878813}_solid@Accent1_0.00@Accent1_0.00)" fill-opacity="1" d="M 28.326 242.072 C 21.961 242.072 15.915 239.614 11.317 235.131 C 6.643 230.573 4.023 224.469 3.941 217.942 C 3.939 217.733 3.939 217.53 3.941 217.329 L 3.941 143.761 C 3.941 141.69 5.62 140.011 7.691 140.011 L 248.311 140.011 C 250.382 140.011 252.061 141.69 252.061 143.761 L 252.061 217.371 C 252.165 223.819 249.729 229.979 245.201 234.655 C 240.673 239.332 234.595 241.965 228.087 242.069 C 227.865 242.072 227.647 242.074 227.423 242.071 L 28.64 242.071 C 28.535 242.071 28.431 242.072 28.326 242.072 M 11.44 147.51 L 11.44 217.852 C 11.497 222.371 13.313 226.602 16.552 229.761 C 19.792 232.919 24.033 234.615 28.593 234.571 L 227.46 234.571 C 227.657 234.574 227.812 234.572 227.966 234.569 C 232.47 234.497 236.677 232.674 239.812 229.438 C 242.947 226.201 244.633 221.936 244.56 217.431 L 244.56 147.51 L 11.44 147.51"/></g><g><path fill="url(#wps{0b26b033-4f82-4ad9-92a1-7d4063878813}_solid@Accent1_0.00@Accent1_0.00)" fill-opacity="1" d="M 248.31 147.55 C 246.239 147.55 244.56 145.871 244.56 143.8 L 244.56 63.75 L 11.44 63.75 L 11.44 143.76 C 11.44 145.831 9.761 147.51 7.69 147.51 C 5.619 147.51 3.94 145.831 3.94 143.76 L 3.94 60 C 3.94 57.929 5.619 56.25 7.69 56.25 L 248.31 56.25 C 250.381 56.25 252.06 57.929 252.06 60 L 252.06 143.8 C 252.06 145.871 250.381 147.55 248.31 147.55 Z"/></g><path fill="url(#wps{0b26b033-4f82-4ad9-92a1-7d4063878813}_solid@Accent1_0.00@Accent1_0.00)" fill-opacity="1" d="M 60 63.75 C 57.929 63.75 56.25 62.071 56.25 60 L 56.25 49.49 C 56.25 47.419 57.929 45.74 60 45.74 L 76.97 45.74 L 76.97 39 C 76.968 38.948 76.967 38.809 76.967 38.669 C 77.022 30.941 83.32 24.699 91.026 24.699 C 91.06 24.699 91.093 24.699 91.127 24.699 L 101.481 24.699 C 103.552 24.699 105.231 26.378 105.231 28.449 C 105.231 30.52 103.552 32.199 101.481 32.199 L 91.1 32.199 C 91.084 32.199 91.068 32.199 91.053 32.199 C 87.431 32.199 84.493 35.112 84.468 38.713 L 84.47 38.912 L 84.47 49.49 C 84.47 51.561 82.791 53.24 80.72 53.24 L 63.75 53.24 L 63.75 60 C 63.75 62.071 62.071 63.75 60 63.75 Z"/><g><path fill="url(#wps{0b26b033-4f82-4ad9-92a1-7d4063878813}_solid@Accent1_0.00@Accent1_0.00)" fill-opacity="1" d="M 153.75 42.96 L 101.48 42.96 C 99.409 42.96 97.73 41.281 97.73 39.21 L 97.73 17.68 C 97.73 15.609 99.409 13.93 101.48 13.93 L 153.75 13.93 C 155.821 13.93 157.5 15.609 157.5 17.68 L 157.5 39.21 C 157.5 41.281 155.821 42.96 153.75 42.96 M 105.23 35.46 L 150 35.46 L 150 21.43 L 105.23 21.43 L 105.23 35.46"/></g><path fill="url(#wps{0b26b033-4f82-4ad9-92a1-7d4063878813}_solid@Accent1_0.00@Accent1_0.00)" fill-opacity="1" d="M 196 63.75 C 193.929 63.75 192.25 62.071 192.25 60 L 192.25 53.24 L 174.9 53.24 C 172.829 53.24 171.15 51.561 171.15 49.49 L 171.15 39.02 C 171.15 34.431 168.916 32.2 164.32 32.2 L 153.75 32.2 C 151.679 32.2 150 30.521 150 28.45 C 150 26.379 151.679 24.7 153.75 24.7 L 164.32 24.7 C 173.025 24.7 178.65 30.321 178.65 39.02 L 178.65 45.74 L 196 45.74 C 198.071 45.74 199.75 47.419 199.75 49.49 L 199.75 60 C 199.75 62.071 198.071 63.75 196 63.75 Z"/><path fill="url(#wps{0b26b033-4f82-4ad9-92a1-7d4063878813}_solid@Accent1_0.00@Accent1_0.00)" fill-opacity="1" d="M 91.48 179.03 L 60 179.03 C 57.929 179.03 56.25 177.351 56.25 175.28 L 56.25 122.23 C 56.25 120.159 57.929 118.48 60 118.48 L 91.48 118.48 C 93.551 118.48 95.23 120.159 95.23 122.23 L 95.23 175.28 C 95.23 177.352 93.551 179.03 91.48 179.03 M 63.75 171.53 L 87.73 171.53 L 87.73 125.98 L 63.75 125.98 L 63.75 171.53"/><path fill="url(#wps{0b26b033-4f82-4ad9-92a1-7d4063878813}_solid@Accent1_0.00@Accent1_0.00)" fill-opacity="1" d="M 196 179.03 L 164.52 179.03 C 162.449 179.03 160.77 177.351 160.77 175.28 L 160.77 122.23 C 160.77 120.159 162.449 118.48 164.52 118.48 L 196 118.48 C 198.071 118.48 199.75 120.159 199.75 122.23 L 199.75 175.28 C 199.75 177.352 198.071 179.03 196 179.03 M 168.27 171.53 L 192.25 171.53 L 192.25 125.98 L 168.27 125.98 L 168.27 171.53"/></g></g></g></g></svg>
