<?xml version="1.0" encoding="UTF-8" standalone="yes"?><svg class="icon" xmlns="http://www.w3.org/2000/svg" xmlns:xlink="http://www.w3.org/1999/xlink" version="1.2" baseProfile="tiny" x="0" y="0" width="200" height="200" viewBox="0 0 1024 1024"><defs><linearGradient id="wps{c3e30f5e-b524-4c16-af71-c61f1823f098}_solid@Background1_0.00@Background1_0.00" x1="0" y1="0.5" x2="1" y2="0.5" spreadMethod="pad" gradientUnits="userSpaceOnUse"><stop offset="0" stop-color="#ffffff" stop-opacity="1"/><stop offset="1" stop-color="#ffffff" stop-opacity="1"/></linearGradient><linearGradient id="wps{659b374e-9103-42ef-b38d-98b4f7387fd4}_solid@Background1_0.00@Background1_0.00" x1="0" y1="0.5" x2="1" y2="0.5" spreadMethod="pad" gradientUnits="userSpaceOnUse"><stop offset="0" stop-color="#ffffff" stop-opacity="1"/><stop offset="1" stop-color="#ffffff" stop-opacity="1"/></linearGradient></defs><defs/><defs/><path fill="url(#wps{c3e30f5e-b524-4c16-af71-c61f1823f098}_solid@Background1_0.00@Background1_0.00)" fill-opacity="0.4" d="M 512 768 C 502.154 768 492.308 766.031 482.462 760.123 L 206.769 602.585 C 189.046 592.738 177.231 573.046 177.231 551.385 L 177.231 236.308 C 177.231 214.646 189.046 194.954 206.769 185.108 L 482.462 27.5692 C 500.185 17.7231 521.846 17.7231 541.538 27.5692 L 817.231 185.108 C 834.954 194.954 846.769 214.646 846.769 236.308 L 846.769 551.385 C 846.769 573.046 834.954 592.738 817.231 602.585 L 541.538 760.123 C 531.692 766.031 521.846 768 512 768 M 512 59.0769 C 508.062 59.0769 506.092 59.0769 502.154 61.0462 L 226.462 218.585 C 220.554 222.523 216.615 230.4 216.615 236.308 L 216.615 551.385 C 216.615 559.262 220.554 565.169 226.462 569.108 L 502.154 726.646 C 508.062 730.585 515.938 730.585 521.846 726.646 L 797.538 569.108 C 803.446 565.169 807.385 559.262 807.385 551.385 L 807.385 236.308 C 807.385 228.431 803.446 222.523 797.538 218.585 L 521.846 61.0462 C 517.908 59.0769 515.938 59.0769 512 59.0769"/><path fill="url(#wps{c3e30f5e-b524-4c16-af71-c61f1823f098}_solid@Background1_0.00@Background1_0.00)" fill-opacity="0.4" d="M 512 1004.31 C 240.246 1004.31 19.6923 838.892 19.6923 636.062 C 19.6923 576.985 39.3846 517.908 74.8308 466.708 C 80.7385 456.862 92.5538 454.892 102.4 460.8 C 112.246 466.708 114.215 478.523 108.308 488.369 C 74.8308 533.662 59.0769 582.892 59.0769 636.062 C 59.0769 817.231 261.908 964.923 512 964.923 C 762.092 964.923 964.923 817.231 964.923 636.062 C 964.923 582.892 947.2 531.692 913.723 484.431 C 907.815 476.554 909.785 462.769 917.662 456.862 C 927.508 450.954 939.323 452.923 945.231 460.8 C 982.646 513.969 1002.34 573.046 1002.34 634.092 C 1004.31 838.892 783.754 1004.31 512 1004.31 Z"/><path fill="url(#wps{c3e30f5e-b524-4c16-af71-c61f1823f098}_solid@Background1_0.00@Background1_0.00)" fill-opacity="0.4" d="M 512 756.185 C 500.185 756.185 492.308 748.308 492.308 736.492 L 492.308 382.031 C 492.308 370.215 500.185 362.338 512 362.338 C 523.815 362.338 531.692 370.215 531.692 382.031 L 531.692 736.492 C 531.692 746.338 523.815 756.185 512 756.185 Z"/><path fill="url(#wps{c3e30f5e-b524-4c16-af71-c61f1823f098}_solid@Background1_0.00@Background1_0.00)" fill-opacity="0.4" d="M 512 401.723 C 504.123 401.723 498.215 397.785 494.277 391.877 C 490.338 382.031 492.308 370.215 502.154 366.277 L 811.323 210.708 C 821.169 206.769 832.985 208.738 836.923 218.585 C 840.862 228.431 838.892 240.246 829.046 244.185 L 519.877 399.754 C 517.908 399.754 515.938 401.723 512 401.723 Z"/><path fill="url(#wps{c3e30f5e-b524-4c16-af71-c61f1823f098}_solid@Background1_0.00@Background1_0.00)" fill-opacity="0.4" d="M 510.031 401.723 C 506.092 401.723 504.123 401.723 502.154 399.754 L 192.985 244.185 C 183.138 240.246 179.2 226.462 185.108 218.585 C 191.015 210.708 200.862 204.8 210.708 210.708 L 519.877 366.277 C 529.723 370.215 533.662 384 527.754 391.877 C 523.815 397.785 515.938 401.723 510.031 401.723 Z"/></svg>
