<?xml version="1.0" encoding="UTF-8" standalone="yes"?><svg class="icon" xmlns="http://www.w3.org/2000/svg" xmlns:xlink="http://www.w3.org/1999/xlink" version="1.2" baseProfile="tiny" x="0" y="0" width="200" height="200" viewBox="0 0 1024 1024"><defs><linearGradient id="wps{fd673029-37f0-43b3-9542-5ea4e4d20460}_solid@Background1_0.00@Background1_0.00" x1="0" y1="0.5" x2="1" y2="0.5" spreadMethod="pad" gradientUnits="userSpaceOnUse"><stop offset="0" stop-color="#ffffff" stop-opacity="1"/><stop offset="1" stop-color="#ffffff" stop-opacity="1"/></linearGradient></defs><defs/><path fill="url(#wps{fd673029-37f0-43b3-9542-5ea4e4d20460}_solid@Background1_0.00@Background1_0.00)" fill-opacity="1" d="M 866.462 1012.18 L 608.492 1012.18 C 596.677 1012.18 588.8 1004.31 588.8 992.492 C 588.8 980.677 596.677 972.8 608.492 972.8 L 866.462 972.8 C 921.6 972.8 964.923 929.477 964.923 874.338 L 964.923 634.092 C 964.923 622.277 972.8 614.4 984.615 614.4 C 996.431 614.4 1004.31 622.277 1004.31 634.092 L 1004.31 874.338 C 1004.31 949.169 943.262 1012.18 866.462 1012.18 M 208.738 1012.18 L 157.538 1012.18 C 80.7385 1012.18 19.6923 951.138 19.6923 874.338 L 19.6923 165.415 C 19.6923 88.6154 80.7385 27.5692 157.538 27.5692 L 866.462 27.5692 C 943.262 27.5692 1004.31 88.6154 1004.31 165.415 L 1004.31 263.877 C 1004.31 275.692 996.431 283.569 984.615 283.569 C 972.8 283.569 964.923 275.692 964.923 263.877 L 964.923 165.415 C 964.923 110.277 921.6 66.9538 866.462 66.9538 L 157.538 66.9538 C 102.4 66.9538 59.0769 110.277 59.0769 165.415 L 59.0769 874.338 C 59.0769 929.477 102.4 972.8 157.538 972.8 L 208.738 972.8 C 220.554 972.8 228.431 980.677 228.431 992.492 C 228.431 1004.31 220.554 1012.18 208.738 1012.18"/><path fill="url(#wps{fd673029-37f0-43b3-9542-5ea4e4d20460}_solid@Background1_0.00@Background1_0.00)" fill-opacity="1" d="M 204.8 486.4 C 198.892 486.4 194.954 484.431 191.015 480.492 C 183.138 472.615 183.138 460.8 191.015 452.923 L 315.077 328.862 C 338.708 305.231 376.123 305.231 397.785 328.862 L 494.277 425.354 C 502.154 433.231 513.969 433.231 521.846 425.354 L 805.415 145.723 C 813.292 137.846 825.108 137.846 832.985 145.723 C 840.862 153.6 840.862 165.415 832.985 173.292 L 551.385 452.923 C 527.754 476.554 490.338 476.554 468.677 452.923 L 372.185 356.431 C 364.308 348.554 352.492 348.554 344.615 356.431 L 220.554 480.492 C 214.646 484.431 208.738 486.4 204.8 486.4 Z"/><path fill="url(#wps{fd673029-37f0-43b3-9542-5ea4e4d20460}_solid@Background1_0.00@Background1_0.00)" fill-opacity="1" d="M 346.585 1012.18 C 334.769 1012.18 322.954 1008.25 315.077 1000.37 C 303.262 988.554 299.323 970.831 305.231 951.138 L 346.585 799.508 C 352.492 779.815 366.277 754.215 382.031 740.431 L 771.938 350.523 C 819.2 303.262 892.062 297.354 935.385 340.677 L 976.738 382.031 C 1018.09 423.385 1014.15 498.215 966.892 545.477 L 575.015 933.415 C 561.231 947.2 535.631 962.954 515.938 968.862 L 364.308 1010.22 C 356.431 1010.22 350.523 1012.18 346.585 1012.18 M 860.554 348.554 C 838.892 348.554 815.262 358.4 797.538 376.123 L 407.631 766.031 C 397.785 775.877 385.969 795.569 382.031 807.385 L 340.677 959.015 C 338.708 964.923 340.677 968.862 340.677 968.862 C 340.677 968.862 344.615 970.831 350.523 968.862 L 502.154 927.508 C 513.969 923.569 533.662 911.754 543.508 901.908 L 933.415 512 C 964.923 480.492 970.831 431.262 943.262 403.692 L 905.846 366.277 C 894.031 354.462 878.277 348.554 860.554 348.554"/><path fill="url(#wps{fd673029-37f0-43b3-9542-5ea4e4d20460}_solid@Background1_0.00@Background1_0.00)" fill-opacity="1" d="M 676.116 468.972 L 703.961 441.127 L 871.05 608.217 L 843.225 636.062 L 676.116 468.972 Z"/></svg>
