<?xml version="1.0" encoding="UTF-8" standalone="yes"?><svg class="icon" xmlns="http://www.w3.org/2000/svg" xmlns:xlink="http://www.w3.org/1999/xlink" version="1.2" baseProfile="tiny" x="0" y="0" width="200" height="200" viewBox="0 0 1024 1024"><defs><linearGradient id="wps{0d474237-0ee2-4489-9caf-f6cbf8ad756b}_solid@Background1_0.00@Background1_0.00" x1="0" y1="0.5" x2="1" y2="0.5" spreadMethod="pad" gradientUnits="userSpaceOnUse"><stop offset="0" stop-color="#ffffff" stop-opacity="1"/><stop offset="1" stop-color="#ffffff" stop-opacity="1"/></linearGradient></defs><defs/><path fill="url(#wps{0d474237-0ee2-4489-9caf-f6cbf8ad756b}_solid@Background1_0.00@Background1_0.00)" fill-opacity="1" d="M 800.87 250.88 L 774.042 250.88 L 774.042 212.429 C 773.957 145.136 719.427 90.6062 652.134 90.5216 L 218.266 90.5216 C 150.973 90.6062 96.443 145.136 96.3584 212.429 L 96.3584 788.48 C 96.4713 867.063 160.162 930.731 238.746 930.816 L 798.72 930.816 C 869.943 930.731 927.659 873.015 927.744 801.792 L 927.744 377.856 C 927.772 307.757 870.969 250.908 800.87 250.88 M 157.798 788.48 L 157.798 212.429 C 157.855 179.057 184.894 152.018 218.266 151.962 L 652.134 151.962 C 685.506 152.018 712.545 179.057 712.602 212.429 L 712.602 869.171 L 238.746 869.171 C 194.151 869.143 157.968 833.074 157.798 788.48 M 866.202 801.792 C 866.173 839.106 835.932 869.348 798.618 869.376 L 774.042 869.376 L 774.042 312.32 L 800.87 312.32 C 837.008 312.377 866.258 341.718 866.202 377.856 L 866.202 801.792"/><path fill="url(#wps{0d474237-0ee2-4489-9caf-f6cbf8ad756b}_solid@Background1_0.00@Background1_0.00)" fill-opacity="1" d="M 576.205 218.214 L 299.366 218.214 C 282.4 218.214 268.646 231.968 268.646 248.934 C 268.646 265.901 282.4 279.654 299.366 279.654 L 576.205 279.654 C 593.171 279.654 606.925 265.901 606.925 248.934 C 606.925 231.968 593.171 218.214 576.205 218.214 M 576.205 331.981 L 299.366 331.981 C 282.4 331.981 268.646 345.735 268.646 362.701 C 268.646 379.667 282.4 393.421 299.366 393.421 L 576.205 393.421 C 593.171 393.421 606.925 379.667 606.925 362.701 C 606.925 345.735 593.171 331.981 576.205 331.981 M 571.187 612.147 C 588.153 612.147 601.907 598.393 601.907 581.427 C 601.907 564.461 588.153 550.707 571.187 550.707 L 510.925 550.707 L 556.083 510.106 C 564.958 502.985 569.17 491.543 567.03 480.368 C 564.89 469.193 556.75 460.116 545.872 456.777 C 534.995 453.439 523.164 456.385 515.123 464.435 L 437.811 533.811 L 360.602 464.435 C 352.561 456.385 340.729 453.439 329.852 456.777 C 318.975 460.116 310.834 469.193 308.695 480.368 C 306.555 491.543 310.767 502.985 319.642 510.106 L 364.8 550.707 L 304.435 550.707 C 287.469 550.707 273.715 564.461 273.715 581.427 C 273.715 598.393 287.469 612.147 304.435 612.147 L 407.091 612.147 L 407.091 647.987 L 304.435 647.987 C 287.469 647.987 273.715 661.741 273.715 678.707 C 273.715 695.673 287.469 709.427 304.435 709.427 L 407.091 709.427 L 407.091 787.456 C 407.091 804.422 420.845 818.176 437.811 818.176 C 454.777 818.176 468.531 804.422 468.531 787.456 L 468.531 709.478 L 570.931 709.478 C 587.897 709.478 601.651 695.725 601.651 678.758 C 601.651 661.792 587.897 648.038 570.931 648.038 L 468.531 648.038 L 468.531 612.198 L 571.187 612.147"/></svg>
