<?xml version="1.0" encoding="UTF-8" standalone="yes"?><svg class="icon" xmlns="http://www.w3.org/2000/svg" xmlns:xlink="http://www.w3.org/1999/xlink" version="1.2" baseProfile="tiny" x="0" y="0" width="200" height="200" viewBox="0 0 1024 1024"><defs><linearGradient id="wps{f5f78047-bebe-438f-ab5e-2a6fc01b6d51}_solid@Background1_0.00@Background1_0.00" x1="0" y1="0.5" x2="1" y2="0.5" spreadMethod="pad" gradientUnits="userSpaceOnUse"><stop offset="0" stop-color="#ffffff" stop-opacity="1"/><stop offset="1" stop-color="#ffffff" stop-opacity="1"/></linearGradient></defs><defs/><path fill="url(#wps{f5f78047-bebe-438f-ab5e-2a6fc01b6d51}_solid@Background1_0.00@Background1_0.00)" fill-opacity="1" d="M 387.277 99.3792 L 213.197 99.3792 C 150.848 99.5765 100.385 150.131 100.301 212.48 L 100.301 386.56 C 100.357 449.009 150.953 499.627 213.402 499.712 L 387.482 499.712 C 449.93 499.627 500.526 449.009 500.582 386.56 L 500.582 212.48 C 500.498 149.971 449.786 99.3509 387.277 99.3792 M 438.938 386.355 C 438.938 414.895 415.817 438.039 387.277 438.067 L 213.197 438.067 C 184.669 438.011 161.564 414.883 161.536 386.355 L 161.536 212.275 C 161.705 183.767 184.893 160.762 213.402 160.819 L 387.482 160.819 C 415.921 160.96 438.91 184.04 438.938 212.48 L 438.938 386.355 M 808.243 524.493 L 634.163 524.493 C 571.714 524.577 521.119 575.196 521.062 637.645 L 521.062 811.725 C 521.147 874.154 571.734 924.741 634.163 924.826 L 808.243 924.826 C 838.307 924.853 867.148 912.926 888.41 891.672 C 909.673 870.419 921.614 841.584 921.6 811.52 L 921.6 637.44 C 921.431 574.971 870.712 524.436 808.243 524.493 M 860.16 811.52 C 860.104 840.028 837.007 863.124 808.499 863.181 L 634.419 863.181 C 605.899 863.153 582.787 840.04 582.758 811.52 L 582.758 637.44 C 582.758 608.9 605.879 585.756 634.419 585.728 L 808.499 585.728 C 837.107 585.784 860.245 609.037 860.16 637.645 L 860.16 811.52 M 786.125 99.3792 L 659.661 99.3792 C 642.695 99.3792 628.941 113.133 628.941 130.099 C 628.941 147.065 642.695 160.819 659.661 160.819 L 786.125 160.819 C 828.149 160.876 862.203 194.929 862.259 236.954 L 862.259 361.882 C 862.259 378.848 876.013 392.602 892.979 392.602 C 909.945 392.602 923.699 378.848 923.699 361.882 L 923.699 236.954 C 923.615 161.008 862.07 99.4639 786.125 99.3792 M 376.32 863.181 L 238.08 863.181 C 196.056 863.124 162.002 829.071 161.946 787.046 L 161.946 636.621 C 161.946 619.655 148.192 605.901 131.226 605.901 C 114.259 605.901 100.506 619.655 100.506 636.621 L 100.506 787.046 C 100.59 862.992 162.135 924.536 238.08 924.621 L 376.32 924.621 C 393.286 924.621 407.04 910.867 407.04 893.901 C 407.04 876.935 393.286 863.181 376.32 863.181"/></svg>
