<?xml version="1.0" encoding="UTF-8" standalone="yes"?><svg class="icon" xmlns="http://www.w3.org/2000/svg" xmlns:xlink="http://www.w3.org/1999/xlink" version="1.2" baseProfile="tiny" x="0" y="0" width="200" height="200" viewBox="0 0 1024 1024"><defs><linearGradient id="wps{d4cf6f07-bb2a-48fc-9236-9e204f437845}_solid@Background1_0.00@Background1_0.00" x1="0" y1="0.5" x2="1" y2="0.5" spreadMethod="pad" gradientUnits="userSpaceOnUse"><stop offset="0" stop-color="#ffffff" stop-opacity="1"/><stop offset="1" stop-color="#ffffff" stop-opacity="1"/></linearGradient><linearGradient id="wps{85976bb5-aa48-45bc-bf70-65cc1482b074}_solid@Text1_0.00@Text1_0.00" x1="0" y1="0.5" x2="1" y2="0.5" spreadMethod="pad" gradientUnits="userSpaceOnUse"><stop offset="0" stop-color="#000000" stop-opacity="1"/><stop offset="1" stop-color="#000000" stop-opacity="1"/></linearGradient></defs><defs/><defs/><path fill="url(#wps{d4cf6f07-bb2a-48fc-9236-9e204f437845}_solid@Background1_0.00@Background1_0.00)" fill-opacity="1" d="M 984.615 1004.31 L 39.3846 1004.31 C 28.5538 1004.31 19.6923 995.446 19.6923 984.615 C 19.6923 973.785 28.5538 964.923 39.3846 964.923 L 984.615 964.923 C 995.446 964.923 1004.31 973.785 1004.31 984.615 C 1004.31 995.446 995.446 1004.31 984.615 1004.31 M 265.846 925.538 L 108.308 925.538 C 75.8154 925.538 49.2308 898.954 49.2308 866.462 L 49.2308 78.7692 C 49.2308 46.2769 75.8154 19.6923 108.308 19.6923 L 265.846 19.6923 C 298.338 19.6923 324.923 46.2769 324.923 78.7692 L 324.923 866.462 C 324.923 898.954 298.338 925.538 265.846 925.538 M 108.308 59.0769 C 97.4769 59.0769 88.6154 67.9385 88.6154 78.7692 L 88.6154 866.462 C 88.6154 877.292 97.4769 886.154 108.308 886.154 L 265.846 886.154 C 276.677 886.154 285.538 877.292 285.538 866.462 L 285.538 78.7692 C 285.538 67.9385 276.677 59.0769 265.846 59.0769 L 108.308 59.0769 M 590.769 925.538 L 433.231 925.538 C 400.738 925.538 374.154 898.954 374.154 866.462 L 374.154 315.077 C 374.154 282.585 400.738 256 433.231 256 L 590.769 256 C 623.262 256 649.846 282.585 649.846 315.077 L 649.846 866.462 C 649.846 898.954 623.262 925.538 590.769 925.538 M 433.231 295.385 C 422.4 295.385 413.538 304.246 413.538 315.077 L 413.538 866.462 C 413.538 877.292 422.4 886.154 433.231 886.154 L 590.769 886.154 C 601.6 886.154 610.462 877.292 610.462 866.462 L 610.462 315.077 C 610.462 304.246 601.6 295.385 590.769 295.385 L 433.231 295.385 M 915.692 925.538 L 758.154 925.538 C 725.662 925.538 699.077 898.954 699.077 866.462 L 699.077 196.923 C 699.077 164.431 725.662 137.846 758.154 137.846 L 915.692 137.846 C 948.185 137.846 974.769 164.431 974.769 196.923 L 974.769 866.462 C 974.769 898.954 948.185 925.538 915.692 925.538 M 758.154 177.231 C 747.323 177.231 738.462 186.092 738.462 196.923 L 738.462 866.462 C 738.462 877.292 747.323 886.154 758.154 886.154 L 915.692 886.154 C 926.523 886.154 935.385 877.292 935.385 866.462 L 935.385 196.923 C 935.385 186.092 926.523 177.231 915.692 177.231 L 758.154 177.231"/></svg>
