<?xml version="1.0" encoding="UTF-8" standalone="yes"?><svg class="icon" xmlns="http://www.w3.org/2000/svg" xmlns:xlink="http://www.w3.org/1999/xlink" version="1.2" baseProfile="tiny" x="0" y="0" width="200" height="200" viewBox="0 0 1024 1024"><defs><linearGradient id="wps{b5fefeb6-f456-47fb-b8ba-e18bc59e3255}_solid@Accent1_0.00@Accent1_0.00" x1="0" y1="0.5" x2="1" y2="0.5" spreadMethod="pad" gradientUnits="userSpaceOnUse"><stop offset="0" stop-color="#335ca7" stop-opacity="1"/><stop offset="1" stop-color="#335ca7" stop-opacity="1"/></linearGradient><linearGradient id="wps{f60d8878-8a7c-4dbc-9366-bc025948c0bb}_solid@Background1_0.00@Background1_0.00" x1="0" y1="0.5" x2="1" y2="0.5" spreadMethod="pad" gradientUnits="userSpaceOnUse"><stop offset="0" stop-color="#ffffff" stop-opacity="1"/><stop offset="1" stop-color="#ffffff" stop-opacity="1"/></linearGradient></defs><defs/><defs/><path fill="url(#wps{b5fefeb6-f456-47fb-b8ba-e18bc59e3255}_solid@Accent1_0.00@Accent1_0.00)" fill-opacity="1" d="M 790.403 756.8 C 763.403 756.8 741.503 777.9 741.503 803.9 C 741.503 829.9 763.503 850.9 790.503 850.9 C 817.503 850.9 839.403 829.9 839.403 803.8 C 839.503 777.8 817.603 756.8 790.403 756.8 Z"/><path fill="url(#wps{b5fefeb6-f456-47fb-b8ba-e18bc59e3255}_solid@Accent1_0.00@Accent1_0.00)" fill-opacity="1" d="M 737.603 1024 C 726.203 1024 714.803 1021.2 704.303 1015.4 L 644.003 981.9 C 627.903 972.9 616.503 958.4 611.803 941 C 608.703 929.3 608.903 917.3 612.303 906 L 609.603 901.5 C 579.503 894.7 557.003 868.4 557.003 837.1 L 557.003 770.3 C 557.003 738.9 579.603 712.6 609.803 705.9 C 610.603 704.5 611.403 703.2 612.203 701.9 C 608.903 691.6 608.503 678.8 611.803 666.3 C 616.403 648.8 627.903 634.3 644.003 625.4 L 704.303 591.9 C 731.903 576.5 766.203 582.4 787.303 604 C 789.403 604 791.403 603.9 793.503 604 C 814.203 582.4 848.903 576.4 876.703 591.9 L 937.103 625.4 C 953.203 634.4 964.603 648.9 969.303 666.3 C 972.403 678.1 972.203 690.2 968.703 701.6 C 969.603 703 970.403 704.4 971.203 705.8 C 984.003 708.6 995.703 714.9 1005 724.3 C 1017.4 736.8 1024.1 753.2 1024 770.6 L 1024 837.3 C 1024 868.6 1001.5 894.9 971.403 901.7 L 968.703 906.2 C 972.003 917.4 972.203 929.4 969.203 941 C 964.603 958.5 953.103 973 937.003 981.9 L 876.603 1015.4 C 849.103 1030.5 815.103 1024.9 794.003 1003.7 L 786.803 1003.7 C 773.903 1016.8 755.903 1024 737.603 1024 M 818.403 953.2 L 826.203 966.2 C 831.503 975 843.503 977.9 853.103 972.7 L 913.403 939.3 C 917.803 936.8 920.903 933 922.103 928.4 C 922.903 925.5 923.203 920.9 920.303 916.1 L 911.903 902.2 L 921.403 889.1 C 926.203 882.5 930.503 875.5 934.003 868.2 L 940.703 854.5 L 955.903 854.5 C 966.603 854.5 975.203 846.7 975.203 837.1 L 975.203 770.3 C 975.203 764.7 972.603 760.8 970.303 758.6 C 966.603 754.9 961.503 752.8 956.003 752.8 L 940.703 752.8 L 934.003 739.4 C 930.203 732 926.003 724.9 921.103 718.1 L 912.603 706.1 L 919.203 693 C 923.203 686.2 922.903 681.7 922.103 678.7 C 920.903 674.2 917.803 670.3 913.403 667.8 L 853.003 634.5 C 843.803 629.4 831.503 632.3 826.303 641 L 818.403 654.2 L 802.903 653.2 C 794.803 652.5 786.403 652.5 778.103 653.2 L 763.703 654.5 L 755.703 642.5 C 749.603 632.5 737.303 629.4 728.103 634.6 L 667.603 668 C 663.203 670.5 660.103 674.3 658.903 678.9 C 658.103 681.8 657.803 686.4 660.703 691.2 L 662.803 695.7 L 667.103 707.8 L 659.703 718.6 C 654.803 725.2 650.703 732.4 646.903 739.8 L 640.103 753.2 L 625.103 753.2 C 614.303 753.2 605.703 760.9 605.703 770.4 L 605.703 837.2 C 605.703 846.8 614.303 854.6 624.803 854.6 L 640.003 854.6 L 646.803 868.3 C 650.403 875.6 654.703 882.6 659.503 889.3 L 664.003 895.7 L 664.003 910.3 L 660.503 916.3 C 657.603 921.1 657.903 925.6 658.703 928.6 C 659.903 933.1 663.003 937 667.403 939.5 L 727.703 973 C 737.003 978.1 749.203 975.1 754.503 966.4 L 762.303 953.5 L 777.403 954.8 C 785.803 955.5 794.903 955.5 803.003 954.8 L 818.403 953.2 M 395.403 425.2 C 273.903 425.2 175.103 329.8 175.103 212.6 C 175.103 95.4 273.903 0 395.403 0 C 516.903 0 615.703 95.4 615.703 212.6 C 615.703 329.8 516.903 425.2 395.403 425.2 M 395.403 48.8 C 300.803 48.8 223.803 122.3 223.803 212.6 C 223.803 302.9 300.803 376.4 395.403 376.4 C 490.003 376.4 567.003 303 567.003 212.6 C 567.003 122.2 490.003 48.8 395.403 48.8"/><path fill="url(#wps{b5fefeb6-f456-47fb-b8ba-e18bc59e3255}_solid@Accent1_0.00@Accent1_0.00)" fill-opacity="1" d="M 123.703 986.4 C 117.603 986.4 111.503 984.1 106.703 979.5 C 37.5031 912.4 -0.39687 823.3 0.00313 728.7 C 0.40313 634 39.2031 545.2 109.103 478.6 C 252.803 341.8 485.403 342.9 627.803 480.9 C 637.503 490.3 637.703 505.7 628.303 515.4 C 618.903 525.1 603.503 525.3 593.803 515.9 C 470.003 395.9 267.603 394.9 142.703 513.9 C 82.5031 571.2 49.1031 647.6 48.7031 728.9 C 48.3031 810.2 81.0031 886.8 140.603 944.6 C 150.303 954 150.503 969.4 141.103 979.1 C 136.403 984 130.103 986.4 123.703 986.4 Z"/></svg>
