<?xml version="1.0" encoding="UTF-8" standalone="yes"?><svg id="_图层_1" xmlns="http://www.w3.org/2000/svg" xmlns:xlink="http://www.w3.org/1999/xlink" version="1.2" baseProfile="tiny" x="0" y="0" width="256" height="256" viewBox="0 0 256 256"><defs><linearGradient id="wps{63c1b189-6b61-4560-a463-ab2b809ff3bc}_solid@Background1_0.00@Background1_0.00" x1="0" y1="0.5" x2="1" y2="0.5" spreadMethod="pad" gradientUnits="userSpaceOnUse"><stop offset="0" stop-color="#ffffff" stop-opacity="1"/><stop offset="1" stop-color="#ffffff" stop-opacity="1"/></linearGradient></defs><defs/><defs><clipPath id="clippath" clipPathUnits="userSpaceOnUse"><rect class="cls-1" fill="none" stroke-width="0" x="0" y="0" width="256" height="256"/></clipPath></defs><g class="cls-3" clip-path="url(#clippath)"><g id="_å_ç_å_å__10757387119.ç_è_"><g id="Group"><g id="Group_2"><path id="Vector" fill="url(#wps{63c1b189-6b61-4560-a463-ab2b809ff3bc}_solid@Background1_0.00@Background1_0.00)" fill-opacity="1" stroke-width="0" d="M 251.52 19.86 L 4.41 19.86 C 1.97 19.86 0 21.84 0 24.27 L 0 183.12 C 0 185.56 1.98 187.53 4.41 187.53 L 104.46 187.53 L 101.93 196.38 C 101.78 196.37 101.63 196.36 101.48 196.36 L 66.18 196.36 C 64.41 196.36 62.82 197.41 62.12 199.03 L 48.88 229.92 C 48.3 231.28 48.44 232.85 49.25 234.09 C 50.07 235.33 51.45 236.07 52.93 236.07 L 202.96 236.07 C 204.44 236.07 205.83 235.32 206.64 234.09 C 207.46 232.85 207.6 231.29 207.01 229.92 L 193.77 199.03 C 193.08 197.41 191.48 196.36 189.72 196.36 L 154.42 196.36 C 154.27 196.36 154.12 196.36 153.97 196.38 L 151.44 187.53 L 251.49 187.53 C 253.93 187.53 255.9 185.55 255.9 183.12 L 255.9 24.27 C 255.9 21.83 253.92 19.86 251.49 19.86 L 251.52 19.86 M 186.83 205.19 L 196.29 227.25 L 59.64 227.25 L 69.1 205.19 L 99.42 205.19 L 97.24 212.8 C 96.86 214.13 97.13 215.56 97.96 216.67 C 98.79 217.77 100.1 218.42 101.48 218.42 L 154.43 218.42 C 155.81 218.42 157.12 217.77 157.95 216.67 C 158.78 215.56 159.05 214.13 158.67 212.8 L 156.49 205.19 L 186.81 205.19 L 186.83 205.19 M 148.59 209.6 L 107.34 209.6 L 113.64 187.54 L 142.28 187.54 L 148.58 209.6 L 148.59 209.6 M 247.11 178.71 L 8.83 178.71 L 8.83 28.68 L 247.11 28.68 L 247.11 178.71"/></g><g id="Group_3"><path id="Vector_2" fill="url(#wps{63c1b189-6b61-4560-a463-ab2b809ff3bc}_solid@Background1_0.00@Background1_0.00)" fill-opacity="1" stroke-width="0" d="M 17.65 169.89 L 238.28 169.89 C 240.72 169.89 242.69 167.91 242.69 165.48 L 242.69 37.51 C 242.69 35.07 240.71 33.1 238.28 33.1 L 17.65 33.1 C 15.21 33.1 13.24 35.08 13.24 37.51 L 13.24 165.48 C 13.24 167.92 15.22 169.89 17.65 169.89 M 22.06 41.92 L 233.87 41.92 L 233.87 161.06 L 22.06 161.06 L 22.06 41.92"/></g></g></g></g></svg>
