<?xml version='1.0' encoding='utf-8'?>
<svg xmlns="http://www.w3.org/2000/svg" version="1.1" width="1280" height="720" viewBox="0 0 1280 720"><defs><linearGradient id="ggrad1" x1="0.5" y1="0" x2="0.5" y2="1"><stop offset="0" stop-color="#B8CFFF" /><stop offset="1" stop-color="#002576" /></linearGradient><linearGradient id="ggrad2" x1="0.5" y1="0" x2="0.5" y2="1"><stop offset="0" stop-color="#B8CFFF" /><stop offset="1" stop-color="#002576" /></linearGradient><linearGradient id="ggrad3" x1="0.5" y1="1" x2="0.5" y2="0"><stop offset="0" stop-color="#00329D" stop-opacity="0" /><stop offset="0.46" stop-color="#00329D" stop-opacity="0.13" /><stop offset="1" stop-color="#00329D" /></linearGradient><linearGradient id="ggrad4" x1="0.5" y1="1" x2="0.5" y2="0"><stop offset="0" stop-color="#B8CFFF" stop-opacity="0" /><stop offset="0.46" stop-color="#B8CFFF" stop-opacity="0.13" /><stop offset="1" stop-color="#B8CFFF" /></linearGradient><linearGradient id="ggrad5" x1="0.5" y1="1" x2="0.5" y2="0"><stop offset="0" stop-color="#00329D" stop-opacity="0" /><stop offset="0.46" stop-color="#00329D" stop-opacity="0.13" /><stop offset="1" stop-color="#00329D" /></linearGradient><linearGradient id="ggrad6" x1="0.5" y1="1" x2="0.5" y2="0"><stop offset="0" stop-color="#B8CFFF" stop-opacity="0" /><stop offset="0.46" stop-color="#B8CFFF" stop-opacity="0.13" /><stop offset="1" stop-color="#B8CFFF" /></linearGradient></defs><rect x="0" y="0" width="1280" height="720" fill="#FFFFFF" />
<g id="shape-2" data-name="熊大的PPT宝库1">
<rect x="36.62" y="22.78" width="277.89" height="61.39" fill="none" />
<text x="46.22" y="63.85" text-anchor="start" xml:space="preserve" font-family="&quot;思源黑体 CN Normal&quot;, sans-serif" font-size="42.67" fill="#00329D"><tspan fill="#00329D" font-size="42.67">{{THANK_YOU}}</tspan></text>
</g>
<g id="shape-4" data-name="熊大的PPT宝库3">
<rect x="45.67" y="90.57" width="1190.55" height="4.91" fill="#00329D" stroke-width="0.667" stroke="#F2F2F2" />
</g>
<g id="shape-6" data-name="熊大的PPT宝库4">
<rect x="46.5" y="104.8" width="1187" height="31.46" rx="5.24" ry="5.24" fill="#00329D" stroke="none" />
<text x="640" y="124.26" text-anchor="middle" xml:space="preserve" font-family="&quot;思源黑体 CN Normal&quot;, sans-serif" font-size="18.67" fill="#FFFFFF"><tspan fill="#FFFFFF" font-size="18.67">全域覆盖：微</tspan><tspan fill="#FFFFFF" font-size="18.67">XX</tspan><tspan fill="#FFFFFF" font-size="18.67">生态</tspan><tspan fill="#FFFFFF" font-size="18.67">+</tspan><tspan fill="#FFFFFF" font-size="18.67">三方平台</tspan><tspan fill="#FFFFFF" font-size="18.67">+</tspan><tspan fill="#FFFFFF" font-size="18.67">线下场景</tspan></text>
</g>
<g id="shape-7" data-name="熊大的PPT宝库5">
<rect x="46.5" y="145.57" width="585.83" height="62.63" rx="11.82" ry="11.82" fill="none" stroke-width="1.333" stroke="#000000" stroke-dasharray="8 4" />
</g>
<g id="shape-8" data-name="熊大的PPT宝库6">
<rect x="646.67" y="145.57" width="585.83" height="62.63" rx="11.82" ry="11.82" fill="none" stroke-width="1.333" stroke="#000000" stroke-dasharray="8 4" />
</g>
<g id="shape-9" data-name="熊大的PPT宝库7">
<rect x="69.95" y="164.15" width="67.86" height="29.08" fill="none" />
<text x="103.88" y="182.55" text-anchor="middle" xml:space="preserve" font-family="&quot;思源黑体 CN Normal&quot;, sans-serif" font-size="16" fill="#000000"><tspan fill="#000000" font-size="16">全通路</tspan></text>
</g>
<g id="shape-10" data-name="熊大的PPT宝库8">
<rect x="1150.27" y="164.15" width="67.86" height="29.08" fill="none" />
<text x="1184.2" y="182.55" text-anchor="middle" xml:space="preserve" font-family="&quot;思源黑体 CN Normal&quot;, sans-serif" font-size="16" fill="#000000"><tspan fill="#000000" font-size="16">全触点</tspan></text>
</g>
<g id="shape-11" data-name="熊大的PPT宝库9">
<rect x="149.92" y="174.29" width="43.62" height="24.23" fill="none" />
<text x="171.74" y="189.29" text-anchor="middle" xml:space="preserve" font-family="&quot;思源黑体 CN Normal&quot;, sans-serif" font-size="12" fill="#000000"><tspan fill="#000000" font-size="12">搜索</tspan></text>
</g>
<g id="shape-12" data-name="熊大的PPT宝库10">
<rect x="222.9" y="174.29" width="43.62" height="24.23" fill="none" />
<text x="244.71" y="189.29" text-anchor="middle" xml:space="preserve" font-family="&quot;思源黑体 CN Normal&quot;, sans-serif" font-size="12" fill="#000000"><tspan fill="#000000" font-size="12">广告</tspan></text>
</g>
<g id="shape-13" data-name="熊大的PPT宝库11">
<rect x="295.87" y="174.29" width="67.86" height="24.23" fill="none" />
<text x="329.79" y="189.29" text-anchor="middle" xml:space="preserve" font-family="&quot;思源黑体 CN Normal&quot;, sans-serif" font-size="12" fill="#000000"><tspan fill="#000000" font-size="12">视频网站</tspan></text>
</g>
<g id="shape-14" data-name="熊大的PPT宝库12">
<rect x="393.07" y="174.29" width="79.97" height="24.23" fill="none" />
<text x="433.06" y="189.29" text-anchor="middle" xml:space="preserve" font-family="&quot;思源黑体 CN Normal&quot;, sans-serif" font-size="12" fill="#000000"><tspan fill="#000000" font-size="12">信息流媒体</tspan></text>
</g>
<g id="shape-15" data-name="熊大的PPT宝库13">
<rect x="502.39" y="174.29" width="67.86" height="24.23" fill="none" />
<text x="536.32" y="189.29" text-anchor="middle" xml:space="preserve" font-family="&quot;思源黑体 CN Normal&quot;, sans-serif" font-size="12" fill="#000000"><tspan fill="#000000" font-size="12">购物平台</tspan></text>
</g>
<g id="shape-16" data-name="熊大的PPT宝库14">
<rect x="718.33" y="174.29" width="43.62" height="24.23" fill="none" />
<text x="740.14" y="189.29" text-anchor="middle" xml:space="preserve" font-family="&quot;思源黑体 CN Normal&quot;, sans-serif" font-size="12" fill="#000000"><tspan fill="#000000" font-size="12">微信</tspan></text>
</g>
<g id="shape-17" data-name="熊大的PPT宝库15">
<rect x="771.95" y="174.29" width="43.62" height="24.23" fill="none" />
<text x="793.76" y="189.29" text-anchor="middle" xml:space="preserve" font-family="&quot;思源黑体 CN Normal&quot;, sans-serif" font-size="12" fill="#000000"><tspan fill="#000000" font-size="12">企微</tspan></text>
</g>
<g id="shape-18" data-name="熊大的PPT宝库16">
<rect x="825.56" y="174.29" width="37.9" height="24.23" fill="none" />
<text x="844.51" y="189.29" text-anchor="middle" xml:space="preserve" font-family="&quot;思源黑体 CN Normal&quot;, sans-serif" font-size="12" fill="#000000"><tspan fill="#000000" font-size="12">QQ</tspan></text>
</g>
<g id="shape-19" data-name="熊大的PPT宝库17">
<rect x="873.45" y="174.29" width="43.62" height="24.23" fill="none" />
<text x="895.27" y="189.29" text-anchor="middle" xml:space="preserve" font-family="&quot;思源黑体 CN Normal&quot;, sans-serif" font-size="12" fill="#000000"><tspan fill="#000000" font-size="12">官网</tspan></text>
</g>
<g id="shape-20" data-name="熊大的PPT宝库18">
<rect x="926.56" y="174.29" width="43.29" height="24.23" fill="none" />
<text x="948.21" y="189.29" text-anchor="middle" xml:space="preserve" font-family="&quot;思源黑体 CN Normal&quot;, sans-serif" font-size="12" fill="#000000"><tspan fill="#000000" font-size="12">APP</tspan></text>
</g>
<g id="shape-21" data-name="熊大的PPT宝库19">
<rect x="979.34" y="174.29" width="43.62" height="24.23" fill="none" />
<text x="1001.15" y="189.29" text-anchor="middle" xml:space="preserve" font-family="&quot;思源黑体 CN Normal&quot;, sans-serif" font-size="12" fill="#000000"><tspan fill="#000000" font-size="12">电话</tspan></text>
</g>
<g id="shape-22" data-name="熊大的PPT宝库20">
<rect x="1032.95" y="174.29" width="55.74" height="24.23" fill="none" />
<text x="1060.82" y="189.29" text-anchor="middle" xml:space="preserve" font-family="&quot;思源黑体 CN Normal&quot;, sans-serif" font-size="12" fill="#000000"><tspan fill="#000000" font-size="12">小程序</tspan></text>
</g>
<g id="shape-23" data-name="熊大的PPT宝库21">
<rect x="1098.69" y="174.29" width="43.62" height="24.23" fill="none" />
<text x="1120.5" y="189.29" text-anchor="middle" xml:space="preserve" font-family="&quot;思源黑体 CN Normal&quot;, sans-serif" font-size="12" fill="#000000"><tspan fill="#000000" font-size="12">门店</tspan></text>
</g>
<g id="shape-24" data-name="熊大的PPT宝库22">
<path d="M 175.63 172.4 L 171.3 168.08 C 172.33 166.82 172.94 165.23 172.94 163.49 C 172.94 159.48 169.68 156.22 165.66 156.22 C 161.65 156.22 158.38 159.48 158.38 163.49 C 158.38 167.49 161.65 170.75 165.66 170.75 C 167.41 170.75 169.01 170.14 170.26 169.12 L 174.59 173.44 C 174.89 173.73 175.34 173.73 175.63 173.44 C 175.93 173.14 175.93 172.7 175.63 172.4 Z M 159.84 163.49 C 159.84 160.28 162.45 157.67 165.66 157.67 C 168.88 157.67 171.49 160.28 171.49 163.49 C 171.49 166.7 168.88 169.31 165.66 169.31 C 162.45 169.31 159.84 166.7 159.84 163.49 Z" fill="#00329D" stroke="none" stroke-width="1" />
</g>
<g id="shape-25" data-name="熊大的PPT宝库23">
<path d="M 249.29 171.98 C 249.01 171.98 248.78 172.17 248.72 172.43 C 248.7 172.53 248.63 172.6 248.54 172.64 C 248.46 172.68 248.36 172.66 248.28 172.61 C 248.23 172.58 248.17 172.57 248.12 172.57 C 247.96 172.57 247.82 172.7 247.82 172.86 C 247.82 173.02 247.96 173.15 248.12 173.15 L 250.46 173.15 C 250.62 173.15 250.75 173.02 250.75 172.86 C 250.75 172.64 250.49 172.49 250.3 172.61 C 250.22 172.66 250.12 172.68 250.03 172.64 C 249.94 172.6 249.88 172.53 249.85 172.43 C 249.79 172.17 249.56 171.98 249.29 171.98 Z M 235.25 169.06 C 235.41 169.06 235.54 169.19 235.54 169.35 C 235.71 169.35 235.84 169.49 235.84 169.65 C 235.84 169.81 235.71 169.94 235.54 169.94 C 235.22 169.94 234.96 169.67 234.96 169.35 C 234.96 169.19 235.09 169.06 235.25 169.06 Z M 236.13 168.48 C 236.45 168.48 236.71 168.74 236.71 169.06 C 236.71 169.22 236.58 169.35 236.42 169.35 C 236.26 169.35 236.13 169.22 236.13 169.06 C 235.97 169.06 235.84 168.93 235.84 168.77 C 235.84 168.61 235.97 168.48 236.13 168.48 Z M 235.84 167.02 C 236 167.02 236.13 167.15 236.13 167.31 C 236.13 167.47 236 167.6 235.84 167.6 C 235.84 167.76 235.7 167.9 235.55 167.9 C 235.38 167.9 235.25 167.76 235.25 167.6 C 235.25 167.28 235.51 167.02 235.84 167.02 Z M 235.84 165.56 C 235.26 165.56 234.38 167.6 234.38 169.36 C 234.38 170.19 235 170.81 235.84 170.81 C 236.7 170.81 237.3 170.21 237.3 169.36 C 237.3 167.6 236.41 165.56 235.84 165.56 Z M 235.84 164.98 C 237 164.98 237.88 167.63 237.88 169.36 C 237.88 170.44 237.16 171.25 236.13 171.38 L 236.13 173.15 L 237.3 173.15 L 237.3 171.98 C 237.3 171.82 237.43 171.69 237.59 171.69 C 237.75 171.69 237.88 171.82 237.88 171.98 L 237.88 173.15 L 238.47 173.15 L 238.47 168.77 C 238.47 168.61 238.6 168.48 238.76 168.48 C 238.92 168.48 239.05 168.61 239.05 168.77 L 239.05 173.15 L 246.07 173.15 L 246.07 168.77 C 246.07 168.61 246.2 168.48 246.36 168.48 C 246.52 168.48 246.65 168.61 246.65 168.77 L 246.65 173.15 L 247.24 173.15 L 247.24 168.77 C 247.24 168.61 247.37 168.48 247.53 168.48 C 247.69 168.48 247.82 168.61 247.82 168.77 L 247.82 172.04 C 247.92 172 248.01 171.98 248.12 171.98 C 248.17 171.98 248.22 171.99 248.27 172 C 248.47 171.63 248.85 171.4 249.29 171.4 C 249.72 171.4 250.1 171.63 250.31 172 C 250.36 171.99 250.41 171.98 250.46 171.98 C 250.94 171.98 251.33 172.37 251.33 172.86 C 251.33 173.34 250.94 173.73 250.46 173.73 L 248.12 173.73 L 234.08 173.73 C 233.92 173.73 233.79 173.6 233.79 173.44 C 233.79 173.28 233.92 173.15 234.08 173.15 L 235.54 173.15 L 235.54 171.38 C 234.54 171.24 233.79 170.4 233.79 169.36 C 233.79 167.63 234.67 164.98 235.84 164.98 Z M 247.95 163.55 C 248.1 163.62 248.16 163.79 248.09 163.94 C 247.7 164.7 246.64 164.97 245.78 164.97 C 245.28 164.97 245.08 165.13 244.75 165.4 C 244.59 165.52 244.41 165.67 244.17 165.81 C 243.49 166.22 242.37 166.33 241.32 166.33 C 240.01 166.33 238.8 166.15 238.72 166.14 C 238.56 166.12 238.45 165.97 238.47 165.81 C 238.49 165.65 238.65 165.54 238.81 165.56 C 238.84 165.57 242.52 166.12 243.87 165.31 C 244.08 165.19 244.23 165.06 244.38 164.94 C 244.74 164.66 245.07 164.39 245.78 164.39 C 246.63 164.39 247.35 164.1 247.56 163.68 C 247.64 163.53 247.81 163.47 247.95 163.55 Z M 237.01 162.06 L 239.35 162.06 C 239.51 162.06 239.64 162.19 239.64 162.35 C 239.64 162.51 239.51 162.64 239.35 162.64 L 237.01 162.64 C 236.84 162.64 236.71 162.51 236.71 162.35 C 236.71 162.19 236.84 162.06 237.01 162.06 Z M 245.35 161.8 C 245.5 161.72 245.68 161.78 245.75 161.93 C 245.82 162.07 245.76 162.24 245.62 162.32 C 245.42 162.42 245.39 162.54 245.35 162.8 C 245.33 163 245.29 163.24 245.11 163.43 C 244.73 163.81 244.05 163.83 243.05 163.5 C 242.53 163.32 240.3 164.24 238.89 164.94 C 238.85 164.96 238.8 164.97 238.76 164.97 C 238.65 164.97 238.55 164.91 238.5 164.81 C 238.42 164.67 238.48 164.49 238.63 164.42 C 239.23 164.12 242.29 162.63 243.24 162.95 C 243.98 163.19 244.49 163.22 244.69 163.02 C 244.74 162.97 244.76 162.85 244.78 162.72 C 244.81 162.45 244.87 162.04 245.35 161.8 Z M 241.1 160.89 L 242.27 160.89 C 242.43 160.89 242.56 161.02 242.56 161.18 C 242.56 161.34 242.43 161.47 242.27 161.47 L 241.1 161.47 C 240.94 161.47 240.81 161.34 240.81 161.18 C 240.81 161.02 240.94 160.89 241.1 160.89 Z M 237.01 160.89 L 239.93 160.89 C 240.09 160.89 240.22 161.02 240.22 161.18 C 240.22 161.34 240.09 161.47 239.93 161.47 L 237.01 161.47 C 236.84 161.47 236.71 161.34 236.71 161.18 C 236.71 161.02 236.84 160.89 237.01 160.89 Z M 247.53 160.3 C 248.06 160.3 248.52 160.56 248.86 161.03 C 249.46 161.86 249.64 163.38 249.27 164.48 C 249.04 165.18 249.49 165.64 249.49 165.65 C 249.61 165.76 249.61 165.95 249.49 166.06 C 249.44 166.11 249.36 166.14 249.29 166.14 C 249.21 166.14 249.14 166.11 249.08 166.06 C 249.05 166.03 248.37 165.33 248.72 164.3 C 249.03 163.37 248.88 162.06 248.38 161.37 C 248.15 161.05 247.87 160.89 247.53 160.89 C 246.8 160.89 246.66 161.35 246.66 161.47 C 246.66 162.09 246.82 162.35 247.24 162.35 C 247.35 162.35 247.53 162.22 247.62 162.14 C 247.73 162.03 247.92 162.03 248.03 162.14 C 248.15 162.26 248.15 162.44 248.03 162.55 C 247.99 162.59 247.64 162.93 247.24 162.93 C 246.8 162.93 246.07 162.74 246.07 161.47 C 246.07 160.99 246.52 160.3 247.53 160.3 Z M 237.01 159.72 L 241.1 159.72 C 241.26 159.72 241.39 159.85 241.39 160.01 C 241.39 160.17 241.26 160.3 241.1 160.3 L 237.01 160.3 C 236.84 160.3 236.71 160.17 236.71 160.01 C 236.71 159.85 236.84 159.72 237.01 159.72 Z M 235.25 156.22 L 249.87 156.22 C 250.68 156.22 251.33 156.87 251.33 157.68 L 251.33 166.44 C 251.33 167.24 250.68 167.9 249.87 167.9 L 238.47 167.9 C 238.31 167.9 238.18 167.76 238.18 167.6 C 238.18 167.44 238.31 167.31 238.47 167.31 L 249.87 167.31 C 250.36 167.31 250.75 166.92 250.75 166.44 L 250.75 157.68 C 250.75 157.19 250.36 156.8 249.87 156.8 L 247.24 156.8 L 247.24 157.38 L 248.12 157.38 C 248.28 157.38 248.41 157.51 248.41 157.68 C 248.41 157.84 248.28 157.97 248.12 157.97 L 245.78 157.97 C 245.62 157.97 245.49 157.84 245.49 157.68 C 245.49 157.51 245.62 157.38 245.78 157.38 L 246.65 157.38 L 246.65 156.8 L 238.47 156.8 L 238.47 157.38 L 239.35 157.38 C 239.51 157.38 239.64 157.51 239.64 157.68 C 239.64 157.84 239.51 157.97 239.35 157.97 L 237.01 157.97 C 236.85 157.97 236.71 157.84 236.71 157.68 C 236.71 157.51 236.85 157.38 237.01 157.38 L 237.88 157.38 L 237.88 156.8 L 235.25 156.8 C 234.77 156.8 234.38 157.19 234.38 157.68 L 234.38 165.27 C 234.38 165.43 234.24 165.56 234.08 165.56 C 233.92 165.56 233.79 165.43 233.79 165.27 L 233.79 157.68 C 233.79 156.87 234.44 156.22 235.25 156.22 Z" fill="#00329D" stroke="none" stroke-width="1" />
</g>
<g id="shape-26" data-name="熊大的PPT宝库24">
<path d="M 323.03 168.56 C 324.39 171.23 327.13 172.92 330.16 172.92 C 333.19 172.92 335.93 171.23 337.29 168.56 Z M 332.94 163.52 L 333.87 163.52 L 334.5 165.46 L 335.13 163.52 L 335.99 163.52 L 336.62 165.46 L 337.25 163.52 L 338.18 163.52 L 337.09 166.73 L 336.16 166.73 L 335.56 164.98 L 334.96 166.73 L 334.04 166.73 Z M 327.54 163.52 L 328.47 163.52 L 329.1 165.46 L 329.73 163.52 L 330.59 163.52 L 331.22 165.46 L 331.85 163.52 L 332.78 163.52 L 331.69 166.73 L 330.75 166.73 L 330.16 164.98 L 329.56 166.73 L 328.64 166.73 Z M 322.14 163.52 L 323.07 163.52 L 323.7 165.46 L 324.33 163.52 L 325.2 163.52 L 325.82 165.46 L 326.45 163.52 L 327.39 163.52 L 326.29 166.73 L 325.36 166.73 L 324.76 164.98 L 324.17 166.73 L 323.24 166.73 Z M 322.48 162.06 C 321.75 162.06 321.16 162.65 321.16 163.38 L 321.16 166.5 C 321.16 167.23 321.75 167.82 322.48 167.82 L 337.85 167.82 C 338.58 167.82 339.17 167.23 339.17 166.5 L 339.17 163.38 C 339.17 162.65 338.58 162.06 337.85 162.06 Z M 330.3 156.96 C 327.22 156.91 324.42 158.61 323.03 161.32 L 337.29 161.32 C 335.95 158.71 333.25 157.01 330.3 156.96 Z M 330.31 156.22 C 333.67 156.27 336.73 158.28 338.12 161.34 C 339.13 161.47 339.91 162.34 339.91 163.38 L 339.91 166.5 C 339.91 167.55 339.13 168.41 338.12 168.54 C 336.71 171.66 333.61 173.67 330.16 173.67 C 326.72 173.67 323.62 171.66 322.2 168.54 C 321.19 168.41 320.41 167.55 320.41 166.5 L 320.41 163.38 C 320.41 162.34 321.19 161.47 322.2 161.34 C 323.64 158.17 326.82 156.16 330.31 156.22 Z" fill="#00329D" stroke="none" stroke-width="1" />
</g>
<g id="shape-27" data-name="熊大的PPT宝库25">
<path d="M 439.56 171.29 L 438.93 172.05 C 438.81 172.18 438.65 172.27 438.47 172.27 C 438.46 172.28 438.45 172.28 438.44 172.28 C 438.28 172.28 438.11 172.21 438 172.09 L 437.47 171.56 L 437.47 173.12 L 439.19 173.12 Z M 434.77 171.29 L 435.13 173.12 L 436.86 173.12 L 436.86 171.56 L 436.33 172.09 C 436.21 172.21 436.05 172.28 435.88 172.28 C 435.87 172.28 435.86 172.28 435.85 172.27 C 435.68 172.27 435.51 172.18 435.4 172.05 Z M 440.33 170.54 L 439.81 173.12 L 442.37 173.12 C 442.56 173.12 442.72 172.97 442.72 172.78 L 442.72 171.61 C 442.72 171.29 442.5 171.02 442.19 170.95 Z M 433.99 170.54 L 432.13 170.95 C 431.82 171.02 431.61 171.29 431.61 171.61 L 431.61 172.78 C 431.61 172.97 431.76 173.12 431.95 173.12 L 434.51 173.12 Z M 439.36 169.64 C 439.35 169.64 439.35 169.64 439.35 169.64 L 437.63 170.86 L 438.43 171.66 C 438.43 171.66 438.43 171.67 438.44 171.67 C 438.45 171.67 438.46 171.66 438.46 171.66 L 439.71 170.15 L 439.37 169.65 C 439.37 169.65 439.37 169.64 439.36 169.64 Z M 434.96 169.64 C 434.96 169.64 434.95 169.65 434.95 169.65 L 434.61 170.15 L 435.87 171.66 C 435.87 171.66 435.87 171.67 435.88 171.67 C 435.89 171.67 435.9 171.66 435.9 171.66 L 436.69 170.86 L 434.98 169.64 C 434.98 169.64 434.97 169.64 434.96 169.64 Z M 435.51 168.77 L 435.51 169.28 L 437.16 170.45 L 438.81 169.28 L 438.81 168.77 L 438.28 169.21 C 438.05 169.4 437.76 169.5 437.46 169.5 L 436.86 169.5 C 436.56 169.5 436.27 169.4 436.04 169.21 Z M 438.46 165.28 C 438.27 165.28 438.12 165.44 438.12 165.62 C 438.12 165.82 438.27 165.97 438.46 165.97 C 438.65 165.97 438.81 165.82 438.81 165.62 C 438.81 165.44 438.65 165.28 438.46 165.28 Z M 435.86 165.28 C 435.67 165.28 435.51 165.44 435.51 165.62 C 435.51 165.82 435.67 165.97 435.86 165.97 C 436.05 165.97 436.21 165.82 436.21 165.62 C 436.21 165.44 436.05 165.28 435.86 165.28 Z M 435.86 164.67 C 436.19 164.67 436.49 164.85 436.66 165.11 C 436.81 165.03 436.98 164.99 437.16 164.99 C 437.34 164.99 437.51 165.03 437.66 165.11 C 437.83 164.85 438.13 164.67 438.46 164.67 C 438.99 164.67 439.42 165.1 439.42 165.62 C 439.42 166.15 438.99 166.58 438.46 166.58 C 437.98 166.58 437.57 166.21 437.51 165.74 C 437.43 165.66 437.3 165.6 437.16 165.6 C 437.02 165.6 436.89 165.66 436.81 165.74 C 436.75 166.21 436.35 166.58 435.86 166.58 C 435.33 166.58 434.9 166.15 434.9 165.62 C 434.9 165.1 435.33 164.67 435.86 164.67 Z M 427.72 164.63 C 427.53 164.63 427.37 164.78 427.37 164.97 C 427.37 165.16 427.53 165.32 427.72 165.32 C 427.91 165.32 428.06 165.16 428.06 164.98 C 428.06 164.97 428.06 164.97 428.06 164.97 C 428.06 164.78 427.91 164.63 427.72 164.63 Z M 439.97 163.21 C 438.95 164.01 437.61 164.29 437.55 164.3 C 437.53 164.3 437.51 164.3 437.49 164.3 C 437.42 164.3 437.35 164.28 437.3 164.23 C 437.22 164.18 437.18 164.09 437.18 164 L 437.18 163.74 C 436.2 163.95 434.72 163.98 434.33 163.98 C 434.33 163.99 434.33 164 434.33 164.01 L 434.78 167.04 C 434.82 167.28 434.94 167.5 435.13 167.66 L 436.44 168.74 C 436.56 168.84 436.71 168.9 436.86 168.9 L 437.46 168.9 C 437.62 168.9 437.77 168.84 437.89 168.74 L 439.19 167.66 C 439.38 167.5 439.5 167.28 439.54 167.04 L 439.99 164.01 C 440.03 163.74 440.03 163.47 439.97 163.21 Z M 436.6 161.38 C 435.94 161.38 435.3 161.67 434.86 162.18 C 434.57 162.52 434.38 162.93 434.33 163.37 C 434.76 163.36 436.58 163.33 437.39 163.06 C 437.48 163.03 437.59 163.04 437.67 163.1 C 437.75 163.16 437.79 163.25 437.79 163.35 L 437.79 163.6 C 438.27 163.46 439.13 163.15 439.75 162.6 C 439.67 162.45 439.57 162.31 439.46 162.18 C 439.03 161.67 438.39 161.38 437.72 161.38 Z M 430.32 159.95 C 430.32 159.95 430.32 159.95 430.31 159.96 C 430.3 159.96 430.3 159.97 430.3 159.97 L 430.3 161.52 C 430.3 161.53 430.3 161.53 430.31 161.54 C 430.32 161.55 430.33 161.54 430.33 161.54 L 431.89 160.77 C 431.89 160.76 431.9 160.76 431.9 160.75 C 431.9 160.74 431.89 160.73 431.89 160.73 L 430.33 159.95 C 430.33 159.95 430.33 159.95 430.32 159.95 Z M 430.61 159.41 L 432.16 160.18 C 432.37 160.29 432.51 160.51 432.51 160.75 C 432.51 160.99 432.37 161.2 432.16 161.31 L 430.61 162.08 C 430.52 162.13 430.42 162.15 430.32 162.15 C 430.21 162.15 430.09 162.12 429.99 162.06 C 429.8 161.94 429.69 161.74 429.69 161.52 L 429.69 159.97 C 429.69 159.75 429.8 159.55 429.99 159.44 C 430.18 159.32 430.41 159.31 430.61 159.41 Z M 429.02 158.45 C 428.47 158.45 428.02 158.9 428.02 159.45 L 428.02 162.05 C 428.02 162.6 428.47 163.04 429.02 163.04 L 432.93 163.04 C 433.48 163.04 433.93 162.6 433.93 162.05 L 433.93 159.45 C 433.93 158.9 433.48 158.45 432.93 158.45 Z M 425.11 156.83 C 424.74 156.83 424.44 157.13 424.44 157.5 L 424.44 165.62 C 424.44 165.99 424.74 166.3 425.11 166.3 L 434.06 166.3 L 433.91 165.28 L 428.62 165.28 C 428.5 165.66 428.14 165.93 427.72 165.93 C 427.3 165.93 426.94 165.66 426.81 165.28 L 425.44 165.28 C 425.27 165.28 425.13 165.14 425.13 164.97 C 425.13 164.8 425.27 164.67 425.44 164.67 L 426.81 164.67 C 426.94 164.29 427.3 164.02 427.72 164.02 C 428.14 164.02 428.5 164.29 428.62 164.67 L 433.81 164.67 L 433.73 164.1 C 433.69 163.89 433.69 163.67 433.71 163.45 C 433.47 163.58 433.21 163.65 432.93 163.65 L 429.02 163.65 C 428.14 163.65 427.41 162.93 427.41 162.05 L 427.41 159.45 C 427.41 158.56 428.14 157.84 429.02 157.84 L 432.93 157.84 C 433.82 157.84 434.54 158.56 434.54 159.45 L 434.54 161.63 C 435.08 161.08 435.82 160.77 436.6 160.77 L 437.51 160.77 L 437.51 157.5 C 437.51 157.13 437.21 156.83 436.84 156.83 Z M 425.11 156.22 L 436.84 156.22 C 437.54 156.22 438.12 156.79 438.12 157.5 L 438.12 160.8 C 438.82 160.89 439.46 161.24 439.93 161.78 C 440.48 162.42 440.72 163.27 440.6 164.1 L 440.14 167.13 C 440.09 167.52 439.89 167.87 439.58 168.13 L 439.42 168.26 L 439.42 169.03 C 439.44 169.04 439.45 169.04 439.47 169.04 C 439.64 169.07 439.79 169.17 439.88 169.31 L 440.28 169.91 L 442.32 170.36 C 442.92 170.49 443.33 171 443.33 171.61 L 443.33 172.78 C 443.33 173.3 442.9 173.73 442.37 173.73 L 431.95 173.73 C 431.43 173.73 430.99 173.3 430.99 172.78 L 430.99 171.61 C 430.99 171 431.41 170.49 432 170.36 L 434.04 169.91 L 434.44 169.31 C 434.54 169.17 434.68 169.07 434.85 169.04 C 434.87 169.04 434.89 169.04 434.9 169.03 L 434.9 168.26 L 434.74 168.13 C 434.44 167.87 434.24 167.52 434.18 167.13 L 434.15 166.9 L 425.11 166.9 C 424.41 166.9 423.83 166.33 423.83 165.62 L 423.83 157.5 C 423.83 156.79 424.41 156.22 425.11 156.22 Z" fill="#00329D" stroke="none" stroke-width="1" />
</g>
<g id="shape-28" data-name="熊大的PPT宝库26">
<path d="M 538.54 173.78 C 537.84 173.78 537.27 174.34 537.27 175.02 C 537.27 175.7 537.84 176.25 538.54 176.25 C 539.24 176.25 539.81 175.7 539.81 175.02 C 539.81 174.34 539.24 173.78 538.54 173.78 Z M 529.76 173.78 C 529.06 173.78 528.49 174.34 528.49 175.02 C 528.49 175.7 529.06 176.25 529.76 176.25 C 530.46 176.25 531.03 175.7 531.03 175.02 C 531.03 174.34 530.46 173.78 529.76 173.78 Z M 538.54 172.45 C 539.97 172.45 541.14 173.6 541.14 175.02 C 541.14 176.43 539.97 177.58 538.54 177.58 C 537.1 177.58 535.93 176.43 535.93 175.02 C 535.93 173.6 537.1 172.45 538.54 172.45 Z M 529.76 172.45 C 531.2 172.45 532.36 173.6 532.36 175.02 C 532.36 176.43 531.2 177.58 529.76 177.58 C 528.32 177.58 527.15 176.43 527.15 175.02 C 527.15 173.6 528.32 172.45 529.76 172.45 Z M 533.83 163.42 L 534.5 163.42 L 534.5 166.35 L 535.83 166.35 L 534.16 169.24 L 532.5 166.35 L 533.83 166.35 Z M 526.24 162.6 L 528.23 170.06 L 540.1 170.06 L 542.09 162.6 Z M 522.49 156.22 L 526.86 156.22 L 528.21 161.27 L 543.82 161.27 L 541.12 171.39 L 527.21 171.39 L 524.51 161.27 L 526.83 161.27 L 525.84 157.55 L 522.49 157.55 Z" fill="#00329D" stroke="none" stroke-width="1" />
</g>
<g id="shape-29" data-name="熊大的PPT宝库27">
<ellipse cx="599.6" cy="177.58" rx="18.95" ry="18.95" fill="#B8CFFF" stroke="none" />
<text x="599.6" y="180.25" text-anchor="middle" xml:space="preserve" font-family="&quot;思源黑体 CN Normal&quot;, sans-serif" font-size="13.33" fill="#000000"><tspan fill="#000000" font-size="13.33">公域</tspan></text>
</g>
<g id="shape-30" data-name="熊大的PPT宝库28">
<ellipse cx="679.53" cy="177.58" rx="18.95" ry="18.95" fill="#B8CFFF" stroke="none" />
<text x="679.53" y="180.25" text-anchor="middle" xml:space="preserve" font-family="&quot;思源黑体 CN Normal&quot;, sans-serif" font-size="13.33" fill="#000000"><tspan fill="#000000" font-size="13.33">私域</tspan></text>
</g>
<g id="shape-31" data-name="熊大的PPT宝库29">
<path d="M 748.23 158.68 C 745.31 155.81 741.74 154.97 737.82 156.03 C 730.93 157.89 728.8 165.07 732.28 169.74 C 732.45 169.97 732.48 170.39 732.42 170.68 C 732.23 171.54 731.96 172.38 731.73 173.23 C 731.6 173.69 731.53 174.15 731.94 174.52 C 732.38 174.91 732.85 174.83 733.33 174.59 C 734.11 174.18 734.91 173.81 735.69 173.39 C 736.19 173.12 736.65 173.11 737.21 173.26 C 738.35 173.58 739.52 173.75 740.12 173.87 C 743.68 173.81 746.28 172.85 748.36 170.68 C 751.67 167.24 751.64 162.04 748.23 158.68 Z M 746.92 169.38 C 744.34 171.94 741.2 172.55 737.81 171.41 C 736.69 171.04 735.77 170.94 734.8 171.6 C 734.71 171.66 734.59 171.67 734.15 171.82 C 735.04 170.27 734.38 169.29 733.62 168.19 C 731.95 165.75 732.29 162.61 734.28 160.34 C 737.54 156.63 743.91 156.63 747.17 160.34 C 749.53 163.03 749.48 166.84 746.92 169.38 Z M 743.89 161.87 C 743.24 161.85 742.72 162.33 742.68 162.98 C 742.64 163.66 743.09 164.17 743.75 164.22 C 744.4 164.27 744.95 163.82 745.02 163.18 C 745.09 162.51 744.56 161.9 743.89 161.87 Z M 737.6 161.87 C 736.91 161.88 736.39 162.45 736.44 163.15 C 736.49 163.81 737.01 164.26 737.68 164.22 C 738.34 164.18 738.82 163.66 738.79 163.01 C 738.77 162.39 738.22 161.87 737.6 161.87 Z" fill="#00329D" stroke="none" stroke-width="1" />
</g>
<g id="shape-32" data-name="熊大的PPT宝库30">
<path d="M 793.76 155.9 C 787.95 155.9 783.25 160.61 783.25 166.41 C 783.25 172.21 787.95 176.92 793.76 176.92 C 799.56 176.92 804.26 172.21 804.26 166.41 C 804.26 160.61 799.56 155.9 793.76 155.9 Z M 793.49 168.76 L 793.49 165.21 L 794.38 165.21 C 794.53 165.21 794.6 165.23 794.6 165.28 C 794.6 165.32 794.59 165.37 794.57 165.42 C 794.52 165.55 794.49 165.75 794.49 166.02 L 794.49 166.61 L 796.46 166.61 L 796.46 167.43 L 794.49 167.43 L 794.49 168.76 L 797.05 168.76 L 797.05 169.61 L 790.41 169.61 L 790.41 168.76 L 791.54 168.76 L 791.54 166.02 L 792.42 166.02 C 792.56 166.02 792.62 166.04 792.62 166.08 C 792.62 166.13 792.61 166.18 792.58 166.24 C 792.53 166.37 792.51 166.56 792.51 166.83 L 792.51 168.76 L 793.49 168.76 Z M 796.77 166.24 C 795.46 165.63 794.46 164.83 793.8 163.85 C 793.16 164.76 792.14 165.56 790.75 166.25 C 790.46 165.9 790.23 165.64 790.03 165.48 C 791.72 164.89 792.83 163.9 793.37 162.5 C 794.07 162.68 794.44 162.78 794.48 162.8 C 794.52 162.82 794.54 162.85 794.54 162.89 C 794.54 162.93 794.52 162.97 794.46 163.01 C 794.4 163.05 794.36 163.08 794.33 163.11 C 794.64 163.62 795.07 164.06 795.63 164.44 C 796.18 164.81 796.8 165.09 797.49 165.26 C 797.28 165.5 797.04 165.82 796.77 166.24 Z M 800.52 169.34 C 800.51 169.49 800.45 169.64 800.33 169.75 C 800.09 169.98 799.71 169.97 799.49 169.74 C 799.11 169.35 799.45 168.81 799.45 168.81 C 800.39 166.6 799.97 163.95 798.2 162.12 C 795.83 159.68 791.92 159.62 789.47 161.99 C 787.02 164.35 786.96 168.26 789.33 170.7 C 791.19 172.62 793.99 173.06 796.29 172.03 C 796.76 171.75 797.03 171.78 797.2 171.95 C 797.71 172.45 797.28 172.87 797.28 172.87 C 794.45 174.41 790.83 173.96 788.48 171.53 C 785.65 168.61 785.72 163.95 788.64 161.13 C 791.57 158.3 796.23 158.37 799.06 161.29 C 801.2 163.5 801.67 166.69 800.52 169.34 Z" fill="#00329D" stroke="none" stroke-width="1" />
</g>
<g id="shape-33" data-name="熊大的PPT宝库31">
<path d="M 853.24 166.12 C 852.53 165 852.22 163.79 852.04 162.52 C 851.37 157.87 846.79 154.87 842.35 156.24 C 839.42 157.15 837.64 159.19 837.04 162.22 C 836.77 163.63 836.5 165.01 835.69 166.27 C 834.86 167.54 834.64 169.03 834.75 170.54 C 834.81 171.42 835.08 172.21 835.73 172.86 C 835.92 173.06 836.12 173.38 836.11 173.63 C 836.03 175.48 837.12 176.45 838.66 176.99 C 840.37 177.58 842.12 177.56 843.81 176.85 C 844.27 176.65 844.64 176.58 845.12 176.82 C 846.51 177.49 848.01 177.5 849.48 177.23 C 851.84 176.81 852.87 175.54 852.88 173.19 C 853.62 172.65 854.08 171.91 854.19 170.97 C 854.38 169.26 854.17 167.59 853.24 166.12 Z M 852.28 170.13 C 852.27 170.57 852.09 171 851.93 171.73 C 851.32 171.21 850.98 170.93 850.62 170.62 C 850.2 171.26 849.8 171.88 849.37 172.54 C 849.63 172.68 849.94 172.78 850.15 172.98 C 850.44 173.26 850.8 173.59 850.87 173.96 C 850.97 174.48 850.5 174.78 850.06 174.97 C 848.67 175.6 847.22 175.67 845.87 174.99 C 844.9 174.5 844.11 174.47 843.14 174.97 C 841.88 175.64 840.51 175.56 839.16 175.09 C 839.02 175.04 838.88 174.97 838.74 174.88 C 837.87 174.33 837.84 173.63 838.7 173.06 C 838.98 172.87 839.3 172.73 839.62 172.56 C 839.2 171.89 838.81 171.27 838.38 170.6 C 838.03 170.9 837.67 171.21 837.3 171.53 C 836.62 171.01 836.66 170.36 836.69 169.76 C 836.77 168.49 837.11 167.3 837.98 166.32 C 838.31 165.95 838.42 165.56 838.48 165.07 C 838.62 164 838.83 162.93 839.14 161.89 C 839.87 159.38 842.23 157.73 844.8 157.87 C 847.32 158.01 849.46 159.84 849.99 162.35 C 850.21 163.41 850.35 164.49 850.58 165.55 C 850.65 165.86 850.9 166.15 851.11 166.42 C 851.95 167.52 852.33 168.77 852.28 170.13 Z" fill="#00329D" stroke="none" stroke-width="1" />
</g>
<g id="shape-34" data-name="熊大的PPT宝库32">
<path d="M 897.71 173.3 L 897.71 171.18 L 892.83 171.19 L 892.83 173.34 L 891.84 173.88 C 891.84 173.88 891.51 174.44 892 174.42 L 898.51 174.42 C 898.51 174.42 898.97 174.19 898.74 173.97 C 898.51 173.74 897.71 173.3 897.71 173.3 Z M 902.04 158.15 L 888.5 158.15 C 887.6 158.15 886.87 158.88 886.87 159.78 L 886.87 169.01 C 886.87 169.9 887.6 170.62 888.5 170.62 L 902.04 170.62 C 902.93 170.62 903.66 169.9 903.66 169.01 L 903.66 159.78 C 903.66 158.88 902.93 158.15 902.04 158.15 Z M 895.52 170.12 C 895.44 170.14 895.34 169.99 895.25 169.99 C 895.1 169.99 894.98 170.12 894.86 170.05 C 894.62 169.91 894.42 169.71 894.42 169.26 C 894.42 168.87 894.49 168.44 894.94 168.53 C 895 168.52 895.11 168.8 895.16 168.8 C 895.26 168.8 895.46 168.55 895.55 168.58 C 895.63 168.61 895.77 168.64 895.84 168.69 C 895.92 168.75 896.11 168.94 896.04 168.99 C 895.8 168.98 895.52 169.01 895.52 169.26 C 895.52 169.72 896.07 169.53 896.07 169.53 C 896.07 169.53 896.04 169.94 895.52 170.12 Z M 895.21 168.46 C 895.21 168.29 895.52 168.11 895.52 168.11 C 895.72 168.43 895.21 168.46 895.21 168.46 Z M 902.58 166.82 C 902.58 167.42 902.09 167.92 901.49 167.92 L 889.04 167.92 C 888.44 167.92 887.95 167.42 887.95 166.82 L 887.95 160.32 C 887.95 159.72 888.44 159.22 889.04 159.22 L 901.49 159.22 C 902.09 159.22 902.58 159.72 902.58 160.32 L 902.58 166.82 Z" fill="#00329D" stroke="none" stroke-width="1" />
</g>
<g id="shape-35" data-name="熊大的PPT宝库33">
<path d="M 942.77 170.94 L 942.77 174.11 L 953.65 174.11 L 953.65 170.94 Z M 943.96 165.82 L 943.98 165.82 C 944.05 166.11 944.14 166.49 944.23 166.79 L 944.54 167.85 L 943.43 167.85 L 943.73 166.79 C 943.81 166.49 943.89 166.11 943.96 165.82 Z M 952.94 165.79 C 953.5 165.79 953.82 166.06 953.82 166.53 C 953.82 167.04 953.45 167.35 952.84 167.35 C 952.68 167.35 952.56 167.34 952.46 167.32 L 952.46 165.83 C 952.55 165.81 952.7 165.79 952.94 165.79 Z M 948.59 165.79 C 949.16 165.79 949.48 166.06 949.48 166.53 C 949.48 167.04 949.11 167.35 948.5 167.35 C 948.34 167.35 948.22 167.34 948.12 167.32 L 948.12 165.83 C 948.2 165.81 948.36 165.79 948.59 165.79 Z M 943.27 164.97 L 941.73 169.99 L 942.91 169.99 L 943.27 168.7 L 944.71 168.7 L 945.1 169.99 L 946.32 169.99 L 944.76 164.97 Z M 952.87 164.93 C 952.18 164.93 951.68 164.97 951.33 165.03 L 951.33 169.99 L 952.46 169.99 L 952.46 168.2 C 952.57 168.21 952.7 168.22 952.85 168.22 C 953.52 168.22 954.1 168.05 954.49 167.69 C 954.79 167.41 954.95 166.99 954.95 166.49 C 954.95 166 954.73 165.58 954.41 165.33 C 954.08 165.06 953.58 164.93 952.87 164.93 Z M 948.53 164.93 C 947.84 164.93 947.35 164.97 946.99 165.03 L 946.99 169.99 L 948.12 169.99 L 948.12 168.2 C 948.23 168.21 948.36 168.22 948.51 168.22 C 949.18 168.22 949.76 168.05 950.15 167.69 C 950.45 167.41 950.61 166.99 950.61 166.5 C 950.61 166 950.39 165.58 950.07 165.33 C 949.74 165.06 949.24 164.93 948.53 164.93 Z M 942.77 158.81 L 942.77 164.16 L 953.65 164.16 L 953.65 162.51 L 950.73 162.51 C 950.55 162.51 950.4 162.36 950.4 162.18 L 950.4 158.81 Z M 942.77 158.15 L 950.73 158.15 C 950.76 158.15 950.79 158.16 950.81 158.16 C 950.82 158.17 950.82 158.17 950.83 158.17 C 950.85 158.18 950.87 158.19 950.89 158.2 C 950.9 158.2 950.91 158.2 950.92 158.21 C 950.94 158.22 950.96 158.24 950.98 158.26 C 950.98 158.27 950.98 158.27 950.98 158.27 L 954.22 161.96 C 954.28 162.02 954.3 162.1 954.3 162.18 C 954.3 162.19 954.31 162.2 954.31 162.21 L 954.31 164.16 L 954.71 164.16 C 955.23 164.16 955.65 164.58 955.65 165.1 L 955.65 169.99 C 955.65 170.51 955.23 170.94 954.71 170.94 L 954.31 170.94 L 954.31 174.28 C 954.31 174.65 954.01 174.94 953.65 174.94 L 942.77 174.94 C 942.4 174.94 942.11 174.65 942.11 174.28 L 942.11 170.94 L 941.7 170.94 C 941.18 170.94 940.76 170.51 940.76 169.99 L 940.76 165.1 C 940.76 164.58 941.18 164.16 941.7 164.16 L 942.11 164.16 L 942.11 158.81 C 942.11 158.45 942.4 158.15 942.77 158.15 Z" fill="#00329D" stroke="none" stroke-width="1" />
</g>
<g id="shape-36" data-name="熊大的PPT宝库34">
<path d="M 1008.09 160.05 L 1008.09 160.05 L 1008.09 160.05 C 1008.09 160.05 1008.09 160.05 1008.09 160.05 C 1006.19 158.15 1003.1 158.15 1001.2 160.05 L 997.76 163.48 L 997.76 163.48 L 994.66 166.59 C 992.75 168.48 992.75 171.57 994.65 173.46 C 994.65 173.46 994.65 173.47 994.65 173.47 L 994.66 173.47 L 994.66 173.47 C 994.66 173.47 995.81 174.84 997.18 173.47 C 998.55 172.1 999.34 171.3 999.34 171.3 L 999.13 167.37 L 1001.99 164.52 L 1005.4 165.26 C 1005.4 165.26 1006.64 164.02 1008.09 162.57 C 1009.54 161.12 1008.09 160.05 1008.09 160.05 Z" fill="#00329D" stroke="none" stroke-width="1" />
</g>
<g id="shape-37" data-name="熊大的PPT宝库35">
<path d="M 1061.02 172.32 C 1060.48 172.32 1060.09 172.76 1060.09 173.24 C 1060.09 173.78 1060.48 174.22 1061.02 174.22 C 1061.5 174.22 1061.94 173.78 1061.94 173.24 C 1061.94 172.76 1061.5 172.32 1061.02 172.32 Z M 1059.8 165.29 C 1060.15 165.29 1060.43 165.57 1060.43 165.92 C 1060.43 166.27 1060.15 166.55 1059.8 166.55 C 1059.45 166.55 1059.17 166.27 1059.17 165.92 C 1059.17 165.57 1059.45 165.29 1059.8 165.29 Z M 1057.76 165.29 C 1058.11 165.29 1058.39 165.57 1058.39 165.92 C 1058.39 166.27 1058.11 166.55 1057.76 166.55 C 1057.41 166.55 1057.13 166.27 1057.13 165.92 C 1057.13 165.57 1057.41 165.29 1057.76 165.29 Z M 1063.88 163.25 C 1064.23 163.25 1064.51 163.53 1064.51 163.88 C 1064.51 164.23 1064.23 164.51 1063.88 164.51 C 1063.53 164.51 1063.25 164.23 1063.25 163.88 C 1063.25 163.53 1063.53 163.25 1063.88 163.25 Z M 1061.84 163.25 C 1062.19 163.25 1062.47 163.53 1062.47 163.88 C 1062.47 164.23 1062.19 164.51 1061.84 164.51 C 1061.49 164.51 1061.21 164.23 1061.21 163.88 C 1061.21 163.53 1061.49 163.25 1061.84 163.25 Z M 1059.8 163.25 C 1060.15 163.25 1060.43 163.53 1060.43 163.88 C 1060.43 164.23 1060.15 164.51 1059.8 164.51 C 1059.45 164.51 1059.17 164.23 1059.17 163.88 C 1059.17 163.53 1059.45 163.25 1059.8 163.25 Z M 1057.76 163.25 C 1058.11 163.25 1058.39 163.53 1058.39 163.88 C 1058.39 164.23 1058.11 164.51 1057.76 164.51 C 1057.41 164.51 1057.13 164.23 1057.13 163.88 C 1057.13 163.53 1057.41 163.25 1057.76 163.25 Z M 1063.88 161.21 C 1064.23 161.21 1064.51 161.49 1064.51 161.84 C 1064.51 162.19 1064.23 162.47 1063.88 162.47 C 1063.53 162.47 1063.25 162.19 1063.25 161.84 C 1063.25 161.49 1063.53 161.21 1063.88 161.21 Z M 1061.84 161.21 C 1062.19 161.21 1062.47 161.49 1062.47 161.84 C 1062.47 162.19 1062.19 162.47 1061.84 162.47 C 1061.49 162.47 1061.21 162.19 1061.21 161.84 C 1061.21 161.49 1061.49 161.21 1061.84 161.21 Z M 1059.8 161.21 C 1060.15 161.21 1060.43 161.49 1060.43 161.84 C 1060.43 162.19 1060.15 162.47 1059.8 162.47 C 1059.45 162.47 1059.17 162.19 1059.17 161.84 C 1059.17 161.49 1059.45 161.21 1059.8 161.21 Z M 1057.76 161.21 C 1058.11 161.21 1058.39 161.49 1058.39 161.84 C 1058.39 162.19 1058.11 162.47 1057.76 162.47 C 1057.41 162.47 1057.13 162.19 1057.13 161.84 C 1057.13 161.49 1057.41 161.21 1057.76 161.21 Z M 1056.64 159.66 C 1056.2 159.66 1055.86 160.05 1055.86 160.43 L 1055.86 171.16 C 1055.86 171.55 1056.2 171.89 1056.64 171.89 L 1065.05 171.89 C 1065.44 171.89 1065.78 171.55 1065.78 171.16 L 1065.78 160.43 C 1065.78 160.05 1065.44 159.66 1065.05 159.66 Z M 1056.64 158.15 L 1065.05 158.15 C 1066.32 158.15 1067.34 159.17 1067.34 160.43 L 1067.34 172.66 C 1067.34 173.92 1066.32 174.94 1065.05 174.94 L 1056.64 174.94 C 1055.38 174.94 1054.31 173.92 1054.31 172.66 L 1054.31 160.43 C 1054.31 159.17 1055.38 158.15 1056.64 158.15 Z" fill="#00329D" stroke="none" stroke-width="1" />
</g>
<g id="shape-38" data-name="熊大的PPT宝库36">
<path d="M 1124.65 170.12 C 1124.73 170.21 1124.85 170.25 1124.96 170.25 C 1125.08 170.25 1125.19 170.21 1125.28 170.12 C 1125.45 169.95 1125.45 169.66 1125.28 169.49 L 1121.7 165.9 C 1121.53 165.73 1121.24 165.73 1121.07 165.9 C 1120.89 166.08 1120.89 166.36 1121.07 166.53 L 1124.65 170.12 Z M 1121.91 170.69 C 1122 170.77 1122.11 170.82 1122.23 170.82 C 1122.34 170.82 1122.46 170.77 1122.55 170.69 C 1122.72 170.51 1122.72 170.23 1122.55 170.05 L 1121.35 168.86 C 1121.18 168.68 1120.89 168.68 1120.72 168.86 C 1120.54 169.03 1120.54 169.32 1120.72 169.49 L 1121.91 170.69 Z M 1128.41 174.01 L 1127.67 174.01 L 1127.67 164.12 L 1128.42 164.12 C 1128.57 164.12 1128.71 164.04 1128.8 163.92 C 1128.88 163.79 1128.89 163.63 1128.83 163.49 L 1126.88 158.42 C 1126.81 158.26 1126.65 158.15 1126.47 158.15 L 1114.51 158.15 C 1114.33 158.15 1114.17 158.26 1114.1 158.42 L 1112.16 163.49 C 1112.1 163.63 1112.12 163.79 1112.2 163.91 C 1112.28 164.04 1112.42 164.12 1112.57 164.12 L 1113.31 164.12 L 1113.31 174.01 L 1112.57 174.01 C 1112.32 174.01 1112.12 174.21 1112.12 174.46 C 1112.12 174.71 1112.32 174.91 1112.57 174.91 L 1128.41 174.91 C 1128.66 174.91 1128.86 174.71 1128.86 174.46 C 1128.86 174.21 1128.66 174.01 1128.41 174.01 Z M 1126.77 173.98 L 1119 173.98 L 1119 164.11 L 1126.77 164.12 L 1126.77 173.98 Z M 1113.44 163.22 C 1113.36 163.22 1113.3 163.14 1113.34 163.07 L 1114.77 159.12 C 1114.79 159.08 1114.83 159.05 1114.87 159.05 L 1126.11 159.05 C 1126.16 159.05 1126.19 159.08 1126.21 159.12 L 1127.65 163.06 C 1127.69 163.14 1127.63 163.22 1127.55 163.22 M 1118.1 164.11 L 1118.1 173.98 L 1114.21 173.98 L 1114.21 164.12 L 1118.1 164.11 Z" fill="#00329D" stroke="none" stroke-width="1" />
</g>
<g id="shape-39" data-name="熊大的PPT宝库37">
<rect x="46.5" y="215.27" width="1185.8" height="447.07" rx="13.83" ry="13.83" fill="none" stroke-width="1.333" stroke="#00329D" stroke-dasharray="8 4" />
</g>
<g id="shape-40" data-name="熊大的PPT宝库38">
<rect x="208.31" y="235.76" width="306.14" height="37.57" rx="18.78" ry="18.78" fill="#729FFF" stroke="none" />
<text x="361.38" y="258.28" text-anchor="middle" xml:space="preserve" font-family="&quot;思源黑体 CN Normal&quot;, sans-serif" font-size="18.67" fill="#FFFFFF"><tspan fill="#FFFFFF" font-size="18.67">业务咨询服务</tspan></text>
</g>
<g id="shape-41" data-name="熊大的PPT宝库39">
<rect x="523.19" y="235.76" width="306.14" height="37.57" rx="18.78" ry="18.78" fill="#729FFF" stroke="none" />
<text x="676.27" y="258.28" text-anchor="middle" xml:space="preserve" font-family="&quot;思源黑体 CN Normal&quot;, sans-serif" font-size="18.67" fill="#FFFFFF"><tspan fill="#FFFFFF" font-size="18.67">数据分析服务</tspan></text>
</g>
<g id="shape-42" data-name="熊大的PPT宝库40">
<rect x="839.21" y="235.76" width="306.14" height="37.57" rx="18.78" ry="18.78" fill="#729FFF" stroke="none" />
<text x="992.28" y="258.28" text-anchor="middle" xml:space="preserve" font-family="&quot;思源黑体 CN Normal&quot;, sans-serif" font-size="18.67" fill="#FFFFFF"><tspan fill="#FFFFFF" font-size="18.67">平台赋能服务</tspan></text>
</g>
<g id="shape-43" data-name="熊大的PPT宝库41">
<polygon points="163.69,236.31 163.69,255.1 152.84,255.1 174.53,273.88 196.22,255.1 185.38,255.1 185.38,236.31" fill="url(#ggrad1)" stroke="none" />
</g>
<g id="shape-44" data-name="熊大的PPT宝库42" transform="translate(1176.92 255.1) scale(1 -1) translate(-1176.92 -255.1)">
<polygon points="1166.08,236.31 1166.08,255.1 1155.23,255.1 1176.92,273.88 1198.61,255.1 1187.77,255.1 1187.77,236.31" fill="url(#ggrad2)" stroke="none" />
</g>
<g id="shape-45" data-name="熊大的PPT宝库43">
<rect x="105.51" y="288.37" width="148.64" height="35.54" fill="none" />
<text x="179.83" y="311.31" text-anchor="middle" xml:space="preserve" font-family="&quot;思源黑体 CN Normal&quot;, sans-serif" font-size="21.33" fill="#00329D"><tspan fill="#00329D" font-size="21.33">代理合作伙伴</tspan></text>
</g>
<g id="shape-46" data-name="熊大的PPT宝库44">
<rect x="411.52" y="288.37" width="148.64" height="35.54" fill="none" />
<text x="485.84" y="311.31" text-anchor="middle" xml:space="preserve" font-family="&quot;思源黑体 CN Normal&quot;, sans-serif" font-size="21.33" fill="#00329D"><tspan fill="#00329D" font-size="21.33">行业合作伙伴</tspan></text>
</g>
<g id="shape-47" data-name="熊大的PPT宝库45">
<rect x="714.82" y="288.37" width="148.64" height="35.54" fill="none" />
<text x="789.14" y="311.31" text-anchor="middle" xml:space="preserve" font-family="&quot;思源黑体 CN Normal&quot;, sans-serif" font-size="21.33" fill="#00329D"><tspan fill="#00329D" font-size="21.33">服务合作伙伴</tspan></text>
</g>
<g id="shape-48" data-name="熊大的PPT宝库46">
<rect x="1017.8" y="288.37" width="148.64" height="35.54" fill="none" />
<text x="1092.12" y="311.31" text-anchor="middle" xml:space="preserve" font-family="&quot;思源黑体 CN Normal&quot;, sans-serif" font-size="21.33" fill="#00329D"><tspan fill="#00329D" font-size="21.33">产品合作伙伴</tspan></text>
</g>
<g id="shape-50" data-name="熊大的PPT宝库47">
<path d="M 180.64 319.18 C 192.47 344.16 202.71 363.16 237.4 385.15 L 210.98 385.15 L 214.87 412.37 C 221.7 450.26 233.19 488.71 251.33 522.67 L 113.56 522.67 C 131.7 487.21 144.08 448.39 150.69 411.25 L 154.06 385.15 L 123.88 385.15 C 156.99 364.16 173.55 338.18 180.64 319.18 Z" fill="url(#ggrad3)" stroke="none" stroke-width="1" />
</g>
<g id="shape-53" data-name="熊大的PPT宝库48">
<path d="M 215.94 390.06 C 273.87 395.79 257.26 410.79 191.06 412.51 C 184.03 412.69 176.87 412.69 169.84 412.51 C 103.74 410.8 86.95 395.84 144.67 390.08" fill="none" stroke-width="1.333" stroke="#729FFF" stroke-opacity="0" stroke-dasharray="4 4" />
</g>
<g id="shape-54" data-name="熊大的PPT宝库49">
<path d="M 201.66 390.06 C 236.42 393.27 226.45 401.66 186.74 402.62 C 182.52 402.72 178.22 402.72 174 402.62 C 134.35 401.67 124.28 393.29 158.91 390.07" fill="none" stroke-width="1.333" stroke="#729FFF" stroke-opacity="0" stroke-dasharray="4 4" />
</g>
<g id="shape-55" data-name="熊大的PPT宝库50">
<rect x="69.95" y="359.8" width="56.93" height="29.71" fill="none" />
<text x="98.42" y="371.13" text-anchor="middle" xml:space="preserve" font-family="&quot;思源黑体 CN Normal&quot;, sans-serif" font-size="13.33" fill="#000000"><tspan fill="#000000" font-size="13.33">明星产品专项活动</tspan></text>
</g>
<g id="shape-56" data-name="熊大的PPT宝库51">
<rect x="232.77" y="359.8" width="56.93" height="29.71" fill="none" />
<text x="261.24" y="371.13" text-anchor="middle" xml:space="preserve" font-family="&quot;思源黑体 CN Normal&quot;, sans-serif" font-size="13.33" fill="#000000"><tspan fill="#000000" font-size="13.33">商机支持渠道</tspan></text>
</g>
<g id="shape-57" data-name="熊大的PPT宝库52">
<rect x="232.77" y="415.76" width="56.93" height="29.71" fill="none" />
<text x="261.24" y="427.09" text-anchor="middle" xml:space="preserve" font-family="&quot;思源黑体 CN Normal&quot;, sans-serif" font-size="13.33" fill="#000000"><tspan fill="#000000" font-size="13.33">专属渠道经理</tspan></text>
</g>
<g id="shape-58" data-name="熊大的PPT宝库53">
<rect x="69.95" y="415.76" width="56.93" height="29.71" fill="none" />
<text x="98.42" y="427.09" text-anchor="middle" xml:space="preserve" font-family="&quot;思源黑体 CN Normal&quot;, sans-serif" font-size="13.33" fill="#000000"><tspan fill="#000000" font-size="13.33">产品渠道价格</tspan></text>
</g>
<g id="shape-59" data-name="熊大的PPT宝库54">
<ellipse cx="139.7" cy="397.64" rx="1.89" ry="1.89" fill="#00329D" stroke="none" />
</g>
<g id="shape-60" data-name="熊大的PPT宝库55">
<ellipse cx="222.09" cy="397.64" rx="1.89" ry="1.89" fill="#00329D" stroke="none" />
</g>
<g id="shape-61" data-name="熊大的PPT宝库56">
<ellipse cx="115.89" cy="406.64" rx="1.89" ry="1.89" fill="#00329D" stroke="none" />
</g>
<g id="shape-63" data-name="熊大的PPT宝库57">
<ellipse cx="244.71" cy="406.64" rx="1.89" ry="1.89" fill="#00329D" stroke="none" />
</g>
<g id="shape-66" data-name="熊大的PPT宝库58">
<path d="M 486.03 319.18 C 497.86 344.16 508.1 363.16 542.79 385.15 L 516.37 385.15 L 520.26 412.37 C 527.09 450.26 538.58 488.71 556.72 522.67 L 418.95 522.67 C 437.09 487.21 449.47 448.39 456.08 411.25 L 459.44 385.15 L 429.27 385.15 C 462.38 364.16 478.94 338.18 486.03 319.18 Z" fill="url(#ggrad4)" stroke="none" stroke-width="1" />
</g>
<g id="shape-67" data-name="熊大的PPT宝库59">
<path d="M 521.33 390.06 C 579.26 395.79 562.65 410.79 496.45 412.51 C 489.42 412.69 482.26 412.69 475.23 412.51 C 409.13 410.8 392.34 395.84 450.06 390.08" fill="none" stroke-width="1.333" stroke="#729FFF" stroke-opacity="0" stroke-dasharray="4 4" />
</g>
<g id="shape-68" data-name="熊大的PPT宝库60">
<path d="M 507.05 390.06 C 541.81 393.27 531.84 401.66 492.13 402.62 C 487.91 402.72 483.61 402.72 479.39 402.62 C 439.74 401.67 429.67 393.29 464.29 390.07" fill="none" stroke-width="1.333" stroke="#729FFF" stroke-opacity="0" stroke-dasharray="4 4" />
</g>
<g id="shape-69" data-name="熊大的PPT宝库61">
<rect x="375.34" y="359.8" width="56.93" height="29.71" fill="none" />
<text x="403.81" y="371.13" text-anchor="middle" xml:space="preserve" font-family="&quot;思源黑体 CN Normal&quot;, sans-serif" font-size="13.33" fill="#000000"><tspan fill="#000000" font-size="13.33">商业共享渠道</tspan></text>
</g>
<g id="shape-70" data-name="熊大的PPT宝库62">
<rect x="538.16" y="359.8" width="56.93" height="29.71" fill="none" />
<text x="566.63" y="371.13" text-anchor="middle" xml:space="preserve" font-family="&quot;思源黑体 CN Normal&quot;, sans-serif" font-size="13.33" fill="#000000"><tspan fill="#000000" font-size="13.33">市场共拓渠道</tspan></text>
</g>
<g id="shape-71" data-name="熊大的PPT宝库63">
<rect x="538.16" y="415.76" width="56.93" height="29.71" fill="none" />
<text x="566.63" y="427.09" text-anchor="middle" xml:space="preserve" font-family="&quot;思源黑体 CN Normal&quot;, sans-serif" font-size="13.33" fill="#000000"><tspan fill="#000000" font-size="13.33">解决方案共创</tspan></text>
</g>
<g id="shape-72" data-name="熊大的PPT宝库64">
<rect x="375.34" y="415.76" width="56.93" height="29.71" fill="none" />
<text x="403.81" y="427.09" text-anchor="middle" xml:space="preserve" font-family="&quot;思源黑体 CN Normal&quot;, sans-serif" font-size="13.33" fill="#000000"><tspan fill="#000000" font-size="13.33">产品能力被集成</tspan></text>
</g>
<g id="shape-73" data-name="熊大的PPT宝库65">
<ellipse cx="445.09" cy="397.64" rx="1.89" ry="1.89" fill="#00329D" stroke="none" />
</g>
<g id="shape-74" data-name="熊大的PPT宝库66">
<ellipse cx="527.47" cy="397.64" rx="1.89" ry="1.89" fill="#00329D" stroke="none" />
</g>
<g id="shape-75" data-name="熊大的PPT宝库67">
<ellipse cx="421.28" cy="406.64" rx="1.89" ry="1.89" fill="#00329D" stroke="none" />
</g>
<g id="shape-76" data-name="熊大的PPT宝库68">
<ellipse cx="550.1" cy="406.64" rx="1.89" ry="1.89" fill="#00329D" stroke="none" />
</g>
<g id="shape-78" data-name="熊大的PPT宝库69">
<path d="M 789.04 319.18 C 800.86 344.16 811.11 363.16 845.8 385.15 L 819.38 385.15 L 823.26 412.37 C 830.1 450.26 841.59 488.71 859.73 522.67 L 721.96 522.67 C 740.1 487.21 752.48 448.39 759.09 411.25 L 762.45 385.15 L 732.28 385.15 C 765.39 364.16 781.94 338.18 789.04 319.18 Z" fill="url(#ggrad5)" stroke="none" stroke-width="1" />
</g>
<g id="shape-79" data-name="熊大的PPT宝库70">
<path d="M 824.34 390.06 C 882.27 395.79 865.65 410.79 799.46 412.51 C 792.43 412.69 785.27 412.69 778.24 412.51 C 712.14 410.8 695.35 395.84 753.07 390.08" fill="none" stroke-width="1.333" stroke="#729FFF" stroke-opacity="0" stroke-dasharray="4 4" />
</g>
<g id="shape-80" data-name="熊大的PPT宝库71">
<path d="M 810.06 390.06 C 844.82 393.27 834.85 401.66 795.13 402.62 C 790.91 402.72 786.62 402.72 782.4 402.62 C 742.75 401.67 732.68 393.29 767.3 390.07" fill="none" stroke-width="1.333" stroke="#729FFF" stroke-opacity="0" stroke-dasharray="4 4" />
</g>
<g id="shape-81" data-name="熊大的PPT宝库72">
<rect x="678.35" y="359.8" width="56.93" height="29.71" fill="none" />
<text x="706.82" y="371.13" text-anchor="middle" xml:space="preserve" font-family="&quot;思源黑体 CN Normal&quot;, sans-serif" font-size="13.33" fill="#000000"><tspan fill="#000000" font-size="13.33">自研产品服务包</tspan></text>
</g>
<g id="shape-82" data-name="熊大的PPT宝库73">
<rect x="841.17" y="359.8" width="56.93" height="29.71" fill="none" />
<text x="869.64" y="371.13" text-anchor="middle" xml:space="preserve" font-family="&quot;思源黑体 CN Normal&quot;, sans-serif" font-size="13.33" fill="#000000"><tspan fill="#000000" font-size="13.33">赛事联动渠道</tspan></text>
</g>
<g id="shape-83" data-name="熊大的PPT宝库74">
<rect x="841.17" y="415.76" width="56.93" height="29.71" fill="none" />
<text x="869.64" y="427.09" text-anchor="middle" xml:space="preserve" font-family="&quot;思源黑体 CN Normal&quot;, sans-serif" font-size="13.33" fill="#000000"><tspan fill="#000000" font-size="13.33">行业产品培训</tspan></text>
</g>
<g id="shape-84" data-name="熊大的PPT宝库75">
<rect x="678.35" y="415.76" width="56.93" height="29.71" fill="none" />
<text x="706.82" y="427.09" text-anchor="middle" xml:space="preserve" font-family="&quot;思源黑体 CN Normal&quot;, sans-serif" font-size="13.33" fill="#000000"><tspan fill="#000000" font-size="13.33">技术认证渠道</tspan></text>
</g>
<g id="shape-85" data-name="熊大的PPT宝库76">
<ellipse cx="748.1" cy="397.64" rx="1.89" ry="1.89" fill="#00329D" stroke="none" />
</g>
<g id="shape-86" data-name="熊大的PPT宝库77">
<ellipse cx="830.48" cy="397.64" rx="1.89" ry="1.89" fill="#00329D" stroke="none" />
</g>
<g id="shape-87" data-name="熊大的PPT宝库78">
<ellipse cx="724.29" cy="406.64" rx="1.89" ry="1.89" fill="#00329D" stroke="none" />
</g>
<g id="shape-88" data-name="熊大的PPT宝库79">
<ellipse cx="853.1" cy="406.64" rx="1.89" ry="1.89" fill="#00329D" stroke="none" />
</g>
<g id="shape-90" data-name="熊大的PPT宝库80">
<path d="M 1090.53 319.18 C 1102.35 344.16 1112.6 363.16 1147.29 385.15 L 1120.87 385.15 L 1124.75 412.37 C 1131.59 450.26 1143.08 488.71 1161.22 522.67 L 1023.44 522.67 C 1041.59 487.21 1053.97 448.39 1060.58 411.25 L 1063.94 385.15 L 1033.77 385.15 C 1066.88 364.16 1083.43 338.18 1090.53 319.18 Z" fill="url(#ggrad6)" stroke="none" stroke-width="1" />
</g>
<g id="shape-91" data-name="熊大的PPT宝库81">
<path d="M 1125.82 390.06 C 1183.76 395.79 1167.14 410.79 1100.95 412.51 C 1093.92 412.69 1086.76 412.69 1079.72 412.51 C 1013.63 410.8 996.84 395.84 1054.56 390.08" fill="none" stroke-width="1.333" stroke="#729FFF" stroke-opacity="0" stroke-dasharray="4 4" />
</g>
<g id="shape-92" data-name="熊大的PPT宝库82">
<path d="M 1111.55 390.06 C 1146.3 393.27 1136.33 401.66 1096.62 402.62 C 1092.4 402.72 1088.11 402.72 1083.89 402.62 C 1044.23 401.67 1034.16 393.29 1068.79 390.07" fill="none" stroke-width="1.333" stroke="#729FFF" stroke-opacity="0" stroke-dasharray="4 4" />
</g>
<g id="shape-93" data-name="熊大的PPT宝库83">
<rect x="979.84" y="359.8" width="56.93" height="29.71" fill="none" />
<text x="1008.3" y="371.13" text-anchor="middle" xml:space="preserve" font-family="&quot;思源黑体 CN Normal&quot;, sans-serif" font-size="13.33" fill="#000000"><tspan fill="#000000" font-size="13.33">产品接口开发</tspan></text>
</g>
<g id="shape-94" data-name="熊大的PPT宝库84">
<rect x="1142.66" y="359.8" width="56.93" height="29.71" fill="none" />
<text x="1171.13" y="371.13" text-anchor="middle" xml:space="preserve" font-family="&quot;思源黑体 CN Normal&quot;, sans-serif" font-size="13.33" fill="#000000"><tspan fill="#000000" font-size="13.33">产品精选库</tspan></text>
</g>
<g id="shape-95" data-name="熊大的PPT宝库85">
<rect x="1142.66" y="415.76" width="56.93" height="29.71" fill="none" />
<text x="1171.13" y="427.09" text-anchor="middle" xml:space="preserve" font-family="&quot;思源黑体 CN Normal&quot;, sans-serif" font-size="13.33" fill="#000000"><tspan fill="#000000" font-size="13.33">联合市场活动</tspan></text>
</g>
<g id="shape-96" data-name="熊大的PPT宝库86">
<rect x="979.84" y="415.76" width="56.93" height="29.71" fill="none" />
<text x="1008.3" y="427.09" text-anchor="middle" xml:space="preserve" font-family="&quot;思源黑体 CN Normal&quot;, sans-serif" font-size="13.33" fill="#000000"><tspan fill="#000000" font-size="13.33">研发资源渠道</tspan></text>
</g>
<g id="shape-97" data-name="熊大的PPT宝库87">
<ellipse cx="1049.58" cy="397.64" rx="1.89" ry="1.89" fill="#00329D" stroke="none" />
</g>
<g id="shape-98" data-name="熊大的PPT宝库88">
<ellipse cx="1131.97" cy="397.64" rx="1.89" ry="1.89" fill="#00329D" stroke="none" />
</g>
<g id="shape-99" data-name="熊大的PPT宝库89">
<ellipse cx="1025.78" cy="406.64" rx="1.89" ry="1.89" fill="#00329D" stroke="none" />
</g>
<g id="shape-100" data-name="熊大的PPT宝库90">
<ellipse cx="1154.59" cy="406.64" rx="1.89" ry="1.89" fill="#00329D" stroke="none" />
</g>
<g id="shape-101" data-name="熊大的PPT宝库91">
<rect x="46.5" y="478.54" width="1187" height="47.43" rx="7.91" ry="7.91" fill="#B8CFFF" fill-opacity="0.36" stroke="none" />
<text x="640" y="507.59" text-anchor="middle" xml:space="preserve" font-family="&quot;思源黑体 CN Normal&quot;, sans-serif" font-size="26.67" fill="#00329D"><tspan fill="#00329D" font-size="26.67">{{CLOSING_MESSAGE}}</tspan></text>
</g>
<g id="shape-102" data-name="熊大的PPT宝库92">
<rect x="47.7" y="532.9" width="272.71" height="129.43" rx="8" ry="8" fill="#B8CFFF" fill-opacity="0.3" stroke-width="1" stroke="none" stroke-dasharray="4 4" />
</g>
<g id="shape-103" data-name="熊大的PPT宝库93">
<rect x="73.23" y="540.95" width="222.3" height="36.14" fill="none" />
<text x="184.38" y="552.28" text-anchor="middle" xml:space="preserve" font-family="Roboto, &quot;思源黑体 CN Normal&quot;, sans-serif" font-size="13.33" fill="#000000" fill-opacity="0.65"><tspan fill="#000000" font-size="13.33" fill-opacity="0.65">推广及销售</tspan><tspan fill="#000000" font-size="13.33" fill-opacity="0.65">xx</tspan><tspan fill="#000000" font-size="13.33" fill-opacity="0.65">云精础产品及</tspan><tspan fill="#000000" font-size="13.33" fill-opacity="0.65">xx</tspan><tspan fill="#000000" font-size="13.33" fill-opacity="0.65">教育行</tspan><tspan x="184.38" dy="15.2" fill="#000000" font-size="13.33" fill-opacity="0.65">业产品小红书华创行业报雪</tspan></text>
</g>
<g id="shape-104" data-name="熊大的PPT宝库94">
<rect x="351.49" y="532.9" width="272.71" height="129.43" rx="8" ry="8" fill="#B8CFFF" fill-opacity="0.3" stroke-width="1" stroke="none" stroke-dasharray="4 4" />
</g>
<g id="shape-105" data-name="熊大的PPT宝库95">
<rect x="377.02" y="540.95" width="222.3" height="36.14" fill="none" />
<text x="488.17" y="552.28" text-anchor="middle" xml:space="preserve" font-family="Roboto, &quot;思源黑体 CN Normal&quot;, sans-serif" font-size="13.33" fill="#000000" fill-opacity="0.65"><tspan fill="#000000" font-size="13.33" fill-opacity="0.65">集众</tspan><tspan fill="#000000" font-size="13.33" fill-opacity="0.65">xx</tspan><tspan fill="#000000" font-size="13.33" fill-opacity="0.65">云产品</tspan><tspan fill="#000000" font-size="13.33" fill-opacity="0.65">/</tspan><tspan fill="#000000" font-size="13.33" fill-opacity="0.65">技术能力，开发面向教</tspan><tspan x="488.17" dy="15.2" fill="#000000" font-size="13.33" fill-opacity="0.65">育行业场景的解决方案线产品</tspan></text>
</g>
<g id="shape-109" data-name="熊大的PPT宝库96">
<rect x="655.29" y="532.9" width="272.71" height="129.43" rx="8" ry="8" fill="#B8CFFF" fill-opacity="0.3" stroke-width="1" stroke="none" stroke-dasharray="4 4" />
</g>
<g id="shape-110" data-name="熊大的PPT宝库97">
<rect x="680.81" y="540.95" width="222.3" height="36.14" fill="none" />
<text x="791.96" y="552.28" text-anchor="middle" xml:space="preserve" font-family="Roboto, &quot;思源黑体 CN Normal&quot;, sans-serif" font-size="13.33" fill="#000000" fill-opacity="0.65"><tspan fill="#000000" font-size="13.33" fill-opacity="0.65">xx</tspan><tspan fill="#000000" font-size="13.33" fill-opacity="0.65">云自研产品服务合作伙伴，经过</tspan><tspan x="791.96" dy="15.2" fill="#000000" font-size="13.33" fill-opacity="0.65">xxx</tspan><tspan fill="#000000" font-size="13.33" fill-opacity="0.65">云认证与授权</tspan></text>
</g>
<g id="shape-112" data-name="熊大的PPT宝库98">
<rect x="959.08" y="532.9" width="272.71" height="129.43" rx="8" ry="8" fill="#B8CFFF" fill-opacity="0.3" stroke-width="1" stroke="none" stroke-dasharray="4 4" />
</g>
<g id="shape-113" data-name="熊大的PPT宝库99">
<rect x="984.61" y="540.95" width="222.3" height="36.14" fill="none" />
<text x="1095.76" y="552.28" text-anchor="middle" xml:space="preserve" font-family="Roboto, &quot;思源黑体 CN Normal&quot;, sans-serif" font-size="13.33" fill="#000000" fill-opacity="0.65"><tspan fill="#000000" font-size="13.33" fill-opacity="0.65">与</tspan><tspan fill="#000000" font-size="13.33" fill-opacity="0.65">xx</tspan><tspan fill="#000000" font-size="13.33" fill-opacity="0.65">教育自研产品进行融合，共同投</tspan><tspan x="1095.76" dy="15.2" fill="#000000" font-size="13.33" fill-opacity="0.65">入研发及市场资源</tspan></text>
</g>
<g id="shape-114" data-name="熊大的PPT宝库100">
<rect x="57.1" y="581.71" width="73.82" height="24.35" rx="4.06" ry="4.06" fill="#B8CFFF" stroke="none" />
<text x="94.01" y="596.55" text-anchor="middle" xml:space="preserve" font-family="&quot;思源黑体 CN Normal&quot;, sans-serif" font-size="13.33" fill="#000000"><tspan fill="#000000" font-size="13.33">人工智能</tspan></text>
</g>
<g id="shape-115" data-name="熊大的PPT宝库101">
<rect x="145.1" y="581.71" width="73.82" height="24.35" rx="4.06" ry="4.06" fill="#B8CFFF" stroke="none" />
<text x="182.01" y="596.55" text-anchor="middle" xml:space="preserve" font-family="&quot;思源黑体 CN Normal&quot;, sans-serif" font-size="13.33" fill="#000000"><tspan fill="#000000" font-size="13.33">XX会议</tspan></text>
</g>
<g id="shape-116" data-name="熊大的PPT宝库102">
<rect x="233.9" y="581.71" width="73.82" height="24.35" rx="4.06" ry="4.06" fill="#B8CFFF" stroke="none" />
<text x="270.81" y="596.55" text-anchor="middle" xml:space="preserve" font-family="&quot;思源黑体 CN Normal&quot;, sans-serif" font-size="13.33" fill="#000000"><tspan fill="#000000" font-size="13.33">XX学校</tspan></text>
</g>
<g id="shape-118" data-name="熊大的PPT宝库103">
<rect x="57.1" y="608.61" width="73.82" height="24.35" rx="4.06" ry="4.06" fill="#B8CFFF" stroke="none" />
<text x="94.01" y="623.45" text-anchor="middle" xml:space="preserve" font-family="&quot;思源黑体 CN Normal&quot;, sans-serif" font-size="13.33" fill="#000000"><tspan fill="#000000" font-size="13.33">乐享</tspan></text>
</g>
<g id="shape-119" data-name="熊大的PPT宝库104">
<rect x="145.1" y="608.61" width="73.82" height="24.35" rx="4.06" ry="4.06" fill="#B8CFFF" stroke="none" />
<text x="182.01" y="623.45" text-anchor="middle" xml:space="preserve" font-family="&quot;思源黑体 CN Normal&quot;, sans-serif" font-size="13.33" fill="#000000"><tspan fill="#000000" font-size="13.33">学生证</tspan></text>
</g>
<g id="shape-120" data-name="熊大的PPT宝库105">
<rect x="233.9" y="608.61" width="73.82" height="24.35" rx="4.06" ry="4.06" fill="#B8CFFF" stroke="none" />
<text x="270.81" y="623.45" text-anchor="middle" xml:space="preserve" font-family="&quot;思源黑体 CN Normal&quot;, sans-serif" font-size="13.33" fill="#000000"><tspan fill="#000000" font-size="13.33">企业微信</tspan></text>
</g>
<g id="shape-121" data-name="熊大的PPT宝库106">
<rect x="99.32" y="635.51" width="73.82" height="24.35" rx="4.06" ry="4.06" fill="#B8CFFF" stroke="none" />
<text x="136.23" y="650.35" text-anchor="middle" xml:space="preserve" font-family="&quot;思源黑体 CN Normal&quot;, sans-serif" font-size="13.33" fill="#000000"><tspan fill="#000000" font-size="13.33">XX文档</tspan></text>
</g>
<g id="shape-122" data-name="熊大的PPT宝库107">
<rect x="187.32" y="635.51" width="73.82" height="24.35" rx="4.06" ry="4.06" fill="#B8CFFF" stroke="none" />
<text x="224.23" y="650.35" text-anchor="middle" xml:space="preserve" font-family="&quot;思源黑体 CN Normal&quot;, sans-serif" font-size="13.33" fill="#000000"><tspan fill="#000000" font-size="13.33">XX盘</tspan></text>
</g>
<g id="shape-123" data-name="熊大的PPT宝库108">
<rect x="361.38" y="581.71" width="73.82" height="24.35" rx="4.06" ry="4.06" fill="#00329D" stroke="none" />
<text x="398.29" y="596.55" text-anchor="middle" xml:space="preserve" font-family="&quot;思源黑体 CN Normal&quot;, sans-serif" font-size="13.33" fill="#FFFFFF"><tspan fill="#FFFFFF" font-size="13.33">教育基础</tspan></text>
</g>
<g id="shape-124" data-name="熊大的PPT宝库109">
<rect x="449.38" y="581.71" width="73.82" height="24.35" rx="4.06" ry="4.06" fill="#00329D" stroke="none" />
<text x="486.29" y="596.55" text-anchor="middle" xml:space="preserve" font-family="&quot;思源黑体 CN Normal&quot;, sans-serif" font-size="13.33" fill="#FFFFFF"><tspan fill="#FFFFFF" font-size="13.33">智慧校园</tspan></text>
</g>
<g id="shape-125" data-name="熊大的PPT宝库110">
<rect x="538.18" y="581.71" width="73.82" height="24.35" rx="4.06" ry="4.06" fill="#00329D" stroke="none" />
<text x="575.08" y="596.55" text-anchor="middle" xml:space="preserve" font-family="&quot;思源黑体 CN Normal&quot;, sans-serif" font-size="13.33" fill="#FFFFFF"><tspan fill="#FFFFFF" font-size="13.33">科研协同</tspan></text>
</g>
<g id="shape-126" data-name="熊大的PPT宝库111">
<rect x="361.38" y="608.61" width="73.82" height="24.35" rx="4.06" ry="4.06" fill="#00329D" stroke="none" />
<text x="398.29" y="623.45" text-anchor="middle" xml:space="preserve" font-family="&quot;思源黑体 CN Normal&quot;, sans-serif" font-size="13.33" fill="#FFFFFF"><tspan fill="#FFFFFF" font-size="13.33">校企合作</tspan></text>
</g>
<g id="shape-127" data-name="熊大的PPT宝库112">
<rect x="449.38" y="608.61" width="73.82" height="24.35" rx="4.06" ry="4.06" fill="#00329D" stroke="none" />
<text x="486.29" y="623.45" text-anchor="middle" xml:space="preserve" font-family="&quot;思源黑体 CN Normal&quot;, sans-serif" font-size="13.33" fill="#FFFFFF"><tspan fill="#FFFFFF" font-size="13.33">课堂互动</tspan></text>
</g>
<g id="shape-128" data-name="熊大的PPT宝库113">
<rect x="538.18" y="608.61" width="73.82" height="24.35" rx="4.06" ry="4.06" fill="#00329D" stroke="none" />
<text x="575.08" y="623.45" text-anchor="middle" xml:space="preserve" font-family="&quot;思源黑体 CN Normal&quot;, sans-serif" font-size="13.33" fill="#FFFFFF"><tspan fill="#FFFFFF" font-size="13.33">招生营销</tspan></text>
</g>
<g id="shape-129" data-name="熊大的PPT宝库114">
<rect x="403.6" y="635.51" width="73.82" height="24.35" rx="4.06" ry="4.06" fill="#00329D" stroke="none" />
<text x="440.51" y="650.35" text-anchor="middle" xml:space="preserve" font-family="&quot;思源黑体 CN Normal&quot;, sans-serif" font-size="13.33" fill="#FFFFFF"><tspan fill="#FFFFFF" font-size="13.33">教育大模型</tspan></text>
</g>
<g id="shape-131" data-name="熊大的PPT宝库115">
<rect x="663.74" y="581.71" width="73.82" height="24.35" rx="4.06" ry="4.06" fill="#B8CFFF" stroke="none" />
<text x="700.65" y="596.55" text-anchor="middle" xml:space="preserve" font-family="&quot;思源黑体 CN Normal&quot;, sans-serif" font-size="13.33" fill="#000000"><tspan fill="#000000" font-size="13.33">人工智能</tspan></text>
</g>
<g id="shape-132" data-name="熊大的PPT宝库116">
<rect x="751.74" y="581.71" width="73.82" height="24.35" rx="4.06" ry="4.06" fill="#B8CFFF" stroke="none" />
<text x="788.65" y="596.55" text-anchor="middle" xml:space="preserve" font-family="&quot;思源黑体 CN Normal&quot;, sans-serif" font-size="13.33" fill="#000000"><tspan fill="#000000" font-size="13.33">数字孪生</tspan></text>
</g>
<g id="shape-133" data-name="熊大的PPT宝库117">
<rect x="840.54" y="581.71" width="73.82" height="24.35" rx="4.06" ry="4.06" fill="#B8CFFF" stroke="none" />
<text x="877.45" y="596.55" text-anchor="middle" xml:space="preserve" font-family="&quot;思源黑体 CN Normal&quot;, sans-serif" font-size="13.33" fill="#000000"><tspan fill="#000000" font-size="13.33">教育号</tspan></text>
</g>
<g id="shape-134" data-name="熊大的PPT宝库118">
<rect x="663.74" y="608.61" width="73.82" height="24.35" rx="4.06" ry="4.06" fill="#B8CFFF" stroke="none" />
<text x="700.65" y="623.45" text-anchor="middle" xml:space="preserve" font-family="&quot;思源黑体 CN Normal&quot;, sans-serif" font-size="13.33" fill="#000000"><tspan fill="#000000" font-size="13.33">职业竞赛</tspan></text>
</g>
<g id="shape-135" data-name="熊大的PPT宝库119">
<rect x="751.74" y="608.61" width="73.82" height="24.35" rx="4.06" ry="4.06" fill="#B8CFFF" stroke="none" />
<text x="788.65" y="623.45" text-anchor="middle" xml:space="preserve" font-family="&quot;思源黑体 CN Normal&quot;, sans-serif" font-size="13.33" fill="#000000"><tspan fill="#000000" font-size="13.33">竞赛平台</tspan></text>
</g>
<g id="shape-136" data-name="熊大的PPT宝库120">
<rect x="840.54" y="608.61" width="73.82" height="24.35" rx="4.06" ry="4.06" fill="#B8CFFF" stroke="none" />
<text x="877.45" y="623.45" text-anchor="middle" xml:space="preserve" font-family="&quot;思源黑体 CN Normal&quot;, sans-serif" font-size="13.33" fill="#000000"><tspan fill="#000000" font-size="13.33">大数据</tspan></text>
</g>
<g id="shape-137" data-name="熊大的PPT宝库121">
<rect x="705.96" y="635.51" width="73.82" height="24.35" rx="4.06" ry="4.06" fill="#B8CFFF" stroke="none" />
<text x="742.87" y="650.35" text-anchor="middle" xml:space="preserve" font-family="&quot;思源黑体 CN Normal&quot;, sans-serif" font-size="13.33" fill="#000000"><tspan fill="#000000" font-size="13.33">XX平台</tspan></text>
</g>
<g id="shape-138" data-name="熊大的PPT宝库122">
<rect x="793.96" y="635.51" width="73.82" height="24.35" rx="4.06" ry="4.06" fill="#B8CFFF" stroke="none" />
<text x="830.87" y="650.35" text-anchor="middle" xml:space="preserve" font-family="&quot;思源黑体 CN Normal&quot;, sans-serif" font-size="13.33" fill="#000000"><tspan fill="#000000" font-size="13.33">。。。</tspan></text>
</g>
<g id="shape-139" data-name="熊大的PPT宝库123">
<rect x="972.63" y="581.71" width="73.82" height="24.35" rx="4.06" ry="4.06" fill="#00329D" stroke="none" />
<text x="1009.54" y="596.55" text-anchor="middle" xml:space="preserve" font-family="&quot;思源黑体 CN Normal&quot;, sans-serif" font-size="13.33" fill="#FFFFFF"><tspan fill="#FFFFFF" font-size="13.33">英语听说</tspan></text>
</g>
<g id="shape-140" data-name="熊大的PPT宝库124">
<rect x="1060.63" y="581.71" width="73.82" height="24.35" rx="4.06" ry="4.06" fill="#00329D" stroke="none" />
<text x="1097.54" y="596.55" text-anchor="middle" xml:space="preserve" font-family="&quot;思源黑体 CN Normal&quot;, sans-serif" font-size="13.33" fill="#FFFFFF"><tspan fill="#FFFFFF" font-size="13.33">产教融合</tspan></text>
</g>
<g id="shape-141" data-name="熊大的PPT宝库125">
<rect x="1149.43" y="581.71" width="73.82" height="24.35" rx="4.06" ry="4.06" fill="#00329D" stroke="none" />
<text x="1186.34" y="596.55" text-anchor="middle" xml:space="preserve" font-family="&quot;思源黑体 CN Normal&quot;, sans-serif" font-size="13.33" fill="#FFFFFF"><tspan fill="#FFFFFF" font-size="13.33">市场实践</tspan></text>
</g>
<g id="shape-142" data-name="熊大的PPT宝库126">
<rect x="972.63" y="608.61" width="73.82" height="24.35" rx="4.06" ry="4.06" fill="#00329D" stroke="none" />
<text x="1009.54" y="623.45" text-anchor="middle" xml:space="preserve" font-family="&quot;思源黑体 CN Normal&quot;, sans-serif" font-size="13.33" fill="#FFFFFF"><tspan fill="#FFFFFF" font-size="13.33">校企合作</tspan></text>
</g>
<g id="shape-143" data-name="熊大的PPT宝库127">
<rect x="1060.63" y="608.61" width="73.82" height="24.35" rx="4.06" ry="4.06" fill="#00329D" stroke="none" />
<text x="1097.54" y="623.45" text-anchor="middle" xml:space="preserve" font-family="&quot;思源黑体 CN Normal&quot;, sans-serif" font-size="13.33" fill="#FFFFFF"><tspan fill="#FFFFFF" font-size="13.33">自研</tspan></text>
</g>
<g id="shape-144" data-name="熊大的PPT宝库128">
<rect x="1149.43" y="608.61" width="73.82" height="24.35" rx="4.06" ry="4.06" fill="#00329D" stroke="none" />
<text x="1186.34" y="623.45" text-anchor="middle" xml:space="preserve" font-family="&quot;思源黑体 CN Normal&quot;, sans-serif" font-size="13.33" fill="#FFFFFF"><tspan fill="#FFFFFF" font-size="13.33">资源共享</tspan></text>
</g>
<g id="shape-145" data-name="熊大的PPT宝库129">
<rect x="1014.85" y="635.51" width="73.82" height="24.35" rx="4.06" ry="4.06" fill="#00329D" stroke="none" />
<text x="1051.76" y="650.35" text-anchor="middle" xml:space="preserve" font-family="&quot;思源黑体 CN Normal&quot;, sans-serif" font-size="13.33" fill="#FFFFFF"><tspan fill="#FFFFFF" font-size="13.33">教育融合</tspan></text>
</g>
<g id="shape-146" data-name="熊大的PPT宝库130">
<rect x="1102.85" y="635.51" width="73.82" height="24.35" rx="4.06" ry="4.06" fill="#00329D" stroke="none" />
<text x="1139.76" y="650.35" text-anchor="middle" xml:space="preserve" font-family="&quot;思源黑体 CN Normal&quot;, sans-serif" font-size="13.33" fill="#FFFFFF"><tspan fill="#FFFFFF" font-size="13.33">等等等</tspan></text>
</g></svg>