<?xml version="1.0" encoding="UTF-8" standalone="yes"?><svg fill="none" xmlns="http://www.w3.org/2000/svg" xmlns:xlink="http://www.w3.org/1999/xlink" version="1.2" baseProfile="tiny" x="0" y="0" width="256" height="256" viewBox="0 0 256 256"><defs><linearGradient id="wps{c21bbf81-7eb2-4d5c-a280-41bd15936a4f}_solid@Accent4_0.00@Accent4_0.00" x1="0" y1="0.5" x2="1" y2="0.5" spreadMethod="pad" gradientUnits="userSpaceOnUse"><stop offset="0" stop-color="#a78d5b" stop-opacity="1"/><stop offset="1" stop-color="#a78d5b" stop-opacity="1"/></linearGradient><linearGradient id="wps{a4e98a13-36ea-4cce-95d3-5c235be2efef}_solid@Accent4_0.00@Accent4_0.00" x1="0" y1="0.5" x2="1" y2="0.5" spreadMethod="pad" gradientUnits="userSpaceOnUse"><stop offset="0" stop-color="#a78d5b" stop-opacity="1"/><stop offset="1" stop-color="#a78d5b" stop-opacity="1"/></linearGradient></defs><defs/><defs/><g transform="matrix(1.02689,0,0,1.02689,-3.59329,-0.941648)"><path fill="url(#wps{c21bbf81-7eb2-4d5c-a280-41bd15936a4f}_solid@Accent4_0.00@Accent4_0.00)" fill-opacity="1" fill-rule="evenodd" stroke="url(#wps{a4e98a13-36ea-4cce-95d3-5c235be2efef}_solid@Accent4_0.00@Accent4_0.00)" stroke-width="1" stroke-opacity="1" clip-rule="evenodd" d="M 24.1582 60.5929 C 24.1582 43.1276 36.8413 27.9191 53.7069 27.9191 C 70.5725 27.9191 83.2554 43.1276 83.2554 60.5929 C 83.2554 78.0581 70.5725 93.2668 53.7069 93.2668 C 36.8413 93.2668 24.1582 78.0582 24.1582 60.5929 M 53.7069 37.9191 C 43.4569 37.9191 34.1582 47.4904 34.1582 60.5929 C 34.1582 73.6954 43.4569 83.2668 53.7069 83.2668 C 63.9568 83.2668 73.2554 73.6954 73.2554 60.5929 C 73.2554 47.4904 63.9569 37.9191 53.7069 37.9191"/><path fill="url(#wps{c21bbf81-7eb2-4d5c-a280-41bd15936a4f}_solid@Accent4_0.00@Accent4_0.00)" fill-opacity="1" fill-rule="evenodd" stroke="url(#wps{a4e98a13-36ea-4cce-95d3-5c235be2efef}_solid@Accent4_0.00@Accent4_0.00)" stroke-width="1" stroke-opacity="1" clip-rule="evenodd" d="M 20.0237 95.8274 L 133.025 95.8697 L 133.025 129.266 L 84.4977 129.064 L 84.4977 250.179 L 74.4977 250.179 L 74.4977 119.022 L 123.025 119.224 L 123.025 105.866 L 25.7252 105.829 L 16.4414 121.521 L 16.4414 181.57 L 29.1583 181.57 L 29.1583 191.57 L 6.44141 191.57 L 6.44141 118.784 L 20.0237 95.8274 Z"/><path fill="url(#wps{c21bbf81-7eb2-4d5c-a280-41bd15936a4f}_solid@Accent4_0.00@Accent4_0.00)" fill-opacity="1" fill-rule="evenodd" stroke="url(#wps{a4e98a13-36ea-4cce-95d3-5c235be2efef}_solid@Accent4_0.00@Accent4_0.00)" stroke-width="1" stroke-opacity="1" clip-rule="evenodd" d="M 24.1583 250.214 L 23.3413 135.389 L 33.341 135.318 L 34.158 250.143 L 24.1583 250.214 Z"/><path fill="url(#wps{c21bbf81-7eb2-4d5c-a280-41bd15936a4f}_solid@Accent4_0.00@Accent4_0.00)" fill-opacity="1" fill-rule="evenodd" stroke="url(#wps{a4e98a13-36ea-4cce-95d3-5c235be2efef}_solid@Accent4_0.00@Accent4_0.00)" stroke-width="1" stroke-opacity="1" clip-rule="evenodd" d="M 51.1343 250.179 L 51.1343 183.05 L 61.1343 183.05 L 61.1343 250.179 L 51.1343 250.179 Z"/><path fill="url(#wps{c21bbf81-7eb2-4d5c-a280-41bd15936a4f}_solid@Accent4_0.00@Accent4_0.00)" fill-opacity="1" fill-rule="evenodd" stroke="url(#wps{a4e98a13-36ea-4cce-95d3-5c235be2efef}_solid@Accent4_0.00@Accent4_0.00)" stroke-width="1" stroke-opacity="1" clip-rule="evenodd" d="M 92.0724 0.916992 L 249.854 0.916992 L 249.854 180.503 L 97.0724 180.503 L 97.0724 170.503 L 239.854 170.503 L 239.854 10.917 L 102.072 10.917 L 102.072 88.2663 L 92.0724 88.2663 L 92.0724 0.916992 Z"/><path fill="url(#wps{c21bbf81-7eb2-4d5c-a280-41bd15936a4f}_solid@Accent4_0.00@Accent4_0.00)" fill-opacity="1" fill-rule="evenodd" stroke="url(#wps{a4e98a13-36ea-4cce-95d3-5c235be2efef}_solid@Accent4_0.00@Accent4_0.00)" stroke-width="1" stroke-opacity="1" clip-rule="evenodd" d="M 114.79 47.9089 L 156.785 47.9089 L 157.064 146.878 L 147.064 146.906 L 146.813 57.9089 L 124.79 57.9089 L 124.79 88.2663 L 114.79 88.2663 L 114.79 47.9089 Z"/><path fill="url(#wps{c21bbf81-7eb2-4d5c-a280-41bd15936a4f}_solid@Accent4_0.00@Accent4_0.00)" fill-opacity="1" fill-rule="evenodd" stroke="url(#wps{a4e98a13-36ea-4cce-95d3-5c235be2efef}_solid@Accent4_0.00@Accent4_0.00)" stroke-width="1" stroke-opacity="1" clip-rule="evenodd" d="M 177.556 24.4132 L 219.659 24.4132 L 219.659 151.892 L 114.79 151.892 L 114.79 135.353 L 124.79 135.353 L 124.79 141.892 L 177.556 141.892 L 177.556 24.4132 M 187.556 141.892 L 209.659 141.892 L 209.659 34.4132 L 187.556 34.4132 L 187.556 141.892"/><path fill="url(#wps{c21bbf81-7eb2-4d5c-a280-41bd15936a4f}_solid@Accent4_0.00@Accent4_0.00)" fill-opacity="1" fill-rule="evenodd" stroke="url(#wps{a4e98a13-36ea-4cce-95d3-5c235be2efef}_solid@Accent4_0.00@Accent4_0.00)" stroke-width="1" stroke-opacity="1" clip-rule="evenodd" d="M 182.556 95.7102 L 151.799 95.7102 L 151.799 85.7102 L 182.556 85.7102 L 182.556 95.7102 Z"/></g></svg>
