<?xml version="1.0" encoding="UTF-8" standalone="yes"?><svg id="图层_1" xmlns="http://www.w3.org/2000/svg" xmlns:xlink="http://www.w3.org/1999/xlink" version="1.2" baseProfile="tiny" x="0" y="0" width="256" height="256" viewBox="0 0 256 256"><defs><linearGradient id="wps{7462bce9-cc3a-419d-a06e-7994d00085e7}_solid@Accent2_0.00@Accent2_0.00" x1="0" y1="0.5" x2="1" y2="0.5" spreadMethod="pad" gradientUnits="userSpaceOnUse"><stop offset="0" stop-color="#d4ba54" stop-opacity="1"/><stop offset="1" stop-color="#d4ba54" stop-opacity="1"/></linearGradient></defs><defs/><defs/><defs/><defs/><defs/><g transform="matrix(1.34737,0,0,1.34737,-44.3958,-44.4632)"><g><path fill="url(#wps{7462bce9-cc3a-419d-a06e-7994d00085e7}_solid@Accent2_0.00@Accent2_0.00)" fill-opacity="1" stroke="none" clip-rule="evenodd" d="M 217 191.8 C 117.6 92.3 117.6 92.3 117.6 92.3 C 119.1 86.4 120.6 81.9 120.6 76 C 120.6 52.3 101.3 33 76.1 33 C 73.1 33 68.7 33 65.7 34.5 C 90.9 59.7 90.9 59.7 90.9 59.7 C 95.3 64.2 92.4 74.5 83.5 83.4 C 74.6 92.3 64.2 95.3 61.2 90.8 C 34.5 65.7 34.5 65.7 34.5 65.7 C 33 68.7 33 73.1 33 76.1 C 33 101.3 52.3 120.6 76 120.6 C 81.9 120.6 86.4 119.1 92.3 117.6 C 191.7 217.1 191.7 217.1 191.7 217.1 C 194.7 221.6 199.1 223 205.1 223 C 214 223 222.9 214.1 222.9 205.2 C 222.9 199.3 221.5 194.8 217 191.8 M 205.1 212.6 C 200.6 212.6 197.7 208.1 197.7 205.2 C 197.7 200.7 200.7 197.8 205.1 197.8 C 208.1 197.8 212.5 200.8 212.5 205.2 C 212.6 208.2 208.1 212.6 205.1 212.6"/><path fill="url(#wps{7462bce9-cc3a-419d-a06e-7994d00085e7}_solid@Accent2_0.00@Accent2_0.00)" fill-opacity="1" stroke="none" clip-rule="evenodd" d="M 184.5 55.2 C 190.4 61.1 190.4 61.1 190.4 61.1 C 152 98 152 98 152 98 C 157.9 103.9 157.9 103.9 157.9 103.9 C 194.8 66.9 194.8 66.9 194.8 66.9 C 200.7 71.3 200.7 71.3 200.7 71.3 C 163.8 109.7 163.8 109.7 163.8 109.7 C 169.7 115.6 169.7 115.6 169.7 115.6 C 217 70 217 70 217 70 C 220 65.6 222.9 61.1 222.9 55.2 C 222.9 43.4 212.6 33 200.7 33 C 194.8 33 190.4 36 185.9 38.9 C 140.1 86.2 140.1 86.2 140.1 86.2 C 146 92.1 146 92.1 146 92.1 L 184.5 55.2 Z"/><polygon fill="url(#wps{7462bce9-cc3a-419d-a06e-7994d00085e7}_solid@Accent2_0.00@Accent2_0.00)" fill-opacity="1" stroke="none" clip-rule="evenodd" points="60,185.4 49.4,185.4 33.1,212.3 43.7,223 70,206.7 71.9,194.8 105.8,159 97,148.4 60,185.4 60,185.4"/></g></g></svg>
