<?xml version="1.0" encoding="UTF-8" standalone="yes"?><svg fill="none" xmlns="http://www.w3.org/2000/svg" xmlns:xlink="http://www.w3.org/1999/xlink" version="1.2" baseProfile="tiny" x="0" y="0" width="256" height="256" viewBox="0 0 256 256"><defs><linearGradient id="wps{133a1bf1-7937-406d-8fbf-7ed2835447f2}_solid@Accent6_0.00@Accent6_0.00" x1="0" y1="0.5" x2="1" y2="0.5" spreadMethod="pad" gradientUnits="userSpaceOnUse"><stop offset="0" stop-color="#1f4f97" stop-opacity="1"/><stop offset="1" stop-color="#1f4f97" stop-opacity="1"/></linearGradient></defs><defs/><defs/><g id="单线填充_10757696971.电脑电源" clip-path="url(#clip0_1_225021)"><g id="Group"><g id="Group_2"><path id="Vector" fill="url(#wps{133a1bf1-7937-406d-8fbf-7ed2835447f2}_solid@Accent6_0.00@Accent6_0.00)" fill-opacity="1" d="M 246.012 170.787 C 246.012 172.944 244.257 174.68 242.119 174.68 L 150.878 174.68 L 105.056 174.68 L 13.8337 174.68 C 11.6763 174.68 9.92161 172.944 9.92161 170.787 L 9.92161 32.3056 C 9.92161 30.1471 11.6763 28.4125 13.8337 28.4125 L 242.119 28.4125 C 244.257 28.4125 246.012 30.1471 246.012 32.3056 L 246.012 170.787 M 145.927 208.019 L 110.027 208.019 L 110.027 184.601 L 145.927 184.601 L 145.927 208.019 M 183.14 227.524 L 72.8153 227.524 L 72.8153 217.94 L 183.14 217.94 L 183.14 227.524 M 242.119 18.4901 L 13.8337 18.4901 C 6.21957 18.4901 0 24.6884 0 32.3056 L 0 170.787 C 0 178.401 6.21957 184.601 13.8337 184.601 L 100.106 184.601 L 100.106 208.019 L 67.8219 208.019 C 65.0947 208.019 62.8719 210.241 62.8719 212.968 L 62.8719 232.473 C 62.8719 235.225 65.0947 237.445 67.8219 237.445 L 188.111 237.445 C 190.839 237.445 193.083 235.225 193.083 232.473 L 193.083 212.968 C 193.083 210.241 190.839 208.019 188.111 208.019 L 155.849 208.019 L 155.849 184.601 L 242.119 184.601 C 249.715 184.601 255.933 178.401 255.933 170.787 L 255.933 32.3056 C 255.933 24.6884 249.715 18.4901 242.119 18.4901"/></g><g id="Group_3"><path id="Vector_2" fill="url(#wps{133a1bf1-7937-406d-8fbf-7ed2835447f2}_solid@Accent6_0.00@Accent6_0.00)" fill-opacity="1" d="M 29.3 142.438 L 226.658 142.438 L 226.658 45.3773 L 29.3 45.3773 L 29.3 142.438 M 231.629 152.359 L 24.3286 152.359 C 21.5991 152.359 19.3789 150.136 19.3789 147.409 L 19.3789 40.4055 C 19.3789 37.6762 21.5991 35.4558 24.3286 35.4558 L 231.629 35.4558 C 234.356 35.4558 236.579 37.6762 236.579 40.4055 L 236.579 147.409 C 236.579 150.136 234.356 152.359 231.629 152.359"/></g><g id="Group_4"><path id="Vector_3" fill="url(#wps{133a1bf1-7937-406d-8fbf-7ed2835447f2}_solid@Accent6_0.00@Accent6_0.00)" fill-opacity="1" d="M 132.664 163.59 C 132.664 166.172 130.548 168.285 127.989 168.285 C 125.366 168.285 123.293 166.172 123.293 163.59 C 123.293 161.009 125.366 158.914 127.989 158.914 C 130.548 158.914 132.664 161.009 132.664 163.59 Z"/></g><g id="Group_5"><path id="Vector_4" fill="url(#wps{133a1bf1-7937-406d-8fbf-7ed2835447f2}_solid@Accent6_0.00@Accent6_0.00)" fill-opacity="1" d="M 127.247 87.0938 C 124.517 87.0938 122.297 84.8734 122.297 82.1229 L 122.297 56.2282 C 122.297 53.4989 124.517 51.2785 127.247 51.2785 C 129.998 51.2785 132.218 53.4989 132.218 56.2282 L 132.218 82.1229 C 132.218 84.8734 129.998 87.0938 127.247 87.0938 Z"/></g><g id="Group_6"><path id="Vector_5" fill="url(#wps{133a1bf1-7937-406d-8fbf-7ed2835447f2}_solid@Accent6_0.00@Accent6_0.00)" fill-opacity="1" d="M 127.246 134.27 C 106.113 134.27 88.9336 117.071 88.9336 95.9587 C 88.9336 80.7254 97.926 66.933 111.887 60.8196 C 114.405 59.7186 117.325 60.8621 118.426 63.3799 C 119.526 65.8967 118.382 68.8153 115.865 69.9154 C 105.521 74.4642 98.857 84.661 98.857 95.9587 C 98.857 111.612 111.591 124.348 127.246 124.348 C 142.921 124.348 155.658 111.612 155.658 95.9587 C 155.658 84.661 148.973 74.4642 138.628 69.9154 C 136.111 68.8153 134.967 65.8967 136.069 63.3799 C 137.168 60.8621 140.088 59.7186 142.605 60.8196 C 156.567 66.933 165.578 80.7254 165.578 95.9587 C 165.578 117.071 148.382 134.27 127.246 134.27 Z"/></g></g></g><defs><clipPath id="clip0_1_225021" clipPathUnits="userSpaceOnUse"><rect fill="#ffffff" x="0" y="0" width="256" height="256"/></clipPath></defs></svg>
