<?xml version="1.0" encoding="UTF-8" standalone="yes"?><svg xmlns="http://www.w3.org/2000/svg" xmlns:xlink="http://www.w3.org/1999/xlink" version="1.2" baseProfile="tiny" x="0" y="0" width="1024" height="1024" viewBox="0 0 1024 1024"><defs/><defs/><defs/><g id="总结" fill="none" fill-rule="evenodd" stroke="none" stroke-width="1"><path id="形状" fill="#000000" fill-opacity="0" stroke="#ffffff" stroke-width="50" stroke-opacity="1" d="M 875 765 L 875 881.945 C 875 904.619 856.255 923 833.132 923 L 761 923 M 440.657 928 L 189 928 C 165.804 928 147 910.206 147 888.255 L 147 121.745 C 147 99.7944 165.804 82 189 82 L 833 82 C 856.196 82 875 99.7944 875 121.745 L 875 450.834"/><path id="形状结合" fill="#000000" fill-opacity="0" stroke="#ffffff" stroke-width="50" stroke-opacity="1" transform="matrix(0.819152,0.573576,-0.573576,0.819152,531.175,-283.244)" d="M 808.179 906.882 L 714.756 997.019 L 621.333 906.882 L 621.333 524.545 C 621.333 507.976 634.764 494.545 651.333 494.545 L 778.179 494.545 C 794.747 494.545 808.179 507.976 808.179 524.545 L 808.179 906.882 M 633.698 606.89 L 816.533 606.89"/><line id="直线备份-3" fill="#000000" fill-opacity="0" stroke="#ffffff" stroke-width="50" stroke-opacity="1" x1="261" y1="431.5" x2="521" y2="431.5"/><line id="直线备份-4" fill="#000000" fill-opacity="0" stroke="#ffffff" stroke-width="50" stroke-opacity="1" x1="261" y1="610.5" x2="521" y2="610.5"/><line id="直线备份-2" fill="#000000" fill-opacity="0" stroke="#ffffff" stroke-width="50" stroke-opacity="1" x1="261" y1="252.5" x2="761" y2="252.5"/></g></svg>
