<?xml version="1.0" encoding="UTF-8" standalone="yes"?><svg id="图层_1" xmlns="http://www.w3.org/2000/svg" xmlns:xlink="http://www.w3.org/1999/xlink" version="1.2" baseProfile="tiny" x="0" y="0" width="256" height="256" viewBox="0 0 256 256"><defs><linearGradient id="wps{b2c7dee8-918d-4283-9a93-f7b0e9c1367b}_solid@Accent2_0.00@Accent2_0.00" x1="0" y1="0.5" x2="1" y2="0.5" spreadMethod="pad" gradientUnits="userSpaceOnUse"><stop offset="0" stop-color="#d4ba54" stop-opacity="1"/><stop offset="1" stop-color="#d4ba54" stop-opacity="1"/></linearGradient></defs><defs/><defs/><defs/><defs/><defs/><g transform="matrix(1.21963,0,0,1.21963,-28.0567,-28.0515)"><g id="XMLID_14_"><g><path fill="url(#wps{b2c7dee8-918d-4283-9a93-f7b0e9c1367b}_solid@Accent2_0.00@Accent2_0.00)" fill-opacity="1" d="M 61.1 205.5 C 61.1 205.5 61.1 205.5 68 193.2 C 68 193.2 68 193.2 76.2 178.1 C 77.6 178.1 77.6 178.1 77.6 178.1 C 112 198.7 157.3 186.3 177.9 152 C 197.2 116.3 186.2 71 150.4 50.4 C 150.4 50.4 150.4 50.4 158.6 36.7 C 158.6 36.7 158.6 36.7 166.9 23 C 166.9 23 166.9 23 176.5 28.5 C 176.5 28.5 176.5 28.5 168.2 42.2 C 203.9 69.7 214.9 120.4 191.6 160.2 C 177.8 184.9 151.8 201.4 125.6 204.1 C 125.6 204.1 125.6 204.1 125.6 221.9 C 125.6 221.9 125.6 221.9 158.6 221.9 C 162.7 221.9 164.1 224.7 164.1 227.4 C 164.1 230.2 162.7 232.9 158.6 232.9 C 158.6 232.9 158.6 232.9 67.9 232.9 C 65.1 232.9 62.4 230.1 62.4 227.4 C 62.4 224.7 65.2 221.9 67.9 221.9 C 67.9 221.9 67.9 221.9 102.2 221.9 C 102.2 221.9 102.2 221.9 102.2 204.1 C 94 202.7 85.7 201.4 78.8 197.2 C 78.8 197.2 78.8 197.2 70.6 212.3 C 70.7 212.4 70.7 212.4 61.1 205.5 Z"/><path fill="url(#wps{b2c7dee8-918d-4283-9a93-f7b0e9c1367b}_solid@Accent2_0.00@Accent2_0.00)" fill-opacity="1" d="M 111.9 62.8 C 107.8 62.8 102.3 64.2 98.1 65.5 C 99.5 66.9 100.9 68.3 102.2 69.6 C 105.1 66.9 109.2 64.2 111.9 62.8 M 103.7 83.4 C 99.6 87.5 95.5 91.6 92.7 97.1 C 92.7 97.1 92.7 97.1 111.9 108.1 L 120.1 95.8 C 113.3 91.6 107.8 87.5 103.7 83.4 M 144.9 138.3 C 140.8 143.8 136.6 147.9 131.2 153.4 C 134 156.1 136.7 157.5 138.1 160.3 C 145 157.5 151.8 152.1 157.3 145.2 C 157.3 145.2 157.3 145.2 144.9 138.3 M 150.4 77.9 C 149 75.1 146.3 73.8 143.5 72.4 L 132.5 91.6 C 138 94.4 143.5 97.1 149 99.8 C 150.4 93 150.4 84.8 150.4 77.9 M 146.3 108.1 C 140.8 105.3 133.9 102.6 128.4 99.9 C 128.4 99.9 128.4 99.9 120.1 113.6 L 139.3 124.6 C 142.1 119.1 144.9 113.6 146.3 108.1 M 124.3 158.9 C 121.5 161.7 118.8 164.4 116.1 167.1 C 120.2 167.1 125.7 165.7 129.8 164.3 C 128.4 163 127 160.3 124.3 158.9 M 135.3 132.8 L 116.1 121.8 C 116.1 121.8 116.1 121.8 107.8 134.2 C 113.3 137 118.8 141.1 124.3 145.2 C 128.4 141 132.5 136.9 135.3 132.8 M 127 64.2 C 121.5 68.3 114.6 72.4 109.1 76.6 C 114.6 80.7 118.7 83.5 124.2 87.6 C 124.2 87.6 124.2 87.6 135.2 67 C 132.5 65.6 129.8 65.6 127 64.2 M 161.4 136.9 C 165.5 128.7 166.9 120.4 165.5 113.6 C 162.7 112.2 160 110.9 155.9 110.9 C 154.5 117.8 151.8 123.2 149 130.1 C 149 130.1 149 130.1 161.4 136.9 M 160 90.3 C 160 94.4 158.6 98.5 158.6 101.3 C 160 102.7 162.7 104 165.5 104 C 164.1 98.5 162.8 94.4 160 90.3 M 103.7 142.4 C 103.7 142.4 103.7 142.4 91.3 161.6 C 94.1 163 96.8 164.3 100.9 165.7 C 106.4 161.6 113.3 157.5 117.4 152 C 113.3 147.9 109.2 145.2 103.7 142.4 M 95.4 136.9 C 89.9 134.1 84.4 131.4 78.9 130 C 77.5 136.9 76.1 143.7 76.1 152 C 78.9 153.4 81.6 154.7 83 157.5 L 95.4 136.9 M 96.8 75.2 C 94 73.8 91.3 71.1 89.9 68.3 C 81.6 72.4 76.1 77.9 70.7 84.8 C 70.7 84.8 70.7 84.8 83.1 91.7 C 87.2 86.1 91.3 80.6 96.8 75.2 M 78.9 165.7 C 54.2 147.9 44.6 115 58.3 87.5 C 58.3 87.5 58.3 87.5 56.9 87.5 C 56.9 87.5 56.9 87.5 62.4 79.3 C 80.3 54.6 113.3 46.4 140.7 58.7 C 140.7 58.7 140.7 58.7 149 62.8 C 149 62.8 149 62.8 149 64.2 C 173.7 80.7 183.3 113.6 169.6 141.1 C 169.6 141.1 169.6 141.1 165.5 149.3 C 147.6 175.4 114.7 183.6 87.2 169.9 C 87.2 169.9 87.2 169.9 87.2 171.3 C 87.2 171.3 87.2 171.3 83.1 168.6 C 83.1 168.5 83.1 168.5 78.9 165.7 M 87.2 105.4 C 84.4 109.5 83.1 115 81.7 120.5 C 88.6 123.3 94.1 126 99.6 128.8 C 99.6 128.8 99.6 128.8 107.9 116.4 L 87.2 105.4 M 66.6 93 C 62.5 99.9 61.1 108.1 61.1 116.3 C 65.2 116.3 68 117.7 72.1 119.1 C 73.5 112.2 76.2 105.4 79 99.9 C 78.9 99.9 78.9 99.9 66.6 93 M 69.3 127.3 C 67.9 127.3 65.2 125.9 62.4 125.9 C 63.8 130 65.2 135.5 67.9 139.6 C 68 135.6 69.3 131.4 69.3 127.3"/></g></g></g></svg>
