<?xml version="1.0" encoding="UTF-8" standalone="yes"?><svg fill="none" xmlns="http://www.w3.org/2000/svg" xmlns:xlink="http://www.w3.org/1999/xlink" version="1.2" baseProfile="tiny" x="0" y="0" width="256" height="256" viewBox="0 0 256 256"><defs><linearGradient id="wps{924d1cb9-7b02-4ba2-ab70-15a7d4f24dcd}_solid@Accent2_0.00@Accent2_0.00" x1="0" y1="0.5" x2="1" y2="0.5" spreadMethod="pad" gradientUnits="userSpaceOnUse"><stop offset="0" stop-color="#d4ba54" stop-opacity="1"/><stop offset="1" stop-color="#d4ba54" stop-opacity="1"/></linearGradient><linearGradient id="wps{948b6eef-edc0-4a8d-ac64-6a5bb18f2266}_solid@Accent2_0.00@Accent2_0.00" x1="0" y1="0.5" x2="1" y2="0.5" spreadMethod="pad" gradientUnits="userSpaceOnUse"><stop offset="0" stop-color="#d4ba54" stop-opacity="1"/><stop offset="1" stop-color="#d4ba54" stop-opacity="1"/></linearGradient></defs><defs/><defs/><g id="单线填充_10757620556.大楼大厦" clip-path="url(#clip0_1_416424)"><g id="Group"><g id="Group_2"><path id="Vector" fill="url(#wps{948b6eef-edc0-4a8d-ac64-6a5bb18f2266}_solid@Accent2_0.00@Accent2_0.00)" fill-opacity="1" stroke="url(#wps{924d1cb9-7b02-4ba2-ab70-15a7d4f24dcd}_solid@Accent2_0.00@Accent2_0.00)" stroke-width="1" stroke-opacity="1" d="M 21.7531 221.919 L 128.018 199.435 L 128.018 245.143 L 21.7531 245.143 L 21.7531 221.919 M 128.018 12.2352 L 128.018 34.4565 L 21.7531 56.7434 L 21.7531 37.3126 L 128.018 12.2352 M 21.7531 193.966 L 128.018 169.489 L 128.018 190.099 L 21.7531 212.583 L 21.7531 193.966 M 21.7531 128.689 L 128.018 105.475 L 128.018 126.956 L 21.7531 151.734 L 21.7531 128.689 M 21.7531 96.6256 L 128.018 73.983 L 128.018 96.1387 L 21.7531 119.343 L 21.7531 96.6256 M 128.018 160.115 L 21.7531 184.602 L 21.7531 161.108 L 128.018 136.33 L 128.018 160.115 M 21.7531 66.0795 L 128.018 43.7832 L 128.018 64.6467 L 21.7531 87.2893 L 21.7531 66.0795 M 195.057 49.4673 L 159.36 41.1144 L 157.281 50.0012 L 195.057 58.841 L 195.057 82.1297 L 159.36 73.7768 L 157.281 82.6636 L 195.057 91.5034 L 195.057 112.114 L 159.36 103.761 L 157.281 112.648 L 195.057 121.488 L 195.057 143.756 L 159.36 135.412 L 157.281 144.299 L 195.057 153.139 L 195.057 175.407 L 159.36 167.054 L 157.281 175.94 L 195.057 184.78 L 195.057 205.7 L 159.36 197.347 L 157.281 206.234 L 195.057 215.073 L 195.057 245.143 L 138.3 245.143 L 138.3 12.1416 L 195.057 24.7552 L 195.057 49.4673 M 239.143 82.036 L 239.143 106.917 L 217.315 101.813 L 215.237 110.7 L 239.143 116.29 L 239.143 136.47 L 217.315 131.367 L 215.237 140.253 L 239.143 145.853 L 239.143 166.389 L 217.315 161.285 L 215.237 170.172 L 239.143 175.763 L 239.143 197.45 L 217.315 192.337 L 215.237 201.224 L 239.143 206.824 L 239.143 245.143 L 204.187 245.143 L 204.187 73.8518 L 239.143 82.036 M 248.273 245.143 L 248.273 74.7882 L 204.187 64.4781 L 204.187 21.0938 C 204.187 18.9587 202.698 17.1046 200.61 16.6364 L 136.034 2.29041 C 135.163 1.78474 134.161 1.57873 133.159 1.70046 C 132.12 1.56937 131.08 1.79411 130.2 2.3466 L 16.1439 29.2593 C 14.0838 29.7462 12.623 31.5818 12.623 33.7074 L 12.623 245.143 L 0 245.143 L 0 254.272 L 255.934 254.272 L 255.934 245.143 L 248.273 245.143"/></g></g></g><defs><clipPath id="clip0_1_416424" clipPathUnits="userSpaceOnUse"><rect fill="#ffffff" x="0" y="0" width="256" height="256"/></clipPath></defs></svg>
