<?xml version="1.0" encoding="UTF-8" standalone="yes"?><svg fill="none" xmlns="http://www.w3.org/2000/svg" xmlns:xlink="http://www.w3.org/1999/xlink" version="1.2" baseProfile="tiny" x="0" y="0" width="256" height="256" viewBox="0 0 256 256"><defs><linearGradient id="wps{f8329675-3326-4adc-9ab4-09ebd877a86e}_solid@Accent3_0.00@Accent3_0.00" x1="0" y1="0.5" x2="1" y2="0.5" spreadMethod="pad" gradientUnits="userSpaceOnUse"><stop offset="0" stop-color="#7c4e2c" stop-opacity="1"/><stop offset="1" stop-color="#7c4e2c" stop-opacity="1"/></linearGradient><linearGradient id="wps{55017b4c-d255-4220-b970-dd2a61316005}_solid@Accent3_0.00@Accent3_0.00" x1="0" y1="0.5" x2="1" y2="0.5" spreadMethod="pad" gradientUnits="userSpaceOnUse"><stop offset="0" stop-color="#7c4e2c" stop-opacity="1"/><stop offset="1" stop-color="#7c4e2c" stop-opacity="1"/></linearGradient></defs><defs/><defs/><path fill="url(#wps{55017b4c-d255-4220-b970-dd2a61316005}_solid@Accent3_0.00@Accent3_0.00)" fill-opacity="1" fill-rule="evenodd" stroke="url(#wps{f8329675-3326-4adc-9ab4-09ebd877a86e}_solid@Accent3_0.00@Accent3_0.00)" stroke-width="1" stroke-opacity="1" clip-rule="evenodd" d="M 1.61133 37.5577 C 1.61133 32.2962 5.889 28.0185 11.1506 28.0185 L 56.5431 28.0185 C 61.8351 28.0185 66.0824 32.3089 66.0824 37.5577 L 66.0824 228.207 C 66.0824 233.456 61.8345 237.746 56.5431 237.746 L 11.1506 237.746 C 5.88958 237.746 1.61133 233.469 1.61133 228.207 L 1.61133 37.5577 M 11.6113 38.0185 L 11.6113 227.746 L 56.0824 227.746 L 56.0824 38.0185 L 11.6113 38.0185"/><path fill="url(#wps{55017b4c-d255-4220-b970-dd2a61316005}_solid@Accent3_0.00@Accent3_0.00)" fill-opacity="1" fill-rule="evenodd" stroke="url(#wps{f8329675-3326-4adc-9ab4-09ebd877a86e}_solid@Accent3_0.00@Accent3_0.00)" stroke-width="1" stroke-opacity="1" clip-rule="evenodd" d="M 19.7684 50.9449 C 19.7684 48.1835 22.007 45.9449 24.7684 45.9449 L 42.9255 45.9449 C 45.6869 45.9449 47.9255 48.1835 47.9255 50.9449 L 47.9255 51.4059 C 47.9255 54.1673 45.6869 56.4059 42.9255 56.4059 L 24.7684 56.4059 C 22.007 56.4059 19.7684 54.1673 19.7684 51.4059 L 19.7684 50.9449 Z"/><path fill="url(#wps{55017b4c-d255-4220-b970-dd2a61316005}_solid@Accent3_0.00@Accent3_0.00)" fill-opacity="1" fill-rule="evenodd" stroke="url(#wps{f8329675-3326-4adc-9ab4-09ebd877a86e}_solid@Accent3_0.00@Accent3_0.00)" stroke-width="1" stroke-opacity="1" clip-rule="evenodd" d="M 56.0826 55.7148 C 56.0826 50.4533 60.3603 46.1756 65.6219 46.1756 L 115.554 46.1756 C 120.847 46.1756 125.093 50.4666 125.093 55.7148 L 125.093 228.207 C 125.093 233.456 120.846 237.746 115.554 237.746 L 65.6219 237.746 C 60.3609 237.746 56.0826 233.469 56.0826 228.207 L 56.0826 55.7148 M 66.0826 56.1756 L 66.0826 227.746 L 115.093 227.746 L 115.093 56.1756 L 66.0826 56.1756"/><path fill="url(#wps{55017b4c-d255-4220-b970-dd2a61316005}_solid@Accent3_0.00@Accent3_0.00)" fill-opacity="1" fill-rule="evenodd" stroke="url(#wps{f8329675-3326-4adc-9ab4-09ebd877a86e}_solid@Accent3_0.00@Accent3_0.00)" stroke-width="1" stroke-opacity="1" clip-rule="evenodd" d="M 115.093 28.4792 C 115.093 23.2175 119.372 18.9399 124.632 18.9399 L 160.947 18.9399 C 166.239 18.9399 170.486 23.2309 170.486 28.4792 L 170.486 228.207 C 170.486 233.456 166.239 237.746 160.947 237.746 L 124.632 237.746 C 119.372 237.746 115.093 233.469 115.093 228.207 L 115.093 28.4792 M 125.093 28.9399 L 125.093 227.746 L 160.486 227.746 L 160.486 28.9399 L 125.093 28.9399"/><path fill="url(#wps{55017b4c-d255-4220-b970-dd2a61316005}_solid@Accent3_0.00@Accent3_0.00)" fill-opacity="1" fill-rule="evenodd" stroke="url(#wps{f8329675-3326-4adc-9ab4-09ebd877a86e}_solid@Accent3_0.00@Accent3_0.00)" stroke-width="1" stroke-opacity="1" clip-rule="evenodd" d="M 202.657 60.5072 C 207.734 59.1731 212.942 62.1733 214.32 67.2406 L 214.325 67.2582 L 254.274 216.344 L 254.277 216.358 C 255.615 221.406 252.629 226.663 247.524 228.019 C 247.52 228.02 247.517 228.021 247.513 228.022 L 212.464 237.413 C 212.461 237.414 212.459 237.415 212.456 237.416 M 212.456 237.416 C 207.347 238.789 202.139 235.756 200.767 230.682 L 160.815 81.6026 L 160.809 81.5782 C 159.476 76.502 162.476 71.2947 167.541 69.9161 L 167.56 69.911 L 202.633 60.5134 L 202.657 60.5072 M 204.784 70.2898 L 170.592 79.4514 L 210.305 227.639 L 244.493 218.479 L 204.784 70.2898"/><path fill="url(#wps{55017b4c-d255-4220-b970-dd2a61316005}_solid@Accent3_0.00@Accent3_0.00)" fill-opacity="1" fill-rule="evenodd" stroke="url(#wps{f8329675-3326-4adc-9ab4-09ebd877a86e}_solid@Accent3_0.00@Accent3_0.00)" stroke-width="1" stroke-opacity="1" clip-rule="evenodd" d="M 227.017 204.137 C 229.642 203.436 232.347 204.959 233.108 207.568 L 233.232 207.993 C 233.608 209.283 233.449 210.671 232.791 211.843 C 232.132 213.014 231.03 213.872 229.732 214.221 L 220.973 216.58 C 218.328 217.292 215.602 215.743 214.86 213.107 L 214.735 212.663 C 214.372 211.375 214.541 209.996 215.203 208.833 C 215.865 207.671 216.965 206.822 218.257 206.477 L 227.017 204.137 Z"/><path fill="url(#wps{55017b4c-d255-4220-b970-dd2a61316005}_solid@Accent3_0.00@Accent3_0.00)" fill-opacity="1" fill-rule="evenodd" stroke="url(#wps{f8329675-3326-4adc-9ab4-09ebd877a86e}_solid@Accent3_0.00@Accent3_0.00)" stroke-width="1" stroke-opacity="1" clip-rule="evenodd" d="M 198.043 82.1103 C 199.203 82.8 200.035 83.9294 200.349 85.2417 L 200.456 85.685 C 201.088 88.3216 199.504 90.9818 196.884 91.6817 L 188.124 94.0222 C 185.499 94.7237 182.794 93.1998 182.033 90.5908 L 181.909 90.1653 C 181.533 88.8746 181.693 87.4868 182.352 86.315 C 183.011 85.1432 184.114 84.2862 185.412 83.9374 L 194.19 81.5791 C 195.493 81.2289 196.883 81.4205 198.043 82.1103 Z"/></svg>
