<?xml version="1.0" encoding="UTF-8" standalone="yes"?><svg id="svg22" xmlns="http://www.w3.org/2000/svg" xmlns:xlink="http://www.w3.org/1999/xlink" version="1.2" baseProfile="tiny" x="0" y="0" width="256" height="256" viewBox="0 0 256 256"><defs><linearGradient id="wps{94dac0d0-279f-4218-8d02-cbf3db9b62c2}_solid@Accent2_0.00@Accent2_0.00" x1="0" y1="0.5" x2="1" y2="0.5" spreadMethod="pad" gradientUnits="userSpaceOnUse"><stop offset="0" stop-color="#d4ba54" stop-opacity="1"/><stop offset="1" stop-color="#d4ba54" stop-opacity="1"/></linearGradient></defs><defs/><defs/><defs/><defs/><defs/><defs id="defs6"><clipPath id="clipEmfPath1" clipPathUnits="userSpaceOnUse"><path id="path2" d="M 0.961943 0.961943 L 55.7927 0.961943 L 55.7927 55.7927 L 0.961943 55.7927 L 0.961943 0.961943 Z"/></clipPath></defs><g transform="matrix(4.72277,0,0,4.72277,-5.26228,-4.0886)"><path id="path8" fill="none" stroke="url(#wps{94dac0d0-279f-4218-8d02-cbf3db9b62c2}_solid@Accent2_0.00@Accent2_0.00)" stroke-width="3.20845" stroke-opacity="1" clip-path="url(#clipEmfPath1)" d="M 5.37085 46.7344 L 11.7838 46.7344 L 11.7838 53.3077 L 5.37085 53.3077 L 5.37085 46.7344 Z"/><path id="path10" fill="none" stroke="url(#wps{94dac0d0-279f-4218-8d02-cbf3db9b62c2}_solid@Accent2_0.00@Accent2_0.00)" stroke-width="3.20845" stroke-opacity="1" clip-path="url(#clipEmfPath1)" d="M 18.3571 38.0769 L 24.9304 38.0769 L 24.9304 53.3077 L 18.3571 53.3077 L 18.3571 38.0769 Z"/><path id="path12" fill="none" stroke="url(#wps{94dac0d0-279f-4218-8d02-cbf3db9b62c2}_solid@Accent2_0.00@Accent2_0.00)" stroke-width="3.20845" stroke-opacity="1" clip-path="url(#clipEmfPath1)" d="M 31.5036 27.1749 L 38.0769 27.1749 L 38.0769 53.468 L 31.5036 53.468 L 31.5036 27.1749 Z"/><path id="path14" fill="none" stroke="url(#wps{94dac0d0-279f-4218-8d02-cbf3db9b62c2}_solid@Accent2_0.00@Accent2_0.00)" stroke-width="3.20845" stroke-opacity="1" clip-path="url(#clipEmfPath1)" d="M 44.6502 16.2729 L 51.0631 16.2729 L 51.0631 53.468 L 44.6502 53.468 L 44.6502 16.2729 Z"/><path id="path16" fill="none" stroke="url(#wps{94dac0d0-279f-4218-8d02-cbf3db9b62c2}_solid@Accent2_0.00@Accent2_0.00)" stroke-width="3.20845" stroke-opacity="1" clip-path="url(#clipEmfPath1)" d="M 53.3077 53.3077 L 3.12631 53.3077"/><path id="path18" fill="none" stroke="url(#wps{94dac0d0-279f-4218-8d02-cbf3db9b62c2}_solid@Accent2_0.00@Accent2_0.00)" stroke-width="3.20845" stroke-opacity="1" clip-path="url(#clipEmfPath1)" d="M 51.2235 3.12631 L 5.37085 42.4056"/><path id="path20" fill="none" stroke="url(#wps{94dac0d0-279f-4218-8d02-cbf3db9b62c2}_solid@Accent2_0.00@Accent2_0.00)" stroke-width="3.20845" stroke-opacity="1" clip-path="url(#clipEmfPath1)" d="M 44.6502 3.12631 L 51.0631 3.12631 L 51.0631 9.69959"/></g></svg>
