<?xml version='1.0' encoding='utf-8'?>
<svg xmlns="http://www.w3.org/2000/svg" version="1.1" width="1280" height="720" viewBox="0 0 1280 720"><defs><linearGradient id="ggrad1" x1="0.5" y1="0" x2="0.5" y2="1"><stop offset="0" stop-color="#D02300" stop-opacity="0.2" /><stop offset="0.99" stop-color="#D02300" stop-opacity="0" /></linearGradient><linearGradient id="ggrad2" x1="1" y1="0.5" x2="0" y2="0.5"><stop offset="0" stop-color="#D02300" /><stop offset="1" stop-color="#D02300" stop-opacity="0" /></linearGradient><linearGradient id="ggrad3" x1="1" y1="0.5" x2="0" y2="0.5"><stop offset="0" stop-color="#D02300" /><stop offset="1" stop-color="#D02300" stop-opacity="0" /></linearGradient><linearGradient id="ggrad4" x1="1" y1="0.5" x2="0" y2="0.5"><stop offset="0" stop-color="#D02300" /><stop offset="1" stop-color="#D02300" stop-opacity="0" /></linearGradient></defs><rect x="0" y="0" width="1280" height="720" fill="#FFFFFF" />
<g id="shape-16" data-name="文本框 77">
<rect x="46.5" y="16.36" width="332.61" height="54.93" fill="none" />
<text x="56.1" y="52.9" text-anchor="start" xml:space="preserve" font-family="&quot;思源黑体 CN Bold&quot;, sans-serif" font-size="37.33" fill="#D02300"><tspan fill="#D02300" font-size="37.33">{{CHAPTER_TITLE}}</tspan></text>
</g>
<g id="shape-17" data-name="文本框 78">
<rect x="286.32" y="19.59" width="240.53" height="48.47" fill="none" />
<text x="295.92" y="51.59" text-anchor="start" xml:space="preserve" font-family="&quot;思源黑体 CN Bold&quot;, sans-serif" font-size="32" fill="#808080"><tspan fill="#808080" font-size="32">/  </tspan><tspan fill="#808080" font-size="32">教学内容分析</tspan></text>
</g>
<g id="shape-18" data-name="直接连接符 17">
<line x1="29.71" y1="76.5" x2="1250.29" y2="76.5" stroke-width="3" stroke="#D02300" fill="#D02300" />
</g>
<g id="shape-23" data-name="组合 22">
<g id="shape-42" data-name="等腰三角形 41" transform="rotate(90 235.18 233.33)">
<polygon points="235.18,222.9 255.27,243.76 215.09,243.76" fill="#FFC000" stroke="none" stroke-width="1" />
</g>
<g id="shape-24" data-name="直接连接符 23">
<line x1="224.8" y1="95.33" x2="224.8" y2="681.33" stroke-width="1.333" stroke="#D02300" fill="#D02300" />
</g>
</g>
<g id="shape-3" data-name="组合 2">
<g id="shape-2" data-name="矩形: 圆角 1">
<rect x="52" y="206.67" width="152" height="53.33" rx="2.96" ry="2.96" stroke-width="0.667" fill="#D02300" stroke="#681100" />
</g>
<g id="shape-19" data-name="矩形: 圆角 18">
<rect x="52" y="289.85" width="152" height="53.33" rx="2.96" ry="2.96" fill="#F2F2F2" stroke-width="0.667" stroke="#BFBFBF" />
</g>
<g id="shape-20" data-name="矩形: 圆角 19">
<rect x="52" y="373.04" width="152" height="53.33" rx="2.96" ry="2.96" fill="#F2F2F2" stroke-width="0.667" stroke="#BFBFBF" />
</g>
<g id="shape-21" data-name="矩形: 圆角 20">
<rect x="52" y="456.23" width="152" height="53.33" rx="2.96" ry="2.96" fill="#F2F2F2" stroke-width="0.667" stroke="#BFBFBF" />
</g>
<g id="shape-22" data-name="矩形: 圆角 21">
<rect x="52" y="539.42" width="152" height="53.33" rx="2.96" ry="2.96" fill="#F2F2F2" stroke-width="0.667" stroke="#BFBFBF" />
</g>
<g id="shape-35" data-name="文本框 34">
<rect x="53.68" y="209.1" width="148.64" height="48.47" fill="none" />
<text x="63.28" y="241.1" text-anchor="start" xml:space="preserve" font-family="sans-serif" font-size="32" fill="#FFFFFF"><tspan fill="#FFFFFF" font-size="32">理论根基</tspan></text>
</g>
<g id="shape-36" data-name="文本框 35">
<rect x="53.68" y="292.29" width="148.64" height="48.47" fill="none" />
<text x="63.28" y="324.29" text-anchor="start" xml:space="preserve" font-family="sans-serif" font-size="32" fill="#A6A6A6"><tspan fill="#A6A6A6" font-size="32">传承脉络</tspan></text>
</g>
<g id="shape-37" data-name="文本框 36">
<rect x="53.68" y="375.47" width="148.64" height="48.47" fill="none" />
<text x="63.28" y="407.47" text-anchor="start" xml:space="preserve" font-family="sans-serif" font-size="32" fill="#A6A6A6"><tspan fill="#A6A6A6" font-size="32">教育体系</tspan></text>
</g>
<g id="shape-38" data-name="文本框 37">
<rect x="53.68" y="458.66" width="148.64" height="48.47" fill="none" />
<text x="63.28" y="490.66" text-anchor="start" xml:space="preserve" font-family="sans-serif" font-size="32" fill="#A6A6A6"><tspan fill="#A6A6A6" font-size="32">课程体系</tspan></text>
</g>
<g id="shape-39" data-name="文本框 38">
<rect x="53.68" y="541.85" width="148.64" height="48.47" fill="none" />
<text x="63.28" y="573.85" text-anchor="start" xml:space="preserve" font-family="sans-serif" font-size="32" fill="#A6A6A6"><tspan fill="#A6A6A6" font-size="32">课程体系</tspan></text>
</g>
</g>
<g id="shape-25" data-name="组合 24">
<g id="shape-32" data-name="矩形 31">
<rect x="224.8" y="95.33" width="1002.67" height="92.5" fill="#BF3C2E" fill-opacity="0.1" stroke-width="0.667" stroke="#BF3C2E" />
</g>
<g id="shape-46" data-name="矩形: 圆角 45">
<rect x="241.38" y="114.92" width="969.51" height="53.33" rx="26.67" ry="26.67" fill="#FFFFFF" stroke="#BF3C2E" stroke-width="1" />
</g>
<g id="shape-54" data-name="文本框 53">
<rect x="285.61" y="120.58" width="881.05" height="42.01" fill="none" />
<text x="726.14" y="148.05" text-anchor="middle" xml:space="preserve" font-family="sans-serif" font-size="26.67" fill="#000000"><tspan fill="#000000" font-size="26.67">通过“原理课</tspan><tspan fill="#000000" font-size="26.67">”</tspan><tspan fill="#000000" font-size="26.67">解析国家与阶级的关系，帮助学生理解三爱统一的科学性</tspan></text>
</g>
</g>
<g id="shape-55" data-name="等腰三角形 54" transform="rotate(180 762.45 493.47)">
<polygon points="762.45,476.6 1017.79,510.34 507.12,510.34" fill="url(#ggrad1)" stroke="none" stroke-width="1" />
</g>
<g id="shape-41" data-name="组合 40">
<g id="shape-2060" data-name="Picture 12">
<svg x="1075.58" y="514.96" width="152" height="119.38" viewBox="0.07627 0 0.84746 1" preserveAspectRatio="none"><image href="assets/image5.jpeg" x="0" y="0" width="1" height="1" preserveAspectRatio="none" /></svg>
</g>
<g id="shape-63" data-name="矩形: 圆角 62">
<rect x="1075.58" y="634.33" width="152" height="47" rx="0" ry="0" stroke-width="0.667" stroke="none" fill="#D02300" />
</g>
<g id="shape-65" data-name="文本框 64">
<rect x="1105.53" y="638.45" width="92.09" height="38.78" fill="none" />
<text x="1115.13" y="663.65" text-anchor="start" xml:space="preserve" font-family="sans-serif" font-size="24" fill="#FFFFFF"><tspan fill="#FFFFFF" font-size="24">马克思</tspan></text>
</g>
<g id="shape-84" data-name="文本框 83">
<rect x="1023.68" y="527.98" width="46" height="138.94" fill="none" />
<text x="1033.28" y="555.45" text-anchor="start" xml:space="preserve" font-family="sans-serif" font-size="26.67" fill="#C00000"><tspan fill="#C00000" font-size="26.67">国家战略</tspan></text>
</g>
</g>
<g id="shape-26" data-name="组合 25">
<g id="shape-27" data-name="矩形: 圆角 26">
<rect x="297.33" y="206.67" width="152" height="53.33" rx="2.96" ry="2.96" stroke-width="0.667" fill="#D02300" stroke="#681100" />
</g>
<g id="shape-31" data-name="矩形: 圆角 30">
<rect x="507.12" y="206.67" width="510.67" height="53.33" rx="2.96" ry="2.96" stroke-width="0.667" fill="#D02300" stroke="#681100" />
</g>
<g id="shape-50" data-name="文本框 49">
<rect x="309.79" y="212.33" width="127.1" height="42.01" fill="none" />
<text x="373.33" y="239.8" text-anchor="middle" xml:space="preserve" font-family="sans-serif" font-size="26.67" fill="#FFFFFF"><tspan fill="#FFFFFF" font-size="26.67">理论武装</tspan></text>
</g>
<g id="shape-51" data-name="文本框 50">
<rect x="575.04" y="209.1" width="374.82" height="48.47" fill="none" />
<text x="762.45" y="241.1" text-anchor="middle" xml:space="preserve" font-family="sans-serif" font-size="32" fill="#FFFFFF"><tspan fill="#FFFFFF" font-size="32">{{CHAPTER_DESC}}</tspan></text>
</g>
<g id="shape-52" data-name="矩形: 圆角 51">
<rect x="1075.58" y="206.67" width="152" height="53.33" rx="2.96" ry="2.96" stroke-width="0.667" fill="#D02300" stroke="#681100" />
</g>
<g id="shape-53" data-name="文本框 52">
<rect x="1088.03" y="212.33" width="127.1" height="42.01" fill="none" />
<text x="1151.58" y="239.8" text-anchor="middle" xml:space="preserve" font-family="sans-serif" font-size="26.67" fill="#FFFFFF"><tspan fill="#FFFFFF" font-size="26.67">课堂教学</tspan></text>
</g>
<g id="shape-74" data-name="文本框 73">
<rect x="480.66" y="265.04" width="509.12" height="35.54" fill="none" />
<text x="490.26" y="287.97" text-anchor="start" xml:space="preserve" font-family="sans-serif" font-size="21.33" fill="#D02300"><tspan fill="#D02300" font-size="21.33">高校思政课形成“原理</tspan><tspan fill="#D02300" font-size="21.33">-</tspan><tspan fill="#D02300" font-size="21.33">纲要</tspan><tspan fill="#D02300" font-size="21.33">-</tspan><tspan fill="#D02300" font-size="21.33">概论</tspan><tspan fill="#D02300" font-size="21.33">”</tspan><tspan fill="#D02300" font-size="21.33">的递进式教学链</tspan></text>
</g>
<g id="shape-94" data-name="箭头: 右 93">
<polygon points="456.11,224.57 478.23,224.57 478.23,215.81 500.35,233.33 478.23,250.86 478.23,242.1 456.11,242.1" fill="url(#ggrad2)" stroke="none" stroke-width="1" />
</g>
</g>
<g id="shape-34" data-name="组合 33">
<g id="shape-2058" data-name="Picture 10">
<svg x="297.33" y="514.96" width="152" height="119.38" viewBox="0.02275 0 0.9545 1" preserveAspectRatio="none"><image href="assets/image6.jpeg" x="0" y="0" width="1" height="1" preserveAspectRatio="none" /></svg>
</g>
<g id="shape-49" data-name="矩形: 圆角 48">
<rect x="297.33" y="634.33" width="152" height="47" rx="0" ry="0" stroke-width="0.667" stroke="none" fill="#D02300" />
</g>
<g id="shape-59" data-name="文本框 58">
<rect x="303.05" y="638.45" width="140.56" height="38.78" fill="none" />
<text x="312.65" y="663.65" text-anchor="start" xml:space="preserve" font-family="sans-serif" font-size="24" fill="#FFFFFF"><tspan fill="#FFFFFF" font-size="24">道德与法治</tspan></text>
</g>
<g id="shape-83" data-name="文本框 82">
<rect x="238.07" y="527.98" width="46" height="138.94" fill="none" />
<text x="247.67" y="555.45" text-anchor="start" xml:space="preserve" font-family="sans-serif" font-size="26.67" fill="#C00000"><tspan fill="#C00000" font-size="26.67">教学模块</tspan></text>
</g>
<g id="shape-97" data-name="箭头: 右 96">
<polygon points="456.11,588.69 478.23,588.69 478.23,579.93 500.35,597.45 478.23,614.98 478.23,606.21 456.11,606.21" fill="url(#ggrad3)" stroke="none" stroke-width="1" />
</g>
</g>
<g id="shape-33" data-name="组合 32">
<g id="shape-2056" data-name="Picture 8">
<svg x="1075.58" y="307" width="152" height="119.38" viewBox="0.075 0 0.85 1" preserveAspectRatio="none"><image href="assets/image7.jpeg" x="0" y="0" width="1" height="1" preserveAspectRatio="none" /></svg>
</g>
<g id="shape-61" data-name="矩形: 圆角 60">
<rect x="1075.58" y="426.38" width="152" height="47" rx="0" ry="0" stroke-width="0.667" stroke="none" fill="#D02300" />
</g>
<g id="shape-64" data-name="文本框 63">
<rect x="1117.65" y="430.49" width="67.86" height="38.78" fill="none" />
<text x="1127.25" y="455.69" text-anchor="start" xml:space="preserve" font-family="sans-serif" font-size="24" fill="#FFFFFF"><tspan fill="#FFFFFF" font-size="24">历史</tspan></text>
</g>
<g id="shape-82" data-name="文本框 81">
<rect x="1023.68" y="320.02" width="46" height="138.94" fill="none" />
<text x="1033.28" y="347.49" text-anchor="start" xml:space="preserve" font-family="sans-serif" font-size="26.67" fill="#C00000"><tspan fill="#C00000" font-size="26.67">爱国情怀</tspan></text>
</g>
</g>
<g id="shape-29" data-name="组合 28">
<g id="shape-2054" data-name="Picture 6">
<svg x="297.33" y="307" width="152" height="119.38" viewBox="0.01769 0 0.96462 1" preserveAspectRatio="none"><image href="assets/image8.jpeg" x="0" y="0" width="1" height="1" preserveAspectRatio="none" /></svg>
</g>
<g id="shape-43" data-name="文本框 42">
<rect x="238.07" y="320.02" width="46" height="138.94" fill="none" />
<text x="247.67" y="347.49" text-anchor="start" xml:space="preserve" font-family="sans-serif" font-size="26.67" fill="#C00000"><tspan fill="#C00000" font-size="26.67">社会意识</tspan></text>
</g>
<g id="shape-47" data-name="矩形: 圆角 46">
<rect x="297.33" y="426.38" width="152" height="47" rx="0" ry="0" stroke-width="0.667" stroke="none" fill="#D02300" />
</g>
<g id="shape-58" data-name="文本框 57">
<rect x="339.41" y="430.49" width="67.86" height="38.78" fill="none" />
<text x="349.01" y="455.69" text-anchor="start" xml:space="preserve" font-family="sans-serif" font-size="24" fill="#FFFFFF"><tspan fill="#FFFFFF" font-size="24">语文</tspan></text>
</g>
<g id="shape-96" data-name="箭头: 右 95">
<polygon points="456.11,380.73 478.23,380.73 478.23,371.97 500.35,389.49 478.23,407.02 478.23,398.26 456.11,398.26" fill="url(#ggrad4)" stroke="none" stroke-width="1" />
</g>
</g>
<g id="shape-30" data-name="组合 29">
<g id="shape-56" data-name="矩形 55">
<rect x="507.39" y="305.61" width="510.4" height="167.76" fill="#FD905F" fill-opacity="0.1" stroke-width="0.667" stroke="#FD905F" />
</g>
<g id="shape-66" data-name="矩形: 圆角 65">
<rect x="519.29" y="318.47" width="157.49" height="39.13" rx="2.17" ry="2.17" fill="#FD905F" stroke-width="0.667" stroke="none" />
</g>
<g id="shape-68" data-name="矩形: 圆角 67">
<rect x="683.98" y="318.47" width="157.49" height="39.13" rx="2.17" ry="2.17" fill="#FD905F" stroke-width="0.667" stroke="none" />
</g>
<g id="shape-70" data-name="矩形: 圆角 69">
<rect x="848.68" y="318.47" width="157.49" height="39.13" rx="2.17" ry="2.17" fill="#FD905F" stroke-width="0.667" stroke="none" />
</g>
<g id="shape-71" data-name="矩形: 圆角 70">
<rect x="519.29" y="362.4" width="157.49" height="101.6" rx="2.31" ry="2.31" fill="#FFFFFF" stroke-width="0.667" stroke="none" />
</g>
<g id="shape-72" data-name="矩形: 圆角 71">
<rect x="683.98" y="362.4" width="157.49" height="101.6" rx="2.31" ry="2.31" fill="#FFFFFF" stroke-width="0.667" stroke="none" />
</g>
<g id="shape-73" data-name="矩形: 圆角 72">
<rect x="848.68" y="362.4" width="157.49" height="101.6" rx="2.31" ry="2.31" fill="#FFFFFF" stroke-width="0.667" stroke="none" />
</g>
<g id="shape-75" data-name="文本框 74">
<rect x="704.57" y="318.65" width="116.33" height="38.78" fill="none" />
<text x="762.73" y="343.85" text-anchor="middle" xml:space="preserve" font-family="sans-serif" font-size="24" fill="#FFFFFF"><tspan fill="#FFFFFF" font-size="24">中学阶段</tspan></text>
</g>
<g id="shape-76" data-name="文本框 75">
<rect x="539.87" y="318.65" width="116.33" height="38.78" fill="none" />
<text x="598.03" y="343.85" text-anchor="middle" xml:space="preserve" font-family="sans-serif" font-size="24" fill="#FFFFFF"><tspan fill="#FFFFFF" font-size="24">小学阶段</tspan></text>
</g>
<g id="shape-77" data-name="文本框 76">
<rect x="869.26" y="318.65" width="116.33" height="38.78" fill="none" />
<text x="927.42" y="343.85" text-anchor="middle" xml:space="preserve" font-family="sans-serif" font-size="24" fill="#FFFFFF"><tspan fill="#FFFFFF" font-size="24">大学阶段</tspan></text>
</g>
<g id="shape-98" data-name="文本框 97" transform="translate(598.03 411.68) scale(-1 1) translate(-598.03 -411.68)">
<rect x="523.13" y="367.05" width="149.8" height="89.24" fill="none" />
<text x="598.03" y="387.72" text-anchor="middle" xml:space="preserve" font-family="sans-serif" font-size="18.67" fill="#000000"><tspan fill="#000000" font-size="18.67">构建学生感性认知，培养爱国情感</tspan></text>
</g>
<g id="shape-99" data-name="文本框 98" transform="translate(762.73 411.68) scale(-1 1) translate(-762.73 -411.68)">
<rect x="687.83" y="367.05" width="149.8" height="89.24" fill="none" />
<text x="762.73" y="387.72" text-anchor="middle" xml:space="preserve" font-family="sans-serif" font-size="18.67" fill="#000000"><tspan fill="#000000" font-size="18.67">引导学生理解个人与国家的关系逻辑</tspan></text>
</g>
<g id="shape-100" data-name="文本框 99" transform="translate(931.99 411.68) scale(-1 1) translate(-931.99 -411.68)">
<rect x="857.09" y="367.05" width="149.8" height="89.24" fill="none" />
<text x="931.99" y="387.72" text-anchor="middle" xml:space="preserve" font-family="sans-serif" font-size="18.67" fill="#000000"><tspan fill="#000000" font-size="18.67">在“中国</tspan><tspan fill="#000000" font-size="18.67">—</tspan><tspan fill="#000000" font-size="18.67">世界</tspan><tspan x="931.99" dy="22.4" fill="#000000" font-size="18.67">”互动框架重构</tspan><tspan x="931.99" dy="22.4" fill="#000000" font-size="18.67">爱国主义内涵</tspan></text>
</g>
</g>
<g id="shape-40" data-name="组合 39">
<g id="shape-57" data-name="矩形 56">
<rect x="507.39" y="513.57" width="510.4" height="167.76" fill="#BF3C2E" fill-opacity="0.1" stroke-width="0.667" stroke="#BF3C2E" />
</g>
<g id="shape-85" data-name="矩形: 圆角 84">
<rect x="519.29" y="525.44" width="157.49" height="39.13" rx="2.17" ry="2.17" fill="#BF3C2E" stroke-width="0.667" stroke="none" />
</g>
<g id="shape-86" data-name="矩形: 圆角 85">
<rect x="683.98" y="525.44" width="157.49" height="39.13" rx="2.17" ry="2.17" fill="#BF3C2E" stroke-width="0.667" stroke="none" />
</g>
<g id="shape-87" data-name="矩形: 圆角 86">
<rect x="848.68" y="525.44" width="157.49" height="39.13" rx="2.17" ry="2.17" fill="#BF3C2E" stroke-width="0.667" stroke="none" />
</g>
<g id="shape-88" data-name="矩形: 圆角 87">
<rect x="519.29" y="569.37" width="157.49" height="101.6" rx="2.31" ry="2.31" fill="#FFFFFF" stroke-width="0.667" stroke="none" />
</g>
<g id="shape-89" data-name="矩形: 圆角 88">
<rect x="683.98" y="569.37" width="157.49" height="101.6" rx="2.31" ry="2.31" fill="#FFFFFF" stroke-width="0.667" stroke="none" />
</g>
<g id="shape-90" data-name="矩形: 圆角 89">
<rect x="848.68" y="569.37" width="157.49" height="101.6" rx="2.31" ry="2.31" fill="#FFFFFF" stroke-width="0.667" stroke="none" />
</g>
<g id="shape-91" data-name="文本框 90">
<rect x="692.45" y="525.62" width="140.56" height="38.78" fill="none" />
<text x="762.73" y="550.82" text-anchor="middle" xml:space="preserve" font-family="sans-serif" font-size="24" fill="#FFFFFF"><tspan fill="#FFFFFF" font-size="24">体验式教育</tspan></text>
</g>
<g id="shape-92" data-name="文本框 91">
<rect x="527.75" y="525.62" width="140.56" height="38.78" fill="none" />
<text x="598.03" y="550.82" text-anchor="middle" xml:space="preserve" font-family="sans-serif" font-size="24" fill="#FFFFFF"><tspan fill="#FFFFFF" font-size="24">互动式教学</tspan></text>
</g>
<g id="shape-93" data-name="文本框 92">
<rect x="857.14" y="525.62" width="140.56" height="38.78" fill="none" />
<text x="927.42" y="550.82" text-anchor="middle" xml:space="preserve" font-family="sans-serif" font-size="24" fill="#FFFFFF"><tspan fill="#FFFFFF" font-size="24">案例教学法</tspan></text>
</g>
<g id="shape-101" data-name="文本框 100" transform="translate(598.03 618.65) scale(-1 1) translate(-598.03 -618.65)">
<rect x="523.13" y="574.02" width="149.8" height="89.24" fill="none" />
<text x="598.03" y="594.69" text-anchor="middle" xml:space="preserve" font-family="sans-serif" font-size="18.67" fill="#000000"><tspan fill="#000000" font-size="18.67">运用“青年大学习</tspan><tspan fill="#000000" font-size="18.67">”</tspan><tspan fill="#000000" font-size="18.67">等品牌活动载体</tspan></text>
</g>
<g id="shape-102" data-name="文本框 101" transform="translate(762.73 618.65) scale(-1 1) translate(-762.73 -618.65)">
<rect x="687.83" y="574.02" width="149.8" height="89.24" fill="none" />
<text x="762.73" y="594.69" text-anchor="middle" xml:space="preserve" font-family="sans-serif" font-size="18.67" fill="#000000"><tspan fill="#000000" font-size="18.67">开发红色基地虚拟仿真教学项目</tspan></text>
</g>
<g id="shape-103" data-name="文本框 102" transform="translate(927.42 618.65) scale(-1 1) translate(-927.42 -618.65)">
<rect x="852.52" y="574.02" width="149.8" height="89.24" fill="none" />
<text x="927.42" y="594.69" text-anchor="middle" xml:space="preserve" font-family="sans-serif" font-size="18.67" fill="#000000"><tspan fill="#000000" font-size="18.67">解析脱贫攻坚等新时代实践成就</tspan></text>
</g>
</g></svg>