<?xml version="1.0" encoding="UTF-8" standalone="yes"?><svg class="icon" xmlns="http://www.w3.org/2000/svg" xmlns:xlink="http://www.w3.org/1999/xlink" version="1.2" baseProfile="tiny" x="0" y="0" width="200" height="200" viewBox="0 0 1024 1024"><defs/><path fill="#ffffff" d="M 404.89 724.787 L 618.086 724.787 L 618.086 852.582 L 404.89 852.582 L 404.89 724.787 Z"/><path fill="#ffffff" d="M 703.488 916.89 L 319.693 916.89 C 296.141 916.89 277.094 897.638 277.094 874.291 C 277.094 850.739 296.346 831.693 319.693 831.693 L 703.283 831.693 C 726.835 831.693 745.882 850.944 745.882 874.291 C 746.086 897.434 727.04 916.89 703.488 916.89 Z"/><path fill="#ffffff" d="M 873.882 106.701 L 149.094 106.701 C 102.195 106.701 63.8976 144.998 63.8976 191.898 L 63.8976 660.89 C 63.8976 707.789 102.195 746.086 149.094 746.086 L 873.882 746.086 C 920.781 746.086 959.078 707.789 959.078 660.89 L 959.078 192.102 C 959.078 144.998 920.781 106.701 873.882 106.701 M 786.432 332.595 L 577.536 541.491 C 564.838 554.189 545.382 554.189 532.685 541.491 L 419.84 426.394 L 281.395 564.838 C 266.445 577.536 247.194 577.536 234.496 564.838 C 221.798 552.141 221.798 532.685 234.496 519.987 L 396.493 357.99 C 409.19 345.293 428.646 345.293 441.344 357.99 L 556.442 473.088 L 741.786 287.744 C 754.483 275.046 773.939 275.046 786.637 287.744 C 799.334 300.851 799.334 319.898 786.432 332.595"/></svg>
