<?xml version='1.0' encoding='utf-8'?>
<svg xmlns="http://www.w3.org/2000/svg" version="1.1" width="1280" height="720" viewBox="0 0 1280 720"><defs><linearGradient id="ggrad1" x1="0" y1="0" x2="1" y2="1"><stop offset="0" stop-color="#B51D25" /><stop offset="1" stop-color="#88161C" /></linearGradient><linearGradient id="ggrad2" x1="0.5" y1="0" x2="0.5" y2="1"><stop offset="1" stop-color="#B51D25" /><stop offset="0" stop-color="#88161C" /></linearGradient><linearGradient id="ggrad3" x1="0.5" y1="0" x2="0.5" y2="1"><stop offset="1" stop-color="#44546A" /><stop offset="0" stop-color="#333F50" /></linearGradient><marker id="marrow1" viewBox="0 0 10 10" refX="10" refY="5" markerWidth="5" markerHeight="5" orient="auto" markerUnits="strokeWidth"><path d="M 0 0 L 10 5 L 0 10 z" fill="#B51D25" /></marker><marker id="marrow2" viewBox="0 0 10 10" refX="10" refY="5" markerWidth="5" markerHeight="5" orient="auto" markerUnits="strokeWidth"><path d="M 0 0 L 10 5 L 0 10 z" fill="#B51D25" /></marker><linearGradient id="ggrad4" x1="0" y1="0" x2="1" y2="1"><stop offset="0" stop-color="#DE3039" /><stop offset="1" stop-color="#AC1C23" /></linearGradient><filter id="fx1" x="-25%" y="-25%" width="150%" height="150%"><feDropShadow dx="18.86" dy="18.86" stdDeviation="33.33" flood-color="#000000" flood-opacity="0.1" /></filter><linearGradient id="ggrad5" x1="0" y1="0" x2="1" y2="1"><stop offset="0" stop-color="#DE3039" /><stop offset="1" stop-color="#AC1C23" /></linearGradient><filter id="fx2" x="-25%" y="-25%" width="150%" height="150%"><feDropShadow dx="18.86" dy="18.86" stdDeviation="33.33" flood-color="#000000" flood-opacity="0.1" /></filter><linearGradient id="ggrad6" x1="0" y1="0" x2="1" y2="1"><stop offset="0" stop-color="#DE3039" /><stop offset="1" stop-color="#AC1C23" /></linearGradient><filter id="fx3" x="-25%" y="-25%" width="150%" height="150%"><feDropShadow dx="18.86" dy="18.86" stdDeviation="33.33" flood-color="#000000" flood-opacity="0.1" /></filter><linearGradient id="ggrad7" x1="0" y1="0" x2="1" y2="1"><stop offset="0" stop-color="#DE3039" /><stop offset="1" stop-color="#AC1C23" /></linearGradient><filter id="fx4" x="-25%" y="-25%" width="150%" height="150%"><feDropShadow dx="18.86" dy="18.86" stdDeviation="33.33" flood-color="#000000" flood-opacity="0.1" /></filter><marker id="marrow3" viewBox="0 0 10 10" refX="10" refY="5" markerWidth="5" markerHeight="5" orient="auto" markerUnits="strokeWidth"><path d="M 0 0 L 10 5 L 0 10 z" fill="#B51D25" /></marker><marker id="marrow4" viewBox="0 0 10 10" refX="10" refY="5" markerWidth="5" markerHeight="5" orient="auto" markerUnits="strokeWidth"><path d="M 0 0 L 10 5 L 0 10 z" fill="#B51D25" /></marker><linearGradient id="ggrad8" x1="0.5" y1="0" x2="0.5" y2="1"><stop offset="1" stop-color="#44546A" /><stop offset="0" stop-color="#333F50" /></linearGradient></defs><rect x="0" y="0" width="1280" height="720" fill="#E7E6E6" />
<g id="shape-62" data-name="矩形 61">
<rect x="37.33" y="107.6" width="280.67" height="104.44" fill="#B51D25" fill-opacity="0.1" stroke="none" stroke-width="1" />
<text x="177.67" y="170.48" text-anchor="middle" xml:space="preserve" font-family="&quot;思源黑体 CN Bold&quot;, Roboto, sans-serif" font-size="42.67" fill="#B51D25" letter-spacing="8"><tspan fill="#B51D25" font-size="42.67" letter-spacing="8">阶段</tspan></text>
</g>
<g id="shape-220" data-name="矩形 219">
<rect x="37.33" y="557.79" width="1204" height="104.44" fill="#F7CBCE" stroke="none" stroke-width="1" />
</g>
<g id="shape-25" data-name="矩形 24">
<rect x="37.33" y="221.53" width="1204" height="104.44" fill="#F7CBCE" fill-opacity="0.1" stroke="none" stroke-width="1" />
</g>
<g id="shape-221" data-name="矩形 220">
<rect x="37.33" y="445.7" width="1204" height="104.44" fill="#F7CBCE" fill-opacity="0.4" stroke="none" stroke-width="1" />
</g>
<g id="shape-222" data-name="矩形 221">
<rect x="37.33" y="333.62" width="1204" height="104.44" fill="#F7CBCE" fill-opacity="0.2" stroke="none" stroke-width="1" />
</g>
<g id="shape-4" data-name="文本框 3">
<rect x="30.35" y="21.05" width="527.97" height="54.93" fill="none" />
<text x="39.95" y="57.59" text-anchor="start" xml:space="preserve" font-family="&quot;思源黑体 CN Bold&quot;, &quot;思源黑体 CN Normal&quot;, sans-serif" font-size="37.33" fill="#44546A"><tspan fill="#44546A" font-size="37.33">{{TOC_ITEM_1_TITLE}}</tspan></text>
</g>
<g id="shape-5" data-name="直线连接符 11">
<line x1="30.33" y1="75.93" x2="1238.87" y2="75.93" stroke-width="4" stroke-linecap="round" stroke="#B51D25" fill="#B51D25" />
</g>
<g id="shape-2" data-name="矩形: 圆顶角 1">
<path d="M 10.53 698.95 L 1269.47 698.95 A 10.53 10.53 0 0 1 1280 709.47 L 1280 720 L 1280 720 L 0 720 L 0 720 L 0 709.47 A 10.53 10.53 0 0 1 10.53 698.95 Z" data-pptx-prst="round2SameRect" data-pptx-adj1="50000" data-pptx-adj2="0" fill="url(#ggrad1)" stroke="none" stroke-width="1" />
</g>
<g id="shape-176" data-name="任意多边形: 形状 175">
<path d="M 510.86 558.61 L 758.34 558.61 L 752.19 599.7 C 750.27 614.5 748.66 629.22 747.36 643.83 L 746.1 661.55 L 523.1 661.55 L 521.84 643.83 C 520.54 629.22 518.93 614.5 517.01 599.7 L 510.86 558.61 Z" fill="url(#ggrad2)" stroke="none" stroke-width="1" />
</g>
<g id="shape-207" data-name="椭圆 206">
<ellipse cx="634.6" cy="558.61" rx="123.74" ry="10.53" stroke="none" fill="#B51D25" stroke-width="1" />
</g>
<g id="shape-209" data-name="任意多边形: 形状 208">
<path d="M 486.41 446.25 L 782.79 446.25 L 777.87 464.49 C 774.07 479.69 770.6 494.84 767.43 509.94 L 760.12 548.52 L 760.5 548.68 L 760.05 548.87 L 759.99 549.19 L 759.28 549.19 L 757.95 549.75 C 746.22 552.16 695.52 553.98 634.75 553.98 C 573.98 553.98 523.28 552.16 511.55 549.75 L 510.22 549.19 L 509.21 549.19 L 509.12 548.73 L 509 548.68 L 509.11 548.63 L 501.77 509.94 C 498.6 494.84 495.13 479.69 491.33 464.49 Z" stroke="none" fill="#B51D25" stroke-width="1" />
</g>
<g id="shape-205" data-name="椭圆 204">
<ellipse cx="634.6" cy="446.02" rx="148.19" ry="10.53" stroke="none" fill="#B51D25" stroke-width="1" />
</g>
<g id="shape-208" data-name="任意多边形: 形状 207">
<path d="M 450.98 333.89 L 818.22 333.89 L 804.46 372.93 C 799.39 388.23 794.64 403.53 790.21 418.79 L 785.53 436.11 L 785.67 436.15 L 785.5 436.21 L 785.34 436.83 L 783.72 436.83 L 782.6 437.22 C 768.52 439.64 707.64 441.46 634.67 441.46 C 561.7 441.46 500.81 439.64 486.73 437.22 L 485.62 436.83 L 483.86 436.83 L 483.68 436.16 L 483.67 436.15 L 483.68 436.15 L 478.99 418.79 C 474.56 403.53 469.81 388.23 464.74 372.93 Z" stroke="none" fill="#B51D25" stroke-width="1" />
</g>
<g id="shape-200" data-name="椭圆 199">
<ellipse cx="634.6" cy="333.5" rx="183.62" ry="14.72" stroke="none" fill="#B51D25" stroke-width="1" />
</g>
<g id="shape-199" data-name="任意多边形: 形状 198">
<path d="M 403.68 221.53 L 865.52 221.53 L 856.35 240.79 C 850.31 254.03 844.45 267.46 838.79 281.05 L 821.86 323.93 L 822.1 324.02 L 821.77 324.15 L 821.64 324.47 L 820.91 324.47 L 818.29 325.46 C 800.81 328.72 725.21 331.16 634.6 331.16 C 543.99 331.16 468.39 328.72 450.91 325.46 L 448.29 324.47 L 447.56 324.47 L 447.43 324.15 L 447.1 324.02 L 447.34 323.93 L 430.41 281.05 C 424.74 267.46 418.89 254.03 412.85 240.79 Z" fill="url(#ggrad3)" stroke="none" stroke-width="1" />
</g>
<g id="shape-195" data-name="椭圆 194">
<ellipse cx="634.6" cy="219.64" rx="230.92" ry="14.72" stroke="none" fill="#B51D25" stroke-width="1" />
</g>
<g id="shape-24" data-name="矩形 23">
<rect x="564.32" y="581.78" width="140.56" height="38.78" fill="none" />
<text x="634.6" y="606.98" text-anchor="middle" xml:space="preserve" font-family="&quot;思源黑体 CN Normal&quot;, Roboto, sans-serif" font-size="24" fill="#FFFFFF" font-weight="bold"><tspan fill="#FFFFFF" font-size="24">{{TOC_ITEM_2_TITLE}}</tspan></text>
</g>
<g id="shape-213" data-name="矩形 212">
<rect x="581.15" y="604.82" width="106.9" height="61.39" fill="none" />
<text x="634.6" y="645.89" text-anchor="middle" xml:space="preserve" font-family="&quot;思源黑体 CN Bold&quot;, Roboto, sans-serif" font-size="42.67" fill="#FFFFFF" font-weight="bold"><tspan fill="#FFFFFF" font-size="42.67">{{TOC_ITEM_3_TITLE}}</tspan></text>
</g>
<g id="shape-214" data-name="矩形 213">
<rect x="564.32" y="473.4" width="140.56" height="38.78" fill="none" />
<text x="634.6" y="498.6" text-anchor="middle" xml:space="preserve" font-family="&quot;思源黑体 CN Normal&quot;, Roboto, sans-serif" font-size="24" fill="#FFFFFF" font-weight="bold"><tspan fill="#FFFFFF" font-size="24">{{TOC_ITEM_4_TITLE}}</tspan></text>
</g>
<g id="shape-215" data-name="矩形 214">
<rect x="581.15" y="496.44" width="106.9" height="61.39" fill="none" />
<text x="634.6" y="537.5" text-anchor="middle" xml:space="preserve" font-family="&quot;思源黑体 CN Bold&quot;, Roboto, sans-serif" font-size="42.67" fill="#FFFFFF" font-weight="bold"><tspan fill="#FFFFFF" font-size="42.67" font-weight="bold">2025</tspan></text>
</g>
<g id="shape-216" data-name="矩形 215">
<rect x="564.32" y="358.84" width="140.56" height="38.78" fill="none" />
<text x="634.6" y="384.04" text-anchor="middle" xml:space="preserve" font-family="&quot;思源黑体 CN Normal&quot;, Roboto, sans-serif" font-size="24" fill="#FFFFFF" font-weight="bold"><tspan fill="#FFFFFF" font-size="24" font-weight="bold">市场扩张期</tspan></text>
</g>
<g id="shape-217" data-name="矩形 216">
<rect x="574.73" y="381.87" width="119.73" height="61.27" fill="none" />
<text x="634.6" y="422.94" text-anchor="middle" xml:space="preserve" font-family="&quot;思源黑体 CN Bold&quot;, Roboto, sans-serif" font-size="42.67" fill="#FFFFFF" font-weight="bold"><tspan fill="#FFFFFF" font-size="42.67" font-weight="bold">2026</tspan></text>
</g>
<g id="shape-218" data-name="矩形 217">
<rect x="581.3" y="246.71" width="106.6" height="38.67" fill="none" />
<text x="634.6" y="271.91" text-anchor="middle" xml:space="preserve" font-family="&quot;思源黑体 CN Bold&quot;, sans-serif" font-size="24" fill="#FFFFFF" font-weight="bold"><tspan fill="#FFFFFF" font-size="24" font-weight="bold">A</tspan><tspan fill="#FFFFFF" font-size="24" font-weight="bold">轮投入</tspan></text>
</g>
<g id="shape-219" data-name="矩形 218">
<rect x="581.15" y="269.74" width="106.9" height="61.39" fill="none" />
<text x="634.6" y="310.81" text-anchor="middle" xml:space="preserve" font-family="&quot;思源黑体 CN Bold&quot;, Roboto, sans-serif" font-size="42.67" fill="#FFFFFF" font-weight="bold"><tspan fill="#FFFFFF" font-size="42.67" font-weight="bold">2027</tspan></text>
</g>
<g id="shape-26" data-name="矩形 25">
<rect x="106.73" y="574.61" width="280.8" height="67.86" fill="none" />
<text x="116.33" y="599.81" text-anchor="start" xml:space="preserve" font-family="&quot;思源黑体 CN Bold&quot;, Roboto, sans-serif" font-size="24" fill="#000000" font-weight="bold"><tspan fill="#000000" font-size="24">{{TOC_ITEM_1_DESC}}</tspan></text>
</g>
<g id="shape-223" data-name="矩形 222">
<rect x="106.73" y="465.23" width="280.8" height="67.86" fill="none" />
<text x="116.33" y="490.43" text-anchor="start" xml:space="preserve" font-family="&quot;思源黑体 CN Bold&quot;, Roboto, sans-serif" font-size="24" fill="#000000" font-weight="bold"><tspan fill="#000000" font-size="24">{{TOC_ITEM_2_DESC}}</tspan></text>
</g>
<g id="shape-224" data-name="矩形 223">
<rect x="106.73" y="355.86" width="280.8" height="67.86" fill="none" />
<text x="116.33" y="381.06" text-anchor="start" xml:space="preserve" font-family="&quot;思源黑体 CN Bold&quot;, Roboto, sans-serif" font-size="24" fill="#000000" font-weight="bold"><tspan fill="#000000" font-size="24">{{TOC_ITEM_3_DESC}}</tspan></text>
</g>
<g id="shape-225" data-name="矩形 224">
<rect x="106.73" y="237.63" width="280.8" height="76.7" fill="none" />
<text x="116.33" y="262.83" text-anchor="start" xml:space="preserve" font-family="&quot;思源黑体 CN Bold&quot;, Roboto, sans-serif" font-size="24" fill="#000000" font-weight="bold"><tspan fill="#000000" font-size="24">{{TOC_ITEM_4_DESC}}</tspan></text>
</g>
<g id="shape-27" data-name="组合 26">
<g id="shape-14" data-name="任意多边形: 形状 13">
<path d="M 389.62 242.75 L 392.02 241.63 L 392.24 241.48 L 406.87 276.8 C 429.46 332.18 450.46 387.46 465.1 442.34 C 484.63 515.52 498.96 586.47 510.7 670.06" fill="none" stroke-width="4" stroke="#B51D25" stroke-dasharray="4 4" />
</g>
<g id="shape-16" data-name="等腰三角形 15" transform="rotate(335.01 388.29 233.46)">
<polygon points="388.29,222.11 396.9,244.81 379.68,244.81" stroke="none" fill="#B51D25" stroke-width="1" />
</g>
</g>
<g id="shape-28" data-name="组合 27" transform="translate(823 446.09) scale(-1 1) translate(-823 -446.09)">
<g id="shape-29" data-name="任意多边形: 形状 28">
<path d="M 767.43 242.75 L 769.82 241.63 L 770.04 241.48 L 784.67 276.8 C 807.26 332.18 828.26 387.46 842.91 442.34 C 862.44 515.52 876.77 586.47 888.51 670.06" fill="none" stroke-width="4" stroke="#B51D25" stroke-dasharray="4 4" />
</g>
<g id="shape-30" data-name="等腰三角形 29" transform="rotate(335.01 766.1 233.46)">
<polygon points="766.1,222.11 774.7,244.81 757.49,244.81" stroke="none" fill="#B51D25" stroke-width="1" />
</g>
</g>
<g id="shape-31" data-name="文本框 30">
<rect x="864.33" y="574.61" width="107.61" height="67.86" fill="none" />
<text x="918.13" y="620.21" text-anchor="middle" xml:space="preserve" font-family="&quot;思源黑体 CN Bold&quot;, Roboto, sans-serif" font-size="48" fill="#B51D25"><tspan fill="#B51D25" font-size="48">01</tspan></text>
</g>
<g id="shape-228" data-name="文本框 227">
<rect x="864.33" y="463.25" width="107.61" height="67.86" fill="none" />
<text x="918.13" y="508.85" text-anchor="middle" xml:space="preserve" font-family="&quot;思源黑体 CN Bold&quot;, Roboto, sans-serif" font-size="48" fill="#B51D25"><tspan fill="#B51D25" font-size="48">02</tspan></text>
</g>
<g id="shape-243" data-name="文本框 242">
<rect x="864.33" y="351.89" width="107.61" height="67.86" fill="none" />
<text x="918.13" y="397.49" text-anchor="middle" xml:space="preserve" font-family="&quot;思源黑体 CN Bold&quot;, Roboto, sans-serif" font-size="48" fill="#B51D25"><tspan fill="#B51D25" font-size="48">03</tspan></text>
</g>
<g id="shape-244" data-name="文本框 243">
<rect x="864.33" y="240.53" width="107.61" height="67.86" fill="none" />
<text x="918.13" y="286.13" text-anchor="middle" xml:space="preserve" font-family="&quot;思源黑体 CN Bold&quot;, Roboto, sans-serif" font-size="48" fill="#B51D25"><tspan fill="#B51D25" font-size="48">04</tspan></text>
</g>
<g id="shape-63" data-name="矩形 62">
<rect x="962" y="107.6" width="280.67" height="104.44" fill="#B51D25" fill-opacity="0.1" stroke="none" stroke-width="1" />
<text x="1102.33" y="170.48" text-anchor="middle" xml:space="preserve" font-family="&quot;思源黑体 CN Bold&quot;, Roboto, sans-serif" font-size="42.67" fill="#B51D25" letter-spacing="8"><tspan fill="#B51D25" font-size="42.67" letter-spacing="8">目标</tspan></text>
</g>
<g id="shape-3" data-name="组合 2">
<g id="shape-226" data-name="矩形 225">
<rect x="951.31" y="563.48" width="298.69" height="46.92" fill="none" />
<text x="960.91" y="579.61" text-anchor="start" xml:space="preserve" font-family="&quot;思源黑体 CN Normal&quot;, Roboto, sans-serif" font-size="13.33" fill="#404040"><tspan fill="#404040" font-size="13.33">成本控制在</tspan><tspan fill="#404040" font-size="13.33">200</tspan><tspan fill="#404040" font-size="13.33">元</tspan><tspan fill="#404040" font-size="13.33">/</tspan><tspan fill="#404040" font-size="13.33">台，通过</tspan><tspan fill="#404040" font-size="13.33">500</tspan><tspan fill="#404040" font-size="13.33">名种子用户</tspan><tspan fill="#404040" font-size="13.33">3</tspan><tspan fill="#404040" font-size="13.33">个</tspan><tspan x="960.91" dy="16" fill="#404040" font-size="13.33">月测试，收集核心需求。</tspan></text>
</g>
<g id="shape-227" data-name="矩形 226">
<rect x="1038.24" y="617.22" width="203.17" height="27.53" fill="none" />
<text x="1231.81" y="633.36" text-anchor="end" xml:space="preserve" font-family="&quot;思源黑体 CN Normal&quot;, Roboto, sans-serif" font-size="13.33" fill="#404040"><tspan fill="#404040" font-size="13.33">用户留存率≥</tspan><tspan fill="#404040" font-size="13.33">60%</tspan><tspan fill="#404040" font-size="13.33">，</tspan><tspan fill="#404040" font-size="13.33">NPS≥40</tspan><tspan fill="#404040" font-size="13.33">。</tspan></text>
</g>
<g id="shape-229" data-name="矩形: 圆角 228">
<rect x="971.94" y="619.68" width="78.5" height="22.34" rx="2.22" ry="2.22" fill="#FFFFFF" stroke="none" stroke-width="1" />
<text x="1011.19" y="635.81" text-anchor="middle" xml:space="preserve" font-family="Roboto, sans-serif" font-size="13.33" fill="#B51D25" font-weight="bold"><tspan fill="#B51D25" font-size="13.33" font-weight="bold">关键指标</tspan></text>
</g>
<g id="shape-64" data-name="矩形: 圆角 63">
<rect x="964.24" y="611.03" width="267.09" height="39.65" rx="3.95" ry="3.95" fill="none" stroke-width="1.333" stroke="#B51D25" stroke-dasharray="4 4" />
</g>
</g>
<g id="shape-81" data-name="组合 80">
<g id="shape-82" data-name="矩形 81">
<rect x="951.31" y="450.83" width="298.69" height="46.92" fill="none" />
<text x="960.91" y="466.96" text-anchor="start" xml:space="preserve" font-family="&quot;思源黑体 CN Normal&quot;, Roboto, sans-serif" font-size="13.33" fill="#404040"><tspan fill="#404040" font-size="13.33">释放</tspan><tspan fill="#404040" font-size="13.33">15%</tspan><tspan fill="#404040" font-size="13.33">顾全，投入用于建立供应链（月产能</tspan><tspan fill="#404040" font-size="13.33">1</tspan><tspan fill="#404040" font-size="13.33">万</tspan><tspan x="960.91" dy="16" fill="#404040" font-size="13.33">台）及</tspan><tspan fill="#404040" font-size="13.33">10</tspan><tspan fill="#404040" font-size="13.33">人团队扩张。</tspan></text>
</g>
<g id="shape-83" data-name="矩形 82">
<rect x="1046.83" y="504.58" width="203.17" height="27.53" fill="none" />
<text x="1056.43" y="520.71" text-anchor="start" xml:space="preserve" font-family="&quot;思源黑体 CN Normal&quot;, Roboto, sans-serif" font-size="13.33" fill="#404040"><tspan fill="#404040" font-size="13.33">估值锚定</tspan><tspan fill="#404040" font-size="13.33">5000</tspan><tspan fill="#404040" font-size="13.33">万。</tspan></text>
</g>
<g id="shape-84" data-name="矩形: 圆角 83">
<rect x="971.94" y="507.03" width="78.5" height="22.34" rx="2.22" ry="2.22" fill="#FFFFFF" stroke="none" stroke-width="1" />
<text x="1011.19" y="523.17" text-anchor="middle" xml:space="preserve" font-family="Roboto, sans-serif" font-size="13.33" fill="#B51D25" font-weight="bold"><tspan fill="#B51D25" font-size="13.33" font-weight="bold">投资策略</tspan></text>
</g>
<g id="shape-85" data-name="矩形: 圆角 84">
<rect x="964.24" y="498.38" width="267.09" height="39.65" rx="3.95" ry="3.95" fill="none" stroke-width="1.333" stroke="#B51D25" stroke-dasharray="4 4" />
</g>
</g>
<g id="shape-86" data-name="组合 85">
<g id="shape-87" data-name="矩形 86">
<rect x="951.31" y="338.18" width="298.69" height="46.92" fill="none" />
<text x="960.91" y="354.32" text-anchor="start" xml:space="preserve" font-family="&quot;思源黑体 CN Normal&quot;, Roboto, sans-serif" font-size="13.33" fill="#404040"><tspan fill="#404040" font-size="13.33">通过电商</tspan><tspan fill="#404040" font-size="13.33">+</tspan><tspan fill="#404040" font-size="13.33">线下商铺货，月销突破</tspan><tspan fill="#404040" font-size="13.33">5000</tspan><tspan fill="#404040" font-size="13.33">台，毛利</tspan><tspan x="960.91" dy="16" fill="#404040" font-size="13.33">率提升至</tspan><tspan fill="#404040" font-size="13.33">45%</tspan><tspan fill="#404040" font-size="13.33">。</tspan></text>
</g>
<g id="shape-88" data-name="矩形 87">
<rect x="1035.39" y="391.93" width="203.17" height="27.53" fill="none" />
<text x="1228.96" y="408.07" text-anchor="end" xml:space="preserve" font-family="&quot;思源黑体 CN Normal&quot;, Roboto, sans-serif" font-size="13.33" fill="#404040"><tspan fill="#404040" font-size="13.33">年营收</tspan><tspan fill="#404040" font-size="13.33">3000</tspan><tspan fill="#404040" font-size="13.33">万，再够</tspan><tspan fill="#404040" font-size="13.33">25%</tspan><tspan fill="#404040" font-size="13.33">。</tspan></text>
</g>
<g id="shape-89" data-name="矩形: 圆角 88">
<rect x="971.94" y="394.39" width="78.5" height="22.34" rx="2.22" ry="2.22" fill="#FFFFFF" stroke="none" stroke-width="1" />
<text x="1011.19" y="410.52" text-anchor="middle" xml:space="preserve" font-family="Roboto, sans-serif" font-size="13.33" fill="#B51D25" font-weight="bold"><tspan fill="#B51D25" font-size="13.33" font-weight="bold">里程碑</tspan></text>
</g>
<g id="shape-90" data-name="矩形: 圆角 89">
<rect x="964.24" y="385.73" width="267.09" height="39.65" rx="3.95" ry="3.95" fill="none" stroke-width="1.333" stroke="#B51D25" stroke-dasharray="4 4" />
</g>
</g>
<g id="shape-91" data-name="组合 90">
<g id="shape-92" data-name="矩形 91">
<rect x="951.31" y="225.54" width="290.02" height="46.92" fill="none" />
<text x="960.91" y="241.67" text-anchor="start" xml:space="preserve" font-family="&quot;思源黑体 CN Normal&quot;, Roboto, sans-serif" font-size="13.33" fill="#404040"><tspan fill="#404040" font-size="13.33">释放</tspan><tspan fill="#404040" font-size="13.33">20%</tspan><tspan fill="#404040" font-size="13.33">顾全，资金用于研发第二代产品（智</tspan><tspan x="960.91" dy="16" fill="#404040" font-size="13.33">能安防系列）及海外市场试点。</tspan></text>
</g>
<g id="shape-93" data-name="矩形 92">
<rect x="1045.86" y="279.29" width="203.17" height="27.53" fill="none" />
<text x="1055.46" y="295.42" text-anchor="start" xml:space="preserve" font-family="&quot;思源黑体 CN Normal&quot;, Roboto, sans-serif" font-size="13.33" fill="#404040"><tspan fill="#404040" font-size="13.33">3</tspan><tspan fill="#404040" font-size="13.33">亿，对标行业</tspan><tspan fill="#404040" font-size="13.33">PS</tspan><tspan fill="#404040" font-size="13.33">倍数</tspan><tspan fill="#404040" font-size="13.33">5x</tspan><tspan fill="#404040" font-size="13.33">。</tspan></text>
</g>
<g id="shape-94" data-name="矩形: 圆角 93">
<rect x="971.94" y="281.74" width="78.5" height="22.34" rx="2.22" ry="2.22" fill="#FFFFFF" stroke="none" stroke-width="1" />
<text x="1011.19" y="297.87" text-anchor="middle" xml:space="preserve" font-family="Roboto, sans-serif" font-size="13.33" fill="#B51D25" font-weight="bold"><tspan fill="#B51D25" font-size="13.33" font-weight="bold">估值目标</tspan></text>
</g>
<g id="shape-95" data-name="矩形: 圆角 94">
<rect x="964.24" y="273.09" width="267.09" height="39.65" rx="3.95" ry="3.95" fill="none" stroke-width="1.333" stroke="#B51D25" stroke-dasharray="4 4" />
</g>
</g>
<g id="shape-12" data-name="直接箭头连接符 11">
<line x1="65.08" y1="140.12" x2="65.08" y2="199.26" marker-end="url(#marrow1)" fill="#B51D25" stroke="#B51D25" stroke-width="1" />
</g>
<g id="shape-98" data-name="直接箭头连接符 97">
<line x1="290.08" y1="140.12" x2="290.08" y2="199.26" marker-end="url(#marrow2)" fill="#B51D25" stroke="#B51D25" stroke-width="1" />
</g>
<g id="shape-99" data-name="组合 98">
<g id="shape-100" data-name="Rectangle: Rounded Corners 27">
<rect x="63.22" y="256.58" width="31.77" height="31.77" rx="15.88" ry="15.88" fill="url(#ggrad4)" stroke-width="2" stroke-linecap="butt" stroke="none" stroke-linejoin="miter" filter="url(#fx1)" />
</g>
<g id="shape-101" data-name="图形 100">
<image href="assets/image1.png" x="69.38" y="262" width="19.06" height="19.06" preserveAspectRatio="none" />
</g>
</g>
<g id="shape-102" data-name="组合 101">
<g id="shape-103" data-name="Rectangle: Rounded Corners 27">
<rect x="63.22" y="369.1" width="31.77" height="31.77" rx="15.88" ry="15.88" fill="url(#ggrad5)" stroke-width="2" stroke-linecap="butt" stroke="none" stroke-linejoin="miter" filter="url(#fx2)" />
</g>
<g id="shape-104" data-name="图形 103">
<image href="assets/image1.png" x="69.38" y="374.53" width="19.06" height="19.06" preserveAspectRatio="none" />
</g>
</g>
<g id="shape-105" data-name="组合 104">
<g id="shape-106" data-name="Rectangle: Rounded Corners 27">
<rect x="63.22" y="481.62" width="31.77" height="31.77" rx="15.88" ry="15.88" fill="url(#ggrad6)" stroke-width="2" stroke-linecap="butt" stroke="none" stroke-linejoin="miter" filter="url(#fx3)" />
</g>
<g id="shape-107" data-name="图形 106">
<image href="assets/image1.png" x="69.38" y="487.05" width="19.06" height="19.06" preserveAspectRatio="none" />
</g>
</g>
<g id="shape-108" data-name="组合 107">
<g id="shape-109" data-name="Rectangle: Rounded Corners 27">
<rect x="63.22" y="594.15" width="31.77" height="31.77" rx="15.88" ry="15.88" fill="url(#ggrad7)" stroke-width="2" stroke-linecap="butt" stroke="none" stroke-linejoin="miter" filter="url(#fx4)" />
</g>
<g id="shape-110" data-name="图形 109">
<image href="assets/image1.png" x="69.38" y="599.57" width="19.06" height="19.06" preserveAspectRatio="none" />
</g>
</g>
<g id="shape-97" data-name="直接箭头连接符 96">
<line x1="993.58" y1="140.12" x2="993.58" y2="199.26" marker-end="url(#marrow3)" fill="#B51D25" stroke="#B51D25" stroke-width="1" />
</g>
<g id="shape-111" data-name="直接箭头连接符 110">
<line x1="1218.58" y1="140.12" x2="1218.58" y2="199.26" marker-end="url(#marrow4)" fill="#B51D25" stroke="#B51D25" stroke-width="1" />
</g>
<g id="shape-112" data-name="任意多边形: 形状 111">
<path d="M 297.26 108 L 971.94 108 L 958.54 127.68 C 949.72 141.21 941.16 154.93 932.88 168.83 L 908.15 212.66 L 908.5 212.75 L 908.02 212.88 L 907.83 213.21 L 906.76 213.21 L 902.94 214.22 C 877.4 217.55 766.96 220.05 634.6 220.05 C 502.24 220.05 391.8 217.55 366.26 214.22 L 362.44 213.21 L 361.37 213.21 L 361.18 212.88 L 360.7 212.75 L 361.05 212.66 L 336.32 168.83 C 328.04 154.93 319.48 141.21 310.66 127.68 Z" fill="url(#ggrad8)" stroke="none" stroke-width="1" />
<text x="634.6" y="150.82" text-anchor="middle" xml:space="preserve" font-family="&quot;思源黑体 CN Bold&quot;, Roboto, sans-serif" font-size="24" fill="#FFFFFF"><tspan fill="#FFFFFF" font-size="24">以用户验证驱动产品迭代，用阶段性投入匹配规模扩张</tspan></text>
<text x="634.6" y="186.42" text-anchor="middle" xml:space="preserve" font-family="&quot;思源黑体 CN Bold&quot;, Roboto, sans-serif" font-size="32" fill="#FFFFFF"><tspan fill="#FFFFFF" font-size="32">4</tspan><tspan fill="#FFFFFF" font-size="32">年实现从</tspan><tspan fill="#FFFFFF" font-size="32">0</tspan><tspan fill="#FFFFFF" font-size="32">到行业细分前</tspan><tspan fill="#FFFFFF" font-size="32">5</tspan></text>
</g></svg>