<svg xmlns="http://www.w3.org/2000/svg" xmlns:xlink="http://www.w3.org/1999/xlink" version="1.1" width="1280" height="720" viewBox="0 0 1280 720"><rect x="0" y="0" width="1280" height="720" fill="#F6F6F6"/>
<g id="layout-shape-7" data-name="矩形 6" transform="rotate(180 156.21 117.5)">
<rect x="40.26" y="26.65" width="231.91" height="181.7" stroke="none" fill="#485275" stroke-width="1"/>
</g>
<g id="layout-shape-8" data-name="矩形 7">
<rect x="958.18" y="476.18" width="279.16" height="218.72" stroke="none" fill="#485275" stroke-width="1"/>
</g>
<g id="layout-shape-9" data-name="稻壳儿原创设计师【幻雨工作室】_1" transform="rotate(135 63.01 673.31)">
<path d="M 43.38 696.07 L 63.54 675.91 L 83.7 675.91 L 43.38 716.23 Z M 42.33 630.4 L 82.65 670.71 L 62.49 670.71 L 42.33 650.55 Z" stroke="none" fill="#485275" stroke-width="1"/>
</g>
<g id="layout-shape-10" data-name="稻壳儿原创设计师【幻雨工作室】_1" transform="rotate(135 1216.26 47.2) translate(1216.26 47.2) scale(-1 1) translate(-1216.26 -47.2)">
<path d="M 1196.62 69.96 L 1216.78 49.8 L 1236.94 49.8 L 1196.62 90.12 Z M 1195.58 4.29 L 1235.89 44.6 L 1215.73 44.6 L 1195.58 24.44 Z" stroke="none" fill="#485275" stroke-width="1"/>
</g>
<g id="layout-shape-11" data-name="稻壳儿原创设计师【幻雨工作室】_2">
<rect x="51.77" y="35.22" width="1176.48" height="649.59" rx="9.17" ry="9.17" fill="#FFFFFF" stroke-width="2.333" stroke="none"/>
</g>
<g id="layout-shape-14" data-name="任意多边形: 形状 13" transform="rotate(270 645.86 359.99)">
<path d="M 970.66 931.97 L 970.66 933.67 C 970.66 938.73 966.55 942.83 961.49 942.83 L 330.23 942.83 C 325.17 942.83 321.07 938.73 321.07 933.67 L 321.07 -222.86 L 970.66 931.97 Z" fill="#F2F2F2" fill-opacity="0.16" stroke="none" stroke-width="1"/>
</g>
<g id="shape-11" data-name="稻壳儿原创设计师【幻雨工作室】_1">
<ellipse cx="223.2" cy="345.68" rx="48.69" ry="48.54" fill="#485275" stroke="none"/>
</g>
<g id="shape-12" data-name="稻壳儿原创设计师【幻雨工作室】_2">
<rect x="185.07" y="311.75" width="76.27" height="67.86" fill="none" stroke="none"/>
<text x="223.2" y="357.35" text-anchor="middle" xml:space="preserve" font-family="&quot;微软雅黑&quot;, sans-serif" font-size="48" fill="#FFFFFF"><tspan fill="#FFFFFF" font-size="48">01</tspan></text>
</g>
<g id="shape-13" data-name="稻壳儿原创设计师【幻雨工作室】_3">
<ellipse cx="222.31" cy="536.09" rx="48.69" ry="48.54" fill="#485275" stroke="none"/>
</g>
<g id="shape-16" data-name="稻壳儿原创设计师【幻雨工作室】_4">
<rect x="184.17" y="502.16" width="76.27" height="67.86" fill="none" stroke="none"/>
<text x="222.31" y="547.76" text-anchor="middle" xml:space="preserve" font-family="&quot;微软雅黑&quot;, sans-serif" font-size="48" fill="#FFFFFF"><tspan fill="#FFFFFF" font-size="48">02</tspan></text>
</g>
<g id="shape-17" data-name="稻壳儿原创设计师【幻雨工作室】_5">
<ellipse cx="740.18" cy="345.68" rx="48.69" ry="48.54" fill="#485275" stroke="none"/>
</g>
<g id="shape-20" data-name="稻壳儿原创设计师【幻雨工作室】_6">
<rect x="702.05" y="311.75" width="76.27" height="67.86" fill="none" stroke="none"/>
<text x="740.18" y="357.35" text-anchor="middle" xml:space="preserve" font-family="&quot;微软雅黑&quot;, sans-serif" font-size="48" fill="#FFFFFF"><tspan fill="#FFFFFF" font-size="48">03</tspan></text>
</g>
<g id="shape-21" data-name="稻壳儿原创设计师【幻雨工作室】_7">
<ellipse cx="741.02" cy="536.09" rx="48.69" ry="48.54" fill="#485275" stroke="none"/>
</g>
<g id="shape-22" data-name="稻壳儿原创设计师【幻雨工作室】_8">
<rect x="702.88" y="502.16" width="76.27" height="67.86" fill="none" stroke="none"/>
<text x="741.02" y="547.76" text-anchor="middle" xml:space="preserve" font-family="&quot;微软雅黑&quot;, sans-serif" font-size="48" fill="#FFFFFF"><tspan fill="#FFFFFF" font-size="48">04</tspan></text>
</g>
<g id="shape-23" data-name="稻壳儿原创设计师【幻雨工作室】_9">
<rect x="275.91" y="295.6" width="277.89" height="100.17" fill="none"/>
<text x="285.51" y="336.66" text-anchor="start" xml:space="preserve" font-family="&quot;微软雅黑&quot;, sans-serif" font-size="42.67" fill="#485275"><tspan fill="#485275" font-size="42.67">{{TOC_ITEM_1_TITLE}}</tspan></text>
<text x="285.51" y="378.8" text-anchor="start" xml:space="preserve" font-family="Arial, &quot;微软雅黑&quot;, sans-serif" font-size="32" fill="#485275"><tspan fill="#485275" font-size="32">{{TOC_ITEM_1_DESC}}</tspan></text>
</g>
<g id="shape-24" data-name="稻壳儿原创设计师【幻雨工作室】_10">
<rect x="275.91" y="490.85" width="329.81" height="90.47" fill="none"/>
<text x="285.51" y="531.92" text-anchor="start" xml:space="preserve" font-family="&quot;微软雅黑&quot;, sans-serif" font-size="42.67" fill="#485275"><tspan fill="#485275" font-size="42.67">{{TOC_ITEM_2_TITLE}}</tspan></text>
<text x="285.51" y="567.25" text-anchor="start" xml:space="preserve" font-family="&quot;微软雅黑&quot;, sans-serif" font-size="24" fill="#485275"><tspan fill="#485275" font-size="24">{{TOC_ITEM_2_DESC}}</tspan></text>
</g>
<g id="shape-25" data-name="稻壳儿原创设计师【幻雨工作室】_11">
<rect x="799.44" y="295.6" width="310.7" height="100.17" fill="none"/>
<text x="809.04" y="336.66" text-anchor="start" xml:space="preserve" font-family="&quot;微软雅黑&quot;, sans-serif" font-size="42.67" fill="#485275"><tspan fill="#485275" font-size="42.67">{{TOC_ITEM_3_TITLE}}</tspan></text>
<text x="809.04" y="378.8" text-anchor="start" xml:space="preserve" font-family="Arial, &quot;微软雅黑&quot;, sans-serif" font-size="32" fill="#485275"><tspan fill="#485275" font-size="32">{{TOC_ITEM_3_DESC}}</tspan></text>
</g>
<g id="shape-26" data-name="稻壳儿原创设计师【幻雨工作室】_12">
<rect x="799.44" y="486" width="277.89" height="100.17" fill="none"/>
<text x="809.04" y="527.07" text-anchor="start" xml:space="preserve" font-family="&quot;微软雅黑&quot;, sans-serif" font-size="42.67" fill="#485275"><tspan fill="#485275" font-size="42.67">{{TOC_ITEM_4_TITLE}}</tspan></text>
<text x="809.04" y="569.2" text-anchor="start" xml:space="preserve" font-family="Arial, &quot;微软雅黑&quot;, sans-serif" font-size="32" fill="#485275"><tspan fill="#485275" font-size="32">{{TOC_ITEM_4_DESC}}</tspan></text>
</g>
<g id="shape-27" data-name="稻壳儿原创设计师【幻雨工作室】_13">
<rect x="101.57" y="81.03" width="432.43" height="106.63" fill="none"/>
<text x="111.17" y="153.83" text-anchor="start" xml:space="preserve" font-family="&quot;微软雅黑&quot;, sans-serif" font-size="80" fill="#485275"><tspan fill="#485275" font-size="80">{{TITLE}}</tspan><tspan fill="#485275" font-size="48">{{SUBTITLE}}</tspan></text>
</g></svg>