<svg xmlns="http://www.w3.org/2000/svg" xmlns:xlink="http://www.w3.org/1999/xlink" version="1.1" width="1280" height="720" viewBox="0 0 1280 720"><rect x="0" y="0" width="1280" height="720" fill="#F6F6F6"/>
<g id="layout-shape-7" data-name="矩形 6" transform="rotate(180 156.21 117.5)">
<rect x="40.26" y="26.65" width="231.91" height="181.7" stroke="none" fill="#485275" stroke-width="1"/>
</g>
<g id="layout-shape-8" data-name="矩形 7">
<rect x="958.18" y="476.18" width="279.16" height="218.72" stroke="none" fill="#485275" stroke-width="1"/>
</g>
<g id="layout-shape-9" data-name="稻壳儿原创设计师【幻雨工作室】_1" transform="rotate(135 63.01 673.31)">
<path d="M 43.38 696.07 L 63.54 675.91 L 83.7 675.91 L 43.38 716.23 Z M 42.33 630.4 L 82.65 670.71 L 62.49 670.71 L 42.33 650.55 Z" stroke="none" fill="#485275" stroke-width="1"/>
</g>
<g id="layout-shape-10" data-name="稻壳儿原创设计师【幻雨工作室】_1" transform="rotate(135 1216.26 47.2) translate(1216.26 47.2) scale(-1 1) translate(-1216.26 -47.2)">
<path d="M 1196.62 69.96 L 1216.78 49.8 L 1236.94 49.8 L 1196.62 90.12 Z M 1195.58 4.29 L 1235.89 44.6 L 1215.73 44.6 L 1195.58 24.44 Z" stroke="none" fill="#485275" stroke-width="1"/>
</g>
<g id="layout-shape-11" data-name="稻壳儿原创设计师【幻雨工作室】_2">
<rect x="51.77" y="35.22" width="1176.48" height="649.59" rx="9.17" ry="9.17" fill="#FFFFFF" stroke-width="2.333" stroke="none"/>
</g>
<g id="layout-shape-14" data-name="任意多边形: 形状 13" transform="rotate(270 645.86 359.99)">
<path d="M 970.66 931.97 L 970.66 933.67 C 970.66 938.73 966.55 942.83 961.49 942.83 L 330.23 942.83 C 325.17 942.83 321.07 938.73 321.07 933.67 L 321.07 -222.86 L 970.66 931.97 Z" fill="#F2F2F2" fill-opacity="0.16" stroke="none" stroke-width="1"/>
</g>
<g id="shape-14" data-name="稻壳儿原创设计师【幻雨工作室】_1">
<path d="M 268.85 239.24 C 266.88 239.24 265.24 239.24 263.28 239.57 C 263.28 239.24 263.28 239.24 263.28 239.24 C 166.22 239.24 166.22 239.24 166.22 239.24 C 166.22 533.53 166.22 533.53 166.22 533.53 C 263.28 533.53 263.28 533.53 263.28 533.53 C 263.28 533.53 263.28 533.53 263.28 533.53 C 264.92 533.53 266.56 533.53 268.2 533.53 C 348.53 533.53 414.12 466.59 414.12 385.72 C 414.12 304.53 348.86 239.57 268.85 239.24 Z M 250.49 347.28 C 254.1 302.87 280.66 269.73 280.66 269.73 C 280.66 269.73 306.23 301.54 300.99 352.25 C 296.07 401.96 270.16 430.79 270.16 430.79 C 270.16 430.79 246.55 391.36 250.49 347.28 Z M 242.95 501.05 C 242.95 501.05 207.86 460.29 204.91 424.17 C 200.65 375.12 235.73 331.7 235.73 331.7 C 233.44 399.31 255.74 429.14 255.74 429.14 C 255.74 429.14 260.98 437.09 257.37 460.29 C 253.77 483.16 242.95 501.05 242.95 501.05 Z M 331.81 459.3 C 300 494.76 257.37 500.72 257.37 500.72 C 257.37 500.72 258.69 459.96 295.74 424.5 C 332.79 389.37 368.21 380.42 368.21 380.42 C 368.21 380.42 363.29 423.84 331.81 459.3 Z" fill="#F2F2F2" fill-opacity="0.38" stroke="none"/>
</g>
<g id="shape-46" data-name="稻壳儿原创设计师【幻雨工作室】_6">
<rect x="430.55" y="294.3" width="495.77" height="184.18" fill="none"/>
<text x="678.43" y="360.3" text-anchor="middle" xml:space="preserve" font-family="Arial, &quot;微软雅黑&quot;, sans-serif" font-size="72" fill="#485275"><tspan fill="#485275" font-size="72">{{THANK_YOU}}</tspan></text>
<text x="678.43" y="446.7" text-anchor="middle" xml:space="preserve" font-family="&quot;微软雅黑&quot;, &quot;经典行书简&quot;, sans-serif" font-size="72" fill="#485275"><tspan fill="#485275" font-size="72">{{CLOSING_MESSAGE}}</tspan></text>
</g>
<g id="shape-33" data-name="稻壳儿原创设计师【幻雨工作室】_4">
<line x1="1110.83" y1="604.62" x2="1171.29" y2="604.62" stroke-width="2.667" stroke-linecap="round" stroke-linejoin="round" fill="#485275" stroke="#485275"/>
</g>
<g id="shape-34" data-name="稻壳儿原创设计师【幻雨工作室】_5">
<line x1="1110.83" y1="628.34" x2="1171.29" y2="628.34" stroke-width="2.667" stroke-linecap="round" stroke-linejoin="round" fill="#485275" stroke="#485275"/>
</g></svg>