<?xml version="1.0" encoding="UTF-8" standalone="yes"?><svg xmlns="http://www.w3.org/2000/svg" xmlns:xlink="http://www.w3.org/1999/xlink" version="1.2" baseProfile="tiny" x="0" y="0" width="256" height="256" viewBox="0 0 256 256"><defs/><defs/><defs/><defs/><defs/><defs/><defs/><defs/><defs/><g transform="matrix(9.14286,0,0,9.14286,-18.2857,-18.2857)"><g id="Page-1" fill="none" fill-rule="evenodd" stroke="none" stroke-width="1"><g id="分组-117" fill="#262626" transform="matrix(1,0,0,1,-127,-126)"><g id="kehugenjin" transform="matrix(1,0,0,1,129,128)"><path id="路径" fill="#f15b0a" fill-opacity="1" d="M 14.5742 14.0664 C 14.6055 14.0664 14.643 14.0564 14.6742 14.0564 L 14.668 14.0764 C 14.6367 14.0764 14.6055 14.0664 14.5742 14.0664 Z"/><path id="路径" fill="#f15b0a" fill-opacity="1" d="M 15.8867 21.4348 C 15.8867 18.7141 17.6504 16.368 19.9582 15.2797 C 18.9711 14.834 17.9375 14.5004 16.8766 14.2926 C 16.8711 14.2926 16.8629 14.2898 16.8574 14.2898 C 16.8328 14.2844 16.8082 14.2789 16.7836 14.2762 C 16.0781 14.1395 15.3562 14.0574 14.618 14.0301 C 18.2574 13.7512 21.1313 10.7461 21.1313 7.04102 C 21.1313 3.15273 17.9785 0 14.0875 0 C 10.1992 0 7.04375 3.15273 7.04375 7.04102 C 7.04375 10.7488 9.92031 13.7512 13.557 14.0273 C 6.02383 14.3063 0 20.4449 0 28 L 21.0711 28 C 18.1781 27.2152 15.8867 24.5738 15.8867 21.4348 Z"/><path id="形状" fill="#f15b0a" fill-opacity="1" d="M 22.4902 15.884 C 19.4496 15.884 16.9805 18.3477 16.9805 21.3883 C 16.9805 24.4289 19.4469 26.8953 22.4902 26.8953 C 25.5336 26.8953 28 24.4289 28 21.3883 C 28 18.3477 25.5336 15.884 22.4902 15.884 M 22.0773 24.7488 L 22.0773 22.8266 L 18.4379 22.8266 L 18.4379 19.9391 L 22.0801 19.9391 L 22.0801 18.0277 L 26.8898 21.3883 L 22.0773 24.7488"/></g></g><g id="IIIII-Copy-15" transform="matrix(1,0,0,1,-128,-128)"/></g></g></svg>
