<?xml version="1.0" encoding="UTF-8" standalone="yes"?><svg xmlns="http://www.w3.org/2000/svg" xmlns:xlink="http://www.w3.org/1999/xlink" version="1.2" baseProfile="tiny" x="0" y="0" width="256" height="256" viewBox="0 0 256 256"><defs/><defs/><defs/><defs/><defs/><defs/><defs/><g transform="matrix(0.256284,0,0,0.256284,-3.95871,-9.53412)"><g id="合作" fill="none" fill-rule="evenodd" stroke="none" stroke-width="1"><g id="编组-2" stroke-width="50" transform="matrix(0.707107,-0.707107,0.707107,0.707107,4.11535,478.318)"><path id="路径" fill="none" stroke="#ffffff" stroke-width="49.7778" stroke-opacity="1" transform="matrix(0,1,-1,0,969.639,-84.9546)" d="M 412.7 396.038 C 419.725 562.889 365.077 641.403 248.757 631.58 C 248.757 539.347 246.937 441.583 243.297 338.286 C 243.297 290.789 281.801 252.286 329.297 252.286 L 725.297 252.286 C 772.793 252.286 811.297 290.789 811.297 338.286 L 811.297 481.92"/><g id="编组" stroke="#5a56ff" transform="matrix(1,0,0,1,0.755574,0.246952)"><path id="路径" fill="none" stroke="#ffffff" stroke-width="49.7778" stroke-opacity="1" d="M 555.944 352.356 L 560 640 C 560 687.496 521.496 726 474 726 L 86 726 C 38.5035 726 0 687.496 0 640 L 0 86 C 0 38.5035 38.5035 -4.54747e-13 86 -4.54747e-13 L 474 -4.54747e-13 C 521.496 -4.54747e-13 560 38.5035 560 86 C 560 107.28 560.562 125.145 560.562 135.785"/><line id="直线" fill="none" stroke="#ffffff" stroke-width="49.7778" stroke-opacity="1" x1="147.724" y1="579.036" x2="148.69" y2="726"/><line id="直线备份" fill="none" stroke="#ffffff" stroke-width="49.7778" stroke-opacity="1" x1="280" y1="579.036" x2="280.966" y2="726"/><line id="直线备份-2" fill="none" stroke="#ffffff" stroke-width="49.7778" stroke-opacity="1" x1="412.276" y1="579.036" x2="413.241" y2="726"/></g></g></g></g></svg>
