<?xml version="1.0" encoding="UTF-8" standalone="yes"?><svg id="图层_1" xmlns="http://www.w3.org/2000/svg" xmlns:xlink="http://www.w3.org/1999/xlink" version="1.2" baseProfile="tiny" x="0" y="0" width="256" height="256" viewBox="0 0 256 256"><defs/><defs/><defs/><defs/><defs/><defs/><defs/><g transform="matrix(0.376028,0,0,0.376028,-58.7732,-65.6545)"><g><g><path fill="#52717b" fill-opacity="1" stroke="none" d="M 496.7 497.7 C 448.8 497.7 409.9 458.7 409.9 410.9 C 409.9 363.1 448.8 324.1 496.7 324.1 C 544.6 324.1 583.5 363.1 583.5 410.9 C 583.5 458.7 544.5 497.7 496.7 497.7 M 496.7 361.9 C 469.7 361.9 447.7 383.9 447.7 410.9 C 447.7 437.9 469.7 459.9 496.7 459.9 C 523.7 459.9 545.7 437.9 545.7 410.9 C 545.7 383.9 523.7 361.9 496.7 361.9"/></g><g><path fill="#52717b" fill-opacity="1" stroke="none" d="M 496.7 741.5 C 483.1 741.5 470.3 735.6 461.6 725.2 C 391.5 642.3 274 489.6 274 397.3 C 274 274.5 373.9 174.6 496.7 174.6 C 619.5 174.6 719.4 274.5 719.4 397.3 C 719.4 489.7 601.9 642.4 531.9 725.2 C 523 735.5 510.2 741.5 496.7 741.5 M 496.7 212.4 C 394.8 212.4 311.9 295.3 311.9 397.2 C 311.9 482.9 448.6 651.1 490.5 700.7 C 492.6 703.2 495.3 703.6 496.7 703.6 C 498.1 703.6 500.8 703.2 503 700.7 C 544.9 651.2 681.6 482.9 681.6 397.3 C 681.5 295.4 598.6 212.4 496.7 212.4"/></g><g><path fill="#52717b" fill-opacity="1" stroke="none" d="M 608.8 855.4 L 392.8 855.4 C 369.2 855.4 349.9 836.2 349.9 812.5 L 349.9 806.1 C 349.9 782.5 369.1 763.2 392.8 763.2 L 608.8 763.2 C 632.4 763.2 651.7 782.4 651.7 806.1 L 651.7 812.5 C 651.7 836.1 632.5 855.4 608.8 855.4 M 392.9 801 C 390.2 801 387.8 803.3 387.8 806.1 L 387.8 812.5 C 387.8 815.3 390.1 817.6 392.9 817.6 L 608.9 817.6 C 611.6 817.6 614 815.3 614 812.5 L 614 806.1 C 614 803.3 611.7 801 608.9 801 L 392.9 801"/></g></g></g></svg>
