<?xml version="1.0" encoding="UTF-8" standalone="yes"?><svg xmlns="http://www.w3.org/2000/svg" xmlns:xlink="http://www.w3.org/1999/xlink" version="1.2" baseProfile="tiny" x="0" y="0" width="256" height="256" viewBox="0 0 256 256"><defs><linearGradient id="wps{8df04b10-bf8a-49cc-8a7b-bfd29ec53d72}_solid@Accent2_0.00@Accent2_0.00" x1="0" y1="0.5" x2="1" y2="0.5" spreadMethod="pad" gradientUnits="userSpaceOnUse"><stop offset="0" stop-color="#a9c683" stop-opacity="1"/><stop offset="1" stop-color="#a9c683" stop-opacity="1"/></linearGradient></defs><defs/><defs/><defs/><defs/><defs/><defs/><defs/><defs/><defs/><g transform="matrix(0.277585,0,0,0.277585,-26.3928,-12.9798)"><g id="执行" fill="none" fill-rule="evenodd" stroke="none" stroke-width="1"><g id="编组" stroke="#5a56ff" stroke-width="50" transform="matrix(0.945519,-0.325568,0.325568,0.945519,217.98,209.111)"><path id="矩形备份" fill="none" stroke="url(#wps{8df04b10-bf8a-49cc-8a7b-bfd29ec53d72}_solid@Accent2_0.00@Accent2_0.00)" stroke-width="49.7778" stroke-opacity="1" d="M 1.98715 52.3405 C 68.7193 28.0958 139.878 15.9735 215.463 15.9735 C 328.84 15.9735 434.717 72.8786 582.214 52.3405 C 582.214 76.9568 582.987 346.458 582.987 403.997 C 434.717 444.981 330.041 367.63 219.35 367.63 C 145.556 367.63 73.1016 379.752 1.98715 403.997 L 1.98715 52.3405 Z"/><line id="直线" fill="none" stroke="url(#wps{8df04b10-bf8a-49cc-8a7b-bfd29ec53d72}_solid@Accent2_0.00@Accent2_0.00)" stroke-width="49.7778" stroke-opacity="1" x1="1.5" y1="1.25" x2="1.47163" y2="689.958"/></g><path id="路径" fill="none" stroke="url(#wps{8df04b10-bf8a-49cc-8a7b-bfd29ec53d72}_solid@Accent2_0.00@Accent2_0.00)" stroke-width="49.7778" stroke-opacity="1" d="M 335.816 799.433 C 276.046 812.986 236 837.848 236 866.273 C 236 909.2 327.334 944 440 944 C 552.666 944 644 909.2 644 866.273 C 644 835.591 597.341 809.061 529.584 796.422"/></g></g></svg>
