<?xml version="1.0" encoding="UTF-8" standalone="yes"?><svg xmlns="http://www.w3.org/2000/svg" xmlns:xlink="http://www.w3.org/1999/xlink" version="1.2" baseProfile="tiny" x="0" y="0" width="256" height="256" viewBox="0 0 256 256"><defs/><defs/><defs/><defs/><defs/><defs/><defs/><g transform="matrix(0.273253,0,0,0.273253,-8.98744,-20.2207)"><g id="联系" fill="none" fill-rule="evenodd" stroke="none" stroke-width="1"><path id="路径-5" fill="none" stroke="#ffffff" stroke-width="49.7778" stroke-opacity="1" d="M 235.692 165.818 L 351.485 297.713 C 369.856 318.638 373.118 348.842 359.638 373.206 C 340.494 407.81 305.4 425.113 254.356 425.113 C 235.268 487.689 254.356 590.266 345 682.24 C 435.644 774.213 613.728 823.515 635.698 774.389 C 647.147 741.913 659.023 717.763 671.326 701.938 C 686.581 682.318 714.852 678.779 734.473 694.033 C 735.126 694.541 735.765 695.067 736.39 695.61 L 844.961 790.075 C 881.21 821.614 885.028 876.567 853.489 912.816 C 845.21 922.331 834.961 929.933 823.452 935.094 C 609.546 1031.01 414.53 991.232 238.404 815.751 C 37.8978 615.978 9.83441 401.489 154.214 172.283 C 169.226 148.45 200.716 141.3 224.549 156.313 C 228.701 158.929 232.455 162.13 235.692 165.818 Z"/><path id="路径" fill="none" stroke="#ffffff" stroke-width="49.7778" stroke-opacity="1" d="M 659 499 C 659 432.726 605.274 379 539 379"/><path id="路径" fill="none" stroke="#ffffff" stroke-width="49.7778" stroke-opacity="1" d="M 799 499 C 799 355.406 682.594 239 539 239"/><path id="路径" fill="none" stroke="#ffffff" stroke-width="49.7778" stroke-opacity="1" d="M 939 499 C 939 278.086 759.914 99 539 99"/></g></g></svg>
