<?xml version="1.0" encoding="UTF-8" standalone="yes"?><svg id="图层_1" xmlns="http://www.w3.org/2000/svg" xmlns:xlink="http://www.w3.org/1999/xlink" version="1.2" baseProfile="tiny" x="0" y="0" width="256" height="256" viewBox="0 0 256 256"><defs/><defs/><defs/><defs/><defs/><defs/><defs/><g transform="matrix(0.381179,0,0,0.381179,-62.5369,-69.5271)"><g><g><rect fill="#52717b" fill-opacity="1" stroke="none" x="297.5" y="458.8" width="42" height="374.2"/></g><g><path fill="#52717b" fill-opacity="1" stroke="none" d="M 679.1 854 L 260.7 854 C 228.5 854 202.3 827.8 202.3 795.6 L 202.3 496.2 C 202.3 464 228.5 437.8 260.7 437.8 L 316.8 437.8 C 322.2 437.7 419.9 433.1 452.9 214.5 C 455.6 196.3 470.9 182.5 488.4 182.5 L 496.2 182.4 C 509.6 182.4 537.4 182.4 556.3 206.6 C 582.8 240.7 581 310.6 550.2 433.2 C 550.4 434.7 550.9 436.5 551.4 437.1 C 551.5 437.2 552.8 437.8 555.8 437.8 L 739 437.8 C 756.6 437.8 773 445.6 784.2 459.2 C 795.3 472.8 799.7 490.5 796.3 507.7 L 736.4 807 C 730.9 834.2 706.8 854 679.1 854 M 260.7 479.7 C 251.6 479.7 244.3 487.1 244.3 496.1 L 244.3 795.5 C 244.3 804.6 251.7 811.9 260.7 811.9 L 679.1 811.9 C 686.9 811.9 693.7 806.3 695.2 798.7 L 755.1 499.3 C 756.4 492.7 753.5 487.9 751.7 485.7 C 749.9 483.4 745.8 479.7 739 479.7 L 555.9 479.7 C 537.7 479.7 526.8 472 520.8 465.6 C 507.5 451.3 508.1 432.6 508.4 429.1 L 509 425.5 C 544.1 286.6 533 244.9 523.3 232.4 C 518.6 226.4 511.8 224.4 496.3 224.4 L 493.9 224.4 C 456.6 464.6 341.7 479.3 319 479.7 L 260.7 479.7"/></g></g></g></svg>
