<?xml version="1.0" encoding="UTF-8" standalone="yes"?><svg id="图层_1" xmlns="http://www.w3.org/2000/svg" xmlns:xlink="http://www.w3.org/1999/xlink" version="1.2" baseProfile="tiny" x="0" y="0" width="1024" height="1024" viewBox="0 0 1024 1024"><defs/><defs/><defs/><defs/><defs/><defs/><defs/><g id="Layer_1"><path fill="#52717b" fill-opacity="1" d="M 913.869 186.174 L 885.431 186.174 L 885.431 123.858 C 885.455 120.079 883.964 116.449 881.292 113.777 C 878.62 111.105 874.99 109.614 871.211 109.638 C 634.663 109.638 540.782 163.604 511.911 185.789 C 483.044 163.604 389.377 109.638 152.611 109.638 C 148.866 109.659 145.283 111.171 142.655 113.839 C 140.027 116.508 138.569 120.113 138.605 123.858 L 138.605 186.174 L 110.174 186.174 C 75.3041 186.224 47.049 214.479 47 249.349 L 47 851.231 C 47.0677 886.086 75.319 914.318 110.174 914.362 L 726.49 914.362 C 730.271 914.394 733.906 912.906 736.58 910.232 C 739.254 907.559 740.741 903.923 740.709 900.142 C 740.623 892.325 734.307 886.009 726.49 885.923 L 557.913 885.923 C 581.127 874.231 617.313 860.439 671.498 849.946 C 679.075 848.406 683.986 841.036 682.49 833.45 C 680.993 825.864 673.651 820.911 666.057 822.364 C 593.076 836.583 549.99 856.67 526.134 871.7 L 526.134 735.763 C 563.567 733.707 600.786 721.543 634.064 699.828 L 663.317 729.081 L 657.449 735.381 C 654.745 738.008 653.242 741.633 653.295 745.403 C 653.404 749.14 654.882 752.708 657.449 755.426 L 791.933 889.696 C 802.993 900.93 818.099 907.256 833.864 907.256 C 849.628 907.256 864.734 900.93 875.794 889.696 L 888.557 876.718 C 911.771 853.718 911.771 816.501 888.557 793.073 L 754.073 658.412 C 748.498 652.972 739.603 652.972 734.028 658.412 L 727.947 664.666 L 698.647 634.985 C 756.167 547.141 744.86 432.145 669.78 357.236 C 629.863 317.104 578.425 296.204 526.13 292.863 L 526.13 210.463 C 542.448 196.629 621.897 140.18 857.159 137.695 L 857.159 705.654 C 857.159 713.46 863.487 719.788 871.293 719.788 C 879.099 719.788 885.427 713.46 885.427 705.654 L 885.427 214.228 L 913.865 214.228 C 933.171 214.363 948.755 230.043 948.771 249.349 L 948.771 851.231 C 948.747 859.107 946.094 866.749 941.233 872.946 C 938.899 875.847 937.83 879.563 938.265 883.261 C 938.7 886.958 940.603 890.325 943.546 892.605 C 949.413 897.658 958.408 896.373 963.205 890.548 C 972.04 879.337 976.893 865.505 977 851.231 L 977 249.349 C 976.896 214.519 948.699 186.302 913.869 186.174 M 166.837 137.691 C 399.83 140.176 481.163 196.625 497.695 210.891 L 497.695 292.867 C 446.043 296.593 395.418 317.537 355.886 357.24 C 269.328 443.84 269.328 584.365 355.886 670.966 C 393.859 708.867 444.186 731.864 497.695 735.766 L 497.695 871.7 C 458.164 846.6 363.853 806.9 166.837 805.186 L 166.837 137.691 M 110.174 885.923 C 90.9518 885.99 75.3193 870.453 75.268 851.231 L 75.268 249.349 C 75.284 230.043 90.8681 214.363 110.174 214.228 L 138.612 214.228 L 138.612 819.028 C 138.576 822.773 140.034 826.378 142.662 829.047 C 145.29 831.715 148.873 833.227 152.618 833.248 C 328.518 833.248 421.373 863.785 465.702 885.928 L 110.174 885.923 M 868.685 813.156 C 880.805 825.28 880.805 844.932 868.685 857.056 L 855.707 870.033 C 849.927 875.852 842.065 879.124 833.863 879.124 C 825.662 879.124 817.8 875.852 812.02 870.033 L 687.173 745.4 L 715.611 716.962 L 737.969 694.39 L 744.05 688.522 L 868.685 813.156 M 668.97 628.3 C 664.779 633.923 665.402 641.781 670.426 646.674 L 708.074 684.321 L 695.738 696.871 L 683.4 709.422 L 645.539 671.775 C 643.005 669.063 639.44 667.554 635.73 667.621 C 632.748 667.604 629.828 668.469 627.336 670.105 C 549.772 727.411 443.936 719.059 375.969 650.875 C 300.29 575.58 300.29 452.617 375.969 376.894 C 451.478 301.643 574.441 301.643 649.95 376.894 C 717.925 445.079 726.062 550.91 668.97 628.3"/><path fill="#52717b" fill-opacity="1" d="M 227.7 252.689 C 290.871 256.03 346.507 264 393.149 276.545 C 394.364 276.863 395.62 276.993 396.874 276.93 C 403.945 276.964 409.934 271.724 410.838 264.71 C 411.742 257.697 407.278 251.109 400.429 249.349 C 351.946 236.371 294.429 228.019 229.368 224.249 C 221.445 224.249 214.935 230.117 214.549 237.655 C 214.143 245.399 219.971 252.061 227.7 252.689 Z"/><path fill="#52717b" fill-opacity="1" d="M 227.7 351.411 C 251.771 352.653 274.769 354.323 296.528 357.236 L 298.198 357.236 C 305.371 357.137 311.404 351.831 312.417 344.729 C 313.22 336.987 307.608 330.055 299.868 329.229 C 277.682 326.317 253.868 324.218 229.368 322.976 C 225.617 322.727 221.925 324.007 219.133 326.524 C 216.341 329.042 214.688 332.582 214.549 336.339 C 214.121 344.3 219.988 350.555 227.7 351.411 Z"/><path fill="#52717b" fill-opacity="1" d="M 227.7 449.7 C 236.266 450.086 244.446 450.942 252.584 451.37 L 253.441 451.37 C 261.034 451.479 267.339 445.533 267.674 437.946 C 268.01 430.36 262.255 423.88 254.682 423.318 C 246.545 422.504 237.936 422.076 229.37 421.647 C 225.623 421.442 221.949 422.744 219.166 425.261 C 216.383 427.779 214.722 431.304 214.551 435.053 C 213.907 442.6 219.988 449.276 227.7 449.7 Z"/><path fill="#52717b" fill-opacity="1" d="M 227.7 548.384 C 233.568 548.812 239.221 549.24 244.874 549.669 L 245.9 549.669 C 253.369 549.585 259.492 543.721 259.9 536.263 C 260.168 532.589 258.942 528.962 256.499 526.204 C 254.056 523.446 250.604 521.792 246.924 521.615 C 241.099 521.23 235.231 520.801 229.149 520.373 C 221.461 520.044 214.943 525.972 214.544 533.657 C 214.144 541.342 220.012 547.914 227.693 548.384 L 227.7 548.384 Z"/><path fill="#52717b" fill-opacity="1" d="M 276.867 622.436 C 261.576 621.194 245.473 619.909 229.154 619.095 C 221.654 618.238 214.935 624.535 214.554 632.458 C 214.174 640.121 220.041 646.658 227.7 647.106 C 243.59 647.962 259.308 649.206 273.913 650.875 L 275.413 650.875 C 282.766 650.902 288.884 645.231 289.413 637.897 C 290.144 630.185 284.564 623.309 276.867 622.436 Z"/><path fill="#52717b" fill-opacity="1" d="M 415.291 416.64 C 361.326 470.177 361.326 558.02 415.291 611.557 C 441.163 637.522 476.309 652.117 512.964 652.117 C 549.619 652.117 584.765 637.522 610.637 611.557 C 664.387 558.02 664.387 470.177 610.637 416.64 C 556.671 362.675 469.043 362.675 415.291 416.64 M 590.55 436.3 C 627.575 473.367 633.259 531.427 604.126 574.971 C 574.992 618.515 519.155 635.413 470.766 615.332 C 422.376 595.25 394.911 543.782 405.169 492.405 C 415.428 441.028 460.551 404.052 512.942 404.093 C 542.05 404.158 569.949 415.736 590.55 436.3"/><path fill="#52717b" fill-opacity="1" d="M 794.675 224.25 C 729.617 228.019 672.097 236.371 623.575 249.35 C 616.747 251.129 612.306 257.707 613.208 264.706 C 614.11 271.704 620.074 276.941 627.13 276.931 C 628.328 276.996 629.529 276.866 630.685 276.546 C 677.54 263.996 733.176 256.031 796.135 252.69 C 804.059 251.876 809.926 245.58 809.498 237.657 C 809.066 230.118 802.813 224.25 794.675 224.25 Z"/><path fill="#52717b" fill-opacity="1" d="M 794.675 322.972 C 770.175 324.214 746.363 326.313 723.963 329.225 C 716.298 330.138 710.797 337.051 711.629 344.725 C 712.543 351.792 718.504 357.118 725.629 357.232 L 727.3 357.232 C 749.057 354.319 772.271 352.649 796.127 351.407 C 804.051 350.551 809.918 344.297 809.49 336.331 C 809.066 328.411 802.813 322.972 794.675 322.972 Z"/><path fill="#52717b" fill-opacity="1" d="M 794.675 421.651 C 785.852 422.08 777.501 422.508 769.149 423.322 C 761.396 423.75 755.743 430.859 756.171 438.398 C 756.787 445.777 762.986 451.434 770.39 451.374 L 771.461 451.374 C 779.385 450.946 787.737 450.09 796.345 449.704 C 804.092 449.243 809.998 442.589 809.537 434.843 C 809.075 427.096 802.422 421.19 794.675 421.651 Z"/><path fill="#52717b" fill-opacity="1" d="M 794.675 520.373 C 788.807 520.801 782.726 521.23 777.075 521.615 C 773.402 521.801 769.959 523.46 767.525 526.217 C 765.091 528.974 763.871 532.595 764.141 536.263 C 764.507 543.659 770.529 549.512 777.932 549.669 L 778.96 549.669 C 784.613 549.24 790.48 548.812 796.134 548.384 C 799.845 548.226 803.341 546.597 805.849 543.857 C 808.356 541.116 809.669 537.49 809.497 533.779 C 809.074 525.999 802.458 520.016 794.675 520.373 Z"/></g></svg>
