<?xml version="1.0" encoding="UTF-8" standalone="yes"?><svg id="图层_1" xmlns="http://www.w3.org/2000/svg" xmlns:xlink="http://www.w3.org/1999/xlink" version="1.2" baseProfile="tiny" x="0" y="0" width="1024" height="1024" viewBox="0 0 1024 1024"><defs/><defs/><defs/><defs/><defs/><defs/><defs/><g id="Layer_1"><path fill="#52717b" fill-opacity="1" d="M 976.272 967.408 C 976.695 965.903 976.911 964.347 976.914 962.783 L 976.914 510.33 C 976.88 509.346 976.736 508.37 976.486 507.418 L 976.486 506.562 C 975.965 504.959 975.261 503.421 974.386 501.98 C 974.386 501.98 974.172 501.98 974.172 501.552 C 973.958 501.552 973.787 501.123 973.572 501.123 C 972.631 500.243 971.645 499.415 970.616 498.64 C 970.231 498.211 970.016 498.211 969.589 497.783 L 969.161 497.783 C 967.987 496.982 966.6 496.55 965.178 496.542 C 964.943 496.219 964.547 496.053 964.151 496.113 C 962.809 496.043 961.464 496.188 960.168 496.542 L 958.926 496.542 C 957.471 497.355 955.8 497.783 954.301 498.642 L 660.762 719 L 520.479 613.616 C 515.454 609.848 508.546 609.848 503.521 613.616 L 363.238 719 L 84.726 510.33 L 193.45 428.8 C 199.702 424.175 200.987 414.968 196.15 409.145 C 193.94 406.14 190.625 404.139 186.936 403.584 C 183.247 403.03 179.49 403.967 176.494 406.19 L 52.738 498.64 C 52.738 499.026 52.524 499.026 52.524 499.026 C 51.0551 500.326 49.8487 501.896 48.97 503.65 C 48.7347 503.862 48.5829 504.15 48.542 504.464 C 47.6289 506.288 47.1316 508.291 47.086 510.33 L 47.086 962.783 C 47.0639 964.362 47.3397 965.931 47.899 967.408 L 48.113 967.836 C 48.328 968.65 48.542 968.65 48.97 969.507 C 49.4515 970.383 50.0104 971.214 50.64 971.99 C 51.069 972.846 51.454 972.846 51.882 973.274 C 52.8306 974.01 53.8166 974.696 54.836 975.33 C 55.221 975.33 55.651 975.758 56.079 975.758 C 57.6244 976.57 59.3433 976.996 61.089 977 L 962.912 977 C 964.658 976.996 966.377 976.57 967.922 975.758 C 968.35 975.758 968.736 975.33 969.164 975.33 C 970.177 974.706 971.149 974.02 972.076 973.274 C 972.504 972.846 972.932 972.846 973.36 971.99 C 973.96 971.177 974.602 970.32 975.244 969.507 C 975.458 968.65 975.629 968.65 975.844 967.836 C 975.844 967.836 976.058 967.408 976.272 967.408 M 948.866 538.335 L 948.866 934.778 L 684.186 736.557 L 948.866 538.335 M 339.815 736.557 L 75.305 934.778 L 75.305 538.335 L 339.815 736.557 M 103.525 948.567 L 512.086 642.478 L 920.432 948.567 L 103.525 948.567"/><path fill="#52717b" fill-opacity="1" d="M 298.62 465.153 L 349.02 465.153 L 349.02 550.453 C 349.169 555.711 352.106 560.491 356.729 563 C 358.765 563.993 360.977 564.575 363.238 564.714 C 366.176 564.522 368.998 563.497 371.374 561.759 L 507.718 465.153 L 920.646 465.153 C 951.606 465.153 976.914 439.675 976.914 408.715 L 976.914 103.44 C 976.914 72.48 951.606 47 920.646 47 L 298.62 47 C 267.48 47.0731 242.254 72.2995 242.181 103.44 L 242.181 408.715 C 242.254 439.855 267.48 465.081 298.62 465.153 M 270.4 103.44 C 270.415 95.9797 273.4 88.8324 278.695 83.5773 C 283.99 78.3223 291.16 75.392 298.62 75.434 L 920.646 75.434 C 936.159 75.4073 948.775 87.9272 948.866 103.44 L 948.866 408.715 C 948.772 424.226 936.157 436.742 920.646 436.715 L 503.307 436.715 C 500.397 436.684 497.551 437.568 495.171 439.242 L 377.24 522.877 L 377.24 450.936 C 377.276 447.192 375.819 443.588 373.192 440.92 C 370.565 438.253 366.984 436.741 363.24 436.719 L 298.62 436.719 C 291.161 436.761 283.992 433.832 278.697 428.578 C 273.402 423.324 270.417 416.178 270.401 408.719 L 270.4 103.44"/><path fill="#52717b" fill-opacity="1" d="M 736.471 171.611 L 863.18 171.611 C 870.92 171.431 877.119 165.136 877.18 157.394 C 877.223 153.648 875.769 150.04 873.14 147.371 C 870.512 144.701 866.926 143.192 863.18 143.177 L 736.471 143.177 C 732.684 143.137 729.04 144.62 726.359 147.294 C 723.677 149.968 722.182 153.607 722.211 157.394 C 722.302 165.224 728.64 171.543 736.471 171.611 Z"/><path fill="#52717b" fill-opacity="1" d="M 355.916 171.611 L 651.77 171.611 C 659.518 171.449 665.727 165.144 665.77 157.394 C 665.821 153.646 664.369 150.033 661.739 147.362 C 659.108 144.691 655.519 143.184 651.77 143.177 L 355.916 143.177 C 352.168 143.184 348.578 144.692 345.948 147.363 C 343.318 150.033 341.866 153.646 341.916 157.394 C 341.959 165.144 348.168 171.449 355.916 171.611 Z"/><path fill="#52717b" fill-opacity="1" d="M 863.18 241.839 L 553.28 241.839 C 549.502 241.815 545.872 243.305 543.2 245.976 C 540.529 248.648 539.039 252.278 539.063 256.056 C 539.146 263.88 545.456 270.209 553.28 270.315 L 863.18 270.315 C 870.888 270.315 877.18 263.592 877.18 256.056 C 877.216 252.312 875.759 248.708 873.132 246.04 C 870.505 243.372 866.924 241.861 863.18 241.839 Z"/><path fill="#52717b" fill-opacity="1" d="M 355.916 270.315 L 468.622 270.315 C 476.414 270.134 482.681 263.848 482.839 256.056 C 482.813 248.215 476.463 241.865 468.622 241.839 L 355.916 241.839 C 352.17 241.853 348.584 243.363 345.955 246.032 C 343.327 248.701 341.873 252.31 341.916 256.056 C 341.913 263.592 348.164 270.315 355.916 270.315 Z"/><path fill="#52717b" fill-opacity="1" d="M 355.916 368.976 L 750.474 368.976 C 758.214 368.796 764.413 362.501 764.474 354.759 C 764.51 351.015 763.053 347.411 760.426 344.743 C 757.799 342.076 754.218 340.564 750.474 340.542 L 355.916 340.542 C 352.17 340.557 348.584 342.066 345.956 344.736 C 343.327 347.405 341.873 351.013 341.916 354.759 C 341.959 362.509 348.168 368.814 355.916 368.976 Z"/></g></svg>
