<?xml version="1.0" encoding="UTF-8" standalone="yes"?><svg xmlns="http://www.w3.org/2000/svg" xmlns:xlink="http://www.w3.org/1999/xlink" version="1.2" baseProfile="tiny" x="0" y="0" width="256" height="256" viewBox="0 0 256 256"><defs/><defs/><defs/><defs/><defs/><defs/><defs/><defs/><defs/><g transform="matrix(9.15104,0,0,9.15104,-18.4428,-13.794)"><g id="Page-1" fill="none" fill-rule="evenodd" stroke="none" stroke-width="1"><g id="分组-117" fill="#262626" fill-rule="nonzero" transform="matrix(1,0,0,1,-191,-254)"><g id="kehu" transform="matrix(1,0,0,1,193,256)"><path id="形状" fill="#f15b0a" fill-opacity="1" d="M 21.168 21.1162 C 19.9593 18.8379 17.7386 17.6498 15.2368 16.6573 C 14.8573 16.5036 14.7027 16.0703 14.8855 15.7208 L 14.8855 15.7068 L 14.9276 15.623 C 16.038 14.0854 17.0077 12.1425 17.1483 9.65448 C 17.4153 6.80302 16.3331 4.79022 14.8292 3.28062 C 14.6184 3.07096 14.5622 2.74947 14.7027 2.48389 C 15.4195 1.16998 16.5299 0.135628 18.5538 0.00982811 C 21.6459 -0.129949 23.3325 1.82694 23.6136 4.34293 C 24.0352 7.13848 23.0514 9.37492 21.927 10.7727 C 21.7864 11.0523 21.5053 11.192 21.3648 11.4716 C 21.2523 11.6952 21.2242 12.2124 21.3085 12.5479 C 21.3367 12.6877 21.4069 12.7995 21.5194 12.8973 C 21.9129 13.2328 22.714 13.4704 23.206 13.722 C 23.9087 14.0016 24.4709 14.2811 25.0331 14.5607 C 26.1575 15.1198 27.4224 15.9584 27.8441 17.0767 C 28.1252 17.7756 27.9846 19.1733 27.563 19.7324 C 26.6494 21.0324 24.0211 21.242 21.8567 21.4936 C 21.5756 21.5076 21.3085 21.3678 21.168 21.1162 M 0.0153725 23.9118 L 0.0153725 22.9333 C 0.0153725 22.6538 0.155922 22.3742 0.296471 22.0947 C 0.844612 20.9904 1.95495 20.2916 2.92474 19.6066 C 2.95285 19.5927 2.98096 19.5647 3.00907 19.5507 C 3.83831 19.1454 4.66755 18.726 5.63733 18.3207 C 5.87627 18.2089 6.21358 18.0831 6.48063 17.9712 C 6.57901 17.9293 6.66334 17.8734 6.71956 17.7895 C 7.12715 17.3003 7.56285 16.2939 7.16932 15.5251 C 7.02877 15.2456 6.88822 15.1058 6.62118 14.8402 L 6.59307 14.8123 C 5.32813 13.4145 4.21779 11.0383 4.49889 8.2567 C 4.77998 5.46115 6.60712 3.50427 9.6992 3.50427 C 12.7772 3.50427 14.6044 5.44717 15.0401 8.22875 C 15.0401 8.2567 15.0401 8.27068 15.0541 8.29864 C 15.1806 9.96199 14.773 11.4856 14.3514 12.464 C 13.9438 13.4285 13.5221 14.1134 12.974 14.7983 C 12.9459 14.8262 12.9318 14.8542 12.9178 14.8822 C 12.7772 15.1058 12.5523 15.2456 12.4118 15.4692 C 12.3837 15.5112 12.3696 15.5531 12.3556 15.609 C 12.1166 16.4337 12.3837 17.51 12.6648 17.9153 C 12.8053 18.1809 13.3394 18.1949 13.7611 18.3207 C 13.7892 18.3347 13.8032 18.3347 13.8313 18.3486 C 15.5039 19.0475 17.1624 19.8722 18.4132 20.9765 C 18.4273 20.9904 18.4413 21.0044 18.4554 21.0044 C 18.8208 21.3678 19.2987 21.8571 19.4955 22.528 C 19.5376 22.6817 19.5517 22.8495 19.5517 23.0032 L 19.5517 24.0935 C 19.5517 24.1634 19.5376 24.2333 19.5236 24.2892 C 19.0457 25.7429 17.1202 26.1622 15.3352 26.5676 C 12.2431 27.1267 7.88612 27.1267 4.65349 26.5676 C 3.10745 26.288 1.42086 25.8687 0.577569 24.8902 C 0.296471 24.7505 0.155922 24.4709 0.0153725 23.9118"/></g></g><g id="IIIII-Copy-15" transform="matrix(1,0,0,1,-192,-256)"/></g></g></svg>
