<?xml version="1.0" encoding="UTF-8" standalone="yes"?><svg xmlns="http://www.w3.org/2000/svg" xmlns:xlink="http://www.w3.org/1999/xlink" version="1.2" baseProfile="tiny" x="0" y="0" width="256" height="256" viewBox="0 0 256 256"><defs><linearGradient id="wps{3fcfdf53-2172-49d6-89fd-d4cf437d300f}_solid@Accent2_0.00@Accent2_0.00" x1="0" y1="0.5" x2="1" y2="0.5" spreadMethod="pad" gradientUnits="userSpaceOnUse"><stop offset="0" stop-color="#a9c683" stop-opacity="1"/><stop offset="1" stop-color="#a9c683" stop-opacity="1"/></linearGradient></defs><defs/><defs/><defs/><defs/><defs/><defs/><defs/><defs/><defs/><g transform="matrix(0.280699,0,0,0.280699,-15.9998,-15.6029)"><g id="目标" fill="none" fill-rule="evenodd" stroke="none" stroke-width="1"><path id="路径" fill="none" stroke="url(#wps{3fcfdf53-2172-49d6-89fd-d4cf437d300f}_solid@Accent2_0.00@Accent2_0.00)" stroke-width="49.7778" stroke-opacity="1" d="M 632.46 99.1011 C 594.238 87.9689 553.816 82 512 82 C 274.518 82 82 274.518 82 512 C 82 749.482 274.518 942 512 942 C 749.482 942 942 749.482 942 512 C 942 476.526 937.704 442.054 929.605 409.078"/><path id="路径" fill="none" stroke="url(#wps{3fcfdf53-2172-49d6-89fd-d4cf437d300f}_solid@Accent2_0.00@Accent2_0.00)" stroke-width="49.7778" stroke-opacity="1" d="M 512 312 C 401.543 312 312 401.543 312 512 C 312 622.457 401.543 712 512 712 C 622.457 712 712 622.457 712 512"/><g id="编组" stroke="#5a56ff" stroke-width="50" transform="matrix(0.707107,-0.707107,0.707107,0.707107,452.73,426.106)"><polygon id="矩形" fill="none" stroke="url(#wps{3fcfdf53-2172-49d6-89fd-d4cf437d300f}_solid@Accent2_0.00@Accent2_0.00)" stroke-width="49.7778" stroke-opacity="1" points="253.318,0.353553 498.641,0.505104 433.217,107.149 498.641,206.505 253.318,206.354 160.062,104.78"/><line id="直线" fill="none" stroke="url(#wps{3fcfdf53-2172-49d6-89fd-d4cf437d300f}_solid@Accent2_0.00@Accent2_0.00)" stroke-width="49.7778" stroke-opacity="1" x1="0.5" y1="103.5" x2="160.072" y2="103.354"/></g></g></g></svg>
