<?xml version="1.0" encoding="UTF-8" standalone="yes"?><svg xmlns="http://www.w3.org/2000/svg" xmlns:xlink="http://www.w3.org/1999/xlink" version="1.2" baseProfile="tiny" x="0" y="0" width="256" height="256" viewBox="0 0 256 256"><defs><linearGradient id="wps{b3d7c792-e90d-4c05-9828-b0d946883636}_solid@Accent2_0.00@Accent2_0.00" x1="0" y1="0.5" x2="1" y2="0.5" spreadMethod="pad" gradientUnits="userSpaceOnUse"><stop offset="0" stop-color="#a9c683" stop-opacity="1"/><stop offset="1" stop-color="#a9c683" stop-opacity="1"/></linearGradient></defs><defs/><defs/><defs/><defs/><defs/><defs/><defs/><defs/><defs/><g transform="matrix(0.275269,0,0,0.275269,-12.9376,-17.7817)"><g id="下降" fill="none" fill-rule="evenodd" stroke="none" stroke-width="1"><rect id="矩形备份-2" fill="none" stroke="url(#wps{b3d7c792-e90d-4c05-9828-b0d946883636}_solid@Accent2_0.00@Accent2_0.00)" stroke-width="49.7778" stroke-opacity="1" x="72" y="141" width="880" height="620" rx="39.6" ry="37.2"/><line id="直线备份-2" fill="none" stroke="url(#wps{b3d7c792-e90d-4c05-9828-b0d946883636}_solid@Accent2_0.00@Accent2_0.00)" stroke-width="49.7778" stroke-opacity="1" x1="353.5" y1="775.375" x2="244" y2="908"/><line id="直线备份-3" fill="none" stroke="url(#wps{b3d7c792-e90d-4c05-9828-b0d946883636}_solid@Accent2_0.00@Accent2_0.00)" stroke-width="49.7778" stroke-opacity="1" transform="matrix(-1,0,0,1,1452,0)" x1="780.5" y1="775.375" x2="671" y2="908"/><polyline id="路径-2备份" fill="none" stroke="url(#wps{b3d7c792-e90d-4c05-9828-b0d946883636}_solid@Accent2_0.00@Accent2_0.00)" stroke-width="49.7778" stroke-opacity="1" transform="matrix(1,0,0,-1,0,911)" points="228,586 384.547,438.6 566.74,537.853 779,325"/><polyline id="路径-3备份" fill="none" stroke="url(#wps{b3d7c792-e90d-4c05-9828-b0d946883636}_solid@Accent2_0.00@Accent2_0.00)" stroke-width="49.7778" stroke-opacity="1" transform="matrix(1,0,0,-1,0,1099.01)" points="675,512.436 792.676,492 784.676,607.012"/></g></g></svg>
