<?xml version='1.0' encoding='utf-8'?>
<svg xmlns="http://www.w3.org/2000/svg" version="1.1" width="1280" height="720" viewBox="0 0 1280 720"><defs><linearGradient id="ggrad1" x1="0" y1="0.5" x2="1" y2="0.5"><stop offset="0" stop-color="#DE7463" /><stop offset="1" stop-color="#A13422" /></linearGradient><filter id="fx1" x="-25%" y="-25%" width="150%" height="150%"><feDropShadow dx="0" dy="8" stdDeviation="8.67" flood-color="#A13422" flood-opacity="0.4" /></filter><linearGradient id="ggrad2" x1="0" y1="0.5" x2="1" y2="0.5"><stop offset="0" stop-color="#5088D3" /><stop offset="1" stop-color="#1D4273" /></linearGradient><filter id="fx2" x="-25%" y="-25%" width="150%" height="150%"><feDropShadow dx="0" dy="8" stdDeviation="8.67" flood-color="#1D4273" flood-opacity="0.4" /></filter><linearGradient id="ggrad3" x1="0" y1="0.5" x2="1" y2="0.5"><stop offset="0" stop-color="#DE7463" stop-opacity="0.7" /><stop offset="0.54" stop-color="#A13422" stop-opacity="0.7" /></linearGradient><filter id="fx3" x="-25%" y="-25%" width="150%" height="150%"><feDropShadow dx="0" dy="30.67" stdDeviation="16" flood-color="#1D4273" flood-opacity="0.4" /></filter><filter id="fx4" x="-25%" y="-25%" width="150%" height="150%"><feDropShadow dx="0" dy="30.67" stdDeviation="16" flood-color="#1D4273" flood-opacity="0.4" /></filter><linearGradient id="ggrad4" x1="0" y1="0.5" x2="1" y2="0.5"><stop offset="0.51" stop-color="#C5D7F0" /><stop offset="1" stop-color="#C5D7F0" stop-opacity="0" /></linearGradient><linearGradient id="ggrad5" x1="0" y1="0.5" x2="1" y2="0.5"><stop offset="0" stop-color="#5088D3" /><stop offset="1" stop-color="#1D4273" /></linearGradient><linearGradient id="ggrad6" x1="0" y1="0.5" x2="1" y2="0.5"><stop offset="0.51" stop-color="#F4D1CB" /><stop offset="1" stop-color="#F4D1CB" stop-opacity="0" /></linearGradient><linearGradient id="ggrad7" x1="0" y1="0.5" x2="1" y2="0.5"><stop offset="0" stop-color="#DE7463" /><stop offset="1" stop-color="#A13422" /></linearGradient><linearGradient id="ggrad8" x1="0" y1="0.5" x2="1" y2="0.5"><stop offset="0.51" stop-color="#C5D7F0" /><stop offset="1" stop-color="#C5D7F0" stop-opacity="0" /></linearGradient><linearGradient id="ggrad9" x1="0" y1="0.5" x2="1" y2="0.5"><stop offset="0" stop-color="#5088D3" /><stop offset="1" stop-color="#1D4273" /></linearGradient><linearGradient id="ggrad10" x1="0" y1="0.5" x2="1" y2="0.5"><stop offset="0.51" stop-color="#C5D7F0" /><stop offset="1" stop-color="#C5D7F0" stop-opacity="0" /></linearGradient><linearGradient id="ggrad11" x1="0" y1="0.5" x2="1" y2="0.5"><stop offset="0" stop-color="#5088D3" /><stop offset="1" stop-color="#1D4273" /></linearGradient><linearGradient id="ggrad12" x1="0" y1="0.5" x2="1" y2="0.5"><stop offset="0.51" stop-color="#C5D7F0" /><stop offset="1" stop-color="#C5D7F0" stop-opacity="0" /></linearGradient><linearGradient id="ggrad13" x1="0" y1="0.5" x2="1" y2="0.5"><stop offset="0" stop-color="#5088D3" /><stop offset="1" stop-color="#1D4273" /></linearGradient><linearGradient id="ggrad14" x1="0" y1="0.5" x2="1" y2="0.5"><stop offset="0.51" stop-color="#F4D1CB" /><stop offset="1" stop-color="#F4D1CB" stop-opacity="0" /></linearGradient><linearGradient id="ggrad15" x1="0" y1="0.5" x2="1" y2="0.5"><stop offset="0" stop-color="#DE7463" /><stop offset="1" stop-color="#A13422" /></linearGradient><linearGradient id="ggrad16" x1="0" y1="0.5" x2="1" y2="0.5"><stop offset="0.51" stop-color="#C5D7F0" /><stop offset="1" stop-color="#C5D7F0" stop-opacity="0" /></linearGradient><linearGradient id="ggrad17" x1="0" y1="0.5" x2="1" y2="0.5"><stop offset="0" stop-color="#5088D3" /><stop offset="1" stop-color="#1D4273" /></linearGradient></defs><rect x="0" y="0" width="1280" height="720" fill="#FFFFFF" />
<g id="shape-3" data-name="小红书平北职场PPT1">
<rect x="35.17" y="89.44" width="1209.67" height="437.6" fill="#F2F2F2" stroke-width="2.333" stroke="none" />
</g>
<g id="shape-4" data-name="小红书平北职场PPT2">
<g id="shape-89" data-name="组合 88">
<g id="shape-114" data-name="小红书平北职场PPT2-1">
<rect x="36.92" y="552.25" width="595.74" height="122.92" rx="0" ry="0" fill="url(#ggrad1)" stroke-width="1" stroke="none" stroke-linejoin="round" filter="url(#fx1)" />
</g>
<g id="shape-115" data-name="小红书平北职场PPT2-2">
<rect x="650.85" y="552.25" width="595.74" height="122.92" rx="0" ry="0" fill="url(#ggrad2)" stroke-width="1" stroke="none" stroke-linejoin="round" filter="url(#fx2)" />
</g>
</g>
<g id="shape-90" data-name="组合 89">
<g id="shape-108" data-name="小红书平北职场PPT2-3">
<rect x="55.42" y="564.66" width="127.47" height="35.54" fill="none" />
<text x="119.15" y="587.59" text-anchor="middle" xml:space="preserve" font-family="&quot;思源黑体 CN Bold&quot;, &quot;思源黑体 CN Normal&quot;, sans-serif" font-size="21.33" fill="#FFFFFF" font-weight="bold"><tspan fill="#FFFFFF" font-size="21.33">{{TOC_ITEM_1_TITLE}}</tspan></text>
</g>
<g id="shape-109" data-name="组合 108">
<g id="shape-110" data-name="小红书平北职场PPT2-4">
<line x1="64" y1="605.59" x2="578.99" y2="605.59" stroke-width="1.333" stroke="#FFFFFF" fill="#1D4273" />
</g>
<g id="shape-111" data-name="组合 110">
<g id="shape-112" data-name="小红书平北职场PPT2-5">
<line x1="696.08" y1="605.59" x2="1211.07" y2="605.59" stroke-width="1.333" stroke="#FFFFFF" fill="#1D4273" />
</g>
<g id="shape-113" data-name="小红书平北职场PPT2-6">
<rect x="685.93" y="564.66" width="127.47" height="35.54" fill="none" />
<text x="749.67" y="587.59" text-anchor="middle" xml:space="preserve" font-family="&quot;思源黑体 CN Bold&quot;, &quot;思源黑体 CN Normal&quot;, sans-serif" font-size="21.33" fill="#FFFFFF" font-weight="bold"><tspan fill="#FFFFFF" font-size="21.33">{{TOC_ITEM_2_TITLE}}</tspan></text>
</g>
</g>
</g>
</g>
<g id="shape-91" data-name="组合 90">
<g id="shape-105" data-name="小红书平北职场PPT2-7">
<rect x="180.83" y="559.84" width="77.79" height="42.01" fill="none" />
<text x="219.72" y="587.31" text-anchor="middle" xml:space="preserve" font-family="Roboto, &quot;思源黑体 CN Normal&quot;, sans-serif" font-size="26.67" fill="#FFFFFF" font-weight="bold"><tspan fill="#FFFFFF" font-size="26.67" font-weight="bold">90%</tspan></text>
</g>
<g id="shape-106" data-name="小红书平北职场PPT2-8">
<rect x="268.23" y="575.8" width="307.83" height="15.47" rx="7.74" ry="7.74" fill="#FFFFFF" stroke-width="2" stroke-linecap="butt" stroke="none" stroke-linejoin="miter" />
</g>
<g id="shape-107" data-name="小红书平北职场PPT2-9">
<rect x="272.72" y="578.91" width="277.05" height="9.33" rx="4.66" ry="4.66" fill="url(#ggrad3)" stroke-width="1" stroke="none" stroke-linejoin="round" />
</g>
</g>
<g id="shape-92" data-name="组合 91">
<g id="shape-101" data-name="小红书平北职场PPT2-10">
<ellipse cx="639.85" cy="615.94" rx="26.46" ry="26.46" fill="#404040" stroke-width="3" stroke="#FFFFFF" />
</g>
<g id="shape-102" data-name="组合 101">
<g id="shape-103" data-name="小红书平北职场PPT2-11">
<path d="M 631.9 606.15 L 631.9 606.15 C 629.44 606.15 628.29 609.19 630.13 610.81 L 633.3 613.59 C 634.5 614.65 634.5 616.52 633.3 617.58 L 630.13 620.36 C 628.29 621.98 629.44 625.02 631.9 625.02 L 631.9 625.02 C 632.54 625.02 633.17 624.78 633.66 624.35 L 641.36 617.58 C 642.56 616.52 642.56 614.65 641.36 613.59 L 633.66 606.82 C 633.17 606.39 632.54 606.15 631.9 606.15 Z" stroke-width="0.939" stroke-linecap="butt" stroke="none" stroke-linejoin="miter" filter="url(#fx3)" fill="none" />
</g>
<g id="shape-104" data-name="小红书平北职场PPT2-12">
<path d="M 644.94 606.15 L 644.94 606.15 C 642.48 606.15 641.33 609.19 643.17 610.81 L 646.34 613.59 C 647.54 614.65 647.54 616.52 646.34 617.58 L 643.17 620.36 C 641.33 621.98 642.48 625.02 644.94 625.02 L 644.94 625.02 C 645.59 625.02 646.21 624.78 646.7 624.35 L 654.4 617.58 C 655.6 616.52 655.6 614.65 654.4 613.59 L 646.7 606.82 C 646.21 606.39 645.59 606.15 644.94 606.15 Z" stroke-width="0.939" stroke-linecap="butt" stroke="none" stroke-linejoin="miter" filter="url(#fx4)" fill="none" />
</g>
</g>
</g>
<g id="shape-93" data-name="小红书平北职场PPT2-13">
<rect x="689.3" y="612.6" width="538.65" height="55.1" fill="none" />
<text x="698.9" y="631" text-anchor="start" xml:space="preserve" font-family="&quot;思源黑体 CN Normal&quot;, sans-serif" font-size="16" fill="#FFFFFF"><tspan fill="#FFFFFF" font-size="16">{{TOC_ITEM_3_TITLE}}</tspan></text>
</g>
<g id="shape-94" data-name="小红书平北职场PPT2-14">
<rect x="55.56" y="612.6" width="549.35" height="55.1" fill="none" />
<text x="65.16" y="631" text-anchor="start" xml:space="preserve" font-family="&quot;思源黑体 CN Normal&quot;, sans-serif" font-size="16" fill="#FFFFFF"><tspan fill="#FFFFFF" font-size="16">{{TOC_ITEM_4_TITLE}}</tspan></text>
</g>
<g id="shape-95" data-name="组合 94">
<g id="shape-96" data-name="小红书平北职场PPT2-15">
<rect x="816.76" y="572.3" width="75.93" height="27.71" fill="none" />
<text x="826.36" y="588.43" text-anchor="start" xml:space="preserve" font-family="Roboto, &quot;思源黑体 CN Normal&quot;, sans-serif" font-size="13.33" fill="#FFFFFF"><tspan fill="#FFFFFF" font-size="13.33">直播突破</tspan></text>
</g>
<g id="shape-97" data-name="小红书平北职场PPT2-16">
<rect x="892.69" y="572.3" width="75.93" height="27.71" fill="none" />
<text x="902.29" y="588.43" text-anchor="start" xml:space="preserve" font-family="Roboto, &quot;思源黑体 CN Normal&quot;, sans-serif" font-size="13.33" fill="#FFFFFF"><tspan fill="#FFFFFF" font-size="13.33">私域深耕</tspan></text>
</g>
<g id="shape-98" data-name="小红书平北职场PPT2-17">
<rect x="968.62" y="572.3" width="75.93" height="27.71" fill="none" />
<text x="978.22" y="588.43" text-anchor="start" xml:space="preserve" font-family="Roboto, &quot;思源黑体 CN Normal&quot;, sans-serif" font-size="13.33" fill="#FFFFFF"><tspan fill="#FFFFFF" font-size="13.33">大促冲刺</tspan></text>
</g>
<g id="shape-99" data-name="小红书平北职场PPT2-18">
<rect x="1044.55" y="572.3" width="75.93" height="27.71" fill="none" />
<text x="1054.15" y="588.43" text-anchor="start" xml:space="preserve" font-family="Roboto, &quot;思源黑体 CN Normal&quot;, sans-serif" font-size="13.33" fill="#FFFFFF"><tspan fill="#FFFFFF" font-size="13.33">技术赋能</tspan></text>
</g>
<g id="shape-100" data-name="小红书平北职场PPT2-19">
<rect x="1120.48" y="572.3" width="75.93" height="28.14" fill="none" />
<text x="1130.08" y="588.43" text-anchor="start" xml:space="preserve" font-family="&quot;思源黑体 CN Normal&quot;, sans-serif" font-size="13.33" fill="#FFFFFF"><tspan fill="#FFFFFF" font-size="13.33">ROI</tspan><tspan fill="#FFFFFF" font-size="13.33">升级</tspan></text>
</g>
</g>
</g>
<g id="shape-5" data-name="小红书平北职场PPT3">
<g id="shape-78" data-name="小红书平北职场PPT3-1">
<rect x="56.09" y="102.57" width="1167.82" height="49.26" fill="#000000" fill-opacity="0.1" stroke="none" stroke-width="1" />
</g>
<g id="shape-79" data-name="组合 78">
<g id="shape-83" data-name="小红书平北职场PPT3-2">
<polygon points="238.69,114.79 355.14,114.79 367.44,127.1 355.14,139.4 238.69,139.4" stroke-width="1" stroke="none" stroke-linejoin="round" fill="none" />
<text x="303.07" y="134.79" text-anchor="middle" xml:space="preserve" font-family="&quot;思源黑体 CN Bold&quot;, &quot;思源黑体 CN Normal&quot;, sans-serif" font-size="16" fill="#FFFFFF" font-weight="bold"><tspan fill="#FFFFFF" font-size="16" font-weight="bold">1</tspan><tspan fill="#FFFFFF" font-size="16" font-weight="bold">月</tspan></text>
</g>
<g id="shape-84" data-name="小红书平北职场PPT3-3">
<polygon points="383.95,114.79 500.4,114.79 512.7,127.1 500.4,139.4 383.95,139.4 396.25,127.1" stroke-width="1" stroke="none" stroke-linejoin="round" fill="none" />
<text x="448.32" y="134.79" text-anchor="middle" xml:space="preserve" font-family="&quot;思源黑体 CN Bold&quot;, &quot;思源黑体 CN Normal&quot;, sans-serif" font-size="16" fill="#FFFFFF" font-weight="bold"><tspan fill="#FFFFFF" font-size="16" font-weight="bold">2</tspan><tspan fill="#FFFFFF" font-size="16" font-weight="bold">月</tspan></text>
</g>
<g id="shape-85" data-name="小红书平北职场PPT3-4">
<polygon points="529.2,114.79 645.65,114.79 657.95,127.1 645.65,139.4 529.2,139.4 541.51,127.1" stroke-width="1" stroke="none" stroke-linejoin="round" fill="none" />
<text x="593.58" y="134.79" text-anchor="middle" xml:space="preserve" font-family="&quot;思源黑体 CN Bold&quot;, &quot;思源黑体 CN Normal&quot;, sans-serif" font-size="16" fill="#FFFFFF" font-weight="bold"><tspan fill="#FFFFFF" font-size="16" font-weight="bold">3</tspan><tspan fill="#FFFFFF" font-size="16" font-weight="bold">月</tspan></text>
</g>
<g id="shape-86" data-name="小红书平北职场PPT3-5">
<polygon points="674.46,114.79 790.91,114.79 803.21,127.1 790.91,139.4 674.46,139.4 686.76,127.1" stroke-width="1" stroke="none" stroke-linejoin="round" fill="none" />
<text x="738.84" y="134.79" text-anchor="middle" xml:space="preserve" font-family="&quot;思源黑体 CN Bold&quot;, &quot;思源黑体 CN Normal&quot;, sans-serif" font-size="16" fill="#FFFFFF" font-weight="bold"><tspan fill="#FFFFFF" font-size="16" font-weight="bold">4</tspan><tspan fill="#FFFFFF" font-size="16" font-weight="bold">月</tspan></text>
</g>
<g id="shape-87" data-name="小红书平北职场PPT3-6">
<polygon points="819.72,114.79 936.17,114.79 948.47,127.1 936.17,139.4 819.72,139.4 832.02,127.1" stroke-width="1" stroke="none" stroke-linejoin="round" fill="none" />
<text x="884.09" y="134.79" text-anchor="middle" xml:space="preserve" font-family="&quot;思源黑体 CN Bold&quot;, &quot;思源黑体 CN Normal&quot;, sans-serif" font-size="16" fill="#FFFFFF" font-weight="bold"><tspan fill="#FFFFFF" font-size="16" font-weight="bold">5</tspan><tspan fill="#FFFFFF" font-size="16" font-weight="bold">月</tspan></text>
</g>
<g id="shape-88" data-name="小红书平北职场PPT3-7">
<polygon points="964.98,114.79 1081.42,114.79 1093.73,127.1 1081.42,139.4 964.98,139.4 977.28,127.1" stroke-width="1" stroke="none" stroke-linejoin="round" fill="none" />
<text x="1029.35" y="134.79" text-anchor="middle" xml:space="preserve" font-family="&quot;思源黑体 CN Bold&quot;, &quot;思源黑体 CN Normal&quot;, sans-serif" font-size="16" fill="#FFFFFF" font-weight="bold"><tspan fill="#FFFFFF" font-size="16" font-weight="bold">6</tspan><tspan fill="#FFFFFF" font-size="16" font-weight="bold">月</tspan></text>
</g>
</g>
<g id="shape-80" data-name="组合 79">
<g id="shape-81" data-name="小红书平北职场PPT3-8">
<rect x="85.6" y="110.88" width="94.78" height="35.52" fill="none" />
<text x="95.2" y="131.54" text-anchor="start" xml:space="preserve" font-family="&quot;思源黑体 CN Bold&quot;, &quot;思源黑体 CN Normal&quot;, sans-serif" font-size="18.67" fill="#000000" font-weight="bold"><tspan fill="#000000" font-size="18.67" font-weight="bold">任务名称</tspan></text>
</g>
<g id="shape-82" data-name="小红书平北职场PPT3-9">
<rect x="1121.68" y="110.88" width="94.78" height="34.53" fill="none" />
<text x="1131.28" y="131.54" text-anchor="start" xml:space="preserve" font-family="Roboto, &quot;思源黑体 CN Normal&quot;, sans-serif" font-size="18.67" fill="#000000" font-weight="bold"><tspan fill="#000000" font-size="18.67" font-weight="bold">完成情况</tspan></text>
</g>
</g>
</g>
<g id="shape-6" data-name="小红书平北职场PPT4">
<g id="shape-76" data-name="小红书平北职场PPT4-1">
<line x1="35.17" y1="72.49" x2="1244.83" y2="72.49" stroke-width="2" stroke="#000000" fill="#1D4273" />
</g>
<g id="shape-77" data-name="小红书平北职场PPT4-2">
<rect x="35.17" y="19.35" width="517" height="45.24" fill="none" />
<text x="35.17" y="51.08" text-anchor="start" xml:space="preserve" font-family="&quot;思源黑体 CN Bold&quot;, &quot;思源黑体 CN Normal&quot;, sans-serif" font-size="37.33" fill="#000000"><tspan fill="#000000" font-size="37.33">{{TOC_ITEM_1_DESC}}</tspan></text>
</g>
</g>
<g id="shape-7" data-name="小红书平北职场PPT5">
<g id="shape-27" data-name="小红书平北职场PPT5-1">
<rect x="56.09" y="160.9" width="1167.82" height="47.17" fill="#FFFFFF" stroke="none" stroke-width="1" />
</g>
<g id="shape-28" data-name="小红书平北职场PPT5-2">
<rect x="56.09" y="211.93" width="1167.82" height="47.17" fill="#FFFFFF" stroke="none" stroke-width="1" />
</g>
<g id="shape-29" data-name="小红书平北职场PPT5-3">
<rect x="56.09" y="262.96" width="1167.82" height="47.17" fill="#FFFFFF" stroke="none" stroke-width="1" />
</g>
<g id="shape-30" data-name="小红书平北职场PPT5-4">
<rect x="56.09" y="313.99" width="1167.82" height="47.17" fill="#FFFFFF" stroke="none" stroke-width="1" />
</g>
<g id="shape-31" data-name="小红书平北职场PPT5-5">
<rect x="56.09" y="365.02" width="1167.82" height="47.17" fill="#FFFFFF" stroke="none" stroke-width="1" />
</g>
<g id="shape-32" data-name="小红书平北职场PPT5-6">
<rect x="56.09" y="416.06" width="1167.82" height="47.17" fill="#FFFFFF" stroke="none" stroke-width="1" />
</g>
<g id="shape-33" data-name="小红书平北职场PPT5-7">
<rect x="56.09" y="467.09" width="1167.82" height="47.17" fill="#FFFFFF" stroke="none" stroke-width="1" />
</g>
<g id="shape-34" data-name="小红书平北职场PPT5-8">
<rect x="84.52" y="173.42" width="109.98" height="30.18" fill="none" />
<text x="94.12" y="189.56" text-anchor="start" xml:space="preserve" font-family="&quot;思源黑体 CN Normal&quot;, sans-serif" font-size="13.33" fill="#404040" font-weight="bold"><tspan fill="#404040" font-size="13.33" font-weight="bold">KOL</tspan><tspan fill="#404040" font-size="13.33" font-weight="bold">直播试点</tspan></text>
</g>
<g id="shape-35" data-name="小红书平北职场PPT5-9">
<rect x="84.52" y="224.46" width="95.85" height="29.54" fill="none" />
<text x="94.12" y="240.59" text-anchor="start" xml:space="preserve" font-family="Roboto, &quot;思源黑体 CN Normal&quot;, sans-serif" font-size="13.33" fill="#404040" font-weight="bold"><tspan fill="#404040" font-size="13.33" font-weight="bold">直播间搭建</tspan></text>
</g>
<g id="shape-36" data-name="小红书平北职场PPT5-10">
<rect x="84.52" y="275.49" width="81.14" height="29.54" fill="none" />
<text x="94.12" y="291.62" text-anchor="start" xml:space="preserve" font-family="Roboto, &quot;思源黑体 CN Normal&quot;, sans-serif" font-size="13.33" fill="#404040" font-weight="bold"><tspan fill="#404040" font-size="13.33" font-weight="bold">主播培训</tspan></text>
</g>
<g id="shape-37" data-name="小红书平北职场PPT5-11">
<rect x="84.52" y="326.52" width="144.24" height="29.54" fill="none" />
<text x="94.12" y="342.65" text-anchor="start" xml:space="preserve" font-family="Roboto, &quot;思源黑体 CN Normal&quot;, sans-serif" font-size="13.33" fill="#404040" font-weight="bold"><tspan fill="#404040" font-size="13.33" font-weight="bold">企业微信社群搭建</tspan></text>
</g>
<g id="shape-38" data-name="小红书平北职场PPT5-12">
<rect x="84.52" y="377.55" width="110.56" height="29.54" fill="none" />
<text x="94.12" y="393.68" text-anchor="start" xml:space="preserve" font-family="Roboto, &quot;思源黑体 CN Normal&quot;, sans-serif" font-size="13.33" fill="#404040" font-weight="bold"><tspan fill="#404040" font-size="13.33" font-weight="bold">会员体系升级</tspan></text>
</g>
<g id="shape-39" data-name="小红书平北职场PPT5-13">
<rect x="84.52" y="428.58" width="95.85" height="29.54" fill="none" />
<text x="94.12" y="444.72" text-anchor="start" xml:space="preserve" font-family="Roboto, &quot;思源黑体 CN Normal&quot;, sans-serif" font-size="13.33" fill="#404040" font-weight="bold"><tspan fill="#404040" font-size="13.33" font-weight="bold">预售期运营</tspan></text>
</g>
<g id="shape-40" data-name="小红书平北职场PPT5-14">
<rect x="84.52" y="479.62" width="130.7" height="29.54" fill="none" />
<text x="94.12" y="495.75" text-anchor="start" xml:space="preserve" font-family="Roboto, &quot;思源黑体 CN Normal&quot;, sans-serif" font-size="13.33" fill="#404040" font-weight="bold"><tspan fill="#404040" font-size="13.33" font-weight="bold">爆发期流量承接</tspan></text>
</g>
<g id="shape-41" data-name="组合 40">
<g id="shape-71" data-name="小红书平北职场PPT5-15">
<path d="M 1172.69 174.53 C 1166.44 174.53 1161.35 179.62 1161.35 185.87 C 1161.35 192.12 1166.44 197.21 1172.69 197.21 C 1178.94 197.21 1184.03 192.12 1184.03 185.87 C 1184.03 179.62 1178.94 174.53 1172.69 174.53 Z M 1179.04 183.7 L 1171.66 191.26 C 1171.48 191.44 1171.24 191.54 1170.99 191.54 L 1170.98 191.54 C 1170.73 191.54 1170.49 191.44 1170.32 191.26 L 1166.35 187.3 C 1165.98 186.93 1165.98 186.33 1166.35 185.96 C 1166.35 185.96 1166.35 185.96 1166.35 185.96 C 1166.72 185.59 1167.32 185.59 1167.69 185.96 C 1167.69 185.96 1167.69 185.96 1167.69 185.96 L 1170.98 189.25 L 1177.68 182.37 C 1178.05 182 1178.65 181.99 1179.02 182.36 C 1179.39 182.72 1179.4 183.32 1179.04 183.7 Z" fill="#404040" stroke-width="0.195" stroke-linecap="butt" stroke="none" stroke-linejoin="miter" />
</g>
<g id="shape-72" data-name="小红书平北职场PPT5-16">
<path d="M 1172.69 224.42 C 1166.44 224.42 1161.35 229.51 1161.35 235.76 C 1161.35 242.01 1166.44 247.1 1172.69 247.1 C 1178.94 247.1 1184.03 242.01 1184.03 235.76 C 1184.03 229.51 1178.94 224.42 1172.69 224.42 Z M 1179.04 233.59 L 1171.66 241.15 C 1171.48 241.33 1171.24 241.43 1170.99 241.43 L 1170.98 241.43 C 1170.73 241.43 1170.49 241.33 1170.32 241.15 L 1166.35 237.19 C 1165.98 236.82 1165.98 236.22 1166.35 235.85 C 1166.35 235.85 1166.35 235.85 1166.35 235.85 C 1166.72 235.48 1167.32 235.48 1167.69 235.85 C 1167.69 235.85 1167.69 235.85 1167.69 235.85 L 1170.98 239.14 L 1177.68 232.26 C 1178.05 231.89 1178.65 231.88 1179.02 232.25 C 1179.39 232.61 1179.4 233.21 1179.04 233.59 Z" fill="#404040" stroke-width="0.195" stroke-linecap="butt" stroke="none" stroke-linejoin="miter" />
</g>
<g id="shape-73" data-name="小红书平北职场PPT5-17">
<path d="M 1172.69 330.68 C 1166.44 330.68 1161.35 335.76 1161.35 342.02 C 1161.35 348.27 1166.44 353.35 1172.69 353.35 C 1178.94 353.35 1184.03 348.27 1184.03 342.02 C 1184.03 335.76 1178.94 330.68 1172.69 330.68 Z M 1179.04 339.84 L 1171.66 347.4 C 1171.48 347.58 1171.24 347.68 1170.99 347.68 L 1170.98 347.68 C 1170.73 347.68 1170.49 347.59 1170.32 347.41 L 1166.35 343.44 C 1165.98 343.07 1165.98 342.48 1166.35 342.11 C 1166.35 342.11 1166.35 342.11 1166.35 342.11 C 1166.72 341.74 1167.32 341.74 1167.69 342.11 C 1167.69 342.11 1167.69 342.11 1167.69 342.11 L 1170.98 345.39 L 1177.68 338.52 C 1178.05 338.15 1178.65 338.14 1179.02 338.5 C 1179.39 338.87 1179.4 339.47 1179.04 339.84 Z" fill="#404040" stroke-width="0.195" stroke-linecap="butt" stroke="none" stroke-linejoin="miter" />
</g>
<g id="shape-74" data-name="小红书平北职场PPT5-18">
<path d="M 1172.69 382.7 C 1166.44 382.7 1161.35 387.79 1161.35 394.04 C 1161.35 400.29 1166.44 405.38 1172.69 405.38 C 1178.94 405.38 1184.03 400.29 1184.03 394.04 C 1184.03 387.79 1178.94 382.7 1172.69 382.7 Z M 1179.04 391.87 L 1171.66 399.43 C 1171.48 399.61 1171.24 399.71 1170.99 399.71 L 1170.98 399.71 C 1170.73 399.71 1170.49 399.61 1170.32 399.43 L 1166.35 395.47 C 1165.98 395.1 1165.98 394.5 1166.35 394.13 C 1166.35 394.13 1166.35 394.13 1166.35 394.13 C 1166.72 393.76 1167.32 393.76 1167.69 394.13 C 1167.69 394.13 1167.69 394.13 1167.69 394.13 L 1170.98 397.42 L 1177.68 390.54 C 1178.05 390.17 1178.65 390.16 1179.02 390.53 C 1179.39 390.89 1179.4 391.49 1179.04 391.87 Z" fill="#404040" stroke-width="0.195" stroke-linecap="butt" stroke="none" stroke-linejoin="miter" />
</g>
<g id="shape-75" data-name="小红书平北职场PPT5-19">
<path d="M 1172.69 433.61 C 1166.44 433.61 1161.35 438.7 1161.35 444.95 C 1161.35 451.2 1166.44 456.29 1172.69 456.29 C 1178.94 456.29 1184.03 451.2 1184.03 444.95 C 1184.03 438.7 1178.94 433.61 1172.69 433.61 Z M 1179.04 442.77 L 1171.66 450.33 C 1171.48 450.51 1171.24 450.61 1170.99 450.62 L 1170.98 450.62 C 1170.73 450.62 1170.49 450.52 1170.32 450.34 L 1166.35 446.37 C 1165.98 446.01 1165.98 445.41 1166.35 445.04 C 1166.35 445.04 1166.35 445.04 1166.35 445.04 C 1166.72 444.67 1167.32 444.67 1167.69 445.04 C 1167.69 445.04 1167.69 445.04 1167.69 445.04 L 1170.98 448.32 L 1177.68 441.45 C 1178.05 441.08 1178.65 441.07 1179.02 441.43 C 1179.39 441.8 1179.4 442.4 1179.04 442.77 Z" fill="#404040" stroke-width="0.195" stroke-linecap="butt" stroke="none" stroke-linejoin="miter" />
</g>
</g>
<g id="shape-42" data-name="组合 41">
<g id="shape-43" data-name="组合 42">
<g id="shape-68" data-name="小红书平北职场PPT5-20">
<rect x="749.58" y="322.72" width="199.11" height="32.1" rx="16.05" ry="16.05" fill="url(#ggrad4)" stroke="none" stroke-width="1" />
</g>
<g id="shape-69" data-name="小红书平北职场PPT5-21">
<rect x="820.72" y="328.37" width="113.09" height="19.39" fill="none" />
<text x="820.72" y="341.97" text-anchor="start" xml:space="preserve" font-family="&quot;思源黑体 CN Normal&quot;, sans-serif" font-size="16" fill="#292D37"><tspan fill="#292D37" font-size="16">提高会员满意度</tspan></text>
</g>
<g id="shape-70" data-name="小红书平北职场PPT5-22">
<rect x="530.42" y="322.72" width="277.14" height="32.1" rx="16.05" ry="16.05" fill="url(#ggrad5)" stroke="none" stroke-width="1" />
<text x="668.99" y="344.37" text-anchor="middle" xml:space="preserve" font-family="&quot;思源黑体 CN Bold&quot;, &quot;思源黑体 CN Normal&quot;, sans-serif" font-size="16" fill="#FFFFFF"><tspan fill="#FFFFFF" font-size="16">{{TOC_ITEM_2_DESC}}</tspan></text>
</g>
</g>
<g id="shape-44" data-name="组合 43">
<g id="shape-65" data-name="小红书平北职场PPT5-23">
<rect x="1041.27" y="475.82" width="184.89" height="32.1" rx="16.05" ry="16.05" fill="url(#ggrad6)" stroke="none" stroke-width="1" />
</g>
<g id="shape-66" data-name="小红书平北职场PPT5-24">
<rect x="1103.97" y="481.47" width="96.94" height="19.39" fill="none" />
<text x="1103.97" y="495.07" text-anchor="start" xml:space="preserve" font-family="&quot;思源黑体 CN Normal&quot;, sans-serif" font-size="16" fill="#292D37"><tspan fill="#292D37" font-size="16">有效利用流量</tspan></text>
</g>
<g id="shape-67" data-name="小红书平北职场PPT5-25">
<rect x="819.72" y="475.82" width="274.01" height="32.1" rx="16.05" ry="16.05" fill="url(#ggrad7)" stroke="none" stroke-width="1" />
<text x="956.72" y="497.47" text-anchor="middle" xml:space="preserve" font-family="&quot;思源黑体 CN Bold&quot;, &quot;思源黑体 CN Normal&quot;, sans-serif" font-size="16" fill="#FFFFFF"><tspan fill="#FFFFFF" font-size="16">{{TOC_ITEM_3_DESC}}</tspan></text>
</g>
</g>
<g id="shape-45" data-name="组合 44">
<g id="shape-62" data-name="小红书平北职场PPT5-26">
<rect x="471.84" y="168.43" width="224.24" height="32.1" rx="16.05" ry="16.05" fill="url(#ggrad8)" stroke="none" stroke-width="1" />
</g>
<g id="shape-63" data-name="小红书平北职场PPT5-27">
<rect x="522.96" y="174.08" width="129.25" height="19.39" fill="none" />
<text x="522.96" y="187.68" text-anchor="start" xml:space="preserve" font-family="&quot;思源黑体 CN Normal&quot;, sans-serif" font-size="16" fill="#292D37"><tspan fill="#292D37" font-size="16">确保直播流程顺畅</tspan></text>
</g>
<g id="shape-64" data-name="小红书平北职场PPT5-28">
<rect x="235.42" y="168.43" width="277.28" height="32.1" rx="16.05" ry="16.05" fill="url(#ggrad9)" stroke="none" stroke-width="1" />
<text x="374.06" y="190.08" text-anchor="middle" xml:space="preserve" font-family="&quot;思源黑体 CN Bold&quot;, &quot;思源黑体 CN Normal&quot;, sans-serif" font-size="16" fill="#FFFFFF"><tspan fill="#FFFFFF" font-size="16">{{TOC_ITEM_4_DESC}}</tspan></text>
</g>
</g>
<g id="shape-46" data-name="组合 45">
<g id="shape-59" data-name="小红书平北职场PPT5-29">
<rect x="606.84" y="424.79" width="199.11" height="32.1" rx="16.05" ry="16.05" fill="url(#ggrad10)" stroke="none" stroke-width="1" />
</g>
<g id="shape-60" data-name="小红书平北职场PPT5-30">
<rect x="667.58" y="430.44" width="96.94" height="19.39" fill="none" />
<text x="667.58" y="444.04" text-anchor="start" xml:space="preserve" font-family="&quot;思源黑体 CN Normal&quot;, sans-serif" font-size="16" fill="#292D37"><tspan fill="#292D37" font-size="16">提升预售销量</tspan></text>
</g>
<g id="shape-61" data-name="小红书平北职场PPT5-31">
<rect x="383.95" y="424.79" width="274.01" height="32.1" rx="16.05" ry="16.05" fill="url(#ggrad11)" stroke="none" stroke-width="1" />
<text x="520.95" y="446.44" text-anchor="middle" xml:space="preserve" font-family="&quot;思源黑体 CN Bold&quot;, &quot;思源黑体 CN Normal&quot;, sans-serif" font-size="16" fill="#FFFFFF"><tspan fill="#FFFFFF" font-size="16">2</tspan><tspan fill="#FFFFFF" font-size="16">月 </tspan><tspan fill="#FFFFFF" font-size="16">- 3</tspan><tspan fill="#FFFFFF" font-size="16">月：策划预售活动</tspan></text>
</g>
</g>
<g id="shape-47" data-name="组合 46">
<g id="shape-56" data-name="小红书平北职场PPT5-32">
<rect x="606.84" y="219.46" width="199.11" height="32.1" rx="16.05" ry="16.05" fill="url(#ggrad12)" stroke="none" stroke-width="1" />
</g>
<g id="shape-57" data-name="小红书平北职场PPT5-33">
<rect x="667.58" y="225.11" width="113.09" height="19.39" fill="none" />
<text x="667.58" y="238.71" text-anchor="start" xml:space="preserve" font-family="&quot;思源黑体 CN Normal&quot;, sans-serif" font-size="16" fill="#292D37"><tspan fill="#292D37" font-size="16">完成直播间搭建</tspan></text>
</g>
<g id="shape-58" data-name="小红书平北职场PPT5-34">
<rect x="383.95" y="219.46" width="274.01" height="32.1" rx="16.05" ry="16.05" fill="url(#ggrad13)" stroke="none" stroke-width="1" />
<text x="520.95" y="241.11" text-anchor="middle" xml:space="preserve" font-family="&quot;思源黑体 CN Bold&quot;, &quot;思源黑体 CN Normal&quot;, sans-serif" font-size="16" fill="#FFFFFF"><tspan fill="#FFFFFF" font-size="16">2</tspan><tspan fill="#FFFFFF" font-size="16">月 </tspan><tspan fill="#FFFFFF" font-size="16">- 3</tspan><tspan fill="#FFFFFF" font-size="16">月：安装设备，布置环境</tspan></text>
</g>
</g>
<g id="shape-48" data-name="组合 47">
<g id="shape-53" data-name="小红书平北职场PPT5-35">
<rect x="1041.27" y="267.65" width="184.89" height="32.1" rx="16.05" ry="16.05" fill="url(#ggrad14)" stroke="none" stroke-width="1" />
</g>
<g id="shape-54" data-name="小红书平北职场PPT5-36">
<rect x="1103.97" y="273.3" width="96.94" height="19.39" fill="none" />
<text x="1103.97" y="286.9" text-anchor="start" xml:space="preserve" font-family="&quot;思源黑体 CN Normal&quot;, sans-serif" font-size="16" fill="#292D37"><tspan fill="#292D37" font-size="16">提升主播能力</tspan></text>
</g>
<g id="shape-55" data-name="小红书平北职场PPT5-37">
<rect x="674.46" y="267.65" width="419.27" height="32.1" rx="16.05" ry="16.05" fill="url(#ggrad15)" stroke="none" stroke-width="1" />
<text x="884.09" y="289.3" text-anchor="middle" xml:space="preserve" font-family="&quot;思源黑体 CN Bold&quot;, &quot;思源黑体 CN Normal&quot;, sans-serif" font-size="16" fill="#FFFFFF"><tspan fill="#FFFFFF" font-size="16">4</tspan><tspan fill="#FFFFFF" font-size="16">月 </tspan><tspan fill="#FFFFFF" font-size="16">- 6</tspan><tspan fill="#FFFFFF" font-size="16">月：培训主播专业技能</tspan></text>
</g>
</g>
<g id="shape-49" data-name="组合 48">
<g id="shape-50" data-name="小红书平北职场PPT5-38">
<rect x="861.01" y="374.76" width="300.34" height="32.1" rx="16.05" ry="16.05" fill="url(#ggrad16)" stroke="none" stroke-width="1" />
</g>
<g id="shape-51" data-name="小红书平北职场PPT5-39">
<rect x="951.28" y="380.41" width="96.94" height="19.39" fill="none" />
<text x="951.28" y="394.01" text-anchor="start" xml:space="preserve" font-family="&quot;思源黑体 CN Normal&quot;, sans-serif" font-size="16" fill="#292D37"><tspan fill="#292D37" font-size="16">增强用户互动</tspan></text>
</g>
<g id="shape-52" data-name="小红书平北职场PPT5-40">
<rect x="530.42" y="374.76" width="411.49" height="32.1" rx="16.05" ry="16.05" fill="url(#ggrad17)" stroke="none" stroke-width="1" />
<text x="736.16" y="396.4" text-anchor="middle" xml:space="preserve" font-family="&quot;思源黑体 CN Bold&quot;, &quot;思源黑体 CN Normal&quot;, sans-serif" font-size="16" fill="#FFFFFF"><tspan fill="#FFFFFF" font-size="16">3</tspan><tspan fill="#FFFFFF" font-size="16">月 </tspan><tspan fill="#FFFFFF" font-size="16">- 5</tspan><tspan fill="#FFFFFF" font-size="16">月：建立社群，规划内容</tspan></text>
</g>
</g>
</g>
</g></svg>