<?xml version='1.0' encoding='utf-8'?>
<svg xmlns="http://www.w3.org/2000/svg" version="1.1" width="1280" height="720" viewBox="0 0 1280 720"><defs><filter id="fx1" x="-25%" y="-25%" width="150%" height="150%"><feDropShadow dx="0" dy="6.67" stdDeviation="7.33" flood-color="#000000" flood-opacity="0.15" /></filter><filter id="fx2" x="-25%" y="-25%" width="150%" height="150%"><feDropShadow dx="0" dy="6.67" stdDeviation="7.33" flood-color="#000000" flood-opacity="0.15" /></filter><filter id="fx3" x="-25%" y="-25%" width="150%" height="150%"><feDropShadow dx="0" dy="6.67" stdDeviation="7.33" flood-color="#000000" flood-opacity="0.15" /></filter></defs><rect x="0" y="0" width="1280" height="720" fill="#FFFFFF" />
<g id="master-shape-12" data-name="直线连接符 11">
<line x1="55.17" y1="691.85" x2="1250.83" y2="691.85" stroke-width="1" stroke="#00329D" fill="#00329D" />
</g>
<g id="shape-4" data-name="lemon1">
<g id="shape-5" data-name="lemon1-1">
<path d="M 803.45 524.64 C 803.45 563.51 730.28 595.01 640 595.01 C 549.72 595.01 476.55 563.51 476.55 524.64 C 476.55 485.78 549.72 454.28 640 454.28 C 730.28 454.28 803.45 485.78 803.45 524.64 Z" fill="#002576" stroke-width="1.333" stroke-linejoin="miter" />
</g>
<g id="shape-6" data-name="lemon1-2">
<path d="M 476.55 573.06 C 479.14 610.95 551.29 641.32 639.93 641.32 C 728.88 641.32 801.25 610.73 803.33 572.65 L 803.3 525.45 C 800.61 563.3 728.49 593.63 639.93 593.63 C 551.3 593.63 479.15 563.26 476.55 525.38 C 476.55 525.38 476.55 573.06 476.55 573.06 Z" fill="#00329D" stroke-width="1.333" stroke-linejoin="miter" />
</g>
</g>
<g id="shape-7" data-name="lemon2">
<g id="shape-8" data-name="lemon2-1">
<path d="M 803.45 444.56 C 803.45 483.43 730.28 514.93 640 514.93 C 549.72 514.93 476.55 483.43 476.55 444.56 C 476.55 405.7 549.72 374.2 640 374.2 C 730.28 374.2 803.45 405.7 803.45 444.56 Z" fill="#0550EA" stroke-width="1.333" stroke-linejoin="miter" />
</g>
<g id="shape-9" data-name="lemon2-2">
<path d="M 476.55 492.98 C 479.14 530.87 551.29 561.24 639.93 561.24 C 728.88 561.24 801.25 530.65 803.33 492.57 L 803.3 445.37 C 800.61 483.22 728.49 513.55 639.93 513.55 C 551.3 513.55 479.15 483.18 476.55 445.3 C 476.55 445.3 476.55 492.98 476.55 492.98 Z" fill="#4480FB" stroke-width="1.333" stroke-linejoin="miter" filter="url(#fx1)" />
</g>
</g>
<g id="shape-10" data-name="lemon3">
<g id="shape-11" data-name="lemon3-1">
<path d="M 803.45 364.49 C 803.45 403.35 730.28 434.85 640 434.85 C 549.72 434.85 476.55 403.35 476.55 364.49 C 476.55 325.62 549.72 294.12 640 294.12 C 730.28 294.12 803.45 325.62 803.45 364.49 Z" fill="#707070" stroke-width="1.333" stroke-linejoin="miter" />
</g>
<g id="shape-12" data-name="lemon3-2">
<path d="M 476.55 412.9 C 479.14 450.79 551.29 481.16 639.93 481.16 C 728.88 481.16 801.25 450.57 803.33 412.49 L 803.3 365.29 C 800.61 403.14 728.49 433.47 639.93 433.47 C 551.3 433.47 479.15 403.1 476.55 365.22 C 476.55 365.22 476.55 412.9 476.55 412.9 Z" fill="#969696" stroke-width="1.333" stroke-linejoin="miter" filter="url(#fx2)" />
</g>
</g>
<g id="shape-13" data-name="lemon4">
<g id="shape-14" data-name="lemon4-1">
<path d="M 803.45 283.67 C 803.45 322.54 730.28 354.04 640 354.04 C 549.72 354.04 476.55 322.54 476.55 283.67 C 476.55 244.81 549.72 213.31 640 213.31 C 730.28 213.31 803.45 244.81 803.45 283.67 Z" fill="#B4CCFD" stroke-width="1.333" stroke-linejoin="miter" />
</g>
<g id="shape-15" data-name="lemon4-2">
<path d="M 476.55 332.09 C 479.14 369.98 551.29 400.35 639.93 400.35 C 728.88 400.35 801.25 369.76 803.33 331.68 L 803.3 284.48 C 800.61 322.33 728.49 352.66 639.93 352.66 C 551.3 352.66 479.15 322.29 476.55 284.41 C 476.55 284.41 476.55 332.09 476.55 332.09 Z" fill="#8FB3FD" stroke-width="1.333" stroke-linejoin="miter" filter="url(#fx3)" />
</g>
</g>
<g id="shape-16" data-name="lemon5">
<rect x="590.33" y="345.22" width="116.41" height="48.79" fill="none" />
<text x="648.54" y="370.42" text-anchor="middle" xml:space="preserve" font-family="Roboto, &quot;思源黑体 CN Regular&quot;, sans-serif" font-size="24" fill="#FEFEFE" font-weight="bold"><tspan fill="#FEFEFE" font-size="24">{{CHAPTER_NUM}}</tspan></text>
</g>
<g id="shape-70" data-name="lemon6" transform="rotate(90 242.36 230.1)">
<path d="M 242.36 36.4 L 250.05 51.62 L 327.05 51.62 C 330.07 51.62 332.51 55.86 332.51 61.1 L 332.51 414.34 C 332.51 419.57 330.07 423.81 327.05 423.81 L 157.66 423.81 C 154.64 423.81 152.2 419.57 152.2 414.34 L 152.2 61.1 C 152.2 55.86 154.64 51.62 157.66 51.62 L 234.66 51.62 Z" fill="#F3F8FF" stroke-width="0.333" stroke="#00329D" />
</g>
<g id="shape-71" data-name="lemon7" transform="rotate(90 242.36 379.37)">
<path d="M 242.36 185.66 L 245.91 200.88 L 281.52 200.88 C 282.91 200.88 284.04 205.13 284.04 210.36 L 284.04 563.6 C 284.04 568.83 282.91 573.08 281.52 573.08 L 203.2 573.08 C 201.8 573.08 200.67 568.83 200.67 563.6 L 200.67 210.36 C 200.67 205.13 201.8 200.88 203.2 200.88 L 238.8 200.88 Z" fill="#00329D" stroke-width="0.333" stroke="#00329D" />
</g>
<g id="shape-72" data-name="lemon8" transform="rotate(90 243.78 483.18)">
<path d="M 243.78 289.47 L 247.02 304.69 L 279.37 304.69 C 280.64 304.69 281.66 308.93 281.66 314.17 L 281.66 667.41 C 281.66 672.64 280.64 676.88 279.37 676.88 L 208.2 676.88 C 206.93 676.88 205.9 672.64 205.9 667.41 L 205.9 314.17 C 205.9 308.93 206.93 304.69 208.2 304.69 L 240.55 304.69 Z" fill="#F3F8FF" stroke-width="0.333" stroke="#00329D" />
</g>
<g id="shape-73" data-name="lemon9" transform="rotate(90 242.36 579.6)">
<path d="M 242.36 385.89 L 245.92 401.12 L 281.52 401.12 C 282.91 401.12 284.04 405.36 284.04 410.6 L 284.04 763.83 C 284.04 769.07 282.91 773.31 281.52 773.31 L 203.2 773.31 C 201.8 773.31 200.67 769.07 200.67 763.83 L 200.67 410.6 C 200.67 405.36 201.8 401.12 203.2 401.12 L 238.8 401.12 Z" fill="#4480FB" stroke-width="0.333" stroke="#00329D" />
</g>
<g id="shape-76" data-name="lemon10">
<rect x="105.34" y="361.05" width="134.59" height="45.24" fill="none" />
<text x="172.63" y="376.91" text-anchor="middle" xml:space="preserve" font-family="Roboto, &quot;思源黑体 CN Regular&quot;, sans-serif" font-size="18.67" fill="#FFFFFF"><tspan fill="#FFFFFF" font-size="18.67">近三年销量累计增长达到</tspan></text>
</g>
<g id="shape-77" data-name="lemon11">
<rect x="244.39" y="339.54" width="135.35" height="87.24" fill="none" />
<text x="312.07" y="398.74" text-anchor="middle" xml:space="preserve" font-family="Roboto, &quot;思源黑体 CN Regular&quot;, sans-serif" font-size="64" fill="#F8F8F8" font-weight="bold"><tspan fill="#F8F8F8" font-size="64" font-weight="bold">82</tspan><tspan fill="#F8F8F8" font-size="26.67" font-weight="bold">%</tspan></text>
</g>
<g id="shape-83" data-name="lemon12">
<rect x="832.73" y="136.29" width="407.1" height="508.14" rx="10.22" ry="10.22" fill="#B8CFFF" fill-opacity="0.1508" stroke-width="1.333" stroke="#00329D" stroke-dasharray="4 4" />
</g>
<g id="shape-84" data-name="lemon13">
<rect x="1046.27" y="280.99" width="178.65" height="103.27" rx="5.34" ry="5.34" fill="#B8CFFF" fill-opacity="0.1508" stroke-width="1.333" stroke="#00329D" />
</g>
<g id="shape-85" data-name="lemon14">
<rect x="848.59" y="280.99" width="179.66" height="103.27" rx="5.34" ry="5.34" fill="#B8CFFF" fill-opacity="0.1508" stroke-width="1.333" stroke="#00329D" />
</g>
<g id="shape-87" data-name="lemon15">
<rect x="848.59" y="149.41" width="376.33" height="117.85" rx="5.16" ry="5.16" fill="#4480FB" stroke-width="1" stroke="none" />
</g>
<g id="shape-88" data-name="lemon16">
<rect x="848.69" y="290.18" width="178.65" height="45.24" fill="none" />
<text x="938.01" y="306.05" text-anchor="middle" xml:space="preserve" font-family="Roboto, &quot;思源黑体 CN Regular&quot;, sans-serif" font-size="18.67" fill="#00329D"><tspan fill="#00329D" font-size="18.67">2023</tspan><tspan fill="#00329D" font-size="18.67">年度</tspan><tspan fill="#00329D" font-size="18.67">整体</tspan><tspan x="938.01" dy="18.67" fill="#00329D" font-size="18.67">销量提升</tspan></text>
</g>
<g id="shape-89" data-name="lemon17">
<rect x="852.07" y="327.61" width="179.66" height="61.39" fill="none" />
<text x="941.9" y="368.68" text-anchor="middle" xml:space="preserve" font-family="Roboto, &quot;思源黑体 CN Regular&quot;, sans-serif" font-size="42.67" fill="#00329D" font-weight="bold"><tspan fill="#00329D" font-size="42.67" font-weight="bold">86</tspan><tspan fill="#00329D" font-size="16" font-weight="bold">%</tspan></text>
</g>
<g id="shape-90" data-name="lemon18">
<rect x="1047.73" y="290.18" width="178.65" height="45.24" fill="none" />
<text x="1137.05" y="306.05" text-anchor="middle" xml:space="preserve" font-family="Roboto, &quot;思源黑体 CN Regular&quot;, sans-serif" font-size="18.67" fill="#00329D"><tspan fill="#00329D" font-size="18.67">2024</tspan><tspan fill="#00329D" font-size="18.67">年度</tspan><tspan fill="#00329D" font-size="18.67">整体</tspan><tspan x="1137.05" dy="18.67" fill="#00329D" font-size="18.67">销量提升</tspan></text>
</g>
<g id="shape-91" data-name="lemon19">
<rect x="1051.11" y="327.61" width="179.66" height="61.39" fill="none" />
<text x="1140.94" y="368.68" text-anchor="middle" xml:space="preserve" font-family="Roboto, &quot;思源黑体 CN Regular&quot;, sans-serif" font-size="42.67" fill="#00329D" font-weight="bold"><tspan fill="#00329D" font-size="42.67" font-weight="bold">23%</tspan></text>
</g>
<g id="shape-94" data-name="lemon20">
<rect x="870.86" y="153.94" width="335.4" height="108.49" fill="none" />
<text x="880.46" y="190.6" text-anchor="start" xml:space="preserve" font-family="Roboto, &quot;思源黑体 CN Regular&quot;, sans-serif" font-size="18.67" fill="#F8F8F8"><tspan fill="#F8F8F8" font-size="18.67">结合</tspan><tspan fill="#F8F8F8" font-size="18.67">2023</tspan><tspan fill="#F8F8F8" font-size="18.67">年度数据，可以看出用户对</tspan><tspan x="880.46" dy="28" fill="#F8F8F8" font-size="18.67">于产品品牌的关注更加强烈，头部品</tspan><tspan x="880.46" dy="28" fill="#F8F8F8" font-size="18.67">牌的用户粘性显著增加。</tspan></text>
</g>
<g id="shape-104" data-name="lemon21">
<rect x="1046.27" y="400.12" width="178.65" height="103.27" rx="5.34" ry="5.34" fill="#B8CFFF" fill-opacity="0.1508" stroke-width="1.333" stroke="#00329D" />
</g>
<g id="shape-105" data-name="lemon22">
<rect x="848.59" y="400.12" width="179.66" height="103.27" rx="5.34" ry="5.34" fill="#B8CFFF" fill-opacity="0.1508" stroke-width="1.333" stroke="#00329D" />
</g>
<g id="shape-106" data-name="lemon23">
<rect x="848.69" y="409.32" width="178.65" height="45.24" fill="none" />
<text x="938.01" y="425.19" text-anchor="middle" xml:space="preserve" font-family="Roboto, &quot;思源黑体 CN Regular&quot;, sans-serif" font-size="18.67" fill="#00329D"><tspan fill="#00329D" font-size="18.67">2023</tspan><tspan fill="#00329D" font-size="18.67">年度</tspan><tspan fill="#00329D" font-size="18.67">整体</tspan><tspan x="938.01" dy="18.67" fill="#00329D" font-size="18.67">销量总额</tspan></text>
</g>
<g id="shape-107" data-name="lemon24">
<rect x="852.07" y="446.75" width="179.66" height="61.39" fill="none" />
<text x="941.9" y="487.82" text-anchor="middle" xml:space="preserve" font-family="Roboto, &quot;思源黑体 CN Regular&quot;, sans-serif" font-size="42.67" fill="#00329D" font-weight="bold"><tspan fill="#00329D" font-size="42.67">{{CHAPTER_TITLE}}</tspan></text>
</g>
<g id="shape-108" data-name="lemon25">
<rect x="1047.73" y="409.32" width="178.65" height="45.24" fill="none" />
<text x="1137.05" y="425.19" text-anchor="middle" xml:space="preserve" font-family="Roboto, &quot;思源黑体 CN Regular&quot;, sans-serif" font-size="18.67" fill="#00329D"><tspan fill="#00329D" font-size="18.67">2024</tspan><tspan fill="#00329D" font-size="18.67">年度</tspan><tspan fill="#00329D" font-size="18.67">整体</tspan><tspan x="1137.05" dy="18.67" fill="#00329D" font-size="18.67">利润总额</tspan></text>
</g>
<g id="shape-109" data-name="lemon26">
<rect x="1051.11" y="446.75" width="179.66" height="61.39" fill="none" />
<text x="1140.94" y="487.82" text-anchor="middle" xml:space="preserve" font-family="Roboto, &quot;思源黑体 CN Regular&quot;, sans-serif" font-size="42.67" fill="#00329D" font-weight="bold"><tspan fill="#00329D" font-size="42.67" font-weight="bold">30</tspan><tspan fill="#00329D" font-size="21.33" font-weight="bold">万元</tspan></text>
</g>
<g id="shape-110" data-name="lemon27">
<rect x="1046.27" y="521.87" width="178.65" height="103.27" rx="5.34" ry="5.34" fill="#B8CFFF" fill-opacity="0.1508" stroke-width="1.333" stroke="#00329D" />
</g>
<g id="shape-111" data-name="lemon28">
<rect x="848.59" y="521.87" width="179.66" height="103.27" rx="5.34" ry="5.34" fill="#B8CFFF" fill-opacity="0.1508" stroke-width="1.333" stroke="#00329D" />
</g>
<g id="shape-112" data-name="lemon29">
<rect x="848.69" y="531.07" width="178.65" height="45.24" fill="none" />
<text x="938.01" y="546.93" text-anchor="middle" xml:space="preserve" font-family="Roboto, &quot;思源黑体 CN Regular&quot;, sans-serif" font-size="18.67" fill="#00329D"><tspan fill="#00329D" font-size="18.67">2025</tspan><tspan fill="#00329D" font-size="18.67">年度预计</tspan><tspan x="938.01" dy="18.67" fill="#00329D" font-size="18.67">销量提升</tspan></text>
</g>
<g id="shape-113" data-name="lemon30">
<rect x="852.07" y="568.5" width="179.66" height="61.39" fill="none" />
<text x="941.9" y="609.56" text-anchor="middle" xml:space="preserve" font-family="Roboto, &quot;思源黑体 CN Regular&quot;, sans-serif" font-size="42.67" fill="#00329D" font-weight="bold"><tspan fill="#00329D" font-size="42.67" font-weight="bold">102</tspan><tspan fill="#00329D" font-size="16" font-weight="bold">%</tspan></text>
</g>
<g id="shape-114" data-name="lemon31">
<rect x="1047.73" y="531.07" width="178.65" height="45.24" fill="none" />
<text x="1137.05" y="546.93" text-anchor="middle" xml:space="preserve" font-family="Roboto, &quot;思源黑体 CN Regular&quot;, sans-serif" font-size="18.67" fill="#00329D"><tspan fill="#00329D" font-size="18.67">2024</tspan><tspan fill="#00329D" font-size="18.67">年度</tspan><tspan fill="#00329D" font-size="18.67">预计</tspan><tspan x="1137.05" dy="18.67" fill="#00329D" font-size="18.67">销量提升</tspan></text>
</g>
<g id="shape-115" data-name="lemon32">
<rect x="1051.11" y="568.5" width="179.66" height="61.39" fill="none" />
<text x="1140.94" y="609.56" text-anchor="middle" xml:space="preserve" font-family="Roboto, &quot;思源黑体 CN Regular&quot;, sans-serif" font-size="42.67" fill="#00329D" font-weight="bold"><tspan fill="#00329D" font-size="42.67" font-weight="bold">76%</tspan></text>
</g>
<g id="shape-116" data-name="lemon33" transform="translate(648.54 203.64) scale(-1 1) translate(-648.54 -203.64)">
<path d="M 679.34 256.1 C 707.14 243.83 726.77 215.92 726.77 183 C 726.77 138.91 691.88 103.19 648.26 103.19 C 605.2 103.19 570.3 138.91 570.3 183 C 570.3 224.29 601.38 258.34 641.18 262.24 C 658.62 304.1 718.05 298.52 718.05 298.52 C 692.42 292.94 683.15 272.85 679.34 256.1 Z" fill="#00329D" stroke="none" />
</g>
<g id="shape-117" data-name="lemon34">
<rect x="593.93" y="139.95" width="117.77" height="51.7" fill="none" stroke="none" />
<text x="652.82" y="176.21" text-anchor="middle" xml:space="preserve" font-family="Roboto, &quot;思源黑体 CN Regular&quot;, sans-serif" font-size="42.67" fill="#FFFFFF" font-weight="bold"><tspan fill="#FFFFFF" font-size="42.67" font-weight="bold">100%</tspan></text>
</g>
<g id="shape-118" data-name="lemon35">
<rect x="592.63" y="189.79" width="117.77" height="32.31" fill="none" stroke="none" />
<text x="651.52" y="212.45" text-anchor="middle" xml:space="preserve" font-family="Roboto, &quot;思源黑体 CN Regular&quot;, sans-serif" font-size="26.67" fill="#FFFFFF"><tspan fill="#FFFFFF" font-size="26.67">上升趋势</tspan></text>
</g>
<g id="shape-138" data-name="lemon36">
<rect x="74.05" y="152.78" width="151.83" height="149.83" rx="0" ry="0" fill="#B8CFFF" stroke="none" stroke-width="1" />
</g>
<g id="shape-139" data-name="lemon37">
<rect x="79.71" y="254.11" width="140.5" height="38.78" fill="none" stroke="none" />
<text x="149.96" y="279.31" text-anchor="middle" xml:space="preserve" font-family="Roboto, &quot;思源黑体 CN Regular&quot;, sans-serif" font-size="24" fill="#00329D"><tspan fill="#00329D" font-size="24">PART 01</tspan></text>
</g>
<g id="shape-140" data-name="lemon38">
<rect x="244.71" y="152.78" width="151.83" height="149.83" rx="0" ry="0" fill="#DAE6FE" stroke="none" stroke-width="1" />
</g>
<g id="shape-141" data-name="lemon39">
<rect x="250.21" y="253.95" width="140.67" height="38.78" fill="none" stroke="none" />
<text x="320.55" y="279.15" text-anchor="middle" xml:space="preserve" font-family="Roboto, &quot;思源黑体 CN Regular&quot;, sans-serif" font-size="24" fill="#00329D"><tspan fill="#00329D" font-size="24">PART 02</tspan></text>
</g>
<g id="shape-142" data-name="lemon40">
<rect x="61.14" y="540.76" width="335.4" height="74.56" fill="none" />
<text x="70.74" y="577.43" text-anchor="start" xml:space="preserve" font-family="Roboto, &quot;思源黑体 CN Regular&quot;, sans-serif" font-size="18.67" fill="#F8F8F8"><tspan fill="#F8F8F8" font-size="18.67">结合</tspan><tspan fill="#F8F8F8" font-size="18.67">2023</tspan><tspan fill="#F8F8F8" font-size="18.67">年度数据，可以看出用户对</tspan><tspan x="70.74" dy="28" fill="#F8F8F8" font-size="18.67">于产品品牌的关注更加强烈。</tspan></text>
</g>
<g id="shape-143" data-name="lemon41">
<rect x="61.14" y="443.65" width="350.86" height="74.56" fill="none" />
<text x="70.74" y="480.32" text-anchor="start" xml:space="preserve" font-family="Roboto, &quot;思源黑体 CN Regular&quot;, sans-serif" font-size="18.67" fill="#000000"><tspan fill="#000000" font-size="18.67">结合</tspan><tspan fill="#000000" font-size="18.67">2023</tspan><tspan fill="#000000" font-size="18.67">年度数据，可以看出用户对于</tspan><tspan x="70.74" dy="28" fill="#000000" font-size="18.67">产品品牌的关注更加强烈。</tspan></text>
</g>
<g id="shape-145" data-name="lemon42">
<image href="assets/image22.png" x="101.35" y="161" width="87.02" height="87.02" preserveAspectRatio="none" />
</g>
<g id="shape-147" data-name="lemon43">
<image href="assets/image24.png" x="281.03" y="166.14" width="79.1" height="79.1" preserveAspectRatio="none" />
</g>
<g id="shape-2" data-name="lemon44">
<rect x="590.33" y="427.98" width="116.41" height="48.79" fill="none" />
<text x="648.54" y="453.18" text-anchor="middle" xml:space="preserve" font-family="Roboto, &quot;思源黑体 CN Regular&quot;, sans-serif" font-size="24" fill="#FEFEFE" font-weight="bold"><tspan fill="#FEFEFE" font-size="24" font-weight="bold">PART 02</tspan></text>
</g>
<g id="shape-3" data-name="lemon45">
<rect x="585.03" y="507.22" width="116.41" height="48.79" fill="none" />
<text x="643.24" y="532.42" text-anchor="middle" xml:space="preserve" font-family="Roboto, &quot;思源黑体 CN Regular&quot;, sans-serif" font-size="24" fill="#FEFEFE" font-weight="bold"><tspan fill="#FEFEFE" font-size="24" font-weight="bold">PART 03</tspan></text>
</g>
<g id="shape-20" data-name="lemon46">
<rect x="589.13" y="588.56" width="116.41" height="48.79" fill="none" />
<text x="647.34" y="613.76" text-anchor="middle" xml:space="preserve" font-family="Roboto, &quot;思源黑体 CN Regular&quot;, sans-serif" font-size="24" fill="#FEFEFE" font-weight="bold"><tspan fill="#FEFEFE" font-size="24" font-weight="bold">PART 04</tspan></text>
</g>
<g id="shape-17" data-name="矩形: 圆角 7" transform="translate(645.89 75.56) scale(1 -1) translate(-645.89 -75.56)">
<rect x="48.06" y="73.16" width="1195.66" height="4.8" rx="0.8" ry="0.8" fill="#00329D" stroke="none" stroke-width="1" />
</g>
<g id="shape-18" data-name="Venn diagram">
<rect x="45.98" y="21.48" width="698.35" height="44.16" stroke-width="1.333" stroke-linejoin="miter" fill="none" />
<text x="48.64" y="51.35" text-anchor="start" xml:space="preserve" font-family="&quot;思源黑体 CN Bold&quot;, &quot;思源黑体 CN Regular&quot;, sans-serif" font-size="32" fill="#00329D" font-weight="bold"><tspan fill="#00329D" font-size="32">{{CHAPTER_DESC}}</tspan></text>
</g></svg>