<?xml version='1.0' encoding='utf-8'?>
<svg xmlns="http://www.w3.org/2000/svg" version="1.1" width="1280" height="720" viewBox="0 0 1280 720"><rect x="0" y="0" width="1280" height="720" fill="#FFFFFF" />
<g id="shape-2" data-name="熊大的PPT宝库1">
<rect x="36.62" y="22.78" width="277.89" height="61.39" fill="none" />
<text x="46.22" y="47.98" text-anchor="start" xml:space="preserve" font-family="sans-serif" font-size="24" fill="#000000"><tspan fill="#000000" font-size="24">{{PAGE_TITLE}}</tspan></text>
</g>
<g id="shape-4" data-name="熊大的PPT宝库3">
<rect x="45.67" y="90.57" width="1190.55" height="4.91" fill="#00329D" stroke-width="0.667" stroke="#F2F2F2" />
</g>
<g id="shape-5" data-name="熊大的PPT宝库4">
<path d="M 836.5 103.73 L 47.7 103.73 L 47.7 231.17 L 836.5 231.17 L 836.5 103.73 Z" fill="#00329D" />
</g>
<g id="shape-13" data-name="熊大的PPT宝库5">
<line x1="219.43" y1="135" x2="219.43" y2="215.58" stroke="#FFFFFF" fill="#00329D" stroke-width="1" />
</g>
<g id="shape-14" data-name="熊大的PPT宝库6">
<line x1="429.43" y1="135" x2="429.43" y2="215.58" stroke="#FFFFFF" fill="#00329D" stroke-width="1" />
</g>
<g id="shape-15" data-name="熊大的PPT宝库7">
<line x1="639.43" y1="135" x2="639.43" y2="215.58" stroke="#FFFFFF" fill="#00329D" stroke-width="1" />
</g>
<g id="shape-21" data-name="熊大的PPT宝库8">
<rect x="79.71" y="131.24" width="107.71" height="25.85" fill="none" />
<text x="133.57" y="149.37" text-anchor="middle" xml:space="preserve" font-family="Roboto, &quot;思源黑体 CN Regular&quot;, sans-serif" font-size="21.33" fill="#FFFFFF"><tspan fill="#FFFFFF" font-size="21.33">年度销售额</tspan></text>
</g>
<g id="shape-29" data-name="熊大的PPT宝库9">
<rect x="67.09" y="161.21" width="132.95" height="51.7" fill="none" />
<text x="67.09" y="197.48" text-anchor="start" xml:space="preserve" font-family="Roboto, &quot;思源黑体 CN Regular&quot;, sans-serif" font-size="42.67" fill="#FFFFFF"><tspan fill="#FFFFFF" font-size="42.67">45605</tspan></text>
</g>
<g id="shape-30" data-name="熊大的PPT宝库10">
<rect x="270.83" y="131.24" width="107.71" height="25.85" fill="none" />
<text x="324.68" y="149.37" text-anchor="middle" xml:space="preserve" font-family="Roboto, &quot;思源黑体 CN Regular&quot;, sans-serif" font-size="21.33" fill="#FFFFFF"><tspan fill="#FFFFFF" font-size="21.33">目标达成率</tspan></text>
</g>
<g id="shape-31" data-name="熊大的PPT宝库11">
<rect x="258.21" y="161.21" width="132.95" height="51.7" fill="none" />
<text x="324.68" y="197.48" text-anchor="middle" xml:space="preserve" font-family="Roboto, &quot;思源黑体 CN Regular&quot;, sans-serif" font-size="42.67" fill="#FFFFFF"><tspan fill="#FFFFFF" font-size="42.67">115%</tspan></text>
</g>
<g id="shape-33" data-name="熊大的PPT宝库12">
<rect x="448.52" y="131.24" width="172.33" height="25.85" fill="none" />
<text x="534.68" y="149.37" text-anchor="middle" xml:space="preserve" font-family="Roboto, &quot;思源黑体 CN Regular&quot;, sans-serif" font-size="21.33" fill="#FFFFFF"><tspan fill="#FFFFFF" font-size="21.33">全年主营产品销售</tspan></text>
</g>
<g id="shape-34" data-name="熊大的PPT宝库13">
<rect x="468.21" y="161.21" width="132.95" height="51.7" fill="none" />
<text x="468.21" y="197.48" text-anchor="start" xml:space="preserve" font-family="Roboto, &quot;思源黑体 CN Regular&quot;, sans-serif" font-size="42.67" fill="#FFFFFF"><tspan fill="#FFFFFF" font-size="42.67">42631</tspan></text>
</g>
<g id="shape-35" data-name="熊大的PPT宝库14">
<rect x="669.29" y="131.24" width="150.79" height="25.85" fill="none" />
<text x="744.68" y="149.37" text-anchor="middle" xml:space="preserve" font-family="Roboto, &quot;思源黑体 CN Regular&quot;, sans-serif" font-size="21.33" fill="#FFFFFF"><tspan fill="#FFFFFF" font-size="21.33">最大渠道销售额</tspan></text>
</g>
<g id="shape-41" data-name="熊大的PPT宝库15">
<rect x="678.21" y="161.21" width="132.95" height="51.7" fill="none" />
<text x="678.21" y="197.48" text-anchor="start" xml:space="preserve" font-family="Roboto, &quot;思源黑体 CN Regular&quot;, sans-serif" font-size="42.67" fill="#FFFFFF"><tspan fill="#FFFFFF" font-size="42.67">34587</tspan></text>
</g>
<g id="shape-42" data-name="熊大的PPT宝库16">
<path d="M 435.72 234.84 L 47.7 234.84 L 47.7 383.4 L 435.72 383.4 L 435.72 234.84 Z" fill="#729FFF" />
</g>
<g id="shape-43" data-name="熊大的PPT宝库17">
<path d="M 836.54 234.84 L 443.5 234.84 L 443.5 382.11 L 836.54 382.11 L 836.54 234.84 Z" fill="#2B6FFF" />
</g>
<g id="shape-44" data-name="熊大的PPT宝库18">
<path d="M 1232.22 102.04 L 844.2 102.04 L 844.2 661.85 L 1232.22 661.85 L 1232.22 102.04 Z" fill="#F2F2F2" stroke="none" stroke-width="1" />
</g>
<g id="shape-45" data-name="熊大的PPT宝库19">
<path d="M 836.5 389.82 L 46.5 389.82 L 46.5 662.1 L 836.5 662.1 L 836.5 389.82 Z" fill="#F2F2F2" stroke="none" stroke-width="1" />
</g>
<g id="shape-46" data-name="熊大的PPT宝库20">
<path d="M 86.98 270.34 L 95.8 270.34 C 96.16 270.34 96.46 270.63 96.46 270.99 L 96.46 284.7 C 96.46 285.06 96.16 285.35 95.8 285.35 L 86.98 285.35 C 86.62 285.35 86.33 285.06 86.33 284.7 L 86.33 270.99 C 86.33 270.63 86.62 270.34 86.98 270.34 Z M 77.83 264.39 L 78.65 264.39 L 80.67 265.13 L 80.67 284.7 C 80.67 285.06 80.37 285.35 80.02 285.35 L 71.19 285.35 C 70.83 285.35 70.54 285.06 70.54 284.7 L 70.54 271.96 Z M 107.04 254.99 L 108.63 256.36 C 109.06 256.68 109.61 256.88 110.16 256.88 C 110.52 256.88 110.91 256.81 111.24 256.62 C 111.27 256.62 111.3 256.58 111.37 256.55 L 111.37 284.7 C 111.37 285.06 111.07 285.35 110.72 285.35 L 101.86 285.35 C 101.5 285.35 101.21 285.06 101.21 284.7 L 101.21 261.33 Z M 109.71 246.54 C 109.97 246.51 110.23 246.7 110.23 246.96 L 110.91 254.57 C 110.94 254.76 110.81 254.96 110.65 255.02 C 110.49 255.12 110.26 255.12 110.1 254.99 L 106.97 252.36 L 93.59 266.95 C 93.23 267.34 92.68 267.47 92.19 267.28 L 77.64 261.95 L 69.34 270.59 C 69.08 270.85 68.75 270.98 68.4 270.98 C 68.07 270.98 67.74 270.85 67.48 270.63 C 66.96 270.11 66.96 269.29 67.45 268.77 L 76.34 259.54 C 76.7 259.15 77.25 259.02 77.74 259.22 L 92.26 264.55 L 104.99 250.7 L 101.83 248.07 C 101.73 248 101.67 247.87 101.67 247.74 C 101.67 247.68 101.67 247.61 101.7 247.55 C 101.73 247.35 101.93 247.22 102.12 247.22 Z" fill="#FFFFFF" stroke="none" stroke-width="1" />
</g>
<g id="shape-47" data-name="熊大的PPT宝库21">
<rect x="122.93" y="241.13" width="110.23" height="45.24" fill="none" />
<text x="122.93" y="272.86" text-anchor="start" xml:space="preserve" font-family="Roboto, &quot;思源黑体 CN Regular&quot;, sans-serif" font-size="37.33" fill="#FFFFFF"><tspan fill="#FFFFFF" font-size="37.33">36516</tspan></text>
</g>
<g id="shape-48" data-name="熊大的PPT宝库22">
<rect x="240.79" y="260.99" width="32.31" height="19.39" fill="none" />
<text x="240.79" y="274.59" text-anchor="start" xml:space="preserve" font-family="Roboto, &quot;思源黑体 CN Regular&quot;, sans-serif" font-size="16" fill="#FFFFFF"><tspan fill="#FFFFFF" font-size="16">万元</tspan></text>
</g>
<g id="shape-49" data-name="熊大的PPT宝库23">
<rect x="297.53" y="241.13" width="93.4" height="45.24" fill="none" />
<text x="297.53" y="263.79" text-anchor="start" xml:space="preserve" font-family="Roboto, &quot;思源黑体 CN Regular&quot;, sans-serif" font-size="26.67" fill="#FFFFFF"><tspan fill="#FFFFFF" font-size="26.67">+</tspan><tspan fill="#FFFFFF" font-size="37.33">72%</tspan></text>
</g>
<g id="shape-50" data-name="熊大的PPT宝库24">
<polygon points="404.5,266.98 404.5,257.53 399.73,257.53 409.27,248.08 418.82,257.53 414.04,257.53 414.04,266.98" fill="#FFFFFF" stroke="none" />
</g>
<g id="shape-51" data-name="熊大的PPT宝库25">
<path d="M 483.34 270.34 L 492.16 270.34 C 492.52 270.34 492.81 270.63 492.81 270.99 L 492.81 284.7 C 492.81 285.06 492.52 285.35 492.16 285.35 L 483.34 285.35 C 482.98 285.35 482.68 285.06 482.68 284.7 L 482.68 270.99 C 482.68 270.63 482.98 270.34 483.34 270.34 Z M 474.19 264.39 L 475 264.39 L 477.02 265.13 L 477.02 284.7 C 477.02 285.06 476.73 285.35 476.37 285.35 L 467.55 285.35 C 467.19 285.35 466.9 285.06 466.9 284.7 L 466.9 271.96 Z M 503.39 254.99 L 504.99 256.36 C 505.41 256.68 505.96 256.88 506.52 256.88 C 506.87 256.88 507.27 256.81 507.59 256.62 C 507.62 256.62 507.66 256.58 507.72 256.55 L 507.72 284.7 C 507.72 285.06 507.43 285.35 507.07 285.35 L 498.22 285.35 C 497.86 285.35 497.56 285.06 497.56 284.7 L 497.56 261.33 Z M 506.06 246.54 C 506.32 246.51 506.58 246.7 506.58 246.96 L 507.27 254.57 C 507.3 254.76 507.17 254.96 507 255.02 C 506.84 255.12 506.61 255.12 506.45 254.99 L 503.33 252.36 L 489.95 266.95 C 489.59 267.34 489.03 267.47 488.55 267.28 L 473.99 261.95 L 465.69 270.59 C 465.43 270.85 465.11 270.98 464.75 270.98 C 464.42 270.98 464.1 270.85 463.84 270.63 C 463.32 270.11 463.32 269.29 463.81 268.77 L 472.69 259.54 C 473.05 259.15 473.6 259.02 474.09 259.22 L 488.61 264.55 L 501.34 250.7 L 498.18 248.07 C 498.09 248 498.02 247.87 498.02 247.74 C 498.02 247.68 498.02 247.61 498.05 247.55 C 498.09 247.35 498.28 247.22 498.48 247.22 Z" fill="#FFFFFF" stroke="none" stroke-width="1" />
</g>
<g id="shape-52" data-name="熊大的PPT宝库26">
<rect x="529.23" y="241.13" width="92.23" height="45.24" fill="none" />
<text x="529.23" y="272.86" text-anchor="start" xml:space="preserve" font-family="Roboto, &quot;思源黑体 CN Regular&quot;, sans-serif" font-size="37.33" fill="#FFFFFF"><tspan fill="#FFFFFF" font-size="37.33">9089</tspan></text>
</g>
<g id="shape-53" data-name="熊大的PPT宝库27">
<rect x="632.17" y="260.99" width="32.31" height="19.39" fill="none" />
<text x="632.17" y="274.59" text-anchor="start" xml:space="preserve" font-family="Roboto, &quot;思源黑体 CN Regular&quot;, sans-serif" font-size="16" fill="#FFFFFF"><tspan fill="#FFFFFF" font-size="16">万元</tspan></text>
</g>
<g id="shape-54" data-name="熊大的PPT宝库28">
<rect x="700.08" y="241.13" width="89.2" height="45.24" fill="none" />
<text x="700.08" y="263.79" text-anchor="start" xml:space="preserve" font-family="Roboto, &quot;思源黑体 CN Regular&quot;, sans-serif" font-size="26.67" fill="#FFFFFF"><tspan fill="#FFFFFF" font-size="26.67">-</tspan><tspan fill="#FFFFFF" font-size="37.33">48%</tspan></text>
</g>
<g id="shape-55" data-name="熊大的PPT宝库29" transform="translate(805.63 257.53) scale(1 -1) translate(-805.63 -257.53)">
<polygon points="800.86,266.98 800.86,257.53 796.08,257.53 805.63,248.08 815.17,257.53 810.4,257.53 810.4,266.98" fill="#FFFFFF" stroke="none" />
</g>
<g id="shape-56" data-name="熊大的PPT宝库30">
<rect x="69.63" y="298.06" width="86.17" height="25.85" fill="none" />
<text x="112.71" y="316.2" text-anchor="middle" xml:space="preserve" font-family="Roboto, &quot;思源黑体 CN Regular&quot;, sans-serif" font-size="21.33" fill="#FFFFFF"><tspan fill="#FFFFFF" font-size="21.33">渠道销售</tspan></text>
</g>
<g id="shape-57" data-name="熊大的PPT宝库31">
<rect x="463.09" y="298.06" width="86.17" height="25.85" fill="none" />
<text x="506.17" y="316.2" text-anchor="middle" xml:space="preserve" font-family="Roboto, &quot;思源黑体 CN Regular&quot;, sans-serif" font-size="21.33" fill="#FFFFFF"><tspan fill="#FFFFFF" font-size="21.33">直销销售</tspan></text>
</g>
<g id="shape-58" data-name="熊大的PPT宝库32">
<rect x="69.63" y="325.92" width="349.19" height="48.8" fill="none" />
<text x="69.63" y="339.52" text-anchor="start" xml:space="preserve" font-family="Roboto, &quot;思源黑体 CN Regular&quot;, sans-serif" font-size="16" fill="#FFFFFF"><tspan fill="#FFFFFF" font-size="16">{{CONTENT_1}}</tspan></text>
</g>
<g id="shape-59" data-name="熊大的PPT宝库33">
<rect x="463.6" y="322" width="356.48" height="48.8" fill="none" />
<text x="463.6" y="335.6" text-anchor="start" xml:space="preserve" font-family="Roboto, &quot;思源黑体 CN Regular&quot;, sans-serif" font-size="16" fill="#FFFFFF"><tspan fill="#FFFFFF" font-size="16">{{CONTENT_2}}</tspan></text>
</g>
<g id="shape-60" data-name="熊大的PPT宝库34">
<rect x="56.31" y="425.11" width="763.77" height="217.95" fill="none" stroke="#999999" stroke-dasharray="4 4" /><text x="438.19" y="534.08" text-anchor="middle" font-size="14" fill="#999999">[chart]</text>
</g>
<g id="shape-61" data-name="熊大的PPT宝库35">
<rect x="56.31" y="393.33" width="428.52" height="42.01" fill="none" />
<text x="65.91" y="420.79" text-anchor="start" xml:space="preserve" font-family="Roboto, &quot;思源黑体 CN Regular&quot;, sans-serif" font-size="26.67" fill="#00329D"><tspan fill="#00329D" font-size="26.67">{{CONTENT_3}}</tspan></text>
</g>
<g id="shape-62" data-name="熊大的PPT宝库36">
<rect x="858.06" y="94.68" width="346.41" height="212.58" fill="none" stroke="#999999" stroke-dasharray="4 4" /><text x="1031.26" y="200.97" text-anchor="middle" font-size="14" fill="#999999">[chart]</text>
</g>
<g id="shape-63" data-name="熊大的PPT宝库37">
<rect x="865.69" y="324.59" width="18.13" height="18.67" fill="#00329D" stroke="none" />
</g>
<g id="shape-64" data-name="熊大的PPT宝库38">
<rect x="865.69" y="410.45" width="18.13" height="18.67" fill="#2B6FFF" stroke="none" />
</g>
<g id="shape-65" data-name="熊大的PPT宝库39">
<rect x="865.69" y="492.97" width="18.13" height="18.67" fill="#729FFF" stroke="none" />
</g>
<g id="shape-66" data-name="熊大的PPT宝库40">
<rect x="865.69" y="575.48" width="18.13" height="18.67" fill="#000000" stroke="none" />
</g>
<g id="shape-67" data-name="熊大的PPT宝库41">
<rect x="899.4" y="317.73" width="84.07" height="32.33" fill="none" />
<text x="899.4" y="340.4" text-anchor="start" xml:space="preserve" font-family="Roboto, &quot;思源黑体 CN Regular&quot;, sans-serif" font-size="26.67" fill="#00329D"><tspan fill="#00329D" font-size="26.67">4000</tspan></text>
</g>
<g id="shape-68" data-name="熊大的PPT宝库42">
<rect x="969.89" y="325.77" width="32.31" height="19.39" fill="none" />
<text x="969.89" y="339.37" text-anchor="start" xml:space="preserve" font-family="Roboto, &quot;思源黑体 CN Regular&quot;, sans-serif" font-size="16" fill="#00329D"><tspan fill="#00329D" font-size="16">万元</tspan></text>
</g>
<g id="shape-69" data-name="熊大的PPT宝库43">
<rect x="899.4" y="403.8" width="84.07" height="32.33" fill="none" />
<text x="899.4" y="426.47" text-anchor="start" xml:space="preserve" font-family="Roboto, &quot;思源黑体 CN Regular&quot;, sans-serif" font-size="26.67" fill="#2B6FFF"><tspan fill="#2B6FFF" font-size="26.67">2000</tspan></text>
</g>
<g id="shape-70" data-name="熊大的PPT宝库44">
<rect x="969.89" y="411.81" width="32.31" height="19.39" fill="none" />
<text x="969.89" y="425.41" text-anchor="start" xml:space="preserve" font-family="Roboto, &quot;思源黑体 CN Regular&quot;, sans-serif" font-size="16" fill="#2B6FFF"><tspan fill="#2B6FFF" font-size="16">万元</tspan></text>
</g>
<g id="shape-71" data-name="熊大的PPT宝库45">
<rect x="899.4" y="486.53" width="84.07" height="32.33" fill="none" />
<text x="899.4" y="509.2" text-anchor="start" xml:space="preserve" font-family="Roboto, &quot;思源黑体 CN Regular&quot;, sans-serif" font-size="26.67" fill="#729FFF"><tspan fill="#729FFF" font-size="26.67">3000</tspan></text>
</g>
<g id="shape-72" data-name="熊大的PPT宝库46">
<rect x="969.89" y="494.5" width="32.31" height="19.39" fill="none" />
<text x="969.89" y="508.1" text-anchor="start" xml:space="preserve" font-family="Roboto, &quot;思源黑体 CN Regular&quot;, sans-serif" font-size="16" fill="#729FFF"><tspan fill="#729FFF" font-size="16">万元</tspan></text>
</g>
<g id="shape-73" data-name="熊大的PPT宝库47">
<rect x="899.4" y="569.2" width="79.13" height="32.33" fill="none" />
<text x="899.4" y="591.87" text-anchor="start" xml:space="preserve" font-family="Roboto, &quot;思源黑体 CN Regular&quot;, sans-serif" font-size="26.67" fill="#000000"><tspan fill="#000000" font-size="26.67">1000</tspan></text>
</g>
<g id="shape-74" data-name="熊大的PPT宝库48">
<rect x="969.89" y="577.19" width="32.31" height="19.39" fill="none" />
<text x="969.89" y="590.79" text-anchor="start" xml:space="preserve" font-family="Roboto, &quot;思源黑体 CN Regular&quot;, sans-serif" font-size="16" fill="#000000"><tspan fill="#000000" font-size="16">万元</tspan></text>
</g>
<g id="shape-75" data-name="熊大的PPT宝库49" transform="translate(1040.79 369.68) scale(-1 1) translate(-1040.79 -369.68)">
<rect x="865.05" y="346.52" width="351.5" height="46.31" stroke="none" fill="none" />
<text x="865.05" y="357.86" text-anchor="start" xml:space="preserve" font-family="Roboto, &quot;思源黑体 CN Regular&quot;, sans-serif" font-size="13.33" fill="#000000"><tspan fill="#000000" font-size="13.33">大个险年度期交</tspan><tspan fill="#000000" font-size="13.33">41260</tspan><tspan fill="#000000" font-size="13.33">万，目标达成率</tspan><tspan fill="#000000" font-size="13.33">97%</tspan><tspan fill="#000000" font-size="13.33">，系统排名</tspan><tspan fill="#000000" font-size="13.33">8</tspan><tspan fill="#000000" font-size="13.33">名；</tspan><tspan x="865.05" dy="20" fill="#000000" font-size="13.33">同比成长率</tspan><tspan fill="#000000" font-size="13.33">52%</tspan><tspan fill="#000000" font-size="13.33">，成长率系统排名</tspan><tspan fill="#000000" font-size="13.33">2</tspan><tspan fill="#000000" font-size="13.33">名。</tspan></text>
</g>
<g id="shape-76" data-name="熊大的PPT宝库50" transform="translate(1040.79 455.34) scale(-1 1) translate(-1040.79 -455.34)">
<rect x="865.05" y="432.18" width="351.5" height="46.31" stroke="none" fill="none" />
<text x="865.05" y="443.51" text-anchor="start" xml:space="preserve" font-family="Roboto, &quot;思源黑体 CN Regular&quot;, sans-serif" font-size="13.33" fill="#000000"><tspan fill="#000000" font-size="13.33">大个险年度期交</tspan><tspan fill="#000000" font-size="13.33">41260</tspan><tspan fill="#000000" font-size="13.33">万，目标达成率</tspan><tspan fill="#000000" font-size="13.33">97%</tspan><tspan fill="#000000" font-size="13.33">，系统排名</tspan><tspan fill="#000000" font-size="13.33">8</tspan><tspan fill="#000000" font-size="13.33">名；</tspan><tspan x="865.05" dy="20" fill="#000000" font-size="13.33">同比成长率</tspan><tspan fill="#000000" font-size="13.33">52%</tspan><tspan fill="#000000" font-size="13.33">，成长率系统排名</tspan><tspan fill="#000000" font-size="13.33">2</tspan><tspan fill="#000000" font-size="13.33">名。</tspan></text>
</g>
<g id="shape-77" data-name="熊大的PPT宝库51" transform="translate(1040.79 538.99) scale(-1 1) translate(-1040.79 -538.99)">
<rect x="865.05" y="515.83" width="351.5" height="46.31" stroke="none" fill="none" />
<text x="865.05" y="527.17" text-anchor="start" xml:space="preserve" font-family="Roboto, &quot;思源黑体 CN Regular&quot;, sans-serif" font-size="13.33" fill="#000000"><tspan fill="#000000" font-size="13.33">大个险年度期交</tspan><tspan fill="#000000" font-size="13.33">41260</tspan><tspan fill="#000000" font-size="13.33">万，目标达成率</tspan><tspan fill="#000000" font-size="13.33">97%</tspan><tspan fill="#000000" font-size="13.33">，系统排名</tspan><tspan fill="#000000" font-size="13.33">8</tspan><tspan fill="#000000" font-size="13.33">名；</tspan><tspan x="865.05" dy="20" fill="#000000" font-size="13.33">同比成长率</tspan><tspan fill="#000000" font-size="13.33">52%</tspan><tspan fill="#000000" font-size="13.33">，成长率系统排名</tspan><tspan fill="#000000" font-size="13.33">2</tspan><tspan fill="#000000" font-size="13.33">名。</tspan></text>
</g>
<g id="shape-78" data-name="熊大的PPT宝库52" transform="translate(1040.79 626.3) scale(-1 1) translate(-1040.79 -626.3)">
<rect x="865.05" y="603.14" width="351.5" height="46.31" stroke="none" fill="none" />
<text x="865.05" y="614.47" text-anchor="start" xml:space="preserve" font-family="Roboto, &quot;思源黑体 CN Regular&quot;, sans-serif" font-size="13.33" fill="#000000"><tspan fill="#000000" font-size="13.33">大个险年度期交</tspan><tspan fill="#000000" font-size="13.33">41260</tspan><tspan fill="#000000" font-size="13.33">万，目标达成率</tspan><tspan fill="#000000" font-size="13.33">97%</tspan><tspan fill="#000000" font-size="13.33">，系统排名</tspan><tspan fill="#000000" font-size="13.33">8</tspan><tspan fill="#000000" font-size="13.33">名；</tspan><tspan x="865.05" dy="20" fill="#000000" font-size="13.33">同比成长率</tspan><tspan fill="#000000" font-size="13.33">52%</tspan><tspan fill="#000000" font-size="13.33">，成长率系统排名</tspan><tspan fill="#000000" font-size="13.33">2</tspan><tspan fill="#000000" font-size="13.33">名。</tspan></text>
</g></svg>