<?xml version='1.0' encoding='utf-8'?>
<svg xmlns="http://www.w3.org/2000/svg" version="1.1" width="1280" height="720" viewBox="0 0 1280 720"><rect x="0" y="0" width="1280" height="720" fill="#FFFFFF" />
<g id="layout-shape-142" data-name="组合 141">
<g id="layout-shape-2" data-name="组合 1">
<g id="layout-shape-3" data-name="任意多边形: 形状 2">
<path d="M 942.49 721.23 L 1314.2 349.53 L 1314.2 473.43 L 942.49 845.12 Z" fill="#F2634B" stroke-width="1" stroke-linecap="butt" stroke="none" stroke-linejoin="miter" />
</g>
<g id="layout-shape-4" data-name="任意多边形: 形状 3">
<path d="M 1062.38 602.76 C 1062.38 575.4 1051.93 548.05 1031.06 527.16 L 1106.66 602.76 L 1031.06 678.36 C 1051.93 657.49 1062.38 630.11 1062.38 602.76 Z" fill="#2B357A" stroke-width="1" stroke-linecap="butt" stroke="none" stroke-linejoin="miter" />
</g>
<g id="layout-shape-5" data-name="任意多边形: 形状 4">
<path d="M 955.47 602.76 L 1006.06 552.17 C 1020.03 566.14 1027 584.44 1027 602.76 C 1027 621.08 1020.03 639.37 1006.06 653.35 L 955.47 602.76 Z" fill="#2B357A" stroke-width="1" stroke-linecap="butt" stroke="none" stroke-linejoin="miter" />
</g>
<g id="layout-shape-6" data-name="任意多边形: 形状 5">
<path d="M 955.47 602.76 L 1006.06 552.17 C 1020.03 566.14 1027 584.44 1027 602.76 C 1027 621.08 1020.03 639.37 1006.06 653.35 L 955.47 602.76 Z" fill="#FFFFFF" stroke-width="1" stroke-linecap="butt" stroke="none" stroke-linejoin="miter" />
</g>
<g id="layout-shape-7" data-name="任意多边形: 形状 6">
<path d="M 955.47 602.76 L 1006.06 552.17 C 1020.03 566.14 1027 584.44 1027 602.76 C 1027 621.08 1020.03 639.37 1006.06 653.35 L 955.47 602.76 Z" fill="#61C9DC" stroke-width="1" stroke-linecap="butt" stroke="none" stroke-linejoin="miter" />
</g>
<g id="layout-shape-8" data-name="任意多边形: 形状 7">
<path d="M 1143.3 639.58 L 1179.89 602.98 L 1143.3 566.41 L 1106.72 529.81 L 1070.13 566.41 L 1106.72 602.98 L 1070.13 639.58 L 1106.72 676.17 Z" fill="#F2634B" stroke-width="1" stroke-linecap="butt" stroke="none" stroke-linejoin="miter" />
</g>
<g id="layout-shape-9" data-name="任意多边形: 形状 8">
<path d="M 1106.72 602.98 L 1106.72 529.81 L 1070.13 566.41 Z" fill="#FAA718" stroke-width="1" stroke-linecap="butt" stroke="none" stroke-linejoin="miter" />
</g>
<g id="layout-shape-10" data-name="任意多边形: 形状 9">
<path d="M 1353.77 650.31 L 1201.09 496.81 L 1179.75 518.12 L 1332.45 671.62 Z" fill="#2B357A" stroke-width="1" stroke-linecap="butt" stroke="none" stroke-linejoin="miter" />
</g>
<g id="layout-shape-11" data-name="任意多边形: 形状 10">
<path d="M 1137.12 560.78 L 1179.75 603.41 L 1137.12 646.07 L 1179.75 688.7 L 1222.4 646.07 L 1265.04 603.41 L 1222.4 560.78 L 1179.75 518.12 Z" fill="#FAA718" stroke-width="1" stroke-linecap="butt" stroke="none" stroke-linejoin="miter" />
</g>
<g id="layout-shape-12" data-name="任意多边形: 形状 11">
<path d="M 941.72 602.76 C 941.72 612.2 934.06 619.85 924.62 619.85 C 915.18 619.85 907.53 612.2 907.53 602.76 C 907.53 593.32 915.18 585.66 924.62 585.66 C 934.06 585.66 941.72 593.32 941.72 602.76 Z" fill="#FAA718" stroke-width="1" stroke-linecap="butt" stroke="none" stroke-linejoin="miter" />
</g>
<g id="layout-shape-13" data-name="任意多边形: 形状 12">
<path d="M 1269.71 693.82 L 1179.2 603.31 L 1209.37 573.14 L 1299.88 663.65 Z" fill="#61C9DC" stroke-width="1" stroke-linecap="butt" stroke="none" stroke-linejoin="miter" />
</g>
<g id="layout-shape-14" data-name="任意多边形: 形状 13">
<path d="M 1218.12 611.14 C 1219.51 609.76 1219.51 607.51 1218.12 606.12 C 1216.73 604.74 1214.49 604.74 1213.1 606.12 C 1211.71 607.51 1211.71 609.76 1213.1 611.14 C 1214.49 612.53 1216.73 612.53 1218.12 611.14 Z" fill="#2B357A" stroke-width="1" stroke-linecap="butt" stroke="none" stroke-linejoin="miter" />
</g>
<g id="layout-shape-15" data-name="任意多边形: 形状 14">
<path d="M 1244.94 637.97 C 1246.33 636.58 1246.33 634.34 1244.94 632.95 C 1243.56 631.56 1241.31 631.56 1239.93 632.95 C 1238.54 634.34 1238.54 636.58 1239.93 637.97 C 1241.31 639.35 1243.56 639.35 1244.94 637.97 Z" fill="#2B357A" stroke-width="1" stroke-linecap="butt" stroke="none" stroke-linejoin="miter" />
</g>
<g id="layout-shape-16" data-name="任意多边形: 形状 15">
<path d="M 1272.81 662.28 C 1272.81 664.24 1271.22 665.83 1269.26 665.83 C 1267.3 665.83 1265.71 664.24 1265.71 662.28 C 1265.71 660.32 1267.3 658.73 1269.26 658.73 C 1271.22 658.73 1272.81 660.32 1272.81 662.28 Z" fill="#2B357A" stroke-width="1" stroke-linecap="butt" stroke="none" stroke-linejoin="miter" />
</g>
<g id="layout-shape-17" data-name="任意多边形: 形状 16">
<path d="M 1170.63 390.23 C 1170.63 391.41 1169.67 392.37 1168.49 392.37 C 1167.31 392.37 1166.35 391.41 1166.35 390.23 C 1166.35 389.04 1167.31 388.08 1168.49 388.08 C 1169.67 388.08 1170.63 389.04 1170.63 390.23 Z" fill="#FAA718" stroke-width="1" stroke-linecap="butt" stroke="none" stroke-linejoin="miter" />
</g>
<g id="layout-shape-18" data-name="任意多边形: 形状 17">
<path d="M 1187.77 390.23 C 1187.77 391.41 1186.81 392.37 1185.62 392.37 C 1184.44 392.37 1183.48 391.41 1183.48 390.23 C 1183.48 389.04 1184.44 388.08 1185.62 388.08 C 1186.79 388.08 1187.77 389.04 1187.77 390.23 Z" fill="#FAA718" stroke-width="1" stroke-linecap="butt" stroke="none" stroke-linejoin="miter" />
</g>
<g id="layout-shape-19" data-name="任意多边形: 形状 18">
<path d="M 1204.88 390.23 C 1204.88 391.41 1203.92 392.37 1202.74 392.37 C 1201.56 392.37 1200.6 391.41 1200.6 390.23 C 1200.6 389.04 1201.56 388.08 1202.74 388.08 C 1203.92 388.08 1204.88 389.04 1204.88 390.23 Z" fill="#FAA718" stroke-width="1" stroke-linecap="butt" stroke="none" stroke-linejoin="miter" />
</g>
<g id="layout-shape-20" data-name="任意多边形: 形状 19">
<path d="M 1222.02 390.23 C 1222.02 391.41 1221.06 392.37 1219.87 392.37 C 1218.69 392.37 1217.73 391.41 1217.73 390.23 C 1217.73 389.04 1218.69 388.08 1219.87 388.08 C 1221.04 388.08 1222.02 389.04 1222.02 390.23 Z" fill="#FAA718" stroke-width="1" stroke-linecap="butt" stroke="none" stroke-linejoin="miter" />
</g>
<g id="layout-shape-21" data-name="任意多边形: 形状 20">
<path d="M 1239.13 390.23 C 1239.13 391.41 1238.17 392.37 1236.99 392.37 C 1235.81 392.37 1234.85 391.41 1234.85 390.23 C 1234.85 389.04 1235.81 388.08 1236.99 388.08 C 1238.17 388.08 1239.13 389.04 1239.13 390.23 Z" fill="#FAA718" stroke-width="1" stroke-linecap="butt" stroke="none" stroke-linejoin="miter" />
</g>
<g id="layout-shape-22" data-name="任意多边形: 形状 21">
<path d="M 1256.24 390.23 C 1256.24 391.41 1255.29 392.37 1254.1 392.37 C 1252.92 392.37 1251.96 391.41 1251.96 390.23 C 1251.96 389.04 1252.92 388.08 1254.1 388.08 C 1255.29 388.08 1256.24 389.04 1256.24 390.23 Z" fill="#FAA718" stroke-width="1" stroke-linecap="butt" stroke="none" stroke-linejoin="miter" />
</g>
<g id="layout-shape-23" data-name="任意多边形: 形状 22">
<path d="M 1170.63 407.32 C 1170.63 408.5 1169.67 409.46 1168.49 409.46 C 1167.31 409.46 1166.35 408.5 1166.35 407.32 C 1166.35 406.14 1167.31 405.18 1168.49 405.18 C 1169.67 405.18 1170.63 406.14 1170.63 407.32 Z" fill="#FAA718" stroke-width="1" stroke-linecap="butt" stroke="none" stroke-linejoin="miter" />
</g>
<g id="layout-shape-24" data-name="任意多边形: 形状 23">
<path d="M 1187.75 407.32 C 1187.75 408.5 1186.79 409.46 1185.6 409.46 C 1184.42 409.46 1183.46 408.5 1183.46 407.32 C 1183.46 406.14 1184.42 405.18 1185.6 405.18 C 1186.79 405.18 1187.75 406.14 1187.75 407.32 Z" fill="#FAA718" stroke-width="1" stroke-linecap="butt" stroke="none" stroke-linejoin="miter" />
</g>
<g id="layout-shape-25" data-name="任意多边形: 形状 24">
<path d="M 1204.88 407.32 C 1204.88 408.5 1203.92 409.46 1202.74 409.46 C 1201.56 409.46 1200.6 408.5 1200.6 407.32 C 1200.6 406.14 1201.56 405.18 1202.74 405.18 C 1203.92 405.18 1204.88 406.14 1204.88 407.32 Z" fill="#FAA718" stroke-width="1" stroke-linecap="butt" stroke="none" stroke-linejoin="miter" />
</g>
<g id="layout-shape-26" data-name="任意多边形: 形状 25">
<path d="M 1222 407.32 C 1222 408.5 1221.04 409.46 1219.85 409.46 C 1218.67 409.46 1217.71 408.5 1217.71 407.32 C 1217.71 406.14 1218.67 405.18 1219.85 405.18 C 1221.04 405.18 1222 406.14 1222 407.32 Z" fill="#FAA718" stroke-width="1" stroke-linecap="butt" stroke="none" stroke-linejoin="miter" />
</g>
<g id="layout-shape-27" data-name="任意多边形: 形状 26">
<path d="M 1239.13 407.32 C 1239.13 408.5 1238.17 409.46 1236.99 409.46 C 1235.81 409.46 1234.85 408.5 1234.85 407.32 C 1234.85 406.14 1235.81 405.18 1236.99 405.18 C 1238.17 405.18 1239.13 406.14 1239.13 407.32 Z" fill="#FAA718" stroke-width="1" stroke-linecap="butt" stroke="none" stroke-linejoin="miter" />
</g>
<g id="layout-shape-28" data-name="任意多边形: 形状 27">
<path d="M 1170.63 424.43 C 1170.63 425.62 1169.67 426.58 1168.49 426.58 C 1167.31 426.58 1166.35 425.62 1166.35 424.43 C 1166.35 423.25 1167.31 422.29 1168.49 422.29 C 1169.67 422.29 1170.63 423.25 1170.63 424.43 Z" fill="#FAA718" stroke-width="1" stroke-linecap="butt" stroke="none" stroke-linejoin="miter" />
</g>
<g id="layout-shape-29" data-name="任意多边形: 形状 28">
<path d="M 1187.75 424.43 C 1187.75 425.62 1186.79 426.58 1185.6 426.58 C 1184.42 426.58 1183.46 425.62 1183.46 424.43 C 1183.46 423.25 1184.42 422.29 1185.6 422.29 C 1186.79 422.29 1187.75 423.25 1187.75 424.43 Z" fill="#FAA718" stroke-width="1" stroke-linecap="butt" stroke="none" stroke-linejoin="miter" />
</g>
<g id="layout-shape-30" data-name="任意多边形: 形状 29">
<path d="M 1204.88 424.43 C 1204.88 425.62 1203.92 426.58 1202.74 426.58 C 1201.56 426.58 1200.6 425.62 1200.6 424.43 C 1200.6 423.25 1201.56 422.29 1202.74 422.29 C 1203.92 422.29 1204.88 423.25 1204.88 424.43 Z" fill="#FAA718" stroke-width="1" stroke-linecap="butt" stroke="none" stroke-linejoin="miter" />
</g>
<g id="layout-shape-31" data-name="任意多边形: 形状 30">
<path d="M 1222 424.43 C 1222 425.62 1221.04 426.58 1219.85 426.58 C 1218.67 426.58 1217.71 425.62 1217.71 424.43 C 1217.71 423.25 1218.67 422.29 1219.85 422.29 C 1221.04 422.29 1222 423.25 1222 424.43 Z" fill="#FAA718" stroke-width="1" stroke-linecap="butt" stroke="none" stroke-linejoin="miter" />
</g>
<g id="layout-shape-32" data-name="任意多边形: 形状 31">
<path d="M 1170.63 441.53 C 1170.63 442.71 1169.67 443.67 1168.49 443.67 C 1167.31 443.67 1166.35 442.71 1166.35 441.53 C 1166.35 440.34 1167.31 439.39 1168.49 439.39 C 1169.67 439.39 1170.63 440.34 1170.63 441.53 Z" fill="#FAA718" stroke-width="1" stroke-linecap="butt" stroke="none" stroke-linejoin="miter" />
</g>
<g id="layout-shape-33" data-name="任意多边形: 形状 32">
<path d="M 1187.77 441.53 C 1187.77 442.71 1186.81 443.67 1185.62 443.67 C 1184.44 443.67 1183.48 442.71 1183.48 441.53 C 1183.48 440.34 1184.44 439.39 1185.62 439.39 C 1186.79 439.39 1187.77 440.34 1187.77 441.53 Z" fill="#FAA718" stroke-width="1" stroke-linecap="butt" stroke="none" stroke-linejoin="miter" />
</g>
<g id="layout-shape-34" data-name="任意多边形: 形状 33">
<path d="M 1204.88 441.53 C 1204.88 442.71 1203.92 443.67 1202.74 443.67 C 1201.56 443.67 1200.6 442.71 1200.6 441.53 C 1200.6 440.34 1201.56 439.39 1202.74 439.39 C 1203.92 439.39 1204.88 440.34 1204.88 441.53 Z" fill="#FAA718" stroke-width="1" stroke-linecap="butt" stroke="none" stroke-linejoin="miter" />
</g>
<g id="layout-shape-35" data-name="任意多边形: 形状 34">
<path d="M 1170.63 458.62 C 1170.63 459.81 1169.67 460.76 1168.49 460.76 C 1167.31 460.76 1166.35 459.81 1166.35 458.62 C 1166.35 457.44 1167.31 456.48 1168.49 456.48 C 1169.67 456.48 1170.63 457.44 1170.63 458.62 Z" fill="#FAA718" stroke-width="1" stroke-linecap="butt" stroke="none" stroke-linejoin="miter" />
</g>
<g id="layout-shape-36" data-name="任意多边形: 形状 35">
<path d="M 1187.77 458.62 C 1187.77 459.81 1186.81 460.76 1185.62 460.76 C 1184.44 460.76 1183.48 459.81 1183.48 458.62 C 1183.48 457.44 1184.44 456.48 1185.62 456.48 C 1186.79 456.48 1187.77 457.44 1187.77 458.62 Z" fill="#FAA718" stroke-width="1" stroke-linecap="butt" stroke="none" stroke-linejoin="miter" />
</g>
<g id="layout-shape-37" data-name="任意多边形: 形状 36">
<path d="M 1170.63 475.72 C 1170.63 476.9 1169.67 477.86 1168.49 477.86 C 1167.31 477.86 1166.35 476.9 1166.35 475.72 C 1166.35 474.53 1167.31 473.57 1168.49 473.57 C 1169.67 473.57 1170.63 474.53 1170.63 475.72 Z" fill="#FAA718" stroke-width="1" stroke-linecap="butt" stroke="none" stroke-linejoin="miter" />
</g>
</g>
<g id="layout-shape-38" data-name="组合 37">
<g id="layout-shape-39" data-name="矩形 38">
<rect x="874.25" y="720.07" width="529.33" height="152.99" fill="#F5F7F9" stroke="none" stroke-width="1" />
</g>
<g id="layout-shape-40" data-name="矩形 39" transform="rotate(90 1357.67 534.03)">
<rect x="1093.01" y="457.54" width="529.33" height="152.99" fill="#F5F7F9" stroke="none" stroke-width="1" />
</g>
</g>
</g>
<g id="layout-shape-141" data-name="组合 140">
<g id="layout-shape-41" data-name="任意多边形: 形状 40" transform="translate(168.86 102.88) scale(-1 -1) translate(-168.86 -102.88)">
<path d="M -16.26 227.26 L 355.44 -144.45 L 355.44 -20.55 L -16.26 351.16 Z" fill="#F2634B" stroke-width="1" stroke-linecap="butt" stroke="none" stroke-linejoin="miter" />
</g>
<g id="layout-shape-42" data-name="组合 41" transform="translate(118.79 137.35) scale(1 -1) translate(-118.79 -137.35)">
<g id="layout-shape-43" data-name="任意多边形: 形状 42">
<path d="M 120.56 234.12 L 38.21 151.77 L -44.12 234.12 L 38.21 316.44 Z" fill="#2B357A" stroke-width="1" stroke-linecap="butt" stroke="none" stroke-linejoin="miter" />
</g>
<g id="layout-shape-44" data-name="任意多边形: 形状 43">
<path d="M -5.35 236.04 C -6.61 234.78 -8.65 234.78 -9.91 236.04 C -11.17 237.3 -11.17 239.34 -9.91 240.6 C -8.65 241.86 -6.61 241.86 -5.35 240.6 C -4.1 239.34 -4.1 237.3 -5.35 236.04 Z" fill="#FED600" stroke-width="1" stroke-linecap="butt" stroke="none" stroke-linejoin="miter" />
</g>
<g id="layout-shape-45" data-name="任意多边形: 形状 44">
<path d="M 16 257.38 C 14.74 256.12 12.7 256.12 11.44 257.38 C 10.19 258.63 10.19 260.67 11.44 261.93 C 12.7 263.19 14.74 263.19 16 261.93 C 17.26 260.69 17.26 258.63 16 257.38 Z" fill="#FED600" stroke-width="1" stroke-linecap="butt" stroke="none" stroke-linejoin="miter" />
</g>
<g id="layout-shape-46" data-name="任意多边形: 形状 45">
<path d="M 37.34 278.73 C 36.08 277.47 34.04 277.47 32.78 278.73 C 31.52 279.99 31.52 282.03 32.78 283.29 C 34.04 284.55 36.08 284.55 37.34 283.29 C 38.6 282.03 38.6 279.99 37.34 278.73 Z" fill="#FED600" stroke-width="1" stroke-linecap="butt" stroke="none" stroke-linejoin="miter" />
</g>
<g id="layout-shape-47" data-name="任意多边形: 形状 46">
<path d="M 19.05 211.64 C 17.79 210.38 15.75 210.38 14.49 211.64 C 13.24 212.89 13.24 214.93 14.49 216.19 C 15.75 217.45 17.79 217.45 19.05 216.19 C 20.31 214.93 20.31 212.89 19.05 211.64 Z" fill="#FED600" stroke-width="1" stroke-linecap="butt" stroke="none" stroke-linejoin="miter" />
</g>
<g id="layout-shape-48" data-name="任意多边形: 形状 47">
<path d="M 40.41 232.97 C 39.15 231.71 37.11 231.71 35.85 232.97 C 34.59 234.23 34.59 236.27 35.85 237.53 C 37.11 238.79 39.15 238.79 40.41 237.53 C 41.66 236.29 41.66 234.23 40.41 232.97 Z" fill="#FED600" stroke-width="1" stroke-linecap="butt" stroke="none" stroke-linejoin="miter" />
</g>
<g id="layout-shape-49" data-name="任意多边形: 形状 48">
<path d="M 61.74 254.33 C 60.48 253.07 58.44 253.07 57.19 254.33 C 55.93 255.58 55.93 257.62 57.19 258.88 C 58.44 260.14 60.48 260.14 61.74 258.88 C 63 257.62 63 255.58 61.74 254.33 Z" fill="#FED600" stroke-width="1" stroke-linecap="butt" stroke="none" stroke-linejoin="miter" />
</g>
<g id="layout-shape-50" data-name="任意多边形: 形状 49">
<path d="M 44.39 189.5 C 44.39 191.28 42.95 192.72 41.17 192.72 C 39.39 192.72 37.95 191.28 37.95 189.5 C 37.95 187.72 39.39 186.28 41.17 186.28 C 42.95 186.28 44.39 187.72 44.39 189.5 Z" fill="#FED600" stroke-width="1" stroke-linecap="butt" stroke="none" stroke-linejoin="miter" />
</g>
<g id="layout-shape-51" data-name="任意多边形: 形状 50">
<path d="M 64.81 208.57 C 63.55 207.31 61.51 207.31 60.25 208.57 C 59 209.82 59 211.86 60.25 213.12 C 61.51 214.38 63.55 214.38 64.81 213.12 C 66.07 211.88 66.07 209.82 64.81 208.57 Z" fill="#FED600" stroke-width="1" stroke-linecap="butt" stroke="none" stroke-linejoin="miter" />
</g>
<g id="layout-shape-52" data-name="任意多边形: 形状 51">
<path d="M 86.15 229.92 C 84.89 228.66 82.85 228.66 81.59 229.92 C 80.33 231.18 80.33 233.22 81.59 234.48 C 82.85 235.74 84.89 235.74 86.15 234.48 C 87.41 233.22 87.41 231.18 86.15 229.92 Z" fill="#FED600" stroke-width="1" stroke-linecap="butt" stroke="none" stroke-linejoin="miter" />
</g>
<g id="layout-shape-53" data-name="任意多边形: 形状 52">
<path d="M 168.88 106.43 L 140.68 134.63 L 56.1 50.05 L 84.3 21.83 Z" fill="#61C9DC" stroke-width="1" stroke-linecap="butt" stroke="none" stroke-linejoin="miter" />
</g>
<g id="layout-shape-54" data-name="任意多边形: 形状 53">
<path d="M 80.94 194.38 L -3.66 109.78 L 24.54 81.58 L 109.14 166.18 Z" fill="#61C9DC" stroke-width="1" stroke-linecap="butt" stroke="none" stroke-linejoin="miter" />
</g>
<g id="layout-shape-55" data-name="任意多边形: 形状 54">
<path d="M 84.3 21.83 L 168.88 106.43 L 140.7 134.63 L 56.1 50.03 Z" fill="#2B357A" stroke-width="1" stroke-linecap="butt" stroke="none" stroke-linejoin="miter" />
</g>
<g id="layout-shape-56" data-name="任意多边形: 形状 55">
<path d="M 92.93 56.89 C 94.23 55.59 94.23 53.5 92.93 52.2 C 91.64 50.9 89.54 50.9 88.24 52.2 C 86.95 53.5 86.95 55.59 88.24 56.89 C 89.54 58.19 91.64 58.19 92.93 56.89 Z" fill="#F7F8F8" stroke-width="1" stroke-linecap="butt" stroke="none" stroke-linejoin="miter" />
</g>
<g id="layout-shape-57" data-name="任意多边形: 形状 56">
<path d="M 118.01 81.96 C 119.3 80.67 119.3 78.57 118.01 77.27 C 116.71 75.98 114.61 75.98 113.32 77.27 C 112.02 78.57 112.02 80.67 113.32 81.96 C 114.61 83.26 116.71 83.26 118.01 81.96 Z" fill="#F7F8F8" stroke-width="1" stroke-linecap="butt" stroke="none" stroke-linejoin="miter" />
</g>
<g id="layout-shape-58" data-name="任意多边形: 形状 57">
<path d="M 144.05 104.69 C 144.05 106.52 142.57 108.01 140.73 108.01 C 138.9 108.01 137.42 106.52 137.42 104.69 C 137.42 102.86 138.9 101.37 140.73 101.37 C 142.57 101.37 144.05 102.86 144.05 104.69 Z" fill="#F7F8F8" stroke-width="1" stroke-linecap="butt" stroke="none" stroke-linejoin="miter" />
</g>
<g id="layout-shape-59" data-name="任意多边形: 形状 58">
<path d="M 32.72 117.1 C 34.02 115.81 34.02 113.71 32.72 112.41 C 31.43 111.12 29.33 111.12 28.03 112.41 C 26.74 113.71 26.74 115.81 28.03 117.1 C 29.33 118.4 31.43 118.4 32.72 117.1 Z" fill="#2B357A" stroke-width="1" stroke-linecap="butt" stroke="none" stroke-linejoin="miter" />
</g>
<g id="layout-shape-60" data-name="任意多边形: 形状 59">
<path d="M 57.8 142.18 C 59.09 140.88 59.09 138.78 57.8 137.49 C 56.5 136.19 54.4 136.19 53.1 137.49 C 51.81 138.78 51.81 140.88 53.1 142.18 C 54.4 143.47 56.5 143.47 57.8 142.18 Z" fill="#2B357A" stroke-width="1" stroke-linecap="butt" stroke="none" stroke-linejoin="miter" />
</g>
<g id="layout-shape-61" data-name="任意多边形: 形状 60">
<path d="M 83.84 164.9 C 83.84 166.74 82.35 168.22 80.52 168.22 C 78.69 168.22 77.21 166.74 77.21 164.9 C 77.21 163.07 78.69 161.59 80.52 161.59 C 82.35 161.59 83.84 163.07 83.84 164.9 Z" fill="#2B357A" stroke-width="1" stroke-linecap="butt" stroke="none" stroke-linejoin="miter" />
</g>
<g id="layout-shape-62" data-name="任意多边形: 形状 61">
<path d="M 200.28 154.4 L 160.43 114.55 L 120.58 154.4 L 160.43 194.27 Z" fill="#F2634B" stroke-width="1" stroke-linecap="butt" stroke="none" stroke-linejoin="miter" />
</g>
<g id="layout-shape-63" data-name="任意多边形: 形状 62">
<path d="M 283.22 277.95 L 140.51 134.47 L 120.58 154.4 L 263.29 297.87 Z" fill="#2B357A" stroke-width="1" stroke-linecap="butt" stroke="none" stroke-linejoin="miter" />
</g>
<g id="layout-shape-64" data-name="任意多边形: 形状 63">
<path d="M 80.71 194.27 L 120.58 234.12 L 80.71 273.96 L 120.58 313.83 L 160.43 273.96 L 200.28 234.12 L 160.43 194.27 L 120.58 154.4 Z" fill="#FAA718" stroke-width="1" stroke-linecap="butt" stroke="none" stroke-linejoin="miter" />
</g>
<g id="layout-shape-65" data-name="任意多边形: 形状 64">
<path d="M 51.18 -24.1 C 51.18 -15.28 44.03 -8.13 35.2 -8.13 C 26.38 -8.13 19.22 -15.28 19.22 -24.1 C 19.22 -32.93 26.38 -40.08 35.2 -40.08 C 44.03 -40.08 51.18 -32.93 51.18 -24.1 Z" fill="#FAA718" stroke-width="1" stroke-linecap="butt" stroke="none" stroke-linejoin="miter" />
</g>
<g id="layout-shape-66" data-name="任意多边形: 形状 65">
<path d="M 278.78 177.68 C 277.67 177.68 276.77 176.78 276.77 175.68 C 276.77 174.57 277.67 173.67 278.78 173.67 C 279.88 173.67 280.78 174.57 280.78 175.68 C 280.78 176.78 279.88 177.68 278.78 177.68 Z" fill="#FAA718" stroke-width="1" stroke-linecap="butt" stroke="none" stroke-linejoin="miter" />
</g>
<g id="layout-shape-67" data-name="任意多边形: 形状 66">
<path d="M 278.78 193.67 C 277.67 193.67 276.77 192.78 276.77 191.67 C 276.77 190.57 277.67 189.67 278.78 189.67 C 279.88 189.67 280.78 190.57 280.78 191.67 C 280.78 192.78 279.88 193.67 278.78 193.67 Z" fill="#FAA718" stroke-width="1" stroke-linecap="butt" stroke="none" stroke-linejoin="miter" />
</g>
<g id="layout-shape-68" data-name="任意多边形: 形状 67">
<path d="M 278.78 209.69 C 277.67 209.69 276.77 208.79 276.77 207.69 C 276.77 206.58 277.67 205.69 278.78 205.69 C 279.88 205.69 280.78 206.58 280.78 207.69 C 280.78 208.79 279.88 209.69 278.78 209.69 Z" fill="#FAA718" stroke-width="1" stroke-linecap="butt" stroke="none" stroke-linejoin="miter" />
</g>
<g id="layout-shape-69" data-name="任意多边形: 形状 68">
<path d="M 278.78 225.69 C 277.67 225.69 276.77 224.79 276.77 223.69 C 276.77 222.58 277.67 221.68 278.78 221.68 C 279.88 221.68 280.78 222.58 280.78 223.69 C 280.78 224.79 279.88 225.69 278.78 225.69 Z" fill="#FAA718" stroke-width="1" stroke-linecap="butt" stroke="none" stroke-linejoin="miter" />
</g>
<g id="layout-shape-70" data-name="任意多边形: 形状 69">
<path d="M 278.78 241.7 C 277.67 241.7 276.77 240.81 276.77 239.7 C 276.77 238.6 277.67 237.7 278.78 237.7 C 279.88 237.7 280.78 238.6 280.78 239.7 C 280.78 240.81 279.88 241.7 278.78 241.7 Z" fill="#FAA718" stroke-width="1" stroke-linecap="butt" stroke="none" stroke-linejoin="miter" />
</g>
<g id="layout-shape-71" data-name="任意多边形: 形状 70">
<path d="M 278.78 257.7 C 277.67 257.7 276.77 256.8 276.77 255.7 C 276.77 254.59 277.67 253.7 278.78 253.7 C 279.88 253.7 280.78 254.59 280.78 255.7 C 280.78 256.8 279.88 257.7 278.78 257.7 Z" fill="#FAA718" stroke-width="1" stroke-linecap="butt" stroke="none" stroke-linejoin="miter" />
</g>
<g id="layout-shape-72" data-name="任意多边形: 形状 71">
<path d="M 262.78 177.68 C 261.67 177.68 260.78 176.78 260.78 175.68 C 260.78 174.57 261.67 173.67 262.78 173.67 C 263.89 173.67 264.78 174.57 264.78 175.68 C 264.8 176.78 263.89 177.68 262.78 177.68 Z" fill="#FAA718" stroke-width="1" stroke-linecap="butt" stroke="none" stroke-linejoin="miter" />
</g>
<g id="layout-shape-73" data-name="任意多边形: 形状 72">
<path d="M 264.78 191.67 C 264.78 192.78 263.89 193.67 262.78 193.67 C 261.67 193.67 260.78 192.78 260.78 191.67 C 260.78 190.57 261.67 189.67 262.78 189.67 C 263.89 189.67 264.78 190.57 264.78 191.67 Z" fill="#FAA718" stroke-width="1" stroke-linecap="butt" stroke="none" stroke-linejoin="miter" />
</g>
<g id="layout-shape-74" data-name="任意多边形: 形状 73">
<path d="M 264.78 207.67 C 264.78 208.78 263.89 209.67 262.78 209.67 C 261.67 209.67 260.78 208.78 260.78 207.67 C 260.78 206.56 261.67 205.67 262.78 205.67 C 263.89 205.67 264.78 206.56 264.78 207.67 Z" fill="#FAA718" stroke-width="1" stroke-linecap="butt" stroke="none" stroke-linejoin="miter" />
</g>
<g id="layout-shape-75" data-name="任意多边形: 形状 74">
<path d="M 264.78 223.69 C 264.78 224.79 263.89 225.69 262.78 225.69 C 261.67 225.69 260.78 224.79 260.78 223.69 C 260.78 222.58 261.67 221.68 262.78 221.68 C 263.89 221.68 264.78 222.58 264.78 223.69 Z" fill="#FAA718" stroke-width="1" stroke-linecap="butt" stroke="none" stroke-linejoin="miter" />
</g>
<g id="layout-shape-76" data-name="任意多边形: 形状 75">
<path d="M 262.78 241.7 C 261.67 241.7 260.78 240.81 260.78 239.7 C 260.78 238.6 261.67 237.7 262.78 237.7 C 263.89 237.7 264.78 238.6 264.78 239.7 C 264.8 240.81 263.89 241.7 262.78 241.7 Z" fill="#FAA718" stroke-width="1" stroke-linecap="butt" stroke="none" stroke-linejoin="miter" />
</g>
<g id="layout-shape-77" data-name="任意多边形: 形状 76">
<path d="M 246.8 177.68 C 245.7 177.68 244.8 176.78 244.8 175.68 C 244.8 174.57 245.7 173.67 246.8 173.67 C 247.91 173.67 248.8 174.57 248.8 175.68 C 248.8 176.78 247.91 177.68 246.8 177.68 Z" fill="#FAA718" stroke-width="1" stroke-linecap="butt" stroke="none" stroke-linejoin="miter" />
</g>
<g id="layout-shape-78" data-name="任意多边形: 形状 77">
<path d="M 246.8 193.67 C 245.7 193.67 244.8 192.78 244.8 191.67 C 244.8 190.57 245.7 189.67 246.8 189.67 C 247.91 189.67 248.8 190.57 248.8 191.67 C 248.8 192.78 247.91 193.67 246.8 193.67 Z" fill="#FAA718" stroke-width="1" stroke-linecap="butt" stroke="none" stroke-linejoin="miter" />
</g>
<g id="layout-shape-79" data-name="任意多边形: 形状 78">
<path d="M 246.8 209.69 C 245.7 209.69 244.8 208.79 244.8 207.69 C 244.8 206.58 245.7 205.69 246.8 205.69 C 247.91 205.69 248.8 206.58 248.8 207.69 C 248.8 208.79 247.91 209.69 246.8 209.69 Z" fill="#FAA718" stroke-width="1" stroke-linecap="butt" stroke="none" stroke-linejoin="miter" />
</g>
<g id="layout-shape-80" data-name="任意多边形: 形状 79">
<path d="M 246.8 225.69 C 245.7 225.69 244.8 224.79 244.8 223.69 C 244.8 222.58 245.7 221.68 246.8 221.68 C 247.91 221.68 248.8 222.58 248.8 223.69 C 248.8 224.79 247.91 225.69 246.8 225.69 Z" fill="#FAA718" stroke-width="1" stroke-linecap="butt" stroke="none" stroke-linejoin="miter" />
</g>
<g id="layout-shape-81" data-name="任意多边形: 形状 80">
<path d="M 230.82 177.68 C 229.72 177.68 228.82 176.78 228.82 175.68 C 228.82 174.57 229.72 173.67 230.82 173.67 C 231.93 173.67 232.83 174.57 232.83 175.68 C 232.83 176.78 231.93 177.68 230.82 177.68 Z" fill="#FAA718" stroke-width="1" stroke-linecap="butt" stroke="none" stroke-linejoin="miter" />
</g>
<g id="layout-shape-82" data-name="任意多边形: 形状 81">
<path d="M 230.82 193.67 C 229.72 193.67 228.82 192.78 228.82 191.67 C 228.82 190.57 229.72 189.67 230.82 189.67 C 231.93 189.67 232.83 190.57 232.83 191.67 C 232.83 192.78 231.93 193.67 230.82 193.67 Z" fill="#FAA718" stroke-width="1" stroke-linecap="butt" stroke="none" stroke-linejoin="miter" />
</g>
<g id="layout-shape-83" data-name="任意多边形: 形状 82">
<path d="M 230.82 209.69 C 229.72 209.69 228.82 208.79 228.82 207.69 C 228.82 206.58 229.72 205.69 230.82 205.69 C 231.93 205.69 232.83 206.58 232.83 207.69 C 232.83 208.79 231.93 209.69 230.82 209.69 Z" fill="#FAA718" stroke-width="1" stroke-linecap="butt" stroke="none" stroke-linejoin="miter" />
</g>
<g id="layout-shape-84" data-name="任意多边形: 形状 83">
<path d="M 214.83 177.68 C 213.72 177.68 212.83 176.78 212.83 175.68 C 212.83 174.57 213.72 173.67 214.83 173.67 C 215.93 173.67 216.83 174.57 216.83 175.68 C 216.85 176.78 215.95 177.68 214.83 177.68 Z" fill="#FAA718" stroke-width="1" stroke-linecap="butt" stroke="none" stroke-linejoin="miter" />
</g>
<g id="layout-shape-85" data-name="任意多边形: 形状 84">
<path d="M 216.83 191.67 C 216.83 192.78 215.93 193.67 214.83 193.67 C 213.72 193.67 212.83 192.78 212.83 191.67 C 212.83 190.57 213.72 189.67 214.83 189.67 C 215.93 189.67 216.83 190.57 216.83 191.67 Z" fill="#FAA718" stroke-width="1" stroke-linecap="butt" stroke="none" stroke-linejoin="miter" />
</g>
<g id="layout-shape-86" data-name="任意多边形: 形状 85">
<path d="M 198.85 177.68 C 197.74 177.68 196.85 176.78 196.85 175.68 C 196.85 174.57 197.74 173.67 198.85 173.67 C 199.96 173.67 200.85 174.57 200.85 175.68 C 200.85 176.78 199.96 177.68 198.85 177.68 Z" fill="#FAA718" stroke-width="1" stroke-linecap="butt" stroke="none" stroke-linejoin="miter" />
</g>
</g>
<g id="layout-shape-87" data-name="组合 86" transform="rotate(180 126.19 149.1)">
<g id="layout-shape-88" data-name="矩形 87">
<rect x="-153.77" y="297.96" width="529.33" height="152.99" fill="#F5F7F9" stroke="none" stroke-width="1" />
</g>
<g id="layout-shape-89" data-name="矩形 88" transform="rotate(90 329.65 111.93)">
<rect x="64.99" y="35.43" width="529.33" height="152.99" fill="#F5F7F9" stroke="none" stroke-width="1" />
</g>
</g>
<g id="layout-shape-90" data-name="组合 89">
<g id="layout-shape-91" data-name="任意多边形: 形状 90" transform="translate(121.61 304.36) scale(1 -1) translate(-121.61 -304.36)">
<path d="M 101.35 284.21 L 101.35 284.21 C 87.17 298.46 87.22 321.51 101.47 335.69 L 101.47 335.69 L 127.16 309.9 L 152.84 284.1 L 152.84 284.1 C 138.59 269.91 115.54 269.96 101.35 284.21 L 101.35 284.21 Z" fill="#2B357A" stroke-width="1" stroke-linecap="butt" stroke="none" stroke-linejoin="miter" />
</g>
<g id="layout-shape-92" data-name="任意多边形: 形状 91" transform="translate(132.32 293.76) scale(1 -1) translate(-132.32 -293.76)">
<path d="M 152.95 314.37 L 152.95 314.37 C 167.13 300.12 167.08 277.07 152.83 262.89 L 152.83 262.89 L 127.14 288.68 L 101.46 314.48 L 101.46 314.48 C 115.71 328.67 138.76 328.62 152.95 314.37 L 152.95 314.37 Z" fill="#FAA718" stroke-width="1" stroke-linecap="butt" stroke="none" stroke-linejoin="miter" />
</g>
</g>
</g>
<g id="layout-shape-93" data-name="组合 92" transform="translate(1239.71 41.23) scale(-1 1) translate(-1239.71 -41.23)">
<g id="layout-shape-94" data-name="任意多边形: 形状 93">
<path d="M 1198.33 83.1 L 1198.33 83.1 C 1244.32 83.1 1281.59 45.84 1281.59 -0.15 L 1281.59 -0.15 L 1198.33 -0.15 L 1198.33 83.1 Z" fill="#FAA718" stroke-width="1" stroke-linecap="butt" stroke="none" stroke-linejoin="miter" />
</g>
<g id="layout-shape-95" data-name="任意多边形: 形状 94">
<path d="M 1198.33 46.51 L 1198.33 46.51 C 1224.11 46.51 1244.99 25.63 1244.99 -0.15 L 1244.99 -0.15 L 1198.33 -0.15 L 1198.33 46.51 Z" fill="#61C9DC" stroke-width="1" stroke-linecap="butt" stroke="none" stroke-linejoin="miter" />
</g>
</g>
<g id="layout-shape-96" data-name="组合 95" transform="rotate(180 41.29 678.77) translate(41.29 678.77) scale(-1 1) translate(-41.29 -678.77)">
<g id="layout-shape-97" data-name="任意多边形: 形状 96">
<path d="M -0.1 720.65 L -0.1 720.65 C 45.89 720.65 83.16 683.38 83.16 637.39 L 83.16 637.39 L -0.1 637.39 L -0.1 720.65 Z" fill="#FAA718" stroke-width="1" stroke-linecap="butt" stroke="none" stroke-linejoin="miter" />
</g>
<g id="layout-shape-98" data-name="任意多边形: 形状 97">
<path d="M -0.1 684.06 L -0.1 684.06 C 25.68 684.06 46.57 663.17 46.57 637.39 L 46.57 637.39 L -0.1 637.39 L -0.1 684.06 Z" fill="#61C9DC" stroke-width="1" stroke-linecap="butt" stroke="none" stroke-linejoin="miter" />
</g>
</g>
<g id="layout-shape-119" data-name="组合 118" transform="rotate(90 1093.8 258.79)">
<g id="layout-shape-120" data-name="组合 119">
<g id="layout-shape-126" data-name="椭圆 125">
<ellipse cx="1065.12" cy="249.28" rx="5.34" ry="5.34" stroke="none" fill="#2B357A" stroke-width="1" />
</g>
<g id="layout-shape-127" data-name="椭圆 126">
<ellipse cx="1084.24" cy="249.28" rx="5.34" ry="5.34" stroke="none" fill="#2B357A" stroke-width="1" />
</g>
<g id="layout-shape-128" data-name="椭圆 127">
<ellipse cx="1103.37" cy="249.28" rx="5.34" ry="5.34" stroke="none" fill="#2B357A" stroke-width="1" />
</g>
<g id="layout-shape-129" data-name="椭圆 128">
<ellipse cx="1122.49" cy="249.28" rx="5.34" ry="5.34" stroke="none" fill="#2B357A" stroke-width="1" />
</g>
</g>
<g id="layout-shape-121" data-name="组合 120">
<g id="layout-shape-122" data-name="椭圆 121">
<ellipse cx="1065.12" cy="268.31" rx="5.34" ry="5.34" stroke="none" fill="#2B357A" stroke-width="1" />
</g>
<g id="layout-shape-123" data-name="椭圆 122">
<ellipse cx="1084.24" cy="268.31" rx="5.34" ry="5.34" stroke="none" fill="#2B357A" stroke-width="1" />
</g>
<g id="layout-shape-124" data-name="椭圆 123">
<ellipse cx="1103.37" cy="268.31" rx="5.34" ry="5.34" stroke="none" fill="#2B357A" stroke-width="1" />
</g>
<g id="layout-shape-125" data-name="椭圆 124">
<ellipse cx="1122.49" cy="268.31" rx="5.34" ry="5.34" stroke="none" fill="#2B357A" stroke-width="1" />
</g>
</g>
</g>
<g id="layout-shape-130" data-name="组合 129">
<g id="layout-shape-131" data-name="组合 130">
<g id="layout-shape-137" data-name="椭圆 136">
<ellipse cx="178.01" cy="527.48" rx="5.34" ry="5.34" stroke="none" fill="#2B357A" stroke-width="1" />
</g>
<g id="layout-shape-138" data-name="椭圆 137">
<ellipse cx="197.14" cy="527.48" rx="5.34" ry="5.34" stroke="none" fill="#2B357A" stroke-width="1" />
</g>
<g id="layout-shape-139" data-name="椭圆 138">
<ellipse cx="216.26" cy="527.48" rx="5.34" ry="5.34" stroke="none" fill="#2B357A" stroke-width="1" />
</g>
<g id="layout-shape-140" data-name="椭圆 139">
<ellipse cx="235.38" cy="527.48" rx="5.34" ry="5.34" stroke="none" fill="#2B357A" stroke-width="1" />
</g>
</g>
<g id="layout-shape-132" data-name="组合 131">
<g id="layout-shape-133" data-name="椭圆 132">
<ellipse cx="178.01" cy="546.52" rx="5.34" ry="5.34" stroke="none" fill="#2B357A" stroke-width="1" />
</g>
<g id="layout-shape-134" data-name="椭圆 133">
<ellipse cx="197.14" cy="546.52" rx="5.34" ry="5.34" stroke="none" fill="#2B357A" stroke-width="1" />
</g>
<g id="layout-shape-135" data-name="椭圆 134">
<ellipse cx="216.26" cy="546.52" rx="5.34" ry="5.34" stroke="none" fill="#2B357A" stroke-width="1" />
</g>
<g id="layout-shape-136" data-name="椭圆 135">
<ellipse cx="235.38" cy="546.52" rx="5.34" ry="5.34" stroke="none" fill="#2B357A" stroke-width="1" />
</g>
</g>
</g>
<g id="shape-219" data-name="组合 218">
<g id="shape-217" data-name="组合 216">
<g id="shape-212" data-name="矩形 211">
<rect x="525.75" y="503.74" width="239.28" height="63.51" fill="#F2634B" stroke-width="5.333" stroke="#FFFFFF" />
</g>
<g id="shape-213" data-name="直接连接符 212" transform="translate(645.39 577.17) scale(-1 1) translate(-645.39 -577.17)">
<line x1="517.67" y1="577.17" x2="773.11" y2="577.17" stroke-width="2.667" stroke="#FAA718" stroke-opacity="0.5" fill="#2B357A" />
</g>
</g>
<g id="shape-218" data-name="矩形 217">
<rect x="558.01" y="512.76" width="180.95" height="48.47" fill="none" />
<text x="567.61" y="544.76" text-anchor="start" xml:space="preserve" font-family="&quot;MiSans Normal&quot;, sans-serif" font-size="32" fill="#FFFFFF" font-weight="bold"><tspan fill="#FFFFFF" font-size="32">{{TAGLINE}}</tspan></text>
</g>
</g>
<g id="shape-244" data-name="组合 243">
<g id="shape-192" data-name="组合 191">
<g id="shape-193" data-name="任意多边形: 形状 192">
<path d="M 916.75 137.43 L 916.75 192.01 L 971.33 192.01 L 971.33 137.43 L 916.75 137.43 Z M 962.78 183.47 L 947.92 183.47 C 953.99 179.8 959.11 174.67 962.78 168.6 L 962.78 183.47 Z M 925.29 183.47 L 925.29 183.47 L 925.29 145.96 L 962.78 145.96 L 962.78 145.96 C 962.78 166.68 945.99 183.47 925.29 183.47 Z" fill="#F2634B" stroke-width="1" stroke-linecap="butt" stroke="none" stroke-linejoin="miter" />
</g>
<g id="shape-194" data-name="组合 193">
<g id="shape-195" data-name="矩形 194">
<rect x="363.11" y="321.29" width="552.54" height="67.86" fill="none" />
<text x="372.71" y="366.89" text-anchor="start" xml:space="preserve" font-family="&quot;MiSans Normal&quot;, sans-serif" font-size="48" fill="#262626" font-weight="bold"><tspan fill="#262626" font-size="48">{{TAGLINE}}</tspan></text>
</g>
<g id="shape-196" data-name="组合 195">
<g id="shape-198" data-name="组合 197">
<g id="shape-206" data-name="矩形 205">
<rect x="373.73" y="170.85" width="271.66" height="106.63" fill="none" />
<text x="383.33" y="243.65" text-anchor="start" xml:space="preserve" font-family="&quot;MiSans Normal&quot;, sans-serif" font-size="80" fill="#2B357A" font-weight="bold"><tspan fill="#2B357A" font-size="80">{{TITLE}}</tspan></text>
</g>
<g id="shape-207" data-name="矩形 206">
<rect x="636.4" y="170.85" width="268.63" height="106.63" fill="none" />
<text x="646" y="243.65" text-anchor="start" xml:space="preserve" font-family="&quot;MiSans Normal&quot;, sans-serif" font-size="80" fill="#F2634B" font-weight="bold"><tspan fill="#F2634B" font-size="80">{{SUBTITLE}}</tspan></text>
</g>
<g id="shape-208" data-name="矩形 207">
<rect x="717.33" y="163.68" width="129.28" height="38.78" fill="none" />
<text x="726.93" y="188.88" text-anchor="start" xml:space="preserve" font-family="&quot;MiSans Normal&quot;, sans-serif" font-size="24" fill="#61C9DC"><tspan fill="#61C9DC" font-size="24">{{TAGLINE}}</tspan></text>
</g>
<g id="shape-209" data-name="矩形 208">
<rect x="555.17" y="255.43" width="129.28" height="38.78" fill="none" />
<text x="564.77" y="280.63" text-anchor="start" xml:space="preserve" font-family="&quot;MiSans Normal&quot;, sans-serif" font-size="24" fill="#61C9DC"><tspan fill="#61C9DC" font-size="24">{{TAGLINE}}</tspan></text>
</g>
<g id="shape-210" data-name="任意多边形: 形状 209">
<path d="M 694.73 276.33 C 694.73 280.49 691.36 283.87 687.2 283.87 C 683.04 283.87 679.67 280.49 679.67 276.33 C 679.67 272.17 683.04 268.8 687.2 268.8 C 691.36 268.8 694.73 272.17 694.73 276.33 Z" fill="#FAA718" stroke-width="1" stroke-linecap="butt" stroke="none" stroke-linejoin="miter" />
</g>
<g id="shape-211" data-name="任意多边形: 形状 210">
<path d="M 861.14 185.03 C 861.14 189.19 857.76 192.57 853.6 192.57 C 849.44 192.57 846.07 189.19 846.07 185.03 C 846.07 180.87 849.44 177.5 853.6 177.5 C 857.76 177.5 861.14 180.87 861.14 185.03 Z" fill="#FAA718" stroke-width="1" stroke-linecap="butt" stroke="none" stroke-linejoin="miter" />
</g>
</g>
<g id="shape-199" data-name="组合 198">
<g id="shape-200" data-name="组合 199">
<g id="shape-204" data-name="直接连接符 203" transform="translate(460.55 292.82) scale(-1 1) translate(-460.55 -292.82)">
<line x1="383.09" y1="292.82" x2="538" y2="292.82" stroke-width="2.667" stroke="#FAA718" stroke-opacity="0.5" fill="#2B357A" />
</g>
<g id="shape-205" data-name="直接连接符 204" transform="translate(397.72 292.82) scale(1 -1) translate(-397.72 -292.82)">
<line x1="397.72" y1="280.5" x2="397.72" y2="305.14" stroke-width="2.667" stroke="#FAA718" stroke-opacity="0.5" fill="#2B357A" />
</g>
</g>
<g id="shape-201" data-name="组合 200" transform="rotate(180 816.92 292.82)">
<g id="shape-202" data-name="直接连接符 201" transform="translate(816.92 292.82) scale(-1 1) translate(-816.92 -292.82)">
<line x1="739.46" y1="292.82" x2="894.37" y2="292.82" stroke-width="2.667" stroke="#FAA718" stroke-opacity="0.5" fill="#2B357A" />
</g>
<g id="shape-203" data-name="直接连接符 202" transform="translate(754.09 292.82) scale(1 -1) translate(-754.09 -292.82)">
<line x1="754.09" y1="280.5" x2="754.09" y2="305.14" stroke-width="2.667" stroke="#FAA718" stroke-opacity="0.5" fill="#2B357A" />
</g>
</g>
</g>
</g>
<g id="shape-197" data-name="矩形 196">
<rect x="331.7" y="387.82" width="603.17" height="81.15" fill="none" />
<text x="633.28" y="406.22" text-anchor="middle" xml:space="preserve" font-family="&quot;MiSans Normal&quot;, sans-serif" font-size="16" fill="#262626" fill-opacity="0.4"><tspan fill="#262626" font-size="16">{{TAGLINE}}</tspan></text>
<text x="633.28" y="444.62" text-anchor="middle" xml:space="preserve" font-family="&quot;MiSans Normal&quot;, sans-serif" font-size="16" fill="#262626" fill-opacity="0.4"><tspan fill="#262626" font-size="16">{{TAGLINE}}</tspan></text>
</g>
</g>
</g>
<g id="shape-220" data-name="图形 219">
<image href="assets/image1.png" x="301.78" y="172.43" width="52.92" height="41.16" preserveAspectRatio="none" />
</g>
</g></svg>