<?xml version='1.0' encoding='utf-8'?>
<svg xmlns="http://www.w3.org/2000/svg" version="1.1" width="1280" height="720" viewBox="0 0 1280 720"><rect x="0" y="0" width="1280" height="720" fill="#FFFFFF" />
<g id="layout-shape-83" data-name="组合 82" transform="translate(640.51 360.32) scale(-1 1) translate(-640.51 -360.32)">
<g id="layout-shape-3" data-name="组合 2">
<g id="layout-shape-4" data-name="组合 3">
<g id="layout-shape-8" data-name="任意多边形: 形状 7">
<path d="M 1175.64 724.02 L 1296.08 603.58 L 1296.08 643.72 L 1175.64 764.16 Z" fill="#F2634B" stroke-width="1" stroke-linecap="butt" stroke="none" stroke-linejoin="miter" />
</g>
<g id="layout-shape-9" data-name="任意多边形: 形状 8">
<path d="M 1214.48 685.63 C 1214.48 676.77 1211.1 667.9 1204.34 661.13 L 1228.83 685.63 L 1204.34 710.13 C 1211.1 703.37 1214.48 694.5 1214.48 685.63 Z" fill="#2B357A" stroke-width="1" stroke-linecap="butt" stroke="none" stroke-linejoin="miter" />
</g>
<g id="layout-shape-10" data-name="任意多边形: 形状 9">
<path d="M 1179.84 685.63 L 1196.23 669.24 C 1200.76 673.77 1203.02 679.7 1203.02 685.63 C 1203.02 691.57 1200.76 697.5 1196.23 702.02 L 1179.84 685.63 Z" fill="#2B357A" stroke-width="1" stroke-linecap="butt" stroke="none" stroke-linejoin="miter" />
</g>
<g id="layout-shape-11" data-name="任意多边形: 形状 10">
<path d="M 1179.84 685.63 L 1196.23 669.24 C 1200.76 673.77 1203.02 679.7 1203.02 685.63 C 1203.02 691.57 1200.76 697.5 1196.23 702.02 L 1179.84 685.63 Z" fill="#FFFFFF" stroke-width="1" stroke-linecap="butt" stroke="none" stroke-linejoin="miter" />
</g>
<g id="layout-shape-12" data-name="任意多边形: 形状 11">
<path d="M 1179.84 685.63 L 1196.23 669.24 C 1200.76 673.77 1203.02 679.7 1203.02 685.63 C 1203.02 691.57 1200.76 697.5 1196.23 702.02 L 1179.84 685.63 Z" fill="#61C9DC" stroke-width="1" stroke-linecap="butt" stroke="none" stroke-linejoin="miter" />
</g>
<g id="layout-shape-13" data-name="任意多边形: 形状 12">
<path d="M 1240.7 697.56 L 1252.56 685.7 L 1240.7 673.85 L 1228.85 661.99 L 1216.99 673.85 L 1228.85 685.7 L 1216.99 697.56 L 1228.85 709.42 Z" fill="#F2634B" stroke-width="1" stroke-linecap="butt" stroke="none" stroke-linejoin="miter" />
</g>
<g id="layout-shape-14" data-name="任意多边形: 形状 13">
<path d="M 1228.85 685.7 L 1228.85 661.99 L 1216.99 673.85 Z" fill="#FAA718" stroke-width="1" stroke-linecap="butt" stroke="none" stroke-linejoin="miter" />
</g>
<g id="layout-shape-15" data-name="任意多边形: 形状 14">
<path d="M 1308.91 701.04 L 1259.43 651.3 L 1252.52 658.21 L 1302 707.95 Z" fill="#2B357A" stroke-width="1" stroke-linecap="butt" stroke="none" stroke-linejoin="miter" />
</g>
<g id="layout-shape-16" data-name="任意多边形: 形状 15">
<path d="M 1238.7 672.03 L 1252.52 685.84 L 1238.7 699.66 L 1252.52 713.48 L 1266.34 699.66 L 1280.15 685.84 L 1266.34 672.03 L 1252.52 658.21 Z" fill="#FAA718" stroke-width="1" stroke-linecap="butt" stroke="none" stroke-linejoin="miter" />
</g>
<g id="layout-shape-17" data-name="任意多边形: 形状 16">
<path d="M 1175.38 685.63 C 1175.38 688.69 1172.9 691.17 1169.85 691.17 C 1166.79 691.17 1164.31 688.69 1164.31 685.63 C 1164.31 682.57 1166.79 680.09 1169.85 680.09 C 1172.9 680.09 1175.38 682.57 1175.38 685.63 Z" fill="#FAA718" stroke-width="1" stroke-linecap="butt" stroke="none" stroke-linejoin="miter" />
</g>
<g id="layout-shape-18" data-name="任意多边形: 形状 17">
<path d="M 1281.67 715.14 L 1252.34 685.81 L 1262.11 676.03 L 1291.44 705.36 Z" fill="#61C9DC" stroke-width="1" stroke-linecap="butt" stroke="none" stroke-linejoin="miter" />
</g>
<g id="layout-shape-19" data-name="任意多边形: 形状 18">
<path d="M 1264.95 688.35 C 1265.4 687.9 1265.4 687.17 1264.95 686.72 C 1264.5 686.27 1263.77 686.27 1263.32 686.72 C 1262.87 687.17 1262.87 687.9 1263.32 688.35 C 1263.77 688.8 1264.5 688.8 1264.95 688.35 Z" fill="#2B357A" stroke-width="1" stroke-linecap="butt" stroke="none" stroke-linejoin="miter" />
</g>
<g id="layout-shape-20" data-name="任意多边形: 形状 19">
<path d="M 1273.64 697.04 C 1274.09 696.59 1274.09 695.86 1273.64 695.41 C 1273.19 694.96 1272.47 694.96 1272.02 695.41 C 1271.57 695.86 1271.57 696.59 1272.02 697.04 C 1272.47 697.49 1273.19 697.49 1273.64 697.04 Z" fill="#2B357A" stroke-width="1" stroke-linecap="butt" stroke="none" stroke-linejoin="miter" />
</g>
<g id="layout-shape-21" data-name="任意多边形: 形状 20">
<path d="M 1282.67 704.92 C 1282.67 705.55 1282.16 706.07 1281.52 706.07 C 1280.89 706.07 1280.37 705.55 1280.37 704.92 C 1280.37 704.28 1280.89 703.77 1281.52 703.77 C 1282.16 703.77 1282.67 704.28 1282.67 704.92 Z" fill="#2B357A" stroke-width="1" stroke-linecap="butt" stroke="none" stroke-linejoin="miter" />
</g>
<g id="layout-shape-22" data-name="任意多边形: 形状 21">
<path d="M 1249.56 616.76 C 1249.56 617.15 1249.25 617.46 1248.87 617.46 C 1248.48 617.46 1248.17 617.15 1248.17 616.76 C 1248.17 616.38 1248.48 616.07 1248.87 616.07 C 1249.25 616.07 1249.56 616.38 1249.56 616.76 Z" fill="#FAA718" stroke-width="1" stroke-linecap="butt" stroke="none" stroke-linejoin="miter" />
</g>
<g id="layout-shape-23" data-name="任意多边形: 形状 22">
<path d="M 1255.11 616.76 C 1255.11 617.15 1254.8 617.46 1254.42 617.46 C 1254.04 617.46 1253.73 617.15 1253.73 616.76 C 1253.73 616.38 1254.04 616.07 1254.42 616.07 C 1254.8 616.07 1255.11 616.38 1255.11 616.76 Z" fill="#FAA718" stroke-width="1" stroke-linecap="butt" stroke="none" stroke-linejoin="miter" />
</g>
<g id="layout-shape-24" data-name="任意多边形: 形状 23">
<path d="M 1260.66 616.76 C 1260.66 617.15 1260.35 617.46 1259.97 617.46 C 1259.58 617.46 1259.27 617.15 1259.27 616.76 C 1259.27 616.38 1259.58 616.07 1259.97 616.07 C 1260.35 616.07 1260.66 616.38 1260.66 616.76 Z" fill="#FAA718" stroke-width="1" stroke-linecap="butt" stroke="none" stroke-linejoin="miter" />
</g>
<g id="layout-shape-25" data-name="任意多边形: 形状 24">
<path d="M 1266.21 616.76 C 1266.21 617.15 1265.9 617.46 1265.52 617.46 C 1265.13 617.46 1264.82 617.15 1264.82 616.76 C 1264.82 616.38 1265.13 616.07 1265.52 616.07 C 1265.89 616.07 1266.21 616.38 1266.21 616.76 Z" fill="#FAA718" stroke-width="1" stroke-linecap="butt" stroke="none" stroke-linejoin="miter" />
</g>
<g id="layout-shape-26" data-name="任意多边形: 形状 25">
<path d="M 1271.76 616.76 C 1271.76 617.15 1271.45 617.46 1271.06 617.46 C 1270.68 617.46 1270.37 617.15 1270.37 616.76 C 1270.37 616.38 1270.68 616.07 1271.06 616.07 C 1271.45 616.07 1271.76 616.38 1271.76 616.76 Z" fill="#FAA718" stroke-width="1" stroke-linecap="butt" stroke="none" stroke-linejoin="miter" />
</g>
<g id="layout-shape-27" data-name="任意多边形: 形状 26">
<path d="M 1277.3 616.76 C 1277.3 617.15 1276.99 617.46 1276.61 617.46 C 1276.23 617.46 1275.92 617.15 1275.92 616.76 C 1275.92 616.38 1276.23 616.07 1276.61 616.07 C 1276.99 616.07 1277.3 616.38 1277.3 616.76 Z" fill="#FAA718" stroke-width="1" stroke-linecap="butt" stroke="none" stroke-linejoin="miter" />
</g>
<g id="layout-shape-28" data-name="任意多边形: 形状 27">
<path d="M 1249.56 622.3 C 1249.56 622.68 1249.25 623 1248.87 623 C 1248.48 623 1248.17 622.68 1248.17 622.3 C 1248.17 621.92 1248.48 621.61 1248.87 621.61 C 1249.25 621.61 1249.56 621.92 1249.56 622.3 Z" fill="#FAA718" stroke-width="1" stroke-linecap="butt" stroke="none" stroke-linejoin="miter" />
</g>
<g id="layout-shape-29" data-name="任意多边形: 形状 28">
<path d="M 1255.11 622.3 C 1255.11 622.68 1254.8 623 1254.41 623 C 1254.03 623 1253.72 622.68 1253.72 622.3 C 1253.72 621.92 1254.03 621.61 1254.41 621.61 C 1254.8 621.61 1255.11 621.92 1255.11 622.3 Z" fill="#FAA718" stroke-width="1" stroke-linecap="butt" stroke="none" stroke-linejoin="miter" />
</g>
<g id="layout-shape-30" data-name="任意多边形: 形状 29">
<path d="M 1260.66 622.3 C 1260.66 622.68 1260.35 623 1259.97 623 C 1259.58 623 1259.27 622.68 1259.27 622.3 C 1259.27 621.92 1259.58 621.61 1259.97 621.61 C 1260.35 621.61 1260.66 621.92 1260.66 622.3 Z" fill="#FAA718" stroke-width="1" stroke-linecap="butt" stroke="none" stroke-linejoin="miter" />
</g>
<g id="layout-shape-31" data-name="任意多边形: 形状 30">
<path d="M 1266.21 622.3 C 1266.21 622.68 1265.89 623 1265.51 623 C 1265.13 623 1264.82 622.68 1264.82 622.3 C 1264.82 621.92 1265.13 621.61 1265.51 621.61 C 1265.89 621.61 1266.21 621.92 1266.21 622.3 Z" fill="#FAA718" stroke-width="1" stroke-linecap="butt" stroke="none" stroke-linejoin="miter" />
</g>
<g id="layout-shape-32" data-name="任意多边形: 形状 31">
<path d="M 1271.76 622.3 C 1271.76 622.68 1271.45 623 1271.06 623 C 1270.68 623 1270.37 622.68 1270.37 622.3 C 1270.37 621.92 1270.68 621.61 1271.06 621.61 C 1271.45 621.61 1271.76 621.92 1271.76 622.3 Z" fill="#FAA718" stroke-width="1" stroke-linecap="butt" stroke="none" stroke-linejoin="miter" />
</g>
<g id="layout-shape-33" data-name="任意多边形: 形状 32">
<path d="M 1249.56 627.85 C 1249.56 628.23 1249.25 628.54 1248.87 628.54 C 1248.48 628.54 1248.17 628.23 1248.17 627.85 C 1248.17 627.46 1248.48 627.15 1248.87 627.15 C 1249.25 627.15 1249.56 627.46 1249.56 627.85 Z" fill="#FAA718" stroke-width="1" stroke-linecap="butt" stroke="none" stroke-linejoin="miter" />
</g>
<g id="layout-shape-34" data-name="任意多边形: 形状 33">
<path d="M 1255.11 627.85 C 1255.11 628.23 1254.8 628.54 1254.41 628.54 C 1254.03 628.54 1253.72 628.23 1253.72 627.85 C 1253.72 627.46 1254.03 627.15 1254.41 627.15 C 1254.8 627.15 1255.11 627.46 1255.11 627.85 Z" fill="#FAA718" stroke-width="1" stroke-linecap="butt" stroke="none" stroke-linejoin="miter" />
</g>
<g id="layout-shape-35" data-name="任意多边形: 形状 34">
<path d="M 1260.66 627.85 C 1260.66 628.23 1260.35 628.54 1259.97 628.54 C 1259.58 628.54 1259.27 628.23 1259.27 627.85 C 1259.27 627.46 1259.58 627.15 1259.97 627.15 C 1260.35 627.15 1260.66 627.46 1260.66 627.85 Z" fill="#FAA718" stroke-width="1" stroke-linecap="butt" stroke="none" stroke-linejoin="miter" />
</g>
<g id="layout-shape-36" data-name="任意多边形: 形状 35">
<path d="M 1266.21 627.85 C 1266.21 628.23 1265.89 628.54 1265.51 628.54 C 1265.13 628.54 1264.82 628.23 1264.82 627.85 C 1264.82 627.46 1265.13 627.15 1265.51 627.15 C 1265.89 627.15 1266.21 627.46 1266.21 627.85 Z" fill="#FAA718" stroke-width="1" stroke-linecap="butt" stroke="none" stroke-linejoin="miter" />
</g>
<g id="layout-shape-37" data-name="任意多边形: 形状 36">
<path d="M 1249.56 633.39 C 1249.56 633.77 1249.25 634.08 1248.87 634.08 C 1248.48 634.08 1248.17 633.77 1248.17 633.39 C 1248.17 633 1248.48 632.69 1248.87 632.69 C 1249.25 632.69 1249.56 633 1249.56 633.39 Z" fill="#FAA718" stroke-width="1" stroke-linecap="butt" stroke="none" stroke-linejoin="miter" />
</g>
<g id="layout-shape-38" data-name="任意多边形: 形状 37">
<path d="M 1255.11 633.39 C 1255.11 633.77 1254.8 634.08 1254.42 634.08 C 1254.04 634.08 1253.73 633.77 1253.73 633.39 C 1253.73 633 1254.04 632.69 1254.42 632.69 C 1254.8 632.69 1255.11 633 1255.11 633.39 Z" fill="#FAA718" stroke-width="1" stroke-linecap="butt" stroke="none" stroke-linejoin="miter" />
</g>
<g id="layout-shape-39" data-name="任意多边形: 形状 38">
<path d="M 1260.66 633.39 C 1260.66 633.77 1260.35 634.08 1259.97 634.08 C 1259.58 634.08 1259.27 633.77 1259.27 633.39 C 1259.27 633 1259.58 632.69 1259.97 632.69 C 1260.35 632.69 1260.66 633 1260.66 633.39 Z" fill="#FAA718" stroke-width="1" stroke-linecap="butt" stroke="none" stroke-linejoin="miter" />
</g>
<g id="layout-shape-40" data-name="任意多边形: 形状 39">
<path d="M 1249.56 638.93 C 1249.56 639.31 1249.25 639.62 1248.87 639.62 C 1248.48 639.62 1248.17 639.31 1248.17 638.93 C 1248.17 638.54 1248.48 638.23 1248.87 638.23 C 1249.25 638.23 1249.56 638.54 1249.56 638.93 Z" fill="#FAA718" stroke-width="1" stroke-linecap="butt" stroke="none" stroke-linejoin="miter" />
</g>
<g id="layout-shape-41" data-name="任意多边形: 形状 40">
<path d="M 1255.11 638.93 C 1255.11 639.31 1254.8 639.62 1254.42 639.62 C 1254.04 639.62 1253.73 639.31 1253.73 638.93 C 1253.73 638.54 1254.04 638.23 1254.42 638.23 C 1254.8 638.23 1255.11 638.54 1255.11 638.93 Z" fill="#FAA718" stroke-width="1" stroke-linecap="butt" stroke="none" stroke-linejoin="miter" />
</g>
<g id="layout-shape-42" data-name="任意多边形: 形状 41">
<path d="M 1249.56 644.46 C 1249.56 644.85 1249.25 645.16 1248.87 645.16 C 1248.48 645.16 1248.17 644.85 1248.17 644.46 C 1248.17 644.08 1248.48 643.77 1248.87 643.77 C 1249.25 643.77 1249.56 644.08 1249.56 644.46 Z" fill="#FAA718" stroke-width="1" stroke-linecap="butt" stroke="none" stroke-linejoin="miter" />
</g>
</g>
<g id="layout-shape-5" data-name="组合 4">
<g id="layout-shape-6" data-name="矩形 5">
<rect x="1153.52" y="722.12" width="171.52" height="49.57" fill="#F5F7F9" stroke="none" stroke-width="1" />
</g>
<g id="layout-shape-7" data-name="矩形 6" transform="rotate(90 1306.4 663.36)">
<rect x="1220.64" y="638.57" width="171.52" height="49.57" fill="#F5F7F9" stroke="none" stroke-width="1" />
</g>
</g>
</g>
<g id="layout-shape-43" data-name="组合 42" transform="translate(38.66 45.99) scale(-1 -1) translate(-38.66 -45.99)">
<g id="layout-shape-44" data-name="组合 43">
<g id="layout-shape-48" data-name="任意多边形: 形状 47">
<path d="M -28.06 95.37 L 92.39 -25.08 L 92.39 15.07 L -28.06 135.51 Z" fill="#F2634B" stroke-width="1" stroke-linecap="butt" stroke="none" stroke-linejoin="miter" />
</g>
<g id="layout-shape-49" data-name="任意多边形: 形状 48">
<path d="M 10.79 56.98 C 10.79 48.11 7.4 39.25 0.64 32.48 L 25.14 56.98 L 0.64 81.47 C 7.4 74.71 10.79 65.84 10.79 56.98 Z" fill="#2B357A" stroke-width="1" stroke-linecap="butt" stroke="none" stroke-linejoin="miter" />
</g>
<g id="layout-shape-50" data-name="任意多边形: 形状 49">
<path d="M -23.85 56.98 L -7.46 40.58 C -2.93 45.11 -0.67 51.04 -0.67 56.98 C -0.67 62.91 -2.93 68.84 -7.46 73.37 L -23.85 56.98 Z" fill="#2B357A" stroke-width="1" stroke-linecap="butt" stroke="none" stroke-linejoin="miter" />
</g>
<g id="layout-shape-51" data-name="任意多边形: 形状 50">
<path d="M -23.85 56.98 L -7.46 40.58 C -2.93 45.11 -0.67 51.04 -0.67 56.98 C -0.67 62.91 -2.93 68.84 -7.46 73.37 L -23.85 56.98 Z" fill="#FFFFFF" stroke-width="1" stroke-linecap="butt" stroke="none" stroke-linejoin="miter" />
</g>
<g id="layout-shape-52" data-name="任意多边形: 形状 51">
<path d="M -23.85 56.98 L -7.46 40.58 C -2.93 45.11 -0.67 51.04 -0.67 56.98 C -0.67 62.91 -2.93 68.84 -7.46 73.37 L -23.85 56.98 Z" fill="#61C9DC" stroke-width="1" stroke-linecap="butt" stroke="none" stroke-linejoin="miter" />
</g>
<g id="layout-shape-53" data-name="任意多边形: 形状 52">
<path d="M 37.01 68.91 L 48.87 57.05 L 37.01 45.2 L 25.16 33.34 L 13.3 45.2 L 25.16 57.05 L 13.3 68.91 L 25.16 80.77 Z" fill="#F2634B" stroke-width="1" stroke-linecap="butt" stroke="none" stroke-linejoin="miter" />
</g>
<g id="layout-shape-54" data-name="任意多边形: 形状 53">
<path d="M 25.16 57.05 L 25.16 33.34 L 13.3 45.2 Z" fill="#FAA718" stroke-width="1" stroke-linecap="butt" stroke="none" stroke-linejoin="miter" />
</g>
<g id="layout-shape-55" data-name="任意多边形: 形状 54">
<path d="M 105.21 72.38 L 55.74 22.65 L 48.82 29.55 L 98.3 79.29 Z" fill="#2B357A" stroke-width="1" stroke-linecap="butt" stroke="none" stroke-linejoin="miter" />
</g>
<g id="layout-shape-56" data-name="任意多边形: 形状 55">
<path d="M 35.01 43.37 L 48.82 57.19 L 35.01 71.01 L 48.82 84.82 L 62.64 71.01 L 76.46 57.19 L 62.64 43.37 L 48.82 29.55 Z" fill="#FAA718" stroke-width="1" stroke-linecap="butt" stroke="none" stroke-linejoin="miter" />
</g>
<g id="layout-shape-57" data-name="任意多边形: 形状 56">
<path d="M -28.31 56.98 C -28.31 60.04 -30.79 62.52 -33.85 62.52 C -36.91 62.52 -39.39 60.04 -39.39 56.98 C -39.39 53.92 -36.91 51.44 -33.85 51.44 C -30.79 51.44 -28.31 53.92 -28.31 56.98 Z" fill="#FAA718" stroke-width="1" stroke-linecap="butt" stroke="none" stroke-linejoin="miter" />
</g>
<g id="layout-shape-58" data-name="任意多边形: 形状 57">
<path d="M 77.97 86.48 L 48.64 57.16 L 58.42 47.38 L 87.75 76.71 Z" fill="#61C9DC" stroke-width="1" stroke-linecap="butt" stroke="none" stroke-linejoin="miter" />
</g>
<g id="layout-shape-59" data-name="任意多边形: 形状 58">
<path d="M 61.26 59.69 C 61.71 59.24 61.71 58.52 61.26 58.07 C 60.81 57.62 60.08 57.62 59.63 58.07 C 59.18 58.52 59.18 59.24 59.63 59.69 C 60.08 60.14 60.81 60.14 61.26 59.69 Z" fill="#2B357A" stroke-width="1" stroke-linecap="butt" stroke="none" stroke-linejoin="miter" />
</g>
<g id="layout-shape-60" data-name="任意多边形: 形状 59">
<path d="M 69.95 68.39 C 70.4 67.94 70.4 67.21 69.95 66.76 C 69.5 66.31 68.77 66.31 68.32 66.76 C 67.87 67.21 67.87 67.94 68.32 68.39 C 68.77 68.84 69.5 68.84 69.95 68.39 Z" fill="#2B357A" stroke-width="1" stroke-linecap="butt" stroke="none" stroke-linejoin="miter" />
</g>
<g id="layout-shape-61" data-name="任意多边形: 形状 60">
<path d="M 78.98 76.26 C 78.98 76.9 78.46 77.42 77.83 77.42 C 77.19 77.42 76.68 76.9 76.68 76.26 C 76.68 75.63 77.19 75.11 77.83 75.11 C 78.46 75.11 78.98 75.63 78.98 76.26 Z" fill="#2B357A" stroke-width="1" stroke-linecap="butt" stroke="none" stroke-linejoin="miter" />
</g>
<g id="layout-shape-62" data-name="任意多边形: 形状 61">
<path d="M 45.87 -11.89 C 45.87 -11.51 45.56 -11.2 45.17 -11.2 C 44.79 -11.2 44.48 -11.51 44.48 -11.89 C 44.48 -12.28 44.79 -12.59 45.17 -12.59 C 45.56 -12.59 45.87 -12.28 45.87 -11.89 Z" fill="#FAA718" stroke-width="1" stroke-linecap="butt" stroke="none" stroke-linejoin="miter" />
</g>
<g id="layout-shape-63" data-name="任意多边形: 形状 62">
<path d="M 51.42 -11.89 C 51.42 -11.51 51.11 -11.2 50.73 -11.2 C 50.34 -11.2 50.03 -11.51 50.03 -11.89 C 50.03 -12.28 50.34 -12.59 50.73 -12.59 C 51.1 -12.59 51.42 -12.28 51.42 -11.89 Z" fill="#FAA718" stroke-width="1" stroke-linecap="butt" stroke="none" stroke-linejoin="miter" />
</g>
<g id="layout-shape-64" data-name="任意多边形: 形状 63">
<path d="M 56.97 -11.89 C 56.97 -11.51 56.66 -11.2 56.27 -11.2 C 55.89 -11.2 55.58 -11.51 55.58 -11.89 C 55.58 -12.28 55.89 -12.59 56.27 -12.59 C 56.66 -12.59 56.97 -12.28 56.97 -11.89 Z" fill="#FAA718" stroke-width="1" stroke-linecap="butt" stroke="none" stroke-linejoin="miter" />
</g>
<g id="layout-shape-65" data-name="任意多边形: 形状 64">
<path d="M 62.52 -11.89 C 62.52 -11.51 62.21 -11.2 61.82 -11.2 C 61.44 -11.2 61.13 -11.51 61.13 -11.89 C 61.13 -12.28 61.44 -12.59 61.82 -12.59 C 62.2 -12.59 62.52 -12.28 62.52 -11.89 Z" fill="#FAA718" stroke-width="1" stroke-linecap="butt" stroke="none" stroke-linejoin="miter" />
</g>
<g id="layout-shape-66" data-name="任意多边形: 形状 65">
<path d="M 68.06 -11.89 C 68.06 -11.51 67.75 -11.2 67.37 -11.2 C 66.99 -11.2 66.68 -11.51 66.68 -11.89 C 66.68 -12.28 66.99 -12.59 67.37 -12.59 C 67.75 -12.59 68.06 -12.28 68.06 -11.89 Z" fill="#FAA718" stroke-width="1" stroke-linecap="butt" stroke="none" stroke-linejoin="miter" />
</g>
<g id="layout-shape-67" data-name="任意多边形: 形状 66">
<path d="M 73.61 -11.89 C 73.61 -11.51 73.3 -11.2 72.92 -11.2 C 72.53 -11.2 72.22 -11.51 72.22 -11.89 C 72.22 -12.28 72.53 -12.59 72.92 -12.59 C 73.3 -12.59 73.61 -12.28 73.61 -11.89 Z" fill="#FAA718" stroke-width="1" stroke-linecap="butt" stroke="none" stroke-linejoin="miter" />
</g>
<g id="layout-shape-68" data-name="任意多边形: 形状 67">
<path d="M 45.87 -6.35 C 45.87 -5.97 45.56 -5.66 45.17 -5.66 C 44.79 -5.66 44.48 -5.97 44.48 -6.35 C 44.48 -6.74 44.79 -7.05 45.17 -7.05 C 45.56 -7.05 45.87 -6.74 45.87 -6.35 Z" fill="#FAA718" stroke-width="1" stroke-linecap="butt" stroke="none" stroke-linejoin="miter" />
</g>
<g id="layout-shape-69" data-name="任意多边形: 形状 68">
<path d="M 51.41 -6.35 C 51.41 -5.97 51.1 -5.66 50.72 -5.66 C 50.34 -5.66 50.03 -5.97 50.03 -6.35 C 50.03 -6.74 50.34 -7.05 50.72 -7.05 C 51.1 -7.05 51.41 -6.74 51.41 -6.35 Z" fill="#FAA718" stroke-width="1" stroke-linecap="butt" stroke="none" stroke-linejoin="miter" />
</g>
<g id="layout-shape-70" data-name="任意多边形: 形状 69">
<path d="M 56.97 -6.35 C 56.97 -5.97 56.66 -5.66 56.27 -5.66 C 55.89 -5.66 55.58 -5.97 55.58 -6.35 C 55.58 -6.74 55.89 -7.05 56.27 -7.05 C 56.66 -7.05 56.97 -6.74 56.97 -6.35 Z" fill="#FAA718" stroke-width="1" stroke-linecap="butt" stroke="none" stroke-linejoin="miter" />
</g>
<g id="layout-shape-71" data-name="任意多边形: 形状 70">
<path d="M 62.51 -6.35 C 62.51 -5.97 62.2 -5.66 61.82 -5.66 C 61.43 -5.66 61.12 -5.97 61.12 -6.35 C 61.12 -6.74 61.43 -7.05 61.82 -7.05 C 62.2 -7.05 62.51 -6.74 62.51 -6.35 Z" fill="#FAA718" stroke-width="1" stroke-linecap="butt" stroke="none" stroke-linejoin="miter" />
</g>
<g id="layout-shape-72" data-name="任意多边形: 形状 71">
<path d="M 68.06 -6.35 C 68.06 -5.97 67.75 -5.66 67.37 -5.66 C 66.99 -5.66 66.68 -5.97 66.68 -6.35 C 66.68 -6.74 66.99 -7.05 67.37 -7.05 C 67.75 -7.05 68.06 -6.74 68.06 -6.35 Z" fill="#FAA718" stroke-width="1" stroke-linecap="butt" stroke="none" stroke-linejoin="miter" />
</g>
<g id="layout-shape-73" data-name="任意多边形: 形状 72">
<path d="M 45.87 -0.81 C 45.87 -0.42 45.56 -0.11 45.17 -0.11 C 44.79 -0.11 44.48 -0.42 44.48 -0.81 C 44.48 -1.19 44.79 -1.5 45.17 -1.5 C 45.56 -1.5 45.87 -1.19 45.87 -0.81 Z" fill="#FAA718" stroke-width="1" stroke-linecap="butt" stroke="none" stroke-linejoin="miter" />
</g>
<g id="layout-shape-74" data-name="任意多边形: 形状 73">
<path d="M 51.41 -0.81 C 51.41 -0.42 51.1 -0.11 50.72 -0.11 C 50.34 -0.11 50.03 -0.42 50.03 -0.81 C 50.03 -1.19 50.34 -1.5 50.72 -1.5 C 51.1 -1.5 51.41 -1.19 51.41 -0.81 Z" fill="#FAA718" stroke-width="1" stroke-linecap="butt" stroke="none" stroke-linejoin="miter" />
</g>
<g id="layout-shape-75" data-name="任意多边形: 形状 74">
<path d="M 56.97 -0.81 C 56.97 -0.42 56.66 -0.11 56.27 -0.11 C 55.89 -0.11 55.58 -0.42 55.58 -0.81 C 55.58 -1.19 55.89 -1.5 56.27 -1.5 C 56.66 -1.5 56.97 -1.19 56.97 -0.81 Z" fill="#FAA718" stroke-width="1" stroke-linecap="butt" stroke="none" stroke-linejoin="miter" />
</g>
<g id="layout-shape-76" data-name="任意多边形: 形状 75">
<path d="M 62.51 -0.81 C 62.51 -0.42 62.2 -0.11 61.82 -0.11 C 61.43 -0.11 61.12 -0.42 61.12 -0.81 C 61.12 -1.19 61.43 -1.5 61.82 -1.5 C 62.2 -1.5 62.51 -1.19 62.51 -0.81 Z" fill="#FAA718" stroke-width="1" stroke-linecap="butt" stroke="none" stroke-linejoin="miter" />
</g>
<g id="layout-shape-77" data-name="任意多边形: 形状 76">
<path d="M 45.87 4.73 C 45.87 5.12 45.56 5.43 45.17 5.43 C 44.79 5.43 44.48 5.12 44.48 4.73 C 44.48 4.35 44.79 4.04 45.17 4.04 C 45.56 4.04 45.87 4.35 45.87 4.73 Z" fill="#FAA718" stroke-width="1" stroke-linecap="butt" stroke="none" stroke-linejoin="miter" />
</g>
<g id="layout-shape-78" data-name="任意多边形: 形状 77">
<path d="M 51.42 4.73 C 51.42 5.12 51.11 5.43 50.73 5.43 C 50.34 5.43 50.03 5.12 50.03 4.73 C 50.03 4.35 50.34 4.04 50.73 4.04 C 51.1 4.04 51.42 4.35 51.42 4.73 Z" fill="#FAA718" stroke-width="1" stroke-linecap="butt" stroke="none" stroke-linejoin="miter" />
</g>
<g id="layout-shape-79" data-name="任意多边形: 形状 78">
<path d="M 56.97 4.73 C 56.97 5.12 56.66 5.43 56.27 5.43 C 55.89 5.43 55.58 5.12 55.58 4.73 C 55.58 4.35 55.89 4.04 56.27 4.04 C 56.66 4.04 56.97 4.35 56.97 4.73 Z" fill="#FAA718" stroke-width="1" stroke-linecap="butt" stroke="none" stroke-linejoin="miter" />
</g>
<g id="layout-shape-80" data-name="任意多边形: 形状 79">
<path d="M 45.87 10.27 C 45.87 10.65 45.56 10.97 45.17 10.97 C 44.79 10.97 44.48 10.65 44.48 10.27 C 44.48 9.89 44.79 9.58 45.17 9.58 C 45.56 9.58 45.87 9.89 45.87 10.27 Z" fill="#FAA718" stroke-width="1" stroke-linecap="butt" stroke="none" stroke-linejoin="miter" />
</g>
<g id="layout-shape-81" data-name="任意多边形: 形状 80">
<path d="M 51.42 10.27 C 51.42 10.65 51.11 10.97 50.73 10.97 C 50.34 10.97 50.03 10.65 50.03 10.27 C 50.03 9.89 50.34 9.58 50.73 9.58 C 51.1 9.58 51.42 9.89 51.42 10.27 Z" fill="#FAA718" stroke-width="1" stroke-linecap="butt" stroke="none" stroke-linejoin="miter" />
</g>
<g id="layout-shape-82" data-name="任意多边形: 形状 81">
<path d="M 45.87 15.81 C 45.87 16.19 45.56 16.5 45.17 16.5 C 44.79 16.5 44.48 16.19 44.48 15.81 C 44.48 15.43 44.79 15.12 45.17 15.12 C 45.56 15.12 45.87 15.43 45.87 15.81 Z" fill="#FAA718" stroke-width="1" stroke-linecap="butt" stroke="none" stroke-linejoin="miter" />
</g>
</g>
<g id="layout-shape-45" data-name="组合 44">
<g id="layout-shape-46" data-name="矩形 45">
<rect x="-50.17" y="93.46" width="171.52" height="49.57" fill="#F5F7F9" stroke="none" stroke-width="1" />
</g>
<g id="layout-shape-47" data-name="矩形 46" transform="rotate(90 102.71 34.71)">
<rect x="16.94" y="9.92" width="171.52" height="49.57" fill="#F5F7F9" stroke="none" stroke-width="1" />
</g>
</g>
</g>
</g>
<g id="shape-17" data-name="组合 16">
<g id="shape-16" data-name="图片 15">
<image href="assets/image3.png" x="734.09" y="152.95" width="420.05" height="413.97" preserveAspectRatio="none" />
</g>
<g id="shape-2" data-name="组合 1">
<g id="shape-3" data-name="矩形 2">
<rect x="647.86" y="153.02" width="75.53" height="413.97" fill="#F2634B" stroke="none" stroke-width="1" />
</g>
<g id="shape-4" data-name="文本框 3" transform="rotate(90 692.72 368.02)">
<rect x="498.36" y="331.4" width="388.71" height="73.24" fill="none" />
<text x="507.96" y="367.93" text-anchor="start" xml:space="preserve" font-family="&quot;MiSans Normal&quot;, sans-serif" font-size="37.33" fill="#FFFFFF" fill-opacity="0.3" font-weight="bold" letter-spacing="13.33"><tspan fill="#FFFFFF" font-size="37.33">{{PAGE_TITLE}}</tspan></text>
</g>
</g>
</g>
<g id="shape-5" data-name="组合 4">
<g id="shape-15" data-name="直接连接符 14">
<line x1="575.27" y1="228.27" x2="575.27" y2="489.29" stroke="#D9D9D9" stroke-opacity="0.5" fill="#2B357A" stroke-width="1" />
</g>
<g id="shape-28" data-name="组合 27">
<g id="shape-29" data-name="文本框 28">
<rect x="116.59" y="298.41" width="406.12" height="265.61" fill="none" />
<text x="126.19" y="321.34" text-anchor="start" xml:space="preserve" font-family="&quot;MiSans Normal&quot;, sans-serif" font-size="21.33" fill="#404040"><tspan fill="#404040" font-size="21.33">{{CONTENT_1}}</tspan></text>

<text x="126.19" y="452.54" text-anchor="start" xml:space="preserve" font-family="&quot;MiSans Normal&quot;, sans-serif" font-size="21.33" fill="#404040"><tspan fill="#404040" font-size="21.33">{{CONTENT_2}}</tspan></text>
</g>
<g id="shape-30" data-name="组合 29">
<g id="shape-31" data-name="文本框 30">
<rect x="116.59" y="151.16" width="288.66" height="74.32" fill="none" />
<text x="126.19" y="201.29" text-anchor="start" xml:space="preserve" font-family="&quot;MiSans Normal&quot;, sans-serif" font-size="53.33" fill="#262626" font-weight="bold"><tspan fill="#262626" font-size="53.33">{{SECTION_TITLE}}</tspan></text>
</g>
<g id="shape-32" data-name="文本框 31">
<rect x="116.59" y="219.47" width="256.35" height="35.54" fill="none" />
<text x="126.19" y="242.4" text-anchor="start" xml:space="preserve" font-family="&quot;MiSans Normal&quot;, sans-serif" font-size="21.33" fill="#262626" fill-opacity="0.5"><tspan fill="#262626" font-size="21.33">{{CONTENT_3}}</tspan></text>
</g>
<g id="shape-33" data-name="矩形: 圆角 32" transform="translate(162.88 273.33) scale(1 -1) translate(-162.88 -273.33)">
<rect x="127.25" y="267.57" width="71.25" height="11.53" rx="5.77" ry="5.77" fill="#FAA718" stroke="none" stroke-width="1" />
</g>
</g>
</g>
</g></svg>