<?xml version='1.0' encoding='utf-8'?>
<svg xmlns="http://www.w3.org/2000/svg" version="1.1" width="1280" height="720" viewBox="0 0 1280 720"><rect x="0" y="0" width="1280" height="720" fill="#924437" />
<g id="master-shape-8" data-name="圆角矩形 7">
<rect x="29.07" y="26.07" width="1221.8" height="667" rx="26.53" ry="26.53" fill="#FFFFFF" stroke="none" stroke-width="1" />
</g>
<g id="layout-shape-7" data-name="椭圆 6">
<ellipse cx="1170.67" cy="84.67" rx="6" ry="6" fill="#924437" stroke="none" stroke-width="1" />
</g>
<g id="layout-shape-8" data-name="椭圆 7">
<ellipse cx="1190.67" cy="84.67" rx="6" ry="6" fill="#924437" stroke="none" stroke-width="1" />
</g>
<g id="layout-shape-9" data-name="椭圆 8">
<ellipse cx="1210.67" cy="84.67" rx="6" ry="6" fill="#924437" stroke="none" stroke-width="1" />
</g>
<g id="shape-2" data-name="标题 1" data-ph-type="title">
<rect x="63.87" y="48.87" width="1151.62" height="74.08" fill="none" />
<text x="73.47" y="74.07" text-anchor="start" xml:space="preserve" font-family="sans-serif" font-size="24" fill="#000000"><tspan fill="#000000" font-size="24">{{CLOSING_MESSAGE}}</tspan></text>
</g>
<g id="shape-4" data-name="组合 3">
<g id="shape-7" data-name="组合 6">
<g id="shape-3" data-name="组合 2">
<g id="shape-5" data-name="文本">
<path d="M 514.21 185.51 L 514.21 185.51 C 511.45 185.51 508.65 182.72 508.65 179 C 508.65 176.21 511.45 173.44 514.21 173.44 C 517.93 173.44 520.72 176.21 520.72 179 C 520.72 182.72 517.93 185.51 514.21 185.51" stroke="none" fill="none" />
</g>
<g id="shape-6" data-name="文本">
<path d="M 514.21 400.88 L 514.21 400.88 C 511.45 400.88 508.65 398.06 508.65 395.24 C 508.65 391.49 511.45 388.67 514.21 388.67 C 517.93 388.67 520.72 391.49 520.72 395.24 C 520.72 398.06 517.93 400.88 514.21 400.88" stroke="none" fill="none" />
</g>
<g id="shape-8" data-name="文本">
<path d="M 615.83 287.16 L 615.83 287.16 C 615.83 283.43 618.6 281.58 622.32 281.58 C 625.09 281.58 627.89 283.43 627.89 287.16 C 627.89 289.93 625.09 292.74 622.32 292.74 C 618.6 292.74 615.83 289.93 615.83 287.16" stroke="none" fill="none" />
</g>
<g id="shape-9" data-name="文本">
<path d="M 400.43 287.16 L 400.43 287.16 C 400.43 283.43 403.23 281.58 406.94 281.58 C 409.71 281.58 412.5 283.43 412.5 287.16 C 412.5 289.93 409.71 292.74 406.94 292.74 C 403.23 292.74 400.43 289.93 400.43 287.16" stroke="none" fill="none" />
</g>
<g id="shape-10" data-name="文本">
<path d="M 434.02 367.2 L 434.02 367.2 C 431.2 365.32 431.2 361.61 434.02 358.81 C 435.88 356.97 439.62 356.97 442.44 358.81 C 444.32 361.61 444.32 365.32 442.44 367.2 C 439.62 369.96 435.88 369.96 434.02 367.2" stroke="none" fill="none" />
</g>
<g id="shape-22" data-name="文本">
<path d="M 586.02 358.81 L 586.02 358.81 C 588.81 356.97 592.55 356.97 594.44 358.81 C 597.25 361.61 597.25 365.32 594.44 367.2 C 592.55 369.96 588.81 369.96 586.02 367.2 C 584.13 365.32 584.13 361.61 586.02 358.81" stroke="none" fill="none" />
</g>
<g id="shape-13" data-name="文本">
<path d="M 434.02 206.86 L 434.02 206.86 C 435.88 204.09 439.62 204.09 442.44 206.86 C 444.32 208.73 444.32 212.45 442.44 215.25 C 439.62 217.09 435.88 217.09 434.02 215.25 C 431.2 212.45 431.2 208.73 434.02 206.86" stroke="none" fill="none" />
</g>
<g id="shape-16" data-name="文本">
<path d="M 471.34 392.42 L 471.34 392.42 C 467.63 390.56 466.71 387.74 467.63 384 C 468.55 381.18 472.27 380.25 475.06 381.18 C 478.77 382.14 479.7 385.89 478.77 388.67 C 476.9 392.42 474.14 393.38 471.34 392.42" stroke="none" fill="none" />
</g>
<g id="shape-25" data-name="文本">
<path d="M 608.37 326.28 L 608.37 326.28 C 610.23 323.46 613.04 321.58 615.86 322.54 C 619.6 324.39 620.53 327.21 619.6 330.96 C 618.64 333.77 614.9 334.7 612.11 333.77 C 608.37 332.81 607.41 329.07 608.37 326.28" stroke="none" fill="none" />
</g>
<g id="shape-26" data-name="文本">
<path d="M 408.86 243.23 L 408.86 243.23 C 410.74 240.45 414.48 238.56 417.27 240.45 C 420.08 241.38 421.97 245.12 420.08 247.94 C 419.15 250.72 415.41 252.61 412.6 251.68 C 409.78 249.79 407.93 246.98 408.86 243.23" stroke="none" fill="none" />
</g>
<g id="shape-27" data-name="文本">
<path d="M 408.86 330.96 L 408.86 330.96 C 407.93 327.21 409.78 324.39 412.6 322.54 C 415.41 321.58 419.15 323.46 420.08 326.28 C 421.97 329.07 420.08 332.81 417.27 333.77 C 414.48 334.7 410.74 333.77 408.86 330.96" stroke="none" fill="none" />
</g>
<g id="shape-28" data-name="文本">
<path d="M 553.27 381.18 L 553.27 381.18 C 556.06 380.25 559.78 381.18 560.7 384 C 562.54 387.74 560.7 390.56 557.9 392.42 C 555.11 393.38 551.39 392.42 550.47 388.67 C 548.63 385.89 550.47 382.14 553.27 381.18" stroke="none" fill="none" />
</g>
<g id="shape-29" data-name="文本">
<path d="M 471.34 181.73 L 471.34 181.73 C 474.14 180.81 476.9 181.73 478.77 185.45 C 479.7 188.24 478.77 191.96 475.06 192.88 C 472.27 193.8 468.55 192.88 467.63 190.09 C 466.71 186.37 467.63 183.57 471.34 181.73" stroke="none" fill="none" />
</g>
<g id="shape-30" data-name="文本">
<path d="M 494.58 187.36 L 494.58 187.36 C 490.83 187.36 488.02 185.51 487.09 182.72 C 487.09 179 488.98 176.2 491.76 175.28 C 495.51 175.28 498.32 177.16 499.25 179.92 C 500.21 183.64 497.39 186.43 494.58 187.36" stroke="none" fill="none" />
</g>
<g id="shape-32" data-name="文本">
<path d="M 536.53 398.9 L 536.53 398.9 C 533.74 398.9 530 397.06 530 394.27 C 529.04 390.55 530.92 387.75 534.67 386.83 C 537.48 385.91 540.27 388.67 541.23 391.47 C 542.16 395.19 539.34 397.98 536.53 398.9" stroke="none" fill="none" />
</g>
<g id="shape-33" data-name="文本">
<path d="M 403.36 309.41 L 403.36 309.41 C 402.4 305.69 404.29 302.9 408.04 301.97 C 410.85 301.97 413.64 303.85 414.6 306.61 C 415.52 310.33 412.71 313.13 409.89 314.05 C 407.11 314.05 403.36 312.2 403.36 309.41" stroke="none" fill="none" />
</g>
<g id="shape-34" data-name="文本">
<path d="M 450.8 381.23 L 450.8 381.23 C 448.03 379.37 448.03 376.55 449.88 373.74 C 451.75 370.95 455.46 369.99 457.31 371.88 C 460.1 373.74 461.02 377.48 459.18 380.3 C 457.31 383.12 453.59 383.12 450.8 381.23" stroke="none" fill="none" />
</g>
<g id="shape-35" data-name="文本">
<path d="M 599 344 L 599 344 C 600.87 341.22 604.58 340.26 607.35 342.15 C 610.14 344 611.06 347.75 609.22 350.57 C 607.35 353.38 603.63 353.38 600.87 352.46 C 598.07 350.57 597.15 346.82 599 344" stroke="none" fill="none" />
</g>
<g id="shape-36" data-name="文本">
<path d="M 420.03 223.76 L 420.03 223.76 C 421.9 220.94 425.61 220.01 428.38 221.9 C 431.17 223.76 431.17 227.5 429.33 230.32 C 427.46 233.13 423.74 234.06 421.9 232.17 C 419.11 230.32 418.18 226.57 420.03 223.76" stroke="none" fill="none" />
</g>
<g id="shape-37" data-name="文本">
<path d="M 491.76 398.9 L 491.76 398.9 C 488.98 397.98 487.09 395.19 487.09 391.47 C 488.02 388.67 490.83 385.91 494.58 386.83 C 497.39 387.75 500.21 390.55 499.25 394.27 C 498.32 397.06 495.51 398.9 491.76 398.9" stroke="none" fill="none" />
</g>
<g id="shape-38" data-name="文本">
<path d="M 613.85 306.61 L 613.85 306.61 C 614.77 303.85 617.57 301.97 621.28 301.97 C 624.05 302.9 626.84 305.69 625.89 309.41 C 624.97 312.2 622.21 314.05 618.49 314.05 C 615.73 313.13 613.85 310.33 613.85 306.61" stroke="none" fill="none" />
</g>
<g id="shape-39" data-name="文本">
<path d="M 403.36 264.78 L 403.36 264.78 C 403.36 261.98 407.11 259.22 409.89 260.14 C 412.71 261.06 415.52 263.86 414.6 267.57 C 413.64 270.37 410.85 272.21 408.04 272.21 C 404.29 271.29 402.4 268.5 403.36 264.78" stroke="none" fill="none" />
</g>
<g id="shape-41" data-name="文本">
<path d="M 420.03 350.57 L 420.03 350.57 C 418.18 347.75 419.11 344 421.9 342.15 C 423.74 340.26 427.46 341.22 429.33 344 C 431.17 346.82 431.17 350.57 428.38 352.46 C 425.61 353.38 421.9 353.38 420.03 350.57" stroke="none" fill="none" />
</g>
<g id="shape-49" data-name="文本">
<path d="M 571.02 371.88 L 571.02 371.88 C 573.78 369.99 577.5 370.95 579.37 373.74 C 581.21 376.55 580.29 379.37 577.5 381.23 C 574.73 383.12 571.02 383.12 569.15 380.3 C 567.3 377.48 568.22 373.74 571.02 371.88" stroke="none" fill="none" />
</g>
<g id="shape-50" data-name="文本">
<path d="M 450.8 192.96 L 450.8 192.96 C 453.59 191.07 457.31 191.07 459.18 193.89 C 461.02 196.7 460.1 200.45 457.31 202.31 C 455.46 204.2 451.75 203.27 449.88 200.45 C 448.03 197.63 448.03 193.89 450.8 192.96" stroke="none" fill="none" />
</g>
<g id="shape-51" data-name="文本">
<path d="M 729.34 388.67 L 729.34 388.67 C 733.06 388.67 735.85 391.49 735.85 395.24 C 735.85 398.06 733.06 400.88 729.34 400.88 C 726.55 400.88 723.79 398.06 723.79 395.24 C 723.79 391.49 726.55 388.67 729.34 388.67" stroke="none" fill="none" />
</g>
<g id="shape-52" data-name="文本">
<path d="M 729.34 173.44 L 729.34 173.44 C 733.06 173.44 735.85 176.21 735.85 179 C 735.85 182.72 733.06 185.51 729.34 185.51 C 726.55 185.51 723.79 182.72 723.79 179 C 723.79 176.21 726.55 173.44 729.34 173.44" stroke="none" fill="none" />
</g>
<g id="shape-53" data-name="文本">
<path d="M 843.94 287.16 L 843.94 287.16 C 843.94 290.86 841.15 292.74 837.44 292.74 C 834.64 292.74 831.88 290.86 831.88 287.16 C 831.88 284.36 834.64 281.58 837.44 281.58 C 841.15 281.58 843.94 284.36 843.94 287.16" stroke="none" fill="none" />
</g>
<g id="shape-54" data-name="文本">
<path d="M 810.41 206.86 L 810.41 206.86 C 812.25 208.73 812.25 212.45 810.41 215.25 C 807.62 217.09 803.9 217.09 802.06 215.25 C 799.27 212.45 799.27 208.73 802.06 206.86 C 803.9 204.09 807.62 204.09 810.41 206.86" stroke="none" fill="none" />
</g>
<g id="shape-55" data-name="文本">
<path d="M 657.69 215.25 L 657.69 215.25 C 655.8 217.09 652.06 217.09 649.27 215.25 C 647.39 212.45 647.39 208.73 649.27 206.86 C 652.06 204.09 655.8 204.09 657.69 206.86 C 660.5 208.73 660.5 212.45 657.69 215.25" stroke="none" fill="none" />
</g>
<g id="shape-56" data-name="文本">
<path d="M 810.41 367.2 L 810.41 367.2 C 807.62 369.96 803.9 369.96 802.06 367.2 C 799.27 365.32 799.27 361.61 802.06 358.81 C 803.9 356.97 807.62 356.97 810.41 358.81 C 812.25 361.61 812.25 365.32 810.41 367.2" stroke="none" fill="none" />
</g>
<g id="shape-57" data-name="文本">
<path d="M 773.16 181.73 L 773.16 181.73 C 775.96 183.57 777.8 186.37 776.88 190.09 C 775.01 192.88 772.24 194.72 768.53 192.88 C 765.73 191.96 764.81 188.24 765.73 185.45 C 766.66 182.65 770.37 180.81 773.16 181.73" stroke="none" fill="none" />
</g>
<g id="shape-58" data-name="文本">
<path d="M 636.18 248.07 L 636.18 248.07 C 634.33 251.81 630.62 252.74 627.83 251.81 C 625.03 249.92 623.19 247.11 625.03 243.36 C 625.95 240.57 629.67 239.62 632.46 240.57 C 635.26 241.5 637.1 245.25 636.18 248.07" stroke="none" fill="none" />
</g>
<g id="shape-59" data-name="文本">
<path d="M 834.69 330.95 L 834.69 330.95 C 833.77 333.77 830.02 335.62 827.21 333.77 C 824.43 332.81 822.54 329.06 823.47 326.28 C 825.35 323.46 829.1 321.58 831.91 322.54 C 834.69 324.39 836.58 328.14 834.69 330.95" stroke="none" fill="none" />
</g>
<g id="shape-60" data-name="文本">
<path d="M 834.69 243.36 L 834.69 243.36 C 836.58 247.11 834.69 249.92 831.91 251.81 C 829.1 252.74 825.35 251.81 823.47 248.07 C 822.54 245.25 824.43 241.5 827.21 240.57 C 830.02 239.62 833.77 240.57 834.69 243.36" stroke="none" fill="none" />
</g>
<g id="shape-61" data-name="文本">
<path d="M 691.21 192.88 L 691.21 192.88 C 687.47 194.72 684.65 192.88 682.8 190.09 C 681.84 186.37 683.72 183.57 686.54 181.73 C 689.33 180.81 693.07 182.65 694 185.45 C 694.96 188.24 694 191.96 691.21 192.88" stroke="none" fill="none" />
</g>
<g id="shape-62" data-name="文本">
<path d="M 773.16 392.42 L 773.16 392.42 C 770.37 393.38 766.66 392.42 765.73 388.67 C 764.81 385.89 765.73 382.14 768.53 381.18 C 772.24 380.25 775.01 381.18 776.88 384.93 C 777.8 387.74 775.96 390.56 773.16 392.42" stroke="none" fill="none" />
</g>
<g id="shape-63" data-name="文本">
<path d="M 749.93 386.83 L 749.93 386.83 C 752.72 386.83 756.46 388.67 756.46 391.47 C 757.42 395.19 755.53 397.98 751.79 398.9 C 748.97 398.9 745.23 397.06 745.23 394.26 C 744.3 390.55 746.19 387.75 749.93 386.83" stroke="none" fill="none" />
</g>
<g id="shape-64" data-name="文本">
<path d="M 707.91 175.28 L 707.91 175.28 C 710.7 175.28 713.5 177.17 714.42 179.96 C 715.34 183.7 713.5 186.52 709.78 187.45 C 706.99 188.41 703.27 185.59 703.27 182.77 C 702.35 179.03 704.19 176.21 707.91 175.28" stroke="none" fill="none" />
</g>
<g id="shape-65" data-name="文本">
<path d="M 841.18 264.78 L 841.18 264.78 C 842.1 268.49 840.26 271.29 836.55 272.21 C 833.75 272.21 830.04 270.37 830.04 267.57 C 829.12 263.86 830.96 261.06 834.67 260.14 C 837.47 260.14 840.26 261.98 841.18 264.78" stroke="none" fill="none" />
</g>
<g id="shape-66" data-name="文本">
<path d="M 792.86 192.96 L 792.86 192.96 C 795.68 194.82 796.61 198.56 794.75 200.45 C 792.86 203.27 789.12 204.2 786.31 202.31 C 783.52 200.45 782.57 196.7 784.45 193.89 C 786.31 191.07 790.05 191.07 792.86 192.96" stroke="none" fill="none" />
</g>
<g id="shape-67" data-name="文本">
<path d="M 645.63 230.31 L 645.63 230.31 C 643.74 233.13 640 234.06 637.19 232.17 C 634.4 230.31 633.45 226.57 635.33 223.75 C 637.19 220.93 640.93 220.93 643.74 222.82 C 646.56 224.68 647.49 227.5 645.63 230.31" stroke="none" fill="none" />
</g>
<g id="shape-68" data-name="文本">
<path d="M 824.47 350.56 L 824.47 350.56 C 822.58 353.38 818.84 354.31 816.03 352.45 C 813.24 350.56 812.28 346.82 814.17 344 C 816.03 341.22 819.77 340.26 822.58 342.15 C 825.4 344 826.32 347.75 824.47 350.56" stroke="none" fill="none" />
</g>
<g id="shape-69" data-name="文本">
<path d="M 751.79 175.28 L 751.79 175.28 C 755.53 176.21 757.42 179.03 756.46 182.77 C 756.46 185.59 752.72 188.41 749.93 187.45 C 746.19 186.52 744.3 183.7 745.23 179.96 C 745.23 177.17 748.97 175.28 751.79 175.28" stroke="none" fill="none" />
</g>
<g id="shape-70" data-name="文本">
<path d="M 629.7 267.57 L 629.7 267.57 C 629.7 270.37 625.99 272.21 623.22 272.21 C 619.54 271.29 617.67 268.49 618.59 264.78 C 619.54 261.98 622.3 260.14 625.07 260.14 C 628.78 261.06 630.66 263.86 629.7 267.57" stroke="none" fill="none" />
</g>
<g id="shape-71" data-name="文本">
<path d="M 841.18 309.47 L 841.18 309.47 C 840.26 312.28 837.47 315.1 834.67 314.14 C 830.96 313.21 829.12 310.4 830.04 306.65 C 830.04 303.86 833.75 301.97 836.55 301.97 C 840.26 302.9 842.1 305.72 841.18 309.47" stroke="none" fill="none" />
</g>
<g id="shape-72" data-name="文本">
<path d="M 824.47 223.75 L 824.47 223.75 C 826.32 226.57 825.4 230.31 822.58 232.17 C 819.77 234.06 816.03 233.13 814.17 230.31 C 812.28 227.5 813.24 224.68 816.03 222.82 C 818.84 220.93 822.58 220.93 824.47 223.75" stroke="none" fill="none" />
</g>
<g id="shape-73" data-name="文本">
<path d="M 673.6 202.31 L 673.6 202.31 C 670.78 204.2 667.04 203.27 665.18 200.45 C 663.3 198.56 664.25 194.82 667.04 192.96 C 669.86 191.07 673.6 191.07 675.49 193.89 C 676.42 196.7 676.42 200.45 673.6 202.31" stroke="none" fill="none" />
</g>
<g id="shape-74" data-name="文本">
<path d="M 792.86 382.18 L 792.86 382.18 C 790.05 384.04 786.31 383.11 784.45 380.29 C 782.57 377.48 783.52 373.73 786.31 371.88 C 789.12 369.99 792.86 370.95 794.75 373.73 C 796.61 376.55 795.68 380.29 792.86 382.18" stroke="none" fill="none" />
</g>
</g>
<g id="shape-75" data-name="椭圆 74">
<ellipse cx="508.22" cy="290.82" rx="65.75" ry="65.76" fill="#6C3632" stroke="none" stroke-width="1" />
</g>
<g id="shape-76" data-name="椭圆 75">
<ellipse cx="729.95" cy="290.82" rx="65.75" ry="65.76" fill="#9A352B" stroke="none" stroke-width="1" />
</g>
</g>
<g id="shape-77" data-name="圆角矩形 61">
<rect x="126.88" y="188.44" width="203.47" height="50.27" rx="24.4" ry="24.4" fill="#7F4943" stroke="none" stroke-width="1" />
<text x="228.61" y="219.57" text-anchor="middle" xml:space="preserve" font-family="&quot;MiSans Bold&quot;, sans-serif" font-size="24" fill="#FFFFFF"><tspan fill="#FFFFFF" font-size="24">01</tspan></text>
</g>
<g id="shape-78" data-name="圆角矩形 61">
<rect x="941.55" y="188.44" width="203.47" height="50.27" rx="24.4" ry="24.4" fill="#7F4943" stroke="none" stroke-width="1" />
<text x="1043.29" y="219.57" text-anchor="middle" xml:space="preserve" font-family="&quot;MiSans Bold&quot;, sans-serif" font-size="24" fill="#FFFFFF"><tspan fill="#FFFFFF" font-size="24">02</tspan></text>
</g>
</g>
<g id="shape-79" data-name="stack-of-papers_156">
<path d="M 537.42 296.84 L 541.11 300.09 L 509.19 317.96 L 477.11 300.09 L 480.8 296.99 L 509.19 312.2 Z M 480.8 287.1 L 509.19 302.29 L 537.42 287.1 L 541.11 290.35 L 509.19 308.19 L 477.11 290.35 Z M 509.19 262.6 L 541.11 280.44 L 509.19 298.31 L 477.11 280.44 Z" fill="#FFFFFF" stroke="none" />
</g>
<g id="shape-80" data-name="iconfont-1187-867994">
<path d="M 719.8 314.08 C 716.09 306.4 718.06 302 720.9 297.86 C 724.01 293.34 724.82 288.84 724.82 288.84 C 724.82 288.84 727.25 292.02 726.29 296.98 C 730.59 292.17 731.41 284.54 730.77 281.61 C 740.53 288.41 744.69 303.16 739.06 314.08 C 768.96 297.19 746.5 271.94 742.6 269.07 C 743.9 271.94 744.14 276.75 741.52 279.08 C 737.07 262.21 726.05 258.75 726.05 258.75 C 727.35 267.46 721.31 276.96 715.51 284.08 C 715.3 280.62 715.08 278.21 713.25 274.89 C 712.84 281.2 708.01 286.35 706.71 292.64 C 704.95 301.21 708.03 307.46 719.8 314.08 Z M 719.8 314.08 Z" fill="#FFFFFF" stroke="none" />
</g>
<g id="shape-81" data-name="组合 80">
<g id="shape-82" data-name="组合 81">
<g id="shape-83" data-name="文本框 82">
<rect x="77.87" y="272.24" width="273.27" height="35.4" fill="none" />
<text x="214.5" y="295.18" text-anchor="middle" xml:space="preserve" font-family="&quot;思源黑体 CN Medium&quot;, sans-serif" font-size="21.33" fill="#262223" font-weight="bold"><tspan fill="#262223" font-size="21.33" font-weight="bold">多源病虫害数据融合采集</tspan></text>
</g>
<g id="shape-84" data-name="TextBox 11">
<rect x="89.27" y="324.98" width="248.27" height="135.67" fill="none" />
<text x="213.4" y="340.84" text-anchor="middle" xml:space="preserve" font-family="&quot;思源黑体 CN Medium&quot;, sans-serif" font-size="18.67" fill="#262223"><tspan fill="#262223" font-size="18.67">结合多光谱相机航拍与田间人</tspan><tspan x="213.4" dy="28" fill="#262223" font-size="18.67">工调查，标注病虫害叶片图像</tspan><tspan x="213.4" dy="28" fill="#262223" font-size="18.67">及环境数据（温湿度），提升</tspan><tspan x="213.4" dy="28" fill="#262223" font-size="18.67">数据样本准确性。</tspan></text>
</g>
</g>
<g id="shape-85" data-name="直接连接符 84">
<line x1="114.01" y1="320.71" x2="337.57" y2="320.71" stroke="#BFBFBF" fill="#A8625A" stroke-width="1" />
</g>
</g>
<g id="shape-86" data-name="组合 85">
<g id="shape-87" data-name="组合 86">
<g id="shape-88" data-name="文本框 87">
<rect x="907.55" y="272.24" width="277.33" height="35.4" fill="none" />
<text x="1046.22" y="295.18" text-anchor="middle" xml:space="preserve" font-family="&quot;思源黑体 CN Medium&quot;, sans-serif" font-size="21.33" fill="#262223" font-weight="bold"><tspan fill="#262223" font-size="21.33" font-weight="bold">轻量化病虫害识别模型构建</tspan></text>
</g>
<g id="shape-89" data-name="TextBox 11">
<rect x="919.75" y="323.64" width="246.2" height="135.67" fill="none" />
<text x="1042.85" y="339.51" text-anchor="middle" xml:space="preserve" font-family="&quot;思源黑体 CN Medium&quot;, sans-serif" font-size="18.67" fill="#262223"><tspan fill="#262223" font-size="18.67">简化卷积神经网络（</tspan><tspan fill="#262223" font-size="18.67">CNN</tspan><tspan fill="#262223" font-size="18.67">）结</tspan><tspan x="1042.85" dy="28" fill="#262223" font-size="18.67">构，减少模型参数量，适配农</tspan><tspan x="1042.85" dy="28" fill="#262223" font-size="18.67">业移动终端（如植保无人机）</tspan><tspan x="1042.85" dy="28" fill="#262223" font-size="18.67">的实时识别需求。</tspan></text>
</g>
</g>
<g id="shape-90" data-name="直接连接符 89">
<line x1="942.43" y1="320.71" x2="1165.99" y2="320.71" stroke="#BFBFBF" fill="#A8625A" stroke-width="1" />
</g>
</g>
<g id="shape-91" data-name="直接连接符 90">
<line x1="89.19" y1="503.07" x2="1190.81" y2="503.07" stroke="#A6A6A6" fill="#A8625A" stroke-width="1" />
</g>
<g id="shape-92" data-name="文本框 91">
<rect x="98.67" y="515.08" width="281.03" height="45.13" fill="none" />
<text x="108.27" y="544.81" text-anchor="start" xml:space="preserve" font-family="&quot;思源黑体 CN Medium&quot;, sans-serif" font-size="29.33" fill="#512926" font-weight="bold"><tspan fill="#512926" font-size="29.33">{{THANK_YOU}}</tspan></text>
</g>
<g id="shape-93" data-name="TextBox 11">
<rect x="107.82" y="562.95" width="1080.33" height="115.73" fill="none" />
<text x="107.82" y="578.82" text-anchor="start" xml:space="preserve" font-family="&quot;思源黑体 CN Medium&quot;, sans-serif" font-size="18.67" fill="#404040"><tspan fill="#404040" font-size="18.67">该选题聚焦智慧农业场景，通过融合多源病虫害数据采集与构建轻量化识别模型，实现对作物病虫害的智能监测，助力精准植保。</tspan><tspan x="107.82" dy="22.4" fill="#404040" font-size="18.67">先通过多光谱航拍与田间调查融合采集作物病虫害数据以保障样本质量，再构建轻量化识别模型适配农业移动终端，最终实现作物</tspan><tspan x="107.82" dy="22.4" fill="#404040" font-size="18.67">病虫害的智能监测。</tspan></text>

</g></svg>