<?xml version='1.0' encoding='utf-8'?>
<svg xmlns="http://www.w3.org/2000/svg" version="1.1" width="1280" height="720" viewBox="0 0 1280 720"><rect x="0" y="0" width="1280" height="720" fill="#FFFFFF" />
<g id="shape-2" data-name="Freeform 34">
<path d="M 1222.99 141.75 C 1222.13 144.81 1218.7 144.05 1216.98 146.35 C 1212.69 147.88 1208.39 151.7 1204.1 154.77 C 1195.51 158.59 1187.78 163.95 1179.2 168.55 C 1174.05 170.84 1169.75 173.9 1164.6 177.73 C 1163.74 176.97 1162.88 176.97 1162.02 176.97 C 1158.59 173.14 1156.87 169.31 1153.44 165.48 C 1150 165.48 1144.85 167.01 1141.41 166.25 C 1139.7 161.66 1145.71 156.3 1148.28 150.94 C 1148.28 150.17 1148.28 149.41 1148.28 149.41 C 1150.86 142.52 1152.58 135.63 1155.15 129.5 C 1161.16 129.5 1168.03 132.57 1174.05 133.33 C 1183.49 135.63 1193.8 137.16 1204.1 139.46 C 1209.25 139.46 1215.26 140.99 1220.42 140.99 C 1221.27 140.99 1222.13 140.22 1222.99 141.75 Z M 1156.87 131.8 C 1155.15 135.63 1153.44 139.46 1153.44 143.28 C 1152.58 145.58 1150.86 147.11 1151.72 149.41 C 1166.32 147.88 1180.91 145.58 1195.51 144.81 C 1201.52 143.28 1208.39 144.05 1213.55 142.52 C 1194.65 140.22 1174.9 134.86 1156.87 131.8 Z M 1151.72 158.59 C 1156.01 163.95 1158.59 170.08 1163.74 175.43 C 1179.2 166.25 1194.65 157.83 1210.11 147.88 C 1210.11 147.11 1210.11 147.11 1210.11 147.11 C 1190.36 151.7 1171.47 156.3 1151.72 158.59 Z M 1150.86 151.7 C 1149.14 154.77 1146.57 157.83 1145.71 160.12 C 1147.42 159.36 1147.42 157.06 1150 156.3 C 1150.86 156.3 1151.72 156.3 1152.58 157.06 C 1164.6 154.77 1176.62 152.47 1188.64 150.17 C 1194.65 147.88 1199.81 147.11 1205.82 145.58 C 1186.93 147.11 1168.89 148.64 1150.86 151.7 Z M 1144.85 163.95 C 1147.42 164.72 1150 163.19 1151.72 163.19 C 1150.86 161.66 1150.86 160.89 1149.14 159.36 C 1148.28 160.89 1146.57 162.42 1144.85 163.95 Z" fill="#F7B63E" stroke="none" />
</g>
<g id="shape-3" data-name="任意多边形 2">
<path d="M 748.39 148.63 C 695.84 151.86 707.75 182.81 768.14 181.93 L 1132.43 175.4" fill="none" stroke-width="2.667" stroke-linecap="round" stroke="#262626" stroke-dasharray="4 4" stroke-linejoin="round" />
</g>
<g id="shape-4" data-name="文本框 3">
<rect x="771.41" y="121.16" width="329.11" height="54.93" fill="none" />
<text x="781.01" y="157.7" text-anchor="start" xml:space="preserve" font-family="&quot;方正静蕾简体&quot;, sans-serif" font-size="37.33" fill="#404040">{{TOC_ITEM_1_TITLE}}</text>
</g>
<g id="shape-5" data-name="Freeform 34">
<path d="M 1226.25 291.81 C 1225.39 294.87 1221.96 294.1 1220.24 296.4 C 1215.95 297.93 1211.65 301.76 1207.36 304.82 C 1198.77 308.65 1191.04 314.01 1182.46 318.6 C 1177.3 320.9 1173.01 323.96 1167.86 327.78 C 1167 327.02 1166.14 327.02 1165.28 327.02 C 1161.85 323.19 1160.13 319.36 1156.69 315.54 C 1153.26 315.54 1148.11 317.07 1144.67 316.3 C 1142.95 311.71 1148.97 306.35 1151.54 300.99 C 1151.54 300.23 1151.54 299.46 1151.54 299.46 C 1154.12 292.57 1155.84 285.68 1158.41 279.56 C 1164.42 279.56 1171.29 282.62 1177.3 283.39 C 1186.75 285.68 1197.05 287.21 1207.36 289.51 C 1212.51 289.51 1218.52 291.04 1223.67 291.04 C 1224.53 291.04 1225.39 290.27 1226.25 291.81 Z M 1160.13 281.85 C 1158.41 285.68 1156.69 289.51 1156.69 293.34 C 1155.84 295.63 1154.12 297.16 1154.98 299.46 C 1169.58 297.93 1184.17 295.63 1198.77 294.87 C 1204.78 293.34 1211.65 294.1 1216.8 292.57 C 1197.91 290.27 1178.16 284.92 1160.13 281.85 Z M 1154.98 308.65 C 1159.27 314.01 1161.85 320.13 1167 325.49 C 1182.46 316.3 1197.91 307.88 1213.37 297.93 C 1213.37 297.16 1213.37 297.16 1213.37 297.16 C 1193.62 301.76 1174.73 306.35 1154.98 308.65 Z M 1154.12 301.76 C 1152.4 304.82 1149.82 307.88 1148.97 310.18 C 1150.68 309.41 1150.68 307.12 1153.26 306.35 C 1154.12 306.35 1154.98 306.35 1155.84 307.12 C 1167.86 304.82 1179.88 302.52 1191.9 300.23 C 1197.91 297.93 1203.07 297.16 1209.08 295.63 C 1190.18 297.16 1172.15 298.7 1154.12 301.76 Z M 1148.11 314.01 C 1150.68 314.77 1153.26 313.24 1154.98 313.24 C 1154.12 311.71 1154.12 310.94 1152.4 309.41 C 1151.54 310.94 1149.82 312.47 1148.11 314.01 Z" fill="#FF3E3E" stroke="none" />
</g>
<g id="shape-6" data-name="任意多边形 5">
<path d="M 751.65 298.68 C 699.1 301.91 711 332.86 771.4 331.99 L 1135.69 325.45" fill="none" stroke-width="2.667" stroke-linecap="round" stroke="#262626" stroke-dasharray="4 4" stroke-linejoin="round" />
</g>
<g id="shape-7" data-name="文本框 6">
<rect x="774.66" y="271.22" width="329.11" height="54.93" fill="none" />
<text x="784.26" y="307.75" text-anchor="start" xml:space="preserve" font-family="&quot;方正静蕾简体&quot;, sans-serif" font-size="37.33" fill="#404040">{{TOC_ITEM_1_TITLE}}</text>
</g>
<g id="shape-8" data-name="Freeform 34">
<path d="M 1225.1 440.74 C 1224.24 443.81 1220.8 443.04 1219.09 445.34 C 1214.79 446.87 1210.5 450.7 1206.21 453.76 C 1197.62 457.58 1189.89 462.94 1181.3 467.54 C 1176.15 469.83 1171.86 472.9 1166.7 476.72 C 1165.85 475.96 1164.99 475.96 1164.13 475.96 C 1160.69 472.13 1158.98 468.3 1155.54 464.47 C 1152.11 464.47 1146.95 466.01 1143.52 465.24 C 1141.8 460.65 1147.81 455.29 1150.39 449.93 C 1150.39 449.16 1150.39 448.4 1150.39 448.4 C 1152.96 441.51 1154.68 434.62 1157.26 428.5 C 1163.27 428.5 1170.14 431.56 1176.15 432.32 C 1185.6 434.62 1195.9 436.15 1206.21 438.45 C 1211.36 438.45 1217.37 439.98 1222.52 439.98 C 1223.38 439.98 1224.24 439.21 1225.1 440.74 Z M 1158.98 430.79 C 1157.26 434.62 1155.54 438.45 1155.54 442.27 C 1154.68 444.57 1152.96 446.1 1153.82 448.4 C 1168.42 446.87 1183.02 444.57 1197.62 443.81 C 1203.63 442.27 1210.5 443.04 1215.65 441.51 C 1196.76 439.21 1177.01 433.85 1158.98 430.79 Z M 1153.82 457.58 C 1158.12 462.94 1160.69 469.07 1165.85 474.43 C 1181.3 465.24 1196.76 456.82 1212.22 446.87 C 1212.22 446.1 1212.22 446.1 1212.22 446.1 C 1192.47 450.7 1173.57 455.29 1153.82 457.58 Z M 1152.96 450.7 C 1151.25 453.76 1148.67 456.82 1147.81 459.12 C 1149.53 458.35 1149.53 456.05 1152.11 455.29 C 1152.96 455.29 1153.82 455.29 1154.68 456.05 C 1166.7 453.76 1178.73 451.46 1190.75 449.16 C 1196.76 446.87 1201.91 446.1 1207.92 444.57 C 1189.03 446.1 1171 447.63 1152.96 450.7 Z M 1146.95 462.94 C 1149.53 463.71 1152.11 462.18 1153.82 462.18 C 1152.96 460.65 1152.96 459.88 1151.25 458.35 C 1150.39 459.88 1148.67 461.41 1146.95 462.94 Z" fill="#76AADB" stroke="none" />
</g>
<g id="shape-9" data-name="任意多边形 8">
<path d="M 750.49 447.62 C 697.95 450.85 709.85 481.8 770.25 480.92 L 1134.54 474.39" fill="none" stroke-width="2.667" stroke-linecap="round" stroke="#262626" stroke-dasharray="4 4" stroke-linejoin="round" />
</g>
<g id="shape-10" data-name="文本框 9">
<rect x="773.51" y="420.16" width="329.11" height="54.93" fill="none" />
<text x="783.11" y="456.69" text-anchor="start" xml:space="preserve" font-family="&quot;方正静蕾简体&quot;, sans-serif" font-size="37.33" fill="#404040"><tspan fill="#404040" font-size="37.33">3.</tspan><tspan fill="#404040" font-size="37.33">论文概述</tspan></text>
</g>
<g id="shape-11" data-name="Freeform 34">
<path d="M 1224.28 596.39 C 1223.42 599.45 1219.99 598.68 1218.27 600.98 C 1213.98 602.51 1209.68 606.34 1205.39 609.4 C 1196.8 613.23 1189.07 618.59 1180.49 623.18 C 1175.33 625.48 1171.04 628.54 1165.89 632.36 C 1165.03 631.6 1164.17 631.6 1163.31 631.6 C 1159.88 627.77 1158.16 623.94 1154.72 620.12 C 1151.29 620.12 1146.14 621.65 1142.7 620.88 C 1140.98 616.29 1147 610.93 1149.57 605.57 C 1149.57 604.81 1149.57 604.04 1149.57 604.04 C 1152.15 597.15 1153.87 590.26 1156.44 584.14 C 1162.45 584.14 1169.32 587.2 1175.33 587.97 C 1184.78 590.26 1195.08 591.79 1205.39 594.09 C 1210.54 594.09 1216.55 595.62 1221.7 595.62 C 1222.56 595.62 1223.42 594.85 1224.28 596.39 Z M 1158.16 586.43 C 1156.44 590.26 1154.72 594.09 1154.72 597.92 C 1153.87 600.21 1152.15 601.74 1153.01 604.04 C 1167.61 602.51 1182.2 600.21 1196.8 599.45 C 1202.81 597.92 1209.68 598.68 1214.83 597.15 C 1195.94 594.85 1176.19 589.5 1158.16 586.43 Z M 1153.01 613.23 C 1157.3 618.59 1159.88 624.71 1165.03 630.07 C 1180.49 620.88 1195.94 612.46 1211.4 602.51 C 1211.4 601.74 1211.4 601.74 1211.4 601.74 C 1191.65 606.34 1172.76 610.93 1153.01 613.23 Z M 1152.15 606.34 C 1150.43 609.4 1147.85 612.46 1147 614.76 C 1148.71 613.99 1148.71 611.7 1151.29 610.93 C 1152.15 610.93 1153.01 610.93 1153.87 611.7 C 1165.89 609.4 1177.91 607.1 1189.93 604.81 C 1195.94 602.51 1201.1 601.74 1207.11 600.21 C 1188.21 601.74 1170.18 603.28 1152.15 606.34 Z M 1146.14 618.59 C 1148.71 619.35 1151.29 617.82 1153.01 617.82 C 1152.15 616.29 1152.15 615.52 1150.43 613.99 C 1149.57 615.52 1147.85 617.05 1146.14 618.59 Z" fill="#70AD47" stroke="none" />
</g>
<g id="shape-12" data-name="任意多边形 11">
<path d="M 749.68 603.26 C 697.13 606.5 709.03 637.44 769.43 636.57 L 1133.72 630.03" fill="none" stroke-width="2.667" stroke-linecap="round" stroke="#262626" stroke-dasharray="4 4" stroke-linejoin="round" />
</g>
<g id="shape-13" data-name="文本框 12">
<rect x="772.69" y="575.8" width="329.11" height="54.93" fill="none" />
<text x="782.29" y="612.33" text-anchor="start" xml:space="preserve" font-family="&quot;方正静蕾简体&quot;, sans-serif" font-size="37.33" fill="#404040"><tspan fill="#404040" font-size="37.33">4.</tspan><tspan fill="#404040" font-size="37.33">研究结论</tspan></text>
</g>
<g id="shape-14" data-name="Freeform 197">
<path d="M 200.8 295.59 L 200.8 295.59 L 202.79 296.15 L 204.79 296.72 L 208.78 297 L 213.34 297 L 217.61 296.15 L 217.61 296.15 L 221.03 297 L 223.88 297 L 230.44 296.72 L 230.44 296.72 L 231.29 297 L 232.15 297.28 L 236.71 298.13 L 243.26 298.13 L 250.39 298.13 L 264.92 297.28 L 273.47 297 L 273.47 297 L 271.48 298.13 L 269.48 299.26 L 268.63 301.51 L 267.77 303.49 L 267.49 305.75 L 267.49 308.28 L 267.77 310.26 L 268.63 312.23 L 268.63 312.23 L 269.2 315.62 L 270.62 319 L 271.48 320.41 L 272.62 321.83 L 273.76 322.39 L 275.47 323.24 L 275.47 323.24 L 275.47 326.62 L 275.47 326.62 L 274.33 327.47 L 273.47 328.6 L 273.19 330.01 L 272.33 331.42 L 272.05 334.8 L 272.33 338.19 L 273.19 341.57 L 274.04 344.96 L 275.47 348.06 L 276.61 350.03 L 276.61 350.03 L 275.75 350.88 L 275.18 352.01 L 274.9 353.42 L 274.33 354.83 L 274.33 355.96 L 274.9 357.37 L 275.18 358.5 L 276.04 359.06 L 276.04 359.06 L 277.18 359.06 L 277.46 358.78 L 277.75 357.65 L 277.75 356.52 L 277.75 353.98 L 277.75 353.14 L 278.32 352.29 L 278.32 352.29 L 278.89 352.57 L 278.89 352.57 L 280.03 353.42 L 280.88 353.7 L 282.02 353.98 L 283.45 353.7 L 283.45 353.7 L 283.73 355.11 L 284.02 356.52 L 284.02 358.22 L 284.02 359.34 L 284.02 359.34 L 276.04 359.34 L 268.63 359.34 L 253.52 359.91 L 253.52 359.91 L 246.68 359.34 L 243.26 359.06 L 239.84 358.5 L 239.84 358.5 L 238.42 358.22 L 236.71 358.5 L 236.14 358.78 L 235.57 359.06 L 236.14 359.34 L 236.71 360.19 L 236.71 360.19 L 235 360.75 L 233.29 361.32 L 231.29 361.88 L 229.58 362.45 L 229.58 362.45 L 228.73 362.16 L 228.16 361.88 L 227.87 361.88 L 227.02 362.16 L 225.31 363.29 L 223.88 364.99 L 221.32 368.65 L 219.89 370.91 L 219.89 370.91 L 219.32 371.47 L 218.47 372.04 L 217.61 374.01 L 217.04 376.83 L 217.04 380.22 L 217.04 386.71 L 217.9 390.94 L 217.9 390.94 L 218.47 397.14 L 219.61 403.35 L 219.61 403.35 L 221.03 414.63 L 221.6 425.64 L 221.6 436.92 L 221.32 447.92 L 221.32 447.92 L 221.03 453 L 221.03 455.54 L 221.03 458.36 L 221.6 461.18 L 222.17 463.44 L 223.31 465.69 L 225.02 467.39 L 225.02 467.39 L 225.31 468.23 L 225.59 468.51 L 226.16 468.8 L 226.73 468.8 L 226.73 468.8 L 228.44 469.64 L 230.44 470.21 L 235 471.05 L 239.84 471.05 L 244.69 471.05 L 254.66 469.92 L 263.21 468.8 L 263.21 468.8 L 273.76 468.51 L 284.3 468.8 L 295.13 469.08 L 305.96 469.64 L 305.96 469.64 L 316.5 468.8 L 327.33 468.23 L 337.88 467.1 L 343.29 467.1 L 348.99 467.1 L 348.99 467.1 L 370.37 467.39 L 392.03 467.1 L 392.03 467.1 L 397.16 467.39 L 402.29 467.95 L 407.42 468.51 L 412.55 468.51 L 412.55 468.51 L 417.39 468.23 L 422.52 467.95 L 427.37 467.39 L 432.21 467.1 L 432.21 467.1 L 453.59 467.1 L 463.85 466.82 L 474.39 466.26 L 474.39 466.26 L 484.08 465.69 L 494.05 465.13 L 499.18 464.85 L 504.03 464 L 508.87 463.15 L 513.15 461.46 L 513.15 461.46 L 517.71 459.77 L 521.7 457.79 L 529.96 453.28 L 545.92 443.41 L 545.92 443.41 L 548.49 442.84 L 551.34 441.43 L 553.9 440.02 L 556.75 438.33 L 561.88 434.1 L 566.16 430.43 L 566.16 430.43 L 571.86 425.64 L 576.7 421.4 L 578.7 419.15 L 580.41 417.17 L 581.55 414.92 L 582.4 413.22 L 582.4 413.22 L 583.26 411.53 L 583.54 410.12 L 583.54 408.43 L 582.97 407.02 L 582.12 405.33 L 580.98 403.91 L 578.41 401.66 L 575.28 399.12 L 571.86 396.86 L 566.44 393.76 L 566.44 393.76 L 563.02 391.5 L 559.89 388.68 L 553.9 383.32 L 548.2 377.4 L 545.07 374.86 L 541.93 372.04 L 541.93 372.04 L 536.23 368.09 L 529.96 363.86 L 523.69 359.91 L 517.42 356.81 L 517.42 356.81 L 514.57 355.68 L 509.73 354.27 L 507.45 353.98 L 505.17 353.98 L 504.6 353.98 L 504.31 354.27 L 504.03 355.11 L 504.31 355.68 L 504.31 355.68 L 470.97 355.96 L 470.97 355.96 L 470.68 353.98 L 469.83 351.73 L 468.69 349.75 L 467.26 348.06 L 467.26 348.06 L 468.69 345.52 L 469.83 342.14 L 470.68 338.75 L 470.97 335.37 L 470.68 331.98 L 469.83 330.29 L 469.26 328.88 L 468.12 327.75 L 467.26 326.9 L 465.55 326.06 L 463.85 325.49 L 463.85 325.49 L 463.56 321.54 L 462.99 319.29 L 462.42 317.31 L 462.42 317.31 L 463.85 316.47 L 464.7 315.06 L 465.84 313.93 L 466.41 312.23 L 467.26 310.82 L 467.55 309.13 L 467.55 305.75 L 467.26 304.34 L 466.98 302.64 L 466.12 301.51 L 465.27 300.1 L 464.13 298.98 L 462.99 298.13 L 461.28 297 L 460.14 296.72 L 460.14 296.72 L 460.14 293.9 L 460.14 293.9 L 474.67 293.33 L 489.78 292.49 L 489.78 292.49 L 497.19 292.49 L 504.6 293.33 L 511.72 293.62 L 515.71 293.33 L 519.13 292.77 L 519.13 292.77 L 519.7 294.18 L 520.27 295.59 L 521.13 296.72 L 521.98 297.57 L 524.55 298.98 L 526.83 299.82 L 529.96 300.1 L 532.81 300.1 L 535.38 299.82 L 538.23 298.98 L 538.23 298.98 L 542.22 297.28 L 548.49 294.46 L 551.34 292.77 L 553.33 291.08 L 553.62 290.51 L 553.62 289.95 L 553.33 289.1 L 552.76 288.54 L 552.76 288.54 L 545.35 285.72 L 540.51 284.02 L 535.09 282.61 L 530.25 281.77 L 527.97 281.77 L 525.4 281.77 L 523.69 282.33 L 521.98 283.18 L 521.13 284.31 L 519.99 286 L 519.99 286 L 517.42 285.72 L 517.42 285.72 L 510.01 284.87 L 503.17 284.87 L 496.05 285.15 L 488.92 285.72 L 474.67 287.41 L 467.55 288.26 L 460.43 288.54 L 460.43 288.54 L 460.71 287.41 L 461 285.15 L 460.71 284.02 L 460.43 283.46 L 460.14 283.18 L 459 283.46 L 459 283.46 L 457.86 282.05 L 457.29 282.05 L 457.01 282.05 L 456.15 282.33 L 455.58 283.74 L 455.01 286.56 L 454.44 288.54 L 454.44 288.54 L 434.49 288.54 L 414.83 288.26 L 375.21 286.85 L 375.21 286.85 L 365.81 286.56 L 356.12 286.56 L 336.74 286.85 L 297.98 288.54 L 297.98 288.54 L 297.41 287.69 L 296.84 287.69 L 294.56 287.69 L 290.86 288.82 L 290.86 288.82 L 280.6 289.1 L 280.6 289.1 L 279.46 287.13 L 278.6 285.44 L 278.6 285.44 L 278.89 284.87 L 278.89 284.31 L 278.89 283.74 L 278.6 283.46 L 277.75 283.46 L 277.18 283.46 L 276.89 283.74 L 276.04 284.02 L 276.04 284.02 L 275.75 284.31 L 275.47 285.15 L 274.9 286.56 L 274.04 289.38 L 274.04 289.38 L 266.63 289.38 L 258.94 289.95 L 251.53 290.23 L 243.83 290.23 L 243.83 290.23 L 243.26 289.38 L 242.12 289.1 L 239.56 288.82 L 236.42 288.82 L 234.43 289.1 L 234.43 289.1 L 232.43 288.26 L 230.44 287.69 L 227.87 287.41 L 224.74 287.41 L 218.75 287.41 L 214.76 287.69 L 214.76 287.69 L 209.63 288.54 L 207.07 288.82 L 205.07 289.95 L 205.07 289.95 L 203.36 290.79 L 201.08 292.49 L 200.23 293.33 L 199.66 294.18 L 199.66 295.31 L 200.8 295.59 L 200.8 295.59 Z M 540.51 292.21 L 540.51 292.21 L 539.65 292.21 L 539.65 292.21 L 539.37 291.64 L 539.37 291.64 L 539.37 291.64 L 539.37 291.64 L 540.22 291.64 L 541.08 291.92 L 541.08 291.92 L 540.51 292.21 L 540.51 292.21 Z M 541.36 295.31 L 541.36 295.31 L 541.65 295.03 L 541.65 295.03 L 541.93 295.03 L 541.93 295.03 L 541.36 295.31 L 541.36 295.31 Z M 544.5 291.64 L 544.5 291.64 L 544.5 291.08 L 544.5 291.08 L 545.07 291.64 L 545.07 291.64 L 544.5 291.64 L 544.5 291.64 Z M 549.34 291.08 L 549.34 291.08 L 548.77 290.51 L 548.2 289.95 L 546.49 289.1 L 546.49 289.1 L 550.2 290.51 L 550.2 290.51 L 549.34 291.08 L 549.34 291.08 Z M 544.5 288.54 L 544.5 288.54 L 541.65 287.69 L 538.8 287.69 L 538.8 287.69 L 536.8 286 L 536.8 286 L 544.5 288.54 L 544.5 288.54 Z M 535.95 297 L 535.95 297 L 534.81 297 L 534.81 297 L 535.09 297 L 535.09 297 L 535.95 297 L 535.95 297 Z M 534.81 293.9 L 534.81 293.9 L 535.09 293.9 L 535.09 293.9 L 535.09 293.9 L 535.09 293.9 L 534.81 294.18 L 534.81 294.18 L 533.67 294.18 L 533.67 294.18 L 534.81 293.9 L 534.81 293.9 Z M 524.55 293.62 L 524.55 293.62 L 525.97 294.46 L 527.4 295.03 L 527.4 295.03 L 525.97 294.46 L 524.55 293.62 L 524.55 293.62 Z M 529.39 284.87 L 529.39 284.87 L 529.11 285.15 L 529.11 285.15 L 525.97 285.44 L 524.55 285.72 L 523.41 286.85 L 523.41 286.85 L 522.84 286.85 L 522.84 286.85 L 523.12 285.72 L 523.69 285.44 L 525.97 284.87 L 527.68 284.87 L 529.39 284.87 L 529.39 284.87 Z M 514.86 290.51 L 514.86 290.51 L 516 290.51 L 516 290.51 L 514.29 290.51 L 514.29 290.51 L 514.86 290.51 L 514.86 290.51 Z M 460.43 291.08 L 460.43 291.08 L 463.85 290.79 L 467.55 290.79 L 467.55 290.79 L 460.43 291.08 L 460.43 291.08 L 460.43 291.08 L 460.43 291.08 Z M 280.03 348.91 L 280.03 348.91 L 279.17 348.91 L 279.17 348.91 L 279.17 348.91 L 279.17 348.91 L 277.46 345.8 L 276.61 342.42 L 275.75 339.03 L 275.18 335.65 L 275.18 335.65 L 275.75 335.65 L 276.61 335.37 L 277.18 334.8 L 277.18 334.8 L 277.18 335.65 L 277.46 336.49 L 277.75 336.49 L 278.6 335.93 L 279.46 334.8 L 280.03 332.54 L 280.03 332.54 L 280.88 336.78 L 281.17 340.73 L 280.88 344.96 L 280.6 346.93 L 280.03 348.91 L 280.03 348.91 Z M 220.18 390.66 L 220.18 390.66 L 219.89 384.17 L 219.89 384.17 L 220.46 390.37 L 221.32 394.04 L 221.32 394.04 L 220.18 390.66 L 220.18 390.66 Z M 221.6 377.4 L 221.6 377.4 L 221.32 377.4 L 221.03 377.96 L 220.18 379.09 L 220.18 379.09 L 221.32 375.14 L 221.89 373.17 L 222.74 370.91 L 222.74 370.91 L 221.89 374.01 L 221.6 377.4 L 221.6 377.4 Z M 224.45 423.66 L 224.45 423.66 L 223.6 414.63 L 222.74 405.89 L 222.74 405.89 L 223.03 406.74 L 223.03 406.74 L 223.88 415.2 L 224.45 419.15 L 224.45 423.66 L 224.45 423.66 Z M 226.73 465.41 L 226.73 465.41 L 226.73 465.41 L 226.73 465.41 L 225.59 464 L 225.59 464 L 226.16 464 L 226.16 464 L 227.02 464.85 L 227.02 464.85 L 226.73 465.41 L 226.73 465.41 Z M 227.02 420.84 L 227.02 420.84 L 226.73 417.17 L 226.73 417.17 L 227.3 421.4 L 227.3 421.4 L 227.02 420.84 L 227.02 420.84 Z M 228.16 444.82 L 228.16 444.82 L 227.87 434.1 L 227.87 429.02 L 227.87 423.66 L 227.87 423.66 L 228.44 432.41 L 228.73 441.72 L 228.73 441.72 L 228.16 444.82 L 228.16 444.82 Z M 229.01 466.82 L 229.01 466.82 L 229.58 466.26 L 229.58 466.26 L 233 467.1 L 236.42 467.95 L 236.42 467.95 L 232.43 467.39 L 230.44 467.1 L 229.01 466.82 L 229.01 466.82 Z M 228.73 456.38 L 228.73 456.38 L 228.73 455.54 L 228.73 455.54 L 229.01 456.67 L 229.01 456.67 L 228.73 456.38 L 228.73 456.38 Z M 240.13 463.44 L 240.13 463.44 L 239.56 462.87 L 239.56 462.87 L 241.27 463.15 L 241.27 463.15 L 240.13 463.44 L 240.13 463.44 Z M 259.22 466.54 L 259.22 466.54 L 251.53 466.82 L 251.53 466.82 L 260.65 466.26 L 269.48 465.41 L 287.72 465.41 L 287.72 465.41 L 288.86 465.69 L 288.86 465.69 L 281.17 465.41 L 274.04 465.41 L 259.22 466.54 L 259.22 466.54 Z M 262.36 461.46 L 262.36 461.46 L 267.49 460.62 L 272.05 460.33 L 276.89 460.05 L 282.02 460.05 L 282.02 460.05 L 275.47 460.62 L 275.47 460.62 L 268.91 461.18 L 262.36 461.46 L 262.36 461.46 Z M 290.29 466.26 L 290.29 466.26 L 290.86 465.41 L 290.86 465.41 L 295.7 465.41 L 295.7 465.41 L 295.99 466.54 L 295.99 466.54 L 290.29 466.26 L 290.29 466.26 Z M 303.11 462.31 L 303.11 462.31 L 296.84 462.31 L 296.84 462.31 L 300.55 462.03 L 304.54 461.74 L 304.54 461.74 L 303.11 462.31 L 303.11 462.31 Z M 308.53 466.82 L 308.53 466.82 L 313.08 466.26 L 313.08 466.26 L 318.21 466.26 L 318.21 466.26 L 308.53 466.82 L 308.53 466.82 Z M 344.15 458.92 L 344.15 458.92 L 334.46 459.49 L 324.48 460.05 L 324.48 460.05 L 324.48 459.77 L 324.48 459.77 L 345.57 458.92 L 345.57 458.92 L 344.15 458.92 L 344.15 458.92 Z M 351.84 462.87 L 351.84 462.87 L 358.4 462.31 L 358.4 462.31 L 351.84 462.87 L 351.84 462.87 Z M 374.93 462.31 L 374.93 462.31 L 366.95 462.31 L 366.95 462.31 L 367.8 462.03 L 367.8 462.03 L 368.09 461.74 L 368.09 461.74 L 375.21 461.74 L 375.21 461.74 L 374.93 462.31 L 374.93 462.31 Z M 391.74 463.15 L 391.74 463.15 L 379.49 462.31 L 379.49 462.31 L 378.06 461.74 L 378.06 461.74 L 392.03 461.74 L 392.03 461.74 L 391.74 462.31 L 391.74 463.15 L 391.74 463.15 Z M 397.16 463.44 L 397.16 463.44 L 395.73 462.87 L 395.73 462.87 L 397.44 462.03 L 397.44 462.03 L 401.72 463.72 L 401.72 463.72 L 397.16 463.44 L 397.16 463.44 Z M 405.71 458.92 L 405.71 458.92 L 432.5 458.36 L 432.5 458.36 L 431.93 458.36 L 431.93 458.36 L 427.65 458.64 L 423.66 459.49 L 423.66 459.49 L 414.83 459.49 L 405.71 458.92 L 405.71 458.92 Z M 417.39 463.44 L 417.39 463.44 L 420.53 462.87 L 420.53 462.87 L 423.09 462.31 L 423.09 462.31 L 431.93 461.46 L 436.49 461.46 L 440.48 461.74 L 440.48 461.74 L 429.08 463.15 L 423.38 463.44 L 417.39 463.44 L 417.39 463.44 Z M 450.45 458.92 L 450.45 458.92 L 450.74 458.36 L 450.74 458.08 L 450.74 458.08 L 461.85 458.08 L 472.96 458.64 L 472.96 458.64 L 461.85 458.92 L 450.45 458.92 L 450.45 458.92 Z M 492.91 460.33 L 492.91 460.33 L 492.34 460.05 L 491.49 459.77 L 491.49 459.77 L 495.48 459.49 L 499.47 459.49 L 499.47 459.49 L 492.91 460.33 L 492.91 460.33 Z M 512.29 458.92 L 512.29 458.92 L 508.3 460.33 L 504.31 461.18 L 504.31 461.18 L 509.44 459.49 L 514.29 457.79 L 523.69 453.28 L 523.69 453.28 L 517.99 456.38 L 512.29 458.92 L 512.29 458.92 Z M 502.89 456.95 L 502.89 456.95 L 504.88 456.38 L 504.88 456.38 L 504.88 456.95 L 504.88 456.95 L 502.89 456.95 L 502.89 456.95 Z M 542.22 436.36 L 542.22 436.36 L 550.48 430.71 L 554.76 428.17 L 558.75 425.64 L 558.75 425.64 L 548.49 432.12 L 548.49 432.12 L 542.22 436.36 L 542.22 436.36 Z M 557.04 430.43 L 557.04 430.43 L 551.05 433.82 L 551.05 433.82 L 559.89 428.17 L 559.89 428.17 L 557.04 430.43 L 557.04 430.43 Z M 567.3 423.94 L 567.3 423.94 L 563.88 425.64 L 563.88 425.64 L 568.44 422.82 L 568.44 422.82 L 567.3 423.94 L 567.3 423.94 Z M 573 421.4 L 573 421.4 L 574.14 419.15 L 574.14 419.15 L 575.85 418.3 L 575.85 418.3 L 573 421.4 L 573 421.4 Z M 574.99 415.48 L 574.99 415.48 L 575.56 415.2 L 575.56 415.2 L 575.56 415.2 L 575.56 415.2 L 574.99 415.48 L 574.99 415.48 Z M 511.44 357.09 L 511.44 357.09 L 516.57 359.06 L 521.98 361.6 L 527.4 364.7 L 532.53 368.09 L 537.09 371.76 L 541.65 375.42 L 546.21 379.65 L 550.2 383.6 L 550.2 383.6 L 553.33 386.71 L 556.75 389.25 L 564.45 394.61 L 571.57 399.68 L 574.99 402.22 L 578.41 405.33 L 578.41 405.33 L 576.42 409.84 L 575.28 411.53 L 573.28 413.51 L 573.28 413.51 L 567.87 416.61 L 564.73 418.58 L 563.88 419.71 L 563.59 420.28 L 563.59 420.28 L 558.75 422.82 L 553.9 425.07 L 549.63 427.89 L 545.35 430.71 L 536.8 436.92 L 528.25 442.84 L 528.25 442.84 L 523.12 445.66 L 517.99 448.49 L 512.58 450.74 L 507.45 452.44 L 501.75 453.85 L 496.05 454.97 L 490.35 455.54 L 484.36 456.1 L 484.36 456.1 L 472.96 456.1 L 461.85 455.54 L 450.17 455.26 L 438.77 455.26 L 438.77 455.26 L 414.26 456.38 L 402.29 456.67 L 390.03 456.67 L 390.03 456.67 L 386.33 456.1 L 382.62 455.54 L 374.36 455.54 L 365.81 456.1 L 357.83 456.1 L 357.83 456.1 L 338.45 456.38 L 319.35 456.95 L 319.35 456.95 L 315.36 456.67 L 311.09 456.67 L 307.1 456.95 L 302.83 457.23 L 302.83 457.23 L 292 457.79 L 280.6 457.23 L 280.6 457.23 L 276.04 457.23 L 271.48 457.79 L 262.07 458.92 L 253.24 460.05 L 248.39 460.33 L 243.83 460.62 L 243.83 460.62 L 239.84 460.33 L 236.99 459.49 L 234.71 458.36 L 233.29 456.67 L 232.15 454.69 L 231.58 451.87 L 231.29 448.77 L 231.58 445.38 L 231.58 445.38 L 231.86 438.05 L 232.15 430.43 L 232.15 426.76 L 231.86 422.82 L 231.29 418.87 L 230.15 415.48 L 230.15 415.48 L 228.73 411.53 L 227.87 407.02 L 225.59 397.99 L 224.74 388.4 L 224.45 379.65 L 224.45 379.65 L 224.74 375.71 L 225.31 372.04 L 226.16 370.06 L 226.73 368.37 L 227.87 366.96 L 229.58 365.55 L 229.58 365.55 L 230.44 364.99 L 232.15 364.7 L 235.57 363.58 L 238.7 363.01 L 240.13 362.16 L 241.27 361.6 L 241.27 361.6 L 246.4 362.16 L 251.53 363.01 L 256.94 363.01 L 262.07 363.01 L 272.62 362.16 L 278.32 362.16 L 283.45 362.16 L 283.45 362.16 L 282.31 364.14 L 281.17 366.68 L 281.17 366.68 L 278.89 366.68 L 275.47 367.52 L 274.04 368.37 L 272.62 368.94 L 271.76 370.06 L 271.76 370.35 L 271.76 370.91 L 271.76 370.91 L 271.48 372.32 L 270.91 373.45 L 270.91 374.29 L 271.48 375.42 L 271.76 376.55 L 272.33 377.4 L 274.04 378.81 L 276.61 379.94 L 278.89 380.5 L 281.17 380.78 L 283.45 380.5 L 283.45 380.5 L 284.59 380.22 L 285.73 379.94 L 286.87 379.09 L 287.44 378.24 L 288.58 376.55 L 289.15 374.01 L 288.86 372.04 L 287.72 370.06 L 286.3 368.37 L 285.44 367.52 L 284.02 366.96 L 284.02 366.96 L 285.16 364.7 L 286.01 362.16 L 286.01 362.16 L 308.81 362.45 L 331.61 362.16 L 376.92 361.32 L 422.52 360.19 L 468.12 359.06 L 468.12 359.06 L 467.26 361.88 L 465.84 364.7 L 465.84 364.7 L 463.56 363.86 L 459.57 363.86 L 457.58 363.86 L 456.15 364.14 L 455.58 364.7 L 455.58 364.99 L 455.58 365.27 L 455.87 365.83 L 455.87 365.83 L 455.01 367.24 L 455.01 367.24 L 454.44 367.52 L 453.87 368.09 L 453.87 368.94 L 453.87 370.35 L 454.16 371.47 L 454.16 371.47 L 455.01 372.32 L 455.58 373.45 L 456.72 374.29 L 457.86 375.14 L 460.43 376.27 L 462.99 376.55 L 462.99 376.55 L 458.72 377.4 L 454.16 378.53 L 449.6 378.81 L 447.6 378.81 L 445.32 378.53 L 445.32 378.53 L 442.47 377.4 L 440.19 376.55 L 437.63 375.42 L 435.06 374.86 L 435.06 374.86 L 433.64 374.86 L 432.5 375.14 L 429.93 375.71 L 427.37 376.27 L 426.51 376.27 L 425.37 375.42 L 425.37 375.42 L 423.95 374.29 L 423.66 373.45 L 423.95 372.6 L 424.8 372.04 L 425.66 371.47 L 426.8 370.63 L 428.79 370.35 L 428.79 370.35 L 431.07 370.35 L 433.64 370.63 L 438.48 371.76 L 440.76 371.76 L 442.76 371.76 L 445.04 370.91 L 446.75 370.06 L 446.75 370.06 L 448.46 368.65 L 450.74 366.96 L 453.02 365.27 L 453.59 364.7 L 453.59 363.58 L 453.59 363.58 L 453.02 363.29 L 452.73 363.01 L 451.31 363.01 L 450.17 363.58 L 448.46 364.99 L 445.32 367.52 L 443.61 369.22 L 443.61 369.22 L 439.05 368.37 L 435.06 367.52 L 430.22 367.24 L 428.22 367.52 L 425.94 368.09 L 425.94 368.09 L 425.09 368.37 L 423.95 368.94 L 422.52 370.35 L 421.67 372.04 L 421.67 374.01 L 422.24 375.71 L 423.38 377.4 L 423.95 377.96 L 425.09 378.53 L 425.94 378.53 L 427.37 378.81 L 427.37 378.81 L 429.93 378.53 L 432.21 377.96 L 434.49 377.96 L 437.06 377.96 L 437.06 377.96 L 439.05 378.53 L 440.76 379.65 L 442.76 380.5 L 444.47 381.35 L 444.47 381.35 L 447.89 381.63 L 451.02 381.63 L 454.44 381.35 L 457.58 380.78 L 463.85 378.81 L 469.83 377.12 L 469.83 377.12 L 472.96 376.55 L 475.81 376.27 L 481.51 375.71 L 487.5 375.42 L 490.63 374.86 L 493.2 374.01 L 493.2 374.01 L 494.91 373.45 L 496.33 372.6 L 497.47 372.04 L 498.04 370.91 L 498.33 370.35 L 498.33 369.78 L 498.04 368.65 L 497.76 368.09 L 496.05 366.68 L 494.05 365.55 L 491.49 364.7 L 488.92 364.7 L 488.92 364.7 L 485.79 364.99 L 481.23 365.55 L 478.95 366.4 L 477.24 367.24 L 475.81 368.09 L 475.81 368.65 L 475.81 369.22 L 475.81 369.22 L 476.1 369.22 L 476.38 369.78 L 478.66 369.22 L 484.65 368.37 L 487.78 368.09 L 491.2 368.09 L 494.05 368.37 L 494.91 368.94 L 496.05 369.78 L 496.05 369.78 L 494.62 370.63 L 493.2 371.47 L 490.35 372.6 L 486.64 373.17 L 482.94 373.45 L 475.81 373.73 L 472.39 373.73 L 469.26 374.29 L 469.26 374.29 L 469.83 373.45 L 470.68 372.32 L 470.97 370.91 L 470.97 370.06 L 470.68 368.65 L 469.83 367.52 L 469.26 366.68 L 468.12 365.55 L 468.12 365.55 L 469.83 362.45 L 470.68 360.75 L 470.97 358.78 L 470.97 358.78 L 478.95 359.06 L 492.63 359.06 L 499.47 359.06 L 505.17 358.78 L 509.73 358.22 L 510.87 357.65 L 511.44 357.09 L 511.44 357.09 Z M 275.18 375.42 L 275.18 375.42 L 274.9 374.01 L 274.33 372.6 L 274.33 372.6 L 276.04 373.45 L 278.6 374.86 L 280.88 376.27 L 281.74 376.27 L 282.31 376.27 L 282.31 376.27 L 282.59 376.55 L 282.59 376.55 L 282.02 377.12 L 281.74 378.24 L 281.74 378.24 L 280.03 378.24 L 278.32 377.96 L 276.89 377.12 L 275.47 376.55 L 275.47 376.55 L 275.18 375.42 L 275.18 375.42 Z M 280.6 372.32 L 280.6 372.32 L 280.88 372.04 L 280.88 372.04 L 281.17 372.6 L 281.74 373.45 L 281.74 373.45 L 280.6 372.32 L 280.6 372.32 Z M 462.99 370.91 L 462.99 370.91 L 465.27 373.17 L 465.27 373.17 L 464.7 373.45 L 464.7 373.45 L 462.71 373.73 L 460.43 373.17 L 458.43 372.32 L 457.58 371.47 L 457.01 370.63 L 457.01 370.63 L 457.86 370.06 L 457.86 370.06 L 459.29 370.91 L 460.71 371.76 L 461.85 371.76 L 462.99 370.91 L 462.99 370.91 Z M 459 366.96 L 459 366.96 L 460.14 366.68 L 460.14 366.68 L 461.85 367.24 L 461.85 367.24 L 460.43 366.96 L 459 366.96 L 459 366.96 Z M 468.12 356.52 L 468.12 356.52 L 458.72 356.52 L 458.72 356.52 L 457.86 354.83 L 457.58 353.14 L 457.58 351.45 L 458.43 350.32 L 458.43 350.32 L 459 351.45 L 459.57 352.01 L 460.71 352.29 L 461.28 352.57 L 462.42 352.29 L 463.56 351.73 L 465.55 350.03 L 465.55 350.03 L 466.41 351.45 L 466.41 351.45 L 467.26 352.57 L 467.83 353.7 L 468.12 356.52 L 468.12 356.52 Z M 460.43 348.34 L 460.43 348.34 L 461.85 348.06 L 462.99 348.34 L 462.99 348.34 L 461 349.75 L 461 349.75 L 460.43 348.34 L 460.43 348.34 Z M 463.85 331.98 L 463.85 331.98 L 464.13 331.7 L 464.42 331.42 L 464.42 330.29 L 463.85 328.6 L 463.85 328.6 L 463.85 328.31 L 463.85 328.31 L 465.27 329.16 L 466.98 331.42 L 466.98 331.42 L 467.83 333.11 L 468.69 335.08 L 468.69 337.06 L 468.12 339.03 L 467.55 341.01 L 466.98 342.7 L 465.27 346.37 L 465.27 346.37 L 463.85 345.52 L 462.42 345.24 L 461 345.24 L 460.14 345.52 L 460.14 345.52 L 459.57 341.85 L 459.57 337.62 L 460.14 333.67 L 461 330.57 L 461 330.57 L 461 331.42 L 461.28 332.26 L 462.42 333.67 L 462.71 333.67 L 463.56 333.67 L 463.85 333.11 L 463.85 331.98 L 463.85 331.98 Z M 460.43 314.21 L 460.43 314.21 L 461.85 314.77 L 461.85 314.77 L 461 315.06 L 461 315.06 L 460.43 315.06 L 460.43 315.06 L 460.43 314.21 L 460.43 314.21 Z M 457.29 287.41 L 457.29 287.41 L 457.86 287.69 L 457.86 287.69 L 457.58 288.54 L 457.58 288.54 L 457.29 288.54 L 457.29 288.54 L 457.29 287.41 L 457.29 287.41 Z M 457.29 294.18 L 457.29 294.18 L 457.29 295.87 L 457.29 295.87 L 457.01 294.18 L 457.01 294.18 L 457.29 294.18 L 457.29 294.18 Z M 456.72 304.05 L 456.72 304.05 L 456.72 305.75 L 457.01 306.59 L 457.86 306.87 L 457.86 306.87 L 458.72 306.59 L 459.29 305.75 L 459.29 304.9 L 459.57 303.49 L 459.57 299.26 L 459.57 299.26 L 461.28 300.39 L 462.71 301.8 L 464.13 303.49 L 464.7 305.46 L 464.7 305.46 L 464.7 307.44 L 464.7 309.41 L 464.42 310.82 L 463.85 312.23 L 463.85 312.23 L 462.71 311.67 L 462.71 311.67 L 462.42 310.54 L 461.85 310.26 L 461 310.54 L 460.43 310.82 L 460.43 310.82 L 459.29 309.98 L 458.72 309.41 L 458.43 310.26 L 457.86 311.11 L 457.86 313.93 L 457.86 315.62 L 457.86 315.62 L 457.29 315.62 L 456.72 315.06 L 456.72 315.06 L 456.15 314.21 L 455.58 312.8 L 454.44 310.82 L 454.44 310.82 L 454.44 309.13 L 454.16 308.28 L 453.87 307.72 L 453.59 307.44 L 453.59 307.44 L 453.02 305.46 L 453.02 303.49 L 453.02 302.36 L 453.59 301.51 L 454.16 300.67 L 455.3 300.1 L 455.3 300.1 L 455.58 302.08 L 456.72 304.05 L 456.72 304.05 Z M 425.09 291.64 L 425.09 291.64 L 423.95 291.64 L 423.95 291.64 L 423.95 291.64 L 423.95 291.64 L 425.09 291.64 L 425.09 291.64 Z M 396.59 290.79 L 396.59 290.79 L 402.86 291.08 L 402.86 291.08 L 396.59 290.79 L 396.59 290.79 L 396.59 290.79 L 396.59 290.79 Z M 280.88 296.72 L 280.88 296.72 L 302.26 295.59 L 323.34 294.46 L 344.72 293.9 L 366.09 293.33 L 366.09 293.33 L 388.04 293.62 L 409.98 294.18 L 432.21 294.46 L 443.33 294.46 L 454.16 294.18 L 454.16 294.18 L 454.44 297.28 L 454.44 297.28 L 452.45 298.41 L 451.31 300.1 L 450.74 301.8 L 450.45 303.77 L 450.45 305.75 L 450.74 307.72 L 452.16 311.95 L 452.16 311.95 L 452.73 314.21 L 453.87 316.47 L 455.01 317.31 L 455.87 318.16 L 457.01 318.44 L 458.43 318.44 L 458.43 318.44 L 459.29 322.67 L 460.43 326.62 L 460.43 326.62 L 459.57 327.47 L 459 328.6 L 457.86 331.42 L 457.29 334.8 L 457.01 337.62 L 457.01 337.62 L 456.15 338.75 L 456.15 339.88 L 455.87 342.42 L 456.72 345.24 L 457.01 347.21 L 457.01 347.21 L 455.58 348.91 L 455.3 350.88 L 455.01 353.7 L 455.58 356.52 L 455.58 356.52 L 413.4 357.37 L 371.22 358.5 L 329.04 359.34 L 307.67 359.91 L 286.87 359.34 L 286.87 359.34 L 286.87 356.52 L 286.87 355.11 L 286.01 353.7 L 286.01 353.7 L 285.44 352.29 L 284.59 350.88 L 283.73 350.03 L 282.31 349.19 L 282.31 349.19 L 283.45 346.93 L 283.73 344.11 L 284.02 341.01 L 284.02 338.19 L 283.73 335.08 L 282.88 332.26 L 282.02 329.72 L 280.31 327.47 L 280.31 327.47 L 280.6 324.36 L 280.6 321.83 L 280.6 321.83 L 281.74 320.7 L 282.31 319.85 L 283.73 317.03 L 284.02 313.93 L 284.02 310.82 L 283.73 307.72 L 282.88 304.9 L 281.74 302.08 L 280.31 299.82 L 280.31 299.82 L 280.88 296.72 L 280.88 296.72 Z M 277.18 288.54 L 277.18 288.54 L 277.46 289.38 L 277.46 289.38 L 276.89 289.38 L 276.89 289.38 L 277.18 288.54 L 277.18 288.54 Z M 276.61 293.9 L 276.61 293.9 L 277.46 293.62 L 277.46 293.62 L 278.6 293.9 L 278.6 293.9 L 278.6 294.18 L 278.6 294.18 L 276.61 294.18 L 276.61 294.18 L 276.61 293.9 L 276.61 293.9 Z M 276.89 297 L 276.89 297 L 276.89 297 L 276.89 297 L 278.32 297 L 278.32 297 L 277.75 297.57 L 277.75 297.57 L 276.89 297 L 276.89 297 Z M 277.18 300.39 L 277.18 300.39 L 276.89 300.95 L 276.89 300.95 L 276.89 300.39 L 276.89 300.39 L 277.18 300.39 L 277.18 300.39 Z M 279.17 303.21 L 279.17 303.21 L 280.6 306.59 L 281.17 310.54 L 281.17 312.52 L 281.17 314.77 L 280.6 316.47 L 280.03 318.16 L 280.03 318.16 L 279.17 316.75 L 278.32 315.62 L 277.46 315.34 L 276.61 315.34 L 275.75 315.62 L 275.47 315.9 L 275.75 316.75 L 276.61 317.59 L 276.61 317.59 L 275.75 318.16 L 275.47 318.72 L 275.18 319.29 L 275.47 320.13 L 275.47 320.13 L 274.33 319.29 L 273.47 318.44 L 272.62 317.03 L 272.05 315.34 L 272.05 315.34 L 272.33 314.21 L 272.33 313.36 L 272.05 312.52 L 271.48 311.67 L 271.48 311.67 L 270.91 309.13 L 270.91 307.72 L 270.34 307.16 L 270.34 307.16 L 270.34 304.9 L 270.91 302.64 L 271.76 301.8 L 272.33 300.67 L 273.19 300.1 L 274.04 299.82 L 274.04 299.82 L 274.33 303.21 L 274.9 304.34 L 275.47 305.75 L 276.04 306.03 L 276.89 306.03 L 277.75 305.18 L 279.17 303.21 L 279.17 303.21 Z M 272.05 292.21 L 272.05 292.21 L 268.34 292.49 L 264.07 292.49 L 264.07 292.49 L 272.05 292.21 L 272.05 292.21 Z M 218.75 290.51 L 218.75 290.51 L 213.62 291.08 L 211.34 291.08 L 208.78 291.64 L 208.78 291.64 L 211.34 290.79 L 213.62 290.51 L 218.75 290.51 L 218.75 290.51 Z M 204.22 293.33 L 204.22 293.33 L 204.79 293.9 L 204.79 293.9 L 203.65 293.9 L 203.65 293.9 L 204.22 293.33 L 204.22 293.33 Z" fill="#2E2E2E" stroke="none" />
</g>
<g id="shape-15" data-name="文本框 14">
<rect x="244.22" y="368.55" width="315.1" height="96.94" fill="none" />
<text x="253.82" y="434.55" text-anchor="start" xml:space="preserve" font-family="&quot;华文隶书&quot;, sans-serif" font-size="72" fill="#2E2E2E" font-weight="bold">{{SUBTITLE}}</text>
</g>
<g id="shape-56" data-name="Freeform 298">
<path d="M 748.65 149.7 C 729.3 149.7 715.04 135.37 713.01 133.33 C 713.01 133.33 713.01 133.33 713.01 133.33 C 702.82 125.14 698.75 115.93 698.75 108.77 C 698.75 108.77 698.75 108.77 698.75 108.77 C 699.77 96.49 706.9 89.33 706.9 88.3 C 706.9 88.3 706.9 88.3 706.9 88.3 C 707.92 88.3 707.92 88.3 707.92 88.3 C 708.93 88.3 708.93 88.3 708.93 88.3 C 710.97 87.28 713.01 86.26 716.06 86.26 C 716.06 86.26 716.06 86.26 716.06 86.26 C 726.24 86.26 734.39 94.44 738.46 101.61 C 738.46 101.61 738.46 101.61 738.46 101.61 C 739.48 102.63 740.5 103.65 741.52 104.68 C 741.52 104.68 741.52 104.68 741.52 104.68 C 741.52 102.63 742.54 100.58 743.55 98.54 C 743.55 98.54 743.55 98.54 743.55 98.54 C 744.57 95.47 746.61 92.4 750.68 92.4 C 750.68 92.4 750.68 92.4 750.68 92.4 C 754.75 92.4 756.79 95.47 757.81 98.54 C 757.81 98.54 757.81 98.54 757.81 98.54 C 759.85 100.58 760.86 102.63 760.86 102.63 C 760.86 102.63 760.86 102.63 760.86 102.63 C 760.86 102.63 760.86 102.63 760.86 102.63 C 760.86 103.65 760.86 103.65 760.86 103.65 C 760.86 105.7 761.88 107.74 761.88 110.81 C 761.88 110.81 761.88 110.81 761.88 110.81 C 761.88 129.23 751.7 147.65 751.7 147.65 C 751.7 147.65 751.7 147.65 751.7 147.65 C 750.68 149.7 750.68 149.7 750.68 149.7 C 748.65 149.7 748.65 149.7 748.65 149.7 Z M 720.13 131.28 C 722.17 132.3 724.21 134.35 726.24 135.37 C 726.24 135.37 726.24 135.37 726.24 135.37 C 731.33 139.47 738.46 142.54 746.61 142.54 C 746.61 142.54 746.61 142.54 746.61 142.54 C 747.63 141.51 748.65 137.42 749.66 134.35 C 749.66 134.35 749.66 134.35 749.66 134.35 C 752.72 127.19 754.75 119 754.75 110.81 C 754.75 110.81 754.75 110.81 754.75 110.81 C 754.75 108.77 754.75 106.72 754.75 104.68 C 754.75 104.68 754.75 104.68 754.75 104.68 C 753.74 104.68 753.74 103.65 752.72 102.63 C 752.72 102.63 752.72 102.63 752.72 102.63 C 752.72 100.58 750.68 99.56 750.68 99.56 C 750.68 99.56 750.68 99.56 750.68 99.56 C 750.68 99.56 749.66 100.58 749.66 101.61 C 749.66 101.61 749.66 101.61 749.66 101.61 C 748.65 103.65 747.63 108.77 746.61 116.95 C 746.61 116.95 746.61 116.95 746.61 116.95 C 739.48 117.98 739.48 117.98 739.48 117.98 C 739.48 117.98 739.48 115.93 738.46 113.88 C 738.46 113.88 738.46 113.88 738.46 113.88 C 737.44 111.84 735.41 107.74 733.37 104.68 C 733.37 104.68 733.37 104.68 733.37 104.68 C 729.3 98.54 723.19 93.42 716.06 93.42 C 716.06 93.42 716.06 93.42 716.06 93.42 C 714.02 93.42 713.01 93.42 710.97 94.44 C 710.97 94.44 710.97 94.44 710.97 94.44 C 710.97 94.44 710.97 94.44 710.97 94.44 C 710.97 94.44 710.97 94.44 710.97 94.44 C 710.97 95.47 709.95 96.49 708.93 97.51 C 708.93 97.51 708.93 97.51 708.93 97.51 C 706.9 100.58 705.88 103.65 705.88 108.77 C 705.88 108.77 705.88 108.77 705.88 108.77 C 705.88 113.88 707.92 121.05 718.1 128.21 C 718.1 128.21 718.1 128.21 718.1 128.21 C 718.1 128.21 718.1 128.21 718.1 128.21 C 718.1 128.21 718.1 128.21 718.1 128.21 C 718.1 128.21 718.1 128.21 718.1 128.21 C 718.1 128.21 718.1 128.21 718.1 128.21 C 718.1 128.21 719.12 129.23 720.13 131.28 Z M 743.55 115.93 C 746.61 114.91 746.61 114.91 746.61 114.91 C 743.55 115.93 743.55 115.93 743.55 115.93 Z M 750.68 99.56 C 750.68 99.56 750.68 99.56 750.68 99.56 C 750.68 99.56 750.68 99.56 750.68 99.56 Z" fill="#F7B63E" stroke="none" />
</g>
<g id="shape-57" data-name="椭圆 56">
<ellipse cx="-53.76" cy="455.32" rx="40.19" ry="40.19" fill="#70AD47" stroke="none" stroke-width="1" />
</g>
<g id="shape-58" data-name="椭圆 57">
<ellipse cx="-53.76" cy="375.64" rx="40.19" ry="40.19" fill="#76AADB" stroke="none" stroke-width="1" />
</g>
<g id="shape-59" data-name="椭圆 58">
<ellipse cx="-53.76" cy="295.6" rx="40.19" ry="40.19" fill="#FF3E3E" stroke="none" stroke-width="1" />
</g>
<g id="shape-60" data-name="椭圆 59">
<ellipse cx="-51.59" cy="215.59" rx="40.19" ry="40.19" fill="#F7B63E" stroke="none" stroke-width="1" />
</g>
<g id="shape-61" data-name="Freeform 298">
<path d="M 752.36 298.15 C 733.02 298.15 718.76 283.83 716.73 281.78 C 716.73 281.78 716.73 281.78 716.73 281.78 C 706.54 273.59 702.47 264.39 702.47 257.22 C 702.47 257.22 702.47 257.22 702.47 257.22 C 703.49 244.94 710.62 237.78 710.62 236.76 C 710.62 236.76 710.62 236.76 710.62 236.76 C 711.63 236.76 711.63 236.76 711.63 236.76 C 712.65 236.76 712.65 236.76 712.65 236.76 C 714.69 235.73 716.73 234.71 719.78 234.71 C 719.78 234.71 719.78 234.71 719.78 234.71 C 729.96 234.71 738.11 242.9 742.18 250.06 C 742.18 250.06 742.18 250.06 742.18 250.06 C 743.2 251.08 744.22 252.11 745.24 253.13 C 745.24 253.13 745.24 253.13 745.24 253.13 C 745.24 251.08 746.25 249.04 747.27 246.99 C 747.27 246.99 747.27 246.99 747.27 246.99 C 748.29 243.92 750.33 240.85 754.4 240.85 C 754.4 240.85 754.4 240.85 754.4 240.85 C 758.47 240.85 760.51 243.92 761.53 246.99 C 761.53 246.99 761.53 246.99 761.53 246.99 C 763.56 249.04 764.58 251.08 764.58 251.08 C 764.58 251.08 764.58 251.08 764.58 251.08 C 764.58 251.08 764.58 251.08 764.58 251.08 C 764.58 252.11 764.58 252.11 764.58 252.11 C 764.58 254.15 765.6 256.2 765.6 259.27 C 765.6 259.27 765.6 259.27 765.6 259.27 C 765.6 277.69 755.42 296.11 755.42 296.11 C 755.42 296.11 755.42 296.11 755.42 296.11 C 754.4 298.15 754.4 298.15 754.4 298.15 C 752.36 298.15 752.36 298.15 752.36 298.15 Z M 723.85 279.73 C 725.89 280.76 727.93 282.8 729.96 283.83 C 729.96 283.83 729.96 283.83 729.96 283.83 C 735.05 287.92 742.18 290.99 750.33 290.99 C 750.33 290.99 750.33 290.99 750.33 290.99 C 751.35 289.97 752.36 285.87 753.38 282.8 C 753.38 282.8 753.38 282.8 753.38 282.8 C 756.44 275.64 758.47 267.45 758.47 259.27 C 758.47 259.27 758.47 259.27 758.47 259.27 C 758.47 257.22 758.47 255.18 758.47 253.13 C 758.47 253.13 758.47 253.13 758.47 253.13 C 757.46 253.13 757.46 252.11 756.44 251.08 C 756.44 251.08 756.44 251.08 756.44 251.08 C 756.44 249.04 754.4 248.01 754.4 248.01 C 754.4 248.01 754.4 248.01 754.4 248.01 C 754.4 248.01 753.38 249.04 753.38 250.06 C 753.38 250.06 753.38 250.06 753.38 250.06 C 752.36 252.11 751.35 257.22 750.33 265.41 C 750.33 265.41 750.33 265.41 750.33 265.41 C 743.2 266.43 743.2 266.43 743.2 266.43 C 743.2 266.43 743.2 264.39 742.18 262.34 C 742.18 262.34 742.18 262.34 742.18 262.34 C 741.16 260.29 739.13 256.2 737.09 253.13 C 737.09 253.13 737.09 253.13 737.09 253.13 C 733.02 246.99 726.91 241.87 719.78 241.87 C 719.78 241.87 719.78 241.87 719.78 241.87 C 717.74 241.87 716.73 241.87 714.69 242.9 C 714.69 242.9 714.69 242.9 714.69 242.9 C 714.69 242.9 714.69 242.9 714.69 242.9 C 714.69 242.9 714.69 242.9 714.69 242.9 C 714.69 243.92 713.67 244.94 712.65 245.97 C 712.65 245.97 712.65 245.97 712.65 245.97 C 710.62 249.04 709.6 252.11 709.6 257.22 C 709.6 257.22 709.6 257.22 709.6 257.22 C 709.6 262.34 711.63 269.5 721.82 276.66 C 721.82 276.66 721.82 276.66 721.82 276.66 C 721.82 276.66 721.82 276.66 721.82 276.66 C 721.82 276.66 721.82 276.66 721.82 276.66 C 721.82 276.66 721.82 276.66 721.82 276.66 C 721.82 276.66 721.82 276.66 721.82 276.66 C 721.82 276.66 722.83 277.69 723.85 279.73 Z M 747.27 264.39 C 750.33 263.36 750.33 263.36 750.33 263.36 C 747.27 264.39 747.27 264.39 747.27 264.39 Z M 754.4 248.01 C 754.4 248.01 754.4 248.01 754.4 248.01 C 754.4 248.01 754.4 248.01 754.4 248.01 Z" fill="#FF3E3E" stroke="none" />
</g>
<g id="shape-62" data-name="Freeform 298">
<path d="M 751.76 448.74 C 732.42 448.74 718.16 434.41 716.12 432.37 C 716.12 432.37 716.12 432.37 716.12 432.37 C 705.94 424.18 701.87 414.97 701.87 407.81 C 701.87 407.81 701.87 407.81 701.87 407.81 C 702.89 395.53 710.02 388.37 710.02 387.34 C 710.02 387.34 710.02 387.34 710.02 387.34 C 711.03 387.34 711.03 387.34 711.03 387.34 C 712.05 387.34 712.05 387.34 712.05 387.34 C 714.09 386.32 716.12 385.3 719.18 385.3 C 719.18 385.3 719.18 385.3 719.18 385.3 C 729.36 385.3 737.51 393.48 741.58 400.64 C 741.58 400.64 741.58 400.64 741.58 400.64 C 742.6 401.67 743.62 402.69 744.64 403.71 C 744.64 403.71 744.64 403.71 744.64 403.71 C 744.64 401.67 745.65 399.62 746.67 397.57 C 746.67 397.57 746.67 397.57 746.67 397.57 C 747.69 394.5 749.73 391.43 753.8 391.43 C 753.8 391.43 753.8 391.43 753.8 391.43 C 757.87 391.43 759.91 394.5 760.93 397.57 C 760.93 397.57 760.93 397.57 760.93 397.57 C 762.96 399.62 763.98 401.67 763.98 401.67 C 763.98 401.67 763.98 401.67 763.98 401.67 C 763.98 401.67 763.98 401.67 763.98 401.67 C 763.98 402.69 763.98 402.69 763.98 402.69 C 763.98 404.74 765 406.78 765 409.85 C 765 409.85 765 409.85 765 409.85 C 765 428.27 754.82 446.69 754.82 446.69 C 754.82 446.69 754.82 446.69 754.82 446.69 C 753.8 448.74 753.8 448.74 753.8 448.74 C 751.76 448.74 751.76 448.74 751.76 448.74 Z M 723.25 430.32 C 725.29 431.34 727.33 433.39 729.36 434.41 C 729.36 434.41 729.36 434.41 729.36 434.41 C 734.45 438.5 741.58 441.57 749.73 441.57 C 749.73 441.57 749.73 441.57 749.73 441.57 C 750.75 440.55 751.76 436.46 752.78 433.39 C 752.78 433.39 752.78 433.39 752.78 433.39 C 755.84 426.23 757.87 418.04 757.87 409.85 C 757.87 409.85 757.87 409.85 757.87 409.85 C 757.87 407.81 757.87 405.76 757.87 403.71 C 757.87 403.71 757.87 403.71 757.87 403.71 C 756.85 403.71 756.85 402.69 755.84 401.67 C 755.84 401.67 755.84 401.67 755.84 401.67 C 755.84 399.62 753.8 398.6 753.8 398.6 C 753.8 398.6 753.8 398.6 753.8 398.6 C 753.8 398.6 752.78 399.62 752.78 400.64 C 752.78 400.64 752.78 400.64 752.78 400.64 C 751.76 402.69 750.75 407.81 749.73 415.99 C 749.73 415.99 749.73 415.99 749.73 415.99 C 742.6 417.02 742.6 417.02 742.6 417.02 C 742.6 417.02 742.6 414.97 741.58 412.92 C 741.58 412.92 741.58 412.92 741.58 412.92 C 740.56 410.88 738.53 406.78 736.49 403.71 C 736.49 403.71 736.49 403.71 736.49 403.71 C 732.42 397.57 726.31 392.46 719.18 392.46 C 719.18 392.46 719.18 392.46 719.18 392.46 C 717.14 392.46 716.12 392.46 714.09 393.48 C 714.09 393.48 714.09 393.48 714.09 393.48 C 714.09 393.48 714.09 393.48 714.09 393.48 C 714.09 393.48 714.09 393.48 714.09 393.48 C 714.09 394.5 713.07 395.53 712.05 396.55 C 712.05 396.55 712.05 396.55 712.05 396.55 C 710.02 399.62 709 402.69 709 407.81 C 709 407.81 709 407.81 709 407.81 C 709 412.92 711.03 420.09 721.22 427.25 C 721.22 427.25 721.22 427.25 721.22 427.25 C 721.22 427.25 721.22 427.25 721.22 427.25 C 721.22 427.25 721.22 427.25 721.22 427.25 C 721.22 427.25 721.22 427.25 721.22 427.25 C 721.22 427.25 721.22 427.25 721.22 427.25 C 721.22 427.25 722.23 428.27 723.25 430.32 Z M 746.67 414.97 C 749.73 413.95 749.73 413.95 749.73 413.95 C 746.67 414.97 746.67 414.97 746.67 414.97 Z M 753.8 398.6 C 753.8 398.6 753.8 398.6 753.8 398.6 C 753.8 398.6 753.8 398.6 753.8 398.6 Z" fill="#76AADB" stroke="none" />
</g>
<g id="shape-63" data-name="Freeform 298">
<path d="M 751.76 601.59 C 732.42 601.59 718.16 587.27 716.12 585.22 C 716.12 585.22 716.12 585.22 716.12 585.22 C 705.94 577.03 701.87 567.82 701.87 560.66 C 701.87 560.66 701.87 560.66 701.87 560.66 C 702.89 548.38 710.02 541.22 710.02 540.2 C 710.02 540.2 710.02 540.2 710.02 540.2 C 711.03 540.2 711.03 540.2 711.03 540.2 C 712.05 540.2 712.05 540.2 712.05 540.2 C 714.09 539.17 716.12 538.15 719.18 538.15 C 719.18 538.15 719.18 538.15 719.18 538.15 C 729.36 538.15 737.51 546.34 741.58 553.5 C 741.58 553.5 741.58 553.5 741.58 553.5 C 742.6 554.52 743.62 555.54 744.64 556.57 C 744.64 556.57 744.64 556.57 744.64 556.57 C 744.64 554.52 745.65 552.47 746.67 550.43 C 746.67 550.43 746.67 550.43 746.67 550.43 C 747.69 547.36 749.73 544.29 753.8 544.29 C 753.8 544.29 753.8 544.29 753.8 544.29 C 757.87 544.29 759.91 547.36 760.93 550.43 C 760.93 550.43 760.93 550.43 760.93 550.43 C 762.96 552.47 763.98 554.52 763.98 554.52 C 763.98 554.52 763.98 554.52 763.98 554.52 C 763.98 554.52 763.98 554.52 763.98 554.52 C 763.98 555.54 763.98 555.54 763.98 555.54 C 763.98 557.59 765 559.64 765 562.71 C 765 562.71 765 562.71 765 562.71 C 765 581.13 754.82 599.54 754.82 599.54 C 754.82 599.54 754.82 599.54 754.82 599.54 C 753.8 601.59 753.8 601.59 753.8 601.59 C 751.76 601.59 751.76 601.59 751.76 601.59 Z M 723.25 583.17 C 725.29 584.2 727.33 586.24 729.36 587.27 C 729.36 587.27 729.36 587.27 729.36 587.27 C 734.45 591.36 741.58 594.43 749.73 594.43 C 749.73 594.43 749.73 594.43 749.73 594.43 C 750.75 593.41 751.76 589.31 752.78 586.24 C 752.78 586.24 752.78 586.24 752.78 586.24 C 755.84 579.08 757.87 570.89 757.87 562.71 C 757.87 562.71 757.87 562.71 757.87 562.71 C 757.87 560.66 757.87 558.61 757.87 556.57 C 757.87 556.57 757.87 556.57 757.87 556.57 C 756.85 556.57 756.85 555.54 755.84 554.52 C 755.84 554.52 755.84 554.52 755.84 554.52 C 755.84 552.47 753.8 551.45 753.8 551.45 C 753.8 551.45 753.8 551.45 753.8 551.45 C 753.8 551.45 752.78 552.47 752.78 553.5 C 752.78 553.5 752.78 553.5 752.78 553.5 C 751.76 555.54 750.75 560.66 749.73 568.85 C 749.73 568.85 749.73 568.85 749.73 568.85 C 742.6 569.87 742.6 569.87 742.6 569.87 C 742.6 569.87 742.6 567.82 741.58 565.78 C 741.58 565.78 741.58 565.78 741.58 565.78 C 740.56 563.73 738.53 559.64 736.49 556.57 C 736.49 556.57 736.49 556.57 736.49 556.57 C 732.42 550.43 726.31 545.31 719.18 545.31 C 719.18 545.31 719.18 545.31 719.18 545.31 C 717.14 545.31 716.12 545.31 714.09 546.34 C 714.09 546.34 714.09 546.34 714.09 546.34 C 714.09 546.34 714.09 546.34 714.09 546.34 C 714.09 546.34 714.09 546.34 714.09 546.34 C 714.09 547.36 713.07 548.38 712.05 549.41 C 712.05 549.41 712.05 549.41 712.05 549.41 C 710.02 552.47 709 555.54 709 560.66 C 709 560.66 709 560.66 709 560.66 C 709 565.78 711.03 572.94 721.22 580.1 C 721.22 580.1 721.22 580.1 721.22 580.1 C 721.22 580.1 721.22 580.1 721.22 580.1 C 721.22 580.1 721.22 580.1 721.22 580.1 C 721.22 580.1 721.22 580.1 721.22 580.1 C 721.22 580.1 721.22 580.1 721.22 580.1 C 721.22 580.1 722.23 581.13 723.25 583.17 Z M 746.67 567.82 C 749.73 566.8 749.73 566.8 749.73 566.8 C 746.67 567.82 746.67 567.82 746.67 567.82 Z M 753.8 551.45 C 753.8 551.45 753.8 551.45 753.8 551.45 C 753.8 551.45 753.8 551.45 753.8 551.45 Z" fill="#70AD47" stroke="none" />
</g>
<g id="shape-64" data-name="Group 55">
<g id="shape-65" data-name="Freeform 56">
<path d="M 61.87 275.81 C 61.87 258.72 75.69 245.49 92.82 245.49 C 92.82 245.49 92.82 245.49 92.82 245.49 C 109.96 245.49 123.77 258.72 123.77 275.81 C 123.77 275.81 123.77 275.81 123.77 275.81 C 123.77 292.36 109.96 306.14 92.82 306.14 C 92.82 306.14 92.82 306.14 92.82 306.14 C 75.69 306.14 61.87 292.36 61.87 275.81 Z M 64.08 275.81 C 64.08 291.25 76.8 303.94 92.82 303.94 C 92.82 303.94 92.82 303.94 92.82 303.94 C 108.85 303.94 121.56 291.25 121.56 275.81 C 121.56 275.81 121.56 275.81 121.56 275.81 C 121.56 259.82 108.85 247.69 92.82 247.69 C 92.82 247.69 92.82 247.69 92.82 247.69 C 76.8 247.69 64.08 259.82 64.08 275.81 Z" stroke="none" fill="none" />
</g>
<g id="shape-66" data-name="Freeform 57">
<path d="M 60.77 275.81 C 60.77 258.17 75.14 244.38 92.82 244.38 C 92.82 244.38 92.82 244.38 92.82 244.38 C 110.51 244.38 124.88 258.17 124.88 275.81 C 124.88 275.81 124.88 275.81 124.88 275.81 C 124.88 292.91 110.51 307.25 92.82 307.25 C 92.82 307.25 92.82 307.25 92.82 307.25 C 75.14 307.25 60.77 292.91 60.77 275.81 Z M 92.82 305.04 C 93.38 305.04 94.48 305.04 95.03 304.49 C 95.03 304.49 95.03 304.49 95.03 304.49 C 94.48 305.04 93.38 305.04 92.82 305.04 C 92.82 305.04 92.82 305.04 92.82 305.04 C 92.27 305.04 91.17 305.04 90.61 304.49 C 90.61 304.49 90.61 304.49 90.61 304.49 C 91.17 305.04 92.27 305.04 92.82 305.04 Z M 92.82 302.84 C 107.75 302.84 120.46 290.7 120.46 275.81 C 120.46 275.81 120.46 275.81 120.46 275.81 C 120.46 260.92 107.75 248.79 92.82 248.79 C 92.82 248.79 92.82 248.79 92.82 248.79 C 77.35 248.79 65.19 260.92 65.19 275.81 C 65.19 275.81 65.19 275.81 65.19 275.81 C 65.19 290.7 77.35 302.84 92.82 302.84 Z M 62.98 275.81 C 62.98 283.53 66.29 290.7 71.27 295.67 C 71.27 295.67 71.27 295.67 71.27 295.67 C 66.29 290.7 62.98 283.53 62.98 275.81 C 62.98 275.81 62.98 275.81 62.98 275.81 Z M 115.49 294.56 C 119.91 289.6 122.67 282.98 122.67 275.81 C 122.67 275.81 122.67 275.81 122.67 275.81 C 122.67 282.98 119.91 289.6 115.49 294.56 Z M 122.67 275.81 C 122.67 268.09 119.35 260.92 114.38 255.41 C 114.38 255.41 114.38 255.41 114.38 255.41 C 119.35 260.92 122.67 268.09 122.67 275.81 Z M 62.98 275.81 C 62.98 267.54 66.29 260.37 71.82 254.86 C 71.82 254.86 71.82 254.86 71.82 254.86 C 66.29 260.37 62.98 267.54 62.98 275.81 Z" stroke="none" fill="none" />
</g>
<g id="shape-67" data-name="Freeform 58">
<path d="M 72.4 270.83 L 72.4 268.61 L 74.06 268.61 L 74.06 270.83 L 72.4 270.83 L 72.4 270.83 Z" stroke="none" fill="none" />
</g>
<g id="shape-68" data-name="Freeform 59">
<path d="M 74.06 271.94 L 72.4 271.94 L 72.4 270.83 L 73.51 270.83 L 72.4 270.83 L 72.4 271.94 L 71.29 271.94 L 71.29 267.5 L 72.4 267.5 L 75.17 267.5 L 75.17 271.94 L 74.06 271.94 L 74.06 271.94 Z" stroke="none" fill="none" />
</g>
<g id="shape-69" data-name="Freeform 60">
<path d="M 58.55 286.2 L 63.53 283.01 L 64.64 284.68 L 60.21 287.86 L 58.55 286.2 L 58.55 286.2 Z" stroke="none" fill="none" />
</g>
<g id="shape-70" data-name="Freeform 61">
<path d="M 58 286.75 L 58.55 286.2 L 59.1 287.31 L 58.55 286.2 L 58 286.75 L 57.44 285.78 L 64.09 281.35 L 66.3 285.23 L 59.66 289.52 L 58 286.75 L 58 286.75 Z" stroke="none" fill="none" />
</g>
<g id="shape-71" data-name="Freeform 62">
<path d="M 81.26 301.73 C 97.32 294.03 97.32 294.03 97.32 294.03 C 96.77 294.03 96.77 293.48 96.77 293.48 C 96.77 293.48 96.77 293.48 96.77 293.48 C 96.22 292.38 95.66 291.28 94.55 290.18 C 94.55 290.18 94.55 290.18 94.55 290.18 C 93.45 288.53 85.69 286.33 84.03 286.88 C 84.03 286.88 84.03 286.88 84.03 286.88 C 84.03 286.88 84.03 286.88 83.48 286.88 C 83.48 286.88 83.48 286.88 83.48 286.88 C 83.48 286.88 79.6 288.53 76.28 290.73 C 76.28 290.73 76.28 290.73 76.28 290.73 C 72.95 292.38 69.63 294.03 69.63 294.03 C 69.63 294.03 69.63 294.03 69.63 294.03 C 68.52 292.38 68.52 292.38 68.52 292.38 C 68.52 292.38 71.84 290.73 75.17 288.53 C 75.17 288.53 75.17 288.53 75.17 288.53 C 78.49 286.88 81.81 284.68 83.48 284.68 C 83.48 284.68 83.48 284.68 83.48 284.68 C 83.48 284.68 83.48 284.68 84.03 284.68 C 84.03 284.68 84.03 284.68 84.03 284.68 C 86.8 284.68 93.45 286.33 96.22 288.53 C 96.22 288.53 96.22 288.53 96.22 288.53 C 98.99 291.28 99.54 294.58 99.54 294.58 C 99.54 294.58 99.54 294.58 99.54 294.58 C 99.54 295.13 99.54 295.13 99.54 295.13 C 82.37 303.93 82.37 303.93 82.37 303.93 C 81.26 301.73 81.26 301.73 81.26 301.73 Z" stroke="none" fill="none" />
</g>
<g id="shape-72" data-name="Freeform 63">
<path d="M 80.15 302.28 C 81.26 301.73 81.26 301.73 81.26 301.73 C 81.81 302.83 81.81 302.83 81.81 302.83 C 81.26 301.73 81.26 301.73 81.26 301.73 C 80.15 302.28 80.15 302.28 80.15 302.28 C 79.6 301.18 79.6 301.18 79.6 301.18 C 95.66 293.48 95.66 293.48 95.66 293.48 C 95.11 292.92 94.55 291.82 94 290.72 C 94 290.72 94 290.72 94 290.72 C 93.45 290.17 85.69 287.42 84.03 287.97 C 84.03 287.97 84.03 287.97 84.03 287.97 C 84.03 287.97 84.03 287.97 84.03 287.97 C 84.03 287.97 84.03 287.97 84.03 287.97 C 84.03 287.97 84.03 287.97 84.03 287.97 C 84.03 287.97 84.03 287.97 84.03 287.97 C 84.03 287.97 84.03 287.97 84.03 287.97 C 83.48 287.97 83.48 287.97 83.48 287.97 C 83.48 287.97 83.48 287.97 83.48 287.97 C 82.92 287.97 82.37 288.52 81.26 289.07 C 81.26 289.07 81.26 289.07 81.26 289.07 C 80.15 289.62 78.49 290.72 76.83 291.27 C 76.83 291.27 76.83 291.27 76.83 291.27 C 73.51 292.92 70.74 295.13 70.18 295.13 C 70.18 295.13 70.18 295.13 70.18 295.13 C 70.18 295.13 70.18 295.13 70.18 295.13 C 69.07 295.68 69.07 295.68 69.07 295.68 C 66.86 291.27 66.86 291.27 66.86 291.27 C 67.97 291.27 67.97 291.27 67.97 291.27 C 68.52 291.27 68.52 291.27 68.52 291.27 C 68.52 291.27 68.52 291.27 68.52 291.27 C 69.07 290.72 69.63 290.72 70.18 290.17 C 70.18 290.17 70.18 290.17 70.18 290.17 C 71.29 289.62 72.95 288.52 74.61 287.42 C 74.61 287.42 74.61 287.42 74.61 287.42 C 77.94 285.77 81.26 283.57 83.48 283.57 C 83.48 283.57 83.48 283.57 83.48 283.57 C 83.48 283.57 83.48 283.57 84.03 283.57 C 84.03 283.57 84.03 283.57 84.03 283.57 C 86.8 283.57 94 285.22 97.32 287.97 C 97.32 287.97 97.32 287.97 97.32 287.97 C 99.54 290.17 100.65 293.48 100.65 294.03 C 100.65 294.03 100.65 294.03 100.65 294.03 C 100.65 294.03 100.65 294.03 100.65 294.03 C 101.2 296.23 101.2 296.23 101.2 296.23 C 81.81 305.03 81.81 305.03 81.81 305.03 C 80.15 302.28 80.15 302.28 80.15 302.28 Z M 82.92 302.28 C 98.43 294.58 98.43 294.58 98.43 294.58 C 98.43 294.58 98.43 294.58 98.43 294.58 C 98.43 294.58 98.43 294.58 98.43 294.58 C 82.92 302.28 82.92 302.28 82.92 302.28 Z M 97.88 292.92 C 97.88 293.48 97.88 293.48 97.88 294.03 C 97.88 294.03 97.88 294.03 97.88 294.03 C 98.43 294.03 98.43 294.03 98.43 294.03 C 97.88 293.48 97.88 293.48 97.88 292.92 C 97.88 292.92 97.88 292.92 97.88 292.92 C 97.32 291.82 96.77 290.72 95.66 289.62 C 95.66 289.62 95.66 289.62 95.66 289.62 C 96.77 290.72 97.32 291.82 97.88 292.92 Z M 67.97 291.27 C 67.97 291.27 67.97 291.27 67.97 291.27 C 67.97 291.27 67.97 291.27 67.97 291.27 Z M 95.66 289.62 C 95.66 289.62 95.66 289.62 95.66 289.62 C 95.66 289.62 95.66 289.62 95.66 289.62 C 95.66 289.62 95.66 289.62 95.66 289.62 Z M 79.6 287.42 C 80.71 286.87 81.81 286.32 82.37 286.32 C 82.37 286.32 82.37 286.32 82.37 286.32 C 81.26 286.32 80.71 286.87 79.6 287.42 Z M 88.46 286.32 C 86.8 285.77 85.69 285.77 84.58 285.77 C 84.58 285.77 84.58 285.77 84.58 285.77 C 85.69 285.77 86.8 285.77 88.46 286.32 Z M 82.37 285.77 C 82.37 285.77 82.37 285.77 82.37 285.77 C 82.37 285.77 82.37 285.77 82.37 285.77 C 82.37 285.77 82.37 285.77 82.37 285.77 Z M 83.48 285.77 C 83.48 285.77 83.48 285.77 83.48 285.77 C 83.48 285.77 83.48 285.77 83.48 285.77 C 83.48 285.77 83.48 285.77 83.48 285.77 C 83.48 285.77 83.48 285.77 83.48 285.77 Z M 83.48 285.77 C 83.48 285.77 83.48 285.77 83.48 285.77 C 83.48 285.77 83.48 285.77 83.48 285.77 C 83.48 285.77 83.48 285.77 83.48 285.77 C 83.48 285.77 83.48 285.77 83.48 285.77 C 83.48 285.77 83.48 285.77 83.48 285.77 C 83.48 285.77 83.48 285.77 83.48 285.77 C 83.48 285.77 83.48 285.77 83.48 285.77 Z" stroke="none" fill="none" />
</g>
<g id="shape-73" data-name="Freeform 64">
<path d="M 80.15 298.94 C 80.15 298.94 80.15 298.39 80.15 298.39 C 80.15 298.39 80.15 298.39 80.15 298.39 C 80.15 297.83 80.15 297.28 80.15 297.28 C 80.15 297.28 80.15 297.28 80.15 297.28 C 80.15 296.72 79.6 296.17 79.04 295.62 C 79.04 295.62 79.04 295.62 79.04 295.62 C 78.49 295.06 78.49 295.06 77.94 295.06 C 77.94 295.06 77.94 295.06 77.94 295.06 C 77.38 295.06 76.83 295.62 76.28 296.17 C 76.28 296.17 76.28 296.17 76.28 296.17 C 75.72 296.72 75.17 297.28 75.17 297.28 C 75.17 297.28 75.17 297.28 75.17 297.28 C 73.51 296.17 73.51 296.17 73.51 296.17 C 73.51 296.17 75.17 292.85 77.94 292.85 C 77.94 292.85 77.94 292.85 77.94 292.85 C 79.04 292.85 79.6 293.4 80.15 293.95 C 80.15 293.95 80.15 293.95 80.15 293.95 C 80.71 294.51 81.26 294.51 81.81 295.06 C 81.81 295.06 81.81 295.06 81.81 295.06 C 81.81 295.06 82.37 295.06 82.37 295.06 C 82.37 295.06 82.37 295.06 82.37 295.06 C 82.92 295.06 83.48 295.06 84.03 295.06 C 84.03 295.06 84.03 295.06 84.03 295.06 C 87.35 296.72 87.91 299.49 87.35 300.05 C 87.35 300.05 87.35 300.05 87.35 300.05 C 87.35 300.6 87.35 300.6 87.35 300.6 C 87.35 300.6 87.35 300.6 87.35 300.6 C 85.14 300.6 85.14 300.6 85.14 300.6 C 85.14 300.6 85.14 300.05 85.14 300.05 C 85.14 300.05 85.14 300.05 85.14 300.05 C 85.14 299.49 85.14 298.39 83.48 297.28 C 83.48 297.28 83.48 297.28 83.48 297.28 C 82.92 297.28 82.92 297.28 82.37 297.28 C 82.37 297.28 82.37 297.28 82.37 297.28 C 82.37 297.28 82.37 297.28 82.37 297.28 C 82.37 297.28 82.37 297.28 82.37 297.28 C 82.37 297.28 82.37 297.28 82.37 297.83 C 82.37 297.83 82.37 297.83 82.37 297.83 C 82.37 298.39 82.37 298.94 81.81 299.49 C 81.81 299.49 81.81 299.49 81.81 299.49 C 80.15 302.26 80.15 302.26 80.15 302.26 C 80.15 298.94 80.15 298.94 80.15 298.94 Z" stroke="none" fill="none" />
</g>
<g id="shape-74" data-name="Freeform 65">
<path d="M 79.04 298.94 C 79.04 298.94 79.04 298.39 79.04 298.39 C 79.04 298.39 79.04 298.39 79.04 298.39 C 79.04 297.83 79.04 297.83 79.04 297.28 C 79.04 297.28 79.04 297.28 79.04 297.28 C 79.04 297.28 78.49 296.72 77.94 296.17 C 77.94 296.17 77.94 296.17 77.94 296.17 C 77.94 296.17 77.94 296.17 77.94 296.17 C 77.94 296.17 77.94 296.17 77.94 296.17 C 77.94 296.17 77.94 296.17 77.94 296.17 C 77.94 296.17 77.94 296.17 77.94 296.17 C 77.94 296.17 77.94 296.17 77.94 296.17 C 77.94 296.17 77.94 296.17 77.38 296.17 C 77.38 296.17 77.38 296.17 77.38 296.17 C 77.38 296.72 77.38 296.72 76.83 296.72 C 76.83 296.72 76.83 296.72 76.83 296.72 C 76.28 297.28 76.28 297.83 76.28 297.83 C 76.28 297.83 76.28 297.83 76.28 297.83 C 75.17 298.94 75.17 298.94 75.17 298.94 C 70.74 295.62 70.74 295.62 70.74 295.62 C 72.4 295.06 72.4 295.06 72.4 295.06 C 72.95 295.06 72.95 295.06 72.95 295.06 C 72.95 295.06 72.95 295.06 72.95 295.06 C 72.95 294.51 73.51 293.95 74.06 293.95 C 74.06 293.95 74.06 293.95 74.06 293.95 C 74.61 292.85 76.28 291.74 77.94 291.74 C 77.94 291.74 77.94 291.74 77.94 291.74 C 77.94 291.74 77.94 291.74 77.94 291.74 C 77.94 291.74 77.94 291.74 77.94 291.74 C 79.04 291.74 80.15 292.29 81.26 292.85 C 81.26 292.85 81.26 292.85 81.26 292.85 C 81.26 293.4 81.81 293.4 81.81 293.95 C 81.81 293.95 81.81 293.95 81.81 293.95 C 82.37 293.95 82.37 293.95 82.37 293.95 C 82.37 293.95 82.37 293.95 82.37 293.95 C 82.37 293.95 82.37 293.95 82.37 293.95 C 82.37 293.95 82.37 293.95 82.37 293.95 C 82.37 293.95 82.92 293.95 82.92 293.95 C 82.92 293.95 82.92 293.95 82.92 293.95 C 83.48 293.95 84.03 293.95 84.58 294.51 C 84.58 294.51 84.58 294.51 84.58 294.51 C 87.91 295.62 88.46 298.94 88.46 300.05 C 88.46 300.05 88.46 300.05 88.46 300.05 C 88.46 300.05 88.46 300.05 88.46 300.05 C 88.46 300.05 88.46 300.05 88.46 300.05 C 88.46 300.6 88.46 300.6 88.46 300.6 C 88.46 300.6 88.46 300.6 88.46 300.6 C 88.46 301.71 88.46 301.71 88.46 301.71 C 87.35 301.71 87.35 301.71 87.35 301.71 C 84.58 301.16 84.58 301.16 84.58 301.16 C 84.58 301.16 84.58 301.16 84.58 301.16 C 84.58 301.16 84.58 301.16 84.58 301.16 C 84.58 301.16 84.58 301.16 84.58 301.16 C 84.58 301.16 84.58 301.16 84.58 301.16 C 84.58 301.16 84.03 300.6 84.03 300.05 C 84.03 300.05 84.03 300.05 84.03 300.05 C 84.03 300.05 84.03 300.05 84.03 300.05 C 84.03 300.05 84.03 300.05 84.03 300.05 C 84.03 299.49 84.03 298.94 83.48 298.39 C 83.48 298.39 83.48 298.39 83.48 298.39 C 83.48 299.49 82.92 299.49 82.92 300.05 C 82.92 300.05 82.92 300.05 82.92 300.05 C 79.6 305.59 79.6 305.59 79.6 305.59 C 79.04 298.94 79.04 298.94 79.04 298.94 Z M 86.25 299.49 C 86.25 298.94 86.25 298.39 85.69 297.83 C 85.69 297.83 85.69 297.83 85.69 297.83 C 86.25 298.39 86.25 298.94 86.25 299.49 C 86.25 299.49 86.25 299.49 86.25 299.49 C 86.25 299.49 86.25 299.49 86.25 299.49 Z M 81.26 296.72 C 81.26 297.28 81.26 297.28 81.26 297.28 C 81.26 297.28 81.26 297.28 81.26 297.28 C 81.26 297.83 81.26 297.83 81.26 298.39 C 81.26 298.39 81.26 298.39 81.26 298.39 C 81.26 298.39 81.26 298.39 81.26 298.39 C 81.26 298.39 81.26 298.39 81.26 298.39 C 80.15 298.94 80.15 298.94 80.15 298.94 C 81.26 298.39 81.26 298.39 81.26 298.39 C 81.26 298.39 81.26 298.39 81.26 297.83 C 81.26 297.83 81.26 297.83 81.26 297.83 C 81.26 297.28 81.26 297.28 81.26 297.28 C 81.26 297.28 81.26 297.28 81.26 297.28 C 81.26 297.28 81.26 297.28 81.26 297.28 C 81.26 296.72 81.26 296.72 81.26 296.72 C 81.26 296.72 81.81 296.72 81.81 296.17 C 81.81 296.17 81.81 296.17 81.81 296.17 C 81.26 296.72 81.26 296.72 81.26 296.72 C 80.71 296.17 80.71 296.17 80.71 296.17 C 80.71 296.17 81.26 296.72 81.26 296.72 Z M 82.37 296.17 C 82.92 296.17 82.92 296.17 83.48 296.17 C 83.48 296.17 83.48 296.17 83.48 296.17 C 82.92 296.17 82.92 296.17 82.37 296.17 C 82.37 296.17 82.37 296.17 82.37 296.17 C 82.37 296.17 82.37 296.17 82.37 296.17 C 82.37 296.17 82.37 296.17 82.37 296.17 C 82.37 296.17 82.37 296.17 82.37 296.17 C 82.37 296.17 82.37 296.17 82.37 296.17 C 82.37 296.17 82.37 296.17 82.37 296.17 C 82.37 296.17 82.37 296.17 82.37 296.17 C 82.37 296.17 82.37 296.17 82.37 296.17 C 82.37 296.17 82.37 296.17 82.37 296.17 C 82.37 296.17 82.37 296.17 82.37 296.17 C 82.37 296.17 82.37 296.17 82.37 296.17 Z M 75.17 295.62 C 75.17 295.62 75.17 295.62 75.17 295.62 C 75.17 295.62 75.17 295.62 75.17 295.62 C 75.72 295.06 75.72 295.06 76.28 294.51 C 76.28 294.51 76.28 294.51 76.28 294.51 C 75.72 295.06 75.17 295.62 75.17 295.62 C 75.17 295.62 75.17 295.62 75.17 295.62 Z M 79.6 294.51 C 80.15 295.06 80.15 295.62 80.71 295.62 C 80.71 295.62 80.71 295.62 80.71 295.62 C 80.15 295.62 80.15 295.06 79.6 294.51 C 79.6 294.51 79.6 294.51 79.6 294.51 C 79.04 294.51 79.04 293.95 78.49 293.95 C 78.49 293.95 78.49 293.95 78.49 293.95 C 79.04 293.95 79.04 294.51 79.6 294.51 Z M 77.94 293.95 C 77.94 293.95 77.94 293.95 77.94 293.95 C 77.94 293.95 77.94 293.95 77.94 293.95 C 77.94 293.95 77.94 293.95 77.94 293.95 Z" stroke="none" fill="none" />
</g>
<g id="shape-75" data-name="Freeform 66">
<path d="M 58.55 242.16 C 57.44 241.05 56.89 239.95 56.89 238.84 C 56.89 238.84 56.89 238.84 56.89 238.84 C 56.89 236.07 59.66 235.52 61.87 234.96 C 61.87 234.96 61.87 234.96 61.87 234.96 C 64.09 234.41 66.3 234.41 66.3 234.41 C 66.3 234.41 66.3 234.41 66.3 234.41 C 66.3 234.41 66.3 234.41 66.3 234.41 C 66.3 236.62 66.3 236.62 66.3 236.62 C 66.3 236.62 65.2 236.62 63.53 236.62 C 63.53 236.62 63.53 236.62 63.53 236.62 C 62.43 237.18 60.77 237.73 59.66 238.29 C 59.66 238.29 59.66 238.29 59.66 238.29 C 59.1 238.29 58.55 238.84 59.1 238.84 C 59.1 238.84 59.1 238.84 59.1 238.84 C 58.55 239.39 59.1 239.95 60.21 240.5 C 60.21 240.5 60.21 240.5 60.21 240.5 C 65.75 245.49 76.28 249.36 76.28 249.36 C 76.28 249.36 76.28 249.36 76.28 249.36 C 75.72 251.03 75.72 251.03 75.72 251.03 C 75.72 251.03 65.2 247.7 58.55 242.16 Z" stroke="none" fill="none" />
</g>
<g id="shape-76" data-name="Freeform 67">
<path d="M 75.17 252.13 C 75.17 252.13 75.17 252.13 75.17 252.13 C 75.17 252.13 75.17 252.13 74.61 252.13 C 74.61 252.13 74.61 252.13 74.61 252.13 C 74.61 252.13 74.06 251.58 73.51 251.58 C 73.51 251.58 73.51 251.58 73.51 251.58 C 72.4 251.03 70.74 250.47 69.07 249.92 C 69.07 249.92 69.07 249.92 69.07 249.92 C 65.75 248.26 61.32 246.04 58 243.27 C 58 243.27 58 243.27 58 243.27 C 58.55 242.16 58.55 242.16 58.55 242.16 C 58 243.27 58 243.27 58 243.27 C 56.33 242.16 55.78 240.5 55.78 238.84 C 55.78 238.84 55.78 238.84 55.78 238.84 C 55.78 235.52 59.66 234.41 61.32 233.85 C 61.32 233.85 61.32 233.85 61.32 233.85 C 63.53 233.3 65.75 233.3 65.75 233.3 C 65.75 233.3 65.75 233.3 65.75 233.3 C 67.41 232.75 67.41 232.75 67.41 232.75 C 67.41 234.41 67.41 234.41 67.41 234.41 C 67.41 236.62 67.41 236.62 67.41 236.62 C 67.41 237.18 66.86 237.18 66.86 237.18 C 66.86 237.18 66.86 237.18 66.86 237.18 C 66.86 237.18 66.86 237.18 66.86 237.73 C 66.86 237.73 66.86 237.73 66.86 237.73 C 66.86 237.73 66.3 237.73 66.3 237.73 C 66.3 237.73 66.3 237.73 66.3 237.73 C 66.3 237.73 66.3 237.73 66.3 237.73 C 66.3 237.73 66.3 237.73 66.3 237.73 C 66.3 237.73 66.3 237.73 66.3 237.73 C 66.3 237.73 66.3 237.73 66.3 237.73 C 66.3 237.73 66.3 237.73 66.3 237.73 C 66.3 237.73 66.3 237.73 66.3 237.73 C 66.3 237.73 65.75 237.73 65.75 237.73 C 65.75 237.73 65.75 237.73 65.75 237.73 C 65.2 237.73 64.64 237.73 64.09 237.73 C 64.09 237.73 64.09 237.73 64.09 237.73 C 62.43 238.29 60.77 238.84 60.21 238.84 C 60.21 238.84 60.21 238.84 60.21 238.84 C 60.21 238.84 60.21 238.84 60.21 238.84 C 60.21 238.84 60.21 238.84 60.21 238.84 C 60.21 239.39 60.21 239.39 60.77 239.95 C 60.77 239.95 60.77 239.95 60.77 239.95 C 65.75 243.82 75.17 247.7 76.83 248.26 C 76.83 248.26 76.83 248.26 76.83 248.26 C 77.94 248.26 77.94 248.26 77.94 248.26 C 76.28 252.69 76.28 252.69 76.28 252.69 C 75.17 252.13 75.17 252.13 75.17 252.13 Z M 75.17 249.92 C 74.61 249.92 74.61 249.36 74.06 249.36 C 74.06 249.36 74.06 249.36 74.06 249.36 C 72.95 249.36 71.84 248.26 70.18 247.7 C 70.18 247.7 70.18 247.7 70.18 247.7 C 69.07 247.15 67.97 246.59 66.86 246.04 C 66.86 246.04 66.86 246.04 66.86 246.04 C 70.18 247.7 73.51 249.36 75.17 249.92 Z M 59.1 241.61 C 59.1 241.05 58.55 241.05 58.55 240.5 C 58.55 240.5 58.55 240.5 58.55 240.5 C 58.55 241.05 59.1 241.05 59.1 241.61 Z M 58 239.39 C 58 239.39 58 239.39 58 239.39 C 58 239.39 58 239.39 58 239.39 C 58 239.39 58 239.39 58 239.39 C 58 239.39 58 239.39 58 239.39 C 58 239.39 58 239.39 58 239.39 Z M 58 238.84 C 58 238.84 58 238.84 58 238.84 C 58 238.84 58 238.84 58 238.84 C 58 237.73 58.55 237.73 59.1 237.18 C 59.1 237.18 59.1 237.18 59.1 237.18 C 59.1 237.18 59.66 236.62 60.21 236.62 C 60.21 236.62 60.21 236.62 60.21 236.62 C 58.55 237.18 58 237.73 58 238.84 Z M 61.87 236.07 C 61.87 236.07 61.87 236.07 61.87 236.07 C 61.87 236.07 61.87 236.07 61.87 236.07 C 62.43 236.07 62.98 235.52 63.53 235.52 C 63.53 235.52 63.53 235.52 63.53 235.52 C 64.09 235.52 64.64 235.52 65.2 235.52 C 65.2 235.52 65.2 235.52 65.2 235.52 C 65.2 235.52 65.2 235.52 65.2 235.52 C 64.09 235.52 62.98 235.52 61.87 236.07 Z" stroke="none" fill="none" />
</g>
<g id="shape-77" data-name="Freeform 68">
<path d="M 75.17 241.05 C 74.06 239.95 73.51 238.84 73.51 237.73 C 73.51 237.73 73.51 237.73 73.51 237.73 C 73.51 236.07 75.17 234.96 76.28 234.41 C 76.28 234.41 76.28 234.41 76.28 234.41 C 77.38 234.41 78.49 234.41 79.6 234.41 C 79.6 234.41 79.6 234.41 79.6 234.41 C 80.15 234.41 80.15 234.41 80.71 234.41 C 80.71 234.41 80.71 234.41 80.71 234.41 C 80.15 236.62 80.15 236.62 80.15 236.62 C 80.15 236.62 80.15 236.62 79.6 236.62 C 79.6 236.62 79.6 236.62 79.6 236.62 C 78.49 236.62 77.94 236.62 76.83 236.62 C 76.83 236.62 76.83 236.62 76.83 236.62 C 76.28 237.18 75.72 237.18 75.72 237.73 C 75.72 237.73 75.72 237.73 75.72 237.73 C 75.72 237.73 76.28 238.84 76.83 239.95 C 76.83 239.95 76.83 239.95 76.83 239.95 C 78.49 242.16 80.15 243.82 80.71 244.38 C 80.71 244.38 80.71 244.38 80.71 244.38 C 81.81 244.93 81.81 245.49 81.81 245.49 C 81.81 245.49 81.81 245.49 81.81 245.49 C 81.81 245.49 81.81 245.49 81.81 245.49 C 81.81 245.49 81.81 245.49 81.81 245.49 C 81.81 246.04 81.81 246.04 81.81 246.04 C 81.81 247.7 81.81 247.7 81.81 247.7 C 81.26 247.15 79.6 247.15 75.17 241.05 Z" stroke="none" fill="none" />
</g>
<g id="shape-78" data-name="Freeform 69">
<path d="M 81.26 248.26 C 80.15 248.26 78.49 247.7 74.06 241.61 C 74.06 241.61 74.06 241.61 74.06 241.61 C 75.17 241.05 75.17 241.05 75.17 241.05 C 74.06 241.61 74.06 241.61 74.06 241.61 C 73.51 240.5 72.4 238.84 72.4 237.73 C 72.4 237.73 72.4 237.73 72.4 237.73 C 72.4 237.73 72.4 237.73 72.4 237.73 C 72.4 237.73 72.4 237.73 72.4 237.73 C 72.4 234.96 74.61 233.85 75.72 233.3 C 75.72 233.3 75.72 233.3 75.72 233.3 C 77.38 233.3 78.49 233.3 79.6 233.3 C 79.6 233.3 79.6 233.3 79.6 233.3 C 80.15 233.3 80.15 233.3 80.71 233.3 C 80.71 233.3 80.71 233.3 80.71 233.3 C 80.71 233.3 80.71 233.3 80.71 233.3 C 81.81 233.3 81.81 233.3 81.81 233.3 C 81.26 237.73 81.26 237.73 81.26 237.73 C 80.15 237.73 80.15 237.73 80.15 237.73 C 80.15 237.73 80.15 237.73 79.6 237.73 C 79.6 237.73 79.6 237.73 79.6 237.73 C 79.6 237.73 79.6 237.73 79.6 237.73 C 79.04 237.73 77.94 237.73 77.38 237.73 C 77.38 237.73 77.38 237.73 77.38 237.73 C 77.38 237.73 77.38 237.73 76.83 237.73 C 76.83 237.73 76.83 237.73 76.83 237.73 C 76.83 237.73 76.83 237.73 77.38 237.73 C 77.38 237.73 77.38 237.73 77.38 237.73 C 77.38 238.29 77.38 238.84 77.94 238.84 C 77.94 238.84 77.94 238.84 77.94 238.84 C 79.6 241.61 80.71 242.72 81.81 243.82 C 81.81 243.82 81.81 243.82 81.81 243.82 C 82.37 243.82 82.37 244.38 82.37 244.38 C 82.37 244.38 82.37 244.38 82.37 244.38 C 83.48 244.38 83.48 244.38 83.48 244.38 C 82.92 245.49 82.92 245.49 82.92 245.49 C 82.92 246.04 82.92 246.04 82.92 246.04 C 82.37 248.81 82.37 248.81 82.37 248.81 C 81.26 248.26 81.26 248.26 81.26 248.26 Z M 80.71 245.49 C 80.71 245.49 80.71 245.49 80.71 245.49 C 80.71 245.49 80.15 245.49 80.15 244.93 C 80.15 244.93 80.15 244.93 80.15 244.93 C 80.15 244.93 80.15 244.93 79.6 244.93 C 79.6 244.93 79.6 244.93 79.6 244.93 C 80.15 245.49 80.71 245.49 80.71 245.49 Z M 76.28 240.5 C 75.72 239.95 75.72 239.95 75.72 239.95 C 75.72 239.95 75.72 239.95 75.72 239.95 C 75.72 239.95 75.72 239.95 76.28 240.5 Z M 74.61 237.73 C 74.61 237.73 74.61 237.73 74.61 237.18 C 74.61 237.18 74.61 237.18 74.61 237.18 C 74.61 237.73 74.61 237.73 74.61 237.73 C 74.61 237.73 74.61 237.73 74.61 237.73 C 74.61 237.73 74.61 237.73 74.61 237.73 Z M 74.61 237.18 C 75.17 236.62 75.17 236.07 75.72 236.07 C 75.72 236.07 75.72 236.07 75.72 236.07 C 75.17 236.07 75.17 236.62 74.61 237.18 Z M 76.28 235.52 C 76.28 235.52 76.28 235.52 76.28 235.52 C 76.28 235.52 76.28 235.52 76.28 235.52 C 76.28 235.52 76.28 235.52 76.28 235.52 C 76.28 235.52 76.28 235.52 76.28 235.52 C 76.83 235.52 76.83 235.52 76.83 235.52 C 76.83 235.52 76.83 235.52 76.83 235.52 C 76.83 235.52 76.83 235.52 76.28 235.52 Z" stroke="none" fill="none" />
</g>
<g id="shape-79" data-name="Freeform 70">
<path d="M 97.32 308.36 L 97.32 304.48 L 99.54 304.48 L 99.54 308.36 L 97.32 308.36 L 97.32 308.36 Z" stroke="none" fill="none" />
</g>
<g id="shape-80" data-name="Freeform 71">
<path d="M 99.54 309.46 L 97.32 309.46 L 97.32 308.36 L 98.43 308.36 L 97.32 308.36 L 97.32 309.46 L 96.22 309.46 L 96.22 303.37 L 100.65 303.37 L 100.65 309.46 L 99.54 309.46 L 99.54 309.46 Z M 98.43 307.25 L 98.43 305.59 L 98.43 307.25 L 98.43 307.25 Z" stroke="none" fill="none" />
</g>
<g id="shape-81" data-name="Freeform 72">
<path d="M 80.71 343.12 C 80.71 334.84 81.81 326.01 84.57 319.39 C 84.57 319.39 84.57 319.39 84.57 319.39 C 86.78 312.21 91.76 307.25 98.39 307.25 C 98.39 307.25 98.39 307.25 98.39 307.25 C 111.65 307.25 127.67 320.49 133.19 337.05 C 133.19 337.05 133.19 337.05 133.19 337.05 C 132.09 337.05 132.09 337.05 132.09 337.05 C 130.98 337.6 130.98 337.6 130.98 337.6 C 126.01 322.15 109.99 309.46 98.39 309.46 C 98.39 309.46 98.39 309.46 98.39 309.46 C 92.86 309.46 88.99 313.32 86.23 319.94 C 86.23 319.94 86.23 319.94 86.23 319.94 C 84.02 326.56 82.92 334.84 82.92 343.12 C 82.92 343.12 82.92 343.12 82.92 343.12 C 82.92 351.39 87.34 359.67 93.97 366.29 C 93.97 366.29 93.97 366.29 93.97 366.29 C 100.04 372.91 107.78 377.33 113.3 377.33 C 113.3 377.33 113.3 377.33 113.3 377.33 C 118.28 377.33 122.7 373.47 126.56 367.4 C 126.56 367.4 126.56 367.4 126.56 367.4 C 129.88 361.33 132.09 353.6 132.09 346.43 C 132.09 346.43 132.09 346.43 132.09 346.43 C 132.09 343.12 131.54 340.36 130.98 337.6 C 130.98 337.6 130.98 337.6 130.98 337.6 C 132.09 337.05 132.09 337.05 132.09 337.05 C 133.19 337.05 133.19 337.05 133.19 337.05 C 133.75 339.81 134.3 343.12 134.3 346.43 C 134.3 346.43 134.3 346.43 134.3 346.43 C 134.3 361.88 124.91 378.98 113.3 379.54 C 113.3 379.54 113.3 379.54 113.3 379.54 C 100.04 378.98 80.71 360.77 80.71 343.12 Z" stroke="none" fill="none" />
</g>
<g id="shape-82" data-name="Freeform 73">
<path d="M 79.6 343.12 C 80.7 343.12 80.7 343.12 80.7 343.12 C 79.6 343.12 79.6 343.12 79.6 343.12 C 79.6 334.84 80.7 326.01 83.47 318.83 C 83.47 318.83 83.47 318.83 83.47 318.83 C 86.23 311.66 90.65 306.14 98.39 306.14 C 98.39 306.14 98.39 306.14 98.39 306.14 C 98.39 306.14 98.39 306.14 98.39 306.14 C 98.39 306.14 98.39 306.14 98.39 306.14 C 98.39 306.14 98.39 306.14 98.39 306.14 C 112.2 306.14 128.22 319.39 133.75 335.39 C 133.75 335.39 133.75 335.39 133.75 335.39 C 133.75 335.39 133.75 335.39 133.75 335.39 C 133.75 336.49 133.75 336.49 133.75 336.49 C 133.75 336.49 133.75 336.49 134.3 336.49 C 134.3 336.49 134.3 336.49 134.3 336.49 C 134.3 337.6 134.3 337.6 134.3 337.6 C 134.3 337.6 134.3 337.6 134.3 337.6 C 134.85 340.36 135.41 343.12 135.41 346.43 C 135.41 346.43 135.41 346.43 135.41 346.43 C 135.41 362.43 126.57 380.09 113.3 380.64 C 113.3 380.64 113.3 380.64 113.3 380.64 C 99.49 380.09 80.15 361.88 79.6 343.12 Z M 113.3 378.44 C 121.04 378.44 127.67 370.16 130.99 359.67 C 130.99 359.67 130.99 359.67 130.99 359.67 C 129.88 362.98 128.78 365.74 127.12 367.95 C 127.12 367.95 127.12 367.95 127.12 367.95 C 123.8 374.02 118.83 378.44 113.86 378.44 C 113.86 378.44 113.86 378.44 113.86 378.44 C 113.86 378.44 113.86 378.44 113.3 378.44 C 113.3 378.44 113.3 378.44 113.3 378.44 C 113.3 378.44 113.3 378.44 113.3 378.44 C 113.3 378.44 113.3 378.44 113.3 378.44 C 113.3 378.44 113.3 378.44 113.3 378.44 C 113.3 378.44 113.3 378.44 113.3 378.44 C 113.3 378.44 113.3 378.44 113.3 378.44 C 107.23 378.44 99.49 373.47 92.86 366.85 C 92.86 366.85 92.86 366.85 92.86 366.85 C 90.65 364.64 88.99 362.43 87.33 359.67 C 87.33 359.67 87.33 359.67 87.33 359.67 C 93.97 370.16 105.02 378.44 113.3 378.44 Z M 113.3 376.23 C 113.3 376.23 113.3 376.23 113.3 376.23 C 113.3 376.23 113.3 376.23 113.3 376.23 C 113.3 376.23 113.3 376.23 113.86 376.23 C 113.86 376.23 113.86 376.23 113.86 376.23 C 117.73 376.23 122.15 372.37 125.46 366.85 C 125.46 366.85 125.46 366.85 125.46 366.85 C 128.78 361.33 130.99 353.6 130.99 346.43 C 130.99 346.43 130.99 346.43 130.99 346.43 C 130.99 346.43 130.99 346.43 130.99 346.43 C 130.99 346.43 130.99 346.43 130.99 346.43 C 130.99 343.12 130.43 340.36 129.88 338.15 C 129.88 338.15 129.88 338.15 129.88 338.15 C 129.88 337.6 129.88 337.6 129.88 337.6 C 124.91 322.7 109.44 310.56 98.39 310.56 C 98.39 310.56 98.39 310.56 98.39 310.56 C 98.39 310.56 98.39 310.56 98.39 310.56 C 98.39 310.56 98.39 310.56 98.39 310.56 C 93.41 310.56 90.1 313.87 87.33 320.49 C 87.33 320.49 87.33 320.49 87.33 320.49 C 85.12 326.56 84.02 334.84 84.02 343.12 C 84.02 343.12 84.02 343.12 84.02 343.12 C 84.02 343.12 84.02 343.12 84.02 343.12 C 84.02 343.67 84.02 343.67 84.02 343.67 C 84.02 350.84 88.44 359.12 94.52 365.74 C 94.52 365.74 94.52 365.74 94.52 365.74 C 100.6 371.81 108.33 376.23 113.3 376.23 C 113.3 376.23 113.3 376.23 113.3 376.23 C 113.3 376.23 113.3 376.23 113.3 376.23 Z M 130.99 359.67 C 130.99 359.67 130.99 359.67 130.99 359.67 C 130.99 359.67 130.99 359.67 130.99 359.67 C 130.99 359.67 130.99 359.67 130.99 359.67 Z M 130.99 359.12 C 130.99 359.12 130.99 359.12 130.99 359.12 C 130.99 359.12 130.99 359.12 130.99 359.12 C 130.99 359.12 130.99 359.12 130.99 359.12 Z M 133.2 345.88 C 133.2 343.12 132.64 340.91 132.09 338.15 C 132.09 338.15 132.09 338.15 132.09 338.15 C 132.09 338.15 132.09 338.15 132.09 338.15 C 132.64 340.91 133.2 343.12 133.2 345.88 Z M 130.43 333.73 C 127.12 326.01 121.59 319.39 115.51 314.97 C 115.51 314.97 115.51 314.97 115.51 314.97 C 121.59 319.39 127.12 326.01 130.43 333.73 Z M 82.91 328.77 C 82.91 328.77 82.91 328.77 82.91 328.77 C 82.91 328.77 82.91 328.77 82.91 328.77 C 82.91 328.77 82.91 328.77 82.91 328.77 Z M 85.12 319.39 C 84.57 322.15 83.47 325.46 82.91 328.22 C 82.91 328.22 82.91 328.22 82.91 328.22 C 83.47 325.46 84.57 322.15 85.12 319.39 C 85.12 319.39 85.12 319.39 85.12 319.39 C 87.89 312.76 92.31 308.35 98.39 308.35 C 98.39 308.35 98.39 308.35 98.39 308.35 C 98.39 308.35 98.39 308.35 98.39 308.35 C 98.39 308.35 98.39 308.35 98.39 308.35 C 92.31 308.35 87.89 312.76 85.12 319.39 Z M 115.51 314.97 C 115.51 314.97 115.51 314.97 115.51 314.42 C 115.51 314.42 115.51 314.42 115.51 314.42 C 115.51 314.97 115.51 314.97 115.51 314.97 Z M 115.51 314.42 C 114.96 314.42 114.96 314.42 114.96 314.42 C 114.96 314.42 114.96 314.42 114.96 314.42 C 114.96 314.42 114.96 314.42 115.51 314.42 Z M 114.96 314.42 C 114.96 314.42 114.96 314.42 114.96 314.42 C 114.96 314.42 114.96 314.42 114.96 314.42 C 114.96 314.42 114.96 314.42 114.96 314.42 Z M 114.96 314.42 C 114.96 314.42 114.96 314.42 114.96 314.42 C 114.96 314.42 114.96 314.42 114.96 314.42 C 114.96 314.42 114.96 314.42 114.96 314.42 Z" stroke="none" fill="none" />
</g>
<g id="shape-83" data-name="Freeform 74">
<path d="M 88.46 312.79 L 90.68 311.68 L 92.89 316.11 L 98.43 306.14 L 103.42 313.34 L 103.97 309.46 L 106.19 310.02 L 104.53 318.74 L 98.43 310.57 L 92.89 320.96 L 88.46 312.79 L 88.46 312.79 Z" stroke="none" fill="none" />
</g>
<g id="shape-84" data-name="Freeform 75">
<path d="M 87.35 313.34 L 88.46 312.79 L 89.02 313.9 L 88.46 312.79 L 87.35 313.34 L 87.35 312.79 L 91.23 310.57 L 92.89 313.9 L 98.43 303.93 L 102.86 310.57 L 103.42 307.8 L 107.85 308.91 L 105.08 321.51 L 98.43 312.79 L 92.89 323.17 L 87.35 313.34 L 87.35 313.34 Z M 92.89 318.33 L 98.43 308.36 L 103.97 316.11 L 105.08 310.57 L 103.97 316.11 L 98.43 308.36 L 92.89 318.33 L 92.89 318.33 Z" stroke="none" fill="none" />
</g>
<g id="shape-85" data-name="Freeform 76">
<path d="M 105.08 307.25 L 174.18 283.01 L 174.74 285.23 L 105.63 309.46 L 105.08 307.25 L 105.08 307.25 Z" stroke="none" fill="none" />
</g>
<g id="shape-86" data-name="Freeform 77">
<path d="M 104.53 310.02 L 103.97 307.8 L 105.08 307.25 L 105.08 308.36 L 105.08 307.25 L 103.97 307.8 L 103.42 306.69 L 174.74 281.35 L 176.4 285.78 L 105.08 310.57 L 104.53 310.02 L 104.53 310.02 Z M 106.19 307.8 L 173.63 284.12 L 173.63 284.12 L 106.19 307.8 L 106.19 307.8 L 106.19 307.8 Z" stroke="none" fill="none" />
</g>
<g id="shape-87" data-name="Freeform 78">
<path d="M 33.62 355.16 L 85.14 317.77 L 86.25 319.3 L 35.28 357.38 L 33.62 355.16 L 33.62 355.16 Z" stroke="none" fill="none" />
</g>
<g id="shape-88" data-name="Freeform 79">
<path d="M 33.07 355.72 L 33.62 355.16 L 34.18 356.27 L 33.62 355.16 L 33.07 355.72 L 31.96 355.16 L 85.14 316.11 L 87.91 319.3 L 34.73 358.49 L 33.07 355.72 L 33.07 355.72 Z M 35.28 355.72 L 85.14 319.3 L 35.28 355.72 L 35.28 355.72 L 35.28 355.72 Z" stroke="none" fill="none" />
</g>
<g id="shape-89" data-name="Freeform 80">
<path d="M 43.04 350.81 C 43.04 350.27 43.04 349.73 43.04 349.19 C 43.04 349.19 43.04 349.19 43.04 349.19 C 43.04 349.19 43.04 349.19 43.04 349.19 C 43.04 349.19 43.04 349.19 43.04 349.19 C 43.04 348.64 43.04 348.64 43.59 348.1 C 43.59 348.1 43.59 348.1 43.59 348.1 C 43.59 348.1 44.15 348.1 44.15 348.1 C 44.15 348.1 44.15 348.1 44.15 348.1 C 45.26 348.1 45.26 348.64 45.26 348.64 C 45.26 348.64 45.26 348.64 45.26 348.64 C 45.26 349.19 45.26 349.19 45.26 349.19 C 45.26 349.19 45.26 349.19 45.26 349.19 C 45.26 349.73 45.26 350.27 45.26 350.81 C 45.26 350.81 45.26 350.81 45.26 350.81 C 45.26 351.9 45.26 352.44 45.81 352.98 C 45.81 352.98 45.81 352.98 45.81 352.98 C 44.15 354.61 44.15 354.61 44.15 354.61 C 43.04 353.52 43.04 351.9 43.04 350.81 Z M 45.26 349.73 C 44.15 349.19 44.15 349.19 44.15 349.19 C 45.26 349.73 45.26 349.73 45.26 349.73 Z M 44.15 349.19 C 44.15 349.19 44.15 349.19 44.15 349.19 C 44.15 349.19 44.15 349.19 44.15 349.19 C 44.15 349.19 44.15 349.19 44.15 349.19 Z" stroke="none" fill="none" />
</g>
<g id="shape-90" data-name="Freeform 81">
<path d="M 43.59 355.18 C 41.93 354.09 41.93 351.9 41.93 350.81 C 41.93 350.81 41.93 350.81 41.93 350.81 C 43.04 350.81 43.04 350.81 43.04 350.81 C 41.93 350.81 41.93 350.81 41.93 350.81 C 41.93 350.27 41.93 349.72 41.93 349.18 C 41.93 349.18 41.93 349.18 41.93 349.18 C 41.93 349.18 41.93 349.18 41.93 349.18 C 41.93 349.18 41.93 349.18 41.93 349.18 C 41.93 348.08 42.49 348.08 42.49 347.54 C 42.49 347.54 42.49 347.54 42.49 347.54 C 43.04 346.99 43.59 346.99 44.15 346.99 C 44.15 346.99 44.15 346.99 44.15 346.99 C 45.81 346.99 46.36 348.08 46.36 348.63 C 46.36 348.63 46.36 348.63 46.36 348.63 C 46.36 348.63 46.36 349.18 46.36 349.18 C 46.36 349.18 46.36 349.18 46.36 349.18 C 46.36 349.18 46.36 349.18 46.36 349.18 C 46.36 349.18 46.36 349.18 46.36 349.18 C 46.36 349.72 46.36 350.27 46.36 351.36 C 46.36 351.36 46.36 351.36 46.36 351.36 C 46.36 351.36 46.36 351.36 46.36 351.36 C 46.36 351.36 46.36 351.9 46.36 351.9 C 46.36 351.9 46.36 351.9 46.36 351.9 C 46.36 351.9 46.36 351.9 46.36 351.9 C 47.47 353 47.47 353 47.47 353 C 44.15 356.27 44.15 356.27 44.15 356.27 C 43.59 355.18 43.59 355.18 43.59 355.18 Z M 44.15 351.9 C 44.15 351.9 44.15 351.36 44.15 351.36 C 44.15 351.36 44.15 351.36 44.15 351.36 C 44.15 351.36 44.15 351.9 44.15 351.9 Z M 44.15 350.81 C 44.15 350.81 44.15 350.81 44.15 350.27 C 44.15 350.27 44.15 350.27 44.15 350.27 C 44.15 350.27 44.15 350.27 44.15 350.27 C 44.15 350.81 44.15 350.81 44.15 350.81 Z M 45.26 349.72 C 45.81 349.18 45.81 349.18 45.81 349.18 C 45.26 349.72 45.26 349.72 45.26 349.72 Z M 45.26 349.72 C 45.81 349.18 45.81 349.18 45.81 349.18 C 45.26 349.72 45.26 349.72 45.26 349.72 Z" stroke="none" fill="none" />
</g>
<g id="shape-91" data-name="Freeform 82">
<path d="M 99.54 349.76 L 100.65 349.21 L 101.76 349.21 L 100.65 349.21 L 99.54 349.76 L 99.54 349.76 L 96.22 310.02 L 98.43 310.02 L 110.62 349.21 L 110.62 361.81 L 99.54 349.76 L 99.54 349.76 Z M 108.4 355.72 L 108.4 349.21 L 99.54 320.4 L 101.76 348.65 L 108.4 355.72 L 108.4 355.72 Z" stroke="none" fill="none" />
</g>
<g id="shape-92" data-name="Freeform 83">
<path d="M 98.99 350.73 L 98.43 350.32 L 98.43 350.32 L 98.43 349.76 L 98.43 349.76 L 95.11 309.46 L 98.99 308.36 L 111.73 348.65 L 111.73 364.58 L 98.99 350.73 L 98.99 350.73 Z M 109.51 358.49 L 109.51 349.21 L 109.51 355.72 L 109.51 358.49 L 101.76 350.32 L 101.76 350.32 L 109.51 358.49 L 109.51 358.49 Z M 108.4 355.72 L 108.96 355.16 L 108.4 355.72 L 108.4 355.72 Z M 102.86 348.1 L 107.3 352.95 L 107.3 349.21 L 101.2 330.38 L 102.86 348.1 L 102.86 348.1 Z M 100.65 348.1 L 100.65 346.44 L 100.65 348.1 L 100.65 348.1 Z M 97.32 311.13 L 98.43 320.4 L 100.65 319.85 L 97.88 311.13 L 97.32 311.13 L 97.32 311.13 Z" stroke="none" fill="none" />
</g>
<g id="shape-93" data-name="Freeform 84">
<path d="M 97.32 459.45 C 106.19 457.25 106.19 457.25 106.19 457.25 C 106.19 453.94 105.63 442.36 102.31 431.34 C 102.31 431.34 102.31 431.34 102.31 431.34 C 98.99 419.21 98.99 387.8 98.99 380.08 C 98.99 380.08 98.99 380.08 98.99 380.08 C 98.99 378.98 98.99 378.43 98.99 378.43 C 98.99 378.43 98.99 378.43 98.99 378.43 C 98.99 378.43 98.99 378.43 98.99 378.43 C 101.2 378.43 101.2 378.43 101.2 378.43 C 101.2 378.43 101.2 378.98 101.2 380.08 C 101.2 380.08 101.2 380.08 101.2 380.08 C 101.2 387.8 101.2 419.21 104.53 430.24 C 104.53 430.24 104.53 430.24 104.53 430.24 C 108.4 444.02 108.4 457.8 108.4 458.35 C 108.4 458.35 108.4 458.35 108.4 458.35 C 108.96 458.9 108.96 458.9 108.96 458.9 C 97.88 461.66 97.88 461.66 97.88 461.66 C 97.32 459.45 97.32 459.45 97.32 459.45 Z" stroke="none" fill="none" />
</g>
<g id="shape-94" data-name="Freeform 85">
<path d="M 96.77 461.66 C 96.22 459.46 96.22 459.46 96.22 459.46 C 97.32 459.46 97.32 459.46 97.32 459.46 C 97.32 460.56 97.32 460.56 97.32 460.56 C 97.32 459.46 97.32 459.46 97.32 459.46 C 96.22 459.46 96.22 459.46 96.22 459.46 C 95.66 458.35 95.66 458.35 95.66 458.35 C 105.08 456.15 105.08 456.15 105.08 456.15 C 105.08 452.29 103.97 441.26 101.2 431.34 C 101.2 431.34 101.2 431.34 101.2 431.34 C 97.88 419.21 97.88 387.79 97.88 380.08 C 97.88 380.08 97.88 380.08 97.88 380.08 C 97.88 380.08 97.88 379.53 97.88 379.53 C 97.88 379.53 97.88 379.53 97.88 379.53 C 97.88 378.42 97.88 378.42 97.88 378.42 C 97.88 378.42 97.88 378.42 97.88 378.42 C 97.88 378.42 97.88 378.42 97.88 377.87 C 97.88 377.87 97.88 377.87 97.88 377.87 C 97.88 377.32 98.43 377.32 98.99 377.32 C 98.99 377.32 98.99 377.32 98.99 377.32 C 98.99 377.32 98.99 377.32 98.99 377.32 C 98.99 377.32 98.99 377.32 98.99 377.32 C 102.31 377.32 102.31 377.32 102.31 377.32 C 102.31 378.42 102.31 378.42 102.31 378.42 C 102.31 378.42 102.31 378.97 102.31 380.08 C 102.31 380.08 102.31 380.08 102.31 380.08 C 102.31 380.08 102.31 380.63 102.31 380.63 C 102.31 380.63 102.31 380.63 102.31 380.63 C 102.31 388.9 102.31 419.77 105.63 430.24 C 105.63 430.24 105.63 430.24 105.63 430.24 C 109.51 444.02 109.51 457.8 109.51 457.8 C 109.51 457.8 109.51 457.8 109.51 457.8 C 110.06 460.01 110.06 460.01 110.06 460.01 C 96.77 462.76 96.77 462.76 96.77 462.76 C 96.77 461.66 96.77 461.66 96.77 461.66 Z M 98.43 460.01 C 107.3 458.35 107.3 458.35 107.3 458.35 C 107.3 458.35 107.3 458.35 107.3 458.35 C 107.3 458.35 107.3 458.35 107.3 458.35 C 98.43 460.01 98.43 460.01 98.43 460.01 C 98.43 460.01 98.43 460.01 98.43 460.01 Z M 107.3 457.25 C 107.3 457.8 107.3 457.8 107.3 457.8 C 107.3 456.15 107.3 447.88 105.08 437.96 C 105.08 437.96 105.08 437.96 105.08 437.96 C 106.74 446.78 107.3 454.49 107.3 457.25 Z M 105.08 437.96 C 105.08 437.96 105.08 437.96 105.08 437.96 C 105.08 437.96 105.08 437.96 105.08 437.96 C 105.08 437.96 105.08 437.96 105.08 437.96 Z M 100.09 379.53 C 100.09 379.53 100.09 379.53 100.09 380.08 C 100.09 380.08 100.09 380.08 100.09 380.08 C 100.09 379.53 100.09 379.53 100.09 379.53 C 100.09 379.53 100.09 379.53 100.09 379.53 C 100.09 379.53 100.09 379.53 100.09 379.53 C 100.09 379.53 100.09 379.53 100.09 379.53 Z" stroke="none" fill="none" />
</g>
<g id="shape-95" data-name="Freeform 86">
<path d="M 173.63 374.55 C 173.63 374.55 171.97 371.78 169.2 368.46 C 169.2 368.46 169.2 368.46 169.2 368.46 C 166.43 365.13 162.55 360.7 157.56 357.38 C 157.56 357.38 157.56 357.38 157.56 357.38 C 156.46 356.27 154.79 355.72 152.58 355.72 C 152.58 355.72 152.58 355.72 152.58 355.72 C 147.59 355.72 140.95 358.49 135.96 361.81 C 135.96 361.81 135.96 361.81 135.96 361.81 C 130.42 364.58 126.54 367.35 126.54 367.35 C 126.54 367.35 126.54 367.35 126.54 367.35 C 125.44 365.69 125.44 365.69 125.44 365.69 C 125.44 365.69 140.95 353.5 152.58 353.5 C 152.58 353.5 152.58 353.5 152.58 353.5 C 154.79 353.5 157.01 354.06 158.67 355.16 C 158.67 355.16 158.67 355.16 158.67 355.16 C 167.53 361.26 173.07 370.12 174.74 372.89 C 174.74 372.89 174.74 372.89 174.74 372.89 C 185.81 367.35 185.81 367.35 185.81 367.35 C 186.92 369.57 186.92 369.57 186.92 369.57 C 174.18 375.66 174.18 375.66 174.18 375.66 C 173.63 374.55 173.63 374.55 173.63 374.55 Z" stroke="none" fill="none" />
</g>
<g id="shape-96" data-name="Freeform 87">
<path d="M 173.07 376.21 C 172.52 375.1 172.52 375.1 172.52 375.1 C 172.52 375.1 172.52 375.1 172.52 375.1 C 172.52 375.1 172.52 375.1 172.52 375.1 C 172.52 375.1 172.52 375.1 172.52 375.1 C 172.52 375.1 172.52 375.1 172.52 375.1 C 172.52 375.1 172.52 375.1 172.52 374.55 C 172.52 374.55 172.52 374.55 172.52 374.55 C 171.97 374.55 171.97 374 171.41 373.44 C 171.41 373.44 171.41 373.44 171.41 373.44 C 170.86 372.33 169.75 370.67 168.09 369.01 C 168.09 369.01 168.09 369.01 168.09 369.01 C 165.87 365.69 161.44 361.26 157.01 357.93 C 157.01 357.93 157.01 357.93 157.01 357.93 C 155.9 357.38 154.24 356.82 152.58 356.82 C 152.58 356.82 152.58 356.82 152.58 356.82 C 152.58 356.82 152.58 356.82 152.58 356.82 C 147.59 356.82 141.5 359.59 136.51 362.36 C 136.51 362.36 136.51 362.36 136.51 362.36 C 131.53 365.69 127.65 368.46 127.65 368.46 C 127.65 368.46 127.65 368.46 127.65 368.46 C 127.65 368.46 127.65 368.46 127.1 368.46 C 127.1 368.46 127.1 368.46 127.1 368.46 C 126.54 369.01 126.54 369.01 126.54 369.01 C 123.22 365.13 123.22 365.13 123.22 365.13 C 124.88 364.58 124.88 364.58 124.88 364.58 C 124.88 364.58 125.44 364.58 125.44 364.58 C 125.44 364.58 125.44 364.58 125.44 364.58 C 125.99 364.03 126.54 363.47 127.65 362.92 C 127.65 362.92 127.65 362.92 127.65 362.92 C 129.31 361.81 131.53 360.15 134.3 358.49 C 134.3 358.49 134.3 358.49 134.3 358.49 C 139.84 355.72 146.49 352.39 152.58 352.39 C 152.58 352.39 152.58 352.39 152.58 352.39 C 154.79 352.39 157.56 352.95 159.78 354.61 C 159.78 354.61 159.78 354.61 159.78 354.61 C 167.53 360.15 173.07 367.9 175.29 371.23 C 175.29 371.23 175.29 371.23 175.29 371.23 C 186.37 366.24 186.37 366.24 186.37 366.24 C 188.58 370.12 188.58 370.12 188.58 370.12 C 173.63 376.77 173.63 376.77 173.63 376.77 C 173.07 376.21 173.07 376.21 173.07 376.21 Z M 173.63 374.55 C 172.52 375.1 172.52 375.1 172.52 375.1 C 173.63 374.55 173.63 374.55 173.63 374.55 C 173.63 374.55 173.63 374.55 173.63 374.55 C 173.63 374.55 173.63 374.55 173.63 374.55 Z M 173.63 374.55 C 174.18 373.44 174.18 373.44 174.18 373.44 C 173.63 374.55 173.63 374.55 173.63 374.55 Z M 174.74 374 C 185.26 369.01 185.26 369.01 185.26 369.01 C 174.74 374 174.74 374 174.74 374 C 174.18 373.44 174.18 373.44 174.18 373.44 C 173.07 371.78 170.86 368.46 168.09 365.13 C 168.09 365.13 168.09 365.13 168.09 365.13 C 168.64 366.24 169.2 366.8 170.3 367.9 C 170.3 367.9 170.3 367.9 170.3 367.9 C 172.52 370.67 174.18 372.89 174.18 374 C 174.18 374 174.18 374 174.18 374 C 174.18 374 174.18 374 174.18 374 C 174.74 374 174.74 374 174.74 374 C 174.74 374 174.74 374 174.74 374 C 174.74 374 174.74 374 174.74 374 C 174.74 374 174.74 374 174.74 374 C 174.74 374 174.74 374 174.74 374 Z M 127.1 366.24 C 127.1 366.24 127.1 366.24 127.1 366.24 C 127.1 366.24 127.1 366.24 127.1 366.24 C 127.1 366.24 127.1 366.24 127.1 366.24 C 127.1 366.24 127.1 366.24 127.1 366.24 Z M 127.65 365.13 C 128.21 365.13 128.21 365.13 128.76 364.58 C 128.76 364.58 128.76 364.58 128.76 364.58 C 129.87 364.03 131.53 362.92 133.74 361.81 C 133.74 361.81 133.74 361.81 133.74 361.81 C 131.53 362.92 129.31 364.58 127.65 365.13 Z M 168.09 365.13 C 168.09 365.13 168.09 365.13 167.53 365.13 C 167.53 365.13 167.53 365.13 167.53 365.13 C 168.09 365.13 168.09 365.13 168.09 365.13 Z M 167.53 364.58 C 167.53 364.58 167.53 364.58 167.53 364.58 C 167.53 364.58 167.53 364.58 167.53 364.58 C 167.53 364.58 167.53 364.58 167.53 364.58 Z M 155.9 355.16 C 154.79 354.61 153.69 354.61 152.58 354.61 C 152.58 354.61 152.58 354.61 152.58 354.61 C 152.58 354.61 152.58 354.61 152.58 354.61 C 152.58 354.61 152.58 354.61 152.58 354.61 C 153.69 354.61 154.79 354.61 155.9 355.16 Z M 152.58 354.61 C 152.58 354.61 152.58 354.61 152.58 354.61 C 152.58 354.61 152.58 354.61 152.58 354.61 C 152.58 354.61 152.58 354.61 152.58 354.61 Z" stroke="none" fill="none" />
</g>
<g id="shape-97" data-name="Freeform 88">
<path d="M 170.86 285.78 L 175.29 276.37 L 177.51 277.48 L 174.74 283.57 L 184.71 283.57 L 184.71 285.78 L 170.86 285.78 L 170.86 285.78 Z" stroke="none" fill="none" />
</g>
<g id="shape-98" data-name="Freeform 89">
<path d="M 170.86 286.75 L 170.86 285.78 L 171.97 286.2 L 170.86 285.78 L 170.86 286.75 L 169.2 286.75 L 174.74 274.71 L 178.61 276.92 L 176.4 282.46 L 185.81 282.46 L 185.81 286.75 L 170.86 286.75 L 170.86 286.75 Z" stroke="none" fill="none" />
</g>
<g id="shape-99" data-name="Freeform 90">
<path d="M 172.52 283.57 L 180.83 279.69 L 181.38 281.91 L 173.07 285.78 L 172.52 283.57 L 172.52 283.57 Z" stroke="none" fill="none" />
</g>
<g id="shape-100" data-name="Freeform 91">
<path d="M 171.41 284.12 L 172.52 283.57 L 173.07 284.68 L 172.52 283.57 L 171.41 284.12 L 170.86 283.01 L 181.38 278.03 L 183.04 282.46 L 173.07 286.75 L 171.41 284.12 L 171.41 284.12 Z" stroke="none" fill="none" />
</g>
</g></svg>