<svg version="1.1" width="24" height="24" viewBox="0 0 48 48" xmlns="http://www.w3.org/2000/svg" xmlns:xlink="http://www.w3.org/1999/xlink" fill="none" overflow="hidden"><style>
.MsftOfcThm_Accent2_Stroke_v2 {
 stroke:#286552; 
}
</style>
<path d=" M 20 33 L 26 35 C 26 35 41 32 43 32 C 45 32 45 34 43 36 C 41 38 34 44 28 44 C 22 44 18 41 14 41 C 10 41 4 41 4 41" class="MsftOfcThm_Accent2_Stroke_v2" stroke="#286552" stroke-width="1.30614" stroke-linecap="round" stroke-linejoin="round"/><path d=" M 4 29 C 6 27 10 24 14 24 C 18 24 27.5 28 29 30 C 30.5 32 26 35 26 35" class="MsftOfcThm_Accent2_Stroke_v2" stroke="#286552" stroke-width="1.30614" stroke-linecap="round" stroke-linejoin="round"/><path d=" M 16 18 L 16 10 C 16 8.89543 16.8954 8 18 8 L 42 8 C 43.1046 8 44 8.89543 44 10 L 44 26" class="MsftOfcThm_Accent2_Stroke_v2" stroke="#286552" stroke-width="1.30614" stroke-linecap="round" stroke-linejoin="round"/><rect x="25" y="8" width="10" height="9" class="MsftOfcThm_Accent2_Stroke_v2" stroke="#286552" stroke-width="1.30614" stroke-linecap="round" stroke-linejoin="round"/></svg>