<?xml version="1.0" encoding="UTF-8" standalone="yes"?><svg xmlns="http://www.w3.org/2000/svg" xmlns:xlink="http://www.w3.org/1999/xlink" version="1.2" baseProfile="tiny" x="0" y="0" width="200" height="200" viewBox="0 0 1024 1024"><defs/><path fill="#ffffff" stroke-width="0.484855" d="M 636.907 618.027 C 627.52 588.907 608.96 555.84 572.48 538.027 C 525.44 515.093 543.573 532.587 485.867 509.227 C 428.16 485.76 414.507 478.187 414.507 478.187 L 414.187 444.693 C 426.88 444.587 440.747 444.907 455.253 445.973 C 440.64 443.307 426.667 440.213 414.187 440.533 L 414.08 424.533 C 414.08 424.533 435.733 408.427 442.453 357.76 C 455.893 361.6 460.48 342.293 461.227 329.92 C 462.08 317.973 469.227 280.853 452.693 284.16 C 456.107 259.307 458.667 236.907 457.493 225.067 C 453.333 183.36 423.893 139.84 349.653 136.747 C 286.507 139.947 245.547 183.467 241.387 225.173 C 240.213 237.013 242.667 259.413 245.973 284.267 C 229.44 280.96 236.587 318.08 237.333 330.027 C 238.08 342.4 242.56 361.707 256.107 357.867 C 262.827 408.64 284.48 424.853 284.48 424.853 L 283.947 478.827 C 283.947 478.827 270.293 487.04 212.587 510.4 C 154.88 533.867 163.733 501.973 125.973 538.133 C 60.5867 600.96 72.64 673.92 72.64 673.92 L 51.52 673.92 C 51.52 673.92 72.4267 673.92 72.4267 674.027 C 72.4267 689.067 64 764.053 79.4667 764.053 L 597.973 764.053 C 596.16 753.92 595.093 743.467 595.093 732.693 C 595.093 699.84 604.053 669.227 619.52 642.88 L 666.56 639.467 C 666.667 639.147 666.773 638.933 666.88 638.613 L 622.08 638.613 C 626.453 631.36 631.467 624.533 636.907 618.027 M 814.507 533.973 C 823.68 533.973 832.533 534.933 841.28 536.427 C 835.2 512.213 821.013 481.067 788.587 465.387 C 752.213 447.787 766.293 461.227 721.6 443.307 C 677.013 425.387 666.453 419.52 666.453 419.52 L 666.027 378.347 C 666.027 378.347 682.773 366.08 687.893 327.147 C 698.347 330.133 701.867 315.307 702.4 305.813 C 703.04 296.64 708.587 268.16 695.787 270.72 C 698.347 251.733 700.48 234.453 699.52 225.387 C 696.32 193.387 673.6 160.107 616.213 157.653 C 567.467 160.107 535.787 193.493 532.587 225.387 C 531.627 234.453 533.547 251.627 536.107 270.72 C 523.307 268.16 528.853 296.64 529.387 305.813 C 530.027 315.307 533.44 330.133 543.893 327.147 C 549.12 366.08 565.76 378.453 565.76 378.453 L 565.333 419.84 C 565.333 419.84 554.773 426.133 510.187 444.053 C 500.693 447.893 490.773 448.853 480.96 448.64 C 564.16 459.84 657.707 499.413 675.947 617.173 C 702.4 567.68 754.453 533.973 814.507 533.973 M 957.547 729.28 C 949.973 729.28 943.787 735.467 943.787 743.04 C 943.787 808.64 890.56 861.973 824.853 861.973 C 784.747 861.973 749.333 842.133 727.893 811.627 L 751.68 811.627 C 759.253 811.627 765.44 805.44 765.44 797.867 C 765.44 790.293 759.253 784.107 751.68 784.107 L 692.267 784.107 C 684.693 784.107 678.507 790.293 678.507 797.867 L 678.507 852.693 C 678.507 860.267 684.693 866.453 692.267 866.453 C 699.84 866.453 706.027 860.267 706.027 852.693 L 706.027 827.733 C 732.48 864.96 775.787 889.28 824.96 889.28 C 905.813 889.28 971.307 823.787 971.307 742.933 C 971.2 735.467 965.12 729.28 957.547 729.28 M 957.547 619.52 C 949.973 619.52 943.787 625.707 943.787 633.28 L 943.787 658.027 C 917.227 620.907 874.027 596.693 824.853 596.693 C 744 596.693 678.507 662.187 678.507 743.04 C 678.507 750.613 684.693 756.8 692.267 756.8 C 699.84 756.8 706.027 750.613 706.027 743.04 C 706.027 677.44 759.253 624.107 824.96 624.107 C 865.067 624.107 900.267 644.053 921.707 674.453 L 898.133 674.453 C 890.56 674.453 884.373 680.64 884.373 688.213 C 884.373 695.787 890.56 701.973 898.133 701.973 L 957.547 701.973 C 965.12 701.973 971.307 695.787 971.307 688.213 L 971.307 633.387 C 971.2 625.707 965.12 619.52 957.547 619.52"/></svg>
