<svg version="1.1" width="512" height="512" viewBox="0 0 512 512" xmlns="http://www.w3.org/2000/svg" xmlns:xlink="http://www.w3.org/1999/xlink" id="Line" overflow="hidden"><style>
.MsftOfcThm_Accent1_Fill_v2 {
 fill:#00329D; 
}
</style>
<g><path d=" M 184 384 L 200 384 L 200 400 L 184 400 Z" class="MsftOfcThm_Accent1_Fill_v2" fill="#00329D"/><path d=" M 152 384 L 168 384 L 168 400 L 152 400 Z" class="MsftOfcThm_Accent1_Fill_v2" fill="#00329D"/><path d=" M 184 416 L 200 416 L 200 432 L 184 432 Z" class="MsftOfcThm_Accent1_Fill_v2" fill="#00329D"/><path d=" M 152 416 L 168 416 L 168 432 L 152 432 Z" class="MsftOfcThm_Accent1_Fill_v2" fill="#00329D"/><path d=" M 344 384 L 360 384 L 360 400 L 344 400 Z" class="MsftOfcThm_Accent1_Fill_v2" fill="#00329D"/><path d=" M 312 384 L 328 384 L 328 400 L 312 400 Z" class="MsftOfcThm_Accent1_Fill_v2" fill="#00329D"/><path d=" M 344 416 L 360 416 L 360 432 L 344 432 Z" class="MsftOfcThm_Accent1_Fill_v2" fill="#00329D"/><path d=" M 312 416 L 328 416 L 328 432 L 312 432 Z" class="MsftOfcThm_Accent1_Fill_v2" fill="#00329D"/><path d=" M 98 384 C 88.0637 384.012 80.0116 392.064 80 402 L 80 414 C 80.0116 423.936 88.0637 431.988 98 432 L 118 432 C 127.936 431.988 135.988 423.936 136 414 L 136 402 C 135.988 392.064 127.936 384.012 118 384 Z M 120 402 L 120 414 C 120 415.105 119.105 416 118 416 L 98 416 C 96.8954 416 96 415.105 96 414 L 96 402 C 96 400.895 96.8954 400 98 400 L 118 400 C 119.105 400 120 400.895 120 402 Z" class="MsftOfcThm_Accent1_Fill_v2" fill="#00329D"/><path d=" M 414 432 C 423.936 431.988 431.988 423.936 432 414 L 432 402 C 431.988 392.064 423.936 384.012 414 384 L 394 384 C 384.064 384.012 376.012 392.064 376 402 L 376 414 C 376.012 423.936 384.064 431.988 394 432 Z M 392 414 L 392 402 C 392 400.895 392.895 400 394 400 L 414 400 C 415.105 400 416 400.895 416 402 L 416 414 C 416 415.105 415.105 416 414 416 L 394 416 C 392.895 416 392 415.105 392 414 Z" class="MsftOfcThm_Accent1_Fill_v2" fill="#00329D"/><path d=" M 234 384 C 224.064 384.012 216.012 392.064 216 402 L 216 414 C 216.012 423.936 224.064 431.988 234 432 L 278 432 C 287.936 431.988 295.988 423.936 296 414 L 296 402 C 295.988 392.064 287.936 384.012 278 384 Z M 280 402 L 280 414 C 280 415.105 279.105 416 278 416 L 234 416 C 232.895 416 232 415.105 232 414 L 232 402 C 232 400.895 232.895 400 234 400 L 278 400 C 279.105 400 280 400.895 280 402 Z" class="MsftOfcThm_Accent1_Fill_v2" fill="#00329D"/><path d=" M 320 192 C 319.985 178.752 309.248 168.015 296 168 L 216 168 C 202.745 168 192 178.745 192 192 C 192 205.255 202.745 216 216 216 L 296 216 C 309.248 215.985 319.985 205.248 320 192 Z M 208 192 C 208.005 187.584 211.584 184.005 216 184 L 296 184 C 300.418 184 304 187.582 304 192 C 304 196.418 300.418 200 296 200 L 216 200 C 211.584 199.995 208.005 196.416 208 192 Z" class="MsftOfcThm_Accent1_Fill_v2" fill="#00329D"/><path d=" M 336 128 C 335.985 114.751 325.249 104.015 312 104 L 200 104 C 186.745 104 176 114.745 176 128 C 176 141.255 186.745 152 200 152 L 312 152 C 325.249 151.985 335.985 141.249 336 128 Z M 312 136 L 200 136 C 195.582 136 192 132.418 192 128 C 192 123.582 195.582 120 200 120 L 312 120 C 316.418 120 320 123.582 320 128 C 320 132.418 316.418 136 312 136 Z" class="MsftOfcThm_Accent1_Fill_v2" fill="#00329D"/><path d=" M 352 64 C 351.985 50.7516 341.248 40.0154 328 40 L 184 40 C 170.745 40 160 50.7452 160 64 C 160 77.2548 170.745 88 184 88 L 328 88 C 341.248 87.9846 351.985 77.2484 352 64 Z M 328 72 L 184 72 C 179.582 72 176 68.4183 176 64 C 176 59.5817 179.582 56 184 56 L 328 56 C 332.418 56 336 59.5817 336 64 C 336 68.4183 332.418 72 328 72 Z" class="MsftOfcThm_Accent1_Fill_v2" fill="#00329D"/><path d=" M 224 264 C 224 281.673 238.327 296 256 296 C 273.673 296 288 281.673 288 264 C 288 246.327 273.673 232 256 232 C 238.335 232.02 224.02 246.335 224 264 Z M 272 264 C 272 272.837 264.837 280 256 280 C 247.163 280 240 272.837 240 264 C 240 255.163 247.163 248 256 248 C 264.832 248.01 271.99 255.168 272 264 Z" class="MsftOfcThm_Accent1_Fill_v2" fill="#00329D"/><path d=" M 478 352 L 446.412 352 L 457.8 287.438 L 442.044 284.659 L 430.165 352 L 416 352 L 416 348 C 415.995 338.244 410.915 329.194 402.589 324.109 L 418.752 232.44 L 430.18 211.34 C 430.586 210.59 430.87 209.78 431.021 208.94 L 458.236 56.909 C 460.161 46.1029 467.795 37.1911 478.178 33.631 L 446.778 211.693 C 446.629 212.54 446.617 213.406 446.743 214.257 L 450.267 238 L 444.333 271.653 L 460.09 274.431 L 466.249 239.499 C 466.398 238.652 466.41 237.787 466.284 236.937 L 462.764 213.196 L 495.878 25.396 C 496.649 21.0455 493.747 16.8937 489.397 16.1227 C 488.936 16.041 488.468 16 488 16 C 465.601 15.9823 446.416 32.037 442.486 54.089 L 415.5 204.85 L 404.067 225.963 C 403.657 226.719 403.372 227.537 403.223 228.384 L 387.067 320 L 124.933 320 L 108.779 228.383 C 108.629 227.536 108.344 226.719 107.935 225.963 L 96.5 204.85 L 69.514 54.089 C 65.5839 32.037 46.3995 15.9823 24 16 C 19.5817 16.0002 16.0001 19.582 16.0003 24.0003 C 16.0003 24.4662 16.0411 24.9312 16.122 25.39 L 32.993 121.073 L 48.75 118.294 L 33.822 33.631 C 44.2047 37.1911 51.8394 46.1029 53.764 56.909 L 80.979 208.937 C 81.1302 209.777 81.4141 210.587 81.82 211.337 L 93.248 232.437 L 109.411 324.106 C 101.084 329.191 96.0035 338.243 96 348 L 96 352 L 81.836 352 L 61.736 238 L 65.257 214.26 C 65.3829 213.409 65.3711 212.543 65.222 211.696 L 51.483 133.8 L 35.727 136.579 L 49.236 213.196 L 45.716 236.937 C 45.5901 237.788 45.6019 238.653 45.751 239.5 L 65.589 352 L 34 352 C 24.0637 352.012 16.0116 360.064 16 370 L 16 446 C 16.0116 455.936 24.0637 463.988 34 464 L 48 464 L 48 478 C 48.0116 487.936 56.0637 495.988 66 496 L 126 496 C 135.936 495.988 143.988 487.936 144 478 L 144 464 L 326.98 464 L 326.98 448 L 34 448 C 32.8954 448 32 447.105 32 446 L 32 432 L 64 432 L 64 416 L 32 416 L 32 400 L 64 400 L 64 384 L 32 384 L 32 370 C 32 368.895 32.8954 368 34 368 L 167.612 368 L 167.612 352 L 112 352 L 112 348 C 112.007 341.376 117.376 336.007 124 336 L 388 336 C 394.624 336.007 399.993 341.376 400 348 L 400 352 L 183.874 352 L 183.874 368 L 478 368 C 479.105 368 480 368.895 480 370 L 480 384 L 448 384 L 448 400 L 480 400 L 480 416 L 448 416 L 448 432 L 480 432 L 480 446 C 480 447.105 479.105 448 478 448 L 343.785 448 L 343.785 464 L 368 464 L 368 478 C 368.012 487.936 376.064 495.988 386 496 L 446 496 C 455.936 495.988 463.988 487.936 464 478 L 464 464 L 478 464 C 487.936 463.988 495.988 455.936 496 446 L 496 370 C 495.988 360.064 487.936 352.012 478 352 Z M 128 464 L 128 478 C 128 479.105 127.105 480 126 480 L 66 480 C 64.8954 480 64 479.105 64 478 L 64 464 Z M 448 478 C 448 479.105 447.105 480 446 480 L 386 480 C 384.895 480 384 479.105 384 478 L 384 464 L 448 464 Z" class="MsftOfcThm_Accent1_Fill_v2" fill="#00329D"/></g></svg>