<?xml version='1.0' encoding='utf-8'?>
<svg xmlns="http://www.w3.org/2000/svg" version="1.1" width="1280" height="720" viewBox="0 0 1280 720"><defs><linearGradient id="ggrad1" x1="0.5" y1="0" x2="0.5" y2="1"><stop offset="0.15" stop-color="#B4D7FE" /><stop offset="0.53" stop-color="#5186D4" /><stop offset="1" stop-color="#023E80" /></linearGradient><filter id="fx1" x="-25%" y="-25%" width="150%" height="150%"><feDropShadow dx="2.83" dy="2.83" stdDeviation="2.67" flood-color="#011F40" flood-opacity="0.4" /></filter><linearGradient id="ggrad2" x1="1" y1="0.5" x2="0" y2="0.5"><stop offset="0.32" stop-color="#1F88FB" stop-opacity="0" /><stop offset="1" stop-color="#1F88FB" stop-opacity="0.19" /></linearGradient><filter id="fx2" x="-25%" y="-25%" width="150%" height="150%"><feDropShadow dx="0" dy="0" stdDeviation="3.33" flood-color="#012E60" flood-opacity="0.4" /></filter><filter id="fx3" x="-25%" y="-25%" width="150%" height="150%"><feDropShadow dx="0" dy="0" stdDeviation="3.33" flood-color="#012E60" flood-opacity="0.4" /></filter><filter id="fx4" x="-25%" y="-25%" width="150%" height="150%"><feDropShadow dx="0" dy="0" stdDeviation="3.33" flood-color="#012E60" flood-opacity="0.4" /></filter><linearGradient id="ggrad3" x1="1" y1="0.5" x2="0" y2="0.5"><stop offset="0.32" stop-color="#1F88FB" stop-opacity="0" /><stop offset="1" stop-color="#1F88FB" stop-opacity="0.19" /></linearGradient><filter id="fx5" x="-25%" y="-25%" width="150%" height="150%"><feDropShadow dx="0" dy="0" stdDeviation="3.33" flood-color="#012E60" flood-opacity="0.4" /></filter><filter id="fx6" x="-25%" y="-25%" width="150%" height="150%"><feDropShadow dx="0" dy="0" stdDeviation="3.33" flood-color="#012E60" flood-opacity="0.4" /></filter><filter id="fx7" x="-25%" y="-25%" width="150%" height="150%"><feDropShadow dx="0" dy="0" stdDeviation="3.33" flood-color="#012E60" flood-opacity="0.4" /></filter><filter id="fx8" x="-25%" y="-25%" width="150%" height="150%"><feDropShadow dx="4" dy="0" stdDeviation="6.67" flood-color="#023E80" flood-opacity="0.34" /></filter><filter id="fx9" x="-25%" y="-25%" width="150%" height="150%"><feDropShadow dx="4" dy="0" stdDeviation="6.67" flood-color="#023E80" flood-opacity="0.34" /></filter><filter id="fx10" x="-25%" y="-25%" width="150%" height="150%"><feDropShadow dx="4" dy="0" stdDeviation="6.67" flood-color="#023E80" flood-opacity="0.34" /></filter><filter id="fx11" x="-25%" y="-25%" width="150%" height="150%"><feDropShadow dx="4" dy="0" stdDeviation="6.67" flood-color="#023E80" flood-opacity="0.34" /></filter><filter id="fx12" x="-25%" y="-25%" width="150%" height="150%"><feDropShadow dx="4" dy="0" stdDeviation="6.67" flood-color="#023E80" flood-opacity="0.34" /></filter><filter id="fx13" x="-25%" y="-25%" width="150%" height="150%"><feDropShadow dx="4" dy="0" stdDeviation="6.67" flood-color="#023E80" flood-opacity="0.34" /></filter><filter id="fx14" x="-25%" y="-25%" width="150%" height="150%"><feDropShadow dx="0" dy="0" stdDeviation="3.33" flood-color="#023E80" flood-opacity="0.4" /></filter></defs><rect x="0" y="0" width="1280" height="720" fill="#FFFFFF" />
<g id="layout-shape-6" data-name="任意多边形: 形状 5">
<path d="M 3.78 23.95 L 18.9 43.77 L 3.78 63.58 L -0.33 58.19 L -0.33 29.34 Z" fill="none" stroke-width="0" stroke-linecap="butt" stroke="#023E80" stroke-opacity="0" stroke-linejoin="miter" />
</g>
<g id="layout-shape-5" data-name="任意多边形: 形状 4">
<path d="M 0 23.95 L 15.12 43.77 L 0 63.58 L -0.33 63.14 L -0.33 24.39 Z" fill="url(#ggrad1)" stroke-width="0" stroke-linecap="butt" stroke="none" stroke-linejoin="miter" />
</g>
<g id="layout-shape-68" data-name="直接连接符 67">
<line x1="35.28" y1="67.62" x2="1244.72" y2="67.62" stroke-width="3.667" stroke="#023E80" fill="#023E80" filter="url(#fx1)" />
</g>
<g id="shape-85" data-name="图表 84">
<rect x="215.91" y="148.55" width="487.56" height="325.04" fill="none" stroke="#999999" stroke-dasharray="4 4" /><text x="459.69" y="311.07" text-anchor="middle" font-size="14" fill="#999999"><tspan fill="#999999" font-size="14">{{TAGLINE}}</tspan></text>
</g>
<g id="shape-91" data-name="图表 90">
<rect x="493.13" y="116.43" width="583.94" height="389.29" fill="none" stroke="#999999" stroke-dasharray="4 4" /><text x="785.09" y="311.07" text-anchor="middle" font-size="14" fill="#999999"><tspan fill="#999999" font-size="14">{{TAGLINE}}</tspan></text>
</g>
<g id="shape-92" data-name="图表 91">
<rect x="576.53" y="148.55" width="487.56" height="325.04" fill="none" stroke="#999999" stroke-dasharray="4 4" /><text x="820.31" y="311.07" text-anchor="middle" font-size="14" fill="#999999"><tspan fill="#999999" font-size="14">{{TAGLINE}}</tspan></text>
</g>
<g id="shape-15" data-name="组合 14">
<g id="shape-140" data-name="Oval 32-mask">
<ellipse cx="455.35" cy="311.07" rx="196.54" ry="196.54" fill="url(#ggrad2)" stroke-width="1.85" stroke="#023E80" stroke-opacity="0" />
</g>
<g id="shape-2" data-name="组合 1">
<g id="shape-139" data-name="椭圆 138">
<ellipse cx="317.09" cy="170.49" rx="6.65" ry="6.65" fill="#023E80" stroke-width="2.22" stroke="#FFFFFF" filter="url(#fx2)" />
</g>
<g id="shape-4" data-name="椭圆 3">
<ellipse cx="258.07" cy="310.28" rx="6.65" ry="6.65" fill="#023E80" stroke-width="2.22" stroke="#FFFFFF" filter="url(#fx3)" />
</g>
<g id="shape-5" data-name="椭圆 4">
<ellipse cx="317.09" cy="450.06" rx="6.65" ry="6.65" fill="#023E80" stroke-width="2.22" stroke="#FFFFFF" filter="url(#fx4)" />
</g>
</g>
</g>
<g id="shape-16" data-name="组合 15">
<g id="shape-141" data-name="Oval 32-mask" transform="translate(823.44 311.07) scale(-1 1) translate(-823.44 -311.07)">
<ellipse cx="823.44" cy="311.07" rx="196.54" ry="196.54" fill="url(#ggrad3)" stroke-width="1.85" stroke="#023E80" stroke-opacity="0" />
</g>
<g id="shape-3" data-name="组合 2" transform="translate(989.6 310.28) scale(-1 1) translate(-989.6 -310.28)">
<g id="shape-11" data-name="椭圆 10">
<ellipse cx="1019.12" cy="170.49" rx="6.65" ry="6.65" fill="#023E80" stroke-width="2.22" stroke="#FFFFFF" filter="url(#fx5)" />
</g>
<g id="shape-12" data-name="椭圆 11">
<ellipse cx="960.09" cy="310.28" rx="6.65" ry="6.65" fill="#023E80" stroke-width="2.22" stroke="#FFFFFF" filter="url(#fx6)" />
</g>
<g id="shape-14" data-name="椭圆 13">
<ellipse cx="1019.12" cy="450.06" rx="6.65" ry="6.65" fill="#023E80" stroke-width="2.22" stroke="#FFFFFF" filter="url(#fx7)" />
</g>
</g>
</g>
<g id="shape-170" data-name="组合 169">
<g id="shape-82" data-name="矩形: 圆顶角 81">
<path d="M 52.28 581.27 L 280.14 581.27 L 280.14 676.17 L 280.14 676.17 L 52.28 676.17 L 52.28 676.17 L 52.28 581.27 Z" data-pptx-prst="round2SameRect" data-pptx-adj1="0" data-pptx-adj2="0" fill="#F6D2CE" fill-opacity="0.2" stroke-width="0.333" stroke="#F6D2CE" stroke-dasharray="4 4" />
</g>
<g id="shape-81" data-name="矩形: 圆顶角 80">
<path d="M 59.21 546.83 L 273.21 546.83 A 6.93 6.93 0 0 1 280.14 553.76 L 280.14 588.41 L 280.14 588.41 L 52.28 588.41 L 52.28 588.41 L 52.28 553.76 A 6.93 6.93 0 0 1 59.21 546.83 Z" data-pptx-prst="round2SameRect" data-pptx-adj1="16667" data-pptx-adj2="0" fill="#BA3023" stroke="#F6D2CE" stroke-width="1" />
<text x="166.21" y="573.62" text-anchor="middle" xml:space="preserve" font-family="&quot;思源黑体 CN Heavy&quot;, &quot;思源黑体 CN Normal&quot;, sans-serif" font-size="24" fill="#FFFFFF"><tspan fill="#FFFFFF" font-size="24">成果扎实</tspan></text>
</g>
</g>
<g id="shape-171" data-name="组合 170">
<g id="shape-95" data-name="矩形: 圆顶角 94">
<path d="M 289.18 581.27 L 517.03 581.27 L 517.03 676.17 L 517.03 676.17 L 289.18 676.17 L 289.18 676.17 L 289.18 581.27 Z" data-pptx-prst="round2SameRect" data-pptx-adj1="0" data-pptx-adj2="0" fill="#F6D2CE" fill-opacity="0.2" stroke-width="0.333" stroke="#F6D2CE" stroke-dasharray="4 4" />
</g>
<g id="shape-96" data-name="矩形: 圆顶角 95">
<path d="M 296.11 546.83 L 510.1 546.83 A 6.93 6.93 0 0 1 517.03 553.76 L 517.03 588.41 L 517.03 588.41 L 289.18 588.41 L 289.18 588.41 L 289.18 553.76 A 6.93 6.93 0 0 1 296.11 546.83 Z" data-pptx-prst="round2SameRect" data-pptx-adj1="16667" data-pptx-adj2="0" fill="#BA3023" stroke="#F6D2CE" stroke-width="1" />
<text x="403.11" y="573.62" text-anchor="middle" xml:space="preserve" font-family="&quot;思源黑体 CN Heavy&quot;, &quot;思源黑体 CN Normal&quot;, sans-serif" font-size="24" fill="#FFFFFF"><tspan fill="#FFFFFF" font-size="24">效率跃升</tspan></text>
</g>
</g>
<g id="shape-172" data-name="组合 171">
<g id="shape-98" data-name="矩形: 圆顶角 97">
<path d="M 526.07 581.27 L 753.93 581.27 L 753.93 676.17 L 753.93 676.17 L 526.07 676.17 L 526.07 676.17 L 526.07 581.27 Z" data-pptx-prst="round2SameRect" data-pptx-adj1="0" data-pptx-adj2="0" fill="#F6D2CE" fill-opacity="0.2" stroke-width="0.333" stroke="#F6D2CE" stroke-dasharray="4 4" />
</g>
<g id="shape-99" data-name="矩形: 圆顶角 98">
<path d="M 533 546.83 L 747 546.83 A 6.93 6.93 0 0 1 753.93 553.76 L 753.93 588.41 L 753.93 588.41 L 526.07 588.41 L 526.07 588.41 L 526.07 553.76 A 6.93 6.93 0 0 1 533 546.83 Z" data-pptx-prst="round2SameRect" data-pptx-adj1="16667" data-pptx-adj2="0" fill="#BA3023" stroke="#F6D2CE" stroke-width="1" />
<text x="640" y="573.62" text-anchor="middle" xml:space="preserve" font-family="&quot;思源黑体 CN Heavy&quot;, &quot;思源黑体 CN Normal&quot;, sans-serif" font-size="24" fill="#FFFFFF"><tspan fill="#FFFFFF" font-size="24">收益增长</tspan></text>
</g>
</g>
<g id="shape-173" data-name="组合 172">
<g id="shape-101" data-name="矩形: 圆顶角 100">
<path d="M 762.97 581.27 L 990.82 581.27 L 990.82 676.17 L 990.82 676.17 L 762.97 676.17 L 762.97 676.17 L 762.97 581.27 Z" data-pptx-prst="round2SameRect" data-pptx-adj1="0" data-pptx-adj2="0" fill="#F6D2CE" fill-opacity="0.2" stroke-width="0.333" stroke="#F6D2CE" stroke-dasharray="4 4" />
</g>
<g id="shape-102" data-name="矩形: 圆顶角 101">
<path d="M 769.9 546.83 L 983.89 546.83 A 6.93 6.93 0 0 1 990.82 553.76 L 990.82 588.41 L 990.82 588.41 L 762.97 588.41 L 762.97 588.41 L 762.97 553.76 A 6.93 6.93 0 0 1 769.9 546.83 Z" data-pptx-prst="round2SameRect" data-pptx-adj1="16667" data-pptx-adj2="0" fill="#BA3023" stroke="#F6D2CE" stroke-width="1" />
<text x="876.89" y="573.62" text-anchor="middle" xml:space="preserve" font-family="&quot;思源黑体 CN Heavy&quot;, &quot;思源黑体 CN Normal&quot;, sans-serif" font-size="24" fill="#FFFFFF"><tspan fill="#FFFFFF" font-size="24">资源优化</tspan></text>
</g>
</g>
<g id="shape-174" data-name="组合 173">
<g id="shape-104" data-name="矩形: 圆顶角 103">
<path d="M 999.86 581.27 L 1227.72 581.27 L 1227.72 676.17 L 1227.72 676.17 L 999.86 676.17 L 999.86 676.17 L 999.86 581.27 Z" data-pptx-prst="round2SameRect" data-pptx-adj1="0" data-pptx-adj2="0" fill="#F6D2CE" fill-opacity="0.2" stroke-width="0.333" stroke="#F6D2CE" stroke-dasharray="4 4" />
</g>
<g id="shape-107" data-name="矩形: 圆顶角 106">
<path d="M 1006.79 546.83 L 1220.79 546.83 A 6.93 6.93 0 0 1 1227.72 553.76 L 1227.72 588.41 L 1227.72 588.41 L 999.86 588.41 L 999.86 588.41 L 999.86 553.76 A 6.93 6.93 0 0 1 1006.79 546.83 Z" data-pptx-prst="round2SameRect" data-pptx-adj1="16667" data-pptx-adj2="0" fill="#BA3023" stroke="#F6D2CE" stroke-width="1" />
<text x="1113.79" y="573.62" text-anchor="middle" xml:space="preserve" font-family="&quot;思源黑体 CN Heavy&quot;, &quot;思源黑体 CN Normal&quot;, sans-serif" font-size="24" fill="#FFFFFF"><tspan fill="#FFFFFF" font-size="24">市场扩张</tspan></text>
</g>
</g>
<g id="shape-116" data-name="文本框 115">
<rect x="60.38" y="600.56" width="211.65" height="30.38" fill="none" />
<text x="166.21" y="618.96" text-anchor="middle" xml:space="preserve" font-family="&quot;思源黑体 CN Normal&quot;, sans-serif" font-size="16" fill="#0D0D0D"><tspan fill="#0D0D0D" font-size="16">{{TAGLINE}}</tspan></text>
</g>
<g id="shape-137" data-name="文本框 136">
<rect x="297.28" y="600.56" width="211.65" height="30.38" fill="none" />
<text x="403.11" y="618.96" text-anchor="middle" xml:space="preserve" font-family="&quot;思源黑体 CN Normal&quot;, sans-serif" font-size="16" fill="#0D0D0D"><tspan fill="#0D0D0D" font-size="16">{{TAGLINE}}</tspan></text>
</g>
<g id="shape-138" data-name="文本框 137">
<rect x="534.17" y="600.56" width="211.65" height="30.38" fill="none" />
<text x="640" y="618.96" text-anchor="middle" xml:space="preserve" font-family="&quot;思源黑体 CN Normal&quot;, sans-serif" font-size="16" fill="#0D0D0D"><tspan fill="#0D0D0D" font-size="16">{{TAGLINE}}</tspan></text>
</g>
<g id="shape-142" data-name="文本框 141">
<rect x="771.07" y="600.56" width="211.65" height="30.38" fill="none" />
<text x="876.89" y="618.96" text-anchor="middle" xml:space="preserve" font-family="&quot;思源黑体 CN Normal&quot;, sans-serif" font-size="16" fill="#0D0D0D"><tspan fill="#0D0D0D" font-size="16">{{TAGLINE}}</tspan></text>
</g>
<g id="shape-143" data-name="文本框 142">
<rect x="1007.96" y="600.56" width="211.65" height="30.38" fill="none" />
<text x="1113.79" y="618.96" text-anchor="middle" xml:space="preserve" font-family="&quot;思源黑体 CN Normal&quot;, sans-serif" font-size="16" fill="#0D0D0D"><tspan fill="#0D0D0D" font-size="16">{{TAGLINE}}</tspan></text>
</g>
<g id="shape-145" data-name="文本框 144">
<rect x="80.13" y="636.51" width="79.75" height="26.46" rx="4.41" ry="4.41" fill="#F6D2CE" stroke-width="0.333" stroke="none" stroke-dasharray="4 4" />
<text x="120" y="654.91" text-anchor="middle" xml:space="preserve" font-family="&quot;思源黑体 CN Heavy&quot;, &quot;思源黑体 CN Normal&quot;, sans-serif" font-size="16" fill="#BA3023"><tspan fill="#BA3023" font-size="16">项项达</tspan></text>
</g>
<g id="shape-152" data-name="文本框 151">
<rect x="172.55" y="636.51" width="79.75" height="26.46" rx="4.41" ry="4.41" fill="#F6D2CE" stroke-width="0.333" stroke="none" stroke-dasharray="4 4" />
<text x="212.42" y="654.91" text-anchor="middle" xml:space="preserve" font-family="&quot;思源黑体 CN Heavy&quot;, &quot;思源黑体 CN Normal&quot;, sans-serif" font-size="16" fill="#BA3023"><tspan fill="#BA3023" font-size="16">客客增</tspan></text>
</g>
<g id="shape-153" data-name="文本框 152">
<rect x="317.02" y="636.51" width="79.75" height="26.46" rx="4.41" ry="4.41" fill="#F6D2CE" stroke-width="0.333" stroke="none" stroke-dasharray="4 4" />
<text x="326.62" y="654.91" text-anchor="start" xml:space="preserve" font-family="&quot;思源黑体 CN Heavy&quot;, &quot;思源黑体 CN Normal&quot;, sans-serif" font-size="16" fill="#BA3023"><tspan fill="#BA3023" font-size="16">人</tspan><tspan fill="#BA3023" font-size="16">产出</tspan></text>
</g>
<g id="shape-157" data-name="文本框 156">
<rect x="409.44" y="636.51" width="79.75" height="26.46" rx="4.41" ry="4.41" fill="#F6D2CE" stroke-width="0.333" stroke="none" stroke-dasharray="4 4" />
<text x="419.04" y="654.91" text-anchor="start" xml:space="preserve" font-family="&quot;思源黑体 CN Heavy&quot;, &quot;思源黑体 CN Normal&quot;, sans-serif" font-size="16" fill="#BA3023"><tspan fill="#BA3023" font-size="16">期缩短</tspan></text>
</g>
<g id="shape-158" data-name="文本框 157">
<rect x="553.92" y="636.51" width="79.75" height="26.46" rx="4.41" ry="4.41" fill="#F6D2CE" stroke-width="0.333" stroke="none" stroke-dasharray="4 4" />
<text x="563.52" y="654.91" text-anchor="start" xml:space="preserve" font-family="&quot;思源黑体 CN Heavy&quot;, &quot;思源黑体 CN Normal&quot;, sans-serif" font-size="16" fill="#BA3023"><tspan fill="#BA3023" font-size="16">续约高</tspan></text>
</g>
<g id="shape-160" data-name="文本框 159">
<rect x="646.33" y="636.51" width="79.75" height="26.46" rx="4.41" ry="4.41" fill="#F6D2CE" stroke-width="0.333" stroke="none" stroke-dasharray="4 4" />
<text x="655.93" y="654.91" text-anchor="start" xml:space="preserve" font-family="&quot;思源黑体 CN Heavy&quot;, &quot;思源黑体 CN Normal&quot;, sans-serif" font-size="16" fill="#BA3023"><tspan fill="#BA3023" font-size="16">收益涨</tspan></text>
</g>
<g id="shape-161" data-name="文本框 160">
<rect x="790.81" y="636.51" width="79.75" height="26.46" rx="4.41" ry="4.41" fill="#F6D2CE" stroke-width="0.333" stroke="none" stroke-dasharray="4 4" />
<text x="800.41" y="654.91" text-anchor="start" xml:space="preserve" font-family="&quot;思源黑体 CN Heavy&quot;, &quot;思源黑体 CN Normal&quot;, sans-serif" font-size="16" fill="#BA3023"><tspan fill="#BA3023" font-size="16">人力省</tspan></text>
</g>
<g id="shape-163" data-name="文本框 162">
<rect x="883.23" y="636.51" width="79.75" height="26.46" rx="4.41" ry="4.41" fill="#F6D2CE" stroke-width="0.333" stroke="none" stroke-dasharray="4 4" />
<text x="892.83" y="654.91" text-anchor="start" xml:space="preserve" font-family="&quot;思源黑体 CN Heavy&quot;, &quot;思源黑体 CN Normal&quot;, sans-serif" font-size="16" fill="#BA3023"><tspan fill="#BA3023" font-size="16">投</tspan><tspan fill="#BA3023" font-size="16">高项</tspan></text>
</g>
<g id="shape-150" data-name="文本框 149">
<rect x="1120.12" y="636.51" width="79.75" height="26.46" rx="4.41" ry="4.41" fill="#F6D2CE" stroke-width="0.333" stroke="none" stroke-dasharray="4 4" />
<text x="1129.72" y="654.91" text-anchor="start" xml:space="preserve" font-family="&quot;思源黑体 CN Heavy&quot;, &quot;思源黑体 CN Normal&quot;, sans-serif" font-size="16" fill="#BA3023"><tspan fill="#BA3023" font-size="16">市</tspan><tspan fill="#BA3023" font-size="16">反馈</tspan></text>
</g>
<g id="shape-164" data-name="文本框 163">
<rect x="1027.71" y="636.51" width="79.75" height="26.46" rx="4.41" ry="4.41" fill="#F6D2CE" stroke-width="0.333" stroke="none" stroke-dasharray="4 4" />
<text x="1037.31" y="654.91" text-anchor="start" xml:space="preserve" font-family="&quot;思源黑体 CN Heavy&quot;, &quot;思源黑体 CN Normal&quot;, sans-serif" font-size="16" fill="#BA3023"><tspan fill="#BA3023" font-size="16">牌</tspan><tspan fill="#BA3023" font-size="16">响亮</tspan></text>
</g>
<g id="shape-176" data-name="矩形: 圆角 175">
<rect x="35.17" y="530.24" width="1209.67" height="162.52" rx="7.26" ry="7.26" fill="none" stroke-width="0.333" stroke="#BA3023" stroke-dasharray="4 4" />
</g>
<g id="shape-6" data-name="大标题">
<rect x="32.96" y="15.44" width="533.47" height="47.44" fill="none" />
<text x="32.96" y="53.22" text-anchor="start" xml:space="preserve" font-family="&quot;思源黑体 CN Heavy&quot;, &quot;思源黑体 CN Normal&quot;, sans-serif" font-size="40" fill="#023E80"><tspan fill="#023E80" font-size="40">{{TITLE}}</tspan></text>
</g>
<g id="shape-19" data-name="组合 18">
<g id="shape-21" data-name="文本框 20">
<rect x="120.03" y="403.59" width="152.16" height="35.54" rx="17.77" ry="17.77" fill="#023E80" stroke-width="1.333" stroke="none" filter="url(#fx8)" />
<text x="196.11" y="426.03" text-anchor="middle" xml:space="preserve" font-family="&quot;思源黑体 CN Heavy&quot;, &quot;思源黑体 CN Normal&quot;, sans-serif" font-size="18.67" fill="#FFFFFF"><tspan fill="#FFFFFF" font-size="18.67">{{TAGLINE}}</tspan></text>
</g>
<g id="shape-22" data-name="文本框 21">
<rect x="56.76" y="446.54" width="215.43" height="42.01" fill="none" />
<text x="272.19" y="460.14" text-anchor="end" xml:space="preserve" font-family="&quot;思源黑体 CN Normal&quot;, sans-serif" font-size="16" fill="#0D0D0D"><tspan fill="#0D0D0D" font-size="16">{{TAGLINE}}</tspan></text>
</g>
</g>
<g id="shape-26" data-name="组合 25">
<g id="shape-44" data-name="文本框 43" transform="translate(1083.89 421.36) scale(-1 1) translate(-1083.89 -421.36)">
<rect x="1007.81" y="403.59" width="152.16" height="35.54" rx="17.77" ry="17.77" fill="#023E80" stroke-width="1.333" stroke="none" filter="url(#fx9)" />
<text x="1083.89" y="426.03" text-anchor="middle" xml:space="preserve" font-family="&quot;思源黑体 CN Heavy&quot;, &quot;思源黑体 CN Normal&quot;, sans-serif" font-size="18.67" fill="#FFFFFF"><tspan fill="#FFFFFF" font-size="18.67">{{TAGLINE}}</tspan></text>
</g>
<g id="shape-45" data-name="文本框 44" transform="translate(1115.53 467.54) scale(-1 1) translate(-1115.53 -467.54)">
<rect x="1007.81" y="446.54" width="215.43" height="42.01" fill="none" />
<text x="1007.81" y="460.14" text-anchor="start" xml:space="preserve" font-family="&quot;思源黑体 CN Normal&quot;, sans-serif" font-size="16" fill="#0D0D0D"><tspan fill="#0D0D0D" font-size="16">{{TAGLINE}}</tspan></text>
</g>
</g>
<g id="shape-18" data-name="组合 17">
<g id="shape-24" data-name="文本框 23">
<rect x="87.14" y="268.96" width="152.16" height="35.54" rx="17.77" ry="17.77" fill="#023E80" stroke-width="1.333" stroke="none" filter="url(#fx10)" />
<text x="163.22" y="291.4" text-anchor="middle" xml:space="preserve" font-family="&quot;思源黑体 CN Heavy&quot;, &quot;思源黑体 CN Normal&quot;, sans-serif" font-size="18.67" fill="#FFFFFF"><tspan fill="#FFFFFF" font-size="18.67">{{TAGLINE}}</tspan></text>
</g>
<g id="shape-25" data-name="文本框 24">
<rect x="23.87" y="312.01" width="215.43" height="42.01" fill="none" />
<text x="239.3" y="325.61" text-anchor="end" xml:space="preserve" font-family="&quot;思源黑体 CN Normal&quot;, sans-serif" font-size="16" fill="#0D0D0D"><tspan fill="#0D0D0D" font-size="16">{{TAGLINE}}</tspan></text>
</g>
</g>
<g id="shape-23" data-name="组合 22">
<g id="shape-42" data-name="文本框 41" transform="translate(1116.78 286.73) scale(-1 1) translate(-1116.78 -286.73)">
<rect x="1040.7" y="268.96" width="152.16" height="35.54" rx="17.77" ry="17.77" fill="#023E80" stroke-width="1.333" stroke="none" filter="url(#fx11)" />
<text x="1116.78" y="291.4" text-anchor="middle" xml:space="preserve" font-family="&quot;思源黑体 CN Heavy&quot;, &quot;思源黑体 CN Normal&quot;, sans-serif" font-size="18.67" fill="#FFFFFF"><tspan fill="#FFFFFF" font-size="18.67">{{TAGLINE}}</tspan></text>
</g>
<g id="shape-43" data-name="文本框 42" transform="translate(1148.41 333.02) scale(-1 1) translate(-1148.41 -333.02)">
<rect x="1040.7" y="312.01" width="215.43" height="42.01" fill="none" />
<text x="1040.7" y="325.61" text-anchor="start" xml:space="preserve" font-family="&quot;思源黑体 CN Normal&quot;, sans-serif" font-size="16" fill="#0D0D0D"><tspan fill="#0D0D0D" font-size="16">{{TAGLINE}}</tspan></text>
</g>
</g>
<g id="shape-17" data-name="组合 16">
<g id="shape-27" data-name="文本框 26">
<rect x="120.03" y="134.62" width="152.16" height="35.54" rx="17.77" ry="17.77" fill="#023E80" stroke-width="1.333" stroke="none" filter="url(#fx12)" />
<text x="196.11" y="157.06" text-anchor="middle" xml:space="preserve" font-family="&quot;思源黑体 CN Heavy&quot;, &quot;思源黑体 CN Normal&quot;, sans-serif" font-size="18.67" fill="#FFFFFF"><tspan fill="#FFFFFF" font-size="18.67">{{TAGLINE}}</tspan></text>
</g>
<g id="shape-28" data-name="文本框 27">
<rect x="56.76" y="177.38" width="215.43" height="42.01" fill="none" />
<text x="272.19" y="190.98" text-anchor="end" xml:space="preserve" font-family="&quot;思源黑体 CN Normal&quot;, sans-serif" font-size="16" fill="#0D0D0D"><tspan fill="#0D0D0D" font-size="16">{{TAGLINE}}</tspan></text>
</g>
</g>
<g id="shape-20" data-name="组合 19">
<g id="shape-40" data-name="文本框 39" transform="translate(1083.89 152.4) scale(-1 1) translate(-1083.89 -152.4)">
<rect x="1007.81" y="134.62" width="152.16" height="35.54" rx="17.77" ry="17.77" fill="#023E80" stroke-width="1.333" stroke="none" filter="url(#fx13)" />
<text x="1083.89" y="157.06" text-anchor="middle" xml:space="preserve" font-family="&quot;思源黑体 CN Heavy&quot;, &quot;思源黑体 CN Normal&quot;, sans-serif" font-size="18.67" fill="#FFFFFF"><tspan fill="#FFFFFF" font-size="18.67">{{TAGLINE}}</tspan></text>
</g>
<g id="shape-41" data-name="文本框 40" transform="translate(1115.53 198.39) scale(-1 1) translate(-1115.53 -198.39)">
<rect x="1007.81" y="177.38" width="215.43" height="42.01" fill="none" />
<text x="1007.81" y="190.98" text-anchor="start" xml:space="preserve" font-family="&quot;思源黑体 CN Normal&quot;, sans-serif" font-size="16" fill="#0D0D0D"><tspan fill="#0D0D0D" font-size="16">{{TAGLINE}}</tspan></text>
</g>
</g>
<g id="shape-13" data-name="组合 12">
<g id="shape-132" data-name="文本框 131" transform="rotate(250 820.31 312.42)">
<rect x="700.87" y="192.98" width="238.88" height="238.88" fill="none" />
<text x="710.47" y="213.65" text-anchor="start" xml:space="preserve" font-family="&quot;思源黑体 CN Normal&quot;, sans-serif" font-size="18.67" fill="#023E80"><tspan fill="#023E80" font-size="18.67">品牌建设</tspan></text>
</g>
<g id="shape-131" data-name="文本框 130">
<rect x="700.87" y="199.78" width="238.88" height="238.88" fill="none" />
<text x="710.47" y="220.45" text-anchor="start" xml:space="preserve" font-family="&quot;思源黑体 CN Normal&quot;, sans-serif" font-size="18.67" fill="#023E80"><tspan fill="#023E80" font-size="18.67">人才培养</tspan></text>
</g>
<g id="shape-130" data-name="文本框 129" transform="rotate(110 820.31 312.42)">
<rect x="700.87" y="192.98" width="238.88" height="238.88" fill="none" />
<text x="710.47" y="213.65" text-anchor="start" xml:space="preserve" font-family="&quot;思源黑体 CN Normal&quot;, sans-serif" font-size="18.67" fill="#023E80"><tspan fill="#023E80" font-size="18.67">流程优化</tspan></text>
</g>
<g id="shape-129" data-name="文本框 128" transform="rotate(40 820.31 312.42)">
<rect x="700.87" y="192.98" width="238.88" height="238.88" fill="none" />
<text x="710.47" y="213.65" text-anchor="start" xml:space="preserve" font-family="&quot;思源黑体 CN Normal&quot;, sans-serif" font-size="18.67" fill="#023E80"><tspan fill="#023E80" font-size="18.67">项目推进</tspan></text>
</g>
<g id="shape-128" data-name="文本框 127" transform="rotate(320 820.31 312.42)">
<rect x="700.87" y="192.98" width="238.88" height="238.88" fill="none" />
<text x="820.31" y="213.65" text-anchor="middle" xml:space="preserve" font-family="&quot;思源黑体 CN Heavy&quot;, &quot;思源黑体 CN Normal&quot;, sans-serif" font-size="18.67" fill="#023E80"><tspan fill="#023E80" font-size="18.67">业绩达成</tspan></text>
</g>
</g>
<g id="shape-93" data-name="椭圆 92">
<ellipse cx="820.31" cy="311.07" rx="98.25" ry="98.25" fill="#023E80" stroke="none" stroke-width="1" />
</g>
<g id="shape-94" data-name="文本框 93">
<rect x="723.99" y="316.8" width="192.65" height="42.01" fill="none" />
<text x="820.31" y="344.27" text-anchor="middle" xml:space="preserve" font-family="&quot;思源黑体 CN Heavy&quot;, &quot;思源黑体 CN Normal&quot;, sans-serif" font-size="26.67" fill="#FFFFFF"><tspan fill="#FFFFFF" font-size="26.67">{{SUBTITLE}}</tspan></text>
</g>
<g id="shape-180" data-name="图形 179">
<image href="assets/image30.png" x="790.51" y="247.47" width="59.6" height="59.6" preserveAspectRatio="none" />
</g>
<g id="shape-119" data-name="组合 118">
<g id="shape-105" data-name="文本框 104" transform="rotate(320 460.94 312.42)">
<rect x="341.5" y="192.98" width="238.88" height="238.88" fill="none" />
<text x="460.94" y="213.65" text-anchor="middle" xml:space="preserve" font-family="&quot;思源黑体 CN Heavy&quot;, &quot;思源黑体 CN Normal&quot;, sans-serif" font-size="18.67" fill="#023E80"><tspan fill="#023E80" font-size="18.67">市场拓展</tspan></text>
</g>
<g id="shape-108" data-name="文本框 107" transform="rotate(40 460.94 312.42)">
<rect x="341.5" y="192.98" width="238.88" height="238.88" fill="none" />
<text x="351.1" y="213.65" text-anchor="start" xml:space="preserve" font-family="&quot;思源黑体 CN Normal&quot;, sans-serif" font-size="18.67" fill="#023E80"><tspan fill="#023E80" font-size="18.67">产品研发</tspan></text>
</g>
<g id="shape-111" data-name="文本框 110" transform="rotate(110 460.94 312.42)">
<rect x="341.5" y="192.98" width="238.88" height="238.88" fill="none" />
<text x="351.1" y="213.65" text-anchor="start" xml:space="preserve" font-family="&quot;思源黑体 CN Normal&quot;, sans-serif" font-size="18.67" fill="#023E80"><tspan fill="#023E80" font-size="18.67">客户维护</tspan></text>
</g>
<g id="shape-114" data-name="文本框 113">
<rect x="341.5" y="199.78" width="238.88" height="238.88" fill="none" />
<text x="351.1" y="220.45" text-anchor="start" xml:space="preserve" font-family="&quot;思源黑体 CN Normal&quot;, sans-serif" font-size="18.67" fill="#023E80"><tspan fill="#023E80" font-size="18.67">团队建设</tspan></text>
</g>
<g id="shape-117" data-name="文本框 116" transform="rotate(250 460.94 312.42)">
<rect x="341.5" y="192.98" width="238.88" height="238.88" fill="none" />
<text x="351.1" y="213.65" text-anchor="start" xml:space="preserve" font-family="&quot;思源黑体 CN Normal&quot;, sans-serif" font-size="18.67" fill="#023E80"><tspan fill="#023E80" font-size="18.67">成本控制</tspan></text>
</g>
</g>
<g id="shape-80" data-name="椭圆 79">
<ellipse cx="459.69" cy="311.07" rx="98.25" ry="98.25" fill="#023E80" stroke="none" stroke-width="1" />
</g>
<g id="shape-77" data-name="文本框 76">
<rect x="364.61" y="316.8" width="192.65" height="42.01" fill="none" />
<text x="460.94" y="344.27" text-anchor="middle" xml:space="preserve" font-family="&quot;思源黑体 CN Heavy&quot;, &quot;思源黑体 CN Normal&quot;, sans-serif" font-size="26.67" fill="#FFFFFF"><tspan fill="#FFFFFF" font-size="26.67">{{TAGLINE}}</tspan></text>
</g>
<g id="shape-182" data-name="图形 181">
<image href="assets/image31.png" x="428.9" y="247.47" width="59.66" height="59.66" preserveAspectRatio="none" />
</g>
<g id="shape-60" data-name="箭头: 左右 59">
<rect x="606.36" y="292.71" width="67.28" height="43.33" stroke-width="0.667" stroke-linecap="round" stroke="#FFFFFF" stroke-linejoin="round" fill="#023E80" filter="url(#fx14)" />
</g>
<g id="shape-66" data-name="组合 65">
<g id="shape-64" data-name="文本框 63">
<rect x="613.35" y="231.76" width="53.31" height="66.24" fill="none" />
<text x="640" y="256.96" text-anchor="middle" xml:space="preserve" font-family="&quot;思源黑体 CN Heavy&quot;, &quot;思源黑体 CN Normal&quot;, sans-serif" font-size="24" fill="#023E80"><tspan fill="#023E80" font-size="24">协同</tspan></text>
</g>
<g id="shape-65" data-name="文本框 64">
<rect x="613.35" y="337.93" width="53.31" height="66.24" fill="none" />
<text x="640" y="363.13" text-anchor="middle" xml:space="preserve" font-family="&quot;思源黑体 CN Heavy&quot;, &quot;思源黑体 CN Normal&quot;, sans-serif" font-size="24" fill="#023E80"><tspan fill="#023E80" font-size="24">共进</tspan></text>
</g>
</g></svg>