<?xml version='1.0' encoding='utf-8'?>
<svg xmlns="http://www.w3.org/2000/svg" version="1.1" width="1280" height="720" viewBox="0 0 1280 720"><defs><linearGradient id="ggrad1" x1="1" y1="0.5" x2="0" y2="0.5"><stop offset="0" stop-color="#5088D3" /><stop offset="1" stop-color="#1D4273" /></linearGradient><filter id="fx1" x="-25%" y="-25%" width="150%" height="150%"><feDropShadow dx="0" dy="8" stdDeviation="8.67" flood-color="#1D4273" flood-opacity="0.4" /></filter><linearGradient id="ggrad2" x1="1" y1="0.5" x2="0" y2="0.5"><stop offset="0" stop-color="#5088D3" /><stop offset="1" stop-color="#1D4273" /></linearGradient><filter id="fx2" x="-25%" y="-25%" width="150%" height="150%"><feDropShadow dx="0" dy="8" stdDeviation="8.67" flood-color="#1D4273" flood-opacity="0.4" /></filter><linearGradient id="ggrad3" x1="1" y1="0.5" x2="0" y2="0.5"><stop offset="0" stop-color="#DE7463" /><stop offset="1" stop-color="#A13422" /></linearGradient><filter id="fx3" x="-25%" y="-25%" width="150%" height="150%"><feDropShadow dx="0" dy="8" stdDeviation="8.67" flood-color="#A13422" flood-opacity="0.4" /></filter><filter id="fx4" x="-25%" y="-25%" width="150%" height="150%"><feDropShadow dx="0" dy="4" stdDeviation="2.67" flood-color="#420003" flood-opacity="0.2" /></filter><filter id="fx5" x="-25%" y="-25%" width="150%" height="150%"><feDropShadow dx="0" dy="4" stdDeviation="2.67" flood-color="#420003" flood-opacity="0.2" /></filter><filter id="fx6" x="-25%" y="-25%" width="150%" height="150%"><feDropShadow dx="0" dy="4" stdDeviation="2.67" flood-color="#420003" flood-opacity="0.2" /></filter></defs><rect x="0" y="0" width="1280" height="720" fill="#FFFFFF" />
<g id="shape-57" data-name="任意多边形: 形状 56" transform="translate(642.24 306.23) scale(-1 1) translate(-642.24 -306.23)">
<path d="M 1280 231.23 L 1138.16 231.23 C 213.4 231.23 40.01 231.23 7.5 231.23 L 4.48 231.23 L 4.48 381.23 L 96.57 381.23 C 572.77 381.23 949.97 381.23 1248.73 381.23 L 1280 381.23 Z" fill="#F2F2F2" stroke-width="2.333" stroke="none" />
</g>
<g id="shape-42" data-name="小红书平北职场PPT1-2" transform="translate(906.69 309.49) scale(-1 1) translate(-906.69 -309.49)">
<rect x="663.97" y="257.28" width="485.44" height="104.43" fill="none" />
<text x="673.57" y="275.68" text-anchor="start" xml:space="preserve" font-family="&quot;思源黑体 CN Normal&quot;, sans-serif" font-size="16" fill="#000000"><tspan fill="#000000" font-size="16">市场占有率未达预期，产品质量存在性能不稳定和外观瑕疵等问题</tspan><tspan x="673.57" dy="24" fill="#000000" font-size="16">，影响用户体验和品牌形象。多部门协作沟通不畅，导致产品定位</tspan><tspan x="673.57" dy="24" fill="#000000" font-size="16">与市场需求不匹配</tspan></text>
</g>
<g id="shape-48" data-name="任意多边形: 形状 47" transform="rotate(180 296.6 306.43) translate(296.6 306.43) scale(-1 1) translate(-296.6 -306.43)">
<path d="M 496.44 405.53 C 497.13 405.43 497.81 405.11 498.38 404.54 C 590.63 312.41 590.63 312.41 590.63 312.41 C 594.05 308.99 594.05 303.88 590.63 300.46 C 498.38 208.33 498.38 208.33 498.38 208.33 C 496.1 206.06 492.11 207.76 492.11 210.61 C 492.11 229.94 492.11 229.94 492.11 229.94 C 119.67 229.94 26.56 229.94 3.28 229.94 L 0 229.94 L 0 382.36 L 40.64 382.36 C 492.11 382.36 492.11 382.36 492.11 382.36 C 492.11 401.69 492.11 401.69 492.11 401.69 C 492.11 404.25 494.35 405.85 496.44 405.53 Z" fill="url(#ggrad1)" stroke-width="1" stroke="#FFFFFF" stroke-linejoin="round" filter="url(#fx1)" />
</g>
<g id="shape-35" data-name="小红书平北职场PPT1-4" transform="translate(964.42 452.58) scale(-1 1) translate(-964.42 -452.58)">
<rect x="731.62" y="414.24" width="465.6" height="76.67" fill="none" />
<text x="741.22" y="432.64" text-anchor="start" xml:space="preserve" font-family="&quot;思源黑体 CN Normal&quot;, sans-serif" font-size="16" fill="#000000"><tspan fill="#000000" font-size="16">{{CHAPTER_NUM}}</tspan></text>
</g>
<g id="shape-59" data-name="任意多边形: 形状 58" transform="translate(642.24 591.17) scale(-1 1) translate(-642.24 -591.17)">
<path d="M 1280 515.15 L 1138.16 515.15 C 213.4 515.15 40.01 515.15 7.5 515.15 L 4.48 515.15 L 4.48 667.18 L 96.57 667.18 C 572.77 667.18 949.97 667.18 1248.73 667.18 L 1280 667.18 Z" fill="#F2F2F2" stroke-width="2.333" stroke="none" />
</g>
<g id="shape-38" data-name="小红书平北职场PPT1-6" transform="translate(955.13 605.58) scale(-1 1) translate(-955.13 -605.58)">
<rect x="696.54" y="567.18" width="517.17" height="76.8" fill="none" />
<text x="706.14" y="585.58" text-anchor="start" xml:space="preserve" font-family="&quot;思源黑体 CN Normal&quot;, sans-serif" font-size="16" fill="#000000"><tspan fill="#000000" font-size="16">成本估算不准确导致超支，关键技术难题仍未完全突破，致使项目进度</tspan><tspan x="706.14" dy="24" fill="#000000" font-size="16">延迟。产品功能和操作未完全满足客户期望，客户满意度较低</tspan></text>
</g>
<g id="shape-50" data-name="任意多边形: 形状 49" transform="rotate(180 296.6 591.44) translate(296.6 591.44) scale(-1 1) translate(-296.6 -591.44)">
<path d="M 496.44 691.01 C 497.13 690.85 497.81 690.49 498.38 689.92 C 590.63 597.36 590.63 597.36 590.63 597.36 C 594.05 594.51 594.05 588.79 590.63 585.36 C 498.38 492.81 498.38 492.81 498.38 492.81 C 496.1 490.52 492.11 492.23 492.11 495.66 C 492.11 515.09 492.11 515.09 492.11 515.09 C 119.67 515.09 26.56 515.09 3.28 515.09 L 0 515.09 L 0 668.21 L 40.64 668.21 C 492.11 668.21 492.11 668.21 492.11 668.21 C 492.11 687.64 492.11 687.64 492.11 687.64 C 492.11 690.21 494.35 691.49 496.44 691.01 Z" fill="url(#ggrad2)" stroke-width="1" stroke="#FFFFFF" stroke-linejoin="round" filter="url(#fx2)" />
</g>
<g id="shape-40" data-name="小红书平北职场PPT1-8" transform="translate(246.52 586.07) scale(-1 1) translate(-246.52 -586.07)">
<rect x="23.28" y="529.37" width="446.47" height="113.41" fill="none" />
<text x="32.88" y="554.57" text-anchor="start" xml:space="preserve" font-family="&quot;思源黑体 CN Heavy&quot;, &quot;思源黑体 CN Normal&quot;, sans-serif" font-size="24" fill="#FFFFFF"><tspan fill="#FFFFFF" font-size="24">企业数字化转型项目</tspan></text>
<text x="32.88" y="583.77" text-anchor="start" xml:space="preserve" font-family="&quot;思源黑体 CN Normal&quot;, &quot;思源黑体 CN Heavy&quot;, sans-serif" font-size="16" fill="#FFFFFF"><tspan fill="#FFFFFF" font-size="16">企业数字化转型项目在团队建设方面取得成效，团队协作能</tspan><tspan x="32.88" dy="24" fill="#FFFFFF" font-size="16">力有所提升，项目整体推进了一定进度</tspan></text>
</g>
<g id="shape-32" data-name="小红书平北职场PPT2-1">
<line x1="35.17" y1="72.49" x2="1244.83" y2="72.49" stroke-width="2" stroke="#000000" fill="#1D4273" />
</g>
<g id="shape-33" data-name="小红书平北职场PPT2-2">
<rect x="35.17" y="19.35" width="603.17" height="45.24" fill="none" />
<text x="35.17" y="51.08" text-anchor="start" xml:space="preserve" font-family="&quot;思源黑体 CN Heavy&quot;, &quot;思源黑体 CN Normal&quot;, sans-serif" font-size="37.33" fill="#000000"><tspan fill="#000000" font-size="37.33">{{CHAPTER_TITLE}}</tspan></text>
</g>
<g id="shape-5" data-name="小红书平北职场PPT3" transform="translate(246.52 297.27) scale(-1 1) translate(-246.52 -297.27)">
<rect x="23.28" y="240.57" width="446.47" height="113.41" fill="none" />
<text x="32.88" y="265.77" text-anchor="start" xml:space="preserve" font-family="&quot;思源黑体 CN Heavy&quot;, &quot;思源黑体 CN Normal&quot;, sans-serif" font-size="24" fill="#FFFFFF"><tspan fill="#FFFFFF" font-size="24">{{CHAPTER_DESC}}</tspan></text>
<text x="32.88" y="294.97" text-anchor="start" xml:space="preserve" font-family="&quot;思源黑体 CN Normal&quot;, sans-serif" font-size="16" fill="#FFFFFF"><tspan fill="#FFFFFF" font-size="16">项目</tspan><tspan fill="#FFFFFF" font-size="16">1</tspan><tspan fill="#FFFFFF" font-size="16">成功推出部分新产品，初步进入目标市场并获得客户反</tspan><tspan x="32.88" dy="24" fill="#FFFFFF" font-size="16">馈，为后续改进提供了依据</tspan></text>
</g>
<g id="shape-52" data-name="任意多边形: 形状 51" transform="rotate(180 361.49 449.13) translate(361.49 449.13) scale(-1 1) translate(-361.49 -449.13)">
<path d="M 626.23 548.23 C 626.93 548.13 627.6 547.81 628.17 547.24 C 720.42 455.37 720.42 455.37 720.42 455.37 C 723.84 451.97 723.84 446.3 720.42 442.89 C 628.17 351.02 628.17 351.02 628.17 351.02 C 625.9 348.75 621.91 350.45 621.91 353.86 C 621.91 373.14 621.91 373.14 621.91 373.14 C 152.12 373.14 34.67 373.14 5.31 373.14 L 0 373.14 L 0 525.12 L 52.43 525.12 C 621.91 525.12 621.91 525.12 621.91 525.12 C 621.91 544.4 621.91 544.4 621.91 544.4 C 621.91 546.96 624.15 548.55 626.23 548.23 Z" fill="url(#ggrad3)" stroke-width="1" stroke="#FFFFFF" stroke-linejoin="round" filter="url(#fx3)" />
</g>
<g id="shape-31" data-name="小红书平北职场PPT4-2" transform="translate(316.68 445.96) scale(-1 1) translate(-316.68 -445.96)">
<rect x="23.28" y="389.25" width="586.8" height="113.41" fill="none" />
<text x="32.88" y="414.45" text-anchor="start" xml:space="preserve" font-family="&quot;思源黑体 CN Heavy&quot;, &quot;思源黑体 CN Normal&quot;, sans-serif" font-size="24" fill="#FFFFFF"><tspan fill="#FFFFFF" font-size="24">新能源汽车电池技术研发项目</tspan></text>
<text x="32.88" y="443.65" text-anchor="start" xml:space="preserve" font-family="&quot;思源黑体 CN Normal&quot;, sans-serif" font-size="16" fill="#FFFFFF"><tspan fill="#FFFFFF" font-size="16">新能源汽车电池技术研发取得进展，攻克了能量密度提升、快速充电、热管理等</tspan><tspan x="32.88" dy="24" fill="#FFFFFF" font-size="16">技术难题，提升了电池性能与安全性，为产品开发和商业化应用奠定了基础</tspan></text>
</g>
<g id="shape-7" data-name="小红书平北职场PPT5">
<rect x="35.17" y="93.01" width="1192.38" height="112.7" fill="none" />
<text x="44.77" y="118.21" text-anchor="start" xml:space="preserve" font-family="&quot;思源黑体 CN Heavy&quot;, &quot;思源黑体 CN Normal&quot;, sans-serif" font-size="24" fill="#000000"><tspan fill="#000000" font-size="24">三个项目虽有成果，但暴露出市场占有率低、产品质量欠佳、成本超支、进度延迟、客户满意度低、团队士气</tspan><tspan x="44.77" dy="28.8" fill="#000000" font-size="24">低落等问题。未来，我们将加强市场调研，完善质量控制，优化成本管理，加大技术研发，提升团队协作，确</tspan><tspan x="44.77" dy="28.8" fill="#000000" font-size="24">保项目目标顺利实现</tspan></text>
</g>
<g id="shape-8" data-name="小红书平北职场PPT6">
<path d="M 528.37 276.7 L 521.39 276.7 L 521.39 274.49 C 521.39 273.2 520.35 272.16 519.07 272.16 C 517.78 272.16 516.74 273.2 516.74 274.49 L 516.74 276.7 L 500.46 276.7 L 500.46 274.49 C 500.46 273.2 499.42 272.16 498.13 272.16 C 496.85 272.16 495.81 273.2 495.81 274.49 L 495.81 276.7 L 488.83 276.7 C 486.95 276.66 485.39 278.15 485.34 280.03 L 485.34 315.47 C 485.39 317.35 486.95 318.83 488.83 318.79 L 528.37 318.79 C 530.25 318.83 531.81 317.35 531.86 315.47 L 531.86 280.03 C 531.81 278.15 530.25 276.66 528.37 276.7 Z M 513.25 303.28 L 494.65 303.28 C 493.42 303.33 492.39 302.38 492.35 301.16 C 492.3 299.93 493.25 298.9 494.48 298.86 C 494.53 298.85 494.59 298.85 494.65 298.86 L 513.25 298.86 C 514.48 298.81 515.51 299.76 515.55 300.99 C 515.6 302.21 514.65 303.24 513.42 303.28 C 513.37 303.29 513.31 303.29 513.25 303.28 Z M 522.56 292.21 L 494.65 292.21 C 493.42 292.26 492.39 291.3 492.35 290.08 C 492.3 288.86 493.25 287.83 494.48 287.78 C 494.53 287.78 494.59 287.78 494.65 287.78 L 522.56 287.78 C 523.78 287.73 524.81 288.69 524.86 289.91 C 524.9 291.13 523.95 292.16 522.73 292.21 C 522.67 292.21 522.61 292.21 522.56 292.21 Z" fill="#FFFFFF" stroke-width="0.095" stroke-linecap="butt" stroke="none" stroke-linejoin="miter" filter="url(#fx4)" />
</g>
<g id="shape-9" data-name="小红书平北职场PPT7">
<path d="M 636.13 422.65 L 636.13 419.86 C 636.13 418.32 637.37 417.08 638.91 417.08 L 650.05 417.08 C 651.59 417.08 652.83 418.32 652.83 419.86 L 652.83 422.65 L 661.19 422.65 C 662.73 422.65 663.97 423.89 663.97 425.43 L 663.97 469.99 C 663.97 471.52 662.73 472.77 661.19 472.77 L 627.77 472.77 C 626.23 472.77 624.99 471.52 624.99 469.99 L 624.99 425.43 C 624.99 423.89 626.23 422.64 627.77 422.64 L 636.13 422.65 Z M 647.26 444.92 L 647.26 431 L 633.34 450.49 L 641.7 450.49 L 641.7 464.42 L 655.62 444.92 L 647.26 444.92 Z" fill="#FFFFFF" stroke-width="0.095" stroke-linecap="butt" stroke="none" stroke-linejoin="miter" filter="url(#fx5)" />
</g>
<g id="shape-10" data-name="小红书平北职场PPT8">
<path d="M 531.63 593.89 C 531.25 593.89 530.83 593.4 530.83 593.03 L 530.83 577.99 C 530.83 576.88 529.91 575.97 528.8 575.97 L 492.46 575.97 C 491.34 575.97 490.42 576.88 490.42 578 L 490.42 582.07 L 489.27 582.07 C 488.15 582.07 487.24 582.98 487.24 584.1 L 487.24 589.17 L 486.09 589.17 C 484.97 589.17 484.05 590.08 484.05 591.2 L 484.05 596.86 C 484.04 596.97 484.03 597.07 484.03 597.18 L 484.03 621.36 C 484.03 621.47 484.04 621.57 484.05 621.68 L 484.05 622.44 C 484.07 623.17 484.65 623.75 485.38 623.77 L 486.08 623.77 C 486.21 623.79 486.34 623.79 486.47 623.79 L 529.42 623.79 C 529.55 623.8 529.68 623.79 529.81 623.77 L 530.5 623.77 C 531.23 623.75 531.81 623.17 531.83 622.44 L 531.83 621.72 C 531.84 621.6 531.85 621.48 531.85 621.36 L 531.85 597.18 C 531.85 597.05 531.92 593.89 531.63 593.89 Z M 519.43 606.2 C 518.87 606.59 518.21 606.79 517.53 606.79 C 517.16 606.79 516.79 606.73 516.44 606.62 L 513.63 610.36 C 514.84 612.04 514.23 614.48 512.18 615.34 C 511.23 615.74 510.13 615.67 509.25 615.13 C 507.71 614.19 507.23 612.34 507.95 610.86 L 503.55 606.47 C 502.79 606.83 501.93 606.89 501.12 606.64 L 496.48 612.83 C 496.81 613.99 496.14 615.2 494.98 615.53 C 493.81 615.87 492.6 615.2 492.26 614.04 C 491.92 612.88 492.6 611.67 493.76 611.33 C 494.18 611.21 494.62 611.22 495.03 611.35 L 499.46 605.46 C 498.37 604 498.67 601.94 500.14 600.85 C 501.61 599.76 503.68 600.06 504.77 601.52 C 505.54 602.55 505.64 603.93 505.03 605.06 L 509.36 609.38 C 510.17 608.94 511.11 608.86 511.98 609.15 L 514.81 605.38 C 513.58 603.63 514.3 601.11 516.5 600.35 C 517.54 599.99 518.73 600.2 519.59 600.9 C 521.38 602.37 521.18 604.98 519.43 606.2 Z M 520.84 593.06 C 520.84 593.45 520.52 593.77 520.13 593.77 L 504.51 593.77 C 504.33 593.77 504.15 593.7 504.01 593.57 L 498.65 589.61 C 498.42 589.37 498.1 589.24 497.77 589.26 L 491.82 589.26 C 491.43 589.26 491.11 588.94 491.11 588.55 L 491.11 586.58 C 491.11 586.19 491.43 585.88 491.82 585.88 L 520.13 585.88 C 520.52 585.88 520.84 586.19 520.84 586.58 L 520.84 593.06 Z M 527.05 580.48 L 527.05 593.77 L 524.57 593.77 L 524.57 584.1 C 524.57 582.98 523.66 582.07 522.55 582.07 L 494.27 582.07 L 494.27 579.78 L 526.34 579.78 C 526.73 579.78 527.05 580.09 527.05 580.48 Z" fill="#FFFFFF" stroke-width="0.095" stroke-linecap="butt" stroke="none" stroke-linejoin="miter" filter="url(#fx6)" />
</g></svg>