<?xml version='1.0' encoding='utf-8'?>
<svg xmlns="http://www.w3.org/2000/svg" version="1.1" width="1280" height="720" viewBox="0 0 1280 720"><defs><radialGradient id="ggrad1" cx="0.5" cy="0.5" r="0.5"><stop offset="0" stop-color="#D0CECE" /><stop offset="1" stop-color="#767171" /></radialGradient><filter id="fx1" x="-25%" y="-25%" width="150%" height="150%"><feDropShadow dx="0" dy="8" stdDeviation="8.67" flood-color="#767171" flood-opacity="0.2" /></filter><linearGradient id="ggrad2" x1="0" y1="0.5" x2="1" y2="0.5"><stop offset="0" stop-color="#5088D3" /><stop offset="1" stop-color="#1D4273" /></linearGradient><filter id="fx2" x="-25%" y="-25%" width="150%" height="150%"><feDropShadow dx="0" dy="4" stdDeviation="5.33" flood-color="#A13422" flood-opacity="0.28" /></filter><linearGradient id="txtgrad3" x1="0" y1="0.5" x2="1" y2="0.5"><stop offset="0" stop-color="#5088D3" /><stop offset="1" stop-color="#1D4273" /></linearGradient><linearGradient id="txtgrad4" x1="0" y1="0.5" x2="1" y2="0.5"><stop offset="0" stop-color="#5088D3" /><stop offset="1" stop-color="#1D4273" /></linearGradient><linearGradient id="ggrad5" x1="0" y1="0.5" x2="1" y2="0.5"><stop offset="0" stop-color="#DE7463" /><stop offset="1" stop-color="#A13422" /></linearGradient><filter id="fx3" x="-25%" y="-25%" width="150%" height="150%"><feDropShadow dx="0" dy="4" stdDeviation="5.33" flood-color="#A13422" flood-opacity="0.28" /></filter><linearGradient id="txtgrad6" x1="0" y1="0.5" x2="1" y2="0.5"><stop offset="0" stop-color="#DE7463" /><stop offset="1" stop-color="#A13422" /></linearGradient><linearGradient id="ggrad7" x1="0" y1="0.5" x2="1" y2="0.5"><stop offset="0" stop-color="#5088D3" /><stop offset="1" stop-color="#1D4273" /></linearGradient><filter id="fx4" x="-25%" y="-25%" width="150%" height="150%"><feDropShadow dx="0" dy="4" stdDeviation="5.33" flood-color="#A13422" flood-opacity="0.28" /></filter><linearGradient id="txtgrad8" x1="0" y1="0.5" x2="1" y2="0.5"><stop offset="0" stop-color="#5088D3" /><stop offset="1" stop-color="#1D4273" /></linearGradient><radialGradient id="ggrad9" cx="0.5" cy="0.5" r="0.5"><stop offset="0" stop-color="#5088D3" /><stop offset="1" stop-color="#1D4273" /></radialGradient><linearGradient id="txtgrad10" x1="0.5" y1="0" x2="0.5" y2="1"><stop offset="0" stop-color="#FFFFFF" stop-opacity="0.65" /><stop offset="1" stop-color="#FFFFFF" stop-opacity="0" /></linearGradient><filter id="fx5" x="-25%" y="-25%" width="150%" height="150%"><feDropShadow dx="0" dy="7.62" stdDeviation="8.25" flood-color="#000000" flood-opacity="0.2" /></filter><marker id="marrow1" viewBox="0 0 10 10" refX="0" refY="5" markerWidth="5" markerHeight="5" orient="auto-start-reverse" markerUnits="strokeWidth"><path d="M 0 0 L 10 5 L 0 10 z" fill="#1D4273" /></marker><radialGradient id="ggrad11" cx="0.5" cy="0.5" r="0.5"><stop offset="0" stop-color="#DE7463" /><stop offset="1" stop-color="#A13422" /></radialGradient><linearGradient id="txtgrad12" x1="0.5" y1="0" x2="0.5" y2="1"><stop offset="0" stop-color="#FFFFFF" stop-opacity="0.65" /><stop offset="1" stop-color="#FFFFFF" stop-opacity="0" /></linearGradient><filter id="fx6" x="-25%" y="-25%" width="150%" height="150%"><feDropShadow dx="0" dy="7.62" stdDeviation="8.25" flood-color="#000000" flood-opacity="0.2" /></filter><marker id="marrow2" viewBox="0 0 10 10" refX="0" refY="5" markerWidth="5" markerHeight="5" orient="auto-start-reverse" markerUnits="strokeWidth"><path d="M 0 0 L 10 5 L 0 10 z" fill="#A13422" /></marker><radialGradient id="ggrad13" cx="0.5" cy="0.5" r="0.5"><stop offset="0" stop-color="#5088D3" /><stop offset="1" stop-color="#1D4273" /></radialGradient><linearGradient id="txtgrad14" x1="0.5" y1="0" x2="0.5" y2="1"><stop offset="0" stop-color="#FFFFFF" stop-opacity="0.65" /><stop offset="1" stop-color="#FFFFFF" stop-opacity="0" /></linearGradient><filter id="fx7" x="-25%" y="-25%" width="150%" height="150%"><feDropShadow dx="0" dy="7.62" stdDeviation="8.25" flood-color="#000000" flood-opacity="0.2" /></filter><marker id="marrow3" viewBox="0 0 10 10" refX="0" refY="5" markerWidth="5" markerHeight="5" orient="auto-start-reverse" markerUnits="strokeWidth"><path d="M 0 0 L 10 5 L 0 10 z" fill="#1D4273" /></marker><linearGradient id="ggrad15" x1="0" y1="0" x2="1" y2="1"><stop offset="0" stop-color="#5088D3" /><stop offset="1" stop-color="#1D4273" /></linearGradient><filter id="fx8" x="-25%" y="-25%" width="150%" height="150%"><feDropShadow dx="0" dy="8" stdDeviation="8.67" flood-color="#1D4273" flood-opacity="0.4" /></filter></defs><rect x="0" y="0" width="1280" height="720" fill="#FFFFFF" />
<g id="shape-3" data-name="小红书平北职场PPT1">
<g id="shape-80" data-name="小红书平北职场PPT1-1">
<path d="M 639.56 539.19 L 639.56 241.47 M 659.19 241.47 L 659.19 539.19" fill="none" stroke-width="0.62" stroke-linecap="butt" stroke="#595757" stroke-dasharray="4 4" stroke-linejoin="miter" />
</g>
<g id="shape-81" data-name="组合 80">
<g id="shape-82" data-name="小红书平北职场PPT1-2">
<rect x="587.06" y="197.58" width="124.73" height="33.49" rx="5.58" ry="5.58" fill="url(#ggrad1)" stroke-linecap="butt" stroke="#FFFFFF" stroke-linejoin="miter" filter="url(#fx1)" />
</g>
<g id="shape-83" data-name="小红书平北职场PPT1-3">
<rect x="595.93" y="204.86" width="106.4" height="20.6" fill="none" />
<text x="649.13" y="223" text-anchor="middle" xml:space="preserve" font-family="&quot;思源黑体 CN Heavy&quot;, &quot;思源黑体 CN Normal&quot;, sans-serif" font-size="21.33" fill="#FFFFFF" font-weight="bold" letter-spacing="0.13"><tspan fill="#FFFFFF" font-size="21.33" font-weight="bold" letter-spacing="0.13">结构详细</tspan></text>
</g>
</g>
</g>
<g id="shape-4" data-name="小红书平北职场PPT2">
<ellipse cx="638.37" cy="457.71" rx="172.65" ry="172.65" fill="#FFFFFF" stroke-width="1.333" stroke-linecap="butt" stroke="none" stroke-linejoin="miter" />
</g>
<g id="shape-5" data-name="小红书平北职场PPT3-1">
<line x1="35.17" y1="72.49" x2="1244.83" y2="72.49" stroke-width="2" stroke="#000000" fill="#1D4273" />
</g>
<g id="shape-6" data-name="小红书平北职场PPT5">
<g id="shape-76" data-name="小红书平北职场PPT5-1" transform="translate(636.93 443.47) scale(1 -1) translate(-636.93 -443.47)">
<path d="M 614.42 606.01 C 613.5 605.71 612.06 605.35 611.22 605.18 C 610.39 605.02 609.36 604.66 608.94 604.35 C 608.55 604.08 607.64 603.69 606.97 603.49 C 606.28 603.33 605.5 602.94 605.22 602.66 C 604.97 602.39 604.58 602.14 604.39 602.14 C 604.22 602.14 603.55 601.72 602.94 601.25 C 602.33 600.76 601.14 599.84 600.27 599.23 C 599.39 598.62 598.5 597.85 598.27 597.52 C 597.63 596.52 596 596.66 594.47 597.82 C 593.8 598.35 592.94 598.85 592.58 598.96 C 592.22 599.07 591.61 599.37 591.22 599.65 C 590.83 599.93 590.22 600.23 589.83 600.34 C 589.44 600.45 588.63 600.81 588.02 601.17 C 587.41 601.5 586.02 601.94 584.94 602.11 C 583.85 602.28 582.49 602.61 581.88 602.89 C 581.02 603.25 579.94 603.36 576.49 603.36 C 572.74 603.38 571.99 603.3 570.65 602.8 C 569.82 602.47 568.35 602.11 567.4 602 C 566.26 601.89 565.4 601.59 564.79 601.14 C 564.29 600.78 563.68 600.48 563.46 600.48 C 563.21 600.48 562.65 600.28 562.18 600.04 C 561.73 599.79 560.79 599.29 560.1 598.9 C 559.4 598.54 558.29 597.82 557.59 597.3 C 556.9 596.77 556.04 596.11 555.65 595.86 C 553.65 594.45 548.93 588.86 548.18 587 C 547.76 585.95 546.76 585.65 545.17 586.06 C 543.34 586.53 535.75 586.73 532.73 586.37 C 529.89 586.03 525.53 584.76 524.25 583.88 C 523.86 583.63 523.2 583.32 522.72 583.21 C 521.86 582.99 519.94 581.88 518.69 580.86 C 516.25 578.87 515.22 578.07 515.05 578.07 C 514.97 578.07 514.25 577.29 513.47 576.35 C 512.05 574.61 511.02 573.42 510.02 572.25 C 509.72 571.92 509.27 571.12 509.05 570.46 C 508.83 569.79 508.47 569.1 508.25 568.91 C 508.05 568.74 507.72 568.1 507.55 567.47 C 507.38 566.86 507.02 566.03 506.75 565.64 C 506.41 565.17 506.11 564.06 505.91 562.54 C 505.77 561.24 505.44 559.5 505.19 558.67 C 504.88 557.7 504.8 556.65 504.88 555.68 C 505.05 554.27 505 554.13 504.13 553.27 C 503.61 552.75 502.66 552.22 501.8 551.94 C 500.99 551.72 499.99 551.28 499.58 551 C 499.16 550.7 498.52 550.37 498.13 550.26 C 497.19 549.98 493.8 547.66 491.8 545.94 C 490.49 544.83 487.02 540.68 487.02 540.27 C 487.02 540.1 486.82 539.77 486.55 539.58 C 486.3 539.35 485.93 538.8 485.74 538.3 C 485.52 537.83 485.04 536.97 484.66 536.39 C 484.27 535.84 483.96 535.12 483.96 534.79 C 483.96 534.46 483.68 533.71 483.38 533.1 C 483.04 532.52 482.57 530.78 482.27 529.23 C 481.99 527.7 481.63 525.77 481.43 524.94 C 481.04 523.17 481.27 518.71 481.88 516.22 C 482.29 514.48 482.4 512.54 482.13 511.82 C 482.04 511.57 481.43 511.24 480.82 511.07 C 480.18 510.91 479.32 510.47 478.88 510.11 C 478.43 509.75 477.99 509.44 477.85 509.44 C 477.1 509.44 470.57 503.49 469.9 502.19 C 469.68 501.75 469.4 501.42 469.29 501.42 C 469.18 501.42 468.85 501 468.54 500.53 C 468.26 500.03 467.73 499.26 467.37 498.84 C 467.01 498.4 466.73 497.82 466.73 497.57 C 466.73 497.29 466.46 496.74 466.15 496.33 C 465.82 495.91 465.43 495.05 465.29 494.44 C 465.15 493.81 464.79 492.95 464.48 492.54 C 464.15 492.04 463.84 490.96 463.65 489.46 C 463.51 488.19 463.2 486.53 462.98 485.73 C 462.76 484.95 462.57 483.35 462.57 482.13 C 462.57 479.34 463.73 472.5 464.45 471.09 C 464.76 470.48 465.12 469.49 465.23 468.9 C 465.32 468.3 465.79 467.3 466.21 466.72 C 466.65 466.11 467.01 465.5 467.01 465.33 C 467.01 465.2 467.29 464.78 467.59 464.45 C 468.21 463.81 468.35 463.59 469.37 461.85 C 469.68 461.32 470.73 460.05 471.71 459 L 473.51 457.12 L 472.87 452.22 C 472.04 446.02 472.18 443.53 473.54 438.05 C 474.1 435.7 474.99 433.4 475.6 432.63 C 475.9 432.24 476.21 431.58 476.32 431.16 C 476.4 430.72 476.74 430.14 477.04 429.86 C 477.32 429.61 477.57 429.22 477.57 429.03 C 477.57 428.51 482.96 422.31 483.91 421.73 C 484.38 421.45 484.82 421.09 484.93 420.92 C 485.02 420.76 485.54 420.43 486.07 420.2 C 486.6 419.98 487.02 419.68 487.02 419.54 C 487.02 419.37 487.43 419.04 487.91 418.79 C 488.41 418.54 489.07 418.13 489.38 417.85 C 489.68 417.58 490.46 417.22 491.13 417.02 C 491.77 416.86 492.71 416.5 493.21 416.22 C 493.69 415.94 494.58 415.61 495.16 415.5 C 495.74 415.42 496.74 415.06 497.38 414.72 C 498.47 414.14 498.97 414.12 505.02 414.06 L 511.47 414.01 L 513.83 411.71 C 516.39 409.19 517.64 408.17 518.69 407.61 C 519.08 407.42 519.64 407.06 519.94 406.78 C 520.25 406.51 520.81 406.2 521.17 406.09 C 521.5 405.98 522.25 405.59 522.78 405.23 C 523.33 404.87 524.03 404.57 524.33 404.57 C 524.64 404.57 525.53 404.27 526.31 403.88 C 528.47 402.85 535.98 401.75 538.56 402.08 C 543.7 402.77 543.23 402.8 544.15 401.72 C 544.65 401.17 545.09 400.31 545.17 399.67 C 545.29 399.06 545.56 398.4 545.79 398.21 C 546.01 398.01 546.45 397.35 546.79 396.71 C 547.09 396.1 547.73 394.86 548.23 394 C 548.73 393.14 549.4 391.92 549.73 391.34 C 550.06 390.73 550.45 390.18 550.56 390.13 C 550.79 390.04 553.62 386.45 554.54 385.09 C 555.65 383.46 561.96 377.65 564.12 376.26 C 564.74 375.85 565.74 375.16 566.35 374.71 C 566.96 374.24 567.96 373.61 568.57 373.27 C 569.18 372.94 569.99 372.44 570.35 372.17 C 570.71 371.86 571.21 371.64 571.49 371.64 C 571.77 371.64 572.29 371.39 572.68 371.09 C 573.07 370.78 573.91 370.34 574.52 370.12 C 575.13 369.93 575.99 369.48 576.41 369.21 C 576.82 368.9 577.74 368.57 578.43 368.49 C 579.1 368.38 580.05 368.07 580.52 367.77 C 580.99 367.46 581.94 367.16 582.6 367.05 C 583.3 366.94 584.49 366.61 585.24 366.33 C 589.24 364.78 605.33 364.06 621.03 364.72 L 627.39 365 L 628.17 364.39 C 628.98 363.73 629.37 363.01 629.7 361.54 C 629.81 361.1 630.09 360.49 630.34 360.19 C 630.81 359.69 631.48 358.5 632.7 356.01 C 633.09 355.23 633.59 354.43 633.84 354.24 C 634.09 354.04 634.29 353.74 634.29 353.6 C 634.29 353.46 634.65 352.88 635.12 352.33 C 635.56 351.77 636.4 350.75 636.92 350.06 C 637.48 349.37 638.2 348.48 638.54 348.07 C 639.06 347.4 644.98 341.48 646.65 339.96 C 647.29 339.35 651.12 336.39 652.18 335.67 C 652.51 335.45 653.07 334.98 653.4 334.62 C 653.74 334.29 654.15 334.01 654.32 334.01 C 654.49 334.01 654.96 333.76 655.35 333.43 C 656.6 332.49 657.99 331.57 659.15 330.94 C 659.77 330.61 660.32 330.25 660.4 330.14 C 660.49 330.02 661.07 329.67 661.71 329.33 C 662.35 329.03 662.93 328.64 663.02 328.5 C 663.13 328.36 663.66 328.09 664.24 327.89 C 664.79 327.73 665.6 327.29 666.02 326.93 C 666.43 326.59 667.16 326.23 667.6 326.12 C 668.05 326.04 668.63 325.71 668.88 325.43 C 669.13 325.15 669.74 324.82 670.24 324.71 C 670.71 324.6 671.77 324.16 672.6 323.74 C 673.44 323.3 674.3 322.94 674.55 322.94 C 674.83 322.94 675.44 322.64 675.91 322.28 C 676.41 321.92 677.3 321.56 677.91 321.45 C 678.49 321.36 679.58 320.98 680.3 320.59 C 681.02 320.2 681.77 319.9 681.99 319.9 C 682.22 319.9 682.91 319.59 683.55 319.23 C 684.19 318.87 685.16 318.43 685.72 318.26 C 686.27 318.07 686.97 317.68 687.22 317.41 C 687.5 317.1 687.88 316.85 688.05 316.85 C 688.25 316.85 688.86 316.49 689.44 316.02 C 690.02 315.58 690.64 315.19 690.8 315.19 C 691 315.19 691.39 314.94 691.72 314.67 C 692.03 314.36 692.78 313.87 693.36 313.53 C 695.44 312.4 696.42 311.73 697.86 310.35 C 698.64 309.6 700.08 308.28 701.03 307.45 C 703.17 305.56 706.25 302.41 706.25 302.13 C 706.25 302.02 706.59 301.55 707.03 301.11 C 708.2 299.84 709.06 298.81 709.53 298.04 C 709.92 297.43 710.86 296.21 711.89 295.02 C 712.25 294.61 713.03 293.2 714.03 291.2 C 714.34 290.57 714.73 289.96 714.87 289.87 C 715.03 289.76 715.39 289.24 715.7 288.68 C 716.25 287.61 719.62 283.93 720.03 283.93 C 720.17 283.93 720.78 283.54 721.37 283.1 C 721.98 282.63 722.62 282.27 722.78 282.27 C 722.98 282.27 723.45 281.99 723.87 281.68 C 724.29 281.35 725.54 280.91 726.62 280.69 C 727.73 280.47 729.12 280.16 729.73 280.05 C 731.26 279.72 734.12 279.72 735.01 280.05 C 735.4 280.19 736.57 280.44 737.59 280.61 C 738.68 280.8 739.87 281.19 740.43 281.57 C 740.96 281.91 741.71 282.29 742.1 282.4 C 742.9 282.65 746.29 285.48 747.51 286.94 C 748.82 288.49 749.82 290.07 750.18 291.12 C 750.38 291.65 750.77 292.39 751.04 292.78 C 752.27 294.5 752.24 302.85 750.96 305.79 C 750.65 306.5 750.24 307.75 750.04 308.58 C 749.63 310.24 748.82 312.26 747.63 314.78 C 747.18 315.69 746.82 316.63 746.82 316.88 C 746.82 317.13 746.57 317.63 746.29 317.99 C 746.01 318.38 745.6 319.23 745.4 319.9 C 745.21 320.59 744.87 321.34 744.68 321.61 C 744.46 321.86 744.1 322.64 743.9 323.36 C 743.68 324.05 743.26 324.99 742.93 325.43 C 742.62 325.85 742.37 326.4 742.37 326.62 C 742.37 326.84 742.04 327.62 741.65 328.36 C 741.23 329.11 740.73 330.3 740.54 330.99 C 740.32 331.71 739.98 332.43 739.76 332.6 C 739.54 332.79 739.29 333.43 739.18 334.01 C 739.07 334.62 738.76 335.39 738.48 335.75 C 737.76 336.67 737.51 337.8 737.93 338.3 C 738.12 338.55 738.73 338.71 739.43 338.71 C 740.07 338.71 741.26 338.91 742.1 339.16 C 742.93 339.38 744.49 339.82 745.54 340.12 C 746.6 340.4 747.76 340.84 748.15 341.09 C 748.51 341.31 749.4 341.7 750.15 341.92 C 750.88 342.14 751.54 342.48 751.63 342.7 C 751.71 342.92 752.27 343.25 752.85 343.42 C 753.43 343.61 754.24 344.03 754.68 344.36 C 756.43 345.71 757.71 346.66 758.8 347.43 C 760.32 348.56 761.94 350.2 764.83 353.66 C 767.27 356.62 767.88 357.47 768.63 359.19 C 768.88 359.72 769.19 360.35 769.33 360.57 C 770.33 362.15 771.83 365.66 772.08 366.94 C 772.22 367.8 772.61 369.15 772.94 369.98 C 774.16 372.97 773.99 383.98 772.72 386.5 C 772.41 387.08 772.08 388 771.97 388.52 C 771.86 389.05 771.52 389.74 771.24 390.07 C 770.58 390.79 770.24 392.53 770.69 393.03 C 770.85 393.25 771.77 393.5 772.69 393.61 C 773.63 393.7 774.8 394.03 775.27 394.3 C 775.75 394.61 776.75 395 777.52 395.19 C 778.27 395.38 779.33 395.83 779.83 396.19 C 780.36 396.55 780.94 396.82 781.14 396.82 C 781.33 396.82 781.66 397.02 781.86 397.29 C 782.08 397.54 782.69 397.93 783.22 398.18 C 783.75 398.43 784.44 398.84 784.75 399.12 C 789.94 403.68 790.72 404.49 792.39 406.92 C 792.61 407.28 793.03 407.83 793.31 408.19 C 794.5 409.8 795.25 411.16 795.61 412.35 C 795.83 413.06 796.2 413.78 796.39 413.98 C 796.61 414.14 796.95 414.97 797.11 415.78 C 797.28 416.61 797.7 417.99 798.03 418.88 C 798.59 420.34 798.64 421.03 798.67 427.18 L 798.72 433.87 L 799.78 434.79 C 801.59 436.31 802.23 437.08 804.92 440.65 C 805.81 441.87 806.56 443.06 806.56 443.31 C 806.56 443.56 806.87 444.17 807.26 444.69 C 807.64 445.22 807.95 445.83 807.95 446.08 C 807.95 446.35 808.26 447.16 808.64 447.87 C 809.06 448.65 809.48 450.01 809.62 451.17 C 809.76 452.25 810.06 453.69 810.28 454.35 C 810.87 455.98 810.9 462.82 810.34 464.2 C 810.12 464.7 809.78 466.08 809.62 467.24 C 809.45 468.43 808.98 469.96 808.62 470.65 C 808.26 471.34 807.95 472.11 807.95 472.36 C 807.95 472.64 807.7 473.17 807.39 473.55 C 807.06 473.94 806.67 474.69 806.5 475.19 C 806.23 475.99 804.95 477.87 804 478.84 C 803.81 479.06 803.14 479.86 802.53 480.66 C 801.48 482.05 800.39 483.15 798.7 484.59 L 797.89 485.26 L 798.36 486.89 C 798.64 487.8 799.09 489.02 799.36 489.57 C 799.67 490.13 800 491.46 800.17 492.48 C 800.31 493.53 800.61 494.91 800.86 495.58 C 801.45 497.21 801.45 503.38 800.86 504.99 C 800.64 505.62 800.34 507.15 800.2 508.34 C 800.03 509.55 799.73 510.83 799.5 511.19 C 799.25 511.52 798.89 512.35 798.64 513.04 C 798.42 513.7 798.03 514.45 797.84 514.7 C 797.61 514.92 797.36 515.42 797.25 515.81 C 797.06 516.44 795.36 519.1 793.97 520.9 C 792.31 523.08 786.42 528.26 785.58 528.26 C 785.42 528.26 784.86 528.56 784.33 528.89 C 783.8 529.25 782.94 529.7 782.44 529.86 C 781.94 530.03 781.19 530.42 780.77 530.72 C 780.36 531 779.27 531.38 778.36 531.55 C 775.83 531.99 775.58 532.44 775.33 536.48 C 775.08 540.85 773.97 545.33 772.61 547.35 C 772.36 547.74 772.08 548.46 771.97 548.93 C 771.86 549.43 771.66 549.9 771.55 549.98 C 771.41 550.06 770.6 551.17 769.8 552.41 C 768.97 553.66 767.63 555.38 766.8 556.21 C 764.91 558.14 761.27 561.19 760.82 561.19 C 760.63 561.19 760.13 561.46 759.68 561.82 C 758.63 562.68 755.52 564.15 754.32 564.37 C 753.79 564.48 752.91 564.81 752.38 565.12 C 751.4 565.7 749.68 565.95 743.76 566.31 C 742.32 566.42 740.85 566.53 740.48 566.61 C 739.76 566.75 739.04 568.16 739.04 569.43 C 739.04 569.87 738.79 570.57 738.46 570.98 C 738.15 571.37 737.76 572.14 737.62 572.7 C 737.46 573.22 737.04 574.11 736.65 574.66 C 736.29 575.22 735.98 575.82 735.98 576.02 C 735.98 576.24 735.4 577.15 734.68 578.09 C 733.93 579.01 733.15 580.09 732.9 580.44 C 732.01 581.8 730.9 582.85 727.93 585.2 C 725.23 587.31 724.65 587.69 723.7 588 C 723.15 588.19 722.53 588.52 722.37 588.72 C 722.17 588.94 721.51 589.27 720.87 589.44 C 720.26 589.6 719.42 589.96 719.03 590.24 C 718.62 590.54 717.34 590.88 716.03 591.07 C 714.78 591.24 713.34 591.54 712.78 591.76 C 711.42 592.34 704.2 592.34 702.83 591.76 C 702.31 591.54 700.94 591.21 699.81 591.04 C 698.69 590.88 697.28 590.49 696.67 590.16 C 695.3 589.47 693.05 588.86 692.75 589.11 C 692.61 589.19 692.14 589.77 691.69 590.38 C 690.47 592.01 685.41 596.91 684.44 597.35 C 683.58 597.74 682.24 598.62 680.94 599.62 C 680.52 599.93 679.69 600.28 679.05 600.45 C 678.41 600.59 677.58 600.89 677.19 601.17 C 676.55 601.59 675.35 601.89 669.71 603.13 C 667.21 603.69 661.21 603.44 659.29 602.69 C 658.6 602.42 657.35 602.11 656.51 602 C 655.18 601.81 653.1 600.98 650.96 599.73 C 650.57 599.51 649.85 599.15 649.35 598.93 C 648.85 598.71 647.9 598.15 647.29 597.71 C 645.84 596.66 644.23 596.58 643.62 597.52 C 643.4 597.85 642.51 598.62 641.62 599.23 C 640.76 599.84 639.56 600.76 638.95 601.25 C 638.34 601.72 637.68 602.14 637.51 602.14 C 637.31 602.14 636.92 602.39 636.67 602.66 C 636.4 602.94 635.62 603.33 634.92 603.52 C 634.2 603.69 633.34 604.08 632.98 604.35 C 632.62 604.63 631.59 605.02 630.73 605.18 C 629.87 605.35 628.34 605.74 627.37 606.04 C 624.84 606.82 616.86 606.79 614.42 606.01 Z M 625 592.98 C 626.67 592.68 628.37 592.18 628.76 591.9 C 629.17 591.62 629.95 591.21 630.51 590.96 C 631.06 590.74 631.51 590.43 631.51 590.3 C 631.51 590.16 631.9 589.88 632.34 589.69 C 632.81 589.49 633.95 588.44 634.92 587.36 C 635.87 586.28 636.73 585.34 636.81 585.26 C 636.92 585.18 637.26 584.62 637.59 584.01 C 637.93 583.41 638.37 582.6 638.59 582.22 C 638.79 581.83 639.12 581.14 639.29 580.67 C 639.45 580.2 640.15 579.2 640.79 578.45 L 642.01 577.1 L 643.93 577.1 C 645.84 577.1 645.9 577.12 647.04 578.23 C 647.65 578.87 648.18 579.5 648.18 579.67 C 648.18 580.03 651.15 583.79 652.01 584.54 C 652.21 584.71 652.6 585.07 652.85 585.34 C 653.49 586.03 656.43 588.03 656.82 588.03 C 656.99 588.03 657.63 588.33 658.26 588.69 C 659.46 589.41 664.96 590.43 665.91 590.13 C 666.16 590.05 667.6 589.85 669.1 589.69 C 671.3 589.47 672.07 589.24 673.35 588.52 C 674.21 588.05 675.21 587.36 675.58 587 C 675.94 586.67 676.38 586.37 676.6 586.37 C 677.22 586.37 680.91 582.55 681.52 581.27 C 681.83 580.67 682.27 579.84 682.47 579.45 C 683.38 577.84 684.38 572.7 684.22 570.59 C 683.99 568.19 683.05 564.17 682.22 562.27 C 681.3 560.19 681.33 559.17 682.41 557.15 C 683.24 555.57 683.74 555.07 685.8 553.94 C 687.19 553.13 691.8 553.41 691.8 554.27 C 691.8 554.41 692.19 554.74 692.64 555.02 C 693.11 555.26 693.55 555.73 693.64 556.07 C 693.72 556.37 694.08 557.06 694.44 557.59 C 694.8 558.11 695.19 559.06 695.3 559.66 C 695.39 560.27 695.75 561.32 696.05 562.02 C 696.75 563.57 697.05 566.31 697.05 571.2 L 697.08 574.99 L 697.92 575.96 C 698.39 576.49 699.17 577.01 699.61 577.1 C 700.08 577.21 701.11 577.59 701.92 577.93 C 704.64 579.2 712.56 579.09 714.73 577.79 C 715.17 577.51 715.87 577.21 716.25 577.1 C 716.64 576.99 717.34 576.6 717.84 576.24 C 718.31 575.88 718.84 575.57 719.01 575.57 C 719.45 575.57 723.76 571.23 723.76 570.79 C 723.76 570.57 723.95 570.23 724.17 570.04 C 724.95 569.38 726.48 565.67 726.79 563.65 C 726.98 562.54 727.09 559.94 727.06 557.84 C 727.04 554.35 727.09 553.91 727.65 553.02 C 729.12 550.62 731.37 549.9 733.54 551.06 C 734.26 551.45 735.32 551.83 735.9 551.94 C 736.48 552.05 737.43 552.36 738.01 552.66 C 738.76 553.05 739.93 553.22 742.18 553.36 C 744.85 553.49 745.51 553.44 746.96 552.94 C 747.88 552.64 749.18 552.22 749.88 552.05 C 750.57 551.89 751.38 551.5 751.68 551.22 C 751.99 550.98 752.71 550.59 753.27 550.39 C 753.85 550.23 754.41 549.9 754.54 549.7 C 754.66 549.48 755.43 548.73 756.24 548.04 C 757.88 546.63 758.82 545.5 759.49 544.03 C 759.74 543.5 760.16 542.81 760.46 542.48 C 760.74 542.18 761.1 541.29 761.27 540.49 C 761.41 539.69 761.74 538.63 762.02 538.16 C 762.77 536.75 762.71 531.41 761.94 529.36 C 760.96 526.93 760.6 523.94 761.05 522.45 C 761.35 521.37 761.6 521.12 762.8 520.51 C 764.02 519.9 764.55 519.82 767.24 519.82 C 770.74 519.79 775.25 519.07 776.27 518.32 C 776.66 518.05 777.27 517.72 777.66 517.6 C 778.83 517.24 781.05 515.56 782.72 513.81 C 784.28 512.18 786.28 509.25 786.28 508.64 C 786.28 508.45 786.61 507.67 787.03 506.87 C 787.78 505.46 787.8 505.35 787.8 500.45 C 787.8 495.55 787.78 495.44 787.03 494.08 C 786.61 493.34 786.28 492.51 786.28 492.26 C 786.28 492.01 785.92 491.35 785.44 490.76 C 785 490.18 784.61 489.63 784.61 489.49 C 784.61 489.38 783.72 488.25 782.64 486.97 C 781.55 485.7 780.47 484.26 780.25 483.74 C 779.36 481.66 780.75 478.92 783.08 478.17 C 783.69 477.98 784.47 477.59 784.8 477.34 C 785.16 477.07 785.89 476.76 786.42 476.68 C 786.97 476.57 787.5 476.29 787.58 476.07 C 787.67 475.85 788.14 475.46 788.61 475.21 C 789.94 474.55 791.86 472.86 793.08 471.28 C 793.7 470.48 794.47 469.51 794.78 469.1 C 795.11 468.68 795.53 467.85 795.67 467.27 C 795.83 466.69 796.17 466 796.42 465.72 C 797.09 465 797.47 461.43 797.31 457.64 C 797.2 454.93 797.06 454.16 796.45 452.83 C 796.06 451.97 795.72 451.11 795.72 450.92 C 795.72 450.72 795.33 450.12 794.89 449.53 C 794.45 448.95 794.06 448.32 794.06 448.1 C 794.06 447.65 790.11 443.59 789.67 443.59 C 789.5 443.59 789.03 443.28 788.58 442.92 C 788.17 442.56 787.36 442.17 786.83 442.06 C 786.3 441.95 785.42 441.59 784.89 441.26 C 784.03 440.74 783.41 440.68 779.69 440.6 C 777.33 440.54 774.94 440.62 774.27 440.79 C 772.72 441.15 769.38 442.34 768.33 442.89 C 767.88 443.12 767.1 443.31 766.6 443.31 C 765.52 443.31 763.13 442.15 762.1 441.12 C 761.21 440.24 759.88 437.41 759.88 436.42 C 759.88 435.34 761.38 432.38 762.24 431.8 C 762.63 431.49 763.32 431 763.77 430.64 C 764.21 430.3 765.27 429.83 766.13 429.61 C 766.96 429.39 767.97 429 768.33 428.78 C 768.66 428.56 770.19 428.2 771.72 427.98 C 773.22 427.76 775.08 427.43 775.8 427.26 C 777.11 426.93 778.64 426.96 783.83 427.43 L 785.69 427.62 L 785.89 426.82 C 786.22 425.57 784.78 419.35 783.86 417.93 C 783.61 417.58 783.22 416.91 782.97 416.47 C 781.3 413.54 778.22 410.3 776 409.14 C 775.61 408.94 775.11 408.58 774.91 408.33 C 774.72 408.11 774.16 407.83 773.69 407.72 C 773.19 407.64 772.22 407.25 771.52 406.87 C 770.41 406.31 769.6 406.17 766.24 405.95 C 760.8 405.59 604.64 405.59 600.14 405.95 C 597.66 406.15 596.38 406.37 595.63 406.76 C 595.08 407.06 594.11 407.45 593.47 407.61 C 592.86 407.78 592.16 408.08 591.94 408.33 C 591.69 408.55 591.08 408.91 590.55 409.14 C 589.99 409.36 589.24 409.83 588.88 410.16 C 586.77 412.04 584.44 414.5 583.94 415.36 C 583.66 415.89 583.24 416.63 583.02 417.02 C 581.16 420.4 580.66 422.39 580.69 426.84 C 580.69 430.47 581.1 433.13 581.91 434.7 C 582.3 435.48 582.6 436.28 582.6 436.53 C 582.6 436.75 582.85 437.19 583.16 437.5 C 583.44 437.77 583.94 438.49 584.24 439.08 C 584.88 440.35 587.97 443.5 589.27 444.28 C 589.77 444.58 590.77 445.16 591.47 445.61 C 592.99 446.52 593.22 446.6 596.22 447.63 L 598.58 448.43 L 632.62 448.48 C 670.27 448.54 674.88 448.62 677.91 449.26 C 679.05 449.48 681.88 449.81 684.16 449.98 C 686.83 450.14 688.91 450.45 690 450.78 C 690.91 451.08 692.66 451.44 693.89 451.61 C 695.11 451.78 696.86 452.14 697.78 452.41 C 698.69 452.72 700.08 453.02 700.83 453.13 C 701.61 453.21 702.78 453.6 703.47 453.93 C 704.17 454.29 705.28 454.68 705.97 454.79 C 706.67 454.9 707.61 455.21 708.06 455.46 C 708.53 455.73 709.53 456.09 710.28 456.29 C 711.06 456.48 711.92 456.87 712.23 457.12 C 712.53 457.39 713.25 457.78 713.81 457.95 C 714.37 458.14 714.98 458.44 715.14 458.67 C 715.31 458.89 715.92 459.19 716.48 459.39 C 717.03 459.55 717.95 460.08 718.48 460.49 C 719.01 460.94 719.81 461.57 720.23 461.9 C 721.7 463.09 723.48 464.81 723.48 465.03 C 723.48 465.14 723.81 465.69 724.23 466.25 C 724.81 467.02 725.01 467.6 725.09 468.96 C 725.26 471.39 725.01 472.34 723.81 473.66 C 723.01 474.58 722.34 474.99 720.7 475.57 L 718.64 476.29 L 716.7 475.49 C 715.45 474.99 714.28 474.27 713.48 473.53 C 712.78 472.86 711.75 472.09 711.2 471.78 C 710.64 471.51 710.09 471.15 710 470.98 C 709.89 470.81 709.34 470.48 708.72 470.23 C 708.14 470.01 707.64 469.71 707.64 469.6 C 707.64 469.46 707.09 469.15 706.39 468.88 C 705.7 468.63 704.56 468.13 703.83 467.77 C 703.14 467.41 702.31 467.11 702 467.11 C 701.69 467.11 700.92 466.8 700.31 466.47 C 699.67 466.11 698.25 465.67 697.14 465.47 C 696 465.31 694.72 464.98 694.28 464.73 C 693.83 464.5 691.94 464.14 690.05 463.92 C 688.19 463.67 685.91 463.31 685 463.09 C 684.08 462.87 681.13 462.57 678.47 462.4 C 675.8 462.24 670.49 461.9 666.68 461.65 C 660.46 461.27 658.15 461.24 644.04 461.57 C 620.31 462.12 596.63 461.43 593.41 460.08 C 592.88 459.86 591.69 459.55 590.72 459.36 C 589.74 459.19 588.38 458.75 587.69 458.36 C 586.19 457.56 583.91 457.48 582.19 458.14 C 581.57 458.39 580.38 458.83 579.55 459.14 C 578.71 459.44 577.77 459.91 577.46 460.19 C 577.16 460.44 576.6 460.82 576.21 461.02 C 574.38 461.96 570.1 466.86 570.1 467.99 C 570.1 468.24 569.77 468.88 569.38 469.49 C 568.93 470.12 568.57 471.17 568.43 472.14 C 568.29 473.03 568.04 474.22 567.85 474.77 C 567.18 476.85 568.1 482.19 569.68 485.34 C 570.99 487.91 574.71 491.7 576.55 492.34 C 577.05 492.51 577.77 492.89 578.16 493.17 C 578.55 493.45 579.85 493.86 581.07 494.08 C 584.38 494.72 587.27 495.5 587.99 495.97 C 588.35 496.22 588.83 496.99 589.08 497.88 C 589.52 499.26 589.52 499.43 589.02 501.14 C 588.74 502.14 588.24 503.38 587.94 503.91 C 587.63 504.43 587.3 505.62 587.19 506.54 C 587.08 507.45 586.88 508.67 586.74 509.25 C 586.27 511.05 587.16 516.06 588.35 518.38 C 589.47 520.54 589.58 520.7 591.91 523.08 C 593.74 524.97 596.38 526.71 597.86 527.01 C 598.36 527.12 599.3 527.46 599.94 527.73 C 601.75 528.56 605.72 528.45 608.58 527.54 C 609.81 527.12 611.11 526.63 611.5 526.43 C 611.89 526.21 612.75 525.8 613.45 525.46 C 614.14 525.13 615 524.63 615.36 524.36 C 616.11 523.78 617.86 523.66 618.81 524.13 C 619.86 524.69 621.2 526.1 621.48 526.99 C 621.61 527.46 621.81 528.42 621.92 529.14 C 622 529.86 622.2 530.53 622.34 530.61 C 622.48 530.69 622.78 531.41 623.03 532.21 C 623.31 532.99 623.73 533.9 624 534.21 C 624.28 534.51 624.7 535.15 624.92 535.62 C 625.39 536.56 627.51 538.75 629.12 539.96 C 631.73 541.95 633.81 542.65 638.34 543.06 C 640.7 543.26 645.51 542.43 646.73 541.6 C 647.98 540.74 649.01 540.05 649.98 539.46 C 651.1 538.77 654.85 533.88 654.85 533.1 C 654.85 532.8 655.1 532.19 655.4 531.72 C 655.71 531.27 656.1 530.19 656.26 529.36 C 656.43 528.53 656.85 527.51 657.18 527.12 C 657.49 526.71 657.9 526.18 658.04 525.93 C 658.4 525.35 660.65 524.97 662.13 525.21 C 663.07 525.41 663.63 525.74 664.71 526.93 C 667.71 530.08 671.44 532.82 673.38 533.27 C 674.08 533.4 675.02 533.74 675.52 533.99 C 676.74 534.65 681.91 534.65 682.91 533.99 C 683.3 533.76 684.24 533.4 685 533.21 C 685.77 533.04 687.08 532.44 687.91 531.91 C 689.66 530.78 693.75 526.79 693.75 526.21 C 693.75 525.99 694.08 525.44 694.47 524.97 C 695.33 523.94 695.94 521.56 695.67 520.26 C 695.55 519.76 695.19 519.02 694.89 518.6 C 694.55 518.21 694.08 517.44 693.86 516.91 C 693.61 516.39 693.16 515.67 692.89 515.28 C 692.61 514.92 692.36 514.42 692.36 514.15 C 692.36 513.9 692.05 513.21 691.66 512.65 C 691.27 512.07 690.83 511.05 690.66 510.33 C 690.52 509.61 690.11 508.34 689.77 507.5 C 689.19 506.09 689.16 505.54 689.16 499.48 L 689.16 492.98 L 689.94 491.4 C 690.36 490.54 690.69 489.57 690.69 489.27 C 690.69 488.97 690.97 488.38 691.33 487.94 C 691.66 487.53 692.14 486.81 692.36 486.36 C 692.58 485.92 693.5 484.95 694.36 484.23 C 695.67 483.15 696.22 482.88 697.44 482.74 C 699.19 482.52 701.11 482.96 702.03 483.79 C 702.39 484.12 703.11 485.04 703.64 485.81 C 704.47 487.06 704.58 487.44 704.58 488.99 C 704.58 490.29 704.42 491.12 703.92 492.15 C 703.56 492.89 702.92 494.64 702.5 495.99 C 701.86 498.01 701.75 498.79 701.86 500.59 C 701.94 501.8 702.14 502.94 702.31 503.16 C 702.47 503.35 702.81 504.32 703.03 505.32 C 703.47 507.23 704.58 509.36 706.11 511.38 C 706.64 512.07 707.31 512.93 707.56 513.32 C 707.84 513.7 708.2 514.12 708.39 514.23 C 708.59 514.34 709.06 514.75 709.39 515.14 C 710.36 516.19 713.03 516.55 716.78 516.11 C 719.09 515.86 719.95 515.64 720.73 515.09 C 721.26 514.73 721.9 514.42 722.12 514.42 C 723.03 514.42 727.12 510.94 728.48 509.03 C 728.93 508.42 729.73 507.03 730.26 505.93 C 731.45 503.58 731.82 500.78 731.43 496.71 C 731.23 494.47 731.04 493.75 730.09 491.87 C 728.62 488.91 728.06 487.91 727.56 487.36 C 727.34 487.11 726.95 486.45 726.7 485.92 C 726.45 485.4 725.81 484.34 725.29 483.57 L 724.31 482.19 L 724.9 481.72 C 725.23 481.44 725.9 481.22 726.37 481.22 C 726.87 481.22 728.2 480.97 729.34 480.69 C 730.48 480.39 732.29 480.06 733.34 479.94 C 735.26 479.75 738.01 478.67 740.73 476.98 C 742.68 475.79 747.1 470.59 747.1 469.49 C 747.1 469.35 747.43 468.54 747.85 467.69 C 748.57 466.25 748.6 465.89 748.6 462.54 C 748.6 459.16 748.54 458.86 747.85 457.56 C 747.43 456.81 747.1 455.98 747.1 455.73 C 747.1 455.48 746.74 454.79 746.26 454.21 C 745.82 453.6 745.1 452.66 744.68 452.08 C 743.32 450.23 739.12 446.63 738.32 446.63 C 738.15 446.63 737.82 446.44 737.62 446.16 C 737.4 445.91 736.71 445.49 736.09 445.19 C 735.46 444.91 734.79 444.53 734.62 444.3 C 734.43 444.08 733.87 443.81 733.4 443.72 C 732.9 443.61 732.01 443.25 731.4 442.89 C 730.79 442.56 729.84 442.17 729.31 442.06 C 728.79 441.95 727.98 441.65 727.51 441.37 C 727.06 441.1 725.87 440.71 724.87 440.54 C 723.87 440.35 722.56 439.99 721.92 439.71 C 721.31 439.41 719.73 439.05 718.39 438.88 C 717.09 438.72 715.53 438.44 714.95 438.22 C 713.62 437.75 712.45 437.58 708.59 437.22 C 706.78 437.06 704.56 436.64 703.25 436.23 C 701.22 435.59 700.89 435.4 699.89 434.12 C 698.61 432.54 698.33 431.52 698.55 429.17 C 698.67 427.95 698.89 427.32 699.42 426.68 C 699.81 426.21 700.14 425.74 700.14 425.63 C 700.14 425.52 700.81 424.99 701.61 424.47 C 703 423.55 703.14 423.52 705.56 423.58 C 706.95 423.61 709.31 423.86 710.84 424.16 C 712.36 424.47 714.5 424.8 715.56 424.91 C 716.64 425.02 718.39 425.38 719.45 425.74 C 720.53 426.07 722.26 426.46 723.28 426.57 C 724.34 426.68 726.06 427.07 727.12 427.43 C 728.18 427.79 729.26 428.09 729.54 428.09 C 729.84 428.09 730.65 428.39 731.34 428.75 C 732.04 429.14 733.09 429.53 733.68 429.64 C 734.26 429.75 735.32 430.11 736.04 430.47 C 736.76 430.83 737.57 431.13 737.84 431.13 C 738.12 431.13 738.79 431.38 739.32 431.69 C 739.85 431.99 740.73 432.46 741.26 432.68 C 741.79 432.93 742.6 433.43 743.01 433.79 C 743.46 434.15 743.96 434.45 744.15 434.45 C 744.37 434.45 744.87 434.73 745.32 435.09 C 745.74 435.42 746.51 435.89 747.01 436.11 C 748.43 436.78 754.1 442.06 755.38 443.92 C 755.71 444.42 756.29 445.27 756.68 445.8 C 757.63 447.18 759.27 450.5 759.49 451.47 C 759.6 451.94 759.91 452.69 760.19 453.16 C 760.8 454.16 761.55 459.61 761.52 462.82 C 761.52 465.94 760.82 470.73 760.19 472.09 C 759.88 472.78 759.6 473.5 759.6 473.72 C 759.6 474.24 757.41 478.67 757.05 478.89 C 756.91 478.98 756.63 479.42 756.43 479.86 C 756.24 480.3 755.49 481.36 754.74 482.21 C 753.49 483.6 752.57 484.51 750.15 486.75 C 749.38 487.47 748.29 488.16 746.57 489.05 C 745.43 489.63 744.4 490.54 744.01 491.23 C 743.85 491.54 743.96 492.29 744.32 493.45 C 745.01 495.69 745.12 502.44 744.46 504.1 C 744.24 504.68 743.93 505.93 743.79 506.84 C 743.65 507.78 743.29 509.11 742.99 509.75 C 742.68 510.41 742.35 511.27 742.24 511.66 C 742.12 512.04 741.73 512.71 741.37 513.12 C 741.01 513.56 740.71 514.04 740.71 514.2 C 740.71 514.51 738.96 517.27 738.35 517.94 C 736.29 520.21 732.68 523.58 732.07 523.83 C 731.62 524.02 731.26 524.27 731.26 524.41 C 731.26 524.55 730.81 524.83 730.26 525.08 C 729.7 525.3 728.9 525.8 728.43 526.18 C 727.98 526.57 727.4 526.87 727.15 526.87 C 726.87 526.87 726.17 527.12 725.59 527.46 C 725.01 527.76 723.84 528.15 722.98 528.29 C 722.12 528.45 721.03 528.78 720.56 529.03 C 719.42 529.64 711.81 529.86 709.7 529.36 C 708.39 529.03 708.14 529.06 707.5 529.48 C 707.09 529.75 706.5 530.58 706.2 531.33 C 705.89 532.08 705.53 532.69 705.39 532.69 C 705.25 532.69 704.95 533.07 704.72 533.54 C 704.47 533.99 704.08 534.59 703.86 534.84 C 703.61 535.09 703.17 535.76 702.83 536.28 C 702.11 537.39 697.11 541.87 695.69 542.65 C 695.17 542.92 694.16 543.45 693.47 543.78 C 692.78 544.11 691.94 544.61 691.58 544.89 C 691.25 545.14 690.41 545.47 689.77 545.55 C 689.14 545.66 688.11 545.99 687.52 546.3 C 685 547.57 674.24 547.63 671.24 546.38 C 670.41 546.05 669.18 545.66 668.55 545.55 C 667.93 545.47 666.99 545.08 666.49 544.69 C 665.49 543.97 664.16 543.84 663.43 544.39 C 663.18 544.58 662.74 545.11 662.46 545.58 C 661.99 546.35 660.99 547.3 658.24 549.51 C 657.71 549.92 656.99 550.53 656.6 550.89 C 655.9 551.53 655.01 552.03 653.01 552.97 C 652.43 553.27 651.32 553.8 650.54 554.16 C 649.79 554.52 648.54 554.96 647.76 555.1 C 647.01 555.26 645.32 555.65 644.01 555.98 C 641.93 556.48 641.18 556.54 637.48 556.37 C 634.54 556.23 633.15 556.07 632.7 555.79 C 632.37 555.54 631.2 555.18 630.14 554.96 C 629.06 554.74 627.73 554.3 627.14 553.99 C 626.56 553.69 625.95 553.44 625.78 553.44 C 625.62 553.44 625 553.08 624.42 552.61 C 623.84 552.17 623.2 551.78 623 551.78 C 622.78 551.78 622.36 551.53 622.09 551.25 C 621.78 550.95 621.17 550.51 620.73 550.28 C 619.86 549.84 614.28 544.03 613.95 543.26 C 613.83 543.01 613.39 542.34 612.95 541.82 L 612.11 540.88 L 604.66 540.85 C 597.5 540.85 597.13 540.82 595.83 540.21 C 595.08 539.88 593.97 539.52 593.38 539.41 C 592.77 539.33 591.86 538.97 591.33 538.58 C 590.77 538.22 589.94 537.75 589.47 537.5 C 586.27 535.95 586.38 536.03 582.46 532.21 C 580.27 530.11 579.18 528.76 578.1 526.82 C 577.85 526.35 577.41 525.71 577.1 525.38 C 576.8 525.08 576.46 524.36 576.35 523.83 C 576.24 523.3 575.91 522.42 575.63 521.89 C 575.35 521.37 574.79 519.82 574.38 518.43 C 573.71 516.25 573.63 515.34 573.49 510.88 C 573.35 505.29 573.32 505.24 571.52 504.74 C 570.93 504.6 570.29 504.27 570.07 504.02 C 569.88 503.8 569.29 503.41 568.76 503.19 C 567.13 502.52 562.04 497.93 560.51 495.77 C 559.57 494.44 558.18 492.18 557.87 491.46 C 557.68 491.07 557.26 490.16 556.9 489.38 C 556.51 488.63 556.15 487.44 556.04 486.75 C 555.96 486.06 555.59 484.9 555.26 484.12 C 554.73 482.88 554.68 482.24 554.68 477.34 C 554.68 472.75 554.76 471.81 555.15 471.06 C 555.43 470.59 555.76 469.29 555.93 468.16 C 556.21 466.39 557.43 463.37 558.71 461.29 C 558.85 461.07 559.12 460.55 559.32 460.16 C 560.65 457.5 564.74 452.99 567.63 450.92 C 569.43 449.62 570.65 448.4 570.65 447.85 C 570.65 447.21 568.07 444.5 566.35 443.34 C 565.6 442.84 564.26 442.17 563.43 441.87 C 559.54 440.51 559.37 440.49 554.98 440.6 C 550.65 440.74 549.7 440.96 546.76 442.62 C 546.37 442.84 545.62 443.25 545.09 443.56 C 543.92 444.19 541.17 446.74 540.23 448.07 C 539.01 449.76 537.31 453.44 537.06 454.96 C 536.78 456.59 535.45 459.5 534.62 460.24 C 533.87 460.94 531.53 461.85 530.56 461.85 C 530.06 461.85 529.06 461.65 528.31 461.43 C 526.31 460.82 522.11 460.88 520.14 461.54 C 519.28 461.85 518 462.24 517.3 462.4 C 516.61 462.6 515.86 462.9 515.64 463.09 C 515.42 463.29 514.72 463.7 514.11 464.03 C 511.94 465.2 510.5 466.5 508.27 469.26 C 507.75 469.93 507.3 470.65 507.3 470.84 C 507.3 471.06 507 471.53 506.63 471.95 C 506.27 472.34 505.91 473.14 505.8 473.72 C 505.72 474.3 505.38 475.32 505.08 475.99 C 504.16 478.01 504.3 482.05 505.41 485.67 C 505.88 487.25 506.5 488.85 506.8 489.21 C 507.08 489.57 507.3 489.99 507.3 490.16 C 507.3 491.29 512.55 496.6 514.22 497.13 C 514.58 497.24 515.3 497.63 515.83 497.99 C 516.39 498.35 517.17 498.65 517.55 498.65 C 517.94 498.65 519.03 498.84 519.92 499.04 C 521.31 499.37 521.94 499.37 524.22 499.04 C 525.7 498.82 527.39 498.46 528 498.24 C 530.17 497.46 531.2 497.43 532.89 498.21 C 534.62 499.01 535.2 499.59 536.28 501.47 C 536.87 502.47 537.03 503.13 537.03 504.38 C 537.03 505.82 536.89 506.2 535.92 507.73 C 535.31 508.67 534.64 509.44 534.48 509.44 C 534.28 509.44 533.7 509.75 533.17 510.13 C 532.48 510.6 530.95 511.05 528.2 511.66 C 523.75 512.6 521.22 512.71 518.28 512.04 C 517.22 511.82 515.47 511.46 514.39 511.27 C 513.33 511.07 511.83 510.58 511.08 510.19 C 510.33 509.77 509.44 509.44 509.08 509.44 C 508.75 509.44 508.08 509.14 507.63 508.75 C 507.16 508.36 506.66 508.06 506.52 508.06 C 506.36 508.06 505.86 507.75 505.41 507.37 C 504.47 506.56 502.86 505.84 502.05 505.84 C 501.49 505.84 498.83 508.92 497.99 510.55 C 497.74 511.07 497.35 511.71 497.16 511.93 C 496.49 512.73 495.1 516.61 494.88 518.35 C 494.74 519.32 494.74 521.73 494.83 523.69 C 495.02 527.76 495.35 528.78 497.72 532.66 C 499.44 535.48 503.86 539.1 505.97 539.44 C 506.61 539.55 507.58 539.91 508.14 540.24 C 509.02 540.79 509.44 540.85 513.55 540.85 C 518.78 540.85 519.19 540.99 520.25 543.31 L 520.92 544.75 L 520.11 547.49 C 519.67 549.01 519.11 550.75 518.86 551.36 C 518.55 552.17 518.44 553.55 518.42 556.37 C 518.42 559.97 518.47 560.38 519.08 561.52 C 519.44 562.18 519.83 563.04 519.94 563.43 C 520.19 564.26 520.47 564.59 523.61 567.72 C 526.39 570.48 528.42 571.7 532.25 572.92 C 536.25 574.16 539.89 574.14 543.4 572.78 C 545.56 571.95 545.87 571.81 547.59 570.73 C 550.26 569.1 550.62 568.93 551.9 568.74 C 552.76 568.63 553.54 568.71 554.34 569.04 C 555.4 569.43 555.65 569.71 556.43 571.37 C 556.9 572.39 557.37 573.8 557.48 574.52 C 557.57 575.24 557.96 576.24 558.32 576.71 C 558.68 577.21 558.98 577.82 558.98 578.07 C 558.98 578.34 559.35 579.09 559.82 579.75 C 560.26 580.42 560.65 581.11 560.65 581.27 C 560.65 582.3 566.88 588 567.99 588.03 C 568.15 588.03 568.71 588.33 569.24 588.69 C 571.77 590.41 579.55 590.49 583.05 588.83 C 583.96 588.39 584.85 588.03 584.99 588.03 C 585.46 588.03 588.47 585.73 590.33 583.96 C 591.91 582.46 592.08 582.19 591.99 581.36 C 591.94 580.58 591.77 580.39 591.08 580.17 C 590.02 579.86 589.44 579.59 587.88 578.67 C 585.19 577.07 584.74 576.79 583.8 576.07 C 583.24 575.63 582.69 575.3 582.55 575.3 C 582.13 575.3 578.46 571.4 577.96 570.46 C 577.71 570.01 577.3 569.4 577.05 569.16 C 576.27 568.41 575.85 565.25 576.3 563.4 C 576.8 561.32 577.96 560.22 580.35 559.47 C 581.99 558.97 582.35 558.94 583.58 559.25 C 585.71 559.8 586.52 560.3 587.88 561.91 C 588.99 563.26 590.69 564.78 593.11 566.64 C 594.27 567.52 597.75 568.66 600.25 568.96 C 602.94 569.29 604.86 569.13 606.19 568.44 C 606.75 568.13 607.75 567.8 608.39 567.69 C 609.03 567.61 610 567.14 610.56 566.69 C 611.11 566.25 611.69 565.89 611.83 565.89 C 612 565.89 612.47 565.59 612.95 565.2 C 613.7 564.56 614 564.51 616.22 564.51 C 618.39 564.51 618.78 564.59 619.47 565.17 C 619.89 565.5 620.53 565.95 620.84 566.11 C 621.17 566.28 621.53 566.78 621.64 567.19 C 621.73 567.61 622.06 568.46 622.36 569.13 C 623.03 570.59 623.03 570.7 622.2 572.95 C 621.28 575.35 619.98 576.63 616.78 578.29 C 616.25 578.56 615.36 579.06 614.83 579.39 C 614.31 579.73 613.61 580 613.31 580 C 613 580 612.08 580.31 611.31 580.69 C 610.39 581.11 608.92 581.47 607.33 581.63 C 605.94 581.77 604.69 581.99 604.55 582.08 C 604 582.41 604.28 584.07 605.05 585.04 C 607.22 587.72 608.69 589.24 609.64 589.71 C 610.19 590.02 610.67 590.38 610.67 590.52 C 610.67 590.66 610.94 590.85 611.31 590.93 C 611.64 591.04 612.36 591.43 612.89 591.76 C 613.42 592.12 614.61 592.56 615.53 592.7 C 616.45 592.87 617.59 593.12 618.03 593.26 C 619.42 593.67 621.84 593.59 625 592.98 Z M 488.99 499.81 C 489.24 499.7 490.46 498.51 491.74 497.18 L 494.05 494.75 L 493.71 492.89 C 493.52 491.87 493.07 490.43 492.71 489.66 C 491.71 487.5 491.3 482.05 491.74 476.85 C 491.99 473.8 492.19 472.56 492.6 471.87 C 492.88 471.37 493.27 470.37 493.46 469.65 C 493.63 468.93 493.99 468.05 494.24 467.66 C 494.52 467.27 494.85 466.5 495.02 465.94 C 495.3 464.95 495.71 464.28 497.38 462.29 C 497.8 461.77 498.13 461.24 498.13 461.1 C 498.13 460.96 498.41 460.55 498.77 460.19 C 499.1 459.83 499.58 459.25 499.8 458.92 C 500.38 458.03 506.41 452.99 506.86 452.99 C 507.08 452.99 507.38 452.8 507.58 452.61 C 507.75 452.38 508.5 451.97 509.19 451.72 C 509.91 451.44 510.75 451.03 511.05 450.78 C 512.44 449.65 519.42 448.01 522.86 448.01 C 524.47 448.01 525.89 447.13 526.31 445.88 C 526.67 444.86 527.67 443.17 528.78 441.73 C 529.2 441.18 529.53 440.6 529.53 440.43 C 529.53 440.04 534.67 434.73 535.64 434.09 C 536.03 433.85 536.84 433.26 537.45 432.82 C 538.06 432.35 539.03 431.71 539.62 431.41 L 540.67 430.83 L 540.45 428.84 C 540.34 427.73 540.26 424.41 540.31 421.42 C 540.37 416.77 540.31 415.94 539.95 415.64 C 539.62 415.36 538.59 415.31 535.64 415.44 C 532.48 415.58 531.59 415.72 530.73 416.16 C 530.14 416.5 529.22 416.94 528.7 417.16 C 525.06 418.71 521.47 421.95 519.81 425.18 C 517.61 429.39 517.11 429.89 515.36 429.58 C 514.83 429.5 513.94 429.17 513.41 428.86 C 512.39 428.28 506.52 426.98 504.83 426.98 C 504.3 426.98 502.61 427.26 501.05 427.56 C 498.44 428.15 497.1 428.7 493.69 430.72 C 492.3 431.55 489.24 434.73 488.77 435.84 C 488.52 436.36 488.05 437.17 487.68 437.58 C 487.32 438.02 487.02 438.63 487.02 438.96 C 487.02 439.3 486.68 440.27 486.3 441.1 C 485.63 442.51 485.57 442.92 485.54 446.63 C 485.52 450.39 485.57 450.75 486.24 452.16 C 486.63 452.99 487.02 454.05 487.13 454.49 C 487.24 454.96 487.55 455.62 487.82 456.01 C 488.1 456.4 488.43 457.03 488.55 457.42 C 488.66 457.81 489.05 458.58 489.43 459.14 C 489.82 459.69 490.16 460.58 490.16 461.07 C 490.21 461.82 490.07 462.04 489.35 462.4 C 488.88 462.65 488.16 463.12 487.71 463.45 C 487.3 463.79 486.77 464.06 486.57 464.06 C 486.35 464.06 485.93 464.31 485.66 464.59 C 485.35 464.89 484.68 465.36 484.18 465.61 C 482.21 466.64 478.29 471.37 477.57 473.66 C 477.38 474.24 477.04 474.94 476.82 475.19 C 475.74 476.4 475.68 485.98 476.74 487.78 C 477.04 488.27 477.4 489.21 477.6 489.85 C 477.76 490.49 478.18 491.37 478.54 491.79 C 478.9 492.2 479.27 492.81 479.38 493.12 C 479.46 493.42 479.68 493.67 479.82 493.67 C 479.96 493.67 480.29 494.03 480.57 494.47 C 480.85 494.91 481.63 495.72 482.29 496.27 C 482.99 496.8 483.91 497.57 484.32 497.96 C 484.74 498.35 485.27 498.65 485.43 498.65 C 485.63 498.65 486.21 498.95 486.74 499.34 C 487.68 500.03 488.18 500.14 488.99 499.81 Z M 566.71 428.59 C 566.9 428.39 567.04 427.62 567.04 426.87 C 567.07 426.1 567.24 424.6 567.43 423.52 C 568.57 417.66 569.01 415.78 569.38 415.39 C 569.6 415.14 569.93 414.31 570.1 413.56 C 570.38 412.29 570.99 411.13 572.35 409.27 C 572.65 408.89 573.07 408.14 573.29 407.64 C 573.79 406.51 573.66 406.67 577.41 402.91 C 580.16 400.14 582.49 398.21 583.07 398.21 C 583.21 398.21 583.63 397.9 583.99 397.54 C 584.33 397.15 584.96 396.77 585.41 396.68 C 585.83 396.57 586.49 396.27 586.83 395.99 C 587.19 395.72 588.02 395.36 588.66 395.19 C 589.3 395 590.24 394.64 590.74 394.33 C 591.22 394.05 592.44 393.72 593.44 393.61 C 594.44 393.5 596.05 393.2 597.05 392.89 C 598.69 392.45 600.08 392.39 613.03 392.39 C 623.7 392.39 627.31 392.31 627.56 392.06 C 628.03 391.59 627.98 390.87 627.31 388.8 C 626.89 387.47 626.7 385.92 626.59 382.79 C 626.5 380.5 626.31 378.42 626.2 378.23 C 626 377.95 622.86 377.87 609.64 377.87 C 593.41 377.87 593.3 377.87 591.47 378.5 C 590.47 378.84 588.66 379.25 587.44 379.39 C 586.1 379.56 584.96 379.86 584.55 380.19 C 584.16 380.47 583.41 380.8 582.88 380.91 C 582.35 381.02 581.41 381.41 580.8 381.74 C 580.19 382.07 579.35 382.43 578.96 382.54 C 578.02 382.74 575.04 384.54 574.74 385.06 C 574.63 385.28 574.35 385.48 574.13 385.48 C 573.93 385.48 573.41 385.78 572.96 386.14 C 572.54 386.5 571.82 386.97 571.35 387.22 C 570.4 387.69 564.26 393.72 563.07 395.36 C 561.71 397.21 560.96 398.32 560.68 398.9 C 560.54 399.2 560.18 399.7 559.85 399.98 C 559.54 400.28 559.26 400.64 559.26 400.83 C 559.26 401 558.9 401.69 558.46 402.38 C 558.01 403.05 557.59 404.04 557.48 404.6 C 557.37 405.18 557.07 405.93 556.76 406.31 C 556.46 406.7 556.12 407.42 556.04 407.95 C 555.93 408.44 555.62 409.25 555.34 409.72 C 555.04 410.21 554.65 411.82 554.4 413.45 C 554.18 415.03 553.79 416.86 553.57 417.52 C 553.01 419.1 552.68 425.54 553.12 426.37 C 553.4 426.9 553.68 426.98 555.23 426.98 C 556.21 426.98 557.73 427.18 558.62 427.4 C 559.51 427.62 561.35 427.9 562.68 428.06 C 564.04 428.2 565.29 428.45 565.46 428.62 C 565.85 429 566.29 429 566.71 428.59 Z M 666.77 392.15 C 667.35 391.76 667.21 390.68 666.41 389.52 C 666.02 388.94 665.68 388.22 665.68 387.97 C 665.68 387.69 665.35 386.61 664.93 385.59 C 664.18 383.71 664.16 383.57 664.16 377.73 C 664.16 372.14 664.18 371.7 664.77 370.62 C 665.1 369.98 665.52 368.71 665.68 367.74 C 665.85 366.8 666.16 365.78 666.38 365.44 C 666.57 365.11 666.93 364.17 667.18 363.31 C 667.43 362.46 667.82 361.6 668.07 361.38 C 668.32 361.18 668.71 360.55 668.93 359.96 C 669.16 359.38 669.46 358.91 669.57 358.91 C 669.68 358.91 670.05 358.33 670.38 357.61 C 670.69 356.87 671.3 355.84 671.69 355.32 C 672.41 354.29 676.16 350.14 677.38 348.95 C 678.6 347.79 682.05 345.08 682.3 345.08 C 682.44 345.08 683.02 344.72 683.61 344.25 C 684.19 343.8 684.8 343.42 684.97 343.42 C 685.16 343.42 685.72 343.11 686.22 342.75 C 686.75 342.37 687.55 341.98 688.02 341.87 C 688.5 341.76 689.16 341.45 689.52 341.18 C 689.89 340.9 690.86 340.54 691.69 340.37 C 692.53 340.18 693.78 339.82 694.44 339.52 C 696.39 338.66 710.09 337.61 719.31 337.61 C 721.92 337.61 722.92 337.52 723.17 337.25 C 723.67 336.64 725.15 333.76 725.15 333.4 C 725.15 333.21 725.54 332.29 725.98 331.38 C 726.42 330.47 726.81 329.55 726.81 329.36 C 726.81 329.17 727.12 328.48 727.48 327.84 C 727.84 327.2 728.23 326.29 728.34 325.79 C 728.43 325.29 728.76 324.6 729.04 324.27 C 729.31 323.91 729.68 323.05 729.87 322.39 C 730.06 321.72 730.43 320.87 730.73 320.51 C 731.01 320.12 731.26 319.59 731.26 319.34 C 731.26 319.07 731.62 318.15 732.07 317.32 C 732.51 316.49 732.95 315.39 733.07 314.86 C 733.18 314.36 733.51 313.67 733.79 313.31 C 734.07 312.95 734.37 312.29 734.48 311.79 C 734.57 311.29 735.04 310.24 735.46 309.41 C 735.9 308.58 736.26 307.72 736.26 307.47 C 736.26 307.22 736.59 306.53 736.96 305.92 C 737.34 305.31 737.65 304.62 737.65 304.37 C 737.65 304.13 737.96 303.35 738.35 302.63 C 738.87 301.63 739.04 300.92 739.04 299.61 C 739.04 298.23 738.9 297.68 738.35 296.88 C 737.96 296.32 737.65 295.74 737.65 295.6 C 737.65 295.33 736.51 294.52 734.76 293.55 C 733.79 293 730.93 292.89 729.73 293.33 C 728.56 293.78 727.09 295.05 726.45 296.18 C 725.87 297.21 725.06 298.56 723.9 300.5 C 723.59 301 723.01 301.86 722.59 302.38 C 722.15 302.94 721.81 303.49 721.81 303.65 C 721.81 303.79 721.48 304.32 721.06 304.84 C 720.62 305.34 719.92 306.26 719.45 306.89 C 717.34 309.77 712.42 315.03 708.84 318.24 C 705.89 320.89 704 322.39 702.92 322.94 C 702.53 323.13 701.97 323.55 701.67 323.83 C 700.83 324.63 699.31 325.63 698.14 326.15 C 697.55 326.4 697.08 326.7 697.08 326.87 C 697.08 327.01 696.67 327.29 696.14 327.51 C 695.61 327.73 694.72 328.23 694.14 328.61 C 693.58 329 692.94 329.31 692.72 329.31 C 692.5 329.31 691.94 329.55 691.5 329.86 C 691.08 330.19 690.3 330.58 689.8 330.74 C 689.3 330.91 688.58 331.27 688.19 331.52 C 687.8 331.8 686.94 332.16 686.25 332.35 C 685.55 332.52 684.63 332.9 684.16 333.18 C 683.72 333.46 682.88 333.76 682.36 333.87 C 681.83 333.98 680.72 334.45 679.88 334.87 C 679.05 335.31 678.24 335.67 678.05 335.67 C 677.85 335.67 677.41 335.92 677.02 336.2 C 676.66 336.5 675.85 336.86 675.21 337.03 C 674.6 337.19 673.8 337.55 673.44 337.86 C 673.07 338.13 672.3 338.49 671.74 338.69 C 671.19 338.88 670.57 339.21 670.38 339.43 C 670.21 339.65 669.55 340.07 668.91 340.37 C 668.3 340.68 667.21 341.29 666.52 341.76 C 665.82 342.2 664.82 342.81 664.29 343.06 C 663.41 343.5 662.77 343.97 660.68 345.63 C 659.79 346.35 657.96 347.73 656.51 348.81 C 655.15 349.78 652.24 352.66 649.23 355.9 C 646.87 358.44 645.9 359.72 645.29 361.02 C 645.07 361.49 644.7 362.01 644.48 362.21 C 644.26 362.37 643.9 362.93 643.7 363.42 C 643.51 363.92 643.04 364.72 642.7 365.25 C 642.34 365.78 642.07 366.38 642.07 366.63 C 642.07 366.88 641.76 367.66 641.37 368.35 C 641.01 369.07 640.56 370.4 640.43 371.31 C 640.29 372.25 640.04 373.25 639.87 373.52 C 638.93 375.27 638.98 382.43 639.93 385.06 C 640.15 385.67 640.43 386.86 640.54 387.69 C 640.7 388.99 641.51 390.87 642.43 392.06 C 642.62 392.31 645.37 392.39 654.54 392.39 C 661.04 392.39 666.55 392.28 666.77 392.15 Z M 751.27 390.46 C 752.1 390.29 752.96 389.99 753.24 389.74 C 753.49 389.52 754.13 389.21 754.68 389.05 C 756.1 388.66 759.6 385.06 759.6 384.01 C 759.6 383.68 759.93 382.79 760.32 382.05 C 761.02 380.75 761.05 380.5 760.94 377.76 C 760.85 375.79 760.66 374.55 760.35 373.97 C 760.1 373.5 759.77 372.31 759.63 371.34 C 759.46 370.37 759.1 369.26 758.8 368.85 C 758.52 368.46 758.16 367.71 757.99 367.19 C 757.66 365.97 755.96 363.37 753.77 360.68 C 752.63 359.3 748.54 355.87 748.04 355.87 C 747.85 355.87 747.35 355.57 746.93 355.18 C 746.51 354.79 745.85 354.4 745.46 354.29 C 745.07 354.21 744.24 353.85 743.62 353.52 C 743.01 353.16 742.07 352.8 741.54 352.69 C 741.01 352.6 739.76 352.24 738.76 351.91 C 736.98 351.3 736.71 351.3 718.89 351.3 C 701.14 351.3 700.81 351.3 699.17 351.88 C 698.25 352.22 697.05 352.58 696.53 352.69 C 695.55 352.88 692.05 354.51 690.08 355.7 C 688.94 356.37 684.58 360.02 684.58 360.27 C 684.58 360.38 684.24 360.82 683.83 361.27 C 682.77 362.37 681.94 363.53 681.22 364.86 C 680.88 365.47 680.38 366.27 680.1 366.63 C 679.8 366.99 679.58 367.49 679.58 367.74 C 679.58 367.99 679.33 368.65 679.02 369.23 C 678.72 369.82 678.27 371.14 678.05 372.22 C 677.83 373.3 677.49 374.41 677.33 374.71 C 676.88 375.57 677.19 380.61 677.8 382.88 C 678.85 386.67 682.38 389.88 686.11 390.46 C 688.27 390.79 749.54 390.79 751.27 390.46 Z" stroke-width="2.333" stroke="none" fill="#1D4273" />
</g>
<g id="shape-77" data-name="小红书平北职场PPT5-2" transform="translate(547.79 347.45) scale(1 -1) translate(-547.79 -347.45)">
<path d="M 552.87 365.5 C 550.62 364.31 549.43 362.88 549.09 361.02 C 548.93 360.14 548.62 358.86 548.4 358.2 C 548.12 357.42 547.93 355.32 547.84 352.39 C 547.65 346.52 547.68 346.61 546.45 346.38 C 545.37 346.19 542.26 344.67 541.12 343.78 C 540.76 343.48 540.29 343.23 540.06 343.23 C 539.87 343.23 539.34 342.93 538.9 342.54 C 538.42 342.15 537.95 341.85 537.84 341.85 C 537.7 341.85 537.28 341.54 536.9 341.15 C 536.51 340.79 535.76 340.08 535.23 339.55 C 534.7 339.05 533.89 338.14 533.42 337.53 C 532.64 336.53 532.59 336.26 532.59 334.24 C 532.59 332.24 532.67 331.91 533.37 330.92 C 534.62 329.15 535.87 328.29 537.56 328.01 C 538.4 327.87 539.29 327.82 539.59 327.87 C 539.87 327.93 540.42 328.04 540.84 328.12 C 541.48 328.26 544.18 330.22 545.93 331.8 C 546.7 332.52 550.54 334.38 551.23 334.38 C 551.57 334.38 552.37 334.57 553.01 334.79 C 553.65 335.01 555.1 335.21 556.23 335.21 C 559.37 335.21 560.9 335.62 561.93 336.78 C 562.79 337.78 562.79 337.83 562.65 340.02 C 562.57 341.49 562.32 342.7 561.93 343.59 C 561.43 344.67 561.29 345.66 561.1 349.54 C 560.96 352.11 560.99 355.54 561.13 357.23 C 561.43 361.11 561.24 362.41 560.15 363.76 C 559.71 364.34 559.18 364.81 559.04 364.81 C 558.9 364.81 558.43 365.06 557.99 365.39 C 557.51 365.73 556.54 366.03 555.71 366.11 C 554.51 366.22 554.04 366.11 552.87 365.5 Z" stroke-width="2.333" stroke="none" fill="#1D4273" />
</g>
<g id="shape-78" data-name="小红书平北职场PPT5-3" transform="translate(638.3 396.66) scale(1 -1) translate(-638.3 -396.66)">
<path d="M 645.23 414.66 C 644.76 414.55 644.23 414.35 644.04 414.24 C 643.65 413.99 642.42 412.19 641.67 410.78 C 641.4 410.23 640.87 409.43 640.51 409.01 C 640.15 408.57 639.84 408.1 639.84 407.96 C 639.84 407.6 636.01 403.84 635.64 403.84 C 635.48 403.84 634.95 403.56 634.48 403.23 C 632.28 401.68 626 400.6 623.11 401.32 C 621.2 401.79 618.36 402.84 617.61 403.37 C 617.25 403.62 616.78 403.84 616.58 403.84 C 616.39 403.84 615.89 404.14 615.47 404.5 C 612.89 406.77 611.19 407.71 609.75 407.71 C 608.78 407.68 606.86 406.72 606.36 405.97 C 606.14 405.58 605.8 404.5 605.64 403.56 C 605.5 402.59 605.19 401.49 604.97 401.07 C 604.75 400.66 604.47 399.77 604.38 399.11 C 604 396.75 601.5 392.6 599.47 390.97 C 595.91 388.12 594.83 386.52 594.83 384.05 C 594.83 381.73 595.13 380.87 596.47 379.49 C 597.99 377.91 598.58 377.72 601.5 377.88 C 603.33 377.99 603.8 378.13 604.55 378.74 C 605.02 379.16 605.61 379.49 605.8 379.49 C 606.36 379.49 609.19 382.12 611 384.28 C 611.41 384.75 612.14 385.6 612.58 386.16 C 613.05 386.71 613.44 387.32 613.44 387.48 C 613.44 387.93 615.39 390 615.83 390 C 616.03 390 616.61 389.75 617.11 389.48 C 619.89 387.87 631.92 387.96 635.48 389.62 C 636.28 389.98 637.17 390.28 637.51 390.28 C 637.81 390.28 638.48 390.58 639.01 390.97 C 639.53 391.36 640.09 391.66 640.26 391.66 C 640.87 391.66 643.87 393.68 645.81 395.43 C 646.18 395.76 646.87 396.28 647.4 396.59 L 648.34 397.17 L 649.57 396.56 C 650.26 396.23 651.12 395.76 651.51 395.51 C 651.9 395.26 652.68 394.96 653.26 394.87 C 653.84 394.76 654.9 394.37 655.6 393.99 C 656.29 393.63 657.32 393.32 657.87 393.32 C 658.4 393.32 660.1 393.13 661.6 392.85 C 663.99 392.47 664.79 392.47 667.46 392.74 C 672.79 393.32 674.05 393.54 674.55 393.99 C 674.82 394.24 675.6 394.62 676.3 394.85 C 677.94 395.43 679.94 397.47 680.66 399.36 C 681.38 401.18 681.38 401.79 680.69 403.15 C 680.38 403.76 680.13 404.36 680.13 404.53 C 680.13 404.7 679.55 405.33 678.82 405.91 L 677.49 407.02 L 674.43 407.02 C 671.66 407.02 671.27 406.97 670.27 406.33 C 669.18 405.66 668.99 405.64 664.43 405.64 C 659.99 405.64 659.65 405.66 658.82 406.27 C 658.35 406.61 657.79 406.88 657.57 406.88 C 656.73 406.88 654.01 408.99 651.32 411.72 C 649.37 413.72 648.26 414.63 647.84 414.63 C 647.48 414.63 646.95 414.69 646.65 414.74 C 646.34 414.82 645.7 414.77 645.23 414.66 Z" stroke-width="2.333" stroke="none" fill="#1D4273" />
</g>
<g id="shape-79" data-name="小红书平北职场PPT5-4" transform="translate(642.23 459.55) scale(1 -1) translate(-642.23 -459.55)">
<path d="M 611.46 471.74 C 609.99 471.29 609.07 470.38 608.05 468.44 C 607.21 466.84 607.13 465.57 607.85 464.02 C 608.13 463.41 608.44 462.55 608.55 462.08 C 608.66 461.64 609.02 460.97 609.32 460.64 C 609.94 459.98 609.94 459.84 608.96 457.51 C 607.52 453.94 607.32 453.36 607.32 452.48 C 607.32 451.18 608.69 448.77 610.07 447.69 C 611.02 446.94 611.58 446.72 613.05 446.58 C 616.27 446.22 618.49 447.3 619.66 449.77 C 620.58 451.68 621.11 452.59 621.52 452.84 C 621.75 452.98 632.3 453.09 646.81 453.09 L 671.7 453.09 L 672.76 453.92 C 673.34 454.39 673.93 454.75 674.07 454.75 C 674.18 454.75 674.59 455.44 674.98 456.27 C 675.37 457.18 675.82 457.79 676.07 457.79 C 676.71 457.79 676.71 460.7 676.1 460.95 C 675.85 461.03 675.43 461.64 675.15 462.27 C 674.37 464.02 673.04 465.12 671.29 465.51 C 670.26 465.73 662.56 465.82 645.89 465.82 L 621.94 465.82 L 620.74 467.09 C 620.08 467.81 619.55 468.55 619.55 468.75 C 619.55 468.97 619.05 469.63 618.44 470.27 C 616.74 472.01 614.16 472.57 611.46 471.74 Z" stroke-width="2.333" stroke="none" fill="#1D4273" />
</g>
</g>
<g id="shape-7" data-name="小红书平北职场PPT6">
<g id="shape-70" data-name="组合 69">
<g id="shape-72" data-name="显眼包PPT14">
<g id="shape-74" data-name="小红书平北职场PPT6-1">
<rect x="57.5" y="257.88" width="288.76" height="67.05" rx="7.17" ry="7.17" fill="url(#ggrad2)" stroke-width="1.333" stroke-linecap="butt" stroke="#FFFFFF" stroke-linejoin="miter" filter="url(#fx2)" />
</g>
<g id="shape-75" data-name="小红书平北职场PPT6-2">
<rect x="72.82" y="267.18" width="258.13" height="48.8" fill="none" />
<text x="72.82" y="280.78" text-anchor="start" xml:space="preserve" font-family="&quot;思源黑体 CN Heavy&quot;, &quot;思源黑体 CN Normal&quot;, sans-serif" font-size="16" fill="#FFFFFF"><tspan fill="#FFFFFF" font-size="16">方案理想化且缺乏弹性，低估技术复</tspan><tspan x="72.82" dy="20.8" fill="#FFFFFF" font-size="16">杂度与日常干扰</tspan></text>
</g>
</g>
<g id="shape-73" data-name="小红书平北职场PPT6-3">
<rect x="49.77" y="210.28" width="314.58" height="38.78" fill="none" />
<text x="59.37" y="235.48" text-anchor="start" xml:space="preserve" font-family="&quot;思源黑体 CN Heavy&quot;, &quot;思源黑体 CN Normal&quot;, sans-serif" font-size="24" fill="url(#txtgrad3)"><tspan fill="url(#txtgrad3)" font-size="24">{{CLOSING_MESSAGE}}</tspan></text>
</g>
</g>
<g id="shape-71" data-name="小红书平北职场PPT6-4">
<rect x="58.77" y="336.22" width="301.86" height="108.8" fill="none" />
<text x="68.37" y="354.62" text-anchor="start" xml:space="preserve" font-family="&quot;思源黑体 CN Heavy&quot;, &quot;思源黑体 CN Normal&quot;, sans-serif" font-size="16" fill="#0F1115"><tspan fill="#0F1115" font-size="16">项目初期方案逻辑严谨但过于理想化，</tspan><tspan x="68.37" dy="20.8" fill="#0F1115" font-size="16">低估了技术复杂性与日常任务干扰。因</tspan><tspan x="68.37" dy="20.8" fill="#0F1115" font-size="16">缺乏弹性空间，计划难以严格执行，中</tspan><tspan x="68.37" dy="20.8" fill="#0F1115" font-size="16">期便显著偏离现实</tspan></text>
</g>
</g>
<g id="shape-8" data-name="小红书平北职场PPT7">
<g id="shape-64" data-name="组合 63">
<g id="shape-66" data-name="显眼包PPT14">
<g id="shape-68" data-name="小红书平北职场PPT7-1">
<rect x="950.91" y="296.28" width="288.76" height="67.05" rx="7.17" ry="7.17" fill="url(#ggrad5)" stroke-width="1.333" stroke-linecap="butt" stroke="#FFFFFF" stroke-linejoin="miter" filter="url(#fx3)" />
</g>
<g id="shape-69" data-name="小红书平北职场PPT7-2">
<rect x="966.23" y="305.58" width="247.93" height="48.8" fill="none" />
<text x="966.23" y="319.18" text-anchor="start" xml:space="preserve" font-family="&quot;思源黑体 CN Heavy&quot;, &quot;思源黑体 CN Normal&quot;, sans-serif" font-size="16" fill="#FFFFFF"><tspan fill="#FFFFFF" font-size="16">频繁变更与持续高压致团队疲惫，</tspan><tspan x="966.23" dy="20.8" fill="#FFFFFF" font-size="16">被动执行取代主动创新</tspan></text>
</g>
</g>
<g id="shape-67" data-name="小红书平北职场PPT7-3">
<rect x="944.64" y="248.67" width="314.58" height="38.78" fill="none" />
<text x="954.24" y="273.87" text-anchor="start" xml:space="preserve" font-family="&quot;思源黑体 CN Heavy&quot;, &quot;思源黑体 CN Normal&quot;, sans-serif" font-size="24" fill="url(#txtgrad6)"><tspan fill="url(#txtgrad6)" font-size="24">情绪脑</tspan><tspan fill="#000000" font-size="21.33">：士气损耗，氛围沉滞</tspan></text>
</g>
</g>
<g id="shape-65" data-name="小红书平北职场PPT7-4">
<rect x="949.58" y="380.31" width="301.86" height="134" fill="none" />
<text x="959.18" y="398.71" text-anchor="start" xml:space="preserve" font-family="&quot;思源黑体 CN Heavy&quot;, &quot;思源黑体 CN Normal&quot;, sans-serif" font-size="16" fill="#0F1115"><tspan fill="#0F1115" font-size="16">频繁的变更与高压攻坚持续消耗团队热</tspan><tspan x="959.18" dy="20.8" fill="#0F1115" font-size="16">情，使成员从积极转为疲惫，甚至产生</tspan><tspan x="959.18" dy="20.8" fill="#0F1115" font-size="16">挫败感。这种情绪蔓延后，团队氛围变</tspan><tspan x="959.18" dy="20.8" fill="#0F1115" font-size="16">得沉滞，成员倾向于被动执行与保守方</tspan><tspan x="959.18" dy="20.8" fill="#0F1115" font-size="16">案，创造力与工作热情明显削弱。</tspan></text>
</g>
</g>
<g id="shape-9" data-name="小红书平北职场PPT8">
<g id="shape-58" data-name="组合 57">
<g id="shape-60" data-name="显眼包PPT14">
<g id="shape-62" data-name="小红书平北职场PPT8-1">
<rect x="143.85" y="544.46" width="288.76" height="67.05" rx="7.17" ry="7.17" fill="url(#ggrad7)" stroke-width="1.333" stroke-linecap="butt" stroke="#FFFFFF" stroke-linejoin="miter" filter="url(#fx4)" />
</g>
<g id="shape-63" data-name="小红书平北职场PPT8-2">
<rect x="159.17" y="553.76" width="258.13" height="48.8" fill="none" />
<text x="159.17" y="567.36" text-anchor="start" xml:space="preserve" font-family="&quot;思源黑体 CN Heavy&quot;, &quot;思源黑体 CN Normal&quot;, sans-serif" font-size="16" fill="#FFFFFF"><tspan fill="#FFFFFF" font-size="16">对未知与超载的本能恐惧，引发拖延</tspan><tspan x="159.17" dy="20.8" fill="#FFFFFF" font-size="16">与回避行为</tspan></text>
</g>
</g>
<g id="shape-61" data-name="小红书平北职场PPT8-3">
<rect x="137.58" y="496.86" width="314.58" height="38.78" fill="none" />
<text x="147.18" y="522.06" text-anchor="start" xml:space="preserve" font-family="&quot;思源黑体 CN Heavy&quot;, &quot;思源黑体 CN Normal&quot;, sans-serif" font-size="24" fill="url(#txtgrad8)"><tspan fill="url(#txtgrad8)" font-size="24">本能脑</tspan><tspan fill="#000000" font-size="21.33">：防御启动，回避增长</tspan></text>
</g>
</g>
<g id="shape-59" data-name="小红书平北职场PPT8-4">
<rect x="141.19" y="624.71" width="938.51" height="58.39" fill="none" />
<text x="150.79" y="643.11" text-anchor="start" xml:space="preserve" font-family="&quot;思源黑体 CN Heavy&quot;, &quot;思源黑体 CN Normal&quot;, sans-serif" font-size="16" fill="#0F1115"><tspan fill="#0F1115" font-size="16">面对新技术的不确定性和紧迫的截止日期，团队成员出于安全本能，不自觉地启动了心理防御机制，表现为回避困难任务、拖延关</tspan><tspan x="150.79" dy="20.8" fill="#0F1115" font-size="16">键决策，这进一步加剧了进度滞后，形成恶性循环</tspan></text>
</g>
</g>
<g id="shape-10" data-name="小红书平北职场PPT9">
<ellipse cx="513.49" cy="299.9" rx="44" ry="44" fill="url(#ggrad9)" stroke-width="1.333" stroke-linecap="butt" stroke="none" stroke-linejoin="miter" />
</g>
<g id="shape-11" data-name="小红书平北职场PPT10">
<rect x="481.61" y="273.98" width="60.45" height="58.94" fill="none" />
<text x="491.21" y="296.06" text-anchor="start" xml:space="preserve" font-family="&quot;思源黑体 CN Heavy&quot;, &quot;思源黑体 CN Normal&quot;, sans-serif" font-size="20.33" fill="#FFFFFF"><tspan fill="#FFFFFF" font-size="20.33">管理</tspan></text>
<text x="491.21" y="320.46" text-anchor="start" xml:space="preserve" font-family="&quot;思源黑体 CN Heavy&quot;, &quot;思源黑体 CN Normal&quot;, sans-serif" font-size="20.33" fill="#FFFFFF"><tspan fill="#FFFFFF" font-size="20.33">逻辑</tspan></text>
</g>
<g id="shape-12" data-name="小红书平北职场PPT11">
<rect x="498.38" y="263.75" width="23.19" height="24.62" fill="none" />
<text x="509.98" y="281.03" text-anchor="middle" xml:space="preserve" font-family="&quot;思源黑体 CN Heavy&quot;, &quot;思源黑体 CN Normal&quot;, sans-serif" font-size="20.33" fill="url(#txtgrad10)"><tspan fill="url(#txtgrad10)" font-size="20.33">01</tspan></text>
</g>
<g id="shape-13" data-name="小红书平北职场PPT12">
<g id="shape-55" data-name="小红书平北职场PPT12-1">
<ellipse cx="471.35" cy="301.46" rx="5.15" ry="5.15" fill="#FFFFFF" stroke-width="1.27" stroke="#1D4273" filter="url(#fx5)" />
</g>
<g id="shape-56" data-name="小红书平北职场PPT12-2">
<line x1="414.78" y1="301.46" x2="466.42" y2="301.46" stroke-width="1.27" fill="#1D4273" stroke="#1D4273" />
</g>
<g id="shape-57" data-name="小红书平北职场PPT12-3">
<line x1="373.54" y1="243.7" x2="415.14" y2="301.46" stroke-width="1.27" marker-start="url(#marrow1)" fill="#1D4273" stroke="#1D4273" />
</g>
</g>
<g id="shape-14" data-name="小红书平北职场PPT13">
<g id="shape-52" data-name="小红书平北职场PPT13-1">
<ellipse cx="796.52" cy="362.68" rx="44" ry="44" fill="url(#ggrad11)" stroke-width="1.333" stroke-linecap="butt" stroke="none" stroke-linejoin="miter" />
</g>
<g id="shape-53" data-name="小红书平北职场PPT13-2">
<rect x="768.18" y="335.64" width="66.51" height="58.94" fill="none" />
<text x="777.78" y="357.73" text-anchor="start" xml:space="preserve" font-family="&quot;思源黑体 CN Heavy&quot;, &quot;思源黑体 CN Normal&quot;, sans-serif" font-size="20.33" fill="#FFFFFF"><tspan fill="#FFFFFF" font-size="20.33">管理 </tspan></text>
<text x="777.78" y="382.13" text-anchor="start" xml:space="preserve" font-family="&quot;思源黑体 CN Heavy&quot;, &quot;思源黑体 CN Normal&quot;, sans-serif" font-size="20.33" fill="#FFFFFF"><tspan fill="#FFFFFF" font-size="20.33">情绪</tspan></text>
</g>
<g id="shape-54" data-name="小红书平北职场PPT13-3">
<rect x="781.43" y="326.76" width="27.01" height="24.62" fill="none" />
<text x="794.93" y="344.05" text-anchor="middle" xml:space="preserve" font-family="&quot;思源黑体 CN Heavy&quot;, &quot;思源黑体 CN Normal&quot;, sans-serif" font-size="20.33" fill="url(#txtgrad12)"><tspan fill="url(#txtgrad12)" font-size="20.33">02</tspan></text>
</g>
</g>
<g id="shape-15" data-name="小红书平北职场PPT14" transform="translate(882.21 322.32) scale(-1 1) translate(-882.21 -322.32)">
<g id="shape-49" data-name="小红书平北职场PPT14-1">
<ellipse cx="926.84" cy="360.41" rx="5.15" ry="5.15" fill="#FFFFFF" stroke-width="1.27" stroke="#A13422" filter="url(#fx6)" />
</g>
<g id="shape-50" data-name="小红书平北职场PPT14-2">
<line x1="870.27" y1="360.41" x2="921.91" y2="360.41" stroke-width="1.27" stroke="#A13422" fill="#1D4273" />
</g>
<g id="shape-51" data-name="小红书平北职场PPT14-3">
<line x1="832.43" y1="279.07" x2="870.64" y2="360.41" stroke-width="1.27" stroke="#A13422" marker-start="url(#marrow2)" fill="#1D4273" />
</g>
</g>
<g id="shape-16" data-name="小红书平北职场PPT15">
<g id="shape-42" data-name="小红书平北职场PPT15-1">
<ellipse cx="677.08" cy="563.5" rx="44" ry="44" fill="url(#ggrad13)" stroke-width="1.333" stroke-linecap="butt" stroke="none" stroke-linejoin="miter" />
</g>
<g id="shape-43" data-name="小红书平北职场PPT15-2">
<rect x="659.36" y="528.96" width="26.56" height="24.62" fill="none" />
<text x="672.64" y="546.25" text-anchor="middle" xml:space="preserve" font-family="&quot;思源黑体 CN Heavy&quot;, &quot;思源黑体 CN Normal&quot;, sans-serif" font-size="20.33" fill="url(#txtgrad14)"><tspan fill="url(#txtgrad14)" font-size="20.33">03</tspan></text>
</g>
<g id="shape-44" data-name="小红书平北职场PPT15-3">
<rect x="646.57" y="537.17" width="60.45" height="58.94" fill="none" />
<text x="656.17" y="559.25" text-anchor="start" xml:space="preserve" font-family="&quot;思源黑体 CN Heavy&quot;, &quot;思源黑体 CN Normal&quot;, sans-serif" font-size="20.33" fill="#FFFFFF"><tspan fill="#FFFFFF" font-size="20.33">管理</tspan></text>
<text x="656.17" y="583.65" text-anchor="start" xml:space="preserve" font-family="&quot;思源黑体 CN Heavy&quot;, &quot;思源黑体 CN Normal&quot;, sans-serif" font-size="20.33" fill="#FFFFFF"><tspan fill="#FFFFFF" font-size="20.33">本能</tspan></text>
</g>
<g id="shape-45" data-name="组合 44">
<g id="shape-46" data-name="小红书平北职场PPT15-4">
<ellipse cx="633.94" cy="572.61" rx="5.15" ry="5.15" fill="#FFFFFF" stroke-width="1.27" stroke="#1D4273" filter="url(#fx7)" />
</g>
<g id="shape-47" data-name="小红书平北职场PPT15-5">
<line x1="499.68" y1="572.61" x2="629.01" y2="572.61" stroke-width="1.27" fill="#1D4273" stroke="#1D4273" />
</g>
<g id="shape-48" data-name="小红书平北职场PPT15-6">
<line x1="455.78" y1="514.86" x2="497.39" y2="572.61" stroke-width="1.27" marker-start="url(#marrow3)" fill="#1D4273" stroke="#1D4273" />
</g>
</g>
</g>
<g id="shape-17" data-name="小红书平北职场PPT1">
<g id="shape-38" data-name="小红书平北职场PPT1-1">
<rect x="35.17" y="89.51" width="1209.67" height="82.91" fill="#F2F2F2" stroke-width="2.333" stroke="none" />
</g>
<g id="shape-39" data-name="小红书平北职场PPT1-2">
<rect x="124.51" y="99.89" width="1100.34" height="62.16" fill="none" />
<text x="134.11" y="120.56" text-anchor="start" xml:space="preserve" font-family="&quot;思源黑体 CN Normal&quot;, sans-serif" font-size="18.67" fill="#000000"><tspan fill="#000000" font-size="18.67">人类大脑是进化形成的三重系统：最古老的“本能脑”负责生存本能，确保安全；在此基础上发展的“情绪脑”负责情感和喜好，驱动</tspan><tspan x="134.11" dy="22.4" fill="#000000" font-size="18.67">情绪反应；最外层的“理性脑”则主导逻辑、分析与规划。我们的一切决策和行为，都是这三个脑系统协同或冲突的结果</tspan></text>
</g>
<g id="shape-40" data-name="小红书平北职场PPT1-3">
<path d="M 34.98 89.51 L 112.18 89.51 L 112.18 125 L 122.47 130.97 L 112.18 136.94 L 112.18 174.53 L 34.98 174.53 Z" fill="url(#ggrad15)" stroke-width="1" stroke="none" stroke-linejoin="round" filter="url(#fx8)" />
</g>
<g id="shape-41" data-name="小红书平北职场PPT1-4">
<rect x="37.9" y="98.1" width="67.86" height="67.86" fill="none" />
<text x="47.5" y="123.3" text-anchor="start" xml:space="preserve" font-family="&quot;思源黑体 CN Heavy&quot;, &quot;思源黑体 CN Normal&quot;, sans-serif" font-size="24" fill="#FFFFFF"><tspan fill="#FFFFFF" font-size="24">模型</tspan></text>
<text x="47.5" y="152.1" text-anchor="start" xml:space="preserve" font-family="&quot;思源黑体 CN Heavy&quot;, &quot;思源黑体 CN Normal&quot;, sans-serif" font-size="24" fill="#FFFFFF"><tspan fill="#FFFFFF" font-size="24">概述</tspan></text>
</g>
</g>
<g id="shape-19" data-name="小红书平北职场PPT1-2">
<rect x="35.17" y="19.35" width="452.38" height="45.24" fill="none" />
<text x="35.17" y="51.08" text-anchor="start" xml:space="preserve" font-family="&quot;思源黑体 CN Heavy&quot;, &quot;思源黑体 CN Normal&quot;, sans-serif" font-size="37.33" fill="#000000"><tspan fill="#000000" font-size="37.33">{{THANK_YOU}}</tspan></text>
</g></svg>