<?xml version="1.0" encoding="UTF-8" standalone="yes"?><svg id="Capa_1" xmlns="http://www.w3.org/2000/svg" xmlns:xlink="http://www.w3.org/1999/xlink" version="1.2" baseProfile="tiny" x="0" y="0" width="512" height="512" viewBox="0 0 512 512"><defs/><g><g><path fill="#ffffff" d="M 501.98 246 L 457.982 246 L 457.982 226.708 C 457.982 222.116 454.855 218.115 450.399 217.004 L 420.787 209.627 L 405.305 172.268 L 421.019 146.126 C 423.385 142.191 422.766 137.15 419.519 133.904 L 378.085 92.47 C 374.837 89.223 369.796 88.605 365.862 90.97 L 339.72 106.684 L 302.36 91.202 L 294.983 61.59 C 293.873 57.134 289.871 54.007 285.279 54.007 L 265.99 54.007 L 265.99 10.009 C 265.99 4.486 261.513 0.009 255.99 0.009 C 250.467 0.009 245.99 4.486 245.99 10.009 L 245.99 54.007 L 226.698 54.007 C 222.106 54.007 218.105 57.134 216.994 61.59 L 209.617 91.202 L 172.258 106.684 L 146.116 90.97 C 142.179 88.604 137.14 89.222 133.894 92.47 L 92.46 133.904 C 89.213 137.151 88.595 142.192 90.96 146.126 L 106.674 172.268 L 91.192 209.627 L 61.58 217.004 C 57.124 218.114 53.997 222.116 53.997 226.708 L 53.997 246 L 10 246 C 4.477 246 0 250.477 0 256 C 0 261.522 4.477 266 10 266 L 53.998 266 L 53.998 285.292 C 53.998 289.884 57.125 293.886 61.581 294.995 L 91.193 302.373 L 106.675 339.732 L 90.96 365.874 C 88.594 369.81 89.213 374.851 92.46 378.098 L 133.894 419.532 C 137.141 422.778 142.182 423.396 146.118 421.031 L 172.259 405.317 L 209.619 420.799 L 216.996 450.41 C 218.106 454.866 222.108 457.993 226.7 457.993 L 245.991 457.993 L 245.991 501.991 C 245.991 507.513 250.468 511.991 255.991 511.991 C 261.514 511.991 265.991 507.513 265.991 501.991 L 265.991 457.993 L 285.283 457.993 C 289.875 457.993 293.876 454.866 294.987 450.41 L 302.364 420.799 L 339.724 405.317 L 365.865 421.031 C 369.801 423.396 374.841 422.778 378.089 419.532 L 419.523 378.098 C 422.769 374.851 423.388 369.809 421.022 365.874 L 405.308 339.732 L 420.79 302.373 L 450.402 294.995 C 454.858 293.886 457.985 289.884 457.985 285.292 L 457.985 266 L 501.983 266 C 507.506 266 511.983 261.522 511.983 256 C 511.98 250.477 507.503 246 501.98 246 M 437.983 277.478 L 411.062 284.186 C 407.986 284.953 405.455 287.132 404.241 290.061 L 384.899 336.735 C 383.685 339.664 383.933 342.996 385.567 345.715 L 399.853 369.481 L 369.47 399.865 L 345.704 385.579 C 342.985 383.944 339.653 383.696 336.723 384.911 L 290.049 404.254 C 287.12 405.468 284.941 407.998 284.174 411.075 L 277.467 437.995 L 234.511 437.995 L 227.804 411.075 C 227.037 407.998 224.858 405.468 221.929 404.254 L 175.255 384.911 C 172.325 383.696 168.993 383.944 166.274 385.579 L 142.508 399.865 L 112.125 369.481 L 126.411 345.715 C 128.045 342.996 128.292 339.664 127.078 336.735 L 107.736 290.061 C 106.522 287.132 103.991 284.953 100.915 284.186 L 73.995 277.478 L 73.995 234.522 L 100.916 227.815 C 103.992 227.048 106.523 224.869 107.737 221.94 L 127.079 175.266 C 128.293 172.336 128.045 169.004 126.412 166.286 L 112.126 142.52 L 142.509 112.137 L 166.275 126.423 C 168.993 128.057 172.325 128.305 175.255 127.09 L 221.929 107.748 C 224.858 106.534 227.037 104.003 227.804 100.927 L 234.511 74.006 L 277.467 74.006 L 284.174 100.927 C 284.941 104.003 287.12 106.534 290.049 107.748 L 336.723 127.09 C 339.654 128.304 342.985 128.056 345.703 126.423 L 369.469 112.137 L 399.852 142.52 L 385.566 166.286 C 383.932 169.004 383.685 172.336 384.899 175.266 L 404.241 221.94 C 405.455 224.869 407.986 227.048 411.062 227.815 L 437.983 234.522 L 437.983 277.478"/></g></g><g><g><path fill="#ffffff" d="M 300.089 135.808 C 294.905 133.908 289.159 136.566 287.256 141.75 C 285.353 146.935 288.014 152.68 293.198 154.583 C 335.538 170.122 363.985 210.879 363.985 256.001 C 363.985 315.551 315.538 363.997 255.989 363.997 C 196.44 363.997 147.994 315.55 147.994 256 C 147.994 213.304 173.222 174.53 212.264 157.22 C 217.313 154.982 219.591 149.074 217.352 144.026 C 215.114 138.978 209.205 136.699 204.158 138.938 C 157.892 159.451 127.996 205.401 127.996 256 C 127.996 326.576 185.414 383.995 255.991 383.995 C 326.568 383.995 383.985 326.576 383.985 256 C 383.985 202.526 350.269 154.224 300.089 135.808 Z"/></g></g><g><g><path fill="#ffffff" d="M 256.52 128.006 L 255.99 128.005 C 250.467 128.005 245.99 132.482 245.99 138.005 C 245.99 143.528 250.467 148.005 255.99 148.005 L 256.461 148.006 C 256.471 148.006 256.481 148.006 256.491 148.006 C 262 148.006 266.474 143.548 266.491 138.035 C 266.507 132.512 262.043 128.022 256.52 128.006 Z"/></g></g><g><g><path fill="#ffffff" d="M 325.654 216.221 C 320.131 216.221 315.654 220.698 315.654 226.221 L 315.654 284.506 C 315.654 290.028 320.131 294.506 325.654 294.506 C 331.177 294.506 335.654 290.028 335.654 284.506 L 335.654 226.22 C 335.654 220.697 331.177 216.221 325.654 216.221 Z"/></g></g><g><g><path fill="#ffffff" d="M 277.16 216.221 L 256.558 216.221 C 251.035 216.221 246.558 220.698 246.558 226.221 L 246.558 246.159 L 246.558 259.8 L 246.558 284.505 C 246.558 290.027 251.035 294.505 256.558 294.505 C 262.081 294.505 266.558 290.027 266.558 284.505 L 266.558 269.8 L 277.161 269.8 C 291.111 269.8 302.461 258.449 302.461 244.5 L 302.461 241.521 C 302.46 227.57 291.111 216.221 277.16 216.221 M 282.461 244.499 C 282.461 247.422 280.083 249.8 277.16 249.8 L 266.557 249.8 L 266.557 246.158 L 266.557 236.219 L 277.16 236.219 C 280.083 236.219 282.461 238.597 282.461 241.52 L 282.461 244.499"/></g></g><g><g><path fill="#ffffff" d="M 235.847 282.092 L 210.181 222.278 C 208.605 218.602 204.991 216.22 200.992 216.22 C 196.993 216.22 193.379 218.602 191.802 222.277 L 166.136 282.091 C 163.958 287.166 166.307 293.046 171.383 295.223 C 176.459 297.4 182.338 295.052 184.516 289.977 L 200.992 251.578 L 217.469 289.977 C 219.095 293.767 222.785 296.037 226.663 296.037 C 227.978 296.037 229.316 295.775 230.601 295.224 C 235.676 293.047 238.025 287.167 235.847 282.092 Z"/></g></g><g><g><path fill="#ffffff" d="M 478.001 0.01 C 459.254 0.01 444.002 15.261 444.002 34.009 C 444.002 39.745 445.435 45.15 447.954 49.893 L 409.695 88.151 C 405.79 92.056 405.79 98.388 409.695 102.293 C 411.648 104.245 414.208 105.221 416.767 105.221 C 419.326 105.221 421.886 104.245 423.838 102.292 L 462.089 64.041 C 466.84 66.568 472.255 68.007 478 68.007 C 496.747 68.007 511.999 52.756 511.999 34.008 C 511.999 15.26 496.749 0.01 478.001 0.01 M 478.001 48.008 C 470.281 48.008 464.002 41.728 464.002 34.009 C 464.002 26.289 470.282 20.01 478.001 20.01 C 485.721 20.01 492 26.29 492 34.009 C 492.001 41.728 485.721 48.008 478.001 48.008"/></g></g><g><g><path fill="#ffffff" d="M 102.283 409.705 C 98.378 405.802 92.046 405.802 88.142 409.706 L 49.897 447.951 C 45.149 445.428 39.739 443.992 33.999 443.992 C 15.251 443.993 0 459.244 0 477.991 C 0 496.738 15.251 511.99 33.999 511.99 C 52.747 511.99 67.998 496.739 67.998 477.991 C 67.998 472.25 66.562 466.84 64.039 462.093 L 102.284 423.847 C 106.188 419.943 106.188 413.611 102.283 409.705 M 33.999 491.991 C 26.279 491.991 20 485.711 20 477.992 C 20 470.272 26.28 463.993 33.999 463.993 C 41.719 463.993 47.998 470.273 47.998 477.992 C 47.998 485.711 41.718 491.991 33.999 491.991"/></g></g><g><g><path fill="#ffffff" d="M 423.843 409.704 C 421.973 407.844 419.393 406.774 416.763 406.774 C 414.133 406.774 411.553 407.843 409.693 409.704 C 407.833 411.563 406.763 414.143 406.763 416.774 C 406.763 419.404 407.833 421.984 409.693 423.843 C 411.553 425.703 414.133 426.774 416.763 426.774 C 419.403 426.774 421.973 425.704 423.843 423.843 C 425.703 421.984 426.763 419.413 426.763 416.774 C 426.763 414.143 425.703 411.563 423.843 409.704 Z"/></g></g><g><g><path fill="#ffffff" d="M 478.001 443.993 C 472.255 443.993 466.84 445.431 462.09 447.959 L 445.196 431.065 C 441.291 427.162 434.959 427.161 431.055 431.065 C 427.15 434.97 427.149 441.302 431.055 445.207 L 447.955 462.108 C 445.437 466.853 444.003 472.258 444.003 477.992 C 444.003 496.739 459.254 511.991 478.002 511.991 C 496.75 511.991 512 496.74 512 477.992 C 512 459.244 496.749 443.993 478.001 443.993 M 478.001 491.991 C 470.281 491.991 464.002 485.711 464.002 477.992 C 464.002 470.272 470.282 463.993 478.001 463.993 C 485.721 463.993 492 470.273 492 477.992 C 492.001 485.711 485.721 491.991 478.001 491.991"/></g></g><g><g><path fill="#ffffff" d="M 102.283 88.151 L 64.039 49.907 C 66.562 45.159 67.998 39.749 67.998 34.009 C 67.998 15.262 52.747 0.01 33.999 0.01 C 15.251 0.01 0 15.261 0 34.009 C 0 52.757 15.251 68.008 33.999 68.008 C 39.74 68.008 45.15 66.572 49.897 64.049 L 88.142 102.293 C 90.095 104.246 92.654 105.222 95.213 105.222 C 97.772 105.222 100.332 104.246 102.284 102.293 C 106.188 98.388 106.188 92.056 102.283 88.151 M 33.999 48.008 C 26.279 48.008 20 41.728 20 34.009 C 20 26.289 26.28 20.01 33.999 20.01 C 41.719 20.01 47.998 26.29 47.998 34.009 C 47.998 41.728 41.718 48.008 33.999 48.008"/></g></g><g/><g/><g/><g/><g/><g/><g/><g/><g/><g/><g/><g/><g/><g/><g/></svg>
