<?xml version="1.0" encoding="UTF-8" standalone="yes"?><svg id="Capa_1" xmlns="http://www.w3.org/2000/svg" xmlns:xlink="http://www.w3.org/1999/xlink" version="1.2" baseProfile="tiny" x="0" y="0" width="512" height="512" viewBox="0 0 512 512"><defs/><g><g><path fill="#ffffff" d="M 376.818 355.993 C 372.402 355.993 368.209 356.956 364.426 358.67 C 359.912 347.716 349.124 339.983 336.56 339.983 C 328.829 339.983 321.771 342.912 316.431 347.716 C 311.091 342.912 304.033 339.983 296.302 339.983 C 292.75 339.983 289.341 340.605 286.173 341.74 L 286.173 294.086 C 286.173 277.473 272.657 263.957 256.044 263.957 C 239.431 263.957 225.915 277.473 225.915 294.086 L 225.915 420.052 L 220.167 410.621 C 211.296 396.064 192.782 391.339 178.021 399.863 C 163.98 407.969 158.503 425.756 165.553 440.356 L 197.41 506.342 C 199.135 509.914 202.705 511.997 206.423 511.997 C 207.881 511.997 209.362 511.677 210.763 511 C 215.737 508.599 217.822 502.621 215.421 497.647 L 183.564 431.661 C 181.043 426.441 183.001 420.083 188.022 417.184 C 193.3 414.137 199.918 415.826 203.089 421.03 L 227.376 460.88 C 229.709 464.707 234.304 466.515 238.618 465.304 C 242.933 464.093 245.915 460.158 245.915 455.676 L 245.915 294.086 C 245.915 288.501 250.459 283.957 256.044 283.957 C 261.629 283.957 266.173 288.501 266.173 294.086 L 266.173 418.892 C 266.173 424.415 270.65 428.892 276.173 428.892 C 281.696 428.892 286.173 424.415 286.173 418.892 L 286.173 370.112 C 286.173 364.527 290.717 359.983 296.302 359.983 C 301.887 359.983 306.431 364.527 306.431 370.112 L 306.431 377.307 L 306.431 418.891 C 306.431 424.414 310.908 428.891 316.431 428.891 C 321.954 428.891 326.431 424.414 326.431 418.891 L 326.431 377.307 L 326.431 370.112 C 326.431 364.527 330.975 359.983 336.56 359.983 C 342.145 359.983 346.689 364.527 346.689 370.112 L 346.689 386.122 L 346.689 399.016 L 346.689 418.892 C 346.689 424.415 351.166 428.892 356.689 428.892 C 362.212 428.892 366.689 424.415 366.689 418.892 L 366.689 399.016 L 366.689 386.122 C 366.689 380.537 371.233 375.993 376.818 375.993 C 382.403 375.993 386.947 380.537 386.947 386.122 L 386.947 501.993 C 386.947 507.516 391.424 511.993 396.947 511.993 C 402.47 511.993 406.947 507.516 406.947 501.993 L 406.947 386.122 C 406.947 369.51 393.431 355.993 376.818 355.993 Z"/></g></g><g><g><path fill="#ffffff" d="M 256.043 229.994 C 220.702 229.994 191.951 258.746 191.951 294.087 C 191.951 299.61 196.428 304.087 201.951 304.087 C 207.474 304.087 211.951 299.61 211.951 294.087 C 211.951 269.774 231.731 249.994 256.044 249.994 C 280.357 249.994 300.136 269.774 300.136 294.087 C 300.136 299.61 304.613 304.087 310.136 304.087 C 315.659 304.087 320.136 299.61 320.136 294.087 C 320.136 258.745 291.384 229.994 256.043 229.994 Z"/></g></g><g><g><path fill="#ffffff" d="M 348.38 255.39 C 332.733 218.093 296.489 193.994 256.045 193.994 C 200.854 193.994 155.953 238.895 155.953 294.087 C 155.953 299.61 160.43 304.087 165.953 304.087 C 171.476 304.087 175.951 299.61 175.951 294.087 C 175.951 249.924 211.881 213.994 256.044 213.994 C 288.41 213.994 317.414 233.28 329.937 263.127 C 332.074 268.22 337.935 270.617 343.027 268.48 C 348.12 266.343 350.516 260.482 348.38 255.39 Z"/></g></g><g><g><path fill="#ffffff" d="M 346.137 283.743 C 346.122 283.743 346.108 283.743 346.093 283.743 C 340.571 283.767 336.113 288.263 336.136 293.786 L 336.136 294.086 C 336.136 299.609 340.613 304.086 346.136 304.086 C 351.659 304.086 356.136 299.609 356.136 294.086 L 356.136 293.7 C 356.112 288.193 351.64 283.743 346.137 283.743 Z"/></g></g><g><g><path fill="#ffffff" d="M 255.987 0.002 C 235.585 0.002 218.987 16.6 218.987 37.002 C 218.987 53.939 230.429 68.244 245.987 72.618 L 245.987 128.136 C 245.987 133.659 250.464 138.136 255.987 138.136 C 261.51 138.136 265.987 133.659 265.987 128.136 L 265.987 72.619 C 281.544 68.245 292.987 53.94 292.987 37.003 C 292.987 16.601 276.389 0.002 255.987 0.002 M 255.987 54.003 C 246.613 54.003 238.987 46.377 238.987 37.003 C 238.987 27.629 246.613 20.003 255.987 20.003 C 265.361 20.003 272.987 27.629 272.987 37.003 C 272.987 46.377 265.361 54.003 255.987 54.003"/></g></g><g><g><path fill="#ffffff" d="M 475 218.994 C 458.063 218.994 443.759 230.437 439.384 245.994 L 383.856 245.994 C 378.333 245.994 373.856 250.471 373.856 255.994 C 373.856 261.517 378.333 265.994 383.856 265.994 L 439.384 265.994 C 443.759 281.551 458.063 292.994 475 292.994 C 495.402 292.994 512 276.396 512 255.994 C 512 235.591 495.402 218.994 475 218.994 M 475 272.993 C 465.626 272.993 458 265.367 458 255.993 C 458 246.619 465.626 238.993 475 238.993 C 484.374 238.993 492 246.619 492 255.993 C 492 265.367 484.374 272.993 475 272.993"/></g></g><g><g><path fill="#ffffff" d="M 186.554 172.404 L 133.408 119.258 C 136.492 113.786 138.143 107.589 138.143 101.136 C 138.143 91.253 134.294 81.961 127.306 74.973 C 120.318 67.984 111.026 64.136 101.143 64.136 C 91.26 64.136 81.969 67.986 74.98 74.973 C 60.554 89.399 60.554 112.873 74.98 127.299 C 81.969 134.288 91.26 138.136 101.144 138.136 C 107.598 138.136 113.794 136.485 119.266 133.401 L 172.412 186.547 C 174.365 188.499 176.924 189.476 179.483 189.476 C 182.042 189.476 184.602 188.499 186.554 186.547 C 190.459 182.643 190.459 176.31 186.554 172.404 M 113.167 113.156 C 113.166 113.157 113.165 113.157 113.165 113.158 C 113.164 113.159 113.164 113.16 113.163 113.161 C 109.952 116.37 105.685 118.138 101.145 118.138 C 96.604 118.138 92.335 116.37 89.124 113.159 C 82.495 106.53 82.495 95.745 89.123 89.117 C 92.334 85.906 96.602 84.138 101.144 84.138 C 105.686 84.138 109.954 85.906 113.165 89.117 C 116.376 92.328 118.144 96.596 118.144 101.138 C 118.144 105.677 116.377 109.945 113.167 113.156"/></g></g><g><g><path fill="#ffffff" d="M 263.06 152.924 C 261.2 151.064 258.62 149.994 255.99 149.994 C 253.35 149.994 250.78 151.064 248.92 152.924 C 247.05 154.784 245.99 157.364 245.99 159.994 C 245.99 162.624 247.05 165.204 248.92 167.064 C 250.78 168.924 253.36 169.994 255.99 169.994 C 258.62 169.994 261.2 168.924 263.06 167.064 C 264.92 165.204 265.99 162.624 265.99 159.994 C 265.99 157.364 264.92 154.783 263.06 152.924 Z"/></g></g><g><g><path fill="#ffffff" d="M 437.019 74.973 C 430.031 67.984 420.739 64.136 410.856 64.136 C 400.973 64.136 391.681 67.985 384.693 74.973 C 377.704 81.961 373.856 91.253 373.856 101.136 C 373.856 107.59 375.507 113.786 378.591 119.258 L 317.928 179.921 C 314.023 183.826 314.023 190.158 317.928 194.064 C 319.881 196.017 322.441 196.993 325 196.993 C 327.559 196.993 330.119 196.017 332.071 194.064 L 392.734 133.401 C 398.206 136.486 404.402 138.136 410.856 138.136 C 420.739 138.136 430.031 134.287 437.019 127.299 C 451.445 112.874 451.445 89.4 437.019 74.973 M 422.878 113.158 C 419.667 116.369 415.399 118.137 410.857 118.137 C 406.317 118.137 402.05 116.37 398.839 113.16 C 398.838 113.159 398.838 113.158 398.837 113.158 C 398.836 113.157 398.835 113.156 398.834 113.156 C 395.625 109.945 393.857 105.678 393.857 101.138 C 393.856 96.596 395.625 92.328 398.836 89.116 C 402.047 85.905 406.315 84.137 410.857 84.137 C 415.399 84.137 419.667 85.905 422.878 89.116 C 429.506 95.744 429.506 106.528 422.878 113.158"/></g></g><g><g><path fill="#ffffff" d="M 128 245.994 L 72.616 245.994 C 68.241 230.437 53.937 218.994 37 218.994 C 16.598 218.994 0 235.592 0 255.994 C 0 276.396 16.598 292.994 37 292.994 C 53.937 292.994 68.241 281.551 72.616 265.994 L 128 265.994 C 133.523 265.994 138 261.517 138 255.994 C 138 250.471 133.523 245.994 128 245.994 M 37 272.993 C 27.626 272.993 20 265.367 20 255.993 C 20 246.619 27.626 238.993 37 238.993 C 46.374 238.993 54 246.619 54 255.993 C 54 265.367 46.374 272.993 37 272.993"/></g></g><g/><g/><g/><g/><g/><g/><g/><g/><g/><g/><g/><g/><g/><g/><g/></svg>
