<?xml version="1.0" encoding="UTF-8" standalone="yes"?><svg id="Capa_1" xmlns="http://www.w3.org/2000/svg" xmlns:xlink="http://www.w3.org/1999/xlink" version="1.2" baseProfile="tiny" x="0" y="0" width="512" height="512" viewBox="0 0 512.002 512.002"><defs/><g><g><path fill="#ffffff" d="M 415.532 101.063 C 409.309 101.063 403.136 101.655 397.083 102.828 C 389.06 75.328 372.727 50.552 350.375 32.249 C 324.979 11.453 292.883 0 260 0 C 247.64 0 235.365 1.584 223.516 4.707 C 218.175 6.115 214.987 11.586 216.395 16.926 C 217.803 22.267 223.277 25.451 228.613 24.047 C 238.799 21.361 249.359 20 260 20 C 317.576 20 368.065 60.808 380.052 117.031 C 380.638 119.78 382.354 122.155 384.78 123.576 C 387.205 124.996 390.117 125.329 392.801 124.496 C 400.13 122.218 407.778 121.062 415.531 121.062 C 457.697 121.062 492 155.366 492 197.532 C 492 239.697 457.696 274.001 415.531 274.001 L 407.533 274.001 C 409.161 264.969 410.002 255.728 410.002 246.356 C 410.002 205.221 393.982 166.548 364.895 137.461 C 335.808 108.373 297.135 92.355 256 92.355 C 214.865 92.355 176.193 108.374 147.106 137.461 C 118.018 166.549 102 205.222 102 246.356 C 102 287.49 118.02 326.163 147.107 355.251 C 168.272 376.417 194.515 390.653 223.086 396.843 L 223.086 502.002 C 223.086 507.524 227.563 512.002 233.086 512.002 C 238.609 512.002 243.086 507.524 243.086 502.002 L 243.086 435.398 L 268.704 435.398 L 268.704 502.002 C 268.704 507.524 273.181 512.002 278.704 512.002 C 284.227 512.002 288.704 507.524 288.704 502.002 L 288.704 396.888 C 317.357 390.723 343.678 376.469 364.896 355.251 C 382.368 337.779 395.117 316.846 402.52 294.001 L 415.533 294.001 C 468.726 294.001 512.002 250.726 512.002 197.532 C 512.002 144.338 468.725 101.063 415.532 101.063 M 268.705 415.397 L 243.086 415.397 L 243.086 399.816 C 247.359 400.169 251.666 400.357 256.002 400.357 C 260.266 400.357 264.502 400.175 268.705 399.834 L 268.705 415.397 M 350.753 341.108 C 325.443 366.419 291.793 380.357 256.001 380.357 C 220.209 380.357 186.559 366.419 161.249 341.108 C 135.938 315.798 121.999 282.148 121.999 246.356 C 121.999 210.564 135.938 176.914 161.249 151.604 C 186.559 126.293 220.209 112.355 256.001 112.355 C 291.793 112.355 325.443 126.293 350.753 151.604 C 376.063 176.914 390.002 210.564 390.002 246.356 C 390.002 282.148 376.063 315.799 350.753 341.108"/></g></g><g><g><path fill="#ffffff" d="M 197.473 25.223 C 194.527 20.551 188.353 19.153 183.681 22.096 L 183.08 22.48 C 178.44 25.475 177.106 31.665 180.102 36.305 C 182.015 39.269 185.23 40.883 188.513 40.883 C 190.371 40.883 192.25 40.366 193.927 39.283 L 194.346 39.016 C 199.018 36.071 200.418 29.896 197.473 25.223 Z"/></g></g><g><g><path fill="#ffffff" d="M 165.244 49.25 C 161.035 45.674 154.724 46.189 151.149 50.399 C 142.889 60.127 136.019 70.82 130.654 82.288 C 123.736 80.116 116.532 79.019 109.132 79.019 C 69.451 79.019 37.169 111.301 37.169 150.982 C 37.169 153.584 37.313 156.196 37.6 158.8 C 14.52 171.297 0 195.323 0 222.037 C 0 261.718 32.283 294.001 71.963 294.001 L 72.291 294.001 C 77.814 294.001 82.291 289.523 82.291 284.001 C 82.291 278.479 77.814 274.001 72.291 274.001 L 71.963 274.001 C 43.31 274.001 20 250.69 20 222.037 C 20 200.778 32.737 181.874 52.448 173.877 C 56.98 172.038 59.517 167.191 58.446 162.42 C 57.597 158.64 57.167 154.792 57.167 150.983 C 57.167 122.331 80.478 99.02 109.13 99.02 C 117.039 99.02 124.63 100.749 131.692 104.159 C 134.21 105.376 137.122 105.48 139.722 104.452 C 142.322 103.423 144.372 101.351 145.375 98.741 C 150.333 85.839 157.405 73.93 166.393 63.345 C 169.969 59.135 169.453 52.824 165.244 49.25 Z"/></g></g><g><g><path fill="#ffffff" d="M 359.68 198.796 C 357.377 193.776 351.443 191.572 346.421 193.877 C 341.401 196.18 339.199 202.116 341.502 207.136 C 357.812 242.685 350.18 285.157 322.512 312.824 C 285.862 349.475 226.226 349.475 189.576 312.825 C 171.822 295.071 162.044 271.465 162.044 246.356 C 162.044 221.247 171.822 197.642 189.576 179.888 C 216.392 153.072 256.416 144.986 291.539 159.285 C 293.329 160.014 295.118 160.808 296.857 161.646 C 301.835 164.045 307.81 161.953 310.207 156.977 C 312.604 152.001 310.514 146.025 305.538 143.628 C 303.428 142.611 301.257 141.648 299.083 140.762 C 256.487 123.42 207.952 133.225 175.434 165.744 C 153.902 187.276 142.044 215.904 142.044 246.354 C 142.044 276.805 153.902 305.433 175.434 326.965 C 197.658 349.189 226.851 360.301 256.043 360.301 C 285.235 360.301 314.429 349.189 336.653 326.964 C 370.206 293.416 379.459 241.908 359.68 198.796 Z"/></g></g><g><g><path fill="#ffffff" d="M 336.717 165.687 C 332.812 161.783 326.48 161.783 322.574 165.687 L 322.507 165.754 C 318.602 169.659 318.636 175.957 322.541 179.862 C 324.485 181.808 327.039 182.775 329.595 182.775 C 332.174 182.775 334.755 181.791 336.717 179.83 C 340.622 175.925 340.622 169.593 336.717 165.687 Z"/></g></g><g><g><path fill="#ffffff" d="M 321.996 206.445 C 317.02 204.056 311.044 206.152 308.653 211.13 L 287.654 254.854 L 264.882 210.863 C 263.139 207.496 259.645 205.358 255.851 205.461 C 252.06 205.518 248.628 207.713 246.987 211.131 L 225.988 254.855 L 203.216 210.864 C 200.677 205.96 194.644 204.042 189.738 206.58 C 184.833 209.119 182.916 215.153 185.454 220.059 L 217.443 281.853 C 219.186 285.221 222.699 287.308 226.474 287.255 C 230.265 287.198 233.697 285.003 235.338 281.585 L 256.337 237.861 L 279.109 281.852 C 280.829 285.175 284.256 287.255 287.989 287.255 C 288.039 287.255 288.089 287.255 288.139 287.254 C 291.93 287.197 295.362 285.002 297.003 281.584 L 326.681 219.789 C 329.072 214.81 326.974 208.837 321.996 206.445 Z"/></g></g><g/><g/><g/><g/><g/><g/><g/><g/><g/><g/><g/><g/><g/><g/><g/></svg>
