<?xml version="1.0" encoding="UTF-8" standalone="yes"?><svg id="Capa_1" xmlns="http://www.w3.org/2000/svg" xmlns:xlink="http://www.w3.org/1999/xlink" version="1.2" baseProfile="tiny" x="0" y="0" width="512" height="512" viewBox="0 0 512.002 512.002"><defs/><g><g><path fill="#ffffff" d="M 465.668 472.001 L 184.318 472.001 C 180.403 460.963 170.202 452.88 158.038 452.075 L 158.038 396.001 L 207.052 396.001 L 207.052 429.976 C 207.052 435.498 211.53 439.976 217.052 439.976 L 326.334 439.976 C 331.856 439.976 336.334 435.498 336.334 429.976 C 336.334 424.454 331.856 419.976 326.334 419.976 L 227.052 419.976 L 227.052 396.001 L 230.077 396.001 C 266.47 396.001 296.077 366.394 296.077 330.001 C 296.077 306.404 283.621 285.671 264.947 274.001 C 280.377 264.358 291.546 248.525 294.964 230.001 L 326.334 230.001 C 331.856 230.001 336.334 225.523 336.334 220.001 C 336.334 214.479 331.856 210.001 326.334 210.001 L 295.575 210.001 C 293.117 189.766 281.477 172.331 264.947 162.001 C 283.621 150.331 296.077 129.598 296.077 106.001 C 296.077 69.608 266.47 40.001 230.077 40.001 L 227.052 40.001 L 227.052 20.001 L 286.077 20.001 C 291.599 20.001 296.077 15.523 296.077 10.001 C 296.077 4.479 291.599 0.001 286.077 0.001 L 217.052 0.001 C 211.53 0.001 207.052 4.479 207.052 10.001 L 207.052 40.001 L 66 40.001 C 29.607 40.001 0 69.609 0 106.001 C 0 129.598 12.456 150.331 31.13 162.001 C 12.456 173.672 0 194.404 0 218.001 C 0 241.598 12.456 262.331 31.13 274.001 C 12.456 285.672 0 306.404 0 330.001 C 0 366.394 29.607 396.001 66 396.001 L 138.038 396.001 L 138.038 452.075 C 125.875 452.88 115.673 460.962 111.758 472.001 L 10.001 472.001 C 4.479 472.001 0.001 476.479 0.001 482.001 C 0.001 487.523 4.479 492.001 10.001 492.001 L 111.758 492.001 C 115.886 503.64 127.001 512.001 140.038 512.001 L 156.038 512.001 C 169.074 512.001 180.19 503.64 184.318 492.001 L 465.668 492.001 C 471.19 492.001 475.668 487.523 475.668 482.001 C 475.668 476.479 471.19 472.001 465.668 472.001 M 20 106.001 C 20 80.637 40.636 60.001 66 60.001 L 230.077 60.001 C 255.441 60.001 276.077 80.637 276.077 106.001 C 276.077 131.365 255.441 152.001 230.077 152.001 L 66 152.001 C 40.636 152.001 20 131.366 20 106.001 M 20 218.001 C 20 192.637 40.636 172.001 66 172.001 L 230.077 172.001 C 255.441 172.001 276.077 192.637 276.077 218.001 C 276.077 243.365 255.441 264.001 230.077 264.001 L 66 264.001 C 40.636 264.001 20 243.366 20 218.001 M 66 376.001 C 40.636 376.001 20 355.366 20 330.001 C 20 304.637 40.636 284.001 66 284.001 L 230.077 284.001 C 255.441 284.001 276.077 304.637 276.077 330.001 C 276.077 355.365 255.441 376.001 230.077 376.001 L 66 376.001 M 156.038 492.001 L 140.038 492.001 C 134.524 492.001 130.038 487.515 130.038 482.001 C 130.038 476.487 134.524 472.001 140.038 472.001 L 156.038 472.001 C 161.552 472.001 166.038 476.487 166.038 482.001 C 166.038 487.515 161.552 492.001 156.038 492.001"/></g></g><g><g><path fill="#ffffff" d="M 509.07 474.931 C 507.211 473.071 504.631 472.001 502.001 472.001 C 499.371 472.001 496.791 473.07 494.931 474.931 C 493.071 476.792 492.001 479.371 492.001 482.001 C 492.001 484.631 493.07 487.211 494.931 489.07 C 496.791 490.93 499.371 492.001 502.001 492.001 C 504.631 492.001 507.211 490.931 509.07 489.07 C 510.93 487.211 512.001 484.631 512.001 482.001 C 512.001 479.371 510.931 476.791 509.07 474.931 Z"/></g></g><g><g><path fill="#ffffff" d="M 502.001 15.027 L 452.102 15.027 L 448.315 6.098 C 446.748 2.402 443.123 0.001 439.108 0.001 L 383.811 0.001 C 379.796 0.001 376.171 2.401 374.604 6.098 L 370.818 15.027 L 362.001 15.027 C 356.479 15.027 352.001 19.505 352.001 25.027 L 352.001 130.001 C 352.001 135.523 356.479 140.001 362.001 140.001 L 502.001 140.001 C 507.523 140.001 512.001 135.523 512.001 130.001 L 512.001 25.027 C 512.001 19.504 507.523 15.027 502.001 15.027 M 492.001 120.001 L 372.001 120.001 L 372.001 35.027 L 377.44 35.027 C 381.455 35.027 385.08 32.627 386.647 28.93 L 390.434 20.001 L 432.487 20.001 L 436.273 28.93 C 437.84 32.626 441.465 35.027 445.48 35.027 L 492.001 35.027 L 492.001 120.001"/></g></g><g><g><path fill="#ffffff" d="M 502.001 163.027 L 452.102 163.027 L 448.315 154.098 C 446.749 150.402 443.124 148.001 439.109 148.001 L 383.812 148.001 C 379.797 148.001 376.172 150.401 374.605 154.098 L 370.819 163.027 L 362.002 163.027 C 356.48 163.027 352.002 167.505 352.002 173.027 L 352.002 278.001 C 352.002 283.523 356.48 288.001 362.002 288.001 L 502.002 288.001 C 507.524 288.001 512.002 283.523 512.002 278.001 L 512.002 173.027 C 512.001 167.504 507.523 163.027 502.001 163.027 M 372.001 268.001 L 372.001 183.026 L 377.44 183.026 C 381.455 183.026 385.08 180.626 386.647 176.929 L 390.433 168 L 432.486 168 L 436.272 176.929 C 437.839 180.625 441.464 183.026 445.479 183.026 L 492 183.026 L 492 268.001 L 372.001 268.001"/></g></g><g><g><path fill="#ffffff" d="M 502.001 315.001 L 452.102 315.001 L 448.315 306.072 C 446.749 302.376 443.124 299.975 439.109 299.975 L 383.812 299.975 C 379.797 299.975 376.172 302.375 374.605 306.072 L 370.818 315.001 L 362.001 315.001 C 356.479 315.001 352.001 319.479 352.001 325.001 L 352.001 429.976 C 352.001 435.498 356.479 439.976 362.001 439.976 L 502.001 439.976 C 507.523 439.976 512.001 435.498 512.001 429.976 L 512.001 325.001 C 512.001 319.479 507.523 315.001 502.001 315.001 M 372.001 419.976 L 372.001 335.001 L 377.44 335.001 C 381.455 335.001 385.08 332.601 386.647 328.904 L 390.433 319.975 L 432.486 319.975 L 436.272 328.904 C 437.839 332.6 441.464 335.001 445.479 335.001 L 492 335.001 L 492 419.976 L 372.001 419.976"/></g></g><g><g><path fill="#ffffff" d="M 231.884 322.001 L 202.219 322.001 C 196.697 322.001 192.219 326.479 192.219 332.001 C 192.219 337.523 196.697 342.001 202.219 342.001 L 231.884 342.001 C 237.406 342.001 241.884 337.524 241.884 332.001 C 241.884 326.479 237.406 322.001 231.884 322.001 Z"/></g></g><g><g><path fill="#ffffff" d="M 117.241 324.931 C 115.381 323.071 112.811 322.001 110.171 322.001 C 107.541 322.001 104.961 323.07 103.101 324.931 C 101.242 326.791 100.171 329.371 100.171 332.001 C 100.171 334.631 101.241 337.211 103.101 339.07 C 104.961 340.93 107.541 342.001 110.171 342.001 C 112.811 342.001 115.381 340.931 117.241 339.07 C 119.11 337.211 120.18 334.631 120.18 332.001 C 120.18 329.371 119.11 326.791 117.241 324.931 Z"/></g></g><g><g><path fill="#ffffff" d="M 163.36 324.931 C 161.501 323.071 158.921 322.001 156.291 322.001 C 153.65 322.001 151.081 323.07 149.221 324.931 C 147.361 326.792 146.291 329.371 146.291 332.001 C 146.291 334.631 147.36 337.211 149.221 339.07 C 151.081 340.93 153.651 342.001 156.291 342.001 C 158.921 342.001 161.501 340.931 163.36 339.07 C 165.22 337.211 166.291 334.631 166.291 332.001 C 166.291 329.371 165.221 326.791 163.36 324.931 Z"/></g></g><g><g><path fill="#ffffff" d="M 78.07 324.931 C 76.211 323.071 73.631 322.001 71.001 322.001 C 68.371 322.001 65.791 323.07 63.931 324.931 C 62.071 326.792 61.001 329.371 61.001 332.001 C 61.001 334.631 62.07 337.211 63.931 339.07 C 65.791 340.93 68.371 342.001 71.001 342.001 C 73.631 342.001 76.211 340.931 78.07 339.07 C 79.93 337.211 81.001 334.631 81.001 332.001 C 81.001 329.371 79.931 326.791 78.07 324.931 Z"/></g></g><g><g><path fill="#ffffff" d="M 231.884 210.001 L 202.219 210.001 C 196.697 210.001 192.219 214.479 192.219 220.001 C 192.219 225.523 196.697 230.001 202.219 230.001 L 231.884 230.001 C 237.406 230.001 241.884 225.524 241.884 220.001 C 241.884 214.479 237.406 210.001 231.884 210.001 Z"/></g></g><g><g><path fill="#ffffff" d="M 117.241 212.931 C 115.381 211.071 112.811 210.001 110.171 210.001 C 107.541 210.001 104.961 211.07 103.101 212.931 C 101.242 214.791 100.171 217.371 100.171 220.001 C 100.171 222.631 101.241 225.211 103.101 227.07 C 104.961 228.93 107.541 230.001 110.171 230.001 C 112.811 230.001 115.381 228.931 117.241 227.07 C 119.11 225.211 120.18 222.631 120.18 220.001 C 120.18 217.371 119.11 214.791 117.241 212.931 Z"/></g></g><g><g><path fill="#ffffff" d="M 163.36 212.931 C 161.501 211.071 158.921 210.001 156.291 210.001 C 153.65 210.001 151.081 211.07 149.221 212.931 C 147.361 214.792 146.291 217.371 146.291 220.001 C 146.291 222.631 147.36 225.211 149.221 227.07 C 151.081 228.93 153.651 230.001 156.291 230.001 C 158.921 230.001 161.501 228.931 163.36 227.07 C 165.22 225.211 166.291 222.631 166.291 220.001 C 166.291 217.371 165.221 214.791 163.36 212.931 Z"/></g></g><g><g><path fill="#ffffff" d="M 78.07 212.931 C 76.211 211.071 73.631 210.001 71.001 210.001 C 68.371 210.001 65.791 211.07 63.931 212.931 C 62.071 214.792 61.001 217.371 61.001 220.001 C 61.001 222.631 62.07 225.211 63.931 227.07 C 65.791 228.93 68.371 230.001 71.001 230.001 C 73.631 230.001 76.211 228.931 78.07 227.07 C 79.93 225.211 81.001 222.631 81.001 220.001 C 81.001 217.371 79.931 214.791 78.07 212.931 Z"/></g></g><g><g><path fill="#ffffff" d="M 231.884 98.001 L 202.219 98.001 C 196.697 98.001 192.219 102.479 192.219 108.001 C 192.219 113.523 196.697 118.001 202.219 118.001 L 231.884 118.001 C 237.406 118.001 241.884 113.524 241.884 108.001 C 241.884 102.479 237.406 98.001 231.884 98.001 Z"/></g></g><g><g><path fill="#ffffff" d="M 117.241 100.931 C 115.381 99.071 112.811 98.001 110.171 98.001 C 107.541 98.001 104.961 99.07 103.101 100.931 C 101.242 102.791 100.171 105.371 100.171 108.001 C 100.171 110.631 101.241 113.211 103.101 115.07 C 104.961 116.93 107.541 118.001 110.171 118.001 C 112.811 118.001 115.381 116.931 117.241 115.07 C 119.11 113.211 120.18 110.631 120.18 108.001 C 120.18 105.371 119.11 102.791 117.241 100.931 Z"/></g></g><g><g><path fill="#ffffff" d="M 78.07 100.931 C 76.211 99.071 73.631 98.001 71.001 98.001 C 68.371 98.001 65.791 99.07 63.931 100.931 C 62.071 102.792 61.001 105.371 61.001 108.001 C 61.001 110.631 62.07 113.211 63.931 115.07 C 65.791 116.93 68.371 118.001 71.001 118.001 C 73.631 118.001 76.211 116.931 78.07 115.07 C 79.93 113.211 81.001 110.631 81.001 108.001 C 81.001 105.371 79.931 102.791 78.07 100.931 Z"/></g></g><g><g><path fill="#ffffff" d="M 163.36 100.931 C 161.501 99.071 158.921 98.001 156.291 98.001 C 153.65 98.001 151.081 99.07 149.221 100.931 C 147.361 102.792 146.291 105.371 146.291 108.001 C 146.291 110.631 147.36 113.211 149.221 115.07 C 151.081 116.93 153.651 118.001 156.291 118.001 C 158.921 118.001 161.501 116.931 163.36 115.07 C 165.22 113.211 166.291 110.631 166.291 108.001 C 166.291 105.371 165.221 102.791 163.36 100.931 Z"/></g></g><g><g><path fill="#ffffff" d="M 333.4 2.931 C 331.541 1.071 328.97 0.001 326.331 0.001 C 323.701 0.001 321.121 1.07 319.261 2.931 C 317.401 4.792 316.331 7.371 316.331 10.001 C 316.331 12.631 317.4 15.211 319.261 17.07 C 321.121 18.931 323.701 20.001 326.331 20.001 C 328.961 20.001 331.541 18.931 333.4 17.07 C 335.27 15.211 336.331 12.631 336.331 10.001 C 336.331 7.371 335.27 4.791 333.4 2.931 Z"/></g></g><g/><g/><g/><g/><g/><g/><g/><g/><g/><g/><g/><g/><g/><g/><g/></svg>
