<?xml version="1.0" encoding="UTF-8" standalone="yes"?><svg id="Capa_1" xmlns="http://www.w3.org/2000/svg" xmlns:xlink="http://www.w3.org/1999/xlink" version="1.2" baseProfile="tiny" x="0" y="0" width="512" height="512" viewBox="0 0 512 512"><defs/><g><g><path fill="#ffffff" d="M 502 409.995 C 507.523 409.995 512 405.518 512 399.995 L 512 50.007 C 512 22.437 489.57 0.007 462 0.007 L 50 0.007 C 22.43 0.007 0 22.437 0 50.007 L 0 422.011 C 0 449.581 22.43 472.011 50 472.011 L 410.482 472.011 L 437.744 499.273 C 446.224 507.753 457.364 511.993 468.503 511.993 C 479.642 511.993 490.782 507.753 499.262 499.273 C 516.222 482.312 516.222 454.715 499.262 437.754 L 400.63 339.122 C 398.755 337.247 396.211 336.193 393.559 336.193 C 390.907 336.193 388.363 337.247 386.488 339.122 L 369.873 355.737 L 359.598 345.462 C 381.019 320.783 394 288.591 394 253.423 C 394 222.851 384.354 193.78 366.104 169.355 C 348.466 145.748 323.336 127.936 295.343 119.201 C 290.072 117.556 284.463 120.496 282.818 125.768 C 281.172 131.04 284.113 136.648 289.385 138.293 C 339.996 154.086 374 200.354 374 253.423 C 374 319.913 319.906 374.006 253.417 374.006 C 186.928 374.006 132.834 319.912 132.834 253.423 C 132.834 200.815 166.457 154.668 216.499 138.593 C 221.757 136.904 224.651 131.272 222.962 126.013 C 221.273 120.754 215.639 117.864 210.383 119.551 C 182.261 128.585 158.058 145.964 140.391 169.811 C 122.363 194.143 112.834 223.056 112.834 253.423 C 112.834 330.941 175.899 394.006 253.417 394.006 C 288.585 394.006 320.777 381.025 345.456 359.604 L 355.731 369.879 L 339.112 386.498 C 335.207 390.403 335.207 396.735 339.112 400.641 L 390.482 452.011 L 50 452.011 C 33.458 452.011 20 438.553 20 422.011 L 20 91.956 C 20.33 91.989 20.665 92.007 21.004 92.007 L 492 92.007 L 492 399.995 C 492 405.518 496.477 409.995 502 409.995 M 388.203 421.447 L 404.822 404.828 C 408.727 400.923 408.727 394.591 404.822 390.685 C 400.917 386.78 394.585 386.78 390.679 390.685 L 374.06 407.304 L 360.325 393.569 L 376.939 376.956 C 376.941 376.954 376.942 376.953 376.944 376.951 C 376.946 376.949 376.947 376.948 376.949 376.946 L 393.56 360.335 L 485.121 451.897 C 494.284 461.06 494.284 475.968 485.121 485.13 C 475.959 494.293 461.049 494.293 451.887 485.13 L 388.203 421.447 M 21.004 72.007 C 20.665 72.007 20.33 72.025 20 72.058 L 20 50.007 C 20 33.465 33.458 20.007 50 20.007 L 462 20.007 C 478.542 20.007 492 33.465 492 50.007 L 492 72.007 L 21.004 72.007"/></g></g><g><g><path fill="#ffffff" d="M 448 36.007 L 222.065 36.007 C 216.542 36.007 212.065 40.484 212.065 46.007 C 212.065 51.53 216.542 56.007 222.065 56.007 L 448 56.007 C 453.523 56.007 458 51.53 458 46.007 C 458 40.484 453.523 36.007 448 36.007 Z"/></g></g><g><g><path fill="#ffffff" d="M 111.07 38.937 C 109.21 37.077 106.63 36.007 104 36.007 C 101.37 36.007 98.79 37.077 96.93 38.937 C 95.07 40.797 94 43.377 94 46.007 C 94 48.637 95.07 51.217 96.93 53.077 C 98.79 54.937 101.37 56.007 104 56.007 C 106.63 56.007 109.21 54.937 111.07 53.077 C 112.93 51.217 114 48.637 114 46.007 C 114 43.377 112.93 40.797 111.07 38.937 Z"/></g></g><g><g><path fill="#ffffff" d="M 71.07 38.937 C 69.21 37.077 66.63 36.007 64 36.007 C 61.37 36.007 58.79 37.077 56.93 38.937 C 55.07 40.797 54 43.377 54 46.007 C 54 48.637 55.07 51.217 56.93 53.077 C 58.79 54.937 61.37 56.007 64 56.007 C 66.63 56.007 69.21 54.937 71.07 53.077 C 72.93 51.217 74 48.637 74 46.007 C 74 43.377 72.93 40.797 71.07 38.937 Z"/></g></g><g><g><path fill="#ffffff" d="M 151.07 38.937 C 149.21 37.077 146.63 36.007 144 36.007 C 141.37 36.007 138.79 37.077 136.93 38.937 C 135.07 40.797 134 43.377 134 46.007 C 134 48.637 135.07 51.217 136.93 53.077 C 138.79 54.937 141.37 56.007 144 56.007 C 146.63 56.007 149.21 54.937 151.07 53.077 C 152.93 51.217 154 48.637 154 46.007 C 154 43.377 152.93 40.797 151.07 38.937 Z"/></g></g><g><g><path fill="#ffffff" d="M 253.794 112.84 L 253.417 112.84 C 247.894 112.84 243.417 117.317 243.417 122.84 C 243.417 128.363 247.894 132.84 253.417 132.84 L 253.706 132.84 C 253.721 132.84 253.736 132.84 253.751 132.84 C 259.253 132.84 263.726 128.392 263.75 122.884 C 263.774 117.362 259.317 112.864 253.794 112.84 Z"/></g></g><g><g><path fill="#ffffff" d="M 132.333 394.007 L 64 394.007 C 58.477 394.007 54 398.484 54 404.007 C 54 409.53 58.477 414.007 64 414.007 L 132.333 414.007 C 137.856 414.007 142.333 409.53 142.333 404.007 C 142.333 398.484 137.856 394.007 132.333 394.007 Z"/></g></g><g><g><path fill="#ffffff" d="M 108.069 354.007 L 64 354.007 C 58.477 354.007 54 358.484 54 364.007 C 54 369.53 58.477 374.007 64 374.007 L 108.069 374.007 C 113.592 374.007 118.069 369.53 118.069 364.007 C 118.069 358.484 113.592 354.007 108.069 354.007 Z"/></g></g><g><g><path fill="#ffffff" d="M 177.41 396.937 C 175.54 395.077 172.97 394.007 170.33 394.007 C 167.7 394.007 165.12 395.077 163.26 396.937 C 161.4 398.797 160.33 401.377 160.33 404.007 C 160.33 406.637 161.4 409.217 163.26 411.077 C 165.12 412.937 167.7 414.007 170.33 414.007 C 172.97 414.007 175.54 412.937 177.41 411.077 C 179.27 409.217 180.33 406.637 180.33 404.007 C 180.33 401.377 179.27 398.797 177.41 396.937 Z"/></g></g><g><g><path fill="#ffffff" d="M 448 118.007 L 369.873 118.007 C 364.35 118.007 359.873 122.484 359.873 128.007 C 359.873 133.53 364.35 138.007 369.873 138.007 L 448 138.007 C 453.523 138.007 458 133.53 458 128.007 C 458 122.484 453.523 118.007 448 118.007 Z"/></g></g><g><g><path fill="#ffffff" d="M 448 158.007 L 409.25 158.007 C 403.727 158.007 399.25 162.484 399.25 168.007 C 399.25 173.53 403.727 178.007 409.25 178.007 L 448 178.007 C 453.523 178.007 458 173.53 458 168.007 C 458 162.484 453.523 158.007 448 158.007 Z"/></g></g><g><g><path fill="#ffffff" d="M 329.383 278.001 C 334.906 278.001 339.383 273.524 339.383 268.001 C 339.383 262.478 334.906 258.001 329.383 258.001 L 314.229 258.001 C 314.078 255.185 313.725 252.422 313.194 249.722 L 328.502 234.315 C 332.395 230.397 332.374 224.065 328.457 220.173 C 324.539 216.28 318.207 216.301 314.315 220.218 L 305.114 229.479 C 299.54 220.675 291.727 213.429 282.474 208.548 L 282.474 201.536 C 282.471 186.408 270.162 174.099 255.032 174.099 L 252.14 174.099 C 237.01 174.099 224.701 186.408 224.701 201.538 L 224.701 208.55 C 215.375 213.47 207.51 220.79 201.928 229.689 L 192.52 220.22 C 188.627 216.302 182.295 216.282 178.378 220.175 C 174.461 224.068 174.44 230.399 178.333 234.317 L 193.929 250.014 C 193.434 252.6 193.099 255.242 192.951 257.934 L 177.452 257.934 C 171.929 257.934 167.452 262.411 167.452 267.934 C 167.452 273.457 171.929 277.934 177.452 277.934 L 192.941 277.934 C 193.083 280.654 193.421 283.321 193.919 285.933 L 178.334 301.62 C 174.441 305.538 174.462 311.87 178.379 315.762 C 180.33 317.7 182.879 318.668 185.427 318.668 C 187.997 318.668 190.567 317.683 192.521 315.716 L 201.903 306.273 C 212.432 323.087 231.112 334.3 252.372 334.3 L 254.804 334.3 C 275.975 334.3 294.587 323.179 305.139 306.481 L 314.314 315.715 C 316.269 317.682 318.838 318.667 321.408 318.667 C 323.956 318.667 326.506 317.699 328.456 315.761 C 332.373 311.868 332.394 305.537 328.501 301.619 L 313.204 286.222 C 313.728 283.54 314.079 280.798 314.229 278.001 L 329.383 278.001 M 244.702 201.538 C 244.702 197.436 248.039 194.099 252.141 194.099 L 255.033 194.099 C 259.135 194.099 262.472 197.436 262.472 201.538 L 262.472 201.703 L 254.804 201.703 L 252.372 201.703 L 244.702 201.703 L 244.702 201.538 M 294.317 274.786 C 294.317 296.574 276.591 314.3 254.802 314.3 L 252.37 314.3 C 230.581 314.3 212.855 296.574 212.855 274.786 L 212.855 261.218 C 212.855 239.429 230.581 221.703 252.37 221.703 L 254.802 221.703 C 276.591 221.703 294.317 239.429 294.317 261.218 L 294.317 274.786"/></g></g><g/><g/><g/><g/><g/><g/><g/><g/><g/><g/><g/><g/><g/><g/><g/></svg>
