<?xml version="1.0" encoding="UTF-8" standalone="yes"?><svg class="icon" xmlns="http://www.w3.org/2000/svg" xmlns:xlink="http://www.w3.org/1999/xlink" version="1.2" baseProfile="tiny" x="0" y="0" width="200" height="200" viewBox="0 0 1024 1024"><defs/><path fill="#f2f2f2" d="M 961.339 662 C 949.039 621.6 923.339 577.4 886.539 532.4 C 876.839 520.6 876.839 503.6 886.539 491.8 C 960.239 401.8 989.439 314.8 955.539 256.1 C 930.139 212.1 873.339 190.9 798.139 190.9 C 772.939 190.9 745.739 193.3 716.839 198 C 701.839 200.5 687.039 192 681.739 177.7 C 640.639 68.9 579.839 0 512.039 0 C 444.239 0 383.439 68.8 342.439 177.6 C 337.039 191.9 322.339 200.3 307.339 197.9 C 278.539 193.2 251.239 190.8 226.039 190.8 C 200.839 190.8 177.739 193.2 157.139 198 C 139.639 183.5 116.839 175.1 92.1392 176.1 C 42.0392 178.1 1.53916 219 0.03916 269.2 C -1.16084 311.6 25.3392 348.2 62.7392 362.1 C 75.0392 402.5 100.739 446.7 137.539 491.7 C 147.239 503.5 147.239 520.5 137.539 532.3 C 63.8392 622.3 34.6392 709.3 68.5392 768 C 93.9392 812 150.739 833.2 225.939 833.2 C 251.139 833.2 278.339 830.8 307.239 826.1 C 322.239 823.6 337.039 832.1 342.339 846.4 C 383.439 955.1 444.239 1024 512.039 1024 C 579.839 1024 640.639 955.2 681.639 846.4 C 687.039 832.1 701.739 823.7 716.739 826.1 C 745.539 830.8 772.839 833.2 798.039 833.2 C 823.239 833.2 846.339 830.8 866.939 826 C 884.439 840.5 907.239 848.9 931.939 847.9 C 982.039 845.9 1022.54 805 1024.04 754.8 C 1025.24 712.4 998.739 675.8 961.339 662 M 96.0392 304 C 78.3392 304 64.0392 289.7 64.0392 272 C 64.0392 268 64.7392 264.2 66.1392 260.7 C 67.3392 257.5 69.0392 254.5 71.2392 251.9 C 77.0392 244.6 86.0392 240 96.0392 240 C 113.739 240 128.039 254.3 128.039 272 C 128.039 289.7 113.739 304 96.0392 304 M 226.039 769.2 C 196.639 769.2 171.239 765.2 152.639 757.7 C 138.839 752.1 129.239 744.8 124.139 735.9 C 117.639 724.6 116.939 708.4 122.039 687.8 C 128.939 660.3 145.839 627.8 170.939 593.7 C 178.139 583.9 185.839 574.2 194.239 564.4 C 197.239 560.9 202.439 560.6 205.839 563.7 C 229.539 585.9 255.739 607.8 284.039 629.1 C 291.039 634.4 295.539 642.2 296.639 650.9 C 300.939 686 306.839 719.7 314.239 751.3 C 315.239 755.7 312.339 760.1 307.939 761 C 278.339 766.5 250.839 769.2 226.039 769.2 M 288.739 551.6 C 285.039 548.6 281.439 545.5 277.839 542.4 C 266.039 532.3 254.739 522.1 244.039 512 C 254.739 501.8 266.039 491.7 277.839 481.6 C 281.439 478.5 285.039 475.5 288.739 472.5 C 288.339 485.6 288.039 498.8 288.039 512.1 C 288.039 525.4 288.239 538.5 288.739 551.6 M 283.839 394.8 C 255.539 416.1 229.439 438.1 205.639 460.2 C 202.339 463.3 197.039 463 194.039 459.5 C 185.739 449.7 177.939 439.9 170.739 430.2 C 153.039 406.1 139.439 382.8 130.439 361.6 C 166.339 347.7 191.939 312.8 191.939 272 C 191.939 266.9 191.539 261.8 190.739 256.9 C 201.539 255.5 213.339 254.8 225.939 254.8 C 250.739 254.8 278.239 257.6 307.539 263 C 312.039 263.8 314.939 268.2 313.839 272.7 C 306.539 304.3 300.539 337.9 296.239 373.1 C 295.339 381.7 290.839 389.5 283.839 394.8 M 646.039 279.9 C 649.539 294.2 652.639 309.1 655.439 324.4 C 656.339 329.1 657.139 333.7 657.939 338.4 C 646.839 331.5 635.539 324.7 624.039 318 C 612.539 311.3 601.039 304.9 589.439 298.8 C 603.739 293.5 617.939 288.6 631.939 284.2 C 636.639 282.7 641.339 281.3 646.039 279.9 M 412.239 175.6 C 429.239 136.8 448.939 105.9 469.239 86.2 C 484.639 71.5 498.939 64 512.039 64 C 525.139 64 539.439 71.5 554.739 86.3 C 575.039 106 594.839 136.9 611.739 175.7 C 616.639 186.8 621.239 198.4 625.539 210.5 C 627.039 214.8 624.739 219.5 620.339 220.8 C 592.639 229.2 564.239 239.4 535.339 251.3 C 520.169 257.478 503.211 257.621 487.939 251.7 C 464.239 242.5 428.339 228.7 403.639 220.9 C 399.339 219.5 397.039 214.9 398.539 210.6 C 402.839 198.4 407.439 186.7 412.239 175.6 M 368.539 324.3 C 371.339 309 374.539 294.2 377.939 279.8 C 382.639 281.2 387.339 282.6 392.139 284.1 C 406.139 288.5 420.339 293.4 434.639 298.7 C 423.139 304.8 411.639 311.2 400.039 317.9 C 388.539 324.6 377.239 331.3 366.139 338.3 C 366.839 333.7 367.739 329 368.539 324.3 M 378.039 744.1 C 374.539 729.8 371.439 714.9 368.639 699.6 C 367.739 695 366.939 690.3 366.139 685.6 C 377.239 692.5 388.539 699.3 400.039 706 C 411.539 712.7 423.039 719 434.639 725.2 C 420.339 730.5 406.139 735.4 392.139 739.8 C 387.439 741.3 382.739 742.7 378.039 744.1 M 611.839 848.4 C 594.839 887.2 575.139 918.1 554.839 937.8 C 539.439 952.5 525.139 960 512.039 960 C 498.939 960 484.639 952.5 469.339 937.7 C 449.039 918 429.239 887.1 412.339 848.3 C 407.439 837.2 402.939 825.6 398.539 813.5 C 397.039 809.2 399.339 804.5 403.739 803.2 C 431.139 794.9 459.239 784.8 487.939 773.1 C 503.439 766.7 520.839 766.7 536.339 773.1 C 564.939 784.8 593.139 794.9 620.439 803.2 C 624.839 804.5 627.139 809.2 625.639 813.5 C 621.239 825.7 616.639 837.3 611.839 848.4 M 655.539 699.6 C 652.739 714.9 649.539 729.7 646.139 744.1 C 641.439 742.7 636.739 741.3 632.039 739.8 C 618.039 735.4 603.839 730.5 589.539 725.2 C 601.039 719.1 612.539 712.7 624.139 706 C 635.639 699.3 646.939 692.5 658.039 685.6 C 657.239 690.3 656.339 695 655.539 699.6 M 669.539 586.6 C 668.839 596.5 663.639 605.6 655.339 611.1 C 635.039 624.8 613.839 638 592.039 650.6 C 575.239 660.3 558.239 669.5 541.139 678.2 C 522.854 687.5 501.225 687.5 482.939 678.2 C 465.839 669.5 448.839 660.3 432.039 650.6 C 410.239 638 389.039 624.8 368.739 611.2 C 360.439 605.6 355.239 596.6 354.539 586.7 C 352.839 562.2 352.039 537.3 352.039 512.1 C 352.039 486.9 352.839 462 354.539 437.5 C 355.239 427.6 360.439 418.5 368.739 413 C 389.139 399.3 410.239 386.2 432.039 373.6 C 448.839 363.9 465.839 354.7 482.939 346 C 501.239 336.7 522.839 336.7 541.139 346 C 558.239 354.7 575.239 363.9 592.039 373.6 C 613.839 386.2 635.039 399.4 655.339 413 C 663.639 418.6 668.839 427.6 669.539 437.5 C 671.239 462 672.039 486.9 672.039 512.1 C 672.039 537.3 671.239 562.1 669.539 586.6 M 798.039 254.8 C 827.439 254.8 852.839 258.8 871.439 266.3 C 885.239 271.9 894.839 279.2 899.939 288.1 C 906.439 299.4 907.139 315.6 902.039 336.2 C 895.139 363.7 878.239 396.2 853.139 430.3 C 845.939 440.1 838.239 449.8 829.839 459.6 C 826.839 463.1 821.639 463.4 818.239 460.3 C 794.539 438.1 768.339 416.2 740.039 394.9 C 733.039 389.6 728.539 381.8 727.439 373.1 C 723.139 338 717.239 304.3 709.839 272.7 C 708.839 268.3 711.739 263.9 716.239 263 C 745.739 257.5 773.239 254.8 798.039 254.8 M 735.339 472.4 C 739.039 475.4 742.639 478.5 746.239 481.5 C 758.039 491.6 769.339 501.8 780.039 511.9 C 769.339 522.1 758.039 532.2 746.239 542.3 C 742.639 545.4 739.039 548.4 735.339 551.5 C 735.739 538.4 736.039 525.2 736.039 511.9 C 736.039 498.6 735.839 485.5 735.339 472.4 M 832.039 752 C 832.039 757.1 832.439 762.2 833.239 767.1 C 822.439 768.5 810.639 769.2 798.039 769.2 C 773.239 769.2 745.739 766.4 716.439 761 C 711.939 760.2 709.039 755.8 710.139 751.3 C 717.439 719.7 723.439 686.1 727.739 650.9 C 728.839 642.2 733.339 634.4 740.339 629.1 C 768.639 607.8 794.739 585.8 818.539 563.7 C 821.839 560.6 827.139 560.9 830.139 564.4 C 838.439 574.2 846.239 584 853.439 593.7 C 871.139 617.8 884.739 641.1 893.739 662.3 C 857.539 676.3 832.039 711.3 832.039 752 M 957.939 763.4 C 956.739 766.6 955.039 769.5 952.939 772.1 C 947.039 779.4 938.039 784 928.039 784 C 910.339 784 896.039 769.7 896.039 752 C 896.039 734.3 910.339 720 928.039 720 C 945.739 720 960.039 734.3 960.039 752 C 960.039 756 959.339 759.8 957.939 763.4"/><path fill="#f2f2f2" d="M 480.039 512 C 480.039 529.673 494.366 544 512.039 544 C 529.712 544 544.039 529.673 544.039 512 C 544.039 494.327 529.712 480 512.039 480 C 494.366 480 480.039 494.327 480.039 512 Z"/></svg>
