<?xml version="1.0" encoding="UTF-8" standalone="yes"?><svg id="Capa_1" xmlns="http://www.w3.org/2000/svg" xmlns:xlink="http://www.w3.org/1999/xlink" version="1.2" baseProfile="tiny" x="0" y="0" width="512" height="512" viewBox="0 0 512 512"><defs/><g><g><path fill="#ffffff" d="M 291.07 249.06 C 289.21 247.19 286.63 246.13 284 246.13 C 281.37 246.13 278.79 247.19 276.93 249.06 C 275.07 250.92 274 253.5 274 256.13 C 274 258.76 275.07 261.34 276.93 263.2 C 278.79 265.06 281.37 266.13 284 266.13 C 286.63 266.13 289.21 265.06 291.07 263.2 C 292.93 261.34 294 258.76 294 256.13 C 294 253.49 292.93 250.92 291.07 249.06 Z"/></g></g><g><g><path fill="#ffffff" d="M 482.07 279.93 C 480.21 278.07 477.63 277 475 277 C 472.37 277 469.79 278.069 467.93 279.93 C 466.07 281.79 465 284.37 465 287 C 465 289.63 466.07 292.21 467.93 294.069 C 469.79 295.929 472.37 297 475 297 C 477.63 297 480.21 295.93 482.07 294.069 C 483.93 292.21 485 289.63 485 287 C 485 284.37 483.93 281.79 482.07 279.93 Z"/></g></g><g><g><path fill="#ffffff" d="M 475 252.333 C 480.523 252.333 485 247.855 485 242.333 L 485 88 C 485 85.237 483.879 82.735 482.066 80.925 L 404.055 2.929 C 401.667 0.54 398.276 -0.426 395.045 0.214 C 394.381 0.075 393.693 0 392.988 0 L 77 0 C 49.43 0 27 22.43 27 50 L 27 462 C 27 489.57 49.43 512 77 512 L 435 512 C 462.57 512 485 489.57 485 462 L 485 335.667 C 485 330.145 480.523 325.667 475 325.667 C 469.477 325.667 465 330.145 465 335.667 L 465 462 C 465 478.542 451.542 492 435 492 L 77 492 C 60.458 492 47 478.542 47 462 L 47 50 C 47 33.458 60.458 20 77 20 L 386.985 20 L 386.985 48 C 386.985 59.711 391.043 70.486 397.812 79.017 C 391.216 75.806 383.816 74 376 74 C 348.43 74 326 96.43 326 124 C 326 148.146 343.205 168.348 366 172.994 L 366 223.974 L 352 223.974 L 352 216 C 352 210.478 347.523 206 342 206 L 266 206 L 266 172.994 C 288.795 168.348 306 148.147 306 124 C 306 96.43 283.57 74 256 74 C 228.43 74 206 96.43 206 124 C 206 148.146 223.205 168.348 246 172.994 L 246 206 L 170 206 C 164.477 206 160 210.478 160 216 L 160 223.974 L 146 223.974 L 146 172.994 C 168.795 168.348 186 148.147 186 124 C 186 96.43 163.57 74 136 74 C 108.43 74 86 96.43 86 124 C 86 148.146 103.205 168.348 126 172.994 L 126 233.974 C 126 239.496 130.477 243.974 136 243.974 L 160 243.974 L 160 266 L 136 266 C 130.477 266 126 270.478 126 276 L 126 342 L 96 342 C 90.477 342 86 346.478 86 352 L 86 432 C 86 437.522 90.477 442 96 442 L 176 442 C 181.523 442 186 437.522 186 432 L 186 352 C 186 346.478 181.523 342 176 342 L 146 342 L 146 286 L 160 286 L 160 296 C 160 301.522 164.477 306 170 306 L 246 306 L 246 342 L 216 342 C 210.477 342 206 346.478 206 352 L 206 432 C 206 437.522 210.477 442 216 442 L 296 442 C 301.523 442 306 437.522 306 432 L 306 352 C 306 346.478 301.523 342 296 342 L 266 342 L 266 306 L 342 306 C 347.523 306 352 301.522 352 296 L 352 286 L 366 286 L 366 342 L 336 342 C 330.477 342 326 346.478 326 352 L 326 432 C 326 437.522 330.477 442 336 442 L 416 442 C 421.523 442 426 437.522 426 432 L 426 352 C 426 346.478 421.523 342 416 342 L 386 342 L 386 276 C 386 270.478 381.523 266 376 266 L 352 266 L 352 243.974 L 376 243.974 C 381.523 243.974 386 239.496 386 233.974 L 386 172.994 C 408.795 168.348 426 148.147 426 124 C 426 112.289 421.942 101.514 415.173 92.983 C 421.769 96.194 429.169 98 436.985 98 L 465 98 L 465 242.333 C 465 247.855 469.477 252.333 475 252.333 M 106 124 C 106 107.458 119.458 94 136 94 C 152.542 94 166 107.458 166 124 C 166 140.542 152.542 154 136 154 C 119.458 154 106 140.542 106 124 M 166 362 L 166 422 L 106 422 L 106 362 L 166 362 M 226 124 C 226 107.458 239.458 94 256 94 C 272.542 94 286 107.458 286 124 C 286 140.542 272.542 154 256 154 C 239.458 154 226 140.542 226 124 M 286 362 L 286 422 L 226 422 L 226 362 L 286 362 M 332 286 L 180 286 L 180 266.127 L 233.855 266.127 C 239.378 266.127 243.855 261.649 243.855 256.127 C 243.855 250.605 239.378 246.127 233.855 246.127 L 180 246.127 L 180 226 L 332 226 L 332 286 M 406 362 L 406 422 L 346 422 L 346 362 L 406 362 M 376 154 C 359.458 154 346 140.542 346 124 C 346 107.458 359.458 94 376 94 C 392.542 94 406 107.458 406 124 C 406 140.542 392.542 154 376 154 M 436.985 78 C 420.443 78 406.985 64.542 406.985 48 L 406.985 34.139 L 450.854 78 L 436.985 78"/></g></g><g/><g/><g/><g/><g/><g/><g/><g/><g/><g/><g/><g/><g/><g/><g/></svg>
