<?xml version="1.0" encoding="UTF-8" standalone="yes"?><svg id="Capa_1" xmlns="http://www.w3.org/2000/svg" xmlns:xlink="http://www.w3.org/1999/xlink" version="1.2" baseProfile="tiny" x="0" y="0" width="512" height="512" viewBox="0 0 512 512"><defs/><g><g><path fill="#ffffff" d="M 256.948 353.997 C 251.425 353.997 246.948 358.475 246.948 363.997 C 246.948 369.519 251.425 373.997 256.948 373.997 L 257.043 373.997 C 262.566 373.997 266.995 369.519 266.995 363.997 C 266.995 358.475 262.471 353.997 256.948 353.997 Z"/></g></g><g><g><path fill="#ffffff" d="M 469.999 40 L 457.999 40 L 457.999 10 C 457.999 4.477 453.522 0 447.999 0 L 368 0 C 362.477 0 358 4.477 358 10 L 358 314.001 L 310.043 314.001 L 310.043 168.658 L 327.722 120.442 C 328.749 117.641 328.472 114.528 326.967 111.953 L 296.599 60 L 325.5 60 C 331.023 60 335.5 55.523 335.5 50 C 335.5 44.477 331.023 40 325.5 40 L 284.908 40 L 264.423 4.955 C 262.615 1.862 259.29 -0.063 255.708 0.002 C 252.125 0.031 248.833 1.974 247.075 5.096 L 186.848 112.095 C 185.468 114.547 185.184 117.466 186.067 120.137 L 202.044 168.493 L 202.044 314.002 L 162.273 314.002 L 162.273 107 C 162.273 105.571 161.967 104.159 161.375 102.858 L 141.874 60 L 187 60 C 192.523 60 197 55.523 197 50 C 197 44.477 192.523 40 187 40 L 134.333 40 C 133.821 40 133.322 40.051 132.83 40.125 L 117.24 5.859 C 115.616 2.291 112.058 0.001 108.138 0.001 C 104.218 0.001 100.659 2.292 99.036 5.859 L 83.501 40 L 42.001 40 C 18.842 40 0.001 58.841 0.001 82 L 0.001 363.997 C 0.001 391.567 22.431 413.997 50.001 413.997 L 202 413.997 L 202 452 L 188 452 C 164.841 452 146 470.841 146 494 L 146 502 C 146 507.522 150.477 512 156 512 L 355.998 512 C 361.521 512 365.998 507.522 365.998 502 L 365.998 494 C 365.998 470.841 347.157 452 323.998 452 L 309.998 452 L 309.998 413.996 L 461.997 413.996 C 489.567 413.996 511.997 391.566 511.997 363.996 L 511.997 82 C 511.998 58.841 493.156 40 469.999 40 M 378 299.998 L 399.25 299.998 C 404.773 299.998 409.25 295.52 409.25 289.998 C 409.25 284.476 404.773 279.998 399.25 279.998 L 378 279.998 L 378 259.998 L 386.951 259.998 C 392.474 259.998 396.951 255.521 396.951 249.998 C 396.951 244.475 392.474 239.998 386.951 239.998 L 378 239.998 L 378 219.998 L 399.25 219.998 C 404.773 219.998 409.25 215.521 409.25 209.998 C 409.25 204.475 404.773 199.998 399.25 199.998 L 378 199.998 L 378 179.998 L 386.951 179.998 C 392.474 179.998 396.951 175.521 396.951 169.998 C 396.951 164.475 392.474 159.998 386.951 159.998 L 378 159.998 L 378 139.998 L 399.25 139.998 C 404.773 139.998 409.25 135.521 409.25 129.998 C 409.25 124.475 404.773 119.998 399.25 119.998 L 378 119.998 L 378 99.998 L 386.951 99.998 C 392.474 99.998 396.951 95.521 396.951 89.998 C 396.951 84.475 392.474 79.998 386.951 79.998 L 378 79.998 L 378 60 L 399.25 60 C 404.773 60 409.25 55.523 409.25 50 C 409.25 44.477 404.773 40 399.25 40 L 378 40 L 378 20 L 437.999 20 L 437.999 314.001 L 378 314.001 L 378 299.998 M 246 47.779 L 246 82.986 C 246 88.509 250.477 92.986 256 92.986 C 261.523 92.986 266 88.509 266 82.986 L 266 47.285 L 307.323 117.98 L 293.059 156.884 L 219.272 156.884 L 206.443 118.056 L 246 47.779 M 263.667 231.664 C 258.144 231.664 253.667 236.141 253.667 241.664 L 253.667 314.001 L 222.044 314.001 L 222.044 176.883 L 290.043 176.883 L 290.043 314.002 L 273.666 314.002 L 273.666 241.665 C 273.667 236.141 269.19 231.664 263.667 231.664 M 142.274 116.999 L 142.274 314.001 L 74.002 314.001 L 74.002 116.999 L 142.274 116.999 M 108.138 34.146 L 119.447 59 L 96.829 59 L 108.138 34.146 M 87.728 79 L 128.547 79 L 136.738 97 L 79.539 97 L 87.728 79 M 20.002 82 C 20.002 69.869 29.871 60 42.002 60 L 74.401 60 L 54.9 102.858 C 54.308 104.159 54.002 105.571 54.002 107 L 54.002 314.002 L 20.002 314.002 L 20.002 82 M 324 472 C 335.457 472 344.896 480.803 345.91 492 L 166.092 492 C 167.105 480.803 176.545 472 188.002 472 L 212.002 472 L 300 472 L 324 472 M 222 452 L 222 413.996 L 290 413.996 L 290 452 L 222 452 M 491.998 363.997 C 491.998 380.539 478.54 393.997 461.998 393.997 L 300 393.997 L 212.001 393.997 L 50.003 393.997 C 33.461 393.997 20.003 380.539 20.003 363.997 L 20.003 334.001 L 368 334.001 L 447.999 334.001 L 491.999 334.001 L 491.999 363.997 L 491.998 363.997 M 491.998 314.002 L 457.998 314.002 L 457.998 60 L 469.998 60 C 482.129 60 491.998 69.869 491.998 82 L 491.998 314.002"/></g></g><g><g><path fill="#ffffff" d="M 100.335 188.499 C 94.812 188.499 90.335 192.976 90.335 198.499 L 90.335 271.499 C 90.335 277.021 94.812 281.499 100.335 281.499 C 105.858 281.499 110.335 277.021 110.335 271.499 L 110.335 198.499 C 110.335 192.976 105.858 188.499 100.335 188.499 Z"/></g></g><g><g><path fill="#ffffff" d="M 107.401 152.429 C 105.541 150.569 102.971 149.499 100.331 149.499 C 97.701 149.499 95.121 150.569 93.261 152.429 C 91.401 154.289 90.331 156.869 90.331 159.499 C 90.331 162.129 91.401 164.709 93.261 166.569 C 95.121 168.429 97.701 169.499 100.331 169.499 C 102.971 169.499 105.541 168.429 107.401 166.569 C 109.271 164.709 110.331 162.129 110.331 159.499 C 110.331 156.859 109.271 154.289 107.401 152.429 Z"/></g></g><g><g><path fill="#ffffff" d="M 263.071 109.93 C 261.211 108.07 258.631 107 256.001 107 C 253.371 107 250.791 108.07 248.931 109.93 C 247.071 111.79 246.001 114.37 246.001 117 C 246.001 119.63 247.071 122.21 248.931 124.07 C 250.791 125.93 253.37 127 256.001 127 C 258.631 127 261.211 125.93 263.071 124.07 C 264.931 122.21 266.001 119.63 266.001 117 C 266.001 114.369 264.931 111.79 263.071 109.93 Z"/></g></g><g/><g/><g/><g/><g/><g/><g/><g/><g/><g/><g/><g/><g/><g/><g/></svg>
