<?xml version="1.0" encoding="UTF-8" standalone="yes"?><svg class="icon" xmlns="http://www.w3.org/2000/svg" xmlns:xlink="http://www.w3.org/1999/xlink" version="1.2" baseProfile="tiny" x="0" y="0" width="200" height="200" viewBox="0 0 1024 1024"><defs/><path fill="#f2f2f2" d="M 650.24 647.168 C 627.712 647.168 609.28 628.736 609.28 606.208 L 609.28 565.248 C 609.28 542.72 627.712 524.288 650.24 524.288 C 672.768 524.288 691.2 542.72 691.2 565.248 L 691.2 606.208 C 691.2 628.736 672.768 647.168 650.24 647.168 M 373.76 647.168 C 351.232 647.168 332.8 628.736 332.8 606.208 L 332.8 565.248 C 332.8 542.72 351.232 524.288 373.76 524.288 C 396.288 524.288 414.72 542.72 414.72 565.248 L 414.72 606.208 C 414.72 628.736 396.288 647.168 373.76 647.168"/><path fill="#f2f2f2" d="M 776.192 990.208 L 247.808 990.208 C 157.696 990.208 83.968 916.48 83.968 826.368 L 83.968 663.552 C 83.968 428.032 275.456 235.52 512 235.52 C 748.544 235.52 940.032 428.032 940.032 663.552 L 940.032 825.344 C 940.032 916.48 867.328 990.208 776.192 990.208 M 512 317.44 C 320.512 317.44 165.888 473.088 165.888 663.552 L 165.888 825.344 C 165.888 870.4 202.752 907.264 247.808 907.264 L 777.216 907.264 C 822.272 907.264 859.136 870.4 859.136 825.344 L 859.136 663.552 C 858.112 473.088 703.488 317.44 512 317.44"/><path fill="#f2f2f2" d="M 316.416 354.304 C 296.96 365.568 271.36 359.424 260.096 339.968 L 167.936 182.272 C 156.672 162.816 162.816 137.216 182.272 125.952 C 201.728 114.688 227.328 120.832 238.592 140.288 L 330.752 297.984 C 342.016 317.44 335.872 343.04 316.416 354.304 Z"/><path fill="#f2f2f2" d="M 129.91 197.831 C 152.744 236.889 202.918 250.042 241.976 227.208 C 281.034 204.374 294.187 154.2 271.353 115.142 C 248.519 76.0835 198.345 62.931 159.287 85.765 C 120.229 108.599 107.076 158.772 129.91 197.831 Z"/><path fill="#f2f2f2" d="M 718.848 354.304 C 738.304 365.568 763.904 359.424 775.168 339.968 L 867.328 182.272 C 878.592 162.816 872.448 137.216 852.992 125.952 C 833.536 114.688 807.936 120.832 796.672 140.288 L 704.512 297.984 C 692.224 317.44 699.392 343.04 718.848 354.304 Z"/><path fill="#f2f2f2" d="M 792.927 226.972 C 831.984 249.807 882.158 236.657 904.994 197.6 C 927.829 158.542 914.679 108.368 875.622 85.5324 C 875.62 85.5312 875.618 85.53 875.616 85.5289 C 836.558 62.6932 786.384 75.8436 763.548 114.901 C 740.713 153.958 753.863 204.133 792.92 226.968 C 792.922 226.969 792.925 226.971 792.927 226.972 Z"/><path fill="#f2f2f2" d="M 593.92 844.8 L 430.08 844.8 C 407.552 844.8 389.12 826.368 389.12 803.84 C 389.12 781.312 407.552 762.88 430.08 762.88 L 593.92 762.88 C 616.448 762.88 634.88 781.312 634.88 803.84 C 634.88 826.368 616.448 844.8 593.92 844.8 Z"/><path fill="#f2f2f2" d="M 562.176 190.464 C 550.912 190.464 539.648 185.344 531.456 177.152 L 499.712 141.312 L 477.184 173.056 C 470.016 184.32 456.704 190.464 443.392 190.464 L 371.712 190.464 C 349.184 190.464 330.752 172.032 330.752 149.504 C 330.752 126.976 349.184 108.544 371.712 108.544 L 422.912 108.544 L 462.848 51.2 C 470.016 40.96 481.28 34.816 493.568 33.792 C 505.856 32.768 518.144 37.888 526.336 47.104 L 579.584 107.52 L 661.504 106.496 C 684.032 106.496 702.464 124.928 702.464 147.456 C 702.464 169.984 684.032 188.416 661.504 188.416 L 562.176 190.464 Z"/></svg>
