<?xml version="1.0" encoding="UTF-8" standalone="yes"?><svg id="Capa_1" xmlns="http://www.w3.org/2000/svg" xmlns:xlink="http://www.w3.org/1999/xlink" version="1.2" baseProfile="tiny" x="0" y="0" width="512" height="512" viewBox="0 0 512.002 512.002"><defs/><g><g><path fill="#ffffff" d="M 502.281 16.993 L 502.279 16.981 C 501.385 13.406 498.598 10.613 495.026 9.711 C 441.49 -3.811 385.059 -3.201 331.828 11.475 C 285.022 24.379 241.664 47.894 205.336 79.926 L 196.594 77.206 C 144.608 61.032 88.4 74.901 49.904 113.397 L 2.945 160.356 C -0.96 164.261 -0.96 170.594 2.945 174.5 L 63.478 235.034 L 75.003 246.559 L 44.605 276.957 C 40.7 280.862 40.7 287.195 44.605 291.101 L 71.794 318.29 L 38.983 402.167 C 37.576 405.766 38.367 409.853 41.016 412.667 C 43.664 415.48 47.696 416.514 51.374 415.326 L 68.294 409.854 L 46.778 452.034 C 44.808 455.897 45.552 460.591 48.621 463.656 C 51.691 466.72 56.385 467.459 60.246 465.48 L 102.308 443.938 L 96.853 460.806 C 95.664 464.482 96.699 468.514 99.512 471.164 C 101.401 472.943 103.865 473.884 106.369 473.884 C 107.594 473.884 108.828 473.659 110.01 473.197 L 193.887 440.386 L 221.017 467.516 C 222.97 469.469 225.529 470.445 228.088 470.445 C 230.647 470.445 233.207 469.469 235.159 467.516 L 265.558 437.118 L 276.981 448.541 L 337.514 509.075 C 339.389 510.95 341.933 512.004 344.585 512.004 C 347.237 512.004 349.781 510.95 351.656 509.075 L 398.614 462.117 C 437.111 423.62 450.979 367.412 434.806 315.428 L 432.086 306.684 C 464.114 270.354 487.625 226.997 500.524 180.192 C 515.201 126.949 515.806 70.509 502.281 16.993 M 70.549 213.818 L 24.159 167.428 L 64.046 127.541 C 96.78 94.806 144.358 82.707 188.663 95.704 L 70.549 213.818 M 122.378 446.88 L 128.776 427.095 C 130.021 423.245 128.824 419.025 125.743 416.402 C 122.662 413.779 118.306 413.272 114.702 415.117 L 78.642 433.585 L 97.069 397.461 C 98.906 393.859 98.394 389.506 95.771 386.428 C 93.148 383.351 88.931 382.157 85.083 383.401 L 65.299 389.8 L 87.233 333.727 L 178.451 424.945 L 122.378 446.88 M 228.091 446.299 L 203.516 421.724 C 203.501 421.709 203.486 421.694 203.471 421.679 L 90.506 308.715 C 90.487 308.696 90.469 308.678 90.45 308.659 L 65.819 284.028 L 89.146 260.702 L 251.417 422.972 L 228.091 446.299 M 384.475 447.97 L 344.588 487.857 L 298.198 441.466 L 416.312 323.352 C 429.31 367.658 417.21 415.235 384.475 447.97 M 404.297 307.08 L 284.054 427.323 L 84.693 227.962 L 104.427 208.228 L 149.984 253.785 C 151.937 255.738 154.496 256.714 157.055 256.714 C 159.614 256.714 162.174 255.738 164.126 253.785 C 168.031 249.88 168.031 243.548 164.126 239.641 L 118.569 194.084 L 204.923 107.73 C 277.698 34.955 384.24 4.58 484.292 27.693 C 507.429 127.749 477.065 234.291 404.297 307.08"/></g></g><g><g><path fill="#ffffff" d="M 190.995 266.508 C 189.135 264.648 186.555 263.588 183.925 263.588 C 181.295 263.588 178.715 264.648 176.855 266.508 C 174.995 268.378 173.925 270.948 173.925 273.588 C 173.925 276.218 174.995 278.798 176.855 280.658 C 178.715 282.518 181.295 283.588 183.925 283.588 C 186.555 283.588 189.135 282.518 190.995 280.658 C 192.855 278.798 193.925 276.218 193.925 273.588 C 193.925 270.948 192.855 268.378 190.995 266.508 Z"/></g></g><g><g><path fill="#ffffff" d="M 412.9 153.183 C 410.513 148.203 404.54 146.101 399.56 148.488 C 394.58 150.874 392.477 156.847 394.863 161.828 C 412.262 198.139 404.811 241.676 376.322 270.164 C 339.249 307.239 278.924 307.238 241.85 270.164 C 223.89 252.205 214 228.327 214 202.928 C 214 177.53 223.891 153.652 241.85 135.693 C 270.385 107.157 313.979 99.732 350.319 117.216 C 355.298 119.613 361.273 117.516 363.667 112.54 C 366.062 107.563 363.968 101.586 358.991 99.192 C 315 78.027 262.243 87.014 227.708 121.548 C 205.971 143.285 193.999 172.187 193.999 202.927 C 193.999 233.669 205.971 262.569 227.708 284.306 C 250.144 306.742 279.616 317.96 309.087 317.96 C 338.558 317.96 368.03 306.741 390.466 284.305 C 424.944 249.827 433.959 197.133 412.9 153.183 Z"/></g></g><g><g><path fill="#ffffff" d="M 390.677 121.761 L 390.493 121.577 C 386.603 117.657 380.272 117.631 376.35 121.521 C 372.43 125.411 372.404 131.743 376.294 135.664 L 376.478 135.848 C 378.433 137.819 381.005 138.805 383.578 138.805 C 386.123 138.805 388.67 137.839 390.62 135.904 C 394.541 132.014 394.567 125.683 390.677 121.761 Z"/></g></g><g><g><path fill="#ffffff" d="M 294.668 142.535 L 258.694 142.535 C 253.171 142.535 248.694 147.012 248.694 152.536 L 248.694 188.51 C 248.694 194.033 253.171 198.51 258.694 198.51 C 264.217 198.51 268.695 194.033 268.695 188.51 L 268.695 162.537 L 294.668 162.537 C 300.191 162.537 304.668 158.06 304.668 152.537 C 304.669 147.013 300.192 142.535 294.668 142.535 Z"/></g></g><g><g><path fill="#ffffff" d="M 359.48 207.346 C 353.957 207.346 349.48 211.823 349.48 217.346 L 349.48 243.32 L 323.507 243.32 C 317.984 243.32 313.507 247.797 313.507 253.32 C 313.507 258.843 317.984 263.321 323.507 263.321 L 359.481 263.321 C 365.004 263.321 369.481 258.844 369.481 253.32 L 369.481 217.345 C 369.48 211.823 365.003 207.346 359.48 207.346 Z"/></g></g><g><g><path fill="#ffffff" d="M 353.074 191.505 C 351.686 186.159 346.23 182.952 340.881 184.34 L 272.267 202.159 C 266.921 203.547 263.713 209.006 265.102 214.352 C 266.27 218.856 270.327 221.841 274.774 221.841 C 275.606 221.841 276.452 221.737 277.295 221.517 L 345.909 203.698 C 351.255 202.31 354.463 196.85 353.074 191.505 Z"/></g></g><g><g><path fill="#ffffff" d="M 39.411 472.594 C 35.507 468.688 29.174 468.688 25.269 472.593 L 2.935 494.928 C -0.97 498.833 -0.97 505.165 2.935 509.072 C 4.888 511.025 7.447 512.001 10.006 512.001 C 12.565 512.001 15.125 511.025 17.077 509.072 L 39.411 486.738 C 43.317 482.833 43.317 476.5 39.411 472.594 Z"/></g></g><g><g><path fill="#ffffff" d="M 87.415 478.594 C 83.51 474.689 77.177 474.689 73.272 478.594 L 56.938 494.928 C 53.033 498.833 53.033 505.166 56.938 509.072 C 58.891 511.024 61.45 512 64.01 512 C 66.569 512 69.129 511.024 71.081 509.071 L 87.415 492.737 C 91.32 488.832 91.32 482.5 87.415 478.594 Z"/></g></g><g><g><path fill="#ffffff" d="M 36.249 424.762 C 32.344 420.857 26.011 420.857 22.105 424.762 L 2.935 443.934 C -0.97 447.839 -0.97 454.172 2.935 458.078 C 4.888 460.031 7.447 461.007 10.006 461.007 C 12.565 461.007 15.125 460.031 17.077 458.078 L 36.249 438.906 C 40.154 435 40.154 428.668 36.249 424.762 Z"/></g></g><g/><g/><g/><g/><g/><g/><g/><g/><g/><g/><g/><g/><g/><g/><g/></svg>
