<?xml version="1.0" encoding="UTF-8" standalone="yes"?><svg id="Capa_1" xmlns="http://www.w3.org/2000/svg" xmlns:xlink="http://www.w3.org/1999/xlink" version="1.2" baseProfile="tiny" x="0" y="0" width="512" height="512" viewBox="0 0 512 512"><defs/><g><g><path fill="#ffffff" d="M 256.947 333.998 C 251.424 333.998 246.947 338.476 246.947 343.998 C 246.947 349.52 251.424 353.998 256.947 353.998 L 257.042 353.998 C 262.565 353.998 266.994 349.52 266.994 343.998 C 266.994 338.476 262.47 333.998 256.947 333.998 Z"/></g></g><g><g><path fill="#ffffff" d="M 56.57 296.93 C 54.71 295.07 52.13 294 49.5 294 C 46.87 294 44.29 295.069 42.43 296.93 C 40.57 298.79 39.5 301.37 39.5 304 C 39.5 306.64 40.57 309.21 42.43 311.069 C 44.29 312.929 46.87 314 49.5 314 C 52.13 314 54.71 312.93 56.57 311.069 C 58.43 309.21 59.5 306.639 59.5 304 C 59.5 301.37 58.43 298.79 56.57 296.93 Z"/></g></g><g><g><path fill="#ffffff" d="M 470 19.998 L 42 19.998 C 18.841 19.998 0 38.839 0 61.998 L 0 343.998 C 0 371.568 22.43 393.998 50 393.998 L 202 393.998 L 202 432.002 L 188 432.002 C 164.841 432.002 146 450.843 146 474.002 L 146 482.002 C 146 487.524 150.477 492.002 156 492.002 L 356 492.002 C 361.523 492.002 366 487.524 366 482.002 L 366 474.002 C 366 450.843 347.159 432.002 324 432.002 L 310 432.002 L 310 393.998 L 462 393.998 C 489.57 393.998 512 371.568 512 343.998 L 512 61.998 C 512 38.839 493.159 19.998 470 19.998 M 324 452.002 C 335.457 452.002 344.896 460.805 345.91 472.002 L 166.09 472.002 C 167.103 460.805 176.543 452.002 188 452.002 L 212 452.002 L 300 452.002 L 324 452.002 M 222 432.002 L 222 393.998 L 290 393.998 L 290 432.002 L 222 432.002 M 492 294.002 L 88 294.002 C 82.477 294.002 78 298.48 78 304.002 C 78 309.524 82.477 314.002 88 314.002 L 492 314.002 L 492 343.998 C 492 360.54 478.542 373.998 462 373.998 L 300 373.998 L 212 373.998 L 50 373.998 C 33.458 373.998 20 360.54 20 343.998 L 20 61.998 C 20 49.867 29.869 39.998 42 39.998 L 470 39.998 C 482.131 39.998 492 49.867 492 61.998 L 492 294.002"/></g></g><g><g><path fill="#ffffff" d="M 94.167 233.994 C 89.939 233.994 86.5 230.555 86.5 226.327 L 86.5 182.425 C 86.5 179.773 85.446 177.23 83.571 175.354 L 78.142 169.925 L 83.571 164.496 C 85.446 162.62 86.5 160.077 86.5 157.425 L 86.5 113.522 C 86.5 109.294 89.939 105.855 94.167 105.855 C 99.69 105.855 104.167 101.377 104.167 95.855 C 104.167 90.333 99.69 85.855 94.167 85.855 C 78.912 85.855 66.5 98.266 66.5 113.522 L 66.5 153.283 L 56.929 162.854 C 53.024 166.759 53.024 173.091 56.929 176.997 L 66.5 186.568 L 66.5 226.328 C 66.5 241.584 78.911 253.995 94.167 253.995 C 99.689 253.994 104.167 249.517 104.167 243.994 C 104.167 238.472 99.69 233.994 94.167 233.994 Z"/></g></g><g><g><path fill="#ffffff" d="M 455.071 162.853 L 445.5 153.282 L 445.5 113.521 C 445.5 98.265 433.089 85.854 417.833 85.854 C 412.31 85.854 407.833 90.332 407.833 95.854 C 407.833 101.376 412.31 105.854 417.833 105.854 C 422.061 105.854 425.5 109.293 425.5 113.521 L 425.5 157.424 C 425.5 160.076 426.554 162.619 428.429 164.495 L 433.858 169.924 L 428.429 175.353 C 426.554 177.229 425.5 179.772 425.5 182.425 L 425.5 226.327 C 425.5 230.555 422.061 233.994 417.833 233.994 C 412.31 233.994 407.833 238.472 407.833 243.994 C 407.833 249.516 412.31 253.994 417.833 253.994 C 433.088 253.994 445.5 241.583 445.5 226.327 L 445.5 186.567 L 455.071 176.996 C 458.976 173.091 458.976 166.759 455.071 162.853 Z"/></g></g><g><g><path fill="#ffffff" d="M 289.5 137.997 L 141 137.997 C 135.477 137.997 131 142.475 131 147.997 C 131 153.519 135.477 157.997 141 157.997 L 289.5 157.997 C 295.023 157.997 299.5 153.519 299.5 147.997 C 299.5 142.475 295.023 137.997 289.5 137.997 Z"/></g></g><g><g><path fill="#ffffff" d="M 375 137.997 L 332.5 137.997 C 326.977 137.997 322.5 142.475 322.5 147.997 C 322.5 153.519 326.977 157.997 332.5 157.997 L 375 157.997 C 380.523 157.997 385 153.519 385 147.997 C 385 142.475 380.523 137.997 375 137.997 Z"/></g></g><g><g><path fill="#ffffff" d="M 375 233.987 L 345.838 233.987 C 340.315 233.987 335.838 238.465 335.838 243.987 C 335.838 249.509 340.315 253.987 345.838 253.987 L 375 253.987 C 380.523 253.987 385 249.509 385 243.987 C 385 238.465 380.523 233.987 375 233.987 Z"/></g></g><g><g><path fill="#ffffff" d="M 305.737 234 L 141 234 C 135.477 234 131 238.478 131 244 C 131 249.522 135.477 254 141 254 L 305.737 254 C 311.26 254 315.737 249.522 315.737 244 C 315.737 238.478 311.26 234 305.737 234 Z"/></g></g><g><g><path fill="#ffffff" d="M 185 185.995 L 141 185.995 C 135.477 185.995 131 190.473 131 195.995 C 131 201.517 135.477 205.995 141 205.995 L 185 205.995 C 190.523 205.995 195 201.517 195 195.995 C 195 190.473 190.523 185.995 185 185.995 Z"/></g></g><g><g><path fill="#ffffff" d="M 382.07 188.92 C 380.21 187.06 377.64 185.99 375 185.99 C 372.36 185.99 369.79 187.059 367.93 188.92 C 366.07 190.79 365 193.359 365 196 C 365 198.63 366.07 201.2 367.93 203.069 C 369.79 204.929 372.37 205.99 375 205.99 C 377.63 205.99 380.21 204.929 382.07 203.069 C 383.93 201.2 385 198.63 385 196 C 385 193.359 383.93 190.79 382.07 188.92 Z"/></g></g><g><g><path fill="#ffffff" d="M 341.667 185.995 L 229.443 185.995 C 223.92 185.995 219.443 190.473 219.443 195.995 C 219.443 201.517 223.92 205.995 229.443 205.995 L 341.666 205.995 C 347.189 205.995 351.667 201.518 351.667 195.995 C 351.667 190.473 347.19 185.995 341.667 185.995 Z"/></g></g><g><g><path fill="#ffffff" d="M 229.052 89.999 L 141 89.999 C 135.477 89.999 131 94.477 131 99.999 C 131 105.521 135.477 109.999 141 109.999 L 229.052 109.999 C 234.575 109.999 239.052 105.521 239.052 99.999 C 239.052 94.477 234.575 89.999 229.052 89.999 Z"/></g></g><g><g><path fill="#ffffff" d="M 375 89.999 L 282.948 89.999 C 277.425 89.999 272.948 94.477 272.948 99.999 C 272.948 105.521 277.425 109.999 282.948 109.999 L 375 109.999 C 380.523 109.999 385 105.521 385 99.999 C 385 94.477 380.523 89.999 375 89.999 Z"/></g></g><g/><g/><g/><g/><g/><g/><g/><g/><g/><g/><g/><g/><g/><g/><g/></svg>
