<?xml version="1.0" encoding="UTF-8" standalone="yes"?><svg id="Capa_1" xmlns="http://www.w3.org/2000/svg" xmlns:xlink="http://www.w3.org/1999/xlink" version="1.2" baseProfile="tiny" x="0" y="0" width="512" height="512" viewBox="0 0 512 512"><defs/><g><g><path fill="#ffffff" d="M 502 0 L 178 0 C 172.477 0 168 4.478 168 10 L 168 188 L 39.5 188 C 17.72 188 0 205.72 0 227.5 L 0 256.127 L 0 448 L 0 472.5 C 0 494.28 17.72 512 39.5 512 L 502 512 C 507.523 512 512 507.522 512 502 L 512 10 C 512 4.478 507.523 0 502 0 M 200 472.5 C 200 483.252 191.252 492 180.5 492 L 178 492 L 39.5 492 C 28.748 492 20 483.252 20 472.5 L 20 458 L 200 458 L 200 472.5 M 200 438 L 20 438 L 20 266.127 L 200 266.127 L 200 438 M 200 246.127 L 20 246.127 L 20 227.5 C 20 216.748 28.748 208 39.5 208 L 180.5 208 C 191.252 208 200 216.748 200 227.5 L 200 246.127 M 492 492 L 214.83 492 C 218.113 486.242 220 479.589 220 472.5 L 220 227.5 C 220 208.284 206.205 192.238 188 188.723 L 188 160.05 L 492 160.05 L 492 492 M 376.245 140.05 L 261.755 140.05 L 319 82.805 L 376.245 140.05 M 357.438 92.958 L 391.92 58.476 L 473.494 140.05 L 404.53 140.05 L 357.438 92.958 M 492 130.27 L 398.992 37.262 C 397.117 35.387 394.573 34.333 391.921 34.333 C 389.269 34.333 386.725 35.387 384.85 37.262 L 343.296 78.816 L 326.071 61.591 C 322.166 57.687 315.834 57.687 311.928 61.591 L 233.47 140.05 L 188 140.05 L 188 20 L 492 20 L 492 130.27"/></g></g><g><g><path fill="#ffffff" d="M 461.09 288.9 C 459.23 287.03 456.65 285.97 454.02 285.97 C 451.39 285.97 448.81 287.031 446.95 288.9 C 445.09 290.76 444.02 293.34 444.02 295.97 C 444.02 298.6 445.09 301.18 446.95 303.04 C 448.81 304.899 451.39 305.97 454.02 305.97 C 456.65 305.97 459.23 304.9 461.09 303.04 C 462.95 301.18 464.02 298.6 464.02 295.97 C 464.02 293.34 462.95 290.76 461.09 288.9 Z"/></g></g><g><g><path fill="#ffffff" d="M 416 285.969 L 247.167 285.969 C 241.644 285.969 237.167 290.447 237.167 295.969 C 237.167 301.491 241.644 305.969 247.167 305.969 L 416 305.969 C 421.523 305.969 426 301.491 426 295.969 C 426 290.447 421.523 285.969 416 285.969 Z"/></g></g><g><g><path fill="#ffffff" d="M 470 182 L 416 182 C 410.477 182 406 186.478 406 192 L 406 246 C 406 251.522 410.477 256 416 256 L 470 256 C 475.523 256 480 251.522 480 246 L 480 192 C 480 186.478 475.523 182 470 182 M 460 236 L 426 236 L 426 202 L 460 202 L 460 236"/></g></g><g><g><path fill="#ffffff" d="M 367 182 L 313 182 C 307.477 182 303 186.478 303 192 L 303 246 C 303 251.522 307.477 256 313 256 L 367 256 C 372.523 256 377 251.522 377 246 L 377 192 C 377 186.478 372.523 182 367 182 M 357 236 L 323 236 L 323 202 L 357 202 L 357 236"/></g></g><g><g><path fill="#ffffff" d="M 264 182 L 230.333 182 C 224.81 182 220.333 186.478 220.333 192 C 220.333 197.522 224.81 202 230.333 202 L 254 202 L 254 236 L 246.333 236 C 240.81 236 236.333 240.478 236.333 246 C 236.333 251.522 240.81 256 246.333 256 L 264 256 C 269.523 256 274 251.522 274 246 L 274 192 C 274 186.478 269.523 182 264 182 Z"/></g></g><g><g><path fill="#ffffff" d="M 255.57 377.234 L 264.904 367.899 C 268.81 363.993 268.81 357.662 264.904 353.757 C 260.999 349.853 254.667 349.853 250.762 353.757 L 234.357 370.163 C 230.452 374.068 230.452 380.4 234.357 384.306 L 250.762 400.711 C 252.715 402.663 255.274 403.64 257.833 403.64 C 260.392 403.64 262.952 402.663 264.904 400.711 C 268.809 396.806 268.809 390.474 264.904 386.568 L 255.57 377.234 Z"/></g></g><g><g><path fill="#ffffff" d="M 455.073 370.165 L 438.666 353.757 C 434.761 349.854 428.429 349.854 424.524 353.757 C 420.619 357.662 420.618 363.994 424.524 367.9 L 433.859 377.235 L 424.525 386.569 C 420.62 390.474 420.619 396.806 424.525 400.712 C 426.478 402.664 429.037 403.641 431.596 403.641 C 434.155 403.641 436.715 402.664 438.667 400.712 L 455.073 384.307 C 456.948 382.432 458.002 379.888 458.002 377.236 C 458.002 374.584 456.948 372.041 455.073 370.165 Z"/></g></g><g><g><path fill="#ffffff" d="M 134.71 217 L 85.208 217 C 79.685 217 75.208 221.478 75.208 227 C 75.208 232.522 79.685 237 85.208 237 L 134.71 237 C 140.233 237 144.71 232.522 144.71 227 C 144.71 221.478 140.233 217 134.71 217 Z"/></g></g><g><g><path fill="#ffffff" d="M 110.065 465 L 109.935 465 C 104.412 465 99.935 469.478 99.935 475 C 99.935 480.522 104.412 485 109.935 485 L 110.065 485 C 115.588 485 120.065 480.522 120.065 475 C 120.065 469.478 115.588 465 110.065 465 Z"/></g></g><g><g><path fill="#ffffff" d="M 110 286 C 84.636 286 64 306.636 64 332 C 64 357.364 84.636 378 110 378 C 135.364 378 156 357.364 156 332 C 156 306.636 135.364 286 110 286 M 110 358 C 95.664 358 84 346.337 84 332 C 84 317.663 95.664 306 110 306 C 124.336 306 136 317.663 136 332 C 136 346.337 124.336 358 110 358"/></g></g><g><g><path fill="#ffffff" d="M 112.5 395 L 74 395 C 68.477 395 64 399.478 64 405 C 64 410.522 68.477 415 74 415 L 112.5 415 C 118.023 415 122.5 410.522 122.5 405 C 122.5 399.478 118.023 395 112.5 395 Z"/></g></g><g><g><path fill="#ffffff" d="M 152.94 397.93 C 151.08 396.07 148.5 395 145.87 395 C 143.24 395 140.66 396.069 138.8 397.93 C 136.94 399.791 135.87 402.37 135.87 405 C 135.87 407.63 136.94 410.21 138.8 412.069 C 140.66 413.929 143.24 415 145.87 415 C 148.5 415 151.08 413.93 152.94 412.069 C 154.8 410.21 155.87 407.63 155.87 405 C 155.87 402.37 154.8 399.79 152.94 397.93 Z"/></g></g><g><g><path fill="#ffffff" d="M 338.801 331.234 C 313.437 331.234 292.801 351.87 292.801 377.234 C 292.801 402.598 313.437 423.234 338.801 423.234 C 364.165 423.234 384.801 402.598 384.801 377.234 C 384.801 351.87 364.166 331.234 338.801 331.234 M 338.801 403.234 C 324.465 403.234 312.801 391.571 312.801 377.234 C 312.801 362.897 324.465 351.234 338.801 351.234 C 353.137 351.234 364.801 362.897 364.801 377.234 C 364.801 391.571 353.138 403.234 338.801 403.234"/></g></g><g><g><path fill="#ffffff" d="M 374.671 443.333 L 302.801 443.333 C 297.278 443.333 292.801 447.811 292.801 453.333 C 292.801 458.855 297.278 463.333 302.801 463.333 L 374.671 463.333 C 380.194 463.333 384.671 458.855 384.671 453.333 C 384.671 447.811 380.194 443.333 374.671 443.333 Z"/></g></g><g><g><path fill="#ffffff" d="M 238 40 C 221.458 40 208 53.458 208 70 C 208 86.542 221.458 100 238 100 C 254.542 100 268 86.542 268 70 C 268 53.458 254.542 40 238 40 M 238 80 C 232.486 80 228 75.514 228 70 C 228 64.486 232.486 60 238 60 C 243.514 60 248 64.486 248 70 C 248 75.514 243.514 80 238 80"/></g></g><g/><g/><g/><g/><g/><g/><g/><g/><g/><g/><g/><g/><g/><g/><g/></svg>
