<?xml version="1.0" encoding="UTF-8" standalone="yes"?><svg id="Capa_1" xmlns="http://www.w3.org/2000/svg" xmlns:xlink="http://www.w3.org/1999/xlink" version="1.2" baseProfile="tiny" x="0" y="0" width="512" height="512" viewBox="0 0 512 512"><defs/><g><g><path fill="#ffffff" d="M 377 36 L 258.095 36 C 252.572 36 248.095 40.478 248.095 46 C 248.095 51.522 252.572 56 258.095 56 L 377 56 C 382.523 56 387 51.522 387 46 C 387 40.478 382.523 36 377 36 Z"/></g></g><g><g><path fill="#ffffff" d="M 177.05 38.93 C 175.19 37.07 172.61 36 169.98 36 C 167.34 36 164.76 37.069 162.9 38.93 C 161.04 40.791 159.98 43.37 159.98 46 C 159.98 48.63 161.04 51.21 162.9 53.069 C 164.77 54.93 167.34 56 169.98 56 C 172.61 56 175.19 54.93 177.05 53.069 C 178.91 51.21 179.98 48.63 179.98 46 C 179.98 43.37 178.91 40.79 177.05 38.93 Z"/></g></g><g><g><path fill="#ffffff" d="M 139.02 38.93 C 137.16 37.07 134.58 36 131.95 36 C 129.32 36 126.74 37.069 124.88 38.93 C 123.02 40.791 121.95 43.37 121.95 46 C 121.95 48.63 123.02 51.21 124.88 53.069 C 126.74 54.93 129.32 56 131.95 56 C 134.58 56 137.16 54.93 139.02 53.069 C 140.88 51.21 141.95 48.63 141.95 46 C 141.95 43.37 140.88 40.79 139.02 38.93 Z"/></g></g><g><g><path fill="#ffffff" d="M 215.07 38.93 C 213.21 37.07 210.63 36 208 36 C 205.37 36 202.79 37.069 200.93 38.93 C 199.07 40.79 198 43.37 198 46 C 198 48.63 199.07 51.21 200.93 53.069 C 202.79 54.93 205.37 56 208 56 C 210.63 56 213.21 54.93 215.07 53.069 C 216.93 51.21 218 48.63 218 46 C 218 43.37 216.93 40.79 215.07 38.93 Z"/></g></g><g><g><path fill="#ffffff" d="M 287 124.044 L 246 124.044 C 240.477 124.044 236 128.522 236 134.044 C 236 139.566 240.477 144.044 246 144.044 L 287 144.044 C 292.523 144.044 297 139.566 297 134.044 C 297 128.522 292.523 124.044 287 124.044 Z"/></g></g><g><g><path fill="#ffffff" d="M 368.766 124.044 L 327.849 124.044 C 322.326 124.044 317.849 128.522 317.849 134.044 C 317.849 139.566 322.326 144.044 327.849 144.044 L 368.766 144.044 C 374.289 144.044 378.766 139.566 378.766 134.044 C 378.766 128.522 374.289 124.044 368.766 124.044 Z"/></g></g><g><g><path fill="#ffffff" d="M 368.766 220.011 C 368.765 220.011 368.764 220.011 368.763 220.011 L 358.118 220.015 C 352.596 220.017 348.12 224.495 348.122 230.019 C 348.124 235.54 352.601 240.015 358.122 240.015 C 358.123 240.015 358.124 240.015 358.126 240.015 L 368.77 240.011 C 374.292 240.009 378.768 235.531 378.766 230.007 C 378.764 224.485 374.287 220.011 368.766 220.011 Z"/></g></g><g><g><path fill="#ffffff" d="M 322 220.036 C 321.999 220.036 321.997 220.036 321.995 220.036 L 283.346 220.057 C 277.823 220.06 273.348 224.539 273.351 230.062 C 273.354 235.583 277.83 240.057 283.351 240.057 C 283.352 240.057 283.354 240.057 283.356 240.057 L 322.005 240.036 C 327.528 240.033 332.003 235.554 332 230.031 C 331.997 224.51 327.521 220.036 322 220.036 Z"/></g></g><g><g><path fill="#ffffff" d="M 333 172.042 L 299.573 172.042 C 294.05 172.042 289.573 176.52 289.573 182.042 C 289.573 187.564 294.05 192.042 299.573 192.042 L 333 192.042 C 338.523 192.042 343 187.564 343 182.042 C 343 176.52 338.523 172.042 333 172.042 Z"/></g></g><g><g><path fill="#ffffff" d="M 375.84 174.97 C 373.97 173.109 371.4 172.04 368.77 172.04 C 366.13 172.04 363.56 173.109 361.69 174.97 C 359.83 176.83 358.77 179.41 358.77 182.04 C 358.77 184.67 359.83 187.25 361.69 189.109 C 363.56 190.979 366.13 192.04 368.77 192.04 C 371.4 192.04 373.97 190.979 375.84 189.109 C 377.7 187.25 378.77 184.67 378.77 182.04 C 378.77 179.41 377.7 176.83 375.84 174.97 Z"/></g></g><g><g><path fill="#ffffff" d="M 381.07 494.93 C 379.21 493.07 376.63 492 374 492 C 371.37 492 368.79 493.069 366.93 494.93 C 365.07 496.79 364 499.37 364 502 C 364 504.63 365.07 507.21 366.93 509.069 C 368.79 510.929 371.37 512 374 512 C 376.63 512 379.21 510.93 381.07 509.069 C 382.93 507.21 384 504.63 384 502 C 384 499.37 382.93 496.79 381.07 494.93 Z"/></g></g><g><g><path fill="#ffffff" d="M 456.75 286.5 L 430 286.5 L 430 42 C 430 18.841 411.159 0 388 0 L 124 0 C 100.841 0 82 18.841 82 42 L 82 164.072 C 34.18 181.761 0 227.818 0 281.71 C 0 350.843 56.244 407.086 125.376 407.086 C 173.233 407.086 214.907 380.129 236.029 340.607 C 236.021 340.989 236 341.367 236 341.75 L 236 456.75 C 236 487.215 260.785 512 291.25 512 L 337.977 512 C 343.5 512 347.977 507.522 347.977 502 C 347.977 496.478 343.5 492 337.977 492 L 291.25 492 C 271.813 492 256 476.187 256 456.75 L 256 341.75 C 256 322.313 271.813 306.5 291.25 306.5 L 308 306.5 C 313.523 306.5 318 302.022 318 296.5 L 318 285.307 L 341.753 304.309 C 343.526 305.728 345.73 306.5 348 306.5 L 456.75 306.5 C 476.187 306.5 492 322.313 492 341.75 L 492 456.75 C 492 476.187 476.187 492 456.75 492 L 416.049 492 C 410.526 492 406.049 496.478 406.049 502 C 406.049 507.522 410.526 512 416.049 512 L 456.75 512 C 487.215 512 512 487.215 512 456.75 L 512 341.75 C 512 311.285 487.215 286.5 456.75 286.5 M 219.718 219.576 C 216.584 222.71 215.887 227.533 218.005 231.427 C 226.344 246.753 230.752 264.141 230.752 281.71 C 230.752 339.814 183.481 387.086 125.376 387.086 C 67.271 387.086 20 339.814 20 281.71 C 20 223.605 67.271 176.333 125.376 176.333 C 149.795 176.333 173.596 184.876 192.395 200.388 C 194.187 201.867 196.437 202.675 198.76 202.675 L 236.62 202.675 L 219.718 219.576 M 410 286.5 L 351.508 286.5 L 314.247 256.691 C 311.245 254.291 307.133 253.822 303.668 255.487 C 300.204 257.152 298 260.656 298 264.5 L 298 286.5 L 291.25 286.5 C 273.823 286.5 258.265 294.619 248.131 307.263 C 249.847 299.01 250.752 290.464 250.752 281.71 C 250.752 263.344 246.698 245.135 238.975 228.605 L 267.833 199.747 C 270.693 196.887 271.549 192.586 270.001 188.849 C 268.453 185.113 264.807 182.676 260.762 182.676 L 202.268 182.676 C 180.366 165.664 153.205 156.334 125.376 156.334 C 117.388 156.334 109.576 157.094 102 158.529 L 102 92 L 410 92 L 410 286.5 M 410 72 L 102 72 L 102 42 C 102 29.869 111.869 20 124 20 L 388 20 C 400.131 20 410 29.869 410 42 L 410 72"/></g></g><g><g><path fill="#ffffff" d="M 310.023 367.25 C 304.5 367.25 300.023 371.728 300.023 377.25 L 300.023 389.25 L 288.101 389.25 L 288.101 377.25 C 288.101 371.728 283.624 367.25 278.101 367.25 C 272.578 367.25 268.101 371.728 268.101 377.25 L 268.101 421.25 C 268.101 426.772 272.578 431.25 278.101 431.25 C 283.624 431.25 288.101 426.772 288.101 421.25 L 288.101 409.25 L 300.023 409.25 L 300.023 421.25 C 300.023 426.772 304.5 431.25 310.023 431.25 C 315.546 431.25 320.023 426.772 320.023 421.25 L 320.023 377.25 C 320.023 371.728 315.546 367.25 310.023 367.25 Z"/></g></g><g><g><path fill="#ffffff" d="M 474.392 411.25 L 465.5 411.25 L 465.5 377.25 C 465.5 371.728 461.023 367.25 455.5 367.25 C 449.977 367.25 445.5 371.728 445.5 377.25 L 445.5 421.25 C 445.5 426.772 449.977 431.25 455.5 431.25 L 474.392 431.25 C 479.915 431.25 484.392 426.772 484.392 421.25 C 484.392 415.728 479.915 411.25 474.392 411.25 Z"/></g></g><g><g><path fill="#ffffff" d="M 364.07 367.25 L 337.977 367.25 C 332.454 367.25 327.977 371.728 327.977 377.25 C 327.977 382.772 332.454 387.25 337.977 387.25 L 341.023 387.25 L 341.023 421.25 C 341.023 426.772 345.5 431.25 351.023 431.25 C 356.546 431.25 361.023 426.772 361.023 421.25 L 361.023 387.25 L 364.07 387.25 C 369.593 387.25 374.07 382.772 374.07 377.25 C 374.07 371.728 369.593 367.25 364.07 367.25 Z"/></g></g><g><g><path fill="#ffffff" d="M 428.624 368.011 C 424.889 366.467 420.587 367.319 417.726 370.179 L 407.984 379.921 L 398.242 370.179 C 395.382 367.319 391.079 366.465 387.344 368.011 C 383.607 369.559 381.171 373.205 381.171 377.25 L 381.171 421.25 C 381.171 426.772 385.648 431.25 391.171 431.25 C 396.694 431.25 401.171 426.772 401.171 421.25 L 401.171 401.384 C 403.018 403.103 405.452 404.064 407.984 404.064 C 410.516 404.064 412.95 403.103 414.797 401.384 L 414.797 421.25 C 414.797 426.772 419.274 431.25 424.797 431.25 C 430.32 431.25 434.797 426.772 434.797 421.25 L 434.797 377.25 C 434.797 373.205 432.36 369.559 428.624 368.011 Z"/></g></g><g><g><path fill="#ffffff" d="M 85.203 293.426 C 78.741 299.887 68.229 299.887 61.769 293.426 C 58.639 290.296 56.915 286.135 56.915 281.709 C 56.915 277.282 58.639 273.122 61.769 269.992 C 64.899 266.862 69.06 265.14 73.486 265.14 C 77.912 265.14 82.073 266.864 85.203 269.994 C 89.108 273.898 95.441 273.899 99.345 269.994 C 103.25 266.089 103.251 259.757 99.345 255.851 C 92.438 248.944 83.254 245.14 73.486 245.14 C 63.718 245.14 54.534 248.944 47.627 255.851 C 40.719 262.758 36.916 271.942 36.916 281.71 C 36.916 291.478 40.72 300.661 47.627 307.569 C 54.756 314.698 64.121 318.262 73.486 318.262 C 82.851 318.262 92.215 314.698 99.345 307.569 C 103.25 303.664 103.251 297.332 99.345 293.426 C 95.441 289.523 89.108 289.523 85.203 293.426 Z"/></g></g><g><g><path fill="#ffffff" d="M 131.004 271.71 C 129.192 271.71 127.719 270.236 127.719 268.425 C 127.719 266.614 129.193 265.14 131.004 265.14 L 144.289 265.14 C 149.812 265.14 154.289 260.662 154.289 255.14 C 154.289 249.618 149.812 245.14 144.289 245.14 L 131.004 245.14 C 118.165 245.14 107.719 255.585 107.719 268.425 C 107.719 281.265 118.165 291.71 131.004 291.71 C 132.816 291.71 134.289 293.184 134.289 294.995 C 134.289 296.806 132.815 298.28 131.004 298.28 L 117.719 298.28 C 112.196 298.28 107.719 302.758 107.719 308.28 C 107.719 313.802 112.196 318.28 117.719 318.28 L 131.004 318.28 C 143.843 318.28 154.289 307.835 154.289 294.995 C 154.289 282.155 143.843 271.71 131.004 271.71 Z"/></g></g><g><g><path fill="#ffffff" d="M 184.675 271.71 C 182.863 271.71 181.39 270.236 181.39 268.425 C 181.39 266.614 182.864 265.14 184.675 265.14 L 197.96 265.14 C 203.483 265.14 207.96 260.662 207.96 255.14 C 207.96 249.618 203.483 245.14 197.96 245.14 L 184.675 245.14 C 171.836 245.14 161.39 255.585 161.39 268.425 C 161.39 281.265 171.836 291.71 184.675 291.71 C 186.487 291.71 187.96 293.184 187.96 294.995 C 187.96 296.806 186.486 298.28 184.675 298.28 L 171.39 298.28 C 165.867 298.28 161.39 302.758 161.39 308.28 C 161.39 313.802 165.867 318.28 171.39 318.28 L 184.675 318.28 C 197.514 318.28 207.96 307.835 207.96 294.995 C 207.96 282.155 197.514 271.71 184.675 271.71 Z"/></g></g><g/><g/><g/><g/><g/><g/><g/><g/><g/><g/><g/><g/><g/><g/><g/></svg>
