<?xml version="1.0" encoding="UTF-8" standalone="yes"?><svg class="icon" xmlns="http://www.w3.org/2000/svg" xmlns:xlink="http://www.w3.org/1999/xlink" version="1.2" baseProfile="tiny" x="0" y="0" width="200" height="200" viewBox="0 0 1024 1024"><defs/><path fill="#f2f2f2" d="M 424 738 L 158 738 L 158 316 L 711 316 L 711 474 C 711 490.6 724.4 504 741 504 C 757.6 504 771 490.6 771 474 L 771 306 C 771 278.4 748.6 256 721 256 L 148 256 C 120.4 256 98 278.4 98 306 L 98 748 C 98 775.6 120.4 798 148 798 L 424 798 C 440.6 798 454 784.6 454 768 C 454 751.4 440.6 738 424 738 Z"/><path fill="#f2f2f2" d="M 250.8 525.3 C 242.5 525.3 235.8 532 235.8 540.3 L 235.8 650.3 C 235.8 658.6 242.5 665.3 250.8 665.3 L 320.8 665.3 C 329.1 665.3 335.8 658.6 335.8 650.3 L 335.8 540.3 C 335.8 532 329.1 525.3 320.8 525.3 L 250.8 525.3 M 305.8 635.3 L 265.8 635.3 L 265.8 555.3 L 305.8 555.3 L 305.8 635.3 M 459.5 465.3 L 389.5 465.3 C 381.2 465.3 374.5 472 374.5 480.3 L 374.5 650.3 C 374.5 658.6 381.2 665.3 389.5 665.3 L 459.5 665.3 C 467.8 665.3 474.5 658.6 474.5 650.3 L 474.5 480.3 C 474.5 472 467.8 465.3 459.5 465.3 M 444.5 635.3 L 404.5 635.3 L 404.5 495.3 L 444.5 495.3 L 444.5 635.3 M 528.2 405.3 C 519.9 405.3 513.2 412 513.2 420.3 L 513.2 650.3 C 513.2 658.6 519.9 665.3 528.2 665.3 L 598.2 665.3 C 606.5 665.3 613.2 658.6 613.2 650.3 L 613.2 420.3 C 613.2 412 606.5 405.3 598.2 405.3 L 528.2 405.3 M 583.2 635.3 L 543.2 635.3 L 543.2 435.3 L 583.2 435.3 L 583.2 635.3"/><path fill="#f2f2f2" d="M 927 771.6 L 927 771.3 L 926.8 609.3 L 926.8 608.9 L 926.8 608.6 C 926.6 594 919.4 567.4 874.7 549.8 C 850 540.1 817.8 534.7 784 534.7 L 783.8 534.7 C 750 534.7 717.7 540.1 693 549.9 C 649.6 567 641.6 592.6 641 607.4 L 641 608.9 L 641.1 673.4 L 641.1 692.1 C 636.6 691.9 632.2 691.8 627.6 691.8 L 627.4 691.8 C 593.6 691.8 561.3 697.2 536.6 707 C 491.3 724.9 484.6 751.9 484.6 766.4 L 484.6 766.9 L 484.7 831.5 L 484.7 861.5 C 484.7 869.8 487.4 885.8 505.5 899.5 C 513.9 905.9 525.1 911.3 538.7 915.6 C 562.9 923.3 594.4 927.6 627.5 927.6 L 627.7 927.6 C 660.9 927.6 692.5 923.3 716.7 915.5 C 730.3 911.1 741.5 905.7 749.8 899.3 C 767.8 885.6 770.5 869.6 770.5 861.3 L 770.5 857.2 C 774.9 857.4 779.4 857.4 783.9 857.4 L 784.1 857.4 C 817.3 857.4 848.9 853.1 873.1 845.3 C 886.7 840.9 897.9 835.5 906.2 829.1 C 924.2 815.4 926.9 799.4 926.9 791.1 L 927 771.6 M 724.2 602.6 C 740.9 597.6 762.1 594.8 783.7 594.8 L 783.8 594.8 C 805.4 594.8 826.5 597.5 843.2 602.5 C 850.8 604.8 856.3 607.1 860.3 609.2 C 856.4 611.3 850.8 613.6 843.3 615.9 C 826.6 620.9 805.4 623.7 783.8 623.7 L 783.7 623.7 C 762.1 623.7 741 621 724.3 616 C 716.7 613.7 711.2 611.4 707.2 609.3 C 711.1 607.3 716.7 604.9 724.2 602.6 M 567.9 759.9 C 584.6 754.9 605.8 752.1 627.4 752.1 L 627.5 752.1 C 649.1 752.1 670.2 754.8 686.9 759.8 C 694.5 762.1 700 764.4 704 766.5 C 700.1 768.6 694.5 770.9 687 773.2 C 670.3 778.2 649.1 781 627.5 781 L 627.4 781 C 605.8 781 584.7 778.3 567.9 773.3 C 560.3 771 554.8 768.7 550.8 766.6 C 554.8 764.5 560.3 762.1 567.9 759.9 M 710.5 853.7 C 700.6 859 672.8 867.8 627.6 867.8 L 627.4 867.8 C 582.3 867.8 554.6 859 544.7 853.8 L 544.7 828.8 C 568.2 836.7 597.1 841 627.4 841 L 627.6 841 C 658 841 687 836.6 710.6 828.7 L 710.6 831.7 L 710.5 853.7 M 701 695.7 L 701 671.6 C 724.5 679.5 753.5 683.8 783.7 683.8 L 783.9 683.8 C 814.2 683.8 843.3 679.4 866.8 671.5 L 866.8 695.7 C 856.9 701 829.1 709.8 783.9 709.8 L 783.7 709.8 C 738.7 709.7 710.9 701 701 695.7 M 784.1 797.7 L 783.9 797.7 C 779.2 797.7 774.8 797.6 770.4 797.4 L 770.3 769.5 C 774.7 769.7 779.2 769.7 783.7 769.7 L 783.9 769.7 C 814.4 769.7 843.5 766 866.8 759.4 L 866.8 783.5 C 857.1 788.8 829.3 797.6 784.1 797.7"/></svg>
