<?xml version="1.0" encoding="UTF-8" standalone="yes"?><svg id="图层_1" xmlns="http://www.w3.org/2000/svg" xmlns:xlink="http://www.w3.org/1999/xlink" version="1.2" baseProfile="tiny" x="0" y="0" width="256" height="256" viewBox="0 0 256 256"><defs/><defs/><g transform="matrix(0.275269,0,0,0.275269,-12.9375,-12.9376)"><g id="Layer_1"><path fill="#ffffff" fill-opacity="1" d="M 701.421 232.247 C 701.206 231.819 701.035 231.389 700.821 230.962 C 700.22 229.444 699.366 228.04 698.294 226.808 L 698.079 226.808 L 522.64 51.154 L 522.469 51.154 C 521.417 49.9496 520.031 49.085 518.487 48.67 C 518.059 48.67 517.631 48.242 517.245 48.242 C 516.042 47.7593 514.771 47.4698 513.478 47.384 C 513.263 47.384 512.835 47 512.62 47 L 62.65 47 C 58.9036 47.0141 55.3179 48.5235 52.6892 51.1929 C 50.0606 53.8624 48.6065 57.4708 48.65 61.217 L 48.65 962.785 C 48.6071 966.531 50.0614 970.139 52.69 972.808 C 55.3186 975.477 58.904 976.986 62.65 977 L 688.274 977 C 692.02 976.986 695.605 975.476 698.234 972.807 C 700.862 970.139 702.317 966.531 702.274 962.785 L 702.274 236.828 C 702.274 236.401 702.061 236.401 702.061 236.014 C 702.061 234.731 701.844 233.458 701.421 232.247 M 654.188 222.611 L 526.622 222.611 L 526.622 95.088 L 654.188 222.611 M 674.057 948.568 L 76.867 948.568 L 76.867 75.434 L 498.618 75.434 L 498.618 236.828 C 498.661 244.578 504.87 250.883 512.618 251.045 L 674.057 251.045 L 674.057 948.568"/><path fill="#ffffff" fill-opacity="1" d="M 900.5 143.991 L 885.427 136.455 L 885.427 75.819 C 885.571 70.4784 882.548 65.5567 877.719 63.271 L 867.871 58.262 C 851.929 50.3389 833.197 50.3389 817.255 58.262 L 807.448 63.271 C 802.609 65.5517 799.571 70.4713 799.698 75.819 L 799.698 136.455 L 781.927 145.661 C 777.413 148.228 774.619 153.015 774.604 158.208 L 774.604 810.6 C 774.574 812.011 774.791 813.417 775.246 814.753 C 775.461 815.181 775.246 815.181 775.461 815.181 L 829.416 967.797 C 831.431 973.321 836.682 976.997 842.562 977 C 848.504 977.003 853.833 973.342 855.962 967.794 L 909.702 815.178 C 909.874 815.178 909.874 815.178 909.874 814.75 C 910.328 813.414 910.546 812.008 910.516 810.597 L 910.516 174.523 C 931.627 180.817 947.299 200.045 947.299 223.039 L 947.299 470.164 C 947.239 475.215 949.899 479.907 954.263 482.45 C 958.627 484.993 964.021 484.993 968.385 482.45 C 972.749 479.907 975.409 475.215 975.349 470.164 L 975.349 223.039 C 975.352 180.817 942.078 146.518 900.5 143.991 M 802.651 787.172 L 802.651 595.63 L 829.2 581.415 C 837.628 577.218 847.537 577.218 855.965 581.415 L 882.515 595.63 L 882.515 787.172 L 869.115 780.063 C 852.612 770.857 832.518 770.857 816.015 780.063 L 802.651 787.172 M 869.11 556.75 C 852.499 547.969 832.621 547.969 816.01 556.75 L 802.649 563.857 L 802.649 166.6 L 829.2 152.341 C 837.534 147.76 847.631 147.76 855.965 152.341 L 882.515 166.6 L 882.515 563.857 L 869.11 556.75 M 829.8 83.355 C 837.89 79.588 847.232 79.588 855.322 83.355 L 857.207 84.597 L 857.207 123.097 C 847.661 120.183 837.463 120.183 827.917 123.097 L 827.917 84.6 L 829.8 83.355 M 842.562 920.561 L 805.992 817.276 L 829.2 804.73 C 837.523 800.106 847.642 800.106 855.965 804.73 L 879.173 817.276 L 842.562 920.561"/><path fill="#ffffff" fill-opacity="1" d="M 586.874 391.543 L 164.051 391.543 C 156.343 391.543 150.051 398.266 150.051 405.761 L 150.051 726.538 C 150.015 730.282 151.472 733.885 154.099 736.553 C 156.726 739.22 160.307 740.732 164.051 740.753 L 586.874 740.753 C 590.618 740.732 594.199 739.22 596.826 736.553 C 599.453 733.885 600.91 730.282 600.874 726.538 L 600.874 405.761 C 600.876 398.266 594.582 391.543 586.874 391.543 M 178.268 501.981 L 266.1 501.981 L 266.1 591.863 L 178.268 591.863 L 178.268 501.981 M 294.144 501.981 L 572.613 501.981 L 572.613 591.863 L 294.144 591.863 L 294.144 501.981 M 572.613 473.933 L 294.144 473.933 L 294.144 419.976 L 572.613 419.976 L 572.613 473.933 M 266.1 419.976 L 266.1 473.933 L 178.268 473.933 L 178.268 419.976 L 266.1 419.976 M 178.268 712.321 L 178.268 622.4 L 266.1 622.4 L 266.1 712.326 L 178.268 712.321 M 572.613 712.321 L 294.144 712.321 L 294.144 622.4 L 572.613 622.4 L 572.613 712.321"/><path fill="#ffffff" fill-opacity="1" d="M 150.049 321.315 C 150.013 325.059 151.469 328.663 154.096 331.331 C 156.723 333.999 160.305 335.511 164.049 335.532 L 586.874 335.532 C 590.618 335.511 594.2 333.999 596.827 331.331 C 599.454 328.663 600.91 325.059 600.874 321.315 C 600.813 313.573 594.614 307.278 586.874 307.098 L 164.051 307.098 C 156.31 307.277 150.11 313.572 150.049 321.315 Z"/><path fill="#ffffff" fill-opacity="1" d="M 348.914 796.764 L 164.051 796.764 C 156.292 796.894 150.07 803.221 150.07 810.981 C 150.07 818.741 156.292 825.068 164.051 825.198 L 348.914 825.198 C 356.673 825.068 362.895 818.741 362.895 810.981 C 362.895 803.221 356.673 796.894 348.914 796.764 Z"/><path fill="#ffffff" fill-opacity="1" d="M 586.874 796.764 L 514.717 796.764 C 506.958 796.894 500.736 803.221 500.736 810.981 C 500.736 818.741 506.958 825.068 514.717 825.198 L 586.874 825.198 C 594.633 825.068 600.855 818.741 600.855 810.981 C 600.855 803.221 594.633 796.894 586.874 796.764 Z"/><path fill="#ffffff" fill-opacity="1" d="M 164.051 251.045 L 417.685 251.045 C 425.432 250.88 431.639 244.577 431.685 236.828 C 431.728 233.082 430.274 229.474 427.645 226.805 C 425.017 224.135 421.431 222.626 417.685 222.611 L 164.051 222.611 C 160.307 222.633 156.726 224.144 154.099 226.812 C 151.472 229.48 150.015 233.084 150.051 236.828 C 150.112 244.571 156.31 250.865 164.051 251.045 Z"/></g></g></svg>
