<?xml version="1.0" encoding="UTF-8" standalone="yes"?><svg id="图层_1" xmlns="http://www.w3.org/2000/svg" xmlns:xlink="http://www.w3.org/1999/xlink" version="1.2" baseProfile="tiny" x="0" y="0" width="256" height="256" viewBox="0 0 256 256"><defs/><defs/><g transform="matrix(0.275268,0,0,0.275268,-12.9347,-12.937)"><g id="Layer_1"><path fill="#ffffff" fill-opacity="1" d="M 973.516 131.016 C 970.74 128.091 966.885 126.435 962.853 126.434 L 784.93 126.434 L 793.709 62.887 C 794.089 58.9615 792.887 55.0465 790.369 52.011 C 787.746 48.8258 783.832 46.9864 779.706 47 L 244.222 47 C 240.143 46.9264 236.27 48.7842 233.774 52.011 C 231.06 54.9383 229.816 58.9366 230.391 62.887 L 239 126.434 L 61.031 126.434 C 57.0025 126.451 53.1541 128.105 50.369 131.016 C 47.72 134.144 46.5769 138.276 47.242 142.321 L 75.077 330.521 C 91.563 442.156 185.855 527.071 297.321 533.751 C 318.657 606.452 375.176 663.516 447.668 685.551 C 447.24 781.727 375.514 827.288 360.482 835.682 L 357.1 835.682 C 318.119 835.781 286.543 867.357 286.445 906.338 L 286.445 962.777 C 286.588 970.569 292.869 976.853 300.661 977 L 723.224 977 C 731.014 976.854 737.295 970.573 737.441 962.783 L 737.441 906.344 C 737.442 867.405 705.939 835.805 667 835.688 L 663.446 835.688 C 649.229 827.724 576.86 781.305 576.261 685.557 C 648.733 663.505 705.229 606.444 726.561 533.757 C 838.025 527.077 932.319 442.157 948.848 330.527 L 976.848 142.327 C 977.251 138.267 976.056 134.209 973.516 131.016 M 102.869 326.326 L 77.346 154.439 L 242.765 154.439 L 290.213 501.552 C 290.326 502.823 290.54 504.083 290.855 505.319 C 196.134 495.256 117.084 422.074 102.869 326.326 M 709.222 906.344 L 709.222 948.566 L 314.663 948.566 L 314.663 906.344 C 314.857 883.022 333.778 864.197 357.1 864.122 L 667 864.122 C 690.255 864.274 709.07 883.089 709.222 906.344 M 615.955 835.688 L 407.928 835.688 C 437.389 809.738 473.36 762.888 475.672 691.808 C 499.647 696.26 524.238 696.26 548.213 691.808 C 550.525 762.891 586.5 809.738 615.955 835.688 M 511.855 666.715 C 475.884 666.715 434.475 603.98 427.581 498.597 L 407.5 188.74 C 407.373 185.011 405.709 181.501 402.902 179.043 C 400.096 176.585 396.397 175.398 392.684 175.764 C 388.904 175.926 385.355 177.629 382.864 180.477 C 380.373 183.325 379.157 187.069 379.5 190.837 L 399.364 500.31 C 403.733 565.955 421.502 620.724 447.025 655.453 C 379.708 631.6 328.066 571.778 318 497.783 L 260.536 75.434 L 763.605 75.434 L 705.88 497.783 C 692.692 593.959 609.276 666.715 511.858 666.715 L 511.855 666.715 M 921.016 326.326 C 906.8 422.074 827.8 495.685 733.073 505.319 C 733.288 504.036 733.673 502.794 733.887 501.552 L 781.161 154.439 L 946.539 154.439 L 921.016 326.326"/></g></g></svg>
