<?xml version="1.0" encoding="UTF-8" standalone="yes"?><svg id="图层_1" xmlns="http://www.w3.org/2000/svg" xmlns:xlink="http://www.w3.org/1999/xlink" version="1.2" baseProfile="tiny" x="0" y="0" width="256" height="256" viewBox="0 0 256 256"><defs/><defs/><g transform="matrix(0.275269,0,0,0.275269,-12.937,-12.9376)"><g id="Layer_1"><path fill="#000000" fill-opacity="1" d="M 755.077 231.819 C 755.142 231.36 754.982 230.898 754.647 230.577 C 753.977 229.032 753.051 227.612 751.907 226.377 L 576.511 51.154 C 575.245 50.003 573.833 49.0239 572.311 48.242 C 571.884 48.242 571.454 47.814 571.069 47.814 C 569.864 47.3433 568.592 47.0685 567.3 47 L 74.255 47 C 70.5064 47.0071 66.9166 48.5143 64.2864 51.1853 C 61.6563 53.8562 60.2045 57.4688 60.255 61.217 L 60.255 962.783 C 60.3014 970.531 66.5082 976.834 74.255 977 L 742.1 977 C 749.84 976.82 756.039 970.525 756.1 962.783 L 756.1 236.4 C 755.968 236.148 755.895 235.87 755.885 235.586 C 755.905 234.285 755.629 232.997 755.077 231.819 M 708.016 222.611 L 580.45 222.611 L 580.45 95.088 L 708.016 222.611 M 727.885 948.566 L 88.473 948.566 L 88.473 75.005 L 552.445 75.005 L 552.445 236.4 C 552.402 240.146 553.856 243.754 556.485 246.423 C 559.113 249.093 562.699 250.602 566.445 250.617 L 727.885 250.617 L 727.885 948.566"/><path fill="#000000" fill-opacity="1" d="M 941.136 141.079 L 941.136 85.025 C 941.036 63.9834 923.942 46.9832 902.9 47 L 880.715 47 C 859.672 46.981 842.575 63.9819 842.475 85.025 L 842.475 141.079 C 842.048 141.507 841.405 141.893 840.975 142.321 C 827.335 155.77 819.72 174.167 819.864 193.321 L 819.864 762.891 C 819.864 781.733 837.634 891.269 877.801 913.023 L 877.801 962.783 C 877.844 970.533 884.053 976.838 891.801 977 C 899.591 976.854 905.872 970.573 906.018 962.783 L 906.018 913.023 C 945.97 891.269 963.742 781.733 963.742 762.891 L 963.742 193.321 C 963.747 172.853 954.925 154.439 941.136 141.079 M 848.086 762.891 L 848.086 400.749 L 935.486 400.749 L 935.486 762.891 C 935.486 763.319 935.315 764.177 935.315 764.991 L 848.3 764.991 C 848.3 764.177 848.086 763.319 848.086 762.891 M 848.086 193.321 C 848.109 169.157 867.642 149.547 891.806 149.43 C 915.972 149.526 935.506 169.155 935.484 193.321 L 935.484 372.316 L 848.084 372.316 L 848.086 193.321 M 870.7 85.025 C 870.696 82.3664 871.751 79.8156 873.631 77.9357 C 875.511 76.0558 878.061 75.0013 880.72 75.005 L 902.9 75.005 C 905.559 75.0013 908.109 76.0558 909.989 77.9357 C 911.869 79.8156 912.924 82.3664 912.92 85.025 L 912.92 124.764 C 906.094 122.583 898.976 121.457 891.81 121.423 C 884.645 121.473 877.529 122.6 870.699 124.764 L 870.7 85.025 M 891.811 888.788 C 880.505 888.788 859.822 835.645 851.645 792.995 L 931.935 792.995 C 923.794 835.645 903.111 888.788 891.806 888.788 L 891.811 888.788"/><path fill="#000000" fill-opacity="1" d="M 211.841 194.178 L 424.921 194.178 C 432.655 194.178 438.924 187.909 438.924 180.175 C 438.924 172.441 432.655 166.172 424.921 166.172 L 211.841 166.172 C 204.107 166.172 197.838 172.441 197.838 180.175 C 197.838 187.909 204.107 194.178 211.841 194.178 Z"/><path fill="#000000" fill-opacity="1" d="M 352.767 307.1 C 352.812 314.849 359.02 321.153 366.767 321.318 L 608.067 321.318 C 615.815 321.156 622.024 314.85 622.067 307.1 C 622.117 303.352 620.665 299.74 618.035 297.069 C 615.405 294.399 611.815 292.892 608.067 292.885 L 366.767 292.885 C 363.019 292.892 359.429 294.399 356.799 297.07 C 354.169 299.74 352.717 303.352 352.767 307.1 Z"/><path fill="#000000" fill-opacity="1" d="M 211.841 448.025 L 565.848 448.025 C 573.607 447.895 579.829 441.568 579.829 433.808 C 579.829 426.048 573.607 419.721 565.848 419.591 L 211.841 419.591 C 204.082 419.721 197.86 426.048 197.86 433.808 C 197.86 441.568 204.082 447.895 211.841 448.025 Z"/><path fill="#000000" fill-opacity="1" d="M 608.07 546.3 L 366.77 546.3 C 359.023 546.466 352.816 552.769 352.77 560.517 C 352.727 564.263 354.181 567.871 356.81 570.54 C 359.438 573.21 363.024 574.719 366.77 574.734 L 608.07 574.734 C 611.816 574.72 615.402 573.21 618.031 570.541 C 620.659 567.872 622.113 564.263 622.07 560.517 C 622.027 552.767 615.818 546.462 608.07 546.3 Z"/><path fill="#000000" fill-opacity="1" d="M 211.841 701.442 L 495.364 701.442 C 503.109 701.442 509.388 695.163 509.388 687.418 C 509.388 679.673 503.109 673.394 495.364 673.394 L 211.841 673.394 C 204.096 673.394 197.817 679.673 197.817 687.418 C 197.817 695.163 204.096 701.442 211.841 701.442 Z"/><path fill="#000000" fill-opacity="1" d="M 608.07 800.1 L 366.77 800.1 C 359.025 800.1 352.746 806.379 352.746 814.124 C 352.746 821.869 359.025 828.148 366.77 828.148 L 608.07 828.148 C 615.815 828.148 622.094 821.869 622.094 814.124 C 622.094 806.379 615.815 800.1 608.07 800.1 Z"/><path fill="#000000" fill-opacity="1" d="M 211.841 363.536 L 296.328 363.536 C 300.108 363.567 303.742 362.08 306.415 359.407 C 309.088 356.735 310.576 353.101 310.545 349.321 L 310.545 264.448 C 310.425 256.708 304.068 250.524 296.328 250.617 L 211.841 250.617 C 204.168 250.601 197.918 256.776 197.841 264.448 L 197.841 349.321 C 197.791 353.069 199.243 356.681 201.873 359.352 C 204.503 362.022 208.093 363.529 211.841 363.536 M 226.059 278.665 L 282.283 278.665 L 282.283 335.1 L 226.059 335.1 L 226.059 278.665"/><path fill="#000000" fill-opacity="1" d="M 211.841 616.955 L 296.328 616.955 C 300.108 616.986 303.743 615.499 306.416 612.826 C 309.089 610.153 310.576 606.518 310.545 602.738 L 310.545 518.251 C 310.545 510.33 304.251 504.464 296.328 504.464 L 211.841 504.464 C 208.14 504.381 204.563 505.799 201.925 508.397 C 199.288 510.994 197.814 514.549 197.841 518.251 L 197.841 602.738 C 197.79 606.486 199.242 610.099 201.872 612.77 C 204.502 615.441 208.092 616.948 211.841 616.955 M 226.059 532.468 L 282.283 532.468 L 282.283 588.95 L 226.059 588.95 L 226.059 532.468"/><path fill="#000000" fill-opacity="1" d="M 296.328 757.88 L 211.841 757.88 C 208.095 757.895 204.509 759.404 201.881 762.074 C 199.252 764.743 197.798 768.351 197.841 772.097 L 197.841 856.584 C 197.884 864.334 204.093 870.639 211.841 870.801 L 296.328 870.801 C 304.144 870.715 310.459 864.4 310.545 856.584 L 310.545 772.1 C 310.569 768.322 309.079 764.691 306.408 762.019 C 303.737 759.347 300.106 757.856 296.328 757.88 M 282.283 842.369 L 226.059 842.369 L 226.059 786.315 L 282.283 786.315 L 282.283 842.369"/></g></g></svg>
