<?xml version="1.0" encoding="UTF-8" standalone="yes"?><svg id="图层_1" xmlns="http://www.w3.org/2000/svg" xmlns:xlink="http://www.w3.org/1999/xlink" version="1.2" baseProfile="tiny" x="0" y="0" width="256" height="256" viewBox="0 0 256 256"><defs/><defs/><g transform="matrix(0.27527,0,0,0.27527,-12.9384,-12.9376)"><g id="Layer_1"><path fill="#000000" fill-opacity="1" d="M 881.577 540.532 L 902.517 519.632 C 1001.83 420.494 1001.83 258.659 902.517 159.562 C 804.617 61.662 648.653 57.084 545.146 145.302 C 543.535 146.059 542.049 147.056 540.736 148.258 L 529.859 159.134 C 529.859 159.134 529.645 159.134 529.645 159.562 L 515.045 174.162 L 494.317 153.262 C 391.45 50.4 224.39 50.4 121.7 153.269 L 121.486 153.269 C 22.175 252.794 22.175 414.242 121.486 513.769 L 148.465 540.534 L 140.928 548.07 C 124.965 564.006 116.996 586.264 119.216 608.71 C 121.273 631.28 133.435 651.365 152.449 664.341 C 162.547 670.996 174.085 675.15 186.108 676.459 C 160.585 702.796 156.432 742.966 176.087 772.215 C 188.672 790.981 209.009 803.114 231.5 805.274 C 238.052 805.732 244.632 805.589 251.157 804.846 C 250.374 809.399 250.016 814.015 250.086 818.635 C 250.628 839.441 259.702 859.109 275.181 873.023 C 300.491 895.591 339.588 897.26 368.667 878.033 C 369.388 894.731 375.812 910.678 386.867 923.213 C 400.697 938.603 420.311 947.54 441 947.879 L 442.883 947.879 C 462.84 947.998 482.024 940.171 496.2 926.124 L 515.855 906.469 C 529.855 916.918 546.389 922.785 562.92 922.785 C 577.459 922.776 591.661 918.405 603.689 910.236 C 622.271 897.777 634.366 877.714 636.707 855.464 C 663.3 880.945 703.214 885.142 732.291 865.484 C 751.098 852.814 763.281 832.422 765.524 809.856 C 766.166 803.448 765.964 796.983 764.924 790.628 C 769.507 791.056 774.089 791.441 779.142 791.441 C 799.866 791.122 819.474 781.994 833.059 766.341 C 856.269 740.86 857.767 702.789 838.926 673.497 C 858.247 672.188 876.276 663.327 889.116 648.83 C 915.882 619.154 913.569 572.73 883.891 543.054 L 881.577 540.532 M 882.432 179.178 C 970.866 267.868 970.866 411.717 882.432 499.978 L 861.706 520.878 L 633.794 292.535 L 649.894 276.219 C 655.548 271.209 655.548 262.001 649.894 256.563 C 644.387 251.124 635.531 251.124 630.024 256.563 L 504.978 381.611 C 493.126 393.357 476.636 399.18 460.036 397.48 C 443.436 395.78 428.469 386.737 419.243 372.832 C 404.643 351.505 408.579 320.543 428.235 300.886 L 549.943 179.178 C 641.759 87.62 790.831 87.62 882.432 179.178 M 168.119 640.912 C 156.001 632.52 148.462 620.399 147.219 606.183 C 145.755 592.106 150.746 578.123 160.792 568.154 L 168.544 560.617 L 235.223 627.508 L 228.756 633.808 C 211.844 650.121 186.105 653.033 168.119 640.912 M 272.269 763.862 C 262.1 773.598 248.223 778.469 234.2 777.224 C 220.097 775.784 207.375 768.119 199.511 756.324 C 187.136 737.911 190.519 711.572 207.221 695.256 L 248.421 653.846 C 248.677 653.61 248.893 653.336 249.063 653.032 L 255.102 647.165 L 321.822 714.099 L 272.269 763.862 M 391.45 817.821 L 361.343 847.927 C 342.5 866.727 312.181 868.396 294.024 852.081 C 284.253 843.504 278.547 831.207 278.308 818.207 C 277.942 805.233 282.946 792.682 292.139 783.519 L 341.688 733.756 L 408.365 800.649 L 392.092 816.965 C 391.877 817.393 391.664 817.393 391.45 817.821 M 441.641 919.83 C 428.713 919.513 416.475 913.928 407.765 904.369 C 391.45 885.956 393.119 856.278 411.535 837.478 L 428.45 820.734 L 495.17 887.239 L 476.329 906.039 C 467.199 915.278 454.622 920.278 441.641 919.83 M 868.216 630.036 C 859.638 639.83 847.356 645.591 834.341 645.924 C 821.152 645.924 808.818 641.342 799.61 632.133 C 799.61 631.705 799.397 631.705 799.397 631.705 L 615.807 448.118 C 610.252 442.69 601.356 442.766 595.894 448.287 C 590.431 453.808 590.45 462.704 595.937 468.201 L 779.737 651.791 L 807.959 680.227 C 826.802 699.027 828.686 729.127 812.159 747.546 C 803.38 757.183 791.474 763.006 778.285 763.006 C 765.431 763.495 752.944 758.661 743.769 749.644 L 743.769 749.216 L 529.045 534.665 C 523.538 529.227 514.682 529.227 509.175 534.665 C 503.735 540.255 503.735 549.16 509.175 554.75 L 723.726 769.3 L 723.939 769.3 C 733.839 779.351 738.738 793.295 737.3 807.329 C 736.058 821.547 728.734 833.709 716.4 842.06 C 698.415 854.18 672.076 850.839 655.547 834.523 L 616.447 795.638 C 616.126 795.018 615.707 794.454 615.205 793.968 L 615 793.968 L 442.453 621.685 C 439.91 618.883 436.302 617.285 432.518 617.285 C 428.734 617.285 425.126 618.883 422.583 621.685 C 419.926 624.265 418.427 627.81 418.427 631.513 C 418.427 635.217 419.926 638.762 422.583 641.342 L 595.122 814.053 L 595.337 814.053 C 605.209 824.132 610.17 838.029 608.913 852.081 C 607.456 866.299 599.919 878.461 587.8 886.812 C 569.813 898.932 543.476 895.591 526.946 879.275 L 141.355 493.682 C 53.136 405.463 53.136 261.573 141.355 173.354 L 141.568 173.354 C 185.681 129.158 245.562 104.322 308.006 104.322 C 370.45 104.322 430.331 129.158 474.444 173.354 L 495.17 194.254 L 408.193 280.844 C 378.693 310.522 373.464 355.702 395.818 388.72 C 410.249 409.62 432.647 423.449 457.742 425.505 C 460.367 425.861 463.017 426.004 465.665 425.933 C 487.956 425.928 509.328 417.053 525.065 401.266 L 613.711 312.62 L 864.021 562.72 C 882.862 581.516 884.7 611.62 868.216 630.036"/><path fill="#000000" fill-opacity="1" d="M 405.025 203.888 C 410.453 198.401 410.404 189.553 404.918 184.125 C 399.431 178.698 390.583 178.746 385.155 184.233 C 382.543 186.837 381.075 190.373 381.075 194.06 C 381.075 197.748 382.543 201.284 385.155 203.888 C 390.662 209.327 399.518 209.327 405.025 203.888 Z"/><path fill="#000000" fill-opacity="1" d="M 871.984 430.13 C 877.528 424.584 877.527 415.594 871.981 410.05 C 866.436 404.505 857.446 404.505 851.901 410.05 C 846.355 415.594 846.354 424.584 851.898 430.13 C 857.488 435.57 866.394 435.57 871.984 430.13 Z"/></g></g></svg>
