<svg viewBox="0 0 75.87 72.53" xmlns="http://www.w3.org/2000/svg" xmlns:xlink="http://www.w3.org/1999/xlink" id="_图层_1" overflow="hidden"><defs></defs><path d="M75.37 15.55 15.55 0.5 0.5 60.31 47.05 72.03 63.71 61.87 75.37 15.55Z" stroke="#000000" stroke-linecap="round" stroke-linejoin="round" fill="#435BE1"/><rect x="17.67" y="12.47" width="52.93" height="5.02" stroke="#000000" stroke-miterlimit="10" fill="#FFFFFF" transform="matrix(0.968366 0.249535 -0.249535 0.968366 5.13 -10.54)"/><rect x="15.35" y="21.48" width="52.93" height="5.02" stroke="#000000" stroke-miterlimit="10" fill="#FFFFFF" transform="matrix(0.968366 0.249535 -0.249535 0.968366 7.31 -9.67)"/><rect x="13.03" y="30.48" width="52.93" height="5.02" stroke="#000000" stroke-miterlimit="10" fill="#FFFFFF" transform="matrix(0.968366 0.249535 -0.249535 0.968366 9.48 -8.81)"/><rect x="10.71" y="39.49" width="52.93" height="5.02" stroke="#000000" stroke-miterlimit="10" fill="#FFFFFF" transform="matrix(0.968366 0.249535 -0.249535 0.968366 11.66 -7.95)"/><rect x="8.39" y="48.49" width="52.93" height="5.02" stroke="#000000" stroke-miterlimit="10" fill="#FFFFFF" transform="matrix(0.968366 0.249535 -0.249535 0.968366 13.83 -7.08)"/><rect x="6.16" y="56.76" width="46.95" height="5.02" stroke="#000000" stroke-miterlimit="10" fill="#FFFFFF" transform="matrix(0.968366 0.249535 -0.249535 0.968366 15.73 -5.52)"/><path d="M63.65 62.1 46.82 71.97 50.15 58.7 63.65 62.1Z" stroke="#000000" stroke-linecap="round" stroke-linejoin="round" fill="#435BE1"/></svg>