<svg viewBox="0 0 45.19 45.19" xmlns="http://www.w3.org/2000/svg" xmlns:xlink="http://www.w3.org/1999/xlink" id="OBJECTS" overflow="hidden"><defs></defs><circle cx="22.59" cy="22.59" r="22.59" fill="#040504" transform="matrix(0.15902 -0.987275 0.987275 0.15902 -3.31 41.31)"/><g><g><line x1="11.85" y1="11.24" x2="33.34" y2="33.95" fill="#040504"/><path d="M33.46 35.22C33.08 35.26 32.69 35.12 32.41 34.82L10.91 12.13C10.42 11.61 10.45 10.8 10.96 10.32 11.48 9.83 12.29 9.85 12.78 10.37L34.28 33.07C34.77 33.59 34.74 34.4 34.23 34.89 34.01 35.09 33.74 35.21 33.47 35.24Z" fill="#FFFFFF"/></g><g><line x1="33.95" y1="11.85" x2="11.24" y2="33.34" fill="#040504"/><path d="M9.96 33.46C9.92 33.08 10.06 32.69 10.36 32.41L33.06 10.91C33.58 10.42 34.39 10.45 34.87 10.96 35.36 11.48 35.34 12.29 34.82 12.78L12.13 34.28C11.61 34.77 10.8 34.74 10.31 34.23 10.11 34.01 9.99 33.74 9.96 33.47Z" fill="#FFFFFF"/></g></g></svg>