<?xml version="1.0" encoding="UTF-8" standalone="yes"?><svg id="图层_1" xmlns="http://www.w3.org/2000/svg" xmlns:xlink="http://www.w3.org/1999/xlink" version="1.2" baseProfile="tiny" x="0" y="0" width="256" height="256" viewBox="0 0 256 256"><defs/><defs/><g transform="matrix(0.275269,0,0,0.275269,-12.9376,-12.9375)"><g id="Layer_1"><path fill="#ffffff" fill-opacity="1" d="M 906.5 67.173 L 892.926 67.173 C 854.251 67.173 822.643 98.996 822.643 137.886 L 822.643 138.27 C 615.22 317.3 429.9 329.846 380.985 329.418 L 380.985 295.541 C 380.847 287.814 374.492 281.651 366.765 281.749 L 159.729 281.749 C 97.625 281.749 47 332.374 47 394.691 L 47 513.029 C 47 574.96 97.625 625.541 159.729 625.541 L 178.744 625.541 L 178.744 893.226 C 178.694 928.289 207.068 956.759 242.131 956.826 L 254.038 956.826 C 289.095 956.744 317.461 928.283 317.426 893.226 L 317.426 842.645 L 399.574 842.645 C 404.696 842.53 409.375 839.715 411.875 835.243 C 414.375 830.771 414.322 825.31 411.737 820.887 L 317.426 667.814 L 317.426 625.541 L 366.765 625.541 C 370.546 625.573 374.182 624.086 376.856 621.412 C 379.53 618.738 381.017 615.102 380.985 611.321 L 380.985 578.3 C 429.896 577.872 614.578 589.994 822.643 769.876 C 822.931 808.496 854.305 839.66 892.926 839.689 L 906.5 839.689 C 925.168 839.74 943.091 832.364 956.315 819.188 C 969.54 806.011 976.982 788.116 977 769.448 L 977 137.886 C 977 99 945.435 67.173 906.5 67.173 M 822.643 175.1 L 822.643 348.264 C 615.82 402.229 431.4 405.955 380.985 405.955 L 380.985 357.855 C 433.879 358.286 614.578 346.594 822.643 175.1 M 374.518 814.2 L 317.426 814.2 L 317.426 721.779 L 374.518 814.2 M 289.158 671.963 L 289.158 893.226 C 289.229 902.605 285.566 911.628 278.978 918.304 C 272.39 924.98 263.417 928.763 254.038 928.817 L 242.131 928.817 C 222.901 928.817 206.968 912.884 206.968 893.226 L 206.968 625.541 L 289.158 625.541 L 289.158 671.963 M 352.758 597.526 L 159.729 597.526 C 113.101 597.429 75.3264 559.654 75.229 513.026 L 75.229 394.691 C 75.229 347.836 113.091 309.759 159.729 309.759 L 352.76 309.759 L 352.76 597.531 L 352.758 597.526 M 380.983 549.857 L 380.983 434.436 L 381.411 434.436 C 433.664 434.436 616.673 430.236 822.641 377.516 L 822.641 732.616 C 614.578 561.17 433.879 549.434 380.985 549.862 L 380.983 549.857 M 948.773 769.443 C 948.799 780.658 944.352 791.421 936.418 799.348 C 928.483 807.274 917.716 811.71 906.501 811.673 L 892.926 811.673 C 869.604 811.671 850.698 792.765 850.696 769.443 L 850.696 137.886 C 850.694 114.555 869.595 95.6351 892.926 95.613 L 906.5 95.613 C 917.72 95.5856 928.488 100.031 936.421 107.964 C 944.355 115.898 948.8 126.666 948.772 137.886 L 948.773 769.443"/></g></g></svg>
