<svg viewBox="0 0 453.2 611.22" xmlns="http://www.w3.org/2000/svg" xmlns:xlink="http://www.w3.org/1999/xlink" id="_图层_1" overflow="hidden"><defs></defs><g><path d="M347.04 167.15C320.51 142.7 294.35 121.63 267.46 93.82 258.09 83.78 247.81 79.09 237.24 78.14L231.89 13.71 325.23 13.08C343.85 24.38 360.25 40.29 375.6 73.59 383.45 90.61 379.91 121.55 387.32 139.82 397.01 163.7 414.33 157.66 422.37 188.13 425.39 199.58 419.64 229.32 419.83 238.75 420.34 263.45 432.72 267.08 432.72 267.08 426.46 271.15 414.9 277.98 402.46 280.22L396.02 261.08C393.64 267.91 395.07 281.46 395.07 281.46 386.63 283.21 370.77 287.3 362.07 288.09 355.77 281.68 351.71 273.87 350.83 265.72 343.82 232.35 376.93 191.23 347.03 167.15Z" fill="#000100"/><path d="M90.62 274.24C88.8 264.98 75.89 245.01 76.4 233.17 77.76 201.69 97.89 187.72 102.27 162.32 105.62 142.89 94.42 121.75 98.46 103.46 106.36 67.65 118.99 48.62 134.78 33.6L226.1 14.33 234.55 77.97C206.73 77.12 177.36 101.27 157.94 122.68 142.53 137.99 155.56 163.89 154.37 184.5 155.46 194.62 139.32 203.19 133.66 214.04 123.07 242.49 153.7 273.31 143.12 301.76 142.5 305.33 141.38 308.62 139.91 311.73 132.68 312.1 117.46 311.59 110.42 311.14 106.41 310.88 110.5 291.87 110.5 291.87 106.96 291.35 102.97 310.05 99.57 309.23 95.35 308.23 87.85 306.18 83.9 304.68 83.9 304.68 95.41 298.48 90.64 274.24Z" fill="#000100"/><path d="M133.65 214.04C139.31 203.19 155.45 194.62 154.36 184.5 155.55 163.89 142.52 137.99 157.93 122.68 177.35 101.27 206.72 77.11 234.54 77.97L241.69 131.83 237.23 78.14C247.79 79.09 258.08 83.78 267.45 93.82 294.34 121.64 320.5 142.71 347.03 167.15 376.93 191.23 343.82 232.34 350.83 265.72 351.71 273.88 355.77 281.68 362.07 288.09 316.7 292.23 271.04 284.84 257.93 282.44 244.05 288.25 191.01 309.11 139.9 311.73 141.37 308.63 142.5 305.33 143.11 301.76 153.7 273.31 123.07 242.49 133.65 214.04Z" fill="#000100"/><path d="M413.84 271.75 421.77 242.16C424.97 230.22 428.28 217.87 428.86 205.31 429.51 191.18 426.42 178.64 419.91 169.03 415.79 162.95 410.19 157.82 404.78 152.86 398.42 147.03 391.84 141.01 387.86 133.53 381.94 122.43 382.33 110.09 382.73 97.02 382.95 90.12 383.17 82.98 382.36 76.1 381.21 66.38 377.06 47.6 362.2 30.97 347.86 14.93 327.71 5.34 302.28 2.46 275.97-0.52 265.1 13.99 251.35 32.37 249.13 35.34 246.81 38.44 244.33 41.6L245.62 42.62C248.11 39.45 250.43 36.34 252.66 33.36 266.63 14.71 276.73 1.23 302.1 4.09 336.44 7.98 375.14 28.99 380.73 76.29 381.53 83.04 381.31 90.12 381.1 96.96 380.71 109.67 380.3 122.81 386.42 134.3 390.54 142.02 397.22 148.15 403.68 154.07 409.02 158.97 414.55 164.03 418.56 169.95 424.87 179.26 427.87 191.46 427.23 205.23 426.65 217.62 423.37 229.88 420.19 241.73L412.26 271.32 413.85 271.75Z" fill="#000100"/><path d="M77.72 303.29C88.5 298.58 92.76 285.1 91.4 274.21 90.15 264.29 85.42 255.24 80.84 246.49 80.24 245.34 79.64 244.2 79.05 243.05 73.96 233.18 69.41 222.55 70.55 211.72 71.77 200.04 79.39 190.1 86.75 180.48 94.75 170.04 103.02 159.24 103.17 146.14 103.23 140.02 101.45 134.07 99.73 128.32 99.18 126.5 98.64 124.69 98.15 122.87 90.36 93.75 98.26 60.38 118.29 37.84 138.3 15.32 170.52 3.55 200.35 7.88L200.59 6.25C170.22 1.85 137.43 13.83 117.05 36.77 96.67 59.71 88.62 93.68 96.55 123.32 97.04 125.16 97.59 126.99 98.14 128.82 99.83 134.45 101.58 140.27 101.51 146.14 101.37 158.69 93.63 168.8 85.44 179.5 77.94 189.3 70.18 199.43 68.91 211.57 67.74 222.83 72.39 233.72 77.59 243.82 78.18 244.97 78.78 246.12 79.38 247.26 83.9 255.88 88.56 264.8 89.77 274.42 91.05 284.7 87.1 297.4 77.06 301.79L77.72 303.3Z" fill="#000100"/><path d="M205.45 293.19C205.45 293.19 154.72 294.42 127.02 324.1 99.32 353.78 0.61 484.08 0.61 484.08 0.61 484.08 194.76 596.07 379.54 586.98 379.54 586.98 393.04 490.11 402.06 435.36 411.08 380.61 398.46 315.91 377.1 302.43 355.74 288.95 247.27 285.36 205.46 293.19Z" stroke="#1C1C1B" stroke-width="1.21" stroke-linecap="round" stroke-linejoin="round" fill="#FFFFFF"/><path d="M205.45 293.19C205.45 293.19 154.72 294.42 127.02 324.1 99.32 353.78 0.61 484.08 0.61 484.08 0.61 484.08 194.76 596.07 379.54 586.98 379.54 586.98 393.04 490.11 402.06 435.36 411.08 380.61 398.46 315.91 377.1 302.43 355.74 288.95 247.27 285.36 205.46 293.19Z" stroke="#1C1C1B" stroke-width="1.21" stroke-linecap="round" stroke-linejoin="round" fill="none"/><path d="M332.56 292.28C332.56 292.28 261.33 284.51 205.45 293.18 205.45 293.18 202.36 352.56 257.34 352.37 319.21 352.15 332.56 292.28 332.56 292.28Z" stroke="#1C1C1B" stroke-width="1.21" stroke-linecap="round" stroke-linejoin="round" fill="#FFFFFF"/><path d="M332.56 292.28C332.56 292.28 261.33 284.51 205.45 293.18 205.45 293.18 202.36 352.56 257.34 352.37 319.21 352.15 332.56 292.28 332.56 292.28Z" stroke="#1C1C1B" stroke-width="1.21" stroke-linecap="round" stroke-linejoin="round" fill="none"/><g><path d="M323.67 297.68C318.91 310.22 302.75 341.09 259.03 340.95 221.01 340.83 214.11 311.4 212.91 298.46 246.48 293.06 306.03 296.49 323.67 297.68Z" stroke="#1C1C1B" stroke-width="1.21" stroke-linecap="round" stroke-linejoin="round" fill="#FFFFFF"/><path d="M212.69 292.47C262.18 285.74 325.37 292.47 325.37 292.47 325.37 292.47 324.88 294.49 323.67 297.68 306.03 296.49 246.48 293.06 212.91 298.46 212.57 294.81 212.69 292.47 212.69 292.47Z" stroke="#1C1C1B" stroke-width="1.21" stroke-linecap="round" stroke-linejoin="round" fill="#FFFFFF"/></g><g><path d="M241.56 303.47 235.53 277.86 234.14 271.96C252.29 275.57 279.58 272.37 292.82 270.41L297.12 299.1" stroke="#1C1C1B" stroke-width="1.21" stroke-linecap="round" stroke-linejoin="round" fill="#FFFFFF"/><path d="M229.51 252.29 289.44 245.46 291.92 263.72 292.83 270.41C279.59 272.37 252.31 275.57 234.15 271.96L229.52 252.29Z" stroke="#1A1A1A" stroke-width="1.21" stroke-linecap="round" stroke-linejoin="round" fill="#1A1A1A"/></g><g><path d="M166.68 203.48 159.29 158.7C159.29 158.7 105.44 148.72 107.89 191.74 110.34 234.75 155.52 232.07 166.68 203.48Z" stroke="#1C1C1B" stroke-width="1.21" stroke-linecap="round" stroke-linejoin="round" fill="#FFFFFF"/><path d="M152.33 207.54C152.21 207.55 152.09 207.54 151.97 207.5 151.52 207.35 151.27 206.86 151.42 206.41 151.49 206.19 158.42 184.64 143.04 176.62 137.64 173.8 132.54 173.16 127.87 174.71 119.82 177.39 115.71 185.79 115.67 185.88 115.46 186.31 114.95 186.49 114.52 186.29 114.09 186.09 113.91 185.57 114.11 185.14 114.29 184.77 118.56 176 127.31 173.09 132.44 171.39 137.99 172.06 143.83 175.1 160.51 183.8 153.13 206.73 153.05 206.96 152.94 207.29 152.65 207.51 152.32 207.54Z" fill="#000100"/><path d="M129.4 193.05C129.14 193.08 128.87 192.99 128.67 192.78 128.35 192.43 128.37 191.88 128.72 191.56 128.85 191.44 142.1 179.39 153.93 188.92 154.3 189.22 154.36 189.76 154.06 190.13 153.76 190.5 153.22 190.56 152.85 190.26 142.18 181.65 130.02 192.71 129.89 192.82 129.75 192.95 129.57 193.02 129.4 193.04Z" fill="#000100"/><path d="M126.48 85.23C126.48 85.23 118.86 122.66 130.27 174.26 140.79 221.84 183.63 265.86 243.2 263.33 299.19 260.95 344.29 233.07 353.21 153.22 362.13 73.37 328.52 19.58 255.55 12.95 183.68 6.42 134.88 37.95 126.48 85.23Z" stroke="#1C1C1B" stroke-width="1.21" stroke-linecap="round" stroke-linejoin="round" fill="#FFFFFF"/><path d="M294.78 122.52C294.78 122.52 301.69 113.36 282.03 107.58 262.37 101.81 256.54 105.12 254.59 110.37 252.82 115.16 258.17 120.73 269.28 123.75 282.61 127.37 291.08 127.73 294.78 122.52Z" fill="#000100"/><path d="M157.31 148.49C157.31 148.49 147.4 142.7 163.3 129.79 179.21 116.87 185.87 117.68 189.69 121.77 193.18 125.5 190.39 132.71 181.31 139.79 170.41 148.28 162.74 151.88 157.31 148.5Z" fill="#000100"/><path d="M246.45 4.7C246.45 4.7 395.41-32.56 378.98 143.72 378.98 143.72 369.07 143.58 355.96 137.49 353.35 136.28 341.17 136.94 337.93 136.05 333.41 134.81 331.23 121.76 325.51 120.43 325.51 120.43 323.32 99.82 318.91 98.97 315.46 98.31 316.58 116.85 312.86 116.27 291.55 112.94 238.3 116.9 211.01 120.68 206.59 121.29 206.03 88.05 206.03 88.05 201.53 88.96 203.52 121.66 198.96 122.9 192.35 124.7 167.72 130.64 163.4 132.97 163.4 132.97 161.26 105.37 158.37 107.39 155.47 109.41 158.99 133.97 155.37 136.52 152.82 138.32 144.76 145.61 141.5 147.72 139.01 149.33 142.17 158.56 139.71 160.3 130.87 166.55 117.58 167.81 115.66 171.56 113.74 175.3 79.11 99.48 115.88 51.36 161.05-7.78 214.3-3.44 246.45 4.7Z" fill="#000100"/><g><path d="M331.99 131.21C331.99 131.21 369.77 107.46 380.97 149.07 392.17 190.67 348.44 202.33 328.85 178.69" stroke="#1C1C1B" stroke-width="1.21" stroke-linecap="round" stroke-linejoin="round" fill="#FFFFFF"/><path d="M343.75 178.03C343.87 178 343.98 177.95 344.08 177.88 344.46 177.6 344.54 177.06 344.26 176.67 344.12 176.49 330.77 158.2 342.85 145.76 347.09 141.39 351.73 139.18 356.65 139.18 365.13 139.19 371.68 145.88 371.74 145.95 372.07 146.29 372.62 146.3 372.96 145.97 373.3 145.64 373.31 145.09 372.99 144.75 372.7 144.45 365.89 137.48 356.67 137.45 351.27 137.45 346.2 139.83 341.62 144.55 328.52 158.05 342.74 177.5 342.88 177.69 343.09 177.97 343.43 178.09 343.75 178.02Z" fill="#000100"/><path d="M360.96 157.07C361.22 157.01 361.44 156.84 361.56 156.59 361.76 156.16 361.56 155.64 361.13 155.45 360.97 155.37 344.6 148.1 336.37 160.87 336.11 161.27 336.23 161.81 336.63 162.06 337.03 162.32 337.56 162.2 337.82 161.8 345.25 150.27 360.27 156.94 360.42 157.01 360.6 157.09 360.78 157.11 360.96 157.07Z" fill="#000100"/></g><g><path d="M227.81 210.59C240.73 208 240.07 196.96 240.06 196.84 240.03 196.37 239.61 196.01 239.14 196.05 238.69 196.07 238.31 196.49 238.34 196.97 238.37 197.41 238.91 207.84 225.1 209.26 224.63 209.34 224.28 209.73 224.33 210.21 224.38 210.68 224.8 211.03 225.28 210.98 226.18 210.89 227.02 210.76 227.82 210.6Z" stroke="#1A1A1A" stroke-width="0.25" stroke-miterlimit="10" fill="#1A1A1A"/><path d="M262.82 160.61C263.97 166.36 268.74 170.25 273.45 169.31 278.17 168.36 281.06 162.93 279.9 157.18 278.75 151.43 273.98 147.53 269.26 148.48 264.54 149.43 261.65 154.86 262.81 160.61Z" fill="#000100"/><path d="M171.63 178.92C172.78 184.67 177.55 188.56 182.27 187.62 186.99 186.67 189.88 181.24 188.72 175.49 187.57 169.74 182.8 165.84 178.08 166.79 173.36 167.74 170.47 173.17 171.63 178.92Z" fill="#000100"/><path d="M220.84 190.75C221.16 190.69 221.43 190.44 221.51 190.1 221.62 189.63 221.33 189.17 220.87 189.06 220.8 189.04 213.4 187.27 209.19 181.82 205.88 177.54 205.18 170.25 207.72 166.53 209.25 164.3 211.78 163.62 215.07 164.58 215.17 164.61 215.34 164.67 215.56 164.74 227.18 168.69 231.33 165.04 232.76 161.27 235.39 154.36 226.76 129.17 225.26 123.74 225.13 123.28 224.65 123.02 224.2 123.14 223.74 123.27 223.47 123.74 223.6 124.2 227.63 138.79 233.21 155.25 231.15 160.65 229.46 165.1 224.4 165.93 216.11 163.1 215.86 163.01 215.66 162.95 215.54 162.91 211.53 161.74 208.23 162.67 206.28 165.54 203.32 169.88 204.04 177.97 207.81 182.85 212.4 188.8 220.14 190.64 220.47 190.72 220.59 190.75 220.72 190.75 220.83 190.72Z" stroke="#1A1A1A" stroke-width="0.25" stroke-miterlimit="10" fill="#1A1A1A"/></g></g></g><path d="M347.02 294.76C347.02 294.76 350.99 499.78 359.29 581.85 359.29 581.85 225.48 595.53 155.74 567.05 155.74 567.05 162.75 349.91 185.26 296.22L205.46 293.19C205.46 293.19 197.41 374.46 198.41 399.32L317.69 407.9C317.69 407.9 315.86 346.01 326.68 290.81L347.02 294.77Z" stroke="#1C1C1B" stroke-width="1.21" stroke-linecap="round" stroke-linejoin="round" fill="#FFFFFF"/><path d="M302 439.89 193.62 430.21 187.01 499.3 302.43 509.54 302.07 450.69 302 439.89Z" stroke="#1C1C1B" stroke-width="0.61" stroke-linecap="round" stroke-linejoin="round" fill="none"/><line x1="302.07" y1="450.69" x2="193.07" y2="442.16" stroke="#1C1C1B" stroke-width="0.61" stroke-linecap="round" stroke-linejoin="round" fill="none"/><path d="M426.27 587.89C426.27 587.89 427.5 612.37 353.7 610.51 279.91 608.65 208.46 566.86 208.46 566.86L426.27 587.89Z" stroke="#1A1A1A" stroke-width="1.21" stroke-linecap="round" stroke-linejoin="round" fill="#1A1A1A"/><g><path d="M256.33 379.82 256.33 530.62C256.33 538.78 249.69 545.15 241.5 544.85L51.64 537.77C43.45 537.46 36.81 530.6 36.81 522.44L36.81 371.64C36.81 363.48 43.45 357.11 51.64 357.41L241.5 364.49C249.69 364.8 256.33 371.66 256.33 379.82Z" stroke="#1C1C1B" stroke-width="1.21" stroke-linecap="round" stroke-linejoin="round" fill="#FFFFFF"/><path d="M247.57 387.41 247.57 531.28C247.57 539.07 241.2 545.14 233.33 544.85L51.05 538.09C43.19 537.8 36.81 531.25 36.81 523.46L36.81 379.59C36.81 371.8 43.18 365.73 51.05 366.02L233.33 372.78C241.19 373.07 247.57 379.62 247.57 387.41Z" stroke="#1C1C1B" stroke-width="1.16" stroke-linecap="round" stroke-linejoin="round" fill="#FFFFFF"/><path d="M127.98 442.84C135.19 442.84 141.03 448.68 141.03 455.89 141.03 463.1 135.19 468.94 127.98 468.94 120.77 468.94 114.93 463.1 114.93 455.89 114.93 448.68 120.77 442.84 127.98 442.84Z" stroke="#1C1C1B" stroke-width="1.21" stroke-linecap="round" stroke-linejoin="round" fill="#FFFFFF"/><path d="M256.33 379.82 256.33 530.62C256.33 538.78 249.69 545.15 241.5 544.85L51.64 537.77C43.45 537.46 36.81 530.6 36.81 522.44L36.81 371.64C36.81 363.48 43.45 357.11 51.64 357.41L241.5 364.49C249.69 364.8 256.33 371.66 256.33 379.82Z" stroke="#1C1C1B" stroke-width="1.21" stroke-linecap="round" stroke-linejoin="round" fill="none"/></g><path d="M221.01 497.05C221.01 497.05 188.25 468.52 178.21 461.05 168.18 453.58 176.6 471.54 189.05 488.25 189.05 488.25 159.17 463.09 148.43 464.61 137.69 466.13 175.02 496.59 175.02 496.59 175.02 496.59 144 470.95 136.11 476.23 128.22 481.51 166.35 506.92 166.35 506.92 166.35 506.92 134.41 487.89 130.59 491.53 126.77 495.16 160.41 517.47 160.41 517.47 160.41 517.47 131.6 498.69 127.47 506.23 123.34 513.77 179.79 546.13 203.84 555.49L221.01 497.06Z" stroke="#1C1C1B" stroke-width="1.21" stroke-linecap="round" stroke-linejoin="round" fill="#FFFFFF"/><path d="M347.02 294.76C347.02 294.76 420.29 293.24 439.33 396.4 457.38 494.2 466.11 581.39 404.1 597.17 342.1 612.95 218.88 574.37 201.17 559.41 201.17 559.41 210.36 509.99 225.27 492.87 225.27 492.87 317.77 496.98 352.9 500.33 352.9 500.33 339.21 444.19 338.65 393.81 338.65 393.81 336.31 320.87 347.01 294.76Z" stroke="#1C1C1B" stroke-width="1.21" stroke-linecap="round" stroke-linejoin="round" fill="#FFFFFF"/><path d="M347.02 294.76C347.02 294.76 420.29 293.24 439.33 396.4 457.38 494.2 466.11 581.39 404.1 597.17 342.1 612.95 218.88 574.37 201.17 559.41 201.17 559.41 210.36 509.99 225.27 492.87 225.27 492.87 317.77 496.98 352.9 500.33 352.9 500.33 339.21 444.19 338.65 393.81 338.65 393.81 336.31 320.87 347.01 294.76Z" stroke="#1C1C1B" stroke-width="1.21" stroke-linecap="round" stroke-linejoin="round" fill="none"/><path d="M395.9 503.7C395.9 503.7 364.63 501.25 346.65 499.83" stroke="#1C1C1B" stroke-width="1.21" stroke-linecap="round" stroke-linejoin="round" fill="#FFFFFF"/><path d="M246 495.67C246 495.67 230.9 521.43 220.9 568.62" stroke="#1C1C1B" stroke-width="1.21" stroke-linecap="round" stroke-linejoin="round" fill="none"/><path d="M320.95 392.8 335.17 392.8C339.29 392.8 342.64 396.15 342.64 400.27L342.64 406.24C342.64 410.36 339.29 413.71 335.17 413.71L320.95 413.71C316.83 413.71 313.48 410.36 313.48 406.24L313.48 400.27C313.48 396.15 316.83 392.8 320.95 392.8Z" stroke="#1C1C1B" stroke-width="1.21" stroke-linecap="round" stroke-linejoin="round" fill="none" transform="matrix(-0.996931 -0.0782851 0.0782851 -0.996931 623.57 830.94)"/><path d="M317.39 422.37C317 427.31 320.69 431.62 325.63 432.01 330.57 432.4 334.88 428.71 335.27 423.77 335.66 418.83 331.97 414.52 327.03 414.13 322.09 413.74 317.78 417.43 317.39 422.37Z" fill="#1C1C1B"/><path d="M222.58 561.09C222.02 560.75 208.56 555.56 204.37 552.58" stroke="#1C1C1B" stroke-width="1.21" stroke-linecap="round" stroke-linejoin="round" fill="#FFFFFF"/><path d="M224.22 551.48C223.66 551.14 210.2 545.96 206.01 542.97" stroke="#1C1C1B" stroke-width="1.21" stroke-linecap="round" stroke-linejoin="round" fill="#FFFFFF"/><line x1="228.41" y1="539.42" x2="208.3" y2="532.53" stroke="#1C1C1B" stroke-width="1.21" stroke-linecap="round" stroke-linejoin="round" fill="#FFFFFF"/><line x1="231.7" y1="527.59" x2="211.79" y2="521.89" stroke="#1C1C1B" stroke-width="1.21" stroke-linecap="round" stroke-linejoin="round" fill="#FFFFFF"/><line x1="236.23" y1="514.96" x2="215.71" y2="509.52" stroke="#1C1C1B" stroke-width="1.21" stroke-linecap="round" stroke-linejoin="round" fill="#FFFFFF"/><line x1="240.8" y1="505.59" x2="219.58" y2="501.56" stroke="#1C1C1B" stroke-width="1.21" stroke-linecap="round" stroke-linejoin="round" fill="#FFFFFF"/><line x1="244.35" y1="497.9" x2="222.9" y2="496.81" stroke="#1C1C1B" stroke-width="1.21" stroke-linecap="round" stroke-linejoin="round" fill="#FFFFFF"/><line x1="320.62" y1="320.41" x2="315.15" y2="314.87" stroke="#1C1C1B" stroke-width="1.21" stroke-linecap="round" stroke-linejoin="round" fill="none"/><line x1="259.03" y1="340.95" x2="257.34" y2="352.37" stroke="#1C1C1B" stroke-width="1.21" stroke-linecap="round" stroke-linejoin="round" fill="none"/><line x1="272.21" y1="350.83" x2="271.69" y2="341.2" stroke="#1C1C1B" stroke-width="1.21" stroke-linecap="round" stroke-linejoin="round" fill="none"/><line x1="311.42" y1="329.28" x2="307.77" y2="323.73" stroke="#1C1C1B" stroke-width="1.21" stroke-linecap="round" stroke-linejoin="round" fill="none"/><line x1="301.04" y1="339.33" x2="297.75" y2="331.2" stroke="#1C1C1B" stroke-width="1.21" stroke-linecap="round" stroke-linejoin="round" fill="none"/><line x1="288.7" y1="346.23" x2="285.36" y2="338" stroke="#1C1C1B" stroke-width="1.21" stroke-linecap="round" stroke-linejoin="round" fill="none"/><line x1="246.73" y1="339.83" x2="244.61" y2="349.85" stroke="#1C1C1B" stroke-width="1.21" stroke-linecap="round" stroke-linejoin="round" fill="none"/><line x1="236.21" y1="336.65" x2="231.93" y2="346.05" stroke="#1C1C1B" stroke-width="1.21" stroke-linecap="round" stroke-linejoin="round" fill="none"/><line x1="226.94" y1="330.76" x2="221.78" y2="338.17" stroke="#1C1C1B" stroke-width="1.21" stroke-linecap="round" stroke-linejoin="round" fill="none"/><line x1="221.32" y1="323.39" x2="214" y2="328.42" stroke="#1C1C1B" stroke-width="1.21" stroke-linecap="round" stroke-linejoin="round" fill="none"/><line x1="216.64" y1="315.35" x2="210.22" y2="318.24" stroke="#1C1C1B" stroke-width="1.21" stroke-linecap="round" stroke-linejoin="round" fill="none"/><line x1="213.8" y1="306.43" x2="206.18" y2="307.74" stroke="#1C1C1B" stroke-width="1.21" stroke-linecap="round" stroke-linejoin="round" fill="none"/><path d="M211.96 298.02C211.51 298.13 206.25 299.34 206.25 299.34" stroke="#1C1C1B" stroke-width="1.21" stroke-linecap="round" stroke-linejoin="round" fill="none"/></svg>