<?xml version='1.0' encoding='utf-8'?>
<svg xmlns="http://www.w3.org/2000/svg" version="1.1" width="1280" height="720" viewBox="0 0 1280 720"><defs><marker id="marrow1" viewBox="0 0 10 10" refX="10" refY="5" markerWidth="5" markerHeight="5" orient="auto" markerUnits="strokeWidth"><circle cx="5" cy="5" r="4" fill="#9DB3E3" /></marker><marker id="marrow2" viewBox="0 0 10 10" refX="10" refY="5" markerWidth="5" markerHeight="5" orient="auto" markerUnits="strokeWidth"><circle cx="5" cy="5" r="4" fill="#9DB3E3" /></marker><marker id="marrow3" viewBox="0 0 10 10" refX="10" refY="5" markerWidth="5" markerHeight="5" orient="auto" markerUnits="strokeWidth"><circle cx="5" cy="5" r="4" fill="#9DB3E3" /></marker><marker id="marrow4" viewBox="0 0 10 10" refX="10" refY="5" markerWidth="5" markerHeight="5" orient="auto" markerUnits="strokeWidth"><circle cx="5" cy="5" r="4" fill="#9DB3E3" /></marker><marker id="marrow5" viewBox="0 0 10 10" refX="10" refY="5" markerWidth="5" markerHeight="5" orient="auto" markerUnits="strokeWidth"><circle cx="5" cy="5" r="4" fill="#9DB3E3" /></marker></defs><rect x="0" y="0" width="1280" height="720" fill="#FFFFFF" />
<g id="layout-shape-15" data-name="直接连接符 14">
<line x1="0" y1="64.68" x2="1279.68" y2="64.68" stroke-width="4" stroke="#000000" fill="#305598" />
</g>
<g id="shape-44" data-name="组合 43">
<g id="shape-45" data-name="Freeform 262">
<path d="M 974.19 246.93 C 973.41 243.82 971.86 240.71 971.09 237.61 C 969.53 234.5 967.98 232.17 966.43 229.07 C 966.43 229.07 966.43 229.07 966.43 229.07 C 985.84 208.1 985.84 208.1 985.84 208.1 C 982.73 202.67 978.85 197.23 974.97 192.57 C 948.57 201.89 948.57 201.89 948.57 201.89 C 944.69 197.23 939.25 192.57 934.59 187.92 C 943.91 161.52 943.91 161.52 943.91 161.52 C 939.25 157.63 933.82 153.75 928.38 150.65 C 907.42 170.06 907.42 170.06 907.42 170.06 C 901.98 166.95 895.77 164.62 889.56 162.29 C 889.56 162.29 889.56 162.29 889.56 162.29 C 888.01 134.34 888.01 134.34 888.01 134.34 C 881.79 132.79 875.58 131.23 869.37 130.46 C 857.72 156.08 857.72 156.08 857.72 156.08 C 850.74 155.3 844.52 155.3 837.54 156.08 C 837.54 156.08 837.54 156.08 837.54 156.08 C 825.89 130.46 825.89 130.46 825.89 130.46 C 819.68 131.23 813.47 132.79 807.25 134.34 C 805.7 162.29 805.7 162.29 805.7 162.29 C 802.6 163.07 799.49 164.62 796.38 165.4 C 793.28 166.95 790.17 168.5 787.84 170.06 C 766.88 150.65 766.88 150.65 766.88 150.65 C 761.44 153.75 756.01 157.63 751.35 161.52 C 760.67 187.92 760.67 187.92 760.67 187.92 C 755.23 192.57 750.57 197.23 746.69 201.89 C 746.69 201.89 746.69 201.89 746.69 201.89 C 720.29 192.57 720.29 192.57 720.29 192.57 C 716.41 197.23 712.53 202.67 709.42 208.1 C 728.83 229.07 728.83 229.07 728.83 229.07 C 728.83 229.07 728.83 229.07 728.83 229.07 C 725.73 234.5 723.4 240.71 721.07 246.93 C 693.12 248.48 693.12 248.48 693.12 248.48 C 691.56 254.69 690.01 260.9 689.23 267.11 C 714.86 278.76 714.86 278.76 714.86 278.76 C 714.08 285.75 714.08 291.96 714.86 298.95 C 689.23 310.59 689.23 310.59 689.23 310.59 C 690.01 316.81 691.56 323.02 693.12 329.23 C 721.07 330.78 721.07 330.78 721.07 330.78 C 721.07 330.78 721.07 330.78 721.07 330.78 C 721.85 333.89 723.4 336.99 724.17 340.1 C 725.73 343.2 727.28 346.31 728.83 348.64 C 728.83 348.64 728.83 348.64 728.83 348.64 C 709.42 369.6 709.42 369.6 709.42 369.6 C 712.53 375.04 716.41 380.47 720.29 385.13 C 746.69 375.82 746.69 375.82 746.69 375.82 C 750.57 381.25 756.01 385.91 760.67 389.79 C 751.35 416.19 751.35 416.19 751.35 416.19 C 756.01 420.07 761.44 423.96 766.88 427.06 C 787.84 407.65 787.84 407.65 787.84 407.65 C 793.28 410.76 799.49 413.09 805.7 415.41 C 805.7 415.41 805.7 415.41 805.7 415.41 C 807.25 443.37 807.25 443.37 807.25 443.37 C 813.47 445.7 819.68 446.47 825.89 447.25 C 837.54 421.63 837.54 421.63 837.54 421.63 C 844.52 422.4 850.74 422.4 857.72 421.63 C 857.72 421.63 857.72 421.63 857.72 421.63 C 869.37 447.25 869.37 447.25 869.37 447.25 C 875.58 446.47 881.79 445.7 888.01 443.37 C 889.56 415.41 889.56 415.41 889.56 415.41 C 892.66 414.64 895.77 413.09 898.88 412.31 C 901.98 410.76 905.09 409.2 907.42 407.65 C 928.38 427.06 928.38 427.06 928.38 427.06 C 933.82 423.96 939.25 420.07 943.91 416.19 C 934.59 389.79 934.59 389.79 934.59 389.79 C 940.03 385.91 944.69 381.25 948.57 375.82 C 948.57 375.82 948.57 375.82 948.57 375.82 C 974.97 385.13 974.97 385.13 974.97 385.13 C 978.85 380.47 982.73 375.04 985.84 369.6 C 966.43 348.64 966.43 348.64 966.43 348.64 C 966.43 348.64 966.43 348.64 966.43 348.64 C 969.53 343.2 971.86 336.99 974.19 330.78 C 1002.14 329.23 1002.14 329.23 1002.14 329.23 C 1003.7 323.02 1005.25 316.81 1006.03 310.59 C 980.4 298.95 980.4 298.95 980.4 298.95 C 981.18 291.96 981.18 285.75 980.4 278.76 C 1006.03 267.11 1006.03 267.11 1006.03 267.11 C 1005.25 260.9 1003.7 254.69 1002.14 248.48 C 974.19 246.93 974.19 246.93 974.19 246.93 C 974.19 246.93 974.19 246.93 974.19 246.93 Z M 888.01 385.91 C 834.43 407.65 773.09 382.03 750.57 329.23 C 728.83 275.65 754.46 214.31 807.25 192.57 C 860.83 170.06 922.17 195.68 944.69 249.25 C 966.43 302.05 940.8 363.39 888.01 385.91 Z" stroke="none" fill="none" />
</g>
<g id="shape-46" data-name="椭圆 45">
<ellipse cx="847.63" cy="288.85" rx="109.32" ry="109.32" stroke="none" fill="#305598" stroke-width="1" />
</g>
</g>
<g id="shape-41" data-name="组合 40">
<g id="shape-42" data-name="Freeform 262">
<path d="M 718.87 193.19 C 718.27 190.79 717.07 188.39 716.47 185.99 C 715.27 183.6 714.07 181.8 712.87 179.4 C 712.87 179.4 712.87 179.4 712.87 179.4 C 727.86 163.2 727.86 163.2 727.86 163.2 C 725.47 159 722.47 154.81 719.47 151.21 C 699.07 158.4 699.07 158.4 699.07 158.4 C 696.08 154.81 691.88 151.21 688.28 147.61 C 695.48 127.22 695.48 127.22 695.48 127.22 C 691.88 124.22 687.68 121.22 683.48 118.82 C 667.29 133.81 667.29 133.81 667.29 133.81 C 663.09 131.41 658.29 129.61 653.49 127.82 C 653.49 127.82 653.49 127.82 653.49 127.82 C 652.29 106.22 652.29 106.22 652.29 106.22 C 647.49 105.02 642.7 103.82 637.9 103.22 C 628.9 123.02 628.9 123.02 628.9 123.02 C 623.5 122.42 618.7 122.42 613.31 123.02 C 613.31 123.02 613.31 123.02 613.31 123.02 C 604.31 103.22 604.31 103.22 604.31 103.22 C 599.51 103.82 594.71 105.02 589.92 106.22 C 588.72 127.82 588.72 127.82 588.72 127.82 C 586.32 128.42 583.92 129.61 581.52 130.21 C 579.12 131.41 576.72 132.61 574.92 133.81 C 558.73 118.82 558.73 118.82 558.73 118.82 C 554.53 121.22 550.33 124.22 546.73 127.22 C 553.93 147.61 553.93 147.61 553.93 147.61 C 549.73 151.21 546.13 154.81 543.13 158.4 C 543.13 158.4 543.13 158.4 543.13 158.4 C 522.74 151.21 522.74 151.21 522.74 151.21 C 519.74 154.81 516.74 159 514.34 163.2 C 529.34 179.4 529.34 179.4 529.34 179.4 C 529.34 179.4 529.34 179.4 529.34 179.4 C 526.94 183.6 525.14 188.39 523.34 193.19 C 501.75 194.39 501.75 194.39 501.75 194.39 C 500.55 199.19 499.35 203.99 498.75 208.79 C 518.54 217.78 518.54 217.78 518.54 217.78 C 517.94 223.18 517.94 227.98 518.54 233.38 C 498.75 242.37 498.75 242.37 498.75 242.37 C 499.35 247.17 500.55 251.97 501.75 256.77 C 523.34 257.97 523.34 257.97 523.34 257.97 C 523.34 257.97 523.34 257.97 523.34 257.97 C 523.94 260.37 525.14 262.77 525.74 265.17 C 526.94 267.56 528.14 269.96 529.34 271.76 C 529.34 271.76 529.34 271.76 529.34 271.76 C 514.34 287.96 514.34 287.96 514.34 287.96 C 516.74 292.16 519.74 296.35 522.74 299.95 C 543.13 292.75 543.13 292.75 543.13 292.75 C 546.13 296.95 550.33 300.55 553.93 303.55 C 546.73 323.94 546.73 323.94 546.73 323.94 C 550.33 326.94 554.53 329.94 558.73 332.34 C 574.92 317.35 574.92 317.35 574.92 317.35 C 579.12 319.74 583.92 321.54 588.72 323.34 C 588.72 323.34 588.72 323.34 588.72 323.34 C 589.92 344.94 589.92 344.94 589.92 344.94 C 594.71 346.74 599.51 347.33 604.31 347.93 C 613.31 328.14 613.31 328.14 613.31 328.14 C 618.7 328.74 623.5 328.74 628.9 328.14 C 628.9 328.14 628.9 328.14 628.9 328.14 C 637.9 347.93 637.9 347.93 637.9 347.93 C 642.7 347.33 647.49 346.74 652.29 344.94 C 653.49 323.34 653.49 323.34 653.49 323.34 C 655.89 322.74 658.29 321.54 660.69 320.94 C 663.09 319.74 665.49 318.55 667.29 317.35 C 683.48 332.34 683.48 332.34 683.48 332.34 C 687.68 329.94 691.88 326.94 695.48 323.94 C 688.28 303.55 688.28 303.55 688.28 303.55 C 692.48 300.55 696.08 296.95 699.07 292.75 C 699.07 292.75 699.07 292.75 699.07 292.75 C 719.47 299.95 719.47 299.95 719.47 299.95 C 722.47 296.35 725.47 292.16 727.86 287.96 C 712.87 271.76 712.87 271.76 712.87 271.76 C 712.87 271.76 712.87 271.76 712.87 271.76 C 715.27 267.56 717.07 262.77 718.87 257.97 C 740.46 256.77 740.46 256.77 740.46 256.77 C 741.66 251.97 742.86 247.17 743.46 242.37 C 723.67 233.38 723.67 233.38 723.67 233.38 C 724.27 227.98 724.27 223.18 723.67 217.78 C 743.46 208.79 743.46 208.79 743.46 208.79 C 742.86 203.99 741.66 199.19 740.46 194.39 C 718.87 193.19 718.87 193.19 718.87 193.19 C 718.87 193.19 718.87 193.19 718.87 193.19 Z M 652.29 300.55 C 610.91 317.35 563.52 297.55 546.13 256.77 C 529.34 215.38 549.13 168 589.92 151.21 C 631.3 133.81 678.68 153.61 696.08 194.99 C 712.87 235.78 693.08 283.16 652.29 300.55 Z" stroke="none" fill="none" />
</g>
<g id="shape-43" data-name="椭圆 42">
<ellipse cx="621.1" cy="225.58" rx="84.45" ry="84.45" stroke="none" fill="#305598" stroke-width="1" />
</g>
</g>
<g id="shape-5" data-name="矩形 4">
<rect x="20.6" y="6.7" width="373.14" height="54.93" fill="none" />
<text x="30.2" y="43.23" text-anchor="start" xml:space="preserve" font-family="&quot;思源黑体 CN Heavy&quot;, Roboto, sans-serif" font-size="37.33" fill="#000000"><tspan fill="#000000" font-size="37.33">{{THANK_YOU}}</tspan></text>
</g>
<g id="shape-9" data-name="矩形 8">
<rect x="20.17" y="97.22" width="319.11" height="418.77" fill="#D0DBF0" fill-opacity="0.2" stroke="none" stroke-width="1" />
</g>
<g id="shape-10" data-name="文本框 9">
<rect x="43.96" y="118.07" width="226.33" height="69.59" fill="none" />
<text x="53.56" y="141.01" text-anchor="start" xml:space="preserve" font-family="&quot;思源黑体 CN Heavy&quot;, Roboto, sans-serif" font-size="21.33" fill="#404040"><tspan fill="#404040" font-size="21.33">市场调研、创意提出与团队搭建</tspan></text>
</g>
<g id="shape-11" data-name="文本框 10">
<rect x="44.7" y="195.87" width="266.38" height="101.19" fill="none" />
<text x="54.3" y="214.27" text-anchor="start" xml:space="preserve" font-family="&quot;思源黑体 CN Normal&quot;, Roboto, sans-serif" font-size="16" fill="#808080"><tspan fill="#808080" font-size="16">1.</tspan><tspan fill="#808080" font-size="16">智能穿戴设备市场年增长率 </tspan><tspan fill="#808080" font-size="16">18%</tspan><tspan x="54.3" dy="19.2" fill="#808080" font-size="16">，健康监测功能需求激增，目标用</tspan><tspan x="54.3" dy="19.2" fill="#808080" font-size="16">户聚焦 </tspan><tspan fill="#808080" font-size="16">25-45 </tspan><tspan fill="#808080" font-size="16">岁职场人群及中老年</tspan><tspan x="54.3" dy="19.2" fill="#808080" font-size="16">健康管理群体</tspan></text>
</g>
<g id="shape-12" data-name="文本框 11">
<rect x="44.7" y="306.63" width="266.38" height="101.19" fill="none" />
<text x="54.3" y="325.03" text-anchor="start" xml:space="preserve" font-family="&quot;思源黑体 CN Normal&quot;, Roboto, sans-serif" font-size="16" fill="#808080"><tspan fill="#808080" font-size="16">2.</tspan><tspan fill="#808080" font-size="16">推出具备心率 </tspan><tspan fill="#808080" font-size="16">/ </tspan><tspan fill="#808080" font-size="16">血氧 </tspan><tspan fill="#808080" font-size="16">/ </tspan><tspan fill="#808080" font-size="16">睡眠监测</tspan><tspan x="54.3" dy="19.2" fill="#808080" font-size="16"> </tspan><tspan fill="#808080" font-size="16">+ </tspan><tspan fill="#808080" font-size="16">久坐提醒</tspan><tspan fill="#808080" font-size="16">+</tspan><tspan fill="#808080" font-size="16">蓝牙通话功能的智能</tspan><tspan x="54.3" dy="19.2" fill="#808080" font-size="16">手环，抢占中端市场，首年实现销</tspan><tspan x="54.3" dy="19.2" fill="#808080" font-size="16">量 </tspan><tspan fill="#808080" font-size="16">50</tspan><tspan fill="#808080" font-size="16">万台，市场占有率提升至</tspan><tspan fill="#808080" font-size="16">8%</tspan></text>
</g>
<g id="shape-13" data-name="文本框 12">
<rect x="44.7" y="417.39" width="266.38" height="77.93" fill="none" />
<text x="54.3" y="435.79" text-anchor="start" xml:space="preserve" font-family="&quot;思源黑体 CN Normal&quot;, Roboto, sans-serif" font-size="16" fill="#808080"><tspan fill="#808080" font-size="16">3.</tspan><tspan fill="#808080" font-size="16">投入研发预算 </tspan><tspan fill="#808080" font-size="16">800 </tspan><tspan fill="#808080" font-size="16">万元，组建 </tspan><tspan x="54.3" dy="19.2" fill="#808080" font-size="16">20 </tspan><tspan fill="#808080" font-size="16">人专项团队（研发</tspan><tspan fill="#808080" font-size="16">8</tspan><tspan fill="#808080" font-size="16">人、设计</tspan><tspan fill="#808080" font-size="16">3</tspan><tspan x="54.3" dy="19.2" fill="#808080" font-size="16">人、供应链</tspan><tspan fill="#808080" font-size="16">5</tspan><tspan fill="#808080" font-size="16">人、市场</tspan><tspan fill="#808080" font-size="16">4</tspan><tspan fill="#808080" font-size="16">人）</tspan></text>
</g>
<g id="shape-14" data-name="箭头: V 形 13">
<polygon points="20.17,652.8 255.39,652.8 280.99,678.4 255.39,704 20.17,704 45.77,678.4" stroke="none" fill="#305598" stroke-width="1" />
</g>
<g id="shape-15" data-name="箭头: V 形 14">
<polygon points="264.88,652.8 500.1,652.8 525.7,678.4 500.1,704 264.88,704 290.48,678.4" stroke="none" fill="#305598" stroke-width="1" />
</g>
<g id="shape-16" data-name="箭头: V 形 15">
<polygon points="509.59,652.8 744.81,652.8 770.41,678.4 744.81,704 509.59,704 535.19,678.4" stroke="none" fill="#305598" stroke-width="1" />
</g>
<g id="shape-17" data-name="箭头: V 形 16">
<polygon points="754.3,652.8 989.52,652.8 1015.12,678.4 989.52,704 754.3,704 779.9,678.4" stroke="none" fill="#305598" stroke-width="1" />
</g>
<g id="shape-18" data-name="箭头: V 形 17">
<polygon points="999.01,652.8 1234.23,652.8 1259.83,678.4 1234.23,704 999.01,704 1024.61,678.4" stroke="none" fill="#305598" stroke-width="1" />
</g>
<g id="shape-20" data-name="文本框 19">
<rect x="43.96" y="552.04" width="149.1" height="34.96" fill="none" />
<text x="53.56" y="572.71" text-anchor="start" xml:space="preserve" font-family="&quot;思源黑体 CN Heavy&quot;, Roboto, sans-serif" font-size="18.67" fill="#404040"><tspan fill="#404040" font-size="18.67">{{DATE}}</tspan></text>
</g>
<g id="shape-21" data-name="文本框 20">
<rect x="44.7" y="587" width="188.26" height="54.66" fill="none" />
<text x="54.3" y="605.4" text-anchor="start" xml:space="preserve" font-family="&quot;思源黑体 CN Normal&quot;, Roboto, sans-serif" font-size="16" fill="#808080"><tspan fill="#808080" font-size="16">完成 </tspan><tspan fill="#808080" font-size="16">3000 </tspan><tspan fill="#808080" font-size="16">份用户问卷</tspan><tspan x="54.3" dy="19.2" fill="#808080" font-size="16">调研，明确核心需求</tspan></text>
</g>
<g id="shape-22" data-name="文本框 21">
<rect x="47.12" y="657.93" width="206.92" height="34.96" fill="none" />
<text x="56.72" y="678.6" text-anchor="start" xml:space="preserve" font-family="&quot;思源黑体 CN Heavy&quot;, Roboto, sans-serif" font-size="18.67" fill="#FFFFFF"><tspan fill="#FFFFFF" font-size="18.67">需求调研与定义</tspan></text>
</g>
<g id="shape-23" data-name="文本框 22">
<rect x="288.67" y="552.04" width="149.1" height="34.96" fill="none" />
<text x="298.27" y="572.71" text-anchor="start" xml:space="preserve" font-family="&quot;思源黑体 CN Heavy&quot;, Roboto, sans-serif" font-size="18.67" fill="#404040"><tspan fill="#404040" font-size="18.67">{{DATE}}</tspan></text>
</g>
<g id="shape-24" data-name="文本框 23">
<rect x="289.41" y="587" width="188.26" height="54.66" fill="none" />
<text x="299.01" y="605.4" text-anchor="start" xml:space="preserve" font-family="&quot;思源黑体 CN Normal&quot;, Roboto, sans-serif" font-size="16" fill="#808080"><tspan fill="#808080" font-size="16">完成产品 </tspan><tspan fill="#808080" font-size="16">ID </tspan><tspan fill="#808080" font-size="16">设计，与供</tspan><tspan x="299.01" dy="19.2" fill="#808080" font-size="16">应商签订合作意向书</tspan></text>
</g>
<g id="shape-25" data-name="文本框 24">
<rect x="291.83" y="657.93" width="206.92" height="34.96" fill="none" />
<text x="301.43" y="678.6" text-anchor="start" xml:space="preserve" font-family="&quot;思源黑体 CN Heavy&quot;, Roboto, sans-serif" font-size="18.67" fill="#FFFFFF"><tspan fill="#FFFFFF" font-size="18.67">产品设计与方案确定</tspan></text>
</g>
<g id="shape-26" data-name="文本框 25">
<rect x="533.38" y="552.04" width="182.14" height="34.96" fill="none" />
<text x="542.98" y="572.71" text-anchor="start" xml:space="preserve" font-family="&quot;思源黑体 CN Heavy&quot;, Roboto, sans-serif" font-size="18.67" fill="#404040"><tspan fill="#404040" font-size="18.67">{{DATE}}</tspan></text>
</g>
<g id="shape-27" data-name="文本框 26">
<rect x="534.12" y="587" width="188.26" height="54.66" fill="none" />
<text x="543.72" y="605.4" text-anchor="start" xml:space="preserve" font-family="&quot;思源黑体 CN Normal&quot;, Roboto, sans-serif" font-size="16" fill="#808080"><tspan fill="#808080" font-size="16">硬件原型开发、健康算</tspan><tspan x="543.72" dy="19.2" fill="#808080" font-size="16">法调试、</tspan><tspan fill="#808080" font-size="16">APP </tspan><tspan fill="#808080" font-size="16">联调</tspan></text>
</g>
<g id="shape-28" data-name="文本框 27">
<rect x="536.54" y="657.93" width="206.92" height="34.96" fill="none" />
<text x="546.14" y="678.6" text-anchor="start" xml:space="preserve" font-family="&quot;思源黑体 CN Heavy&quot;, Roboto, sans-serif" font-size="18.67" fill="#FFFFFF"><tspan fill="#FFFFFF" font-size="18.67">研发攻坚</tspan></text>
</g>
<g id="shape-32" data-name="文本框 31">
<rect x="778.09" y="552.04" width="188.26" height="34.96" fill="none" />
<text x="787.69" y="572.71" text-anchor="start" xml:space="preserve" font-family="&quot;思源黑体 CN Heavy&quot;, Roboto, sans-serif" font-size="18.67" fill="#404040"><tspan fill="#404040" font-size="18.67">{{DATE}}</tspan></text>
</g>
<g id="shape-33" data-name="文本框 32">
<rect x="778.83" y="587" width="188.26" height="54.66" fill="none" />
<text x="788.43" y="605.4" text-anchor="start" xml:space="preserve" font-family="&quot;思源黑体 CN Normal&quot;, Roboto, sans-serif" font-size="16" fill="#808080"><tspan fill="#808080" font-size="16">性能测试续航稳定性等</tspan><tspan x="788.43" dy="19.2" fill="#808080" font-size="16">、用户内测</tspan><tspan fill="#808080" font-size="16">500 </tspan><tspan fill="#808080" font-size="16">人</tspan></text>
</g>
<g id="shape-34" data-name="文本框 33">
<rect x="781.25" y="657.93" width="206.92" height="34.96" fill="none" />
<text x="790.85" y="678.6" text-anchor="start" xml:space="preserve" font-family="&quot;思源黑体 CN Heavy&quot;, Roboto, sans-serif" font-size="18.67" fill="#FFFFFF"><tspan fill="#FFFFFF" font-size="18.67">测试与优化</tspan></text>
</g>
<g id="shape-29" data-name="文本框 28">
<rect x="1022.8" y="552.04" width="149.1" height="34.96" fill="none" />
<text x="1032.4" y="572.71" text-anchor="start" xml:space="preserve" font-family="&quot;思源黑体 CN Heavy&quot;, Roboto, sans-serif" font-size="18.67" fill="#404040"><tspan fill="#404040" font-size="18.67">{{DATE}}</tspan></text>
</g>
<g id="shape-30" data-name="文本框 29">
<rect x="1023.54" y="587" width="188.26" height="54.66" fill="none" />
<text x="1033.14" y="605.4" text-anchor="start" xml:space="preserve" font-family="&quot;思源黑体 CN Normal&quot;, Roboto, sans-serif" font-size="16" fill="#808080"><tspan fill="#808080" font-size="16">线上发布会、电商平台</tspan><tspan x="1033.14" dy="19.2" fill="#808080" font-size="16">上架、线下渠道铺陈</tspan></text>
</g>
<g id="shape-31" data-name="文本框 30">
<rect x="1025.96" y="657.93" width="206.92" height="34.96" fill="none" />
<text x="1035.56" y="678.6" text-anchor="start" xml:space="preserve" font-family="&quot;思源黑体 CN Heavy&quot;, Roboto, sans-serif" font-size="18.67" fill="#FFFFFF"><tspan fill="#FFFFFF" font-size="18.67">项目上市推广</tspan></text>
</g>
<g id="shape-40" data-name="组合 39">
<g id="shape-6" data-name="Freeform 262">
<path d="M 543.65 267.47 C 543.17 265.54 542.2 263.61 541.72 261.68 C 540.75 259.75 539.79 258.3 538.82 256.37 C 538.82 256.37 538.82 256.37 538.82 256.37 C 550.89 243.34 550.89 243.34 550.89 243.34 C 548.96 239.96 546.55 236.58 544.13 233.69 C 527.72 239.48 527.72 239.48 527.72 239.48 C 525.31 236.58 521.93 233.69 519.03 230.79 C 524.83 214.38 524.83 214.38 524.83 214.38 C 521.93 211.97 518.55 209.56 515.17 207.63 C 502.14 219.69 502.14 219.69 502.14 219.69 C 498.76 217.76 494.9 216.31 491.04 214.87 C 491.04 214.87 491.04 214.87 491.04 214.87 C 490.08 197.49 490.08 197.49 490.08 197.49 C 486.21 196.52 482.35 195.56 478.49 195.08 C 471.25 211 471.25 211 471.25 211 C 466.91 210.52 463.05 210.52 458.7 211 C 458.7 211 458.7 211 458.7 211 C 451.46 195.08 451.46 195.08 451.46 195.08 C 447.6 195.56 443.74 196.52 439.88 197.49 C 438.91 214.87 438.91 214.87 438.91 214.87 C 436.98 215.35 435.05 216.31 433.12 216.8 C 431.19 217.76 429.26 218.73 427.81 219.69 C 414.78 207.63 414.78 207.63 414.78 207.63 C 411.4 209.56 408.02 211.97 405.13 214.38 C 410.92 230.79 410.92 230.79 410.92 230.79 C 407.54 233.69 404.64 236.58 402.23 239.48 C 402.23 239.48 402.23 239.48 402.23 239.48 C 385.82 233.69 385.82 233.69 385.82 233.69 C 383.41 236.58 380.99 239.96 379.06 243.34 C 391.13 256.37 391.13 256.37 391.13 256.37 C 391.13 256.37 391.13 256.37 391.13 256.37 C 389.2 259.75 387.75 263.61 386.3 267.47 C 368.93 268.44 368.93 268.44 368.93 268.44 C 367.96 272.3 367 276.16 366.51 280.02 C 382.44 287.26 382.44 287.26 382.44 287.26 C 381.96 291.61 381.96 295.47 382.44 299.81 C 366.51 307.05 366.51 307.05 366.51 307.05 C 367 310.91 367.96 314.77 368.93 318.64 C 386.3 319.6 386.3 319.6 386.3 319.6 C 386.3 319.6 386.3 319.6 386.3 319.6 C 386.79 321.53 387.75 323.46 388.23 325.39 C 389.2 327.32 390.17 329.25 391.13 330.7 C 391.13 330.7 391.13 330.7 391.13 330.7 C 379.06 343.73 379.06 343.73 379.06 343.73 C 380.99 347.11 383.41 350.49 385.82 353.39 C 402.23 347.6 402.23 347.6 402.23 347.6 C 404.64 350.97 408.02 353.87 410.92 356.28 C 405.13 372.69 405.13 372.69 405.13 372.69 C 408.02 375.11 411.4 377.52 414.78 379.45 C 427.81 367.38 427.81 367.38 427.81 367.38 C 431.19 369.32 435.05 370.76 438.91 372.21 C 438.91 372.21 438.91 372.21 438.91 372.21 C 439.88 389.59 439.88 389.59 439.88 389.59 C 443.74 391.03 447.6 391.52 451.46 392 C 458.7 376.07 458.7 376.07 458.7 376.07 C 463.05 376.55 466.91 376.55 471.25 376.07 C 471.25 376.07 471.25 376.07 471.25 376.07 C 478.49 392 478.49 392 478.49 392 C 482.35 391.52 486.21 391.03 490.08 389.59 C 491.04 372.21 491.04 372.21 491.04 372.21 C 492.97 371.73 494.9 370.76 496.83 370.28 C 498.76 369.32 500.69 368.35 502.14 367.38 C 515.17 379.45 515.17 379.45 515.17 379.45 C 518.55 377.52 521.93 375.11 524.83 372.69 C 519.03 356.28 519.03 356.28 519.03 356.28 C 522.41 353.87 525.31 350.97 527.72 347.6 C 527.72 347.6 527.72 347.6 527.72 347.6 C 544.13 353.39 544.13 353.39 544.13 353.39 C 546.55 350.49 548.96 347.11 550.89 343.73 C 538.82 330.7 538.82 330.7 538.82 330.7 C 538.82 330.7 538.82 330.7 538.82 330.7 C 540.75 327.32 542.2 323.46 543.65 319.6 C 561.03 318.64 561.03 318.64 561.03 318.64 C 561.99 314.77 562.96 310.91 563.44 307.05 C 547.51 299.81 547.51 299.81 547.51 299.81 C 547.99 295.47 547.99 291.61 547.51 287.26 C 563.44 280.02 563.44 280.02 563.44 280.02 C 562.96 276.16 561.99 272.3 561.03 268.44 C 543.65 267.47 543.65 267.47 543.65 267.47 C 543.65 267.47 543.65 267.47 543.65 267.47 Z M 490.08 353.87 C 456.77 367.38 418.64 351.46 404.64 318.64 C 391.13 285.33 407.06 247.2 439.88 233.69 C 473.18 219.69 511.31 235.62 525.31 268.92 C 538.82 301.74 522.9 339.87 490.08 353.87 Z" stroke="none" fill="none" />
</g>
<g id="shape-35" data-name="椭圆 34">
<ellipse cx="464.98" cy="293.54" rx="67.96" ry="67.96" stroke="none" fill="#305598" stroke-width="1" />
</g>
</g>
<g id="shape-47" data-name="组合 46">
<g id="shape-48" data-name="Freeform 262">
<path d="M 1219.35 184.62 C 1218.78 182.35 1217.64 180.08 1217.08 177.81 C 1215.94 175.54 1214.81 173.84 1213.67 171.57 C 1213.67 171.57 1213.67 171.57 1213.67 171.57 C 1227.86 156.24 1227.86 156.24 1227.86 156.24 C 1225.59 152.27 1222.75 148.3 1219.91 144.89 C 1200.62 151.7 1200.62 151.7 1200.62 151.7 C 1197.78 148.3 1193.81 144.89 1190.4 141.49 C 1197.21 122.19 1197.21 122.19 1197.21 122.19 C 1193.81 119.35 1189.83 116.51 1185.86 114.24 C 1170.54 128.43 1170.54 128.43 1170.54 128.43 C 1166.56 126.16 1162.02 124.46 1157.48 122.76 C 1157.48 122.76 1157.48 122.76 1157.48 122.76 C 1156.35 102.33 1156.35 102.33 1156.35 102.33 C 1151.81 101.19 1147.27 100.06 1142.73 99.49 C 1134.21 118.22 1134.21 118.22 1134.21 118.22 C 1129.1 117.65 1124.56 117.65 1119.46 118.22 C 1119.46 118.22 1119.46 118.22 1119.46 118.22 C 1110.94 99.49 1110.94 99.49 1110.94 99.49 C 1106.4 100.06 1101.86 101.19 1097.32 102.33 C 1096.19 122.76 1096.19 122.76 1096.19 122.76 C 1093.92 123.32 1091.65 124.46 1089.38 125.03 C 1087.11 126.16 1084.84 127.3 1083.13 128.43 C 1067.81 114.24 1067.81 114.24 1067.81 114.24 C 1063.84 116.51 1059.86 119.35 1056.46 122.19 C 1063.27 141.49 1063.27 141.49 1063.27 141.49 C 1059.29 144.89 1055.89 148.3 1053.05 151.7 C 1053.05 151.7 1053.05 151.7 1053.05 151.7 C 1033.75 144.89 1033.75 144.89 1033.75 144.89 C 1030.92 148.3 1028.08 152.27 1025.81 156.24 C 1040 171.57 1040 171.57 1040 171.57 C 1040 171.57 1040 171.57 1040 171.57 C 1037.73 175.54 1036.03 180.08 1034.32 184.62 C 1013.89 185.76 1013.89 185.76 1013.89 185.76 C 1012.76 190.3 1011.62 194.84 1011.05 199.38 C 1029.78 207.89 1029.78 207.89 1029.78 207.89 C 1029.21 213 1029.21 217.54 1029.78 222.65 C 1011.05 231.16 1011.05 231.16 1011.05 231.16 C 1011.62 235.7 1012.76 240.24 1013.89 244.78 C 1034.32 245.92 1034.32 245.92 1034.32 245.92 C 1034.32 245.92 1034.32 245.92 1034.32 245.92 C 1034.89 248.19 1036.03 250.46 1036.59 252.73 C 1037.73 255 1038.86 257.27 1040 258.97 C 1040 258.97 1040 258.97 1040 258.97 C 1025.81 274.3 1025.81 274.3 1025.81 274.3 C 1028.08 278.27 1030.92 282.24 1033.75 285.65 C 1053.05 278.84 1053.05 278.84 1053.05 278.84 C 1055.89 282.81 1059.86 286.21 1063.27 289.05 C 1056.46 308.35 1056.46 308.35 1056.46 308.35 C 1059.86 311.19 1063.84 314.02 1067.81 316.29 C 1083.13 302.11 1083.13 302.11 1083.13 302.11 C 1087.11 304.38 1091.65 306.08 1096.19 307.78 C 1096.19 307.78 1096.19 307.78 1096.19 307.78 C 1097.32 328.21 1097.32 328.21 1097.32 328.21 C 1101.86 329.92 1106.4 330.48 1110.94 331.05 C 1119.46 312.32 1119.46 312.32 1119.46 312.32 C 1124.56 312.89 1129.1 312.89 1134.21 312.32 C 1134.21 312.32 1134.21 312.32 1134.21 312.32 C 1142.73 331.05 1142.73 331.05 1142.73 331.05 C 1147.27 330.48 1151.81 329.92 1156.35 328.21 C 1157.48 307.78 1157.48 307.78 1157.48 307.78 C 1159.75 307.21 1162.02 306.08 1164.29 305.51 C 1166.56 304.38 1168.83 303.24 1170.54 302.11 C 1185.86 316.29 1185.86 316.29 1185.86 316.29 C 1189.83 314.02 1193.81 311.19 1197.21 308.35 C 1190.4 289.05 1190.4 289.05 1190.4 289.05 C 1194.37 286.21 1197.78 282.81 1200.62 278.84 C 1200.62 278.84 1200.62 278.84 1200.62 278.84 C 1219.91 285.65 1219.91 285.65 1219.91 285.65 C 1222.75 282.24 1225.59 278.27 1227.86 274.3 C 1213.67 258.97 1213.67 258.97 1213.67 258.97 C 1213.67 258.97 1213.67 258.97 1213.67 258.97 C 1215.94 255 1217.64 250.46 1219.35 245.92 C 1239.78 244.78 1239.78 244.78 1239.78 244.78 C 1240.91 240.24 1242.05 235.7 1242.62 231.16 C 1223.89 222.65 1223.89 222.65 1223.89 222.65 C 1224.45 217.54 1224.45 213 1223.89 207.89 C 1242.62 199.38 1242.62 199.38 1242.62 199.38 C 1242.05 194.84 1240.91 190.3 1239.78 185.76 C 1219.35 184.62 1219.35 184.62 1219.35 184.62 C 1219.35 184.62 1219.35 184.62 1219.35 184.62 Z M 1156.35 286.21 C 1117.19 302.11 1072.35 283.38 1055.89 244.78 C 1040 205.62 1058.73 160.78 1097.32 144.89 C 1136.48 128.43 1181.32 147.16 1197.78 186.32 C 1213.67 224.92 1194.94 269.75 1156.35 286.21 Z" stroke="none" fill="none" />
</g>
<g id="shape-49" data-name="椭圆 48">
<ellipse cx="1126.83" cy="215.27" rx="79.91" ry="79.91" stroke="none" fill="#305598" stroke-width="1" />
</g>
</g>
<g id="shape-50" data-name="组合 49">
<g id="shape-51" data-name="Freeform 262">
<path d="M 1113.32 358.73 C 1112.88 356.98 1112 355.23 1111.57 353.47 C 1110.69 351.72 1109.81 350.41 1108.94 348.65 C 1108.94 348.65 1108.94 348.65 1108.94 348.65 C 1119.89 336.82 1119.89 336.82 1119.89 336.82 C 1118.14 333.75 1115.95 330.69 1113.76 328.06 C 1098.86 333.32 1098.86 333.32 1098.86 333.32 C 1096.67 330.69 1093.6 328.06 1090.97 325.43 C 1096.23 310.53 1096.23 310.53 1096.23 310.53 C 1093.6 308.34 1090.53 306.15 1087.47 304.4 C 1075.63 315.35 1075.63 315.35 1075.63 315.35 C 1072.57 313.6 1069.06 312.28 1065.56 310.97 C 1065.56 310.97 1065.56 310.97 1065.56 310.97 C 1064.68 295.19 1064.68 295.19 1064.68 295.19 C 1061.17 294.32 1057.67 293.44 1054.16 293 C 1047.59 307.46 1047.59 307.46 1047.59 307.46 C 1043.65 307.02 1040.14 307.02 1036.2 307.46 C 1036.2 307.46 1036.2 307.46 1036.2 307.46 C 1029.63 293 1029.63 293 1029.63 293 C 1026.12 293.44 1022.61 294.32 1019.11 295.19 C 1018.23 310.97 1018.23 310.97 1018.23 310.97 C 1016.48 311.41 1014.73 312.28 1012.97 312.72 C 1011.22 313.6 1009.47 314.47 1008.15 315.35 C 996.32 304.4 996.32 304.4 996.32 304.4 C 993.26 306.15 990.19 308.34 987.56 310.53 C 992.82 325.43 992.82 325.43 992.82 325.43 C 989.75 328.06 987.12 330.69 984.93 333.32 C 984.93 333.32 984.93 333.32 984.93 333.32 C 970.03 328.06 970.03 328.06 970.03 328.06 C 967.84 330.69 965.65 333.75 963.9 336.82 C 974.85 348.65 974.85 348.65 974.85 348.65 C 974.85 348.65 974.85 348.65 974.85 348.65 C 973.1 351.72 971.78 355.23 970.47 358.73 C 954.69 359.61 954.69 359.61 954.69 359.61 C 953.82 363.11 952.94 366.62 952.5 370.12 C 966.96 376.7 966.96 376.7 966.96 376.7 C 966.53 380.64 966.53 384.15 966.96 388.09 C 952.5 394.66 952.5 394.66 952.5 394.66 C 952.94 398.17 953.82 401.67 954.69 405.18 C 970.47 406.06 970.47 406.06 970.47 406.06 C 970.47 406.06 970.47 406.06 970.47 406.06 C 970.91 407.81 971.78 409.56 972.22 411.31 C 973.1 413.07 973.98 414.82 974.85 416.13 C 974.85 416.13 974.85 416.13 974.85 416.13 C 963.9 427.97 963.9 427.97 963.9 427.97 C 965.65 431.03 967.84 434.1 970.03 436.73 C 984.93 431.47 984.93 431.47 984.93 431.47 C 987.12 434.54 990.19 437.17 992.82 439.36 C 987.56 454.26 987.56 454.26 987.56 454.26 C 990.19 456.45 993.26 458.64 996.32 460.39 C 1008.15 449.44 1008.15 449.44 1008.15 449.44 C 1011.22 451.19 1014.73 452.5 1018.23 453.82 C 1018.23 453.82 1018.23 453.82 1018.23 453.82 C 1019.11 469.59 1019.11 469.59 1019.11 469.59 C 1022.61 470.91 1026.12 471.35 1029.63 471.78 C 1036.2 457.32 1036.2 457.32 1036.2 457.32 C 1040.14 457.76 1043.65 457.76 1047.59 457.32 C 1047.59 457.32 1047.59 457.32 1047.59 457.32 C 1054.16 471.78 1054.16 471.78 1054.16 471.78 C 1057.67 471.35 1061.17 470.91 1064.68 469.59 C 1065.56 453.82 1065.56 453.82 1065.56 453.82 C 1067.31 453.38 1069.06 452.5 1070.81 452.07 C 1072.57 451.19 1074.32 450.31 1075.63 449.44 C 1087.47 460.39 1087.47 460.39 1087.47 460.39 C 1090.53 458.64 1093.6 456.45 1096.23 454.26 C 1090.97 439.36 1090.97 439.36 1090.97 439.36 C 1094.04 437.17 1096.67 434.54 1098.86 431.47 C 1098.86 431.47 1098.86 431.47 1098.86 431.47 C 1113.76 436.73 1113.76 436.73 1113.76 436.73 C 1115.95 434.1 1118.14 431.03 1119.89 427.97 C 1108.94 416.13 1108.94 416.13 1108.94 416.13 C 1108.94 416.13 1108.94 416.13 1108.94 416.13 C 1110.69 413.07 1112 409.56 1113.32 406.06 C 1129.09 405.18 1129.09 405.18 1129.09 405.18 C 1129.97 401.67 1130.85 398.17 1131.29 394.66 C 1116.82 388.09 1116.82 388.09 1116.82 388.09 C 1117.26 384.15 1117.26 380.64 1116.82 376.7 C 1131.29 370.12 1131.29 370.12 1131.29 370.12 C 1130.85 366.62 1129.97 363.11 1129.09 359.61 C 1113.32 358.73 1113.32 358.73 1113.32 358.73 C 1113.32 358.73 1113.32 358.73 1113.32 358.73 Z M 1064.68 437.17 C 1034.45 449.44 999.83 434.98 987.12 405.18 C 974.85 374.94 989.31 340.33 1019.11 328.06 C 1049.34 315.35 1083.96 329.81 1096.67 360.05 C 1108.94 389.84 1094.48 424.46 1064.68 437.17 Z" stroke="none" fill="none" />
</g>
<g id="shape-52" data-name="椭圆 51">
<ellipse cx="1041.89" cy="382.39" rx="61.7" ry="61.7" stroke="none" fill="#305598" stroke-width="1" />
</g>
</g>
<g id="shape-53" data-name="文本框 52">
<rect x="389.43" y="249.8" width="151.09" height="60.23" fill="none" />
<text x="464.98" y="286.33" text-anchor="middle" xml:space="preserve" font-family="&quot;思源黑体 CN Heavy&quot;, Roboto, sans-serif" font-size="37.33" fill="#FFFFFF"><tspan fill="#FFFFFF" font-size="37.33">{{CLOSING_MESSAGE}}</tspan></text>
</g>
<g id="shape-54" data-name="文本框 53">
<rect x="407.59" y="302.56" width="113.63" height="35.01" fill="none" />
<text x="417.19" y="323.23" text-anchor="start" xml:space="preserve" font-family="&quot;思源黑体 CN Normal&quot;, Roboto, sans-serif" font-size="18.67" fill="#F2F2F2" fill-opacity="0.8"><tspan fill="#F2F2F2" font-size="18.67" fill-opacity="0.8">文档评审率</tspan></text>
</g>
<g id="shape-55" data-name="文本框 54">
<rect x="544.72" y="178.45" width="151.09" height="60.23" fill="none" />
<text x="620.26" y="214.98" text-anchor="middle" xml:space="preserve" font-family="&quot;思源黑体 CN Heavy&quot;, Roboto, sans-serif" font-size="37.33" fill="#FFFFFF"><tspan fill="#FFFFFF" font-size="37.33">99.5%</tspan></text>
</g>
<g id="shape-56" data-name="文本框 55">
<rect x="562.87" y="231.21" width="113.63" height="35.01" fill="none" />
<text x="572.47" y="251.88" text-anchor="start" xml:space="preserve" font-family="&quot;思源黑体 CN Normal&quot;, Roboto, sans-serif" font-size="18.67" fill="#F2F2F2" fill-opacity="0.8"><tspan fill="#F2F2F2" font-size="18.67" fill-opacity="0.8">产品设计率</tspan></text>
</g>
<g id="shape-57" data-name="文本框 56">
<rect x="772.09" y="196.72" width="151.09" height="60.23" fill="none" />
<text x="847.63" y="233.25" text-anchor="middle" xml:space="preserve" font-family="&quot;思源黑体 CN Heavy&quot;, Roboto, sans-serif" font-size="37.33" fill="#FFFFFF"><tspan fill="#FFFFFF" font-size="37.33">78.3%</tspan></text>
</g>
<g id="shape-58" data-name="文本框 57">
<rect x="790.25" y="249.48" width="113.63" height="35.01" fill="none" />
<text x="799.85" y="270.15" text-anchor="start" xml:space="preserve" font-family="&quot;思源黑体 CN Normal&quot;, Roboto, sans-serif" font-size="18.67" fill="#F2F2F2" fill-opacity="0.8"><tspan fill="#F2F2F2" font-size="18.67" fill-opacity="0.8">产品设计率</tspan></text>
</g>
<g id="shape-59" data-name="文本框 58">
<rect x="751.61" y="294.24" width="192.73" height="77.93" fill="none" />
<text x="761.21" y="312.64" text-anchor="start" xml:space="preserve" font-family="&quot;思源黑体 CN Normal&quot;, Roboto, sans-serif" font-size="16" fill="#F2F2F2" fill-opacity="0.8"><tspan fill="#F2F2F2" font-size="16" fill-opacity="0.8">与</tspan><tspan fill="#F2F2F2" font-size="16" fill-opacity="0.8">3</tspan><tspan fill="#F2F2F2" font-size="16" fill-opacity="0.8">家核心元器件供应商</tspan><tspan x="761.21" dy="19.2" fill="#F2F2F2" font-size="16" fill-opacity="0.8">签订合作协议，完成软</tspan><tspan x="761.21" dy="19.2" fill="#F2F2F2" font-size="16" fill-opacity="0.8">件功能模块划分</tspan></text>
</g>
<g id="shape-60" data-name="文本框 59">
<rect x="1050.98" y="166.31" width="151.09" height="60.23" fill="none" />
<text x="1126.52" y="202.85" text-anchor="middle" xml:space="preserve" font-family="&quot;思源黑体 CN Heavy&quot;, Roboto, sans-serif" font-size="37.33" fill="#FFFFFF"><tspan fill="#FFFFFF" font-size="37.33">68.2%</tspan></text>
</g>
<g id="shape-61" data-name="文本框 60">
<rect x="1069.13" y="219.07" width="113.63" height="35.01" fill="none" />
<text x="1078.73" y="239.74" text-anchor="start" xml:space="preserve" font-family="&quot;思源黑体 CN Normal&quot;, Roboto, sans-serif" font-size="18.67" fill="#F2F2F2" fill-opacity="0.8"><tspan fill="#F2F2F2" font-size="18.67" fill-opacity="0.8">上市预期率</tspan></text>
</g>
<g id="shape-62" data-name="文本框 61">
<rect x="962.55" y="337.8" width="151.09" height="53.01" fill="none" />
<text x="1038.09" y="369.8" text-anchor="middle" xml:space="preserve" font-family="&quot;思源黑体 CN Heavy&quot;, Roboto, sans-serif" font-size="32" fill="#FFFFFF"><tspan fill="#FFFFFF" font-size="32">68.2%</tspan></text>
</g>
<g id="shape-63" data-name="文本框 62">
<rect x="987.44" y="383.07" width="100.17" height="31.4" fill="none" />
<text x="997.04" y="401.47" text-anchor="start" xml:space="preserve" font-family="&quot;思源黑体 CN Normal&quot;, Roboto, sans-serif" font-size="16" fill="#F2F2F2" fill-opacity="0.8"><tspan fill="#F2F2F2" font-size="16" fill-opacity="0.8">性能测试率</tspan></text>
</g>
<g id="shape-73" data-name="直接连接符 72" transform="translate(1233.52 445.74) scale(1 -1) translate(-1233.52 -445.74)">
<line x1="1233.52" y1="238.68" x2="1233.52" y2="652.8" stroke="#9DB3E3" stroke-opacity="0.5" stroke-dasharray="1 3" marker-end="url(#marrow1)" fill="#305598" stroke-width="1" />
</g>
<g id="shape-75" data-name="直接连接符 74" transform="translate(988.86 536.2) scale(1 -1) translate(-988.86 -536.2)">
<line x1="988.17" y1="419.59" x2="989.55" y2="652.8" stroke="#9DB3E3" stroke-opacity="0.5" stroke-dasharray="1 3" marker-end="url(#marrow2)" fill="#305598" stroke-width="1" />
</g>
<g id="shape-79" data-name="直接连接符 78" transform="translate(743.64 513.98) scale(1 -1) translate(-743.64 -513.98)">
<line x1="742.82" y1="375.17" x2="744.46" y2="652.8" stroke="#9DB3E3" stroke-opacity="0.5" stroke-dasharray="1 3" marker-end="url(#marrow3)" fill="#305598" stroke-width="1" />
</g>
<g id="shape-83" data-name="任意多边形: 形状 82">
<path d="M 500.27 653.87 L 500.27 396.8 L 573.87 396.8 L 573.87 315.73" stroke="#9DB3E3" stroke-opacity="0.5" stroke-dasharray="1 3" marker-end="url(#marrow4)" fill="#305598" stroke-width="1" />
</g>
<g id="shape-86" data-name="任意多边形: 形状 85">
<path d="M 252.8 651.73 L 252.8 540.8 L 350.93 540.8 L 350.93 294.4 L 389.33 294.4" stroke="#9DB3E3" stroke-opacity="0.5" stroke-dasharray="1 3" marker-end="url(#marrow5)" fill="#305598" stroke-width="1" />
</g></svg>