<svg width="200" height="200" viewBox="0 0 1024 1024" xmlns="http://www.w3.org/2000/svg" xmlns:xlink="http://www.w3.org/1999/xlink" overflow="hidden"><style>
.MsftOfcThm_Accent2_Fill_v2 {
 fill:#BA3023; 
}
</style>
<path d="M864 960 160 960C71.6783 959.894 0.105796 888.322 0 800L0 352C0 263.808 71.808 192 160 192L864 192C952.256 192 1024 263.808 1024 352L1024 800C1024 888.256 952.256 960 864 960ZM160 256C107.072 256 64 299.072 64 352L64 800C64 852.928 107.072 896 160 896L864 896C916.928 896 960 852.928 960 800L960 352C960 299.072 916.928 256 864 256L160 256Z" class="MsftOfcThm_Accent2_Fill_v2" fill="#BA3023"/><path d="M672 224 608 224 608 127.744 416 128 416 224 352 224 352 127.744C352.141 92.4978 380.754 63.9997 416 64L608 64C643.328 64 672 92.608 672 127.744L672 224ZM512 578.624C494.327 578.624 480 564.297 480 546.624L480 487.104C480 469.431 494.327 455.104 512 455.104 529.673 455.104 544 469.431 544 487.104L544 546.624C544 564.297 529.673 578.624 512 578.624Z" class="MsftOfcThm_Accent2_Fill_v2" fill="#BA3023"/><path d="M512 499.968C351.616 499.968 196.032 481.536 49.6 445.248 32.2927 441.671 21.1621 424.741 24.7393 407.433 28.3164 390.126 45.2465 378.996 62.5538 382.573 63.3633 382.74 64.1659 382.939 64.96 383.168 347.84 453.312 676.16 453.312 959.04 383.168 976.018 378.262 993.759 388.049 998.665 405.027 1003.57 422.006 993.785 439.747 976.806 444.653 976.012 444.882 975.209 445.081 974.4 445.248 827.968 481.6 672.384 499.968 512 499.968Z" class="MsftOfcThm_Accent2_Fill_v2" fill="#BA3023"/></svg>