<svg width="200" height="200" viewBox="0 0 1024 1024" xmlns="http://www.w3.org/2000/svg" xmlns:xlink="http://www.w3.org/1999/xlink" overflow="hidden"><style>
.MsftOfcThm_Accent1_Fill_v2 {
 fill:#023E80; 
}
</style>
<path d="M981.333 170.667C968.533 76.8 904.533 0 810.667 0L213.333 0C119.467 0 59.7333 64 42.6667 170.667L0 853.333C0 947.2 76.8 1024 170.667 1024L853.333 1024C947.2 1024 1024 947.2 1024 853.333L981.333 170.667ZM853.333 921.6 170.667 921.6C136.533 921.6 106.667 891.733 102.4 857.6L145.067 183.467C157.867 102.4 196.267 102.4 213.333 102.4L810.667 102.4C853.333 102.4 874.667 145.067 878.933 183.467L921.6 857.6C917.333 891.733 887.467 921.6 853.333 921.6Z" class="MsftOfcThm_Accent1_Fill_v2" fill="#023E80"/><path d="M725.333 230.4C695.467 230.4 674.133 251.733 674.133 281.6 674.133 371.2 601.6 443.733 512 443.733 422.4 443.733 349.867 371.2 349.867 281.6 349.867 256 328.533 230.4 298.667 230.4 268.8 230.4 247.467 256 247.467 281.6 247.467 426.667 366.933 546.133 512 546.133 657.067 546.133 776.533 426.667 776.533 281.6 776.533 256 755.2 230.4 725.333 230.4Z" class="MsftOfcThm_Accent1_Fill_v2" fill="#023E80"/></svg>