<svg width="200" height="200" viewBox="0 0 1024 1024" xmlns="http://www.w3.org/2000/svg" xmlns:xlink="http://www.w3.org/1999/xlink" overflow="hidden"><style>
.MsftOfcThm_Background1_Fill_v2 {
 fill:#FFFFFF; 
}
</style>
<path d="M124.928 660.48 229.888 660.48 229.888 898.56 124.928 898.56ZM347.136 535.552 452.096 535.552 452.096 899.072 347.136 899.072ZM548.864 644.608 653.824 644.608 653.824 899.072 548.864 899.072ZM766.976 422.4 871.936 422.4 871.936 899.072 766.976 899.072Z" class="MsftOfcThm_Background1_Fill_v2" fill="#FFFFFF"/><path d="M666.112 124.928 776.704 243.712 535.04 473.6 351.744 307.2 351.744 306.688 351.232 306.176 349.696 308.224 61.44 536.576 94.208 578.048 349.184 375.296 535.552 544.768 536.576 543.744 537.088 544.256 812.544 282.112 913.408 390.656 926.208 130.56Z" class="MsftOfcThm_Background1_Fill_v2" fill="#FFFFFF"/></svg>