<svg width="200" height="200" viewBox="0 0 1024 1024" xmlns="http://www.w3.org/2000/svg" xmlns:xlink="http://www.w3.org/1999/xlink" overflow="hidden"><style>
.MsftOfcThm_Accent2_Fill_v2 {
 fill:#BA3023; 
}
</style>
<path d="M330.667 407.467C317.867 420.267 317.867 441.6 330.667 454.4L411.733 535.467 315.733 535.467C298.667 535.467 283.733 550.4 283.733 567.467 283.733 584.533 298.667 599.467 315.733 599.467L413.867 599.467 413.867 665.6 315.733 665.6C305.067 665.6 292.267 672 288 682.667 281.6 693.333 281.6 706.133 288 714.667 294.4 725.333 305.067 731.733 315.733 731.733L413.867 731.733 413.867 834.133C413.867 842.667 418.133 851.2 422.4 857.6 428.8 864 437.333 866.133 445.867 866.133 454.4 866.133 462.933 861.867 469.333 857.6 475.733 851.2 477.867 842.667 477.867 834.133L477.867 731.733 576 731.733C586.667 731.733 599.467 725.333 603.733 714.667 610.133 704 610.133 691.2 603.733 682.667 597.333 672 586.667 665.6 576 665.6L477.867 665.6 477.867 599.467 576 599.467C593.067 599.467 608 584.533 608 567.467 608 550.4 593.067 535.467 576 535.467L492.8 535.467 573.867 454.4C586.667 441.6 586.667 420.267 573.867 407.467 561.067 394.667 539.733 394.667 526.933 407.467L450.133 484.267 373.333 407.467C362.667 394.667 343.467 394.667 330.667 407.467Z" class="MsftOfcThm_Accent2_Fill_v2" fill="#BA3023"/><path d="M814.933 352 488.533 81.0667C465.067 61.8667 428.8 61.8667 405.333 81.0667L78.9333 352C64 364.8 55.4667 381.867 55.4667 401.067L55.4667 957.867C55.4667 994.133 85.3333 1024 121.6 1024L774.4 1024C810.667 1024 840.533 994.133 840.533 957.867L840.533 403.2C838.4 381.867 829.867 364.8 814.933 352ZM753.067 938.667 140.8 938.667 140.8 411.733 448 155.733 755.2 411.733 755.2 938.667Z" class="MsftOfcThm_Accent2_Fill_v2" fill="#BA3023"/><path d="M514.133 32 535.467 14.9333C558.933-4.26667 595.2-4.26667 618.667 14.9333L945.067 285.867C960 298.667 968.533 315.733 968.533 334.933L968.533 891.733C968.533 928 938.667 957.867 902.4 957.867L902.4 369.067C902.4 349.867 893.867 330.667 878.933 320L554.667 46.9333C541.867 38.4 529.067 34.1333 514.133 32Z" class="MsftOfcThm_Accent2_Fill_v2" fill="#BA3023"/></svg>