<svg width="200" height="200" viewBox="0 0 1024 1024" xmlns="http://www.w3.org/2000/svg" xmlns:xlink="http://www.w3.org/1999/xlink" overflow="hidden"><style>
.MsftOfcThm_Background1_Fill_v2 {
 fill:#FFFFFF; 
}
</style>
<path d="M480 79.1893C499.802 67.7568 524.198 67.7568 544 79.1893L870.827 267.861C890.641 279.301 902.841 300.448 902.827 323.328L902.827 700.715C902.826 723.579 890.628 744.706 870.827 756.139L544 944.811C524.198 956.243 499.802 956.243 480 944.811L153.173 756.139C133.359 744.699 121.159 723.552 121.173 700.672L121.173 323.328C121.174 300.464 133.372 279.336 153.173 267.904ZM522.667 116.139C516.066 112.328 507.934 112.328 501.333 116.139L174.507 304.811C167.906 308.621 163.84 315.664 163.84 323.285L163.84 700.715C163.84 708.336 167.906 715.379 174.507 719.189L501.333 907.861C507.934 911.672 516.066 911.672 522.667 907.861L849.493 719.189C856.094 715.379 860.16 708.336 860.16 700.715L860.16 323.285C860.16 315.664 856.094 308.621 849.493 304.811ZM704 682.667C715.782 682.667 725.333 692.218 725.333 704 725.333 715.782 715.782 725.333 704 725.333L320 725.333C308.218 725.333 298.667 715.782 298.667 704 298.667 692.218 308.218 682.667 320 682.667ZM405.333 469.333C417.115 469.333 426.667 478.885 426.667 490.667L426.667 618.667C426.667 630.449 417.115 640 405.333 640L362.667 640C350.885 640 341.333 630.449 341.333 618.667L341.333 490.667C341.333 478.885 350.885 469.333 362.667 469.333ZM533.333 298.667C545.115 298.667 554.667 308.218 554.667 320L554.667 618.667C554.667 630.449 545.115 640 533.333 640L490.667 640C478.885 640 469.333 630.449 469.333 618.667L469.333 320C469.333 308.218 478.885 298.667 490.667 298.667ZM661.333 384C673.115 384 682.667 393.551 682.667 405.333L682.667 618.667C682.667 630.449 673.115 640 661.333 640L618.667 640C606.885 640 597.333 630.449 597.333 618.667L597.333 405.333C597.333 393.551 606.885 384 618.667 384Z" class="MsftOfcThm_Background1_Fill_v2" fill="#FFFFFF"/></svg>