<svg width="200" height="200" viewBox="0 0 1024 1024" xmlns="http://www.w3.org/2000/svg" xmlns:xlink="http://www.w3.org/1999/xlink" overflow="hidden"><style>
.MsftOfcThm_Background1_Fill_v2 {
 fill:#FFFFFF; 
}
</style>
<path d="M516.096 220.16C560.128 220.16 595.456 256 595.456 299.52 595.456 343.552 560.128 378.88 516.096 378.88 472.064 378.88 436.736 343.552 436.736 299.52 436.736 256 472.064 220.16 516.096 220.16ZM187.904 613.376 187.904 747.52 151.04 747.52 151.04 632.832 143.36 632.832 143.36 747.52 105.472 747.52 105.472 514.56 99.84 514.56 99.84 589.824 66.56 589.824 66.56 486.912C66.56 468.992 81.408 454.144 99.328 454.144L174.08 454.144C173.056 458.752 172.544 463.872 172.544 468.48L172.544 613.376 187.904 613.376ZM147.456 342.016C176.64 342.016 200.192 365.568 200.192 394.752 200.192 406.528 196.096 417.28 189.952 425.984 187.904 428.032 186.368 429.568 184.832 431.616 175.104 441.344 162.304 446.976 147.456 446.976 118.272 446.976 94.72 423.424 94.72 394.24 94.72 365.568 118.272 342.016 147.456 342.016ZM835.072 613.376 835.072 747.52 871.936 747.52 871.936 632.832 879.616 632.832 879.616 747.52 917.504 747.52 917.504 514.56 923.136 514.56 923.136 589.824 956.416 589.824 956.416 486.912C956.416 468.992 941.568 454.144 923.648 454.144L848.896 454.144C849.92 458.752 850.432 463.872 850.432 468.48L850.432 613.376 835.072 613.376ZM875.52 342.016C846.336 342.016 822.784 365.568 822.784 394.752 822.784 406.528 826.88 417.28 833.024 425.984 835.072 428.032 836.608 429.568 838.144 431.616 847.872 441.344 860.672 446.976 875.52 446.976 904.704 446.976 928.256 423.424 928.256 394.24 928.256 365.568 904.704 342.016 875.52 342.016ZM662.016 630.272 662.016 797.184 708.096 797.184 708.096 654.336 717.824 654.336 717.824 797.184 764.928 797.184 764.928 506.88 772.096 506.88 772.096 601.088 814.08 601.088 814.08 473.088C814.08 450.56 795.648 432.128 773.12 432.128L679.936 432.128C681.472 437.76 681.984 443.904 681.984 450.048L681.984 630.784 662.016 630.784 662.016 630.272ZM585.728 593.92 585.728 480.256 577.024 480.256 577.024 832.512 521.216 832.512 521.216 659.456 509.44 659.456 509.44 832.512 452.608 832.512 452.608 480.256 443.904 480.256 443.904 593.92 393.216 593.92 393.216 438.784C393.216 411.136 415.744 389.12 442.88 389.12L587.264 389.12C614.912 389.12 636.928 411.648 636.928 438.784L636.928 593.92 585.728 593.92ZM364.032 630.272 364.032 797.184 317.952 797.184 317.952 654.336 308.224 654.336 308.224 797.184 261.12 797.184 261.12 506.88 253.952 506.88 253.952 601.088 211.968 601.088 211.968 473.088C211.968 450.56 230.4 432.128 252.928 432.128L346.112 432.128C344.576 437.76 344.064 443.904 344.064 450.048L344.064 630.784 364.032 630.784 364.032 630.272ZM313.856 291.84C349.939 291.729 379.281 320.89 379.392 356.973 379.392 357.108 379.392 357.242 379.392 357.376 379.392 372.224 374.784 385.536 366.592 396.288 364.544 398.336 362.496 400.896 360.448 403.456 348.672 415.232 332.288 422.4 314.368 422.4 278.285 422.511 248.943 393.35 248.832 357.267 248.832 357.132 248.832 356.998 248.832 356.864 247.808 321.536 277.504 291.84 313.856 291.84ZM712.704 291.84C676.621 291.729 647.279 320.89 647.168 356.973 647.168 357.108 647.168 357.242 647.168 357.376 647.168 372.224 651.776 385.536 659.968 396.288 662.016 398.336 664.064 400.896 666.112 403.456 677.888 415.232 694.272 422.4 712.192 422.4 748.275 422.511 777.617 393.35 777.728 357.267 777.728 357.132 777.728 356.998 777.728 356.864 778.24 321.536 749.056 291.84 712.704 291.84Z" class="MsftOfcThm_Background1_Fill_v2" fill="#FFFFFF"/></svg>