<svg width="200" height="200" viewBox="0 0 1024 1024" xmlns="http://www.w3.org/2000/svg" xmlns:xlink="http://www.w3.org/1999/xlink" overflow="hidden"><style>
.MsftOfcThm_Accent1_Fill_v2 {
 fill:#023E80; 
}
</style>
<path d="M919.04 579.072C959.488 579.072 992.768 546.304 992.768 505.344 992.768 464.384 960 431.616 919.04 431.616 893.44 431.616 870.912 444.416 857.6 464.384L565.248 464.384C582.656 295.936 706.048 163.84 858.112 156.16 871.424 175.616 893.952 188.416 919.04 188.416 959.488 188.416 992.768 155.648 992.768 114.688 992.768 73.728 960 40.96 919.04 40.96 893.44 40.96 870.912 54.272 857.6 74.24 660.992 81.92 501.248 250.88 483.328 464.384L441.344 464.384C430.592 412.16 399.872 365.056 354.816 334.336 335.872 321.536 310.784 326.656 297.984 345.6 285.184 364.544 290.304 389.632 309.248 402.432 343.04 425.472 363.52 464.384 363.52 505.344 363.52 573.952 307.712 629.76 239.104 629.76 170.496 629.76 114.688 573.952 114.688 505.344 114.688 478.208 123.392 452.096 139.776 430.592 153.6 412.672 150.016 387.072 131.584 373.248 113.664 359.424 88.064 363.008 74.24 381.44 47.104 417.28 32.768 460.288 32.768 505.344 32.768 619.008 125.44 711.68 239.104 711.68 338.944 711.68 421.888 640.512 440.832 546.304L482.304 546.304C500.224 757.76 656.896 925.184 850.432 936.448 861.696 962.56 887.808 980.992 918.016 980.992 958.464 980.992 991.744 948.224 991.744 907.264 991.744 866.304 958.976 833.536 918.016 833.536 898.048 833.536 879.616 841.728 866.304 854.528 710.144 851.968 582.144 717.824 564.224 546.304L856.576 546.304C870.912 566.272 893.44 579.072 919.04 579.072Z" class="MsftOfcThm_Accent1_Fill_v2" fill="#023E80"/></svg>