<svg width="200" height="200" viewBox="0 0 1024 1024" xmlns="http://www.w3.org/2000/svg" xmlns:xlink="http://www.w3.org/1999/xlink" overflow="hidden"><style>
.MsftOfcThm_Accent1_Fill_v2 {
 fill:#023E80; 
}
.MsftOfcThm_Accent1_Stroke_v2 {
 stroke:#023E80; 
}
</style>
<path d="M292.614 617.233 509.696 742.404 726.786 617.126 726.786 366.679 509.698 241.509 292.614 366.793 292.614 617.233ZM684.5 592.801 530.837 681.453 530.837 504.247 684.5 415.63 684.5 592.801ZM509.697 290.38 663.345 379.016 509.772 467.584 356.125 378.974 509.697 290.38ZM334.895 415.545 488.556 504.161 488.556 681.451 334.895 592.8 334.895 415.545Z" class="MsftOfcThm_Accent1_Fill_v2 MsftOfcThm_Accent1_Stroke_v2" stroke="#023E80" stroke-width="8.3252" fill="#023E80"/><path d="M146.337 714.54 435.184 881.132 435.24 883.273C435.75 902.709 443.714 920.914 457.665 934.532 471.642 948.175 490.083 955.69 509.589 955.69 529.074 955.69 547.501 948.189 561.474 934.568 575.421 920.973 583.397 902.796 583.935 883.385L583.995 881.247 873.052 714.548C879.609 710.799 883.674 703.78 883.674 696.222L883.674 360.622 886.275 359.744C916.572 349.522 936.928 321.191 936.928 289.247 936.928 248.223 903.554 214.847 862.533 214.847 844.442 214.847 826.99 221.45 813.39 233.44L811.33 235.256 520.323 67.434C513.882 63.751 505.638 63.744 499.166 67.442L208.068 235.256 206.008 233.441C192.408 221.45 174.956 214.846 156.867 214.846 115.843 214.846 82.467 248.222 82.467 289.246 82.467 321.192 102.824 349.523 133.125 359.744L135.726 360.622 135.726 696.222C135.727 703.779 139.792 710.798 146.337 714.54ZM509.589 913.3C491.879 913.3 477.47 898.943 477.47 881.297 477.47 863.646 491.879 849.285 509.589 849.285 527.296 849.285 541.703 863.645 541.703 881.297 541.703 898.944 527.296 913.3 509.589 913.3ZM862.534 257.24C880.241 257.24 894.648 271.598 894.648 289.246 894.648 306.893 880.242 321.25 862.534 321.25 844.824 321.25 830.415 306.893 830.415 289.246 830.415 271.598 844.824 257.24 862.534 257.24ZM231.262 289.246C231.262 284.331 230.77 279.391 229.802 274.566L229.262 271.873 509.698 110.191 790.13 271.873 789.591 274.565C788.623 279.399 788.135 284.316 788.133 289.246 788.133 321.192 808.49 349.523 838.791 359.744L841.393 360.622 841.393 684.01 839.479 685.113 571.349 839.703 569.319 836.972C555.312 818.141 532.983 806.897 509.59 806.897 485.917 806.897 464.185 817.803 449.966 836.821L447.935 839.538 178.007 683.901 178.007 360.621 180.608 359.743C210.906 349.521 231.262 321.19 231.262 289.246ZM124.748 289.246C124.748 271.598 139.157 257.24 156.867 257.24 174.574 257.24 188.981 271.598 188.981 289.246 188.981 306.893 174.575 321.25 156.867 321.25 139.157 321.251 124.748 306.893 124.748 289.246Z" class="MsftOfcThm_Accent1_Fill_v2 MsftOfcThm_Accent1_Stroke_v2" stroke="#023E80" stroke-width="8.3252" fill="#023E80"/></svg>