<svg width="200" height="200" viewBox="0 0 1024 1024" xmlns="http://www.w3.org/2000/svg" xmlns:xlink="http://www.w3.org/1999/xlink" overflow="hidden"><style>
.MsftOfcThm_Background1_Fill_v2 {
 fill:#FFFFFF; 
}
</style>
<path d="M853.333 981.333C853.333 957.769 834.231 938.667 810.667 938.667L213.333 938.667C189.769 938.663 170.664 957.763 170.66 981.327 170.657 1004.89 189.756 1024 213.32 1024 213.325 1024 213.329 1024 213.333 1024L810.667 1024C834.231 1024 853.333 1004.9 853.333 981.333Z" class="MsftOfcThm_Background1_Fill_v2" fill="#FFFFFF"/><path d="M554.667 981.333 554.667 810.667 469.333 810.667 469.333 981.333 554.667 981.333Z" class="MsftOfcThm_Background1_Fill_v2" fill="#FFFFFF"/><path d="M1024 42.6667C1024 19.1025 1004.9 9.38232e-07 981.333 9.38232e-07L42.6667 0C19.1025 0 9.38232e-07 19.1025 9.38232e-07 42.6667L0 268.8C0.00360751 292.364 19.109 311.464 42.6732 311.46 66.2322 311.457 85.3297 292.359 85.3333 268.8L85.3333 85.3333 938.667 85.3333 938.667 268.8C938.663 292.364 957.763 311.47 981.327 311.473 1004.89 311.477 1024 292.377 1024 268.813 1024 268.809 1024 268.804 1024 268.8L1024 42.6667ZM938.667 768 938.667 584.533C938.663 560.969 957.763 541.864 981.327 541.86 1004.89 541.857 1024 560.956 1024 584.52 1024 584.525 1024 584.529 1024 584.533L1024 810.667C1024 834.231 1004.9 853.333 981.333 853.333L42.6667 853.333C19.1025 853.333 1.49052e-06 834.231 9.38232e-07 810.667L0 584.533C-0.00360751 560.969 19.096 541.864 42.6601 541.86 66.2243 541.857 85.3297 560.956 85.3333 584.52 85.3333 584.525 85.3333 584.529 85.3333 584.533L85.3333 768 938.667 768Z" class="MsftOfcThm_Background1_Fill_v2" fill="#FFFFFF"/><path d="M567.168 396.501C550.512 413.163 550.512 440.171 567.168 456.832L695.168 584.832C712.117 601.202 739.128 600.733 755.499 583.783 771.468 567.249 771.468 541.036 755.499 524.501L657.664 426.667 755.499 328.832C771.869 311.883 771.399 284.872 754.45 268.501 737.916 252.532 711.702 252.532 695.168 268.501L567.168 396.501Z" class="MsftOfcThm_Background1_Fill_v2" fill="#FFFFFF"/><path d="M576 426.667C576 450.231 595.103 469.333 618.667 469.333L981.333 469.333C1004.9 469.337 1024 450.237 1024.01 426.673 1024.01 403.109 1004.91 384.004 981.346 384 981.342 384 981.338 384 981.333 384L618.667 384C595.103 384 576 403.103 576 426.667ZM456.832 396.501C473.488 413.163 473.488 440.171 456.832 456.832L328.832 584.832C311.883 601.202 284.872 600.733 268.501 583.783 252.532 567.249 252.532 541.036 268.501 524.501L366.336 426.667 268.501 328.832C252.131 311.883 252.601 284.872 269.55 268.501 286.084 252.532 312.298 252.532 328.832 268.501L456.832 396.501Z" class="MsftOfcThm_Background1_Fill_v2" fill="#FFFFFF"/><path d="M448 426.667C448 450.231 428.897 469.333 405.333 469.333L42.6667 469.333C19.1025 469.33 0.0029259 450.224 0.00653341 426.66 0.0101401 403.101 19.1076 384.004 42.6667 384L405.333 384C428.897 384 448 403.103 448 426.667Z" class="MsftOfcThm_Background1_Fill_v2" fill="#FFFFFF"/></svg>