<svg width="200" height="200" viewBox="0 0 1024 1024" xmlns="http://www.w3.org/2000/svg" xmlns:xlink="http://www.w3.org/1999/xlink" overflow="hidden"><style>
.MsftOfcThm_Background1_Fill_v2 {
 fill:#FFFFFF; 
}
</style>
<path d="M508.928 165.76C648.96 165.76 762.24 277.248 762.24 415.296 761.806 515.533 701.179 605.69 608.512 643.904 592.147 650.584 573.464 642.733 566.784 626.368 560.104 610.003 567.955 591.32 584.32 584.64 652.932 556.285 697.836 489.535 698.24 415.296 698.24 312.896 613.824 229.824 508.928 229.824 404.416 229.824 319.616 313.024 319.616 415.296 320.001 484.898 359.561 548.346 421.888 579.328 437.727 587.168 444.211 606.364 436.371 622.203 428.531 638.042 409.335 644.526 393.496 636.686 393.36 636.618 393.224 636.549 393.088 636.48 309.167 594.634 255.988 509.071 255.616 415.296 255.616 277.44 369.344 165.824 508.928 165.824Z" class="MsftOfcThm_Background1_Fill_v2" fill="#FFFFFF"/><path d="M375.488 603.584C381.392 586.926 399.682 578.208 416.34 584.112 430.892 589.27 439.686 604.083 437.248 619.328L435.84 624.96 361.344 835.52C355.44 852.178 337.15 860.896 320.492 854.992 305.94 849.834 297.146 835.021 299.584 819.776L300.992 814.208 375.488 603.52ZM583.936 584.96C598.088 578.71 614.685 583.479 623.36 596.288L626.176 601.344 721.792 817.728C728.94 833.891 721.631 852.788 705.468 859.936 691.325 866.191 674.732 861.436 666.048 848.64L663.232 843.584 567.616 627.2C560.453 611.044 567.743 592.139 583.899 584.976 583.912 584.971 583.924 584.965 583.936 584.96ZM706.624 167.104C846.72 167.104 960 278.592 960 416.64 959.564 516.879 898.902 607.026 806.208 645.184 789.843 651.864 771.16 644.013 764.48 627.648 757.8 611.283 765.651 592.6 782.016 585.92 850.643 557.608 895.577 490.877 896 416.64 896 314.24 811.52 231.168 706.624 231.168 688.951 231.168 674.624 216.841 674.624 199.168 674.624 181.495 688.951 167.168 706.624 167.168Z" class="MsftOfcThm_Background1_Fill_v2" fill="#FFFFFF"/><path d="M780.8 586.304C794.937 580.041 811.53 584.782 820.224 597.568L823.04 602.688 918.592 819.072C925.74 835.235 918.431 854.132 902.268 861.28 888.125 867.535 871.532 862.78 862.848 849.984L860.032 844.928 764.48 628.48C757.353 612.326 764.656 593.453 780.8 586.304ZM317.312 160C334.985 160 349.312 174.327 349.312 192 349.312 209.673 334.985 224 317.312 224 212.416 224 128 307.072 128 409.472 128.38 483.737 173.324 550.509 241.984 578.816 258.349 585.496 266.2 604.179 259.52 620.544 252.84 636.909 234.157 644.76 217.792 638.08 125.077 599.914 64.4107 509.735 64 409.472 64 271.488 177.28 160 317.312 160Z" class="MsftOfcThm_Background1_Fill_v2" fill="#FFFFFF"/><path d="M200.96 595.52C208.054 579.333 226.926 571.961 243.113 579.055 257.319 585.28 265.015 600.796 261.376 615.872L259.52 621.376 163.968 837.824C156.919 854.031 138.067 861.454 121.86 854.406 107.556 848.184 99.8214 832.555 103.552 817.408L105.472 811.968 200.96 595.52ZM579.456 416C595.2 416 608 430.336 608 448 608 502.272 564.096 544 512 544 459.904 544 416 502.272 416 448 416 430.336 428.8 416 444.544 416 458.624 416 470.272 427.328 472.704 442.24L473.152 448C473.152 464.448 489.6 480.064 512 480.064 532.224 480.064 547.52 467.392 550.4 452.864L550.848 448C550.848 430.4 563.648 416.064 579.456 416.064Z" class="MsftOfcThm_Background1_Fill_v2" fill="#FFFFFF"/></svg>