<svg width="200" height="200" viewBox="0 0 1024 1024" xmlns="http://www.w3.org/2000/svg" xmlns:xlink="http://www.w3.org/1999/xlink" overflow="hidden"><style>
.MsftOfcThm_Background1_Fill_v2 {
 fill:#FFFFFF; 
}
</style>
<path d="M512 552.128C371.648 552.128 257.472 437.952 257.472 297.6 257.472 157.248 371.648 43.136 512 43.136 652.288 43.136 766.528 157.312 766.528 297.664 766.528 438.016 652.288 552.128 512 552.128ZM512 107.136C406.976 107.136 321.472 192.576 321.472 297.664 321.472 402.752 406.976 488.128 512 488.128 617.088 488.128 702.528 402.688 702.528 297.6 702.528 192.512 617.088 107.136 512 107.136ZM525.376 980.864C515.541 980.872 506.246 976.366 500.16 968.64L424.96 872.512C419.506 865.514 417.168 856.581 418.496 847.808L450.176 643.776C452.605 628.195 466.022 616.705 481.792 616.704L561.024 616.704C576.814 616.71 590.24 628.233 592.64 643.84L624.32 847.872C625.57 856.028 623.621 864.351 618.88 871.104L551.616 967.232C545.789 975.517 536.397 980.569 526.272 980.864L525.376 980.864ZM483.904 843.968 523.968 895.168 559.104 844.992 533.632 680.768 509.248 680.768 483.904 843.968Z" class="MsftOfcThm_Background1_Fill_v2" fill="#FFFFFF"/><path d="M957.824 972.288C940.151 972.313 925.804 958.007 925.779 940.334 925.777 939.207 925.835 938.081 925.952 936.96 945.837 743.994 829.731 562.893 646.08 500.416 629.391 494.82 620.398 476.755 625.993 460.065 626.012 460.012 626.03 459.958 626.048 459.904 631.654 443.218 649.725 434.236 666.411 439.841 666.503 439.872 666.596 439.904 666.688 439.936 878.623 512.003 1012.59 721.014 989.568 943.68 987.865 959.933 974.167 972.279 957.824 972.288ZM66.24 972.288C49.8624 972.279 36.1353 959.905 34.432 943.616 11.6367 721.078 145.426 512.247 357.12 439.936 374.052 434.871 391.884 444.491 396.948 461.423 401.747 477.466 393.367 494.495 377.728 500.48 194.214 563.021 78.233 744.04 98.112 936.896 99.9854 954.47 87.2579 970.234 69.6843 972.108 68.5403 972.23 67.3905 972.29 66.24 972.288Z" class="MsftOfcThm_Background1_Fill_v2" fill="#FFFFFF"/></svg>