<svg width="200" height="200" viewBox="0 0 1024 1024" xmlns="http://www.w3.org/2000/svg" xmlns:xlink="http://www.w3.org/1999/xlink" overflow="hidden"><style>
.MsftOfcThm_Accent1_Fill_v2 {
 fill:#023E80; 
}
</style>
<path d="M856.7 644.9C831.3 617.9 800.2 599 765.8 586.7 778.1 579.3 789.6 570.3 799.4 559.7 824.8 532.7 838.7 496.6 838.7 459.8 838.7 382 778.1 318.1 700.3 313.2 691.3 312.4 683.9 318.9 683.9 327.9 683.1 336.9 689.6 344.3 698.6 344.3 759.2 347.6 807.6 398.4 807.6 459.8 807.6 519.6 760.9 570.4 701.1 574.5L688.8 574.5C669.1 558.1 647 545 623.3 534.4 615.9 531.1 607.7 528.7 600.4 526.2 615.1 518.8 628.3 509 639.7 496.7 671.7 464.8 688.9 423 688.9 377.9 688.9 332.8 671.7 291.1 639.7 259.1 607.8 227.2 566 209.9 520.9 209.9 475.8 209.9 434.1 227.1 402.1 259.1 370.2 291 352.9 332.8 352.9 377.9 352.9 423 370.1 464.7 402.1 496.7 413.6 508.2 427.5 518.8 441.4 526.2 434 528.7 425.8 531.1 418.5 534.4 394.7 544.2 372.6 558.2 353 574.5L334.2 574.5C274.4 569.6 227.7 519.6 227.7 459.8 227.7 399.2 275.2 348.4 336.7 344.3 345.7 343.5 352.3 336.1 351.4 327.9 350.6 318.9 343.2 312.3 335 313.2 257.2 317.3 196.6 382 196.6 459.8 196.6 497.5 210.5 532.7 235.9 559.7 245.7 570.4 257.2 579.4 269.5 586.7 235.1 598.2 204 617.8 178.6 644.9 139.9 687.5 117 743.2 117 803 117 812 124.4 818.6 132.6 818.6L194.9 818.6C203.9 818.6 210.5 811.2 210.5 803 210.5 794.8 203.1 787.4 194.9 787.4L149 787.4C156.4 694 228.5 619.5 321 608 303.8 628.5 289.9 650.6 280 675.2 266.1 707.1 259.5 741.6 259.5 777.6 259.5 786.6 266.9 793.2 275.1 793.2 284.1 793.2 290.7 785.8 290.7 777.6 290.7 653.9 389 552.3 511.1 547.4L532.4 547.4C585.6 549.9 634 570.3 671.7 602.3L672.5 603.1 673.3 603.9 674.1 604.7 674.9 604.7C722.4 647.3 752.7 708.7 752.7 777.6 752.7 786.6 760.1 793.2 768.3 793.2 777.3 793.2 783.9 785.8 783.9 777.6 783.9 742.4 777.3 708 763.4 675.2 753.6 651.4 739.6 629.3 723.3 609.7 812.6 623.6 881.4 697.4 888 788.3L842 788.3C833 788.3 826.4 795.7 826.4 803.9 826.4 812.1 833.8 819.5 842 819.5L904.3 819.5C913.3 819.5 919.9 812.1 919.9 803.9 919.8 743.2 897.7 687.5 856.7 644.9ZM531.5 514.6 511.8 514.6C441.3 509.7 384.8 450.7 384.8 378.6 384.8 303.2 446.2 241.8 521.6 241.8 597 241.8 658.4 303.2 658.4 378.6 658.5 450.7 601.9 509.7 531.5 514.6Z" class="MsftOfcThm_Accent1_Fill_v2" fill="#023E80"/><path d="M904.2 828 842 828C829.1 828 817.8 816.7 817.8 803.8 817.8 790.5 828.7 779.6 842 779.6L878.4 779.6C873.6 741.1 856.8 704.6 830.3 675.9 807.1 650.8 777.2 632.5 744.5 623.1 755.5 638.7 764.5 655.1 771.4 671.8 785.4 704.8 792.5 740.4 792.5 777.5 792.5 790.8 781.6 801.7 768.3 801.7 755 801.7 744.1 790.8 744.1 777.5 744.1 745.2 737.3 714 723.8 684.9 711.3 657.8 693.7 633.8 671.6 613.3L670.5 613.3 665.8 608.6C627.8 576.5 581.6 558.3 532.2 556L511.3 556C454.4 558.3 401.2 582.4 361.4 623.9 321.4 665.5 299.4 720.1 299.4 777.6 299.4 790.9 288.5 801.8 275.2 801.8 261.9 801.8 251 790.9 251 777.6 251 739.7 258.1 704.1 272.1 671.9 279.3 654 288.6 637.1 300.3 620.6 265.7 629.1 234 647.3 209.3 673 181.5 701.9 163.7 739.1 158.6 778.8L194.9 778.8C207.8 778.8 219.1 790.1 219.1 803 219.1 816.3 208.2 827.2 194.9 827.2L132.6 827.2C119.3 827.2 108.4 816.3 108.4 803 108.4 742.7 131 684.5 172.1 639.1L172.2 639C194.2 615.6 221.1 597 250.7 584.6 242.9 578.8 235.8 572.4 229.5 565.6 202.7 537.1 187.9 499.5 187.9 459.8 187.9 377.1 252.2 309 334.3 304.5 340.3 304 346.2 305.8 350.9 309.7 352.8 311.2 354.4 313 355.7 315.1 364.4 292 378 270.9 396 253 429.3 219.7 473.7 201.3 520.9 201.3 568.1 201.3 612.5 219.7 645.8 253 662.3 269.5 675.1 288.7 683.9 309.7 688.6 305.9 694.7 304.1 701 304.6 740.8 307.1 777.8 324.4 805 353.3 832.3 382.2 847.4 420.1 847.4 459.9 847.4 499.6 832.6 537.2 805.7 565.8 799.4 572.7 792.2 579.1 784.3 584.9 815.1 598.1 841.5 616.3 863 639.1 884.1 661.1 900.5 686.5 911.7 714.6 922.8 742.7 928.5 772.7 928.5 804 928.4 817.2 917.6 828 904.2 828ZM842 796.9C837.7 796.9 835.1 800.5 835.1 803.8 835.1 807.2 838.6 810.7 842 810.7L904.3 810.7C908.6 810.7 911.2 807.1 911.2 803.8 911.2 774.7 906 746.8 895.6 720.8 885.3 694.8 870.1 671.3 850.5 650.9L850.4 650.8C827.3 626.2 797.8 607.3 762.9 594.9L745.7 588.8 761.4 579.4C773.5 572.1 784.2 563.5 793.1 553.9 816.7 528.8 830.1 494.6 830.1 459.8 830.1 424.4 816.7 390.8 792.4 365.1 768.1 339.4 735.2 324 699.7 321.8L699.5 321.8C697.5 321.6 695.7 322.2 694.4 323.3 693.5 324.1 692.5 325.5 692.5 327.9L692.5 328.7C692.3 330.7 692.9 332.5 694 333.8 694.8 334.7 696.2 335.7 698.6 335.7L699.1 335.7C730.7 337.4 760.2 351.1 782.1 374.3 804.1 397.6 816.2 427.9 816.2 459.8 816.2 524.5 765.9 578.7 701.7 583.1L685.7 583.1 683.3 581.1C665.1 565.9 644.3 553.2 619.8 542.2 614.3 539.8 608.1 537.7 602.2 535.8L597.7 534.3 577.9 527.7 596.6 518.4C610.3 511.5 622.8 502.2 633.5 490.7L633.7 490.5C663.8 460.4 680.3 420.4 680.3 377.8 680.3 335.2 663.7 295.2 633.7 265.1 603.6 235 563.6 218.5 521 218.5 478.4 218.5 438.4 235.1 408.3 265.1 378.2 295.2 361.7 335.2 361.7 377.8 361.7 420.4 378.3 460.4 408.3 490.5 419.6 501.8 432.8 511.7 445.6 518.5L463.4 527.9 444.2 534.3 439.7 535.8C433.7 537.7 427.6 539.8 422 542.2L421.8 542.3C399.7 551.4 378.4 564.5 358.5 581.1L356.1 583.1 333.4 583.1C302.3 580.5 273.4 566.5 252.1 543.6 230.7 520.6 219 490.9 219 459.8 219 394.6 270.3 340.1 335.9 335.7 338.1 335.5 340.1 334.5 341.4 332.9 342.1 332 342.9 330.6 342.7 328.8 342.5 326.5 341.5 324.4 339.9 323.1 339 322.4 337.6 321.6 335.8 321.8L335.4 321.8C262.4 325.6 205.1 386.3 205.1 459.8 205.1 495 218.2 528.4 242.1 553.8 251 563.5 261.7 572.1 273.8 579.3L289.9 589 272.1 594.9C238.4 606.1 209.1 624.9 184.8 650.7 146.6 693 125.6 747 125.6 803 125.6 807.3 129.2 809.9 132.5 809.9L194.8 809.9C199.1 809.9 201.7 806.3 201.7 803 201.7 799.6 198.2 796.1 194.8 796.1L139.6 796.1 140.3 786.8C144 739.7 164.1 695.1 196.7 661.1 229.3 627.2 273 605.3 319.8 599.5L341.6 596.8 327.5 613.6C310 634.4 297.1 655.6 287.9 678.4L287.8 678.6C274.7 708.7 268 742 268 777.6 268 781.9 271.6 784.5 274.9 784.5 279.2 784.5 281.8 780.9 281.8 777.6 281.8 715.7 305.5 656.8 348.6 612 391.6 567.3 449 541.3 510.4 538.8L532.4 538.8C585.9 541.3 635.8 561 676.8 595.7L677.2 596.1 677.7 596.1 680.2 598.3C705.3 620.8 725.1 647.5 739 677.7 753.5 709.2 760.9 742.8 760.9 777.6 760.9 781.9 764.5 784.5 767.8 784.5 772.1 784.5 774.7 780.9 774.7 777.6 774.7 742.8 768 709.5 754.9 678.6 745.7 656.4 732.7 635.1 716.1 615.2L701.4 597.6 724 601.1C769.2 608.2 811.2 630.6 842.4 664.2 873.6 698 892.7 741.8 896 787.6L896.7 796.9 842 796.9ZM691.9 565.8 700.8 565.8C755.9 561.9 799 515.4 799 459.7 799 432.3 788.6 406.1 769.6 386.1 750.8 366.2 725.5 354.4 698.4 352.9 697.5 352.9 696.6 352.8 695.7 352.7 696.9 361 697.5 369.3 697.5 377.8 697.5 425 679.2 469.3 645.9 502.6 638.3 510.7 630 517.9 621 524 623 524.8 624.9 525.5 626.8 526.4 651.3 537.4 673.2 550.7 691.9 565.8ZM334.4 565.8 349.8 565.8C370.3 549.1 392.3 535.8 415 526.4 417 525.5 419.1 524.7 421.2 523.9 412.4 517.8 403.7 510.6 396 502.8 362.7 469.5 344.3 425.1 344.3 377.9 344.3 368.6 345 359.4 346.4 350.4 343.6 351.8 340.5 352.6 337.3 352.9L337.1 352.9C280.5 356.7 236.2 403.6 236.2 459.8 236.2 486.5 246.3 512.1 264.7 531.8 283 551.5 307.7 563.5 334.4 565.8ZM531.8 523.3 511.2 523.3C435.5 518 376.2 454.5 376.2 378.7 376.2 298.5 441.4 233.3 521.6 233.3 601.8 233.3 667 298.5 667 378.7 667 454.5 607.7 518 532 523.3L531.8 523.3ZM512.1 506 531.1 506C597.7 501.2 649.7 445.3 649.7 378.6 649.7 307.9 592.2 250.4 521.5 250.4 450.8 250.4 393.3 307.9 393.3 378.6 393.5 445.3 445.6 501.2 512.1 506Z" class="MsftOfcThm_Accent1_Fill_v2" fill="#023E80"/><path d="M557 590.1 479.7 590.1 501.3 628.7 479.7 749.2 518.3 790.9 556.9 749.2 535.3 628.7 557 590.1Z" class="MsftOfcThm_Accent1_Fill_v2" fill="#023E80"/><path d="M565 431.9C553.8 443.7 538.7 450.2 522.4 450.2 506.1 450.2 491 443.7 479.8 431.9 476.6 428.5 471.3 428.4 467.9 431.6 464.5 434.8 464.4 440.1 467.6 443.4 482 458.6 501.5 467 522.4 467 543.3 467 562.8 458.6 577.2 443.4 580.4 440 580.2 434.7 576.9 431.6 573.5 428.4 568.2 428.6 565 431.9Z" class="MsftOfcThm_Accent1_Fill_v2" fill="#023E80"/></svg>