<?xml version="1.0" encoding="UTF-8" standalone="yes"?><svg xmlns="http://www.w3.org/2000/svg" xmlns:xlink="http://www.w3.org/1999/xlink" version="1.2" baseProfile="tiny" x="0" y="0" width="200" height="200" viewBox="0 0 1024 1024"><defs/><path fill="#023e80" d="M 487.04 46.08 C 496.039 41.5872 506.627 41.5872 515.627 46.08 L 942.293 259.413 C 953.13 264.823 959.983 275.888 960 288 L 960 714.667 C 959.983 726.779 953.13 737.843 942.293 743.253 L 515.627 956.587 C 506.627 961.079 496.039 961.079 487.04 956.587 L 60.3733 743.253 C 49.5367 737.843 42.6832 726.779 42.6667 714.667 L 42.6667 288 C 42.6832 275.888 49.5367 264.823 60.3733 259.413 L 487.04 46.08 M 106.667 307.755 L 106.667 694.827 L 501.333 892.16 L 896 694.912 L 896 307.84 L 501.333 110.507 L 106.667 307.797 L 106.667 307.755"/><path fill="#023e80" d="M 46.08 273.707 C 53.9744 257.896 73.1911 251.477 89.0027 259.371 L 515.669 472.704 C 531.481 480.61 537.89 499.836 529.984 515.648 C 522.078 531.46 502.852 537.868 487.04 529.963 L 60.3733 316.629 C 44.5622 308.735 38.1439 289.518 46.0373 273.707 L 46.08 273.707 Z"/><path fill="#023e80" d="M 501.333 469.333 C 519.006 469.333 533.333 483.66 533.333 501.333 L 533.333 928 C 533.333 945.673 519.006 960 501.333 960 C 483.66 960 469.333 945.673 469.333 928 L 469.333 501.333 C 469.333 483.66 483.66 469.333 501.333 469.333 Z"/><path fill="#023e80" d="M 956.629 273.707 C 964.529 289.507 958.131 308.719 942.336 316.629 L 515.669 529.963 C 499.858 537.868 480.631 531.46 472.725 515.648 C 464.82 499.836 471.228 480.61 487.04 472.704 L 913.707 259.371 C 929.518 251.477 948.735 257.896 956.629 273.707 M 743.296 167.04 C 751.196 182.84 744.798 202.053 729.003 209.963 L 302.336 423.296 C 286.524 431.202 267.298 424.793 259.392 408.981 C 251.486 393.17 257.895 373.943 273.707 366.037 L 700.373 152.704 C 716.185 144.811 735.402 151.229 743.296 167.04"/></svg>
