<svg width="200" height="200" viewBox="0 0 1024 1024" xmlns="http://www.w3.org/2000/svg" xmlns:xlink="http://www.w3.org/1999/xlink" overflow="hidden"><style>
.MsftOfcThm_Background1_Fill_v2 {
 fill:#FFFFFF; 
}
</style>
<path d="M598.187 992 490.667 992C460.8 992 433.92 979.2 416 957.44 400.213 937.813 394.24 912.64 399.787 888.747L417.28 811.52C420.693 797.013 433.493 786.773 448.427 786.773L640.427 786.773C655.36 786.773 668.16 797.013 671.573 811.52L689.067 888.747C694.613 914.347 689.493 939.093 673.707 958.72 656.213 979.627 628.907 992 598.187 992ZM474.027 849.92 462.08 902.4C461.051 907.569 462.469 912.923 465.92 916.907 471.467 923.733 480.427 927.573 490.667 927.573L598.187 927.573C609.28 927.573 618.667 924.16 623.787 917.76 627.2 913.493 628.053 908.373 626.773 901.973L614.827 849.493 474.027 849.493 474.027 849.92Z" class="MsftOfcThm_Background1_Fill_v2" fill="#FFFFFF"/><path d="M640.427 849.92C631.467 849.92 622.933 846.507 616.533 839.253 604.877 826.014 606.017 805.866 619.093 794.027L692.907 728.32C722.347 702.293 721.067 695.893 699.307 668.587L569.173 503.467C561.92 494.507 553.387 489.387 544.427 489.387 535.467 489.387 526.933 494.507 519.68 503.467L389.547 668.587C366.507 698.027 366.933 704.427 395.093 727.467L469.76 794.027C482.987 805.547 484.267 826.027 472.32 839.253 460.373 852.48 440.32 853.76 427.093 841.813L353.28 776.107C299.52 732.16 294.827 685.227 339.2 628.907L469.333 463.787C488.533 439.467 515.84 425.387 544.427 425.387 573.013 425.387 600.32 439.467 619.52 463.787L749.653 628.907C793.6 684.373 789.333 728.747 735.573 776.107L661.76 841.813C655.36 847.36 647.68 849.92 640.427 849.92Z" class="MsftOfcThm_Background1_Fill_v2" fill="#FFFFFF"/><path d="M544.427 614.4C526.933 614.4 512.427 599.893 512.427 582.4L512.427 474.453C512.427 456.96 526.933 442.453 544.427 442.453 561.92 442.453 576.427 456.96 576.427 474.453L576.427 582.4C576.427 600.32 561.92 614.4 544.427 614.4ZM544 268.373C522.667 268.373 501.333 260.267 485.12 244.053L451.84 210.773C419.413 178.347 419.413 125.44 451.84 93.0133L485.12 59.7333C517.547 27.3067 570.453 27.3067 602.88 59.7333L636.16 93.0133C668.587 125.44 668.587 178.347 636.16 210.773L602.88 244.053C586.667 260.267 565.333 268.373 544 268.373ZM544 99.4133C538.88 99.4133 534.187 101.12 530.347 104.96L497.067 138.24C493.653 141.653 491.52 146.773 491.52 151.893 491.52 157.013 493.653 161.707 497.067 165.547L530.347 198.827C537.6 206.08 550.4 206.08 557.653 198.827L590.933 165.547C594.347 162.133 596.48 157.013 596.48 151.893 596.48 146.773 594.347 142.08 590.933 138.24L557.653 104.96C553.944 101.488 549.08 99.5121 544 99.4133ZM908.8 599.893 861.867 599.893C815.787 599.893 778.667 562.347 778.667 516.693L778.667 469.76C778.667 423.68 816.213 386.56 861.867 386.56L908.8 386.56C954.88 386.56 992 424.107 992 469.76L992 516.693C992 562.773 954.453 599.893 908.8 599.893ZM861.867 450.56C851.2 450.56 842.667 459.093 842.667 469.76L842.667 516.693C842.667 527.36 851.2 535.893 861.867 535.893L908.8 535.893C919.467 535.893 928 527.36 928 516.693L928 469.76C928 459.093 919.467 450.56 908.8 450.56L861.867 450.56ZM226.133 599.893 179.2 599.893C133.12 599.893 96 562.347 96 516.693L96 469.76C96 423.68 133.547 386.56 179.2 386.56L226.133 386.56C272.213 386.56 309.333 424.107 309.333 469.76L309.333 516.693C309.333 562.773 271.787 599.893 226.133 599.893ZM179.2 450.56C168.533 450.56 160 459.093 160 469.76L160 516.693C160 527.36 168.533 535.893 179.2 535.893L226.133 535.893C236.8 535.893 245.333 527.36 245.333 516.693L245.333 469.76C245.333 459.093 236.8 450.56 226.133 450.56L179.2 450.56Z" class="MsftOfcThm_Background1_Fill_v2" fill="#FFFFFF"/><path d="M823.04 462.933C814.933 462.933 806.827 459.947 800.427 453.547L574.293 227.413C561.909 214.881 561.909 194.719 574.293 182.187 586.667 169.813 607.147 169.813 619.52 182.187L845.653 408.32C858.027 420.693 858.027 441.173 845.653 453.547 839.253 459.947 831.147 462.933 823.04 462.933ZM264.96 462.933C256.853 462.933 248.747 459.947 242.347 453.547 229.962 441.015 229.962 420.852 242.347 408.32L468.48 182.187C480.853 169.813 501.333 169.813 513.707 182.187 526.08 194.56 526.08 215.04 513.707 227.413L287.573 453.547C281.173 459.947 273.067 462.933 264.96 462.933Z" class="MsftOfcThm_Background1_Fill_v2" fill="#FFFFFF"/></svg>