<svg width="200" height="200" viewBox="0 0 1024 1024" xmlns="http://www.w3.org/2000/svg" xmlns:xlink="http://www.w3.org/1999/xlink" overflow="hidden"><style>
.MsftOfcThm_Accent2_Fill_v2 {
 fill:#BA3023; 
}
</style>
<path d="M358.4 489.472C331.776 471.04 307.2 454.656 280.576 438.272L266.24 428.032C256 421.888 245.76 413.696 235.52 407.552 229.376 403.456 223.232 403.456 217.088 405.504 210.944 407.552 206.848 411.648 206.848 417.792 204.8 421.888 206.848 428.032 206.848 430.08 210.944 460.8 217.088 489.472 221.184 520.192L225.28 540.672C225.28 546.816 227.328 552.96 227.328 557.056 229.376 573.44 231.424 589.824 235.52 604.16 237.568 614.4 247.808 620.544 256 620.544 266.24 618.496 274.432 608.256 272.384 600.064L260.096 526.336C258.048 516.096 258.048 507.904 256 497.664L249.856 462.848 251.904 464.896 253.952 466.944 270.336 477.184C294.912 493.568 321.536 512 346.112 528.384 356.352 536.576 366.592 534.528 374.784 524.288L376.832 522.24 491.52 393.216C495.616 389.12 499.712 382.976 505.856 378.88L512 370.688 512 372.736 514.048 374.784 569.344 436.224C595.968 464.896 622.592 495.616 647.168 524.288 657.408 534.528 665.6 536.576 675.84 528.384L768 466.944 770.048 464.896C770.048 464.896 772.096 464.896 772.096 462.848L772.096 466.944C770.048 485.376 765.952 501.76 763.904 518.144L757.76 587.776 755.712 604.16C747.52 657.408 739.328 710.656 731.136 765.952 731.136 770.048 729.088 770.048 724.992 770.048L301.056 770.048 290.816 710.656 669.696 710.656C677.888 710.656 686.08 702.464 686.08 694.272 686.08 686.08 681.984 677.888 673.792 673.792 671.744 673.792 667.648 671.744 665.6 671.744L270.336 671.744C264.192 671.744 258.048 673.792 253.952 677.888 249.856 681.984 249.856 688.128 249.856 694.272 253.952 724.992 260.096 755.712 264.192 786.432 266.24 800.768 272.384 804.864 286.72 804.864L743.424 804.864C755.712 804.864 761.856 798.72 763.904 786.432 763.904 782.336 763.904 780.288 765.952 778.24 765.952 774.144 768 772.096 768 768L778.24 700.416C784.384 667.648 788.48 634.88 792.576 602.112 798.72 567.296 802.816 534.528 808.96 499.712 813.056 473.088 817.152 448.512 821.248 421.888 823.296 411.648 817.152 403.456 808.96 399.36 802.816 397.312 796.672 399.36 790.528 403.456 759.808 423.936 727.04 446.464 696.32 466.944L675.84 481.28 673.792 483.328C673.792 483.328 671.744 483.328 671.744 485.376L548.864 348.16C538.624 354.304 528.384 358.4 516.096 358.4 503.808 358.4 491.52 354.304 481.28 348.16 440.32 397.312 399.36 444.416 358.4 489.472Z" class="MsftOfcThm_Accent2_Fill_v2" fill="#BA3023"/><path d="M514.048 233.472C495.616 233.472 477.184 241.664 462.848 253.952 450.56 268.288 442.368 286.72 442.368 305.152 442.368 323.584 450.56 342.016 462.848 356.352 466.944 360.448 468.992 362.496 473.088 364.544 485.376 372.736 497.664 376.832 512 376.832 526.336 376.832 538.624 372.736 550.912 364.544 555.008 362.496 559.104 358.4 563.2 354.304 577.536 339.968 583.68 321.536 583.68 303.104 583.68 266.24 552.96 233.472 514.048 233.472ZM536.576 327.68C530.432 333.824 522.24 337.92 514.048 337.92 505.856 337.92 497.664 333.824 491.52 329.728 485.376 323.584 483.328 315.392 483.328 307.2 483.328 299.008 487.424 290.816 491.52 284.672 497.664 278.528 505.856 276.48 514.048 276.48 530.432 276.48 544.768 290.816 544.768 307.2 544.768 313.344 542.72 321.536 536.576 327.68Z" class="MsftOfcThm_Accent2_Fill_v2" fill="#BA3023"/></svg>