<svg width="200" height="200" viewBox="0 0 1024 1024" xmlns="http://www.w3.org/2000/svg" xmlns:xlink="http://www.w3.org/1999/xlink" overflow="hidden"><style>
.MsftOfcThm_Accent1_Fill_v2 {
 fill:#023E80; 
}
</style>
<path d="M917.6 488.6 710.4 339.8C703.4 334.8 693.7 339.8 693.7 348.4L693.7 905.5C693.7 916.9 703 926.2 714.4 926.2L901.3 926.2C912.7 926.2 922 916.9 922 905.5L922 497.2C922 493.8 920.3 490.6 917.6 488.6ZM842.8 784.2 772.8 784.2 772.8 714.2 842.8 714.2 842.8 784.2ZM842.8 651 772.8 651 772.8 581 842.8 581 842.8 651ZM678.3 99.4 112.4 99.4C105.1 99.4 99.1 105.3 99.1 112.7L99.1 196.6C99.1 203.9 105 209.9 112.4 209.9L154.3 209.9C158.5 209.9 161.9 213.3 161.9 217.5L161.9 905.1C161.9 916.7 171.3 926.2 183 926.2L607.6 926.2C619.2 926.2 628.7 916.8 628.7 905.1L628.7 215.8C628.7 212.5 631.4 209.9 634.6 209.9L678.2 209.9C685.5 209.9 691.5 204 691.5 196.6L691.5 112.7C691.6 105.3 685.6 99.4 678.3 99.4ZM543.7 563.7 428 563.7 428 605.6 543.7 605.6 543.7 670.9 428 670.9 428 769 362.7 769 362.7 670.9 247 670.9 247 605.6 362.7 605.6 362.7 563.7 247 563.7 247 498.4 361.9 498.4 262.7 399.2 308.8 353.1 395.3 439.6 481.8 353.1 527.9 399.2 428.7 498.4 543.6 498.4 543.6 563.7Z" class="MsftOfcThm_Accent1_Fill_v2" fill="#023E80"/></svg>