<svg width="200" height="200" viewBox="0 0 1024 1024" xmlns="http://www.w3.org/2000/svg" xmlns:xlink="http://www.w3.org/1999/xlink" overflow="hidden"><style>
.MsftOfcThm_Background1_Fill_v2 {
 fill:#FFFFFF; 
}
</style>
<path d="M234.667 213.333C211.103 213.333 192 232.436 192 256 192 279.564 211.103 298.667 234.667 298.667 258.231 298.667 277.333 279.564 277.333 256 277.333 232.436 258.231 213.333 234.667 213.333ZM106.667 256C106.667 185.308 163.974 128 234.667 128 305.359 128 362.667 185.308 362.667 256 362.667 326.692 305.359 384 234.667 384 163.974 384 106.667 326.692 106.667 256Z" class="MsftOfcThm_Background1_Fill_v2" fill="#FFFFFF"/><path d="M372.16 580.843 512 674.069 651.84 580.843 699.157 651.84 535.659 760.853C521.326 770.41 502.653 770.41 488.32 760.853L324.821 651.84 372.181 580.843Z" class="MsftOfcThm_Background1_Fill_v2" fill="#FFFFFF"/><path d="M85.3333 576C85.3333 493.525 152.192 426.667 234.667 426.667 317.141 426.667 384 493.525 384 576L384 853.333C384 876.897 364.897 896 341.333 896L128 896C104.436 896 85.3333 876.897 85.3333 853.333L85.3333 576ZM234.667 512C199.32 512 170.667 540.654 170.667 576L170.667 810.667 298.667 810.667 298.667 576C298.667 540.654 270.013 512 234.667 512ZM789.333 213.333C812.897 213.333 832 232.436 832 256 832 279.564 812.897 298.667 789.333 298.667 765.769 298.667 746.667 279.564 746.667 256 746.667 232.436 765.769 213.333 789.333 213.333ZM917.333 256C917.333 185.308 860.026 128 789.333 128 718.641 128 661.333 185.308 661.333 256 661.333 326.692 718.641 384 789.333 384 860.026 384 917.333 326.692 917.333 256ZM938.667 576C938.667 493.525 871.808 426.667 789.333 426.667 706.859 426.667 640 493.525 640 576L640 853.333C640 876.897 659.103 896 682.667 896L896 896C919.564 896 938.667 876.897 938.667 853.333L938.667 576ZM789.333 512C824.68 512 853.333 540.654 853.333 576L853.333 810.667 725.333 810.667 725.333 576C725.333 540.654 753.987 512 789.333 512Z" class="MsftOfcThm_Background1_Fill_v2" fill="#FFFFFF"/></svg>