<svg width="200" height="200" viewBox="0 0 1024 1024" xmlns="http://www.w3.org/2000/svg" xmlns:xlink="http://www.w3.org/1999/xlink" overflow="hidden"><style>
.MsftOfcThm_Accent1_Fill_v2 {
 fill:#023E80; 
}
</style>
<path d="M512 64C527.456 63.9948 540.706 75.0369 543.488 90.24L544 96 544 129.28C730.843 144.906 879.094 293.157 894.72 480L928 480C945.673 479.967 960.026 494.268 960.059 511.941 960.087 527.437 949.008 540.727 933.76 543.488L928 544 894.72 544C879.094 730.843 730.843 879.094 544 894.72L544 928C544.033 945.673 529.732 960.026 512.059 960.059 496.563 960.087 483.273 949.008 480.512 933.76L480 928 480 894.72C293.157 879.094 144.906 730.843 129.28 544L96 544C78.3269 544.033 63.9737 529.732 63.9411 512.059 63.9126 496.563 74.9916 483.273 90.24 480.512L96 480 129.28 480C144.906 293.157 293.157 144.906 480 129.28L480 96C480 78.3269 494.327 64 512 64ZM544 193.6 544 224C544.033 241.673 529.732 256.026 512.059 256.059 496.563 256.087 483.273 245.008 480.512 229.76L480 224 480 193.6C328.598 208.865 208.865 328.598 193.6 480L224 480C241.673 479.967 256.026 494.268 256.059 511.941 256.087 527.437 245.008 540.727 229.76 543.488L224 544 193.6 544C208.836 695.427 328.577 815.194 480 830.464L480 800C479.967 782.327 494.268 767.974 511.941 767.941 527.437 767.913 540.727 778.992 543.488 794.24L544 800 544 830.4C695.38 815.141 815.107 695.441 830.4 544.064L800 544C782.327 544.033 767.974 529.732 767.941 512.059 767.913 496.563 778.992 483.273 794.24 480.512L800 480 830.4 480C815.141 328.62 695.441 208.893 544.064 193.6ZM512 384C582.692 384 640 441.308 640 512 640 582.692 582.692 640 512 640 441.308 640 384 582.692 384 512 384 441.308 441.308 384 512 384ZM512 448C476.654 448 448 476.654 448 512 448 547.346 476.654 576 512 576 547.346 576 576 547.346 576 512 576 476.654 547.346 448 512 448Z" class="MsftOfcThm_Accent1_Fill_v2" fill="#023E80"/></svg>