<?xml version="1.0" encoding="UTF-8" standalone="yes"?><svg xmlns="http://www.w3.org/2000/svg" xmlns:xlink="http://www.w3.org/1999/xlink" version="1.2" baseProfile="tiny" x="0" y="0" width="200" height="200" viewBox="0 0 1024 1024"><defs/><path fill="#ffffff" d="M 311.698 598.857 C 332.398 611.803 354.158 620.8 377.819 628.59 C 326.4 661.285 287.451 695.15 260.901 730.112 C 234.35 765.074 222.391 802.816 225.024 843.301 L 530.688 843.301 L 608.073 914.286 L 217.234 914.286 C 189.504 914.294 164.309 898.153 152.722 872.96 C 141.129 847.762 142.775 765.367 190.83 698.002 C 222.866 653.093 263.131 620.032 311.662 598.857 L 311.698 598.857 M 488.85 109.714 C 619.53 109.706 725.474 215.636 725.483 346.316 C 725.491 476.996 619.561 582.94 488.881 582.949 C 488.871 582.949 488.861 582.949 488.85 582.949 C 358.17 582.94 252.24 476.996 252.249 346.316 C 252.257 215.648 358.182 109.723 488.85 109.714 M 488.85 180.699 C 397.364 179.34 322.098 252.402 320.739 343.888 C 319.379 435.374 392.441 510.641 483.928 512 C 485.568 512.024 487.209 512.024 488.85 512 C 580.336 510.641 653.399 435.374 652.039 343.888 C 650.708 254.319 578.42 182.03 488.85 180.699"/><path fill="#ffffff" d="M 770.377 592.457 C 796.818 592.457 822.199 603.063 840.704 621.97 C 879.144 661.088 879.63 723.645 841.801 763.355 L 685.97 914.286 L 530.103 763.392 C 492.27 723.67 492.755 661.101 531.2 621.97 C 569.355 583.12 631.78 582.556 670.631 620.711 C 671.055 621.127 671.474 621.547 671.89 621.97 L 682.642 632.576 L 685.934 635.721 L 695.15 626.834 L 700.05 621.97 C 718.584 603.097 743.925 592.463 770.377 592.457 M 770.377 661.431 C 762.37 661.435 754.705 664.68 749.129 670.427 L 740.535 678.949 L 685.97 731.063 L 631.406 678.949 L 622.811 670.427 C 611.422 658.682 592.668 658.394 580.923 669.783 C 580.705 669.994 580.49 670.209 580.279 670.427 C 568.313 682.731 567.882 702.187 579.291 715.008 L 685.97 818.286 L 792.649 714.971 L 794.734 712.411 C 804.008 699.518 802.714 681.833 791.662 670.427 C 786.077 664.671 778.397 661.425 770.377 661.431"/></svg>
