<svg width="200" height="200" viewBox="0 0 1024 1024" xmlns="http://www.w3.org/2000/svg" xmlns:xlink="http://www.w3.org/1999/xlink" overflow="hidden"><style>
.MsftOfcThm_Background1_Fill_v2 {
 fill:#FFFFFF; 
}
</style>
<path d="M66.53 906.72 249.666 906.72 249.666 511.657 66.53 511.657 66.53 906.722ZM939.659 684.382C951.214 669.204 957.957 647.698 957.957 622.329 957.957 596.799 951.121 575.146 939.464 559.993 948.034 547.986 953.01 532.13 953.01 514.115 953.01 489.131 943.189 464.342 926.108 446.17 911.592 430.738 884.875 412.382 839.904 412.382L707.63 412.382C641.023 412.382 613.488 407.265 602.688 403.948 603.005 403.111 603.398 402.166 603.749 401.022 611.998 379.3 627.239 338.876 627.239 188.086 627.239 145.51 599.825 64.987 495.983 64.987 468.37 64.987 437.695 67.602 419.513 87.016 399.285 108.528 403.371 138.82 409.107 180.772 412.925 208.782 417.633 243.635 417.633 287.356 417.589 422.56 296.033 515.995 294.823 516.901L285.313 524.092 285.313 889.62 289.086 895.4C298.478 909.686 352.278 956.357 649.101 956.357L839.896 956.357C884.873 956.357 911.591 938 926.106 922.584 943.183 904.354 953.008 879.624 953.008 854.614 953.008 836.599 948.028 820.768 939.462 808.732 951.12 793.565 957.955 771.935 957.955 746.382 957.956 721.047 951.213 699.54 939.658 684.382Z" class="MsftOfcThm_Background1_Fill_v2" fill="#FFFFFF"/></svg>