<svg width="200" height="200" viewBox="0 0 1024 1024" xmlns="http://www.w3.org/2000/svg" xmlns:xlink="http://www.w3.org/1999/xlink" overflow="hidden"><style>
.MsftOfcThm_Background1_Fill_v2 {
 fill:#FFFFFF; 
}
</style>
<path d="M813.292 0 126.135 0C68.9621 0.0375281 22.6232 46.3764 22.5857 103.55L22.5857 920.382C22.6232 977.567 68.9511 1023.92 126.135 1024L510.671 1024C530.398 1024 546.39 1008.01 546.39 988.281 546.39 968.555 530.398 952.563 510.671 952.563L125.863 952.563C108.203 952.525 93.9171 938.179 93.9546 920.519 93.9546 920.496 93.9547 920.473 93.9548 920.45L93.9548 103.55C93.9171 85.8785 108.192 71.5121 125.863 71.4371L813.02 71.4371C830.756 71.4371 845.133 85.8144 845.133 103.55L845.133 433.181C845.133 452.964 861.17 469.002 880.954 469.002 900.737 469.002 916.774 452.964 916.774 433.181L916.774 103.55C916.699 46.4184 870.424 0.112414 813.292 5.81056e-08Z" class="MsftOfcThm_Background1_Fill_v2" fill="#FFFFFF"/><path d="M622.113 353.852 229.617 353.852C209.853 355.071 194.819 372.082 196.038 391.846 197.153 409.91 211.554 424.311 229.617 425.425L622.113 425.425C641.878 424.206 656.911 407.195 655.692 387.431 654.578 369.367 640.177 354.966 622.113 353.852ZM229.617 515.232C209.853 516.451 194.819 533.462 196.038 553.226 197.153 571.289 211.554 585.69 229.617 586.805L398.481 586.805C418.245 586.805 434.268 570.783 434.268 551.018 434.268 531.254 418.245 515.232 398.481 515.232ZM622.113 198.459 229.617 198.459C209.834 199.321 194.496 216.058 195.358 235.841 196.168 254.416 211.042 269.291 229.617 270.1L622.113 270.1C641.896 269.238 657.235 252.501 656.372 232.718 655.563 214.143 640.688 199.269 622.113 198.459Z" class="MsftOfcThm_Background1_Fill_v2" fill="#FFFFFF"/><path d="M816.626 781.59C777.101 767.575 746.005 736.48 731.99 696.954L631.57 696.954 631.57 881.942 816.626 881.942ZM816.626 730.836 816.626 696.818 782.609 696.818C790.756 710.971 802.489 722.728 816.626 730.904ZM724.166 650.69C724.166 574.075 786.275 511.966 862.89 511.966 939.505 511.966 1001.61 574.075 1001.61 650.69 1001.61 727.305 939.505 789.414 862.89 789.414L862.89 905.074C862.89 917.85 852.534 928.206 839.758 928.206L608.438 928.206C595.663 928.206 585.306 917.85 585.306 905.074L585.306 673.754C585.306 660.979 595.663 650.622 608.438 650.622ZM770.43 650.69 839.826 650.69C852.602 650.69 862.958 661.047 862.958 673.822L862.958 743.218C914.023 743.218 955.418 701.822 955.418 650.758 955.418 599.694 914.023 558.298 862.958 558.298 811.894 558.298 770.498 599.694 770.498 650.758Z" class="MsftOfcThm_Background1_Fill_v2" fill="#FFFFFF"/></svg>