<svg width="200" height="200" viewBox="0 0 1024 1024" xmlns="http://www.w3.org/2000/svg" xmlns:xlink="http://www.w3.org/1999/xlink" overflow="hidden"><style>
.MsftOfcThm_Accent1_Fill_v2 {
 fill:#023E80; 
}
</style>
<path d="M727.04 931.84C706.56 931.84 686.08 916.48 686.08 890.88L686.08 803.84C686.08 768 670.72 737.28 645.12 711.68 619.52 686.08 588.8 670.72 552.96 670.72L215.04 670.72C179.2 670.72 148.48 686.08 122.88 711.68 97.28 737.28 81.92 768 81.92 803.84L81.92 890.88C81.92 911.36 66.56 931.84 40.96 931.84 15.36 931.84-1.42109e-14 916.48-1.42109e-14 890.88L-1.42109e-14 803.84C-1.42109e-14 747.52 20.48 696.32 61.44 655.36 102.4 614.4 153.6 593.92 209.92 593.92L552.96 593.92C609.28 593.92 660.48 614.4 701.44 655.36 742.4 696.32 762.88 747.52 762.88 803.84L762.88 890.88C762.88 916.48 747.52 931.84 727.04 931.84ZM384 506.88C266.24 506.88 174.08 414.72 174.08 296.96 174.08 179.2 266.24 87.04 384 87.04 501.76 87.04 593.92 179.2 593.92 296.96 593.92 414.72 501.76 506.88 384 506.88ZM384 163.84C312.32 163.84 250.88 225.28 250.88 296.96 250.88 368.64 312.32 430.08 384 430.08 455.68 430.08 517.12 368.64 517.12 296.96 517.12 225.28 455.68 163.84 384 163.84ZM983.04 931.84C962.56 931.84 942.08 916.48 942.08 890.88L942.08 803.84C942.08 773.12 931.84 747.52 916.48 721.92 901.12 696.32 875.52 680.96 844.8 675.84 824.32 670.72 814.08 650.24 819.2 629.76 824.32 609.28 844.8 599.04 865.28 604.16 911.36 614.4 952.32 640 977.92 680.96 1008.64 716.8 1024 762.88 1024 808.96L1024 896C1018.88 916.48 1003.52 931.84 983.04 931.84ZM680.96 501.76C665.6 501.76 650.24 491.52 645.12 471.04 640 450.56 650.24 430.08 670.72 424.96 701.44 419.84 727.04 399.36 742.4 378.88 762.88 353.28 768 327.68 768 296.96 768 266.24 757.76 240.64 742.4 215.04 727.04 189.44 701.44 174.08 670.72 168.96 650.24 163.84 640 143.36 645.12 122.88 650.24 102.4 670.72 92.16 691.2 97.28 737.28 107.52 778.24 133.12 803.84 174.08 834.56 209.92 849.92 256 849.92 302.08 849.92 348.16 834.56 394.24 803.84 430.08 773.12 465.92 737.28 491.52 691.2 506.88 691.2 501.76 686.08 501.76 680.96 501.76Z" class="MsftOfcThm_Accent1_Fill_v2" fill="#023E80"/></svg>