<svg width="200" height="200" viewBox="0 0 1024 1024" xmlns="http://www.w3.org/2000/svg" xmlns:xlink="http://www.w3.org/1999/xlink" overflow="hidden"><style>
.MsftOfcThm_Accent2_Fill_v2 {
 fill:#BA3023; 
}
</style>
<path d="M999.301 373.243 739.231 113.174C732.823 106.752 723.757 102.995 714.681 102.995 695.221 102.995 679.746 118.701 679.746 137.506L679.746 249.401 543.956 252.296C524.726 252.296 509.456 267.999 509.456 287 509.456 306.025 524.725 321.511 543.956 321.511L543.956 321.616 714.681 321.511C733.706 321.511 747.961 306.025 747.961 287L748.076 283.233 748.961 221.312 926.096 397.791 748.962 574.71 748.962 511.892C749.026 493.03 733.787 477.687 714.925 477.623 714.844 477.623 714.763 477.623 714.682 477.623L343.139 477.623 343.139 365.705C343.139 346.486 327.653 331 308.859 331 299.346 331 290.499 334.756 284.309 341.178L24.023 601.466C10.754 614.94 10.754 636.848 24.023 650.322L284.309 910.391C297.808 924.542 319.692 924.542 333.409 910.391 340.037 903.992 343.139 895.145 343.139 886.299L343.139 774.163 479.148 774.163C498.378 774.163 513.647 759.355 513.647 739.678 513.647 720.653 498.379 705.166 479.148 705.166L308.859 705.166C289.399 705.166 274.142 720.652 274.142 739.678L274.142 802.907 97.442 626.015 274.142 448.88 274.142 511.892C274.142 531.135 289.399 546.838 308.859 546.838L679.747 546.838 679.747 658.732C679.747 667.142 683.285 676.207 690.143 683.064 703.414 696.105 725.528 696.105 739.232 683.064L998.865 423.216 1000.3 422.101C1013.79 409.061 1012.79 386.716 999.301 373.243Z" class="MsftOfcThm_Accent2_Fill_v2" fill="#BA3023"/></svg>