<svg width="200" height="200" viewBox="0 0 1024 1024" xmlns="http://www.w3.org/2000/svg" xmlns:xlink="http://www.w3.org/1999/xlink" overflow="hidden"><style>
.MsftOfcThm_Accent2_Fill_v2 {
 fill:#BA3023; 
}
</style>
<path d="M714.667 298.667C714.667 268.8 691.2 245.333 661.333 245.333 631.467 245.333 608 268.8 608 298.667 608 328.533 631.467 352 661.333 352 691.2 352 714.667 328.533 714.667 298.667ZM778.667 682.667 245.333 682.667C215.467 682.667 192 659.2 192 629.333 192 599.467 215.467 576 245.333 576L661.333 576C661.333 576 825.6 445.867 825.6 317.867 825.6 226.133 753.067 149.333 661.333 149.333 569.6 149.333 497.067 224 497.067 317.867 497.067 401.067 565.333 486.4 614.4 535.467L245.333 535.467C192 533.333 149.333 576 149.333 629.333 149.333 682.667 192 725.333 245.333 725.333L778.667 725.333C808.533 725.333 832 748.8 832 778.667 832 808.533 808.533 832 778.667 832L245.333 832 245.333 874.667 778.667 874.667C832 874.667 874.667 832 874.667 778.667 874.667 725.333 832 682.667 778.667 682.667ZM539.733 317.867C539.733 249.6 593.067 192 661.333 192 727.467 192 782.933 247.467 782.933 317.867 782.933 390.4 710.4 475.733 661.333 520.533 612.267 473.6 539.733 390.4 539.733 317.867Z" class="MsftOfcThm_Accent2_Fill_v2" fill="#BA3023"/></svg>