<svg width="200" height="200" viewBox="0 0 1024 1024" xmlns="http://www.w3.org/2000/svg" xmlns:xlink="http://www.w3.org/1999/xlink" overflow="hidden"><style>
.MsftOfcThm_Accent2_Fill_v2 {
 fill:#BA3023; 
}
</style>
<path d="M768.8 192C804 192 832.8 220.8 832.8 256 832.8 291.2 804 320 768.8 320 733.6 320 704.8 291.2 704.8 256 704.8 220.8 733.6 192 768.8 192M255.2 192C290.4 192 319.2 220.8 319.2 256 319.2 291.2 290.4 320 255.2 320 220 320 191.2 291.2 191.2 256 191.2 220.8 220 192 255.2 192M768 512C803.2 512 832 540.8 832 576L832 832 704 832 704 576C704 540.8 732.8 512 768 512M256 512C291.2 512 320 540.8 320 576L320 832 192 832 192 576C192 540.8 220.8 512 256 512M768.8 128C698.4 128 640.8 185.6 640.8 256 640.8 326.4 698.4 384 768.8 384 839.2 384 896.8 326.4 896.8 256 896.8 185.6 839.2 128 768.8 128ZM255.2 128C184.8 128 127.2 185.6 127.2 256 127.2 326.4 184.8 384 255.2 384 325.6 384 383.2 326.4 383.2 256 383.2 185.6 326.4 128 255.2 128ZM768 448C697.6 448 640 505.6 640 576L640 627.2 511.2 701.6 384 628 384 579.2C384 516.8 340.8 461.6 280 450.4 199.2 435.2 128 497.6 128 576L128 864C128 881.6 142.4 896 160 896L352 896C369.6 896 384 881.6 384 864L384 701.6 494.4 765.6C495.2 765.6 495.2 766.4 496 766.4 500.8 769.6 506.4 770.4 512 770.4 517.6 770.4 522.4 768.8 528 766.4L640 700.8 640 864C640 881.6 654.4 896 672 896L864 896C881.6 896 896 881.6 896 864L896 576C896 505.6 838.4 448 768 448Z" class="MsftOfcThm_Accent2_Fill_v2" fill="#BA3023"/></svg>