<svg width="200" height="200" viewBox="0 0 1024 1024" xmlns="http://www.w3.org/2000/svg" xmlns:xlink="http://www.w3.org/1999/xlink" overflow="hidden"><style>
.MsftOfcThm_Accent1_Fill_v2 {
 fill:#023E80; 
}
</style>
<path d="M489.591 874.207C432.679 815.75 401.319 737.08 402.407 655.501 400.134 485.681 535.937 346.192 705.757 343.898L705.819 343.898C875.639 345.864 1011.71 485.128 1009.74 654.948L1009.74 655.501C1012.02 825.321 876.192 964.811 706.392 967.084L706.085 967.084C624.431 966.101 546.566 932.678 489.591 874.207ZM575.545 779.037 674.955 779.037 674.955 859.953 732.299 859.953 732.299 777.89 828.064 777.89 828.064 729.455 732.299 729.455 732.299 681.409 828.842 681.409 828.842 634.776 749.052 634.776 840.434 468.519 843.424 463.01 782.434 463.01 701.989 615.32C687.673 585.583 633.319 470.69 628.507 461.904L564.793 461.904 656.155 633.813 575.853 633.813 575.853 681.552 675.262 681.552 675.262 730.704 575.853 730.704 575.545 779.037ZM40.9969 965.282C26.026 965.097 14.0452 952.789 14.25 937.839L14.25 84.396C14.0247 69.4252 25.985 57.1167 40.9354 56.8914L704.283 56.8914C711.471 56.9528 718.352 59.902 723.349 65.0834 728.367 70.2444 731.132 77.1666 731.091 84.3551L731.091 282.581 706.064 282.581C667.767 282.642 629.735 288.848 593.404 300.931L593.404 261.343C593.441 258.031 590.855 255.282 587.547 255.117L157.364 255.117C154.657 255.077 152.196 256.68 151.138 259.172L151.138 332.491C151.32 335.858 153.998 338.554 157.364 338.758L513.061 338.758C467.328 368.184 428.707 407.407 399.991 453.589L399.991 432.003C400.214 428.803 397.804 426.027 394.605 425.798 394.441 425.777 394.297 425.777 394.134 425.777L157.385 425.777C153.944 425.777 151.159 428.562 151.159 432.003L151.159 505.383C151.338 508.684 154.079 511.263 157.385 511.24L372.896 511.24C306.09 674.855 360.71 862.923 504.766 965.282L40.9969 965.282ZM151.138 603.011 151.138 676.391C151.32 679.758 153.998 682.455 157.364 682.658L286.204 682.658C289.501 682.453 292.082 679.709 292.061 676.391L290.238 676.391 290.238 603.011C290.238 599.693 287.638 596.949 284.32 596.785L157.344 596.785C154.005 597.007 151.349 599.672 151.138 603.011Z" class="MsftOfcThm_Accent1_Fill_v2" fill="#023E80"/></svg>