<svg width="200" height="200" viewBox="0 0 1024 1024" xmlns="http://www.w3.org/2000/svg" xmlns:xlink="http://www.w3.org/1999/xlink" overflow="hidden"><style>
.MsftOfcThm_Accent1_Fill_v2 {
 fill:#023E80; 
}
</style>
<path d="M304.356 259.232C333.059 259.232 356.331 235.96 356.331 207.257 356.331 178.554 333.059 155.281 304.356 155.281 275.653 155.281 252.38 178.554 252.38 207.257 252.38 235.96 275.653 259.232 304.356 259.232ZM304.356 308.234C248.501 308.234 203.248 262.982 203.248 207.127 203.248 151.273 248.501 106.02 304.356 106.02 360.21 106.02 405.463 151.273 405.463 207.127 405.463 262.982 360.21 308.234 304.356 308.234ZM294.141 701.156C243.846 701.414 220.574 645.43 222.642 622.287L222.642 465.196C219.539 409.212 263.111 383.612 301.123 381.543 342.756 379.216 386.974 406.626 387.749 466.618L387.749 622.287C393.438 655.644 348.703 704.517 314.958 701.156 314.699 701.156 392.145 708.137 387.749 622.287 392.663 647.37 360.081 701.543 316.251 701.156L314.958 701.156 314.958 917.204 369.648 917.204 369.648 738.78C408.695 714.602 441.018 671.418 441.018 622.158L442.311 465.196C443.345 415.547 417.358 369.261 374.562 344.178 331.766 319.095 278.626 319.095 235.83 344.178 193.034 369.261 167.046 415.547 168.081 465.196L168.081 622.158C168.081 669.479 189.543 710.723 239.451 738.392 239.58 738.521 239.451 738.521 239.451 738.392L239.451 917.204 294.141 917.204M484.978 542.772 484.978 485.495 648.145 485.495 648.145 542.772 484.978 542.772Z" class="MsftOfcThm_Accent1_Fill_v2" fill="#023E80"/><path d="M659.523 802.004 659.653 860.574C659.653 861.996 658.489 863.16 657.067 863.16L475.281 863.16C473.859 863.16 472.695 861.996 472.695 860.574L472.695 164.719C472.695 163.297 473.859 162.133 475.281 162.133L655.257 162.133C656.679 162.133 657.842 163.297 657.842 164.719L657.842 215.402C657.842 216.824 656.679 217.988 655.257 217.988L528.549 217.988C527.127 217.988 525.964 219.152 525.964 220.574L525.964 802.004C525.964 803.426 527.127 804.59 528.549 804.59L656.937 804.59C658.36 804.59 659.523 803.426 659.523 802.004Z" class="MsftOfcThm_Accent1_Fill_v2" fill="#023E80"/><path d="M660.04 165.754 660.04 230.4C660.04 230.788 660.299 238.804 660.687 238.804L819.717 238.804C820.105 238.804 820.364 238.545 820.364 238.158L820.364 165.107C820.364 164.719 820.105 157.996 819.717 157.996L660.04 157.996 660.04 165.754ZM651.378 110.675 828.38 110.675C846.739 110.675 861.608 125.543 861.608 143.903L861.608 255.095C861.608 263.758 858.246 272.032 852.04 278.109 845.964 284.186 837.689 287.677 829.026 287.547L652.024 287.547C633.665 287.547 618.925 272.679 618.925 254.448L618.925 143.257C618.925 125.156 633.535 110.675 651.378 110.675ZM660.04 475.927 660.04 548.461C660.04 548.849 660.299 556.865 660.687 556.865L819.717 556.865C820.105 556.865 820.364 548.849 820.364 548.461L820.364 483.168C820.364 482.78 820.105 476.057 819.717 476.057L660.04 476.057 660.04 475.927ZM651.378 427.313 828.38 427.313C846.739 427.313 861.608 442.182 861.608 460.541L861.608 571.733C861.608 580.396 858.246 588.671 852.04 594.747 845.964 600.824 837.689 604.186 829.026 604.186L652.024 604.186C633.665 604.186 618.925 589.317 618.925 571.087L618.925 459.895C618.925 441.794 633.535 427.313 651.378 427.313ZM662.238 798.125 662.238 870.141C662.238 870.529 662.497 870.788 662.885 870.788L817.519 870.788C817.907 870.788 818.166 862.772 818.166 862.384L818.166 798.772C818.166 798.384 817.907 791.661 817.519 791.661L662.109 791.661 662.238 798.125ZM651.378 742.141 828.38 742.141C846.739 742.141 861.608 757.01 861.608 775.37L861.608 885.786C861.608 892.121 860.057 898.457 856.695 903.758 850.618 913.455 840.145 919.014 829.156 919.014L652.024 919.014C633.665 919.014 618.925 904.145 618.925 885.915L618.925 774.723C618.925 756.752 633.535 742.141 651.378 742.141Z" class="MsftOfcThm_Accent1_Fill_v2" fill="#023E80"/></svg>