<svg width="200" height="200" viewBox="0 0 1024 1024" xmlns="http://www.w3.org/2000/svg" xmlns:xlink="http://www.w3.org/1999/xlink" overflow="hidden"><style>
.MsftOfcThm_Accent2_Fill_v2 {
 fill:#BA3023; 
}
</style>
<path d="M985.6 566.4C937.6 451.2 857.6 355.2 755.2 297.6L832 217.6C844.8 204.8 854.4 188.8 857.6 169.6 860.8 150.4 857.6 131.2 851.2 115.2 844.8 99.2 832 83.2 816 73.6 800 64 780.8 57.6 761.6 60.8L652.8 64C636.8 44.8 614.4 28.8 588.8 16 563.2 6.4 537.6 0 512 0 486.4 0 460.8 6.4 435.2 16 409.6 25.6 390.4 41.6 371.2 64L262.4 57.6C243.2 57.6 224 60.8 208 70.4 192 80 179.2 96 172.8 112 163.2 131.2 163.2 150.4 166.4 166.4 169.6 182.4 179.2 201.6 192 217.6L272 297.6C169.6 355.2 86.4 451.2 41.6 566.4 0 668.8-9.6 784 12.8 908.8 19.2 940.8 35.2 969.6 60.8 992 86.4 1014.4 118.4 1024 150.4 1024L876.8 1024C908.8 1024 940.8 1011.2 966.4 992 992 969.6 1008 940.8 1014.4 908.8 1033.6 784 1024 668.8 985.6 566.4ZM640 697.6C649.6 697.6 659.2 700.8 665.6 707.2 672 713.6 675.2 723.2 675.2 732.8 675.2 742.4 672 752 665.6 758.4 659.2 764.8 649.6 768 640 768L547.2 768 547.2 873.6C547.2 883.2 544 892.8 537.6 899.2 531.2 905.6 521.6 908.8 512 908.8 502.4 908.8 492.8 905.6 486.4 899.2 480 892.8 476.8 883.2 476.8 873.6L476.8 768 384 768C374.4 768 364.8 764.8 358.4 758.4 352 752 348.8 742.4 348.8 732.8 348.8 723.2 352 713.6 358.4 707.2 364.8 700.8 374.4 697.6 384 697.6L476.8 697.6 476.8 627.2 384 627.2C374.4 627.2 364.8 624 358.4 617.6 352 611.2 348.8 601.6 348.8 592 348.8 582.4 352 572.8 358.4 566.4 364.8 560 374.4 556.8 384 556.8L438.4 556.8 384 460.8C380.8 451.2 377.6 444.8 380.8 435.2 384 425.6 390.4 419.2 396.8 412.8 403.2 409.6 412.8 406.4 422.4 409.6 432 412.8 438.4 419.2 444.8 425.6L512 544 579.2 425.6C582.4 419.2 592 412.8 601.6 409.6 611.2 406.4 620.8 409.6 627.2 412.8 633.6 416 640 425.6 643.2 435.2 646.4 444.8 643.2 454.4 640 460.8L582.4 560 636.8 560C646.4 560 656 563.2 662.4 569.6 668.8 576 672 585.6 672 595.2 672 604.8 668.8 614.4 662.4 620.8 656 627.2 646.4 630.4 636.8 630.4L544 630.4 544 700.8 640 700.8Z" class="MsftOfcThm_Accent2_Fill_v2" fill="#BA3023"/></svg>