<svg width="200" height="200" viewBox="0 0 1024 1024" xmlns="http://www.w3.org/2000/svg" xmlns:xlink="http://www.w3.org/1999/xlink" overflow="hidden"><style>
.MsftOfcThm_Background1_Fill_v2 {
 fill:#FFFFFF; 
}
</style>
<path d="M384 960 384 896 576 896 576 960 384 960ZM832 416C832.28 468.059 820.817 519.511 798.464 566.528 776.359 613.242 744.083 654.418 704 687.04 684.672 703.04 669.184 721.856 657.472 743.552 645.823 765.2 639.814 789.433 640 814.016L640 832.064 320 832.064 320 817.984C320 793.344 315.136 769.984 305.472 748.032 296.133 726.42 281.522 707.495 262.976 692.992 211.75 652.94 172.645 599.457 150.016 538.496 127.38 477.662 121.847 411.789 134.016 348.032 146.962 280.631 179.459 218.531 227.456 169.472 275.28 120.103 336.772 86.1593 404.032 72 455.444 60.6783 508.741 61.0282 560 73.024 611.34 85.0082 659.246 108.611 700.032 142.016 741.168 174.944 774.463 216.612 797.504 264 820.544 311.36 832.064 361.984 832.064 416L832 416ZM288 448C288.64 380.672 306.176 326.848 340.48 286.528 374.848 246.208 421.312 225.344 480 224L480 160C401.984 161.984 340.16 189.504 294.464 242.56 248.832 295.424 225.344 363.904 224 448L288 448Z" class="MsftOfcThm_Background1_Fill_v2" fill="#FFFFFF"/></svg>