<svg width="200.195" height="200" viewBox="0 0 1025 1024" xmlns="http://www.w3.org/2000/svg" xmlns:xlink="http://www.w3.org/1999/xlink" overflow="hidden"><style>
.MsftOfcThm_Accent1_Fill_v2 {
 fill:#023E80; 
}
</style>
<path d="M401.902 326.2C414.402 338.7 434.702 338.6 447.202 326.1L585.202 187.5C616.003 161.6 649.202 143.9 684.003 134.8L684.102 134.8C721.503 124.9 759.902 126 798.503 138.1L798.602 138.1C833.102 148.8 865.602 168.4 892.503 194.8 919.003 220.7 938.902 252.2 950.102 286 961.902 322.3 963.202 358.5 953.902 393.5 949.402 410.6 959.503 428.1 976.602 432.6 979.402 433.3 982.102 433.7 984.802 433.7 999.003 433.7 1011.9 424.2 1015.7 409.9 1028.2 362.7 1026.6 314.3 1010.9 266.1L1010.8 265.9C996.302 222.5 970.902 182.1 937.202 149.1 903.003 115.6 861.702 90.7 817.503 77 768.003 61.4 716.102 60 667.602 72.9 623.102 84.5 581.102 107 542.702 139.5L541.702 140.4 512.602 169.6 498.402 155.5 496.902 154 496.302 153.4C453.802 113 406.702 85.8 356.302 72.5 307.902 59.9 256.202 61.4 206.802 76.9 162.202 90.8 120.802 115.7 87.1025 149.1 53.1025 182.4 27.6025 222.7 13.2025 265.8L13.2025 265.9C-2.59752 313.9-4.19752 362.3 8.30248 409.8L8.30248 410C20.9025 456.7 48.2025 502.3 87.4025 541.9L308.302 762.8C314.502 769 322.702 772.2 330.902 772.2 339.102 772.2 347.302 769.1 353.502 762.8 366.002 750.3 366.002 730 353.502 717.5L132.902 496.7C101.602 465.1 79.9025 429.3 70.2025 393.4 60.9025 358.1 62.2025 321.9 74.0025 286 85.2025 252.5 105.202 221 131.902 194.8L132.002 194.7C158.402 168.5 190.902 148.9 225.802 138.1L225.902 138.1C263.802 126.2 303.302 124.9 340.002 134.5 379.702 145 417.302 166.9 451.902 199.6L467.502 215 401.702 281.1C389.302 293.4 389.402 313.7 401.902 326.2Z" class="MsftOfcThm_Accent1_Fill_v2" fill="#023E80"/><path d="M878.402 414.1C867.702 403.4 853.503 397.5 838.402 397.5 823.302 397.5 809.102 403.4 798.302 414.1L463.002 749.4C456.202 756.2 451.202 764.7 448.502 774L398.502 950.5C393.002 970.1 398.402 991.3 412.702 1005.8 423.302 1016.5 438.002 1022.6 453.002 1022.6 458.002 1022.6 463.002 1021.9 467.802 1020.6L646.102 972.4C655.602 969.8 664.402 964.7 671.302 957.8L1006.6 622.5C1017.3 611.8 1023.2 597.6 1023.2 582.4 1023.2 567.3 1017.3 553 1006.6 542.3L878.402 414.1ZM463.702 955.4 503.802 813.9 606.702 916.8 463.702 955.4ZM659.503 879.1 541.602 761.3 838.302 464.6 956.202 582.5 659.503 879.1Z" class="MsftOfcThm_Accent1_Fill_v2" fill="#023E80"/></svg>