<svg width="200" height="200" viewBox="0 0 1024 1024" xmlns="http://www.w3.org/2000/svg" xmlns:xlink="http://www.w3.org/1999/xlink" overflow="hidden"><style>
.MsftOfcThm_Background1_Fill_v2 {
 fill:#FFFFFF; 
}
</style>
<path d="M591.573 593.493 296.021 593.493C277.163 593.493 261.931 609.067 261.931 628.352 261.931 647.637 277.205 663.253 296.064 663.253L591.531 663.253C610.389 663.253 625.664 647.637 625.664 628.352 625.877 609.29 610.597 593.664 591.535 593.451 591.534 593.451 591.532 593.451 591.531 593.451M815.061 415.019C760.448 415.019 714.453 376.704 701.355 324.992 697.165 307.432 681.561 294.977 663.509 294.784 645.48 294.976 629.895 307.413 625.707 324.949 612.565 376.704 566.571 415.019 511.957 415.019 457.387 415.019 411.392 376.704 398.251 324.992 394.075 307.423 378.463 294.961 360.405 294.784 342.369 294.996 326.788 307.447 322.603 324.992 309.461 376.704 263.467 415.019 208.939 415.019 145.963 415.019 94.5067 364.16 91.6053 300.459L172.288 116.352 851.712 116.352 932.437 300.459C929.493 364.16 877.995 415.019 815.104 415.019M867.669 46.5493 156.331 46.5493C137.131 46.5493 119.979 58.88 113.493 77.3973L23.2533 288.725 23.2533 294.784C23.2533 373.461 70.2293 441.131 136.917 469.973L136.917 896C136.917 940.971 172.544 977.493 216.491 977.493L671.147 977.493C715.093 977.493 750.72 940.971 750.72 896L750.72 663.253C750.933 644.206 735.676 628.586 716.629 628.352 697.771 628.352 682.496 643.968 682.496 663.253L682.496 896C682.567 902.346 677.492 907.554 671.147 907.648L216.491 907.648C210.129 907.578 205.028 902.363 205.099 896.001 205.099 896.001 205.099 896 205.099 896L205.099 484.693 208.939 484.821C271.403 484.821 326.784 453.077 360.448 404.437 394.155 453.077 449.493 484.821 512 484.821 574.549 484.821 629.888 453.077 663.552 404.437 697.216 453.077 752.597 484.821 815.019 484.821 816.341 484.821 817.579 484.693 818.859 484.651L818.859 942.549C818.859 961.835 834.176 977.451 852.992 977.451 871.765 977.451 887.083 961.835 887.083 942.549L887.083 469.973C953.771 441.131 1000.75 373.461 1000.75 294.784L1000.75 288.725 910.507 77.3973C904.235 59.0507 887.04 46.6773 867.669 46.5493M591.616 733.056 295.979 733.056C277.12 733.056 261.888 748.715 261.888 768 261.888 787.285 277.163 802.901 296.021 802.901L591.488 802.901C610.347 802.901 625.621 787.285 625.621 768 625.835 748.938 610.555 733.312 591.492 733.099 591.491 733.099 591.489 733.099 591.488 733.099" class="MsftOfcThm_Background1_Fill_v2" fill="#FFFFFF"/></svg>