<svg width="200" height="200" viewBox="0 0 1024 1024" xmlns="http://www.w3.org/2000/svg" xmlns:xlink="http://www.w3.org/1999/xlink" overflow="hidden"><style>
.MsftOfcThm_Background1_Fill_v2 {
 fill:#FFFFFF; 
}
</style>
<path d="M185.6 489.6 137.6 489.6C134.4 489.6 128 492.8 128 499.2L128 883.2C128 886.4 131.2 892.8 137.6 892.8L185.6 892.8C188.8 892.8 195.2 889.6 195.2 883.2L195.2 499.2C192 492.8 188.8 489.6 185.6 489.6ZM403.2 726.4C409.6 726.4 416 723.2 416 716.8L416 668.8C416 665.6 409.6 659.2 403.2 659.2L140.8 659.2C134.4 659.2 128 662.4 128 668.8L128 716.8C128 720 134.4 726.4 140.8 726.4L403.2 726.4ZM915.2 179.2 915.2 131.2C915.2 128 912 121.6 905.6 121.6L521.6 121.6C518.4 121.6 512 124.8 512 131.2L512 179.2C512 182.4 515.2 188.8 521.6 188.8L905.6 188.8C912 188.8 915.2 182.4 915.2 179.2ZM678.4 377.6C678.4 384 681.6 387.2 688 387.2L736 387.2C739.2 387.2 745.6 384 745.6 377.6L745.6 134.4C745.6 128 742.4 124.8 736 124.8L688 124.8C684.8 124.8 678.4 128 678.4 134.4L678.4 377.6ZM483.2 467.2 483.2 883.2C483.2 892.8 489.6 899.2 499.2 899.2L899.2 899.2C908.8 899.2 915.2 892.8 915.2 883.2L915.2 467.2C915.2 457.6 908.8 451.2 899.2 451.2L499.2 451.2C489.6 451.2 483.2 460.8 483.2 467.2ZM844.8 524.8 844.8 828.8 556.8 828.8 556.8 524.8 844.8 524.8Z" class="MsftOfcThm_Background1_Fill_v2" fill="#FFFFFF"/><path d="M313.6 323.2 313.6 579.2C313.6 588.8 320 595.2 329.6 595.2L585.6 595.2C595.2 595.2 601.6 588.8 601.6 579.2L601.6 323.2C601.6 313.6 595.2 307.2 585.6 307.2L329.6 307.2C320 307.2 313.6 316.8 313.6 323.2ZM524.8 380.8 524.8 524.8 387.2 524.8 387.2 380.8 524.8 380.8Z" class="MsftOfcThm_Background1_Fill_v2" fill="#FFFFFF"/></svg>