<svg width="200" height="200" viewBox="0 0 1024 1024" xmlns="http://www.w3.org/2000/svg" xmlns:xlink="http://www.w3.org/1999/xlink" overflow="hidden"><style>
.MsftOfcThm_Background1_Fill_v2 {
 fill:#FFFFFF; 
}
</style>
<path d="M991.969 47.9985 559.982 47.9985C559.982 21.4897 538.493 3.23975e-07 511.984 3.23975e-07 485.475 3.23975e-07 463.985 21.4897 463.985 47.9985L31.999 47.9985C14.3264 47.9985 5.49316e-07 62.3249 5.49316e-07 79.9975 5.49316e-07 97.6701 14.3264 111.996 31.999 111.996L71.9977 111.996 71.9977 791.655C71.9977 827 100.651 855.653 135.996 855.653L903.972 855.653C939.317 855.653 967.97 827 967.97 791.655L967.97 111.996 991.969 111.996C1009.64 111.996 1023.97 97.6701 1023.97 79.9975 1023.97 62.3249 1009.64 47.9985 991.969 47.9985ZM919.971 791.655C919.971 800.492 912.808 807.655 903.972 807.655L135.996 807.655C127.159 807.655 119.996 800.492 119.996 791.655L119.996 111.996 919.971 111.996 919.971 791.655ZM404.147 815.655C397.783 815.653 391.68 818.186 387.188 822.694L194.874 983.009C186.268 993.136 187.501 1008.32 197.628 1016.93 206.613 1024.56 219.808 1024.56 228.793 1016.93L421.107 856.613C430.473 847.235 430.464 832.04 421.086 822.673 416.591 818.184 410.5 815.66 404.147 815.654ZM619.821 815.655C606.566 815.631 595.802 826.356 595.779 839.611 595.767 845.986 598.292 852.103 602.797 856.613L795.175 1016.93C804.453 1026.29 819.567 1026.37 828.934 1017.09 828.987 1017.04 829.041 1016.98 829.094 1016.93 838.452 1007.56 838.452 992.379 829.094 983.009L636.78 822.694C632.288 818.186 626.185 815.653 619.821 815.654ZM557.615 254.008 829.606 254.008C842.86 254.008 853.605 243.263 853.605 230.009 853.605 216.754 842.861 206.01 829.606 206.01L557.615 206.01C544.36 206.01 533.615 216.754 533.615 230.009 533.615 243.263 544.36 254.008 557.615 254.008ZM829.606 353.333 557.615 353.333C544.36 353.333 533.615 364.078 533.615 377.332 533.615 390.587 544.36 401.331 557.615 401.331L829.606 401.331C842.86 401.331 853.605 390.587 853.605 377.332 853.605 364.078 842.861 353.333 829.606 353.333ZM829.606 500.656 557.615 500.656C544.36 500.656 533.615 511.401 533.615 524.656 533.615 537.91 544.36 548.655 557.615 548.655L829.606 548.655C842.86 548.655 853.605 537.91 853.605 524.656 853.605 511.401 842.861 500.656 829.606 500.656ZM332.342 546.479C416.066 545.321 483 476.51 481.842 392.786 480.761 314.624 420.431 250.096 342.517 243.768L342.517 405.043 181.242 405.043C186.564 484.62 252.651 546.455 332.406 546.479ZM325.75 221.433C236.468 221.398 164.062 293.746 164.027 383.028 164.027 383.071 164.027 383.113 164.027 383.156L325.686 383.156 325.686 221.433ZM829.67 647.98 189.69 647.98C176.436 647.98 165.691 658.725 165.691 671.979 165.691 685.233 176.436 695.978 189.69 695.978L829.67 695.978C842.924 695.978 853.669 685.233 853.669 671.979 853.669 658.725 842.924 647.98 829.67 647.98Z" class="MsftOfcThm_Background1_Fill_v2" fill="#FFFFFF"/></svg>