<svg width="200" height="200" viewBox="0 0 1024 1024" xmlns="http://www.w3.org/2000/svg" xmlns:xlink="http://www.w3.org/1999/xlink" overflow="hidden"><style>
.MsftOfcThm_Background1_Fill_v2 {
 fill:#FFFFFF; 
}
</style>
<path d="M810.667 448C822.449 448 832 457.551 832 469.333L832 821.333 896 821.333C907.782 821.333 917.333 830.885 917.333 842.667L917.333 885.333C917.333 897.115 907.782 906.667 896 906.667L106.667 906.667C94.8846 906.667 85.3333 897.115 85.3333 885.333L85.3333 842.667C85.3333 830.885 94.8846 821.333 106.667 821.333L170.667 821.333 170.667 618.667C170.667 606.885 180.218 597.333 192 597.333L234.667 597.333C246.449 597.333 256 606.885 256 618.667L256 821.333 362.667 821.333 362.667 512C362.667 500.218 372.218 490.667 384 490.667L426.667 490.667C438.449 490.667 448 500.218 448 512L448 821.333 554.667 821.333 554.667 533.333C554.667 521.551 564.218 512 576 512L618.667 512C630.449 512 640 521.551 640 533.333L640 821.333 746.667 821.333 746.667 469.333C746.667 457.551 756.218 448 768 448L810.667 448ZM917.333 85.3333C929.115 85.3333 938.667 94.8846 938.667 106.667L938.667 247.168C938.664 258.95 929.111 268.499 917.329 268.497 911.674 268.496 906.25 266.249 902.251 262.251L863.04 223.04 656.384 434.453C648.55 442.471 635.847 443.058 627.307 435.797L386.453 230.784 163.157 451.947C155.04 459.982 142.034 460.198 133.653 452.437L102.229 423.339C93.5873 415.33 93.0734 401.833 101.082 393.191 101.248 393.011 101.417 392.835 101.589 392.661L367.616 124.587C375.471 116.672 388.096 116.142 396.587 123.371L640 330.667 802.837 162.837 761.749 121.749C753.419 113.417 753.421 99.9094 761.754 91.5794 765.753 87.5812 771.177 85.3345 776.832 85.3333L917.333 85.3333Z" class="MsftOfcThm_Background1_Fill_v2" fill="#FFFFFF"/></svg>