<?xml version="1.0" encoding="UTF-8" standalone="yes"?><svg xmlns="http://www.w3.org/2000/svg" xmlns:xlink="http://www.w3.org/1999/xlink" version="1.2" baseProfile="tiny" x="0" y="0" width="200" height="200" viewBox="0 0 1024 1024"><defs/><path fill="#ffffff" stroke="#ffffff" stroke-width="20.7768" d="M 448.719 237.781 C 361.644 237.781 322.156 289.756 322.156 364.344 L 364.344 364.344 C 365.777 311.44 400.203 281.318 448.719 279.969 C 491.328 281.318 510.144 304.522 511.578 343.841 C 511.578 364.175 496.897 387.885 467.534 415.053 C 433.7 444.922 427.625 466.522 427.625 490.906 L 427.625 533.094 L 469.812 533.094 L 469.812 490.906 C 469.812 477.406 477.068 459.097 500.609 437.412 C 535.878 406.193 553.513 375.06 553.513 343.841 C 553.513 281.487 516.303 237.781 448.719 237.781 M 427.625 617.469 L 469.812 617.469 L 469.812 575.281 L 427.625 575.281 L 427.625 617.469 M 786.219 482.807 L 786.219 190.699 C 786.219 190.699 778.287 132.312 722.938 132.312 L 132.312 132.312 L 132.312 735.932 C 132.312 735.932 140.244 785.037 216.688 786.219 C 293.131 787.4 448.719 786.219 448.719 786.219 C 439.522 787.4 786.219 482.807 786.219 482.807 M 427.625 744.031 C 427.625 744.031 232.466 743.44 216.688 744.031 C 167.919 745.888 174.5 696.949 174.5 696.949 L 174.5 171.295 L 722.938 171.295 C 750.612 171.295 744.031 194.413 744.031 210.276 L 744.031 463.401 L 427.625 744.031 M 878.693 601.353 L 805.372 532.925 L 792.378 520.859 L 779.469 532.925 L 724.456 584.225 L 522.8 772.297 L 518.834 775.925 L 517.738 780.987 L 490.906 891.688 L 612.659 869.581 L 618.144 868.568 L 622.109 864.94 L 823.766 676.868 L 878.778 625.568 L 891.772 613.503 L 878.693 601.353 M 600.003 837.013 L 540.772 848.065 L 552.584 792.8 L 737.365 620.507 L 784.785 664.719 L 600.003 837.012 L 600.003 837.013 M 810.772 640.503 L 763.353 596.291 L 792.463 569.207 L 839.881 613.419 L 810.772 640.503"/></svg>
