<svg width="200" height="200" viewBox="0 0 1024 1024" xmlns="http://www.w3.org/2000/svg" xmlns:xlink="http://www.w3.org/1999/xlink" overflow="hidden"><style>
.MsftOfcThm_Accent2_Fill_v2 {
 fill:#BA3023; 
}
</style>
<path d="M848 253C856.82 253 864 260.18 864 269L864 880C864 888.82 856.82 896 848 896L178 896C169.18 896 162 888.82 162 880L162 269C162 260.18 169.18 253 178 253L848 253M848 189 178 189C133.82 189 98 224.82 98 269L98 880C98 924.18 133.82 960 178 960L848 960C892.18 960 928 924.18 928 880L928 269C928 224.82 892.18 189 848 189Z" class="MsftOfcThm_Accent2_Fill_v2" fill="#BA3023"/><path d="M601 128C609.82 128 617 135.18 617 144L617 189 407 189 407 144C407 135.18 414.18 128 423 128L601 128M601 64 423 64C378.82 64 343 99.82 343 144L343 253 681 253 681 144C681 99.82 645.18 64 601 64ZM274.45 611.95C266.26 611.95 258.07 615.07 251.82 621.32 239.32 633.82 239.32 654.08 251.82 666.57L381.93 796.68C388.18 802.93 396.37 806.05 404.56 806.05 412.75 806.05 420.94 802.93 427.19 796.68 439.69 784.18 439.69 763.92 427.19 751.43L297.07 621.32C290.83 615.07 282.64 611.95 274.45 611.95Z" class="MsftOfcThm_Accent2_Fill_v2" fill="#BA3023"/><path d="M404.55 611.95C396.36 611.95 388.17 615.07 381.92 621.32L251.82 751.43C239.32 763.93 239.32 784.19 251.82 796.68 258.07 802.93 266.26 806.05 274.45 806.05 282.64 806.05 290.83 802.93 297.08 796.68L427.19 666.57C439.69 654.07 439.69 633.81 427.19 621.32 420.93 615.07 412.74 611.95 404.55 611.95ZM320.05 498.74C309.02 498.74 297.97 495.29 288.71 488.28L220.77 439.21C206.44 428.86 203.22 408.86 213.56 394.53 223.91 380.2 243.91 376.98 258.24 387.32L318.99 431.2 417.27 336.25C429.98 323.97 450.24 324.32 462.52 337.03 474.8 349.74 474.45 370 461.74 382.28L356.22 484.21C346.26 493.84 333.17 498.74 320.05 498.74ZM781 401 555 401C537.33 401 523 415.33 523 433 523 450.67 537.33 465 555 465L781 465C798.67 465 813 450.67 813 433 813 415.33 798.67 401 781 401Z" class="MsftOfcThm_Accent2_Fill_v2" fill="#BA3023"/><path d="M766 677 540 677C522.33 677 508 691.33 508 709 508 726.67 522.33 741 540 741L766 741C783.67 741 798 726.67 798 709 798 691.33 783.67 677 766 677Z" class="MsftOfcThm_Accent2_Fill_v2" fill="#BA3023"/></svg>