<svg width="200" height="200" viewBox="0 0 1024 1024" xmlns="http://www.w3.org/2000/svg" xmlns:xlink="http://www.w3.org/1999/xlink" overflow="hidden"><style>
.MsftOfcThm_Background1_Fill_v2 {
 fill:#FFFFFF; 
}
</style>
<path d="M518.963 946.483C508.718 946.605 498.536 944.871 488.909 941.363 381.987 899.996 287.265 832.257 213.555 744.448 167.782 690.534 142.95 623.36 139.878 544.768 138.24 508.006 138.752 471.04 139.11 435.2 139.11 420.762 139.418 406.323 139.418 391.885 139.192 390.359 139.073 388.819 139.059 387.277L139.059 340.634C139.059 303.206 139.366 264.448 138.701 226.56 138.035 188.672 157.184 163.84 193.894 154.573 242.398 142.626 290.867 130.543 339.302 118.323 391.68 105.216 445.901 91.5968 499.302 78.5408 513.95 75.398 529.139 75.8194 543.59 79.7696 640.87 103.578 740.096 128.256 835.891 152.115L837.939 152.627C885.965 164.557 899.84 182.426 899.84 232.294L899.84 522.189C899.533 637.901 853.146 734.618 761.958 809.779 703.744 857.754 634.573 911.411 549.734 941.363 539.84 944.794 529.436 946.526 518.963 946.483ZM200.499 382.413C200.746 383.936 200.866 385.478 200.858 387.021 200.858 403.2 200.858 419.379 200.55 435.558 200.243 470.733 199.885 507.238 201.267 542.413 203.776 606.874 223.693 661.453 260.403 704.614 327.547 784.584 413.86 846.236 511.283 883.814 517.256 885.442 523.576 885.282 529.459 883.354 604.877 856.73 668.928 806.912 723.098 762.266 800.563 698.419 838.349 619.827 838.605 521.933L838.605 232.294C838.719 227.046 838.497 221.796 837.939 216.576 833.154 214.822 828.263 213.368 823.296 212.224L821.197 211.712C725.555 187.853 626.637 163.226 529.357 139.469 524.483 137.999 519.356 137.563 514.304 138.189 461.056 151.245 406.784 164.813 354.611 177.92 306.893 189.901 257.331 202.291 208.896 214.221 206.206 214.668 203.64 215.68 201.37 217.19 200.509 219.798 200.11 222.535 200.192 225.28 200.909 263.834 200.755 302.899 200.602 340.634 200.602 354.594 200.567 368.521 200.499 382.413Z" class="MsftOfcThm_Background1_Fill_v2" fill="#FFFFFF"/><path d="M525.414 779.571C522.601 779.517 519.809 779.069 517.12 778.24 503.814 774.558 494.598 762.452 494.592 748.646L494.592 583.68 404.941 583.68C378.778 583.066 357.478 571.955 346.47 552.96 335.462 533.965 336.23 512 348.006 490.445 382.515 425.83 418.202 360.55 452.762 297.421 466.108 273.015 479.454 248.593 492.8 224.154 499.24 212.419 512.537 206.205 525.67 208.794L531.302 209.869C545.728 212.686 556.137 225.327 556.134 240.026L556.134 403.354 635.443 403.354C676.096 403.354 694.323 419.84 702.413 433.562 710.502 447.283 716.134 470.886 696.934 506.163 647.168 597.76 601.856 680.243 551.782 764.518 546.26 773.832 536.242 779.551 525.414 779.571ZM525.414 522.138C542.381 522.138 556.134 535.891 556.134 552.858L556.134 634.419C584.755 583.68 613.018 532.019 643.174 476.826 645.128 473.362 646.724 469.708 647.936 465.92 643.821 465.119 639.635 464.742 635.443 464.794L525.619 464.794C508.653 464.794 494.899 451.04 494.899 434.074L494.899 348.723C464.179 405.043 432.794 462.387 402.381 519.322 401.971 520.141 401.613 520.858 401.357 521.472 403.046 521.786 404.759 521.957 406.477 521.984 423.219 522.394 440.422 522.291 457.062 521.984L525.568 521.984Z" class="MsftOfcThm_Background1_Fill_v2" fill="#FFFFFF"/></svg>