<?xml version="1.0" encoding="UTF-8" standalone="yes"?><svg xmlns="http://www.w3.org/2000/svg" xmlns:xlink="http://www.w3.org/1999/xlink" version="1.2" baseProfile="tiny" x="0" y="0" width="200" height="200" viewBox="0 0 1024 1024"><defs/><path fill="#ffffff" d="M 910.217 113.779 C 910.217 51.0983 859.274 0 796.433 0 L 170.667 0 C 107.857 0 56.8835 50.9404 56.8835 113.779 L 56.8835 910.221 C 56.8835 972.902 107.826 1024 170.667 1024 L 426.793 1024 C 442.43 1024 455.106 1011.37 455.106 995.556 C 455.106 979.846 442.145 967.111 426.793 967.111 L 170.667 967.111 C 139.311 967.111 113.772 941.549 113.772 910.221 L 113.772 113.779 C 113.772 82.3728 139.262 56.8889 170.667 56.8889 L 796.433 56.8889 C 827.789 56.8889 853.328 82.451 853.328 113.779 L 853.328 483.361 C 853.328 499.178 865.953 512 881.772 512 C 897.482 512 910.217 499.201 910.217 483.361 L 910.217 113.779 M 953.31 711.982 C 971.768 693.471 971.656 663.76 953.261 645.322 L 890.813 582.729 C 872.439 564.312 842.525 564.248 824.141 582.701 L 535.485 872.438 C 521.813 886.161 511.995 910.117 511.995 929.502 L 511.995 978.114 C 511.995 1004.19 533.064 1025.41 559.136 1023.84 L 607.407 1023.84 C 626.685 1025.41 650.719 1015.45 664.329 1001.8 L 953.31 711.982 M 636.881 959.394 C 632.368 963.921 620.988 968.643 614.587 968.643 L 568.938 968.643 C 568.953 968.643 568.883 968.573 568.883 968.422 L 568.883 922.435 C 568.883 915.829 573.535 904.476 578.121 899.871 L 851.093 625.778 C 851.048 625.822 851.063 625.822 851.068 625.827 L 910.123 685.04 C 910.241 685.159 910.241 685.146 910.161 685.226 L 636.881 959.394 M 247.37 796.444 L 406.842 796.444 C 417.788 796.444 426.661 809.07 426.661 824.889 C 426.661 840.598 417.588 853.333 406.842 853.333 L 247.37 853.333 C 236.424 853.333 227.55 840.708 227.55 824.889 C 227.55 809.179 236.623 796.444 247.37 796.444 M 227.55 654.222 C 227.55 638.513 237.766 625.778 250.476 625.778 L 545.958 625.778 C 558.619 625.778 568.883 638.403 568.883 654.222 C 568.883 669.932 558.668 682.667 545.958 682.667 L 250.476 682.667 C 237.814 682.667 227.55 670.041 227.55 654.222 M 635.494 273.231 L 543.429 260.857 L 492.182 181.506 C 482.446 166.331 466.752 166.39 457.128 181.626 L 406.058 261.912 L 318.254 274.332 C 300.398 276.803 293.863 291.072 303.663 306.204 L 360.88 395.196 L 351.651 488.015 C 349.81 505.949 362.122 515.69 379.146 509.756 L 477.57 475.839 L 576.228 509.077 C 593.297 514.883 605.544 505.065 603.583 487.149 L 593.713 394.384 L 650.307 304.998 C 660.006 289.8 653.366 275.577 635.494 273.231"/></svg>
