<svg width="216.602" height="200" viewBox="0 0 1109 1024" xmlns="http://www.w3.org/2000/svg" xmlns:xlink="http://www.w3.org/1999/xlink" overflow="hidden"><style>
.MsftOfcThm_Accent1_Fill_v2 {
 fill:#023E80; 
}
</style>
<path d="M1066.67 341.333 1024 341.333 1024 746.667C1024 829.141 957.141 896 874.667 896 792.192 896 725.333 829.141 725.333 746.667L725.333 298.667C725.333 275.103 706.231 256 682.667 256L682.667 938.667 768 938.667 768 1024 0 1024 0 938.667 85.3333 938.667 85.3333 85.3333C85.3333 38.205 123.538 2.87646e-06 170.667 2.87646e-06L597.333 0C644.462-5.52285e-07 682.667 38.205 682.667 85.3333L682.667 170.667C753.359 170.667 810.667 227.974 810.667 298.667L810.667 746.667C810.667 782.013 839.32 810.667 874.667 810.667 910.013 810.667 938.667 782.013 938.667 746.667L938.667 341.333 896 341.333C872.436 341.333 853.333 322.231 853.333 298.667L853.333 213.333C853.333 189.769 872.436 170.667 896 170.667L896 149.333C896 137.551 905.551 128 917.333 128 929.115 128 938.667 137.551 938.667 149.333L938.667 170.667 1024 170.667 1024 149.333C1024 137.551 1033.55 128 1045.33 128 1057.12 128 1066.67 137.551 1066.67 149.333L1066.67 170.667C1090.23 170.667 1109.33 189.769 1109.33 213.333L1109.33 298.667C1109.33 322.231 1090.23 341.333 1066.67 341.333ZM341.333 810.667 512 640 384 640 384 512 256 682.667 384 682.667ZM597.333 128 170.667 128 170.667 384 597.333 384 597.333 128ZM1024 213.333 938.667 213.333C915.103 213.333 896 232.436 896 256 896 279.564 915.103 298.667 938.667 298.667L1024 298.667C1047.56 298.667 1066.67 279.564 1066.67 256 1066.67 232.436 1047.56 213.333 1024 213.333Z" class="MsftOfcThm_Accent1_Fill_v2" fill="#023E80"/></svg>