<?xml version="1.0" encoding="UTF-8" standalone="yes"?><svg xmlns="http://www.w3.org/2000/svg" xmlns:xlink="http://www.w3.org/1999/xlink" version="1.2" baseProfile="tiny" x="0" y="0" width="200" height="200" viewBox="0 0 1024 1024"><defs/><path fill="#023e80" d="M 828.952 146.286 C 869.348 146.286 902.095 179.033 902.095 219.429 L 902.095 682.667 C 902.095 723.062 869.348 755.81 828.952 755.81 L 195.048 755.81 C 154.652 755.81 121.905 723.062 121.905 682.667 L 121.905 219.429 C 121.905 179.033 154.652 146.286 195.048 146.286 L 828.952 146.286 M 828.952 219.429 L 195.048 219.429 L 195.048 682.667 L 828.952 682.667 L 828.952 219.429 M 341.333 438.857 L 414.476 438.857 L 414.476 609.524 L 341.333 609.524 L 341.333 438.857 M 475.429 365.714 L 548.571 365.714 L 548.571 609.524 L 475.429 609.524 L 475.429 365.714 M 609.524 292.571 L 682.667 292.571 L 682.667 609.524 L 609.524 609.524 L 609.524 292.571 M 268.19 804.571 L 755.81 804.571 L 755.81 877.714 L 268.19 877.714 L 268.19 804.571"/></svg>
