<svg width="200" height="200" viewBox="0 0 1024 1024" xmlns="http://www.w3.org/2000/svg" xmlns:xlink="http://www.w3.org/1999/xlink" overflow="hidden"><style>
.MsftOfcThm_Background1_Fill_v2 {
 fill:#FFFFFF; 
}
</style>
<path d="M203.93 69.79C213.1 67.63 222.53 66.84 231.94 66.74 417.31 66.76 602.67 66.73 788.04 66.76 810.68 66.78 833.34 73.24 852.26 85.74 878.05 102.54 896.77 129.88 902.67 160.13 905.72 174.22 904.9 188.71 905 203.02 904.99 329.14 905.01 455.26 904.99 581.39 893.44 575.12 881.96 568.73 870.43 562.44 840.63 546.02 807.17 536.31 773.2 534.22 730.39 531.44 686.83 540.79 649.01 561.09 618.57 577.38 591.76 600.46 571.29 628.28 548.11 659.46 533 696.58 527.87 735.1 522.88 771.57 526.68 809.23 539.03 843.91 547.94 869.19 561.33 892.87 578.26 913.63 588.37 926.19 598.64 938.62 608.69 951.22 482.46 951.31 356.22 951.21 229.99 951.26 209.77 951.28 189.56 945.93 172.06 935.8 145.82 920.81 125.87 895.2 117.94 866.02 114.74 854.64 113.49 842.77 113.75 830.98 113.75 614.65 113.76 398.32 113.74 181.99 113.91 158.49 121.45 135.11 135.08 115.96 151.35 92.85 176.33 76.01 203.93 69.79M177.06 137.93C166.37 150.34 160.3 166.6 160.25 182.98L160.25 830.98C160.08 837.36 160.5 843.79 161.95 850.02 167.39 875.6 188.46 896.99 213.96 902.81 224.1 905.47 234.64 904.62 245 904.75 335.28 904.77 425.56 904.72 515.83 904.77 500.17 877.25 489.18 847.07 483.61 815.89 475.67 771.54 478.55 725.27 492.14 682.3 512.46 617.11 557.9 560.34 616.74 525.79 652.33 504.76 692.68 491.84 733.87 488.31 776.01 484.6 819.01 490.48 858.5 505.69 858.5 399.43 858.49 293.18 858.51 186.93 858.67 178.03 857.6 169.03 854.65 160.6 847.7 140.2 830.85 123.47 810.31 116.88 801.54 113.83 792.18 113.13 782.97 113.24 598.98 113.28 414.99 113.22 231 113.27 210.56 113.12 190.21 122.24 177.06 137.93Z" class="MsftOfcThm_Background1_Fill_v2" stroke-width="1.07123" fill="#FFFFFF"/><path d="M321.26 222.34C446.18 222.14 571.1 222.3 696.02 222.26 707.39 222.19 717.85 231.54 718.87 242.9 720.35 253.4 713.64 264.27 703.64 267.74 699.31 269.47 694.58 268.95 690.04 269L328.96 269C325.91 268.98 322.86 269.14 319.83 268.86 311.16 267.88 303.52 261.31 300.91 253.03 298.44 245.62 299.95 236.97 304.92 230.92 308.86 225.95 314.94 222.8 321.26 222.34ZM317.3 384.48C319.18 384.02 321.12 383.8 323.07 383.75L696.01 383.75C703.25 383.85 710.41 387.44 714.6 393.4 718.53 398.69 719.88 405.69 718.52 412.11 716.52 422.09 707.27 430.31 696.99 430.5L328.01 430.5C324.31 430.45 320.54 430.84 316.93 429.81 307.59 427.41 300.39 418.63 299.81 408.99 298.73 397.99 306.51 386.99 317.3 384.48ZM319.28 545.37C366.18 545.08 413.11 545.35 460.02 545.24 466.13 545.04 472.31 547.01 477.04 550.92 485.03 557.3 488.58 569.05 484.64 578.62 481.57 586.44 473.53 592.07 465.09 592L320.93 592C312.78 591.98 304.93 586.79 301.73 579.28 299.54 574.86 299.94 569.79 300.03 565.01 300.46 554.91 309.25 546.12 319.28 545.37ZM740.54 557.8C778.69 554.5 817.77 561.79 852.01 578.99 894.45 600.05 929.24 636 948.93 679.08 966.52 717.17 972.06 760.62 964.98 801.95 958.71 839.24 941.94 874.65 917.22 903.25 894.15 930.06 864.19 950.91 830.98 963.1 790.88 977.93 746.22 979.98 704.9 969.05 666.8 959.09 631.74 937.95 605 909.07 584.81 887.39 569.3 861.36 559.88 833.28 547.25 795.68 545.62 754.49 555.16 716 563.62 681.53 581.16 649.35 605.43 623.47 640.29 585.88 689.41 561.9 740.54 557.8M738.57 604.77C707.48 608.48 677.62 621.58 653.71 641.79 625.77 665.17 605.98 698.18 598.83 733.93 591.46 769.76 596.55 808.11 613.43 840.61 635.4 884.2 678.04 916.72 725.96 926.17 768.98 935.15 815.44 925.62 851.4 900.34 880.74 880 903.1 849.8 913.85 815.75 927.25 773.99 922.78 726.88 901.55 688.47 888.03 663.75 868.02 642.64 844.04 627.84 812.88 608.42 774.99 600.17 738.57 604.77Z" class="MsftOfcThm_Background1_Fill_v2" stroke-width="1.07123" fill="#FFFFFF"/><path d="M840.76 690.72C848.61 681.5 863.85 680.3 873 688.23 880.76 694.36 883.6 705.71 879.84 714.82 878.16 719.44 874.55 722.88 871.31 726.43 836.13 765.22 800.94 804 765.76 842.79 759.48 849.63 748.95 851.9 740.35 848.5 736.03 846.98 732.71 843.7 729.41 840.68 701.96 815.78 674.5 790.9 647.06 766 644.45 763.6 641.57 761.41 639.6 758.42 635.96 753.11 634.6 746.26 636.12 739.98 637.8 732 644.14 725.28 651.93 722.96 659.53 720.6 668.33 722.37 674.25 727.77 698.56 749.81 722.9 771.83 747.18 793.91 778.36 759.51 809.6 725.14 840.76 690.72ZM316.45 707.62C318.56 706.96 320.78 706.72 322.99 706.73 351.65 706.77 380.31 706.73 408.97 706.75 414.53 706.84 420.41 706.08 425.61 708.57 435.48 712.55 441.47 723.88 439.38 734.29 437.68 744.92 427.79 753.5 417 753.5 387.34 753.51 357.68 753.49 328.03 753.51 322.62 753.66 316.91 753.61 312.09 750.81 303.28 746.26 298.2 735.69 300.12 725.96 301.47 717.38 308.13 710.03 316.45 707.62Z" class="MsftOfcThm_Background1_Fill_v2" stroke-width="1.07123" fill="#FFFFFF"/></svg>