<?xml version="1.0" encoding="UTF-8" standalone="yes"?><svg xmlns="http://www.w3.org/2000/svg" xmlns:xlink="http://www.w3.org/1999/xlink" version="1.2" baseProfile="tiny" x="0" y="0" width="200" height="200" viewBox="0 0 1024 1024"><defs/><path fill="#ffffff" stroke-width="0.484855" d="M 445.952 508.416 C 583.68 508.416 695.808 406.016 695.808 279.552 C 695.808 153.088 583.68 50.688 445.952 50.688 C 308.224 50.688 196.096 153.088 196.096 279.552 C 196.096 406.016 307.712 508.416 445.952 508.416 M 513.536 768 C 513.536 686.08 551.936 613.376 611.328 566.272 C 561.152 542.72 504.832 529.92 445.44 529.92 C 226.816 529.92 49.664 707.072 49.664 925.696 C 49.664 940.544 50.688 955.904 52.224 970.752 L 612.864 970.752 C 552.448 923.648 513.536 850.432 513.536 768"/><path fill="#ffffff" stroke-width="0.484855" d="M 770.048 563.712 C 657.408 563.712 565.76 655.36 565.76 768 C 565.76 880.64 657.408 972.288 770.048 972.288 C 882.688 972.288 974.336 880.64 974.336 768 C 974.336 654.848 883.2 563.712 770.048 563.712 M 899.584 803.84 L 856.064 803.84 L 856.064 743.936 L 773.632 829.952 L 711.168 765.44 L 646.656 831.488 L 620.032 804.352 L 713.728 711.68 L 778.24 779.264 L 840.704 721.408 L 781.824 721.408 L 781.824 681.984 L 900.096 681.984 L 900.096 803.84 L 899.584 803.84"/></svg>
