<svg width="200" height="200" viewBox="0 0 1024 1024" xmlns="http://www.w3.org/2000/svg" xmlns:xlink="http://www.w3.org/1999/xlink" overflow="hidden"><style>
.MsftOfcThm_Accent1_Fill_v2 {
 fill:#023E80; 
}
</style>
<path d="M512 544C492.8 544 480 531.2 480 512 480 492.8 492.8 480 512 480 652.8 480 768 352 768 192 768 172.8 780.8 160 800 160 819.2 160 832 172.8 832 192 832 387.2 688 544 512 544Z" class="MsftOfcThm_Accent1_Fill_v2" fill="#023E80"/><path d="M512 480C531.2 480 544 492.8 544 512 544 531.2 531.2 544 512 544 371.2 544 256 672 256 832 256 851.2 243.2 864 224 864 204.8 864 192 851.2 192 832 192 636.8 336 480 512 480Z" class="MsftOfcThm_Accent1_Fill_v2" fill="#023E80"/><path d="M480 320 544 320C563.2 320 576 332.8 576 352 576 371.2 563.2 384 544 384L480 384C460.8 384 448 371.2 448 352 448 332.8 460.8 320 480 320ZM480 640 544 640C563.2 640 576 652.8 576 672 576 691.2 563.2 704 544 704L480 704C460.8 704 448 691.2 448 672 448 652.8 460.8 640 480 640ZM384 192 640 192C659.2 192 672 204.8 672 224 672 243.2 659.2 256 640 256L384 256C364.8 256 352 243.2 352 224 352 204.8 364.8 192 384 192ZM384 768 640 768C659.2 768 672 780.8 672 800 672 819.2 659.2 832 640 832L384 832C364.8 832 352 819.2 352 800 352 780.8 364.8 768 384 768Z" class="MsftOfcThm_Accent1_Fill_v2" fill="#023E80"/><path d="M832 832C832 851.2 819.2 864 800 864 780.8 864 768 851.2 768 832 768 755.2 742.4 684.8 694.4 630.4 681.6 617.6 684.8 598.4 697.6 585.6 710.4 572.8 729.6 576 742.4 588.8 800 652.8 832 739.2 832 832ZM192 192C192 172.8 204.8 160 224 160 243.2 160 256 172.8 256 192 256 268.8 281.6 342.4 329.6 393.6 342.4 406.4 339.2 425.6 326.4 438.4 313.6 451.2 294.4 448 281.6 435.2 224 371.2 192 284.8 192 192Z" class="MsftOfcThm_Accent1_Fill_v2" fill="#023E80"/></svg>