<svg width="200" height="200" viewBox="0 0 1024 1024" xmlns="http://www.w3.org/2000/svg" xmlns:xlink="http://www.w3.org/1999/xlink" overflow="hidden"><style>
.MsftOfcThm_Background1_Fill_v2 {
 fill:#FFFFFF; 
}
</style>
<path d="M301.176 43.6706C281.6 49.6941 265.035 61.7412 252.988 81.3176 242.447 99.3882 242.447 99.3882 242.447 307.2L242.447 450.259 249.976 450.259C254.494 450.259 263.529 451.765 269.553 451.765L281.6 453.271 281.6 307.2C281.6 135.529 281.6 111.435 284.612 105.412 287.624 96.3765 293.647 90.3529 302.682 85.8353L310.212 81.3176 620.424 81.3176C837.271 81.3176 933.647 81.3176 941.176 82.8235 950.212 84.3294 953.224 85.8353 960.753 93.3647 968.282 100.894 969.788 103.906 971.294 112.941 974.306 126.494 974.306 746.918 971.294 760.471 969.788 771.012 962.259 781.553 951.718 787.576 944.188 792.094 942.682 792.094 889.977 792.094 859.859 792.094 832.753 793.6 828.235 793.6 817.694 796.612 808.659 802.635 804.141 811.671 799.624 820.706 799.624 820.706 798.118 879.435 796.612 933.647 796.612 938.165 793.6 944.188 787.576 954.729 778.541 960.753 766.494 963.765L311.718 963.765 302.682 959.247 295.153 960.753 274.071 957.741C262.024 959.247 252.988 960.753 252.988 960.753 251.482 962.259 263.529 978.824 271.059 983.341 275.576 986.353 283.106 992.376 290.635 995.388L302.682 1001.41 766.494 1001.41 783.059 996.894C805.647 990.871 831.247 980.329 847.812 969.788 868.894 956.235 966.776 858.353 980.329 837.271 990.871 820.706 1001.41 795.106 1007.44 772.518L1011.95 757.459 1011.95 435.2C1011.95 207.812 1011.95 109.929 1010.45 102.4 1005.93 82.8235 990.871 61.7412 972.8 52.7059 954.729 42.1647 971.294 42.1647 626.447 42.1647 376.471 42.1647 307.2 42.1647 301.176 43.6706Z" class="MsftOfcThm_Background1_Fill_v2" stroke-width="1.3163" fill="#FFFFFF"/><path d="M469.835 140.047C430.682 147.576 396.047 179.2 382.494 218.353 376.471 236.424 374.965 266.541 379.482 283.106 382.494 296.659 394.541 322.259 402.071 329.788L405.082 334.306 445.741 293.647 486.4 252.988 486.4 195.765C486.4 150.588 486.4 138.541 484.894 138.541 483.388 137.035 475.859 138.541 469.835 140.047ZM505.976 192.753 505.976 248.471 614.4 248.471 614.4 240.941C614.4 221.365 594.824 185.224 576.753 168.659 558.682 153.6 534.588 141.553 513.506 138.541L505.976 137.035 505.976 192.753ZM843.294 257.506 843.294 377.976 882.447 377.976 882.447 137.035 843.294 137.035 843.294 257.506ZM768 233.412C766.494 233.412 766.494 266.541 766.494 305.694L766.494 376.471 805.647 376.471 805.647 231.906 787.576 231.906C777.035 231.906 768 233.412 768 233.412ZM459.294 305.694C438.212 328.282 420.141 346.353 420.141 347.859 420.141 350.871 435.2 361.412 448.753 365.929 499.953 390.024 566.212 368.941 597.835 320.753 606.871 307.2 614.4 287.624 615.906 275.576L617.412 265.035 499.953 265.035 459.294 305.694ZM691.2 329.788C689.694 329.788 689.694 341.835 689.694 353.882L689.694 376.471 728.847 376.471 728.847 328.282 710.776 328.282C700.235 328.282 691.2 328.282 691.2 329.788ZM465.318 521.035 465.318 539.106 902.023 539.106 902.023 502.965 465.318 502.965 465.318 521.035ZM274.071 926.118C243.953 926.118 212.329 920.094 185.224 906.541 91.8588 862.871 43.6706 760.471 69.2706 661.082 81.3176 612.894 111.435 569.224 152.094 540.612 179.2 522.541 201.788 512 233.412 505.976 260.518 499.953 299.671 501.459 328.282 508.988 403.576 528.565 460.8 585.788 481.882 662.588 489.412 689.694 489.412 731.859 483.388 758.965 469.835 822.212 426.165 877.929 368.941 905.035 338.824 918.588 305.694 926.118 274.071 926.118ZM272.565 542.118C260.518 542.118 249.976 543.624 242.447 545.129 215.341 551.153 198.776 558.682 176.188 573.741 144.565 596.329 120.471 632.471 109.929 670.118 88.8471 749.929 129.506 832.753 203.294 867.388 251.482 889.976 302.682 888.471 350.871 865.882 397.553 843.294 432.188 799.624 442.729 748.424 447.247 727.341 447.247 692.706 441.224 671.624 424.659 609.882 379.482 563.2 317.741 548.141 304.188 543.624 287.624 542.118 272.565 542.118ZM502.965 612.894 502.965 617.412 902.023 617.412 902.023 581.271 484.894 581.271 502.965 612.894ZM519.529 674.635 519.529 692.706 900.518 692.706 900.518 656.565 513.506 656.565 519.529 674.635Z" class="MsftOfcThm_Background1_Fill_v2" stroke-width="1.3163" fill="#FFFFFF"/><path d="M245.459 777.035C239.435 777.035 234.918 775.529 230.4 771.012L161.129 704.753C152.094 697.224 152.094 683.671 161.129 674.635 168.659 665.6 182.212 665.6 191.247 674.635L248.471 728.847 362.918 650.541C371.953 644.518 385.506 646.023 391.529 656.565 397.553 665.6 396.047 679.153 385.506 685.176L257.506 772.518C254.494 775.529 249.976 777.035 245.459 777.035Z" class="MsftOfcThm_Background1_Fill_v2" stroke-width="1.3163" fill="#FFFFFF"/></svg>