<svg width="200" height="200" viewBox="0 0 1024 1024" xmlns="http://www.w3.org/2000/svg" xmlns:xlink="http://www.w3.org/1999/xlink" overflow="hidden"><style>
.MsftOfcThm_Accent1_Fill_v2 {
 fill:#023E80; 
}
</style>
<path d="M476.03 75.07C551.49 67.37 629.35 84.48 694.31 123.77 760.04 162.99 812.43 224.04 841.11 295.02 857.14 334.34 865.88 376.59 867 419.04 867.54 460.02 867.11 501.02 867.25 542.02 867.23 616.48 867.29 690.94 867.22 765.4 886.36 766.77 905.06 773.98 919.9 786.18 935.75 799.06 947.2 817.3 951.74 837.22 956.09 856.01 954.52 876.15 947.11 893.97 939.44 912.69 925.42 928.7 907.92 938.84 893.79 947.16 877.42 951.4 861.05 951.5 628.69 951.51 396.32 951.49 163.96 951.51 149.51 951.51 135 948.49 122.03 942.03 104.33 933.46 89.51 919.06 80.44 901.61 71.13 884.08 67.83 863.49 70.93 843.91 73.52 826.82 81.13 810.55 92.44 797.49 108.24 779.07 131.55 767.16 155.81 765.63 156.25 716.1 155.87 666.55 156 617.01L156 432C155.89 398.99 159.99 365.91 168.82 334.08 187.72 265.01 228.31 202.18 283.24 156.29 337.39 110.64 405.52 81.88 476.03 75.07M346.6 167.56C293.54 201.04 251.08 251.01 226.76 308.86 210.97 346.12 202.9 386.53 202.51 426.97 202.5 539.73 202.49 652.49 202.51 765.25L534.75 765.25C630.08 765.25 725.41 765.26 820.74 765.24 820.76 657.49 820.74 549.74 820.75 441.99 820.79 422.92 820.34 403.78 817.51 384.89 813.889 359.38 807.061 334.43 797.19 310.63 769.2 242.68 716.03 185.61 650.36 152.67 610.61 132.65 566.47 121.38 521.97 120.01 460.51 117.75 398.5 134.52 346.6 167.56M153.62 812.74C136.43 816.13 121.91 830.02 117.75 847.04 113.77 862.03 118.21 878.86 128.91 890.06 137.55 899.51 150.23 904.92 163 904.99 395.35 905.02 627.7 904.98 860.05 905.01 872.18 905.14 884.26 900.5 893.04 892.11 901.61 884.04 906.95 872.64 907.55 860.88 908.32 848 903.32 834.93 894.21 825.79 885.6 816.9 873.31 811.77 860.94 811.75 631.94 811.74 402.95 811.75 173.95 811.75 167.17 811.83 160.31 811.33 153.62 812.74Z" class="MsftOfcThm_Accent1_Fill_v2" fill="#023E80"/><path d="M398.13 324.19C423.17 287.57 466.59 264.26 511.03 264.24 545.25 263.45 579.47 276.18 605.08 298.86 632.24 322.54 649.6 357.11 652.11 393.09 655 428.68 643.53 465.16 620.66 492.6 599.28 518.71 568.12 536.59 534.75 541.7 519.36 544.1 503.58 543.92 488.23 541.24 457.63 535.88 429.09 519.81 408.5 496.56 388.43 474.1 375.97 444.97 373.72 414.92 371.06 383.07 379.79 350.39 398.13 324.19M498.57 311.77C469.33 316.09 442.94 335.45 429.79 361.88 419.56 381.85 417.04 405.6 422.8 427.28 430.83 459.17 457.15 485.56 488.99 493.76 510.04 499.38 533.1 497.38 552.74 487.89 568.59 480.43 582.17 468.33 591.55 453.55 609.72 425.57 610.8 387.66 594.33 358.66 583.77 339.68 566.44 324.5 546.11 316.8 531.07 310.95 514.49 309.35 498.57 311.77Z" class="MsftOfcThm_Accent1_Fill_v2" fill="#023E80"/><path d="M488.23 541.24C503.58 543.92 519.36 544.1 534.75 541.7 534.74 616.22 534.75 690.73 534.75 765.25L488.25 765.25C488.24 690.58 488.28 615.91 488.23 541.24Z" class="MsftOfcThm_Accent1_Fill_v2" fill="#023E80"/></svg>