<svg width="200" height="200" viewBox="0 0 1024 1024" xmlns="http://www.w3.org/2000/svg" xmlns:xlink="http://www.w3.org/1999/xlink" overflow="hidden"><style>
.MsftOfcThm_Background1_Fill_v2 {
 fill:#FFFFFF; 
}
</style>
<path d="M811.7 451.1 811.6 451.1C801.7 451.1 792.3 455 785.3 462 782 465.3 779.4 469 777.6 473L774.2 473 774.2 858C774.2 865.4 771.3 872.4 766 877.6 760.7 882.8 753.6 885.4 746.4 885.7L181.5 885.7C174.1 885.7 167.2 882.8 162 877.6 156.8 872.4 153.9 865.4 153.8 858.1L153.8 166.1C153.8 158.7 156.7 151.7 162 146.5 167.2 141.3 173.9 138.3 181.6 138.4L527.4 138.4C547.8 138.3 564.5 121.6 564.6 101.1 564.6 80.6 547.9 63.9 527.4 63.9L181.5 63.9C125.2 63.9 79.3 109.7 79.1 166L79.1 858C79.3 914.3 125.2 960.1 181.5 960.1L746.4 960.1C802.7 960.1 848.6 914.3 848.8 858L848.8 490.8C848.9 490 848.9 489.2 848.9 488.3 849 467.8 832.2 451.1 811.7 451.1Z" class="MsftOfcThm_Background1_Fill_v2" fill="#FFFFFF"/><path d="M921.6 87.8 921.2 87.4C891.4 57.8 843.8 56.2 812.1 82.7L811.8 82.5 430.1 462.5 388.3 618 544.4 576.4 921.2 201.4C936.4 186.3 944.8 166.2 944.9 144.7 945 123.4 936.8 103.4 921.6 87.8ZM494 512.7 497.1 501.1 812.8 186.9 821.4 195.4 505.8 509.5 494 512.7ZM345.7 511.1 258.8 511.1C238.3 511.1 221.5 527.8 221.5 548.4 221.5 568.9 238.2 585.7 258.8 585.7L345.7 585.7C366.2 585.7 383 569 383 548.4 383 527.9 366.3 511.1 345.7 511.1ZM250.6 677C240.7 677 231.3 680.9 224.3 687.9 217.2 694.9 213.3 704.3 213.3 714.2L213.3 714.3C213.4 734.8 230.1 751.5 250.6 751.5L677.7 751.5C698 751.5 714.7 735.1 714.9 714.8 715 704.9 711.3 695.4 704.4 688.3 697.5 681.2 688.2 677.2 677.4 677L250.6 677C250.7 677 250.6 677 250.6 677Z" class="MsftOfcThm_Background1_Fill_v2" fill="#FFFFFF"/></svg>