<svg width="200" height="200" viewBox="0 0 1024 1024" xmlns="http://www.w3.org/2000/svg" xmlns:xlink="http://www.w3.org/1999/xlink" overflow="hidden"><style>
.MsftOfcThm_Accent1_Fill_v2 {
 fill:#023E80; 
}
</style>
<path d="M518.339 251.532C432.792 251.532 363.199 320.012 363.199 404.212 363.199 488.392 432.792 556.872 518.339 556.872 603.885 556.872 673.497 488.392 673.497 404.212 673.497 320.012 603.885 251.532 518.339 251.532ZM518.339 493.171C468.398 493.171 427.816 453.236 427.816 404.086 427.816 354.953 468.416 315.018 518.356 315.018 568.298 315.018 608.861 354.953 608.861 404.086 608.861 453.236 568.28 493.171 518.339 493.171ZM391.636 833.093C373.833 833.093 359.264 847.32 359.264 864.961L359.264 992.15C359.264 1009.66 373.708 1024 391.636 1024 409.439 1024 424.008 1009.77 424.008 992.151L424.008 864.96C424.008 847.32 409.438 833.092 391.636 833.092ZM650.251 833.093C632.448 833.093 617.879 847.32 617.879 864.961L617.879 992.15C617.879 1009.66 632.341 1024 650.251 1024 668.179 1024 682.623 1009.77 682.623 992.151L682.623 864.96C682.435 847.241 667.97 833.002 650.251 833.092Z" class="MsftOfcThm_Accent1_Fill_v2" fill="#023E80"/><path d="M806.038 504.632C823.823 199.418 550.154 13.325 538.513 5.528 527.301-1.97969 512.622-1.80076 501.596 5.978 490.512 13.792 230.208 199.436 234.592 503.267 235.292 550.89 242.101 596.933 251.658 639.797 251.316 640.155 250.868 640.371 250.508 640.712 171.285 712.678 125.728 814.589 125.728 920.472 125.728 937.897 140.135 952.142 158.028 952.142 175.902 952.142 190.309 938.005 190.309 920.472 190.309 843.44 219.249 768.762 270.574 711.186 276.9 731.731 283.668 752.138 290.874 772.391 295.365 785.056 307.599 793.661 321.324 793.661L488.662 793.661 488.662 902.489C488.662 919.914 503.087 934.16 520.962 934.16 538.837 934.16 553.243 920.022 553.243 902.489 517.045 853.626 517.045 817.338 553.243 793.661 589.46 769.948 644.898 769.948 719.558 793.661 733.282 793.661 745.498 785.181 750.008 772.391 755.756 756.097 760.965 739.804 765.906 723.528 809.631 778.84 833.613 846.153 833.613 917.418 833.613 934.843 848.021 949.088 865.895 949.088 883.788 949.088 898.195 934.951 898.195 917.418 897.962 815.937 858.063 721.031 785.397 649.209 796.355 600.346 803.272 551.914 806.056 504.632ZM696.276 730.282 553.154 730.282 553.154 696.815C553.154 679.39 538.728 665.125 520.854 665.125 502.98 665.125 488.572 679.282 488.572 696.815L488.572 730.283 344.3 730.283C322.491 666.258 300.233 586.065 299.084 502.351 295.724 276.467 464.104 118.416 520.728 71.709 579.202 117.877 754.624 275.551 741.582 501.003 737.432 575.214 722.091 652.263 696.258 730.301Z" class="MsftOfcThm_Accent1_Fill_v2" fill="#023E80"/></svg>