<?xml version="1.0" encoding="UTF-8" standalone="yes"?><svg xmlns="http://www.w3.org/2000/svg" xmlns:xlink="http://www.w3.org/1999/xlink" version="1.2" baseProfile="tiny" x="0" y="0" width="200" height="200" viewBox="0 0 1024 1024"><defs/><path fill="#ffffff" stroke-width="0.484855" d="M 507.3 531.9 C 583.3 531.7 658.1 550.8 724.6 587.4 C 634.8 590.4 555.5 640.2 522.6 714.1 C 489.8 788.1 509.6 872.2 573.2 928.3 L 135.2 928.3 C 125.3 928.4 115.6 924.9 108.1 918.4 C 101.1 912.4 97 903.7 96.9 894.4 C 97.1 694.4 280.7 532.1 507.3 531.9 M 752 620.7 C 772.4 619.5 790 635 791.3 655.4 L 791.3 739.9 L 886.9 739.9 C 900.3 738.3 913.5 744.5 920.7 755.9 C 927.9 767.3 927.9 781.9 920.7 793.3 C 913.5 804.7 900.3 811 886.9 809.3 L 791.3 809.3 L 791.3 893.8 C 788.8 913.6 772 928.5 752 928.5 C 732 928.5 715.2 913.6 712.7 893.8 L 712.7 809.3 L 617.1 809.3 C 603.7 811 590.5 804.7 583.3 793.3 C 576.1 781.9 576.1 767.3 583.3 755.9 C 590.5 744.5 603.7 738.2 617.1 739.9 L 712.5 739.9 L 712.5 655.6 C 713.9 635 731.5 619.5 752 620.7 M 507.4 531.5 C 372.3 531.3 642.4 531.3 507.4 531.5"/><path fill="#ffffff" stroke-width="0.484855" d="M 294.3 316.3 C 294.3 436.3 391.5 533.5 511.5 533.5 C 631.5 533.5 728.7 436.3 728.7 316.3 C 728.7 196.3 631.5 99.1 511.5 99.1 C 391.6 99.1 294.3 196.3 294.3 316.3 Z"/></svg>
