<?xml version="1.0" encoding="UTF-8" standalone="yes"?><svg xmlns="http://www.w3.org/2000/svg" xmlns:xlink="http://www.w3.org/1999/xlink" version="1.2" baseProfile="tiny" x="0" y="0" width="200" height="200" viewBox="0 0 1024 1024"><defs/><path fill="#ffffff" stroke-width="0.484855" d="M 78.08 181.76 C 78.08 257.28 244.48 317.44 449.28 317.44 C 654.08 317.44 820.48 257.28 820.48 181.76 C 820.48 106.24 654.08 46.08 449.28 46.08 C 244.48 46.08 78.08 107.52 78.08 181.76 M 449.28 467.2 C 244.48 467.2 78.08 405.76 78.08 331.52 L 78.08 500.48 C 78.08 574.72 244.48 636.16 449.28 636.16 C 654.08 636.16 820.48 574.72 820.48 500.48 L 820.48 331.52 C 820.48 405.76 654.08 467.2 449.28 467.2 M 449.28 874.24 C 423.68 847.36 410.88 806.4 417.28 773.12 C 231.68 765.44 78.08 704 78.08 636.16 L 78.08 812.8 C 78.08 887.04 244.48 948.48 449.28 948.48 L 513.28 948.48 L 449.28 874.24 M 977.92 791.04 C 977.92 791.04 989.44 811.52 977.92 832 C 963.84 852.48 934.4 888.32 911.36 906.24 C 884.48 926.72 829.44 976.64 712.96 976.64 C 596.48 976.64 505.6 875.52 505.6 875.52 L 464.64 834.56 C 464.64 834.56 450.56 811.52 462.08 787.2 C 468.48 778.24 476.16 771.84 491.52 757.76 C 503.04 742.4 546.56 698.88 576 683.52 C 582.4 680.96 625.92 647.68 683.52 638.72 C 742.4 629.76 823.04 641.28 913.92 721.92 C 977.92 784.64 977.92 791.04 977.92 791.04 M 720.64 930.56 C 787.2 930.56 839.68 874.24 839.68 808.96 C 839.68 743.68 787.2 687.36 720.64 687.36 C 654.08 687.36 601.6 743.68 601.6 808.96 C 601.6 874.24 654.08 930.56 720.64 930.56 M 643.84 807.68 C 643.84 798.72 646.4 789.76 650.24 780.8 C 656.64 771.84 659.2 762.88 668.16 756.48 C 674.56 747.52 683.52 744.96 688.64 741.12 C 697.6 738.56 706.56 734.72 715.52 734.72 C 724.48 734.72 733.44 737.28 742.4 741.12 C 751.36 743.68 760.32 750.08 766.72 756.48 C 773.12 762.88 778.24 771.84 782.08 780.8 C 784.64 789.76 788.48 798.72 788.48 807.68 C 788.48 816.64 785.92 825.6 782.08 834.56 C 779.52 843.52 773.12 852.48 766.72 858.88 C 760.32 865.28 751.36 870.4 742.4 874.24 C 733.44 876.8 724.48 880.64 715.52 880.64 C 706.56 880.64 697.6 878.08 688.64 874.24 C 678.4 870.4 669.44 864 664.32 857.6 C 657.92 851.2 652.8 842.24 648.96 833.28 C 646.4 825.6 643.84 816.64 643.84 807.68"/></svg>
