<svg width="200.977" height="200" viewBox="0 0 1029 1024" xmlns="http://www.w3.org/2000/svg" xmlns:xlink="http://www.w3.org/1999/xlink" overflow="hidden"><style>
.MsftOfcThm_Accent2_Fill_v2 {
 fill:#BA3023; 
}
</style>
<path d="M91.918 143.325C91.918 97.247 129.404 59.761 175.481 59.761L904.27 59.761C919.311 59.761 931.504 47.568 931.504 32.527 931.504 17.486 919.31 5.293 904.27 5.293L175.48 5.293C99.37 5.293 37.449 67.213 37.449 143.325L37.449 882.179C37.449 958.289 99.369 1020.21 175.48 1020.21L931.503 1020.21 931.503 226.888 175.48 226.888C129.403 226.888 91.917 189.402 91.917 143.325ZM877.036 965.742 175.48 965.742C129.403 965.742 91.917 928.256 91.917 882.179L91.917 253.12C115.128 270.83 144.096 281.356 175.48 281.356L877.035 281.356 877.035 965.742Z" class="MsftOfcThm_Accent2_Fill_v2" fill="#BA3023"/><path d="M904.27 114.077 181.524 114.077C166.484 114.077 154.29 126.271 154.29 141.311 154.29 156.351 166.483 168.545 181.524 168.545L904.27 168.545C919.311 168.545 931.504 156.351 931.504 141.311 931.504 126.271 919.311 114.077 904.27 114.077ZM555.08 619.731 754.452 619.731C765.41 619.731 774.83 613.245 779.152 603.918 781.598 599.833 783.029 595.072 783.029 589.966 783.029 464.052 680.589 361.614 554.676 361.614 540.571 361.614 528.971 372.337 527.582 386.075 526.926 388.427 526.591 390.856 526.584 393.298L526.584 588.379C526.584 591.909 527.277 595.269 528.498 598.365 531.182 610.58 542.055 619.731 555.08 619.731ZM726.8 565.263 581.051 565.263 581.051 418.078C656.411 429.594 715.999 489.669 726.799 565.263Z" class="MsftOfcThm_Accent2_Fill_v2" fill="#BA3023"/><path d="M459.927 888.602C576.014 888.602 673.539 801.748 686.777 686.572 686.99 684.721 687.01 682.89 686.857 681.1 686.887 680.568 686.937 680.042 686.937 679.502 686.937 664.46 674.745 652.268 659.704 652.268L487.566 652.268 487.566 464.677C487.566 463.045 487.396 461.457 487.122 459.904 487.129 459.645 487.162 459.392 487.162 459.131 487.162 444.089 474.969 431.897 459.927 431.897 450.742 431.897 441.483 432.449 432.406 433.541 317.913 447.312 231.576 544.776 231.576 660.251 231.576 786.164 334.013 888.601 459.927 888.601ZM433.097 488.429 433.097 674.365C433.097 675.233 433.147 676.088 433.227 676.933 433.147 677.779 433.097 678.634 433.097 679.502 433.097 694.543 445.29 706.736 460.332 706.736L627.545 706.736C607.109 780.951 539.21 834.134 459.927 834.134 364.047 834.134 286.043 756.13 286.043 660.251 286.043 574.284 348.859 501.439 433.098 488.429Z" class="MsftOfcThm_Accent2_Fill_v2" fill="#BA3023"/></svg>