<svg width="200" height="200" viewBox="0 0 1024 1024" xmlns="http://www.w3.org/2000/svg" xmlns:xlink="http://www.w3.org/1999/xlink" overflow="hidden"><style>
.MsftOfcThm_Background1_Fill_v2 {
 fill:#FFFFFF; 
}
</style>
<path d="M890.072 70.7061 732.378 70.7061 732.378 39.1675C732.378 21.7495 718.255 7.62766 700.841 7.62766 683.423 7.62766 669.301 21.7495 669.301 39.1675L669.301 70.7061 353.91 70.7061 353.91 39.1675C353.91 21.7495 339.787 7.62766 322.372 7.62766 304.954 7.62766 290.833 21.7495 290.833 39.1675L290.833 70.7061 133.138 70.7061C63.4643 70.7061 6.9808 127.19 6.9808 196.86L6.9808 890.719C6.9808 960.39 63.4643 1016.87 133.138 1016.87L890.072 1016.87C959.743 1016.87 1016.23 960.39 1016.23 890.719L1016.23 196.86C1016.23 127.19 959.744 70.7061 890.072 70.7061ZM70.0604 196.86C70.0604 162.023 98.2991 133.783 133.138 133.783L290.833 133.783 290.833 165.323C290.833 182.739 304.955 196.86 322.372 196.86 339.787 196.86 353.91 182.737 353.91 165.323L353.91 133.783 669.3 133.783 669.3 165.323C669.3 182.739 683.423 196.86 700.84 196.86 718.255 196.86 732.377 182.737 732.377 165.323L732.377 133.783 890.072 133.783C924.911 133.783 953.152 162.023 953.152 196.86L953.152 291.479 70.0604 291.479 70.0604 196.86ZM953.152 890.72C953.152 925.559 924.911 953.8 890.072 953.8L133.138 953.8C98.2979 953.8 70.0604 925.559 70.0604 890.72L70.0604 354.556 953.152 354.556 953.152 890.72ZM173.636 543.225C165.646 535.172 162.597 523.448 165.652 512.522 168.707 501.599 177.39 493.156 188.395 490.41 199.403 487.664 211.036 491.043 218.86 499.258L248.822 530.102 299.793 477.624C311.948 465.13 331.928 464.869 344.421 477.023 356.908 489.181 357.176 509.164 345.015 521.651L271.408 597.344C259.27 609.833 239.305 610.119 226.815 597.981 226.6 597.771 226.387 597.559 226.178 597.344L173.636 543.225ZM344.42 666.256C356.907 678.417 357.175 698.397 345.014 710.884L271.406 786.576C259.263 799.066 239.293 799.347 226.803 787.203 226.592 786.997 226.383 786.788 226.177 786.576L173.635 732.458C161.702 719.936 162.081 700.143 174.481 688.087 186.887 676.031 206.68 676.214 218.857 688.49L248.82 719.333 299.791 666.857C311.947 654.365 331.926 654.101 344.42 666.256ZM416.989 733.025C416.989 715.608 431.11 701.485 448.527 701.485L826.996 701.485C844.412 701.485 858.534 715.609 858.534 733.025 858.534 750.441 844.411 764.564 826.996 764.564L448.527 764.564C431.11 764.564 416.989 750.442 416.989 733.025ZM416.989 543.791C416.989 526.373 431.11 512.251 448.527 512.251L826.996 512.251C844.412 512.251 858.534 526.374 858.534 543.791 858.534 561.208 844.411 575.328 826.996 575.328L448.527 575.328C431.11 575.33 416.989 561.208 416.989 543.791Z" class="MsftOfcThm_Background1_Fill_v2" fill="#FFFFFF"/></svg>