<svg width="200" height="200" viewBox="0 0 1024 1024" xmlns="http://www.w3.org/2000/svg" xmlns:xlink="http://www.w3.org/1999/xlink" overflow="hidden"><style>
.MsftOfcThm_Accent1_Fill_v2 {
 fill:#023E80; 
}
.MsftOfcThm_Accent1_Stroke_v2 {
 stroke:#023E80; 
}
</style>
<path d="M466.752 128.96C493.063 107.393 530.937 107.393 557.248 128.96L924.16 429.392C932.27 436.224 933.306 448.336 926.474 456.446 919.778 464.394 907.974 465.572 899.84 459.104L532.912 158.688C520.751 148.707 503.233 148.707 491.072 158.688L124.16 459.088C116.05 465.92 103.938 464.884 97.1059 456.774 90.2741 448.664 91.3102 436.552 99.42 429.72 99.5583 429.603 99.6984 429.489 99.84 429.376L466.752 128.976ZM317.104 415.2C317.069 394.929 333.473 378.467 353.744 378.432 353.755 378.432 353.765 378.432 353.776 378.432L449.824 378.432C470.095 378.458 486.507 394.913 486.48 415.184 486.48 415.189 486.48 415.195 486.48 415.2L486.48 511.744C486.515 532.015 470.111 548.477 449.84 548.512 449.835 548.512 449.829 548.512 449.824 548.512L353.76 548.512C333.489 548.494 317.07 532.047 317.088 511.776 317.088 511.765 317.088 511.755 317.088 511.744L317.088 415.2ZM355.504 416.832 355.504 510.112 448.08 510.112 448.08 416.832 355.52 416.832ZM205.328 479.392C215.932 479.392 224.528 487.988 224.528 498.592L224.528 805.792C224.528 834.064 247.312 856.816 275.184 856.816L746.704 856.816C774.576 856.816 797.344 834.064 797.344 805.792L797.344 498.592C797.344 487.988 805.94 479.392 816.544 479.392 827.148 479.392 835.744 487.988 835.744 498.592L835.744 805.792C835.744 855.072 795.968 895.216 746.688 895.216L275.2 895.216C225.92 895.216 186.144 855.088 186.144 805.792L186.144 498.592C186.144 487.988 194.74 479.392 205.344 479.392ZM317.104 634.64C317.069 614.369 333.473 597.907 353.744 597.872 353.755 597.872 353.765 597.872 353.776 597.872L449.824 597.872C470.095 597.898 486.507 614.353 486.48 634.624 486.48 634.629 486.48 634.635 486.48 634.64L486.48 731.184C486.507 751.455 470.095 767.909 449.824 767.936L353.76 767.936C333.489 767.918 317.07 751.471 317.088 731.2 317.088 731.195 317.088 731.189 317.088 731.184L317.088 634.64ZM355.504 636.272 355.504 729.552 448.08 729.552 448.08 636.272 355.52 636.272ZM535.392 634.64C535.357 614.369 551.761 597.907 572.032 597.872 572.043 597.872 572.053 597.872 572.064 597.872L668.112 597.872C688.383 597.898 704.794 614.353 704.768 634.624 704.768 634.629 704.768 634.635 704.768 634.64L704.768 731.184C704.795 751.455 688.383 767.909 668.112 767.936L572.064 767.936C551.793 767.918 535.374 751.471 535.392 731.2 535.392 731.195 535.392 731.189 535.392 731.184L535.392 634.64ZM573.792 636.272 573.792 729.552 666.368 729.552 666.368 636.272 573.792 636.272Z" class="MsftOfcThm_Accent1_Fill_v2 MsftOfcThm_Accent1_Stroke_v2" stroke="#023E80" stroke-width="11.0108" fill="#023E80"/></svg>