<svg width="253.711" height="200" viewBox="0 0 1299 1024" xmlns="http://www.w3.org/2000/svg" xmlns:xlink="http://www.w3.org/1999/xlink" overflow="hidden"><style>
.MsftOfcThm_Background1_Fill_v2 {
 fill:#FFFFFF; 
}
</style>
<path d="M845.938 13.4077C976.016 13.4077 1081.41 122.046 1081.41 256.094 1081.78 331.45 1047.43 402.781 988.287 449.478 1147.09 506.144 1264.97 655.35 1279.12 836.174 1280.97 856.672 1265.96 874.832 1245.48 876.887 1225.08 878.321 1207.38 862.946 1205.95 842.544 1205.94 842.442 1205.93 842.34 1205.93 842.238 1190.91 649.936 1034.56 500.658 846.227 500.658 814.465 500.658 783.57 504.844 754.118 512.857 751.446 515.156 748.701 517.371 745.889 519.498 938.037 585.953 1072.74 759.706 1089.2 962.354 1091.5 986.164 1074.06 1007.33 1050.25 1009.62 1026.44 1011.92 1005.27 994.474 1002.98 970.664 1002.93 970.204 1002.9 969.744 1002.87 969.284 985.838 760.58 819.62 595.219 610.831 579.267L649.089 880.857 577.337 969.5 506.956 880.857 543.121 579.484C334.464 596.779 169.325 763.172 153.61 971.955 151.003 995.732 129.614 1012.89 105.837 1010.29 83.2527 1007.81 66.4205 988.305 67.2766 965.602 82.5707 761.844 217.403 586.623 410.445 519.642 277.401 443.108 231.591 273.21 308.126 140.166 384.66 7.12237 554.558-38.6875 687.602 37.8473 697.679 43.6441 707.382 50.0676 716.654 57.0797L713.55 55.2751C752.299 27.9874 798.545 13.3623 845.938 13.4077ZM578.059 106.671C472.412 106.663 386.762 192.301 386.754 297.948 386.747 403.595 472.384 489.245 578.031 489.252 578.04 489.252 578.05 489.252 578.059 489.252 683.706 489.245 769.343 403.595 769.336 297.948 769.328 192.312 683.695 106.679 578.059 106.671ZM845.866 89.0577C821.467 89.0577 798.368 94.616 777.579 104.578L776.64 103.567C827.571 155.443 856.064 225.263 855.972 297.962 856.021 340.981 846.035 383.419 826.809 421.904 833.089 422.698 839.441 423.131 845.938 423.131 935.448 423.131 1007.99 348.347 1007.99 256.094 1007.99 163.842 935.52 89.0577 846.01 89.0577Z" class="MsftOfcThm_Background1_Fill_v2" fill="#FFFFFF"/></svg>