<svg width="200" height="200" viewBox="0 0 1024 1024" xmlns="http://www.w3.org/2000/svg" xmlns:xlink="http://www.w3.org/1999/xlink" overflow="hidden"><style>
.MsftOfcThm_Accent1_Fill_v2 {
 fill:#023E80; 
}
</style>
<path d="M480 358.4 400 278.4C387.2 265.6 387.2 246.4 400 233.6 412.8 220.8 432 220.8 444.8 233.6L512 300.8 579.2 233.6C592 220.8 611.2 220.8 624 233.6 636.8 246.4 636.8 265.6 624 278.4L544 358.4 544 384 608 384C627.2 384 640 396.8 640 416 640 435.2 627.2 448 608 448L544 448 544 512C544 531.2 531.2 544 512 544 492.8 544 480 531.2 480 512L480 448 416 448C396.8 448 384 435.2 384 416 384 396.8 396.8 384 416 384L480 384 480 358.4ZM352 608 672 608C691.2 608 704 620.8 704 640 704 659.2 691.2 672 672 672L352 672C332.8 672 320 659.2 320 640 320 620.8 332.8 608 352 608ZM352 736 672 736C691.2 736 704 748.8 704 768 704 787.2 691.2 800 672 800L352 800C332.8 800 320 787.2 320 768 320 748.8 332.8 736 352 736ZM256 128C236.8 128 224 140.8 224 160L224 864C224 883.2 236.8 896 256 896L768 896C787.2 896 800 883.2 800 864L800 160C800 140.8 787.2 128 768 128L256 128ZM256 64 768 64C822.4 64 864 105.6 864 160L864 864C864 918.4 822.4 960 768 960L256 960C201.6 960 160 918.4 160 864L160 160C160 105.6 201.6 64 256 64Z" class="MsftOfcThm_Accent1_Fill_v2" fill="#023E80"/></svg>