<svg width="200" height="200" viewBox="0 0 1024 1024" xmlns="http://www.w3.org/2000/svg" xmlns:xlink="http://www.w3.org/1999/xlink" overflow="hidden"><style>
.MsftOfcThm_Background1_Fill_v2 {
 fill:#FFFFFF; 
}
</style>
<path d="M930.11 129.24 93.89 129.24C77.75 129.24 64.66 142.33 64.66 158.47L64.66 756.81C64.66 772.95 77.75 786.04 93.89 786.04L930.11 786.04C946.25 786.04 959.34 772.95 959.34 756.81L959.34 158.47C959.34 142.33 946.25 129.24 930.11 129.24ZM900.88 727.58 123.12 727.58 123.12 187.69 900.88 187.69 900.88 727.58ZM719.73 836.31 304.31 836.31C288.17 836.31 275.08 849.4 275.08 865.54 275.08 881.68 288.17 894.77 304.31 894.77L719.73 894.77C735.87 894.77 748.96 881.68 748.96 865.54 748.96 849.4 735.87 836.31 719.73 836.31Z" class="MsftOfcThm_Background1_Fill_v2" fill="#FFFFFF"/><path d="M375.93 471.63 437.73 471.63 437.73 624.18C437.73 640.32 450.82 653.41 466.96 653.41L557.88 653.41C574.02 653.41 587.11 640.32 587.11 624.18L587.11 471.27 648.11 471.27C659.64 471.27 670.11 464.48 674.83 453.94 679.51 443.38 677.57 431.07 669.84 422.49L533.9 271.52C522.79 259.23 501.55 259.23 490.44 271.52L354.2 422.87C346.47 431.43 344.53 443.76 349.21 454.3 353.93 464.84 364.39 471.63 375.93 471.63Z" class="MsftOfcThm_Background1_Fill_v2" fill="#FFFFFF"/></svg>