<?xml version="1.0" encoding="UTF-8" standalone="yes"?><svg xmlns="http://www.w3.org/2000/svg" xmlns:xlink="http://www.w3.org/1999/xlink" version="1.2" baseProfile="tiny" x="0" y="0" width="200" height="200" viewBox="0 0 1024 1024"><defs/><path fill="#ffffff" d="M 685.056 842.24 C 587.264 842.24 507.904 759.296 507.904 657.92 C 507.904 556.032 587.264 473.6 685.056 473.6 C 782.848 473.6 862.208 556.544 862.208 657.92 C 862.208 759.296 782.848 842.24 685.056 842.24 M 161.792 842.752 L 161.792 181.248 L 681.984 181.248 L 681.984 404.48 C 549.888 406.528 442.368 519.168 442.368 657.92 C 442.368 730.624 472.064 796.672 519.168 842.752 L 161.792 842.752 M 748.032 413.184 L 748.032 181.248 C 748.032 143.36 718.336 112.64 681.984 112.64 L 161.792 112.64 C 125.44 112.64 95.744 143.36 95.744 181.248 L 95.744 842.24 C 95.744 880.128 125.44 910.848 161.792 910.848 L 681.984 910.848 L 681.984 910.336 L 685.056 910.336 C 819.2 910.336 928.256 796.672 928.256 656.896 C 928.256 540.672 851.456 441.856 748.032 413.184"/><path fill="#ffffff" d="M 328.704 626.176 L 246.272 626.176 C 227.84 626.176 212.48 641.024 212.48 659.456 C 212.48 677.888 227.84 692.736 246.272 692.736 L 328.704 692.736 C 347.136 692.736 362.496 677.888 362.496 659.456 C 362.496 641.024 347.136 626.176 328.704 626.176 M 347.648 466.944 L 243.712 466.944 C 226.304 466.944 212.48 481.792 212.48 500.224 C 212.48 518.656 226.816 533.504 243.712 533.504 L 347.136 533.504 C 364.544 533.504 378.368 518.656 378.368 500.224 C 378.88 481.792 365.056 466.944 347.648 466.944 M 246.784 362.496 L 494.592 362.496 C 513.536 362.496 528.896 347.648 528.896 329.216 C 528.896 310.784 513.536 295.936 494.592 295.936 L 246.784 295.936 C 227.84 295.936 212.48 310.784 212.48 329.216 C 212.48 347.648 227.84 362.496 246.784 362.496 M 769.024 588.288 L 681.472 667.648 L 637.952 630.784 C 623.616 618.496 601.6 619.008 588.288 632.32 C 574.976 645.12 575.488 666.112 589.824 678.4 L 657.408 736.768 C 664.064 742.912 672.768 745.472 681.472 745.472 C 690.176 745.472 699.392 742.4 706.048 736.256 L 817.664 634.88 C 831.488 622.08 832 601.6 818.176 588.8 C 805.376 576 782.848 575.488 769.024 588.288"/></svg>
