<svg width="200" height="200" viewBox="0 0 1024 1024" xmlns="http://www.w3.org/2000/svg" xmlns:xlink="http://www.w3.org/1999/xlink" overflow="hidden"><style>
.MsftOfcThm_Background1_Fill_v2 {
 fill:#FFFFFF; 
}
</style>
<path d="M889.6 748.8C883.2 764.8 864 771.2 848 764.8 832 758.4 825.6 739.2 832 723.2 854.4 678.4 864 627.2 864 576 864 534.4 857.6 496 844.8 460.8 838.4 444.8 848 425.6 864 419.2 880 412.8 899.2 422.4 905.6 438.4 921.6 483.2 928 528 928 576 928 636.8 915.2 694.4 889.6 748.8ZM652.8 182.4C668.8 188.8 678.4 208 672 224 665.6 240 646.4 249.6 630.4 243.2 592 230.4 553.6 224 512 224 316.8 224 160 380.8 160 576 160 627.2 169.6 678.4 192 723.2 198.4 739.2 192 758.4 176 764.8 160 771.2 140.8 764.8 134.4 748.8 108.8 694.4 96 636.8 96 576 96 345.6 281.6 160 512 160 560 160 608 169.6 652.8 182.4Z" class="MsftOfcThm_Background1_Fill_v2" fill="#FFFFFF"/><path d="M608 435.2 771.2 272C784 259.2 803.2 259.2 816 272 828.8 284.8 828.8 304 816 316.8L652.8 480C640 492.8 620.8 492.8 608 480 595.2 467.2 595.2 448 608 435.2Z" class="MsftOfcThm_Background1_Fill_v2" fill="#FFFFFF"/><path d="M512 736C422.4 736 352 665.6 352 576 352 486.4 422.4 416 512 416 601.6 416 672 486.4 672 576 672 665.6 601.6 736 512 736ZM512 672C566.4 672 608 630.4 608 576 608 521.6 566.4 480 512 480 457.6 480 416 521.6 416 576 416 630.4 457.6 672 512 672Z" class="MsftOfcThm_Background1_Fill_v2" fill="#FFFFFF"/></svg>