<svg width="210.742" height="200" viewBox="0 0 1079 1024" xmlns="http://www.w3.org/2000/svg" xmlns:xlink="http://www.w3.org/1999/xlink" overflow="hidden"><style>
.MsftOfcThm_Accent1_Fill_v2 {
 fill:#023E80; 
}
</style>
<path d="M922.624 784.384 922.624 901.12C922.624 943.104 888.832 977.92 845.824 977.92L76.8 977.92C34.816 977.92 0 943.104 0 901.12L0 323.584C0 281.6 33.792 246.784 76.8 246.784L845.824 246.784C887.808 246.784 922.624 281.6 922.624 323.584L922.624 784.384ZM616.448 429.056C567.296 429.056 527.36 470.016 527.36 519.168 527.36 568.32 567.296 609.28 616.448 609.28 665.6 609.28 705.536 568.32 705.536 519.168 705.536 470.016 665.6 429.056 616.448 429.056ZM618.496 832.512C795.648 832.512 794.624 832.512 794.624 809.984 794.624 726.016 736.256 653.312 653.312 635.904L634.88 653.312 638.976 653.312 656.384 743.424C658.432 755.712 654.336 773.12 645.12 782.336L617.472 811.008 587.776 782.336C578.56 774.144 573.44 756.736 575.488 744.448L592.896 654.336 596.992 654.336 579.584 634.88C498.688 652.288 438.272 723.968 438.272 809.984 438.272 832.512 441.344 832.512 618.496 832.512ZM125.952 662.528C125.952 677.888 140.288 688.128 155.648 688.128L293.888 688.128C309.248 688.128 321.536 675.84 321.536 660.48 321.536 645.12 309.248 632.832 293.888 632.832L154.624 632.832C139.264 633.856 125.952 647.168 125.952 662.528ZM125.952 544.768C125.952 560.128 139.264 572.416 153.6 572.416L472.064 572.416C486.4 572.416 498.688 560.128 498.688 544.768 498.688 529.408 486.4 517.12 472.064 517.12L153.6 517.12C139.264 517.12 125.952 528.384 125.952 544.768ZM125.952 431.104C125.952 446.464 139.264 456.704 154.624 456.704L400.384 456.704C415.744 456.704 428.032 445.44 428.032 430.08 428.032 414.72 415.744 403.456 400.384 403.456L154.624 403.456C139.264 403.456 125.952 415.744 125.952 431.104Z" class="MsftOfcThm_Accent1_Fill_v2" fill="#023E80"/><path d="M994.304 46.08 226.304 46.08C184.32 46.08 146.432 101.376 146.432 144.384L146.432 201.728 905.216 201.728C947.2 201.728 974.848 242.688 974.848 284.672L974.848 824.32 995.328 824.32C1037.31 824.32 1079.3 764.928 1079.3 721.92L1079.3 144.384C1078.27 101.376 1037.31 46.08 994.304 46.08Z" class="MsftOfcThm_Accent1_Fill_v2" fill="#023E80"/></svg>