<?xml version="1.0" encoding="UTF-8" standalone="yes"?><svg xmlns="http://www.w3.org/2000/svg" xmlns:xlink="http://www.w3.org/1999/xlink" version="1.2" baseProfile="tiny" x="0" y="0" width="212" height="200" viewBox="0 0 1090 1024"><defs/><path fill="#ffffff" stroke-width="0.484606" d="M 171.866 2.07981 C 177.31 1.06437 182.876 0.807455 188.406 0.807455 C 422.091 0.831924 655.764 0.795221 889.449 0.831924 C 906.283 0.611709 923.154 6.25166 936.293 16.822 C 953.36 30.2429 963.894 51.5793 963.979 73.3071 C 963.979 106.817 963.991 140.326 963.967 173.823 C 963.918 200.714 947.487 226.577 923.386 238.346 C 913.256 243.423 901.94 246.066 890.623 246.066 C 659.801 246.078 428.979 246.066 198.157 246.066 C 190.095 245.968 181.971 246.482 173.982 245.197 C 155.668 242.457 138.625 232.376 127.309 217.732 C 117.289 204.959 111.759 188.773 111.833 172.551 L 111.833 74.604 C 111.71 58.6384 117.008 42.7217 126.673 30.0227 C 137.561 15.5129 154.004 5.30963 171.866 2.07981 M 207.063 98.0691 C 197.582 100.406 189.972 108.933 188.908 118.671 C 188.321 125.009 188.443 131.799 191.722 137.463 C 196.004 145.464 204.984 150.493 214.025 150.162 C 271.966 150.138 329.894 150.174 387.835 150.138 C 399.115 150.333 409.661 141.708 411.753 130.636 C 412.83 123.626 412.732 115.968 409.062 109.679 C 404.853 102.155 396.448 97.2249 387.823 97.3228 C 331.534 97.2739 275.257 97.3228 218.979 97.2983 C 215.003 97.3106 210.954 97.0781 207.063 98.0691 M 173.065 285.974 C 176.943 285.313 180.87 285.007 184.797 284.971 C 420.085 284.971 655.384 284.983 890.672 284.971 C 910.198 284.86 929.552 293.045 943.108 307.078 C 956.125 320.291 963.808 338.617 963.967 357.177 C 963.991 390.649 963.979 424.134 963.979 457.607 C 963.918 478.185 954.498 498.445 938.973 511.927 C 925.466 523.892 907.433 530.425 889.412 530.143 C 654.907 530.143 420.403 530.156 185.898 530.143 C 169.688 530.253 153.429 524.956 140.632 514.961 C 122.892 501.625 111.943 479.8 111.857 457.607 C 111.82 424.55 111.845 391.493 111.845 358.424 C 111.759 341.382 117.901 324.401 128.863 311.347 C 139.959 298 155.912 288.763 173.065 285.974 M 210.868 380.862 C 199.967 381.657 190.425 390.698 188.981 401.525 C 188.272 408.107 188.37 415.215 191.832 421.088 C 196.175 429.016 205.143 433.958 214.159 433.591 C 272.063 433.555 329.968 433.603 387.872 433.555 C 398.993 433.738 409.392 425.345 411.668 414.494 C 413.038 406.627 412.671 397.806 407.802 391.139 C 403.153 384.349 394.919 380.422 386.734 380.727 C 328.12 380.825 269.482 380.532 210.868 380.862 M 901.059 592.917 C 917.073 581.882 935.914 574.223 955.538 573.734 C 975.296 573.061 994.662 579.863 1011.22 590.323 C 1038.52 607.732 1059.36 633.363 1077.13 660.058 C 1087.79 675.901 1092.72 696.369 1087.23 714.989 C 1084.36 725.376 1077.72 734.013 1072.23 743.091 C 1052.76 774.227 1034.44 806.085 1013.86 836.511 C 978.831 888.776 934.899 936.036 880.983 969.093 C 834.089 998.1 780.259 1015.25 725.425 1020.29 C 701.079 1022.89 676.562 1022.32 652.13 1021.7 C 529.36 1019.09 406.554 1021.12 283.784 1022.97 C 271.048 1023.07 257.505 1022.84 246.09 1016.48 C 237.808 1011.89 232.706 1003.13 230.749 994.063 C 228.632 985.034 228.547 975.7 228.791 966.487 C 231.226 863.72 230.406 760.916 229.073 658.149 C 229.085 645.646 230.002 631.589 239.141 622.059 C 248.256 613.066 261.897 611.819 274.058 611.733 C 367.845 612.859 461.632 612.467 555.419 612.284 C 586.029 612.54 616.688 611.464 647.261 613.568 C 670.2 615.33 693.91 618.682 714.084 630.5 C 730.417 639.945 742.565 655.152 751.374 671.607 C 763.877 695.06 771.976 720.519 779.781 745.844 C 793.545 726.514 808.201 707.82 821.732 688.319 C 832.021 673.626 840.622 657.819 851.364 643.419 C 865.335 624.322 881.46 606.399 901.059 592.917 M 330.323 691.39 C 330.457 734.05 330.641 776.698 330.751 819.359 C 430.117 819.383 529.47 819.335 628.824 819.383 C 638.281 819.738 648.117 818.87 656.632 814.404 C 665.417 809.841 671.815 801.448 674.739 792.065 C 680.293 775.047 677.663 756.696 673.675 739.641 C 669.026 720.788 657.55 702.168 638.905 694.644 C 629.999 690.399 620.003 691.475 610.461 691.39 L 330.323 691.39 M 35.6871 617.826 C 42.3547 615.782 49.4016 615.819 56.3016 615.856 C 86.8748 615.88 117.448 615.856 148.033 615.868 C 159.925 615.77 171.829 620.003 180.735 627.931 C 191.575 637.204 197.827 651.408 197.594 665.649 C 197.631 768.379 197.631 871.11 197.594 973.852 C 197.692 987.408 191.844 1000.88 181.812 1010.02 C 172.795 1018.52 160.427 1023.12 148.07 1023.02 C 115.062 1023.01 82.0546 1023.07 49.059 1022.98 C 31.6987 1023.09 14.8645 1013.03 6.56975 997.819 C 1.66385 989.402 0.281386 979.529 0 969.937 L 0 672.365 C 0.562772 664.805 0.244683 657.024 2.78939 649.781 C 7.58519 634.562 20.3454 622.193 35.6871 617.826 M 93.5058 691.989 C 84.1099 694.02 76.3412 701.874 74.3715 711.282 C 72.1694 720.727 76.0843 731.187 83.8775 736.937 C 91.3403 742.712 102.119 743.691 110.523 739.396 C 118.109 735.665 123.528 727.921 124.397 719.504 C 125.351 711.393 122.06 702.951 115.87 697.617 C 109.887 692.295 101.299 690.166 93.5058 691.989"/></svg>
