<svg width="216.602" height="200" viewBox="0 0 1109 1024" xmlns="http://www.w3.org/2000/svg" xmlns:xlink="http://www.w3.org/1999/xlink" overflow="hidden"><style>
.MsftOfcThm_Accent1_Fill_v2 {
 fill:#023E80; 
}
</style>
<path d="M170.667 85.3333 712.192 85.3333C736.085 85.3333 754.859 66.56 754.859 42.6667 754.859 18.7733 736.085 0 712.192 0L170.667 0C113.792 0 71.1253 14.208 42.6667 42.6667 14.208 71.1253 0 113.792 0 170.667L0 677.333C0 734.208 14.208 776.875 42.6667 805.333 71.1253 833.792 113.792 848 170.667 848L512 848 512 938.667 278.997 938.667C255.104 938.667 236.331 957.44 236.331 981.333 236.331 1005.23 255.104 1024 278.997 1024L830.293 1024C854.187 1024 872.96 1005.23 872.96 981.333 872.96 957.44 854.187 938.667 830.293 938.667L597.333 938.667 597.333 848 938.667 848C995.541 848 1038.21 833.792 1066.67 805.333 1095.13 776.875 1109.33 734.208 1109.33 677.333L1109.33 170.667C1109.33 113.792 1095.13 71.1253 1066.67 42.6667 1038.21 14.208 995.541-7.10543e-15 938.667-7.10543e-15L869.717-7.10543e-15C845.824-7.10543e-15 827.051 18.7733 827.051 42.6667 827.051 66.56 845.824 85.3333 869.717 85.3333L938.667 85.3333C967.125 85.3333 988.459 92.4587 1002.67 106.667 1016.87 120.875 1024 142.208 1024 170.667L1024 677.333C1024 705.792 1016.87 727.125 1002.67 741.333 988.459 755.541 967.125 762.667 938.667 762.667L170.667 762.667C142.208 762.667 120.875 755.541 106.667 741.333 92.4587 727.125 85.3333 705.792 85.3333 677.333L85.3333 170.667C85.3333 142.208 92.4587 120.875 106.667 106.667 120.875 92.4587 142.208 85.3333 170.667 85.3333ZM278.997 234.667 200.192 234.667C176.299 234.667 157.525 253.44 157.525 277.333 157.525 301.227 176.299 320 200.192 320L279.04 320C302.933 320 321.707 301.227 321.707 277.333 321.707 253.44 302.933 234.667 279.04 234.667ZM397.141 234.667 869.717 234.667C893.611 234.667 912.384 253.44 912.384 277.333 912.384 301.227 893.611 320 869.717 320L397.141 320C373.248 320 354.475 301.227 354.475 277.333 354.475 253.44 373.248 234.667 397.141 234.667ZM200.192 469.333C176.299 469.333 157.525 488.107 157.525 512 157.525 535.893 176.299 554.667 200.192 554.667L279.04 554.667C302.933 554.667 321.707 535.893 321.707 512 321.707 488.107 302.933 469.333 279.04 469.333L200.192 469.333ZM869.717 469.333 397.141 469.333C373.248 469.333 354.475 488.107 354.475 512 354.475 535.893 373.248 554.667 397.141 554.667L869.717 554.667C893.611 554.667 912.384 535.893 912.384 512 912.384 488.107 893.611 469.333 869.717 469.333Z" class="MsftOfcThm_Accent1_Fill_v2" fill="#023E80"/></svg>