<svg width="200" height="200" viewBox="0 0 1024 1024" xmlns="http://www.w3.org/2000/svg" xmlns:xlink="http://www.w3.org/1999/xlink" overflow="hidden"><style>
.MsftOfcThm_Background1_Fill_v2 {
 fill:#FFFFFF; 
}
</style>
<path d="M245.137 610.752C110.145 610.752 0.346901 500.955 0.346901 365.962 0.346901 230.968 110.144 121.173 245.137 121.173 380.131 121.173 489.927 230.969 489.927 365.963 489.927 500.956 380.13 610.752 245.137 610.752ZM245.137 184.178C144.907 184.178 63.3519 265.733 63.3519 365.963 63.3519 466.193 144.907 547.748 245.137 547.748 345.367 547.748 426.922 466.193 426.922 365.963 426.922 265.733 345.366 184.178 245.137 184.178Z" class="MsftOfcThm_Background1_Fill_v2" fill="#FFFFFF"/><path d="M778.863 610.752C643.87 610.752 534.042 500.955 534.042 365.962 534.042 230.968 643.87 121.173 778.863 121.173 913.855 121.173 1023.65 230.969 1023.65 365.963 1023.65 500.956 913.855 610.752 778.863 610.752ZM778.863 184.178C678.602 184.178 597.047 265.733 597.047 365.963 597.047 466.193 678.602 547.748 778.863 547.748 879.093 547.748 960.648 466.193 960.648 365.963 960.648 265.733 879.093 184.178 778.863 184.178Z" class="MsftOfcThm_Background1_Fill_v2" fill="#FFFFFF"/><path d="M887.245 902.827 824.24 902.827C824.24 788.846 758.005 696.093 676.572 696.093 595.14 696.093 528.904 788.846 528.904 902.827L465.899 902.827C465.899 754.083 560.406 633.088 676.571 633.088 792.736 633.088 887.245 754.083 887.245 902.827Z" class="MsftOfcThm_Background1_Fill_v2" fill="#FFFFFF"/><path d="M198.806 902.827 135.801 902.827C135.801 754.083 230.308 633.088 346.473 633.088 390.281 633.088 432.213 649.947 467.714 681.818L425.629 728.702C401.879 707.383 374.499 696.093 346.473 696.093 265.041 696.092 198.806 788.846 198.806 902.827Z" class="MsftOfcThm_Background1_Fill_v2" fill="#FFFFFF"/><path d="M145.814 424.627C168.795 475.994 226.576 503.975 282.18 487.901 337.788 471.825 371.721 417.33 363.753 361.622L145.814 424.627Z" class="MsftOfcThm_Background1_Fill_v2" fill="#FFFFFF"/><path d="M878.172 424.627C855.19 475.994 797.409 503.975 741.806 487.901 686.197 471.825 652.265 417.33 660.233 361.622L878.172 424.627Z" class="MsftOfcThm_Background1_Fill_v2" fill="#FFFFFF"/></svg>