<svg width="200" height="200" viewBox="0 0 1024 1024" xmlns="http://www.w3.org/2000/svg" xmlns:xlink="http://www.w3.org/1999/xlink" overflow="hidden"><style>
.MsftOfcThm_Background1_Fill_v2 {
 fill:#FFFFFF; 
}
</style>
<path d="M356.978 921.6C351.397 919.225 345.868 916.731 340.395 914.119 357.792 902.397 373.49 888.331 387.044 872.32 426.827 888.032 469.226 896.067 512 896 554.766 896.057 597.163 888.036 636.942 872.32 650.506 888.326 666.202 902.395 683.591 914.133 630.025 939.759 571.38 953.004 512 952.889 458.747 952.991 406.022 942.349 356.978 921.6ZM689.963 846.023C657.853 814.084 639.862 770.623 640 725.333 639.876 680.046 657.878 636.591 689.991 604.658 721.922 572.542 765.378 554.54 810.667 554.667 855.959 554.542 899.418 572.544 931.356 604.658 963.461 636.596 981.456 680.049 981.333 725.333 981.456 770.621 963.454 814.075 931.342 846.009 899.406 878.118 855.953 896.119 810.667 896 765.379 896.124 721.924 878.122 689.991 846.009L689.963 846.023ZM696.889 725.333C696.959 788.142 747.858 839.041 810.667 839.111 873.478 839.048 924.382 788.145 924.444 725.333 924.374 662.525 873.475 611.626 810.667 611.556 747.861 611.634 696.967 662.528 696.889 725.333ZM92.6578 846.009C60.5417 814.078 42.5396 770.622 42.6667 725.333 42.5428 680.046 60.5444 636.591 92.6578 604.658 124.591 572.544 168.046 554.543 213.333 554.667 258.622 554.54 302.078 572.542 334.009 604.658 366.122 636.591 384.124 680.046 384 725.333 384.129 770.622 366.126 814.078 334.009 846.009 302.075 878.121 258.621 896.122 213.333 896 168.046 896.121 124.593 878.12 92.6578 846.009ZM99.5556 725.333C99.6261 788.142 150.525 839.041 213.333 839.111 276.145 839.048 327.048 788.145 327.111 725.333 327.041 662.525 276.142 611.626 213.333 611.556 150.528 611.634 99.6339 662.528 99.5556 725.333ZM908.715 519.922C889.823 510.888 869.767 504.522 849.124 501.006 835.598 415.889 790.298 339.068 722.361 286.037 730.219 267.034 735.449 247.048 737.906 226.631 757.838 240.397 776.479 255.944 793.6 273.081 829.969 309.353 858.95 352.341 878.933 399.659 895.151 437.921 905.231 478.503 908.8 519.908L908.715 519.922ZM115.257 519.922C118.826 478.517 128.906 437.936 145.124 399.673 165.113 352.358 194.093 309.371 230.457 273.095 247.577 255.963 266.213 240.416 286.137 226.645 288.593 247.062 293.823 267.048 301.682 286.052 233.75 339.085 188.455 415.906 174.933 501.02 154.29 504.54 134.236 510.905 115.342 519.936L115.271 519.936ZM391.31 319.815C359.199 287.87 341.203 244.406 341.333 199.111 341.214 153.824 359.215 110.371 391.324 78.4356 423.258 46.3235 466.713 28.3222 512 28.4445 557.288 28.3174 600.744 46.3195 632.676 78.4356 664.789 110.369 682.79 153.823 682.667 199.111 682.79 244.399 664.789 287.854 632.676 319.787 600.742 351.899 557.287 369.9 512 369.778 466.716 369.899 423.264 351.904 391.324 319.801ZM398.222 199.111C398.293 261.92 449.192 312.818 512 312.889 574.812 312.826 625.715 261.923 625.778 199.111 625.707 136.303 574.808 85.4039 512 85.3333 449.195 85.4117 398.301 136.306 398.222 199.111Z" class="MsftOfcThm_Background1_Fill_v2" fill="#FFFFFF"/></svg>