<svg width="226.562" height="200" viewBox="0 0 1160 1024" xmlns="http://www.w3.org/2000/svg" xmlns:xlink="http://www.w3.org/1999/xlink" overflow="hidden"><style>
.MsftOfcThm_Accent1_Fill_v2 {
 fill:#023E80; 
}
</style>
<path d="M979.217 453.325 924.809 453.325 924.809 235.725 979.183 235.725 979.183 72.5333 1088 72.5333 1088 235.725 1142.41 235.725 1142.41 453.325 1088 453.325 1088 834.116C1088 924.254 1014.93 997.325 924.791 997.325 834.654 997.325 761.583 924.254 761.583 834.116L761.583 616.516 652.8 616.516 652.8 888.559 707.209 888.559 707.209 997.342 0 997.342 0 888.491 54.4085 888.491 54.4085 72.5333C54.4085 42.496 78.7456 18.1248 108.783 18.1248L598.391 18.1248C628.429 18.1248 652.8 42.496 652.8 72.5333L652.8 507.733 761.617 507.733C821.702 507.752 870.4 556.466 870.4 616.55L870.4 834.15C870.4 864.199 894.76 888.559 924.809 888.559 954.858 888.559 979.217 864.199 979.217 834.15L979.217 453.291ZM380.791 453.325 380.791 235.725 163.191 562.176 326.417 562.176 326.417 779.776 543.983 453.359 380.826 453.359Z" class="MsftOfcThm_Accent1_Fill_v2" fill="#023E80"/></svg>