<svg width="200" height="200" viewBox="0 0 1024 1024" xmlns="http://www.w3.org/2000/svg" xmlns:xlink="http://www.w3.org/1999/xlink" overflow="hidden"><style>
.MsftOfcThm_Background1_Fill_v2 {
 fill:#FFFFFF; 
}
</style>
<path d="M856.9 497.3 813 497.3C812 483.6 810.8 470.1 810.2 456.6 810.1 454.6 812.5 452.2 814.2 450.5 842.3 424 870.4 397.5 898.8 371.2 903.2 367.2 903.4 364.5 900.5 359.5 872.8 312.1 845.4 264.6 818.1 217.1 815.4 212.3 813 211.3 807.6 213.2 772.7 226 737.6 238.2 702.7 251 697.5 252.9 693.8 252.7 689.3 249.2 667.7 232.6 644.3 219.1 619.2 208.7 614.9 206.9 612.7 204.5 611.6 199.8 603.1 162.9 594.2 126.1 585.7 89.2 584.6 84.6 582.8 83.2 578.2 83.3 522.4 83.4 466.5 83.5 410.7 83.3 405.9 83.3 404.5 84.8 403.6 89.5 396.9 127 390 164.5 382.9 202 382.4 204.6 379.9 207.9 377.5 208.9 351.5 220.3 327.3 234.7 304.6 251.7 302.3 253.4 298 254 295.2 253.2 258.6 242.5 222.1 231.6 185.7 220.3 180.2 218.6 177.9 219.9 175.3 224.6 147.9 272.4 120.4 320.1 92.6 367.7 89.8 372.4 90.5 374.7 94.5 378.1 123.4 402.3 152 426.9 181 451 186.1 455.2 187.9 459.1 187 465.9 183.9 491 185 516.2 188.2 541.3 188.8 546 187.4 548.6 184.2 551.6 155.6 578.3 127.2 605.1 98.5 631.7 94.8 635.1 94 637.5 96.8 642.2 124.6 689.8 152.1 737.4 179.5 785.3 182.6 790.7 185.3 791 190.6 789.1 227.9 775.5 265.4 762.3 302.8 748.7 306.8 747.3 309.6 747.6 313.1 750.1 333.1 764.8 354.5 777.1 377.5 786.5 381.8 788.3 383.4 791 384.4 795.2 393.9 836.2 403.6 877.2 413.4 918.8L509.2 918.8 509.2 964.2 409.5 964.2C387.7 964.2 375.5 954.4 370.5 933 362.2 897.5 353.9 862 345.2 826.6 344.5 823.5 341.6 820.3 338.8 818.6 328.6 812.3 317.8 807 307.6 800.6 303 797.7 299.4 797.7 294.6 799.4 261.7 811.4 228.6 823.1 195.6 834.9 172.6 843.1 158.1 837.8 145.8 816.6 115.1 763 84.2 709.6 53.4 656.2 41.9 636.3 44 621.4 60.7 605.7 85.9 582 111.1 558.2 136.5 534.7 140.6 530.9 141.7 527.2 141.5 521.8 140.9 508.2 141.3 494.5 140.8 480.9 140.7 477.9 138.7 474.3 136.4 472.3 110.3 449.9 84 427.7 57.8 405.5 40 390.4 37.1 374.5 48.7 354.3L142 192.9C153.3 173.4 167.5 167.8 188.9 174.3 221.6 184.1 254.2 194.1 286.9 203.6 289.7 204.4 293.8 203.7 296.4 202.2 310.4 194.4 324.1 186.3 337.7 177.8 340.3 176.2 342.8 172.9 343.3 170 349.7 136.3 355.7 102.4 361.9 68.6 365.4 49.7 378.6 38.3 397.8 38.2 462.1 38.1 526.4 38.1 590.8 38.2 609.3 38.2 622 48.1 626.4 66.3 634.5 99.7 642.4 133.1 650 166.6 651.2 171.9 653.7 174.8 658.6 177.3 671.9 184.3 684.9 192 697.7 199.9 701.3 202.1 704.1 202.6 708.1 201.1 739.5 189.7 771 178.6 802.4 167.3 824.9 159.3 839.7 164.6 851.7 185.4 882.7 239 913.7 292.6 944.6 346.2 955.9 365.8 953.8 380.7 937.4 396.1 912.5 419.5 887.7 443 862.6 466.2 858.1 470.4 855.8 474.5 856.6 480.8 857.5 486.1 856.9 491.4 856.9 497.3Z" class="MsftOfcThm_Background1_Fill_v2" fill="#FFFFFF"/><path d="M995.3 827 945.3 827 945.3 965.6 606.9 965.6 606.9 827.2 553 827.2 553 819.9C553 793.5 552.9 767.1 553.2 740.7 553.2 737.4 554.9 733.3 557.2 731.1 622.3 671.7 687.6 612.5 752.7 553.2 760.6 546 769 540.7 780 544.3 784.3 545.7 788.7 548.1 792.1 551.2 858.7 611.1 925.1 671.1 991.4 731.2 993.2 732.9 995 735.8 995.1 738.1 995.4 767.4 995.3 796.6 995.3 827ZM651.6 781.8 651.6 920.6 900.5 920.6 900.5 781.8 950.2 781.8C950.2 774.1 950.7 767 950 760.1 949.7 756.8 948 752.8 945.7 750.7 890.1 700.2 834.3 649.8 778.5 599.5 777 598.1 775.4 596.9 773.8 595.6 772.7 596.4 771.9 596.9 771.2 597.5 714.5 648.9 657.8 700.4 601.2 751.9 599.9 753.1 598.3 754.8 598.2 756.4 597.9 764.8 598.1 773.2 598.1 781.9 616.2 781.8 633.3 781.8 651.6 781.8ZM687.7 497.2 643.7 497.2C641.8 448.6 622.2 409 582.7 380.3 554.4 359.8 522.3 350.8 487.5 353.8 415 360 358.2 419.4 354.7 490.1 351 562.7 407 640.4 498.7 642.7L498.7 686.2C440.1 689 368.4 654.8 332.2 586.9 293.1 513.4 305.8 426.1 364.2 365 418.8 307.8 507.6 292.1 580.5 326.8 651.8 360.8 689.9 433.3 687.7 497.2Z" class="MsftOfcThm_Background1_Fill_v2" fill="#FFFFFF"/></svg>