<svg width="200" height="200" viewBox="0 0 1024 1024" xmlns="http://www.w3.org/2000/svg" xmlns:xlink="http://www.w3.org/1999/xlink" overflow="hidden"><style>
.MsftOfcThm_Accent1_Fill_v2 {
 fill:#023E80; 
}
</style>
<path d="M509.6 959.2C500 959.2 490.4 957.1 481.5 952.8 480.6 952.4 479.8 951.9 478.9 951.4L162.7 762.3C141.2 751.3 127.5 728.8 127.5 704.6L127.5 320C127.5 297 139.8 275.6 159.6 264L476.8 74.8C476.9 74.7 477 74.7 477.2 74.6 497.1 63.1 521.8 63 541.8 74.4 541.9 74.5 542 74.5 542.2 74.6L864.7 264C884.8 275.5 897.2 297.1 897.2 320.2L897.2 704.5C897.2 728.9 883.3 751.4 861.6 762.4L539.9 951.6C539.1 952.1 538.2 952.5 537.3 952.9 528.5 957.1 519.1 959.2 509.6 959.2ZM509.3 129.9 192.3 319.1C192.2 319.2 192.1 319.2 191.9 319.3 191.6 319.4 191.5 319.7 191.5 320L191.5 704.6C191.5 704.9 191.7 705.2 192 705.4 192.9 705.8 193.7 706.3 194.6 706.8L509.7 895.2 830.3 706.6C831.1 706.1 832 705.7 832.9 705.3 833.2 705.2 833.4 704.9 833.4 704.5L833.4 320.2C833.4 319.9 833.2 319.6 833 319.5 832.9 319.4 832.8 319.4 832.6 319.3L510 129.9C509.8 129.8 509.5 129.8 509.3 129.9Z" class="MsftOfcThm_Accent1_Fill_v2" fill="#023E80"/><path d="M319.8 544.3C302.1 544.3 287.8 530 287.8 512.3 287.8 431.4 331.6 356.4 402.2 316.5 417.6 307.8 437.1 313.2 445.8 328.6 454.5 344 449.1 363.5 433.7 372.2 383.2 400.7 351.9 454.4 351.9 512.2 351.8 530 337.5 544.3 319.8 544.3Z" class="MsftOfcThm_Accent1_Fill_v2" fill="#023E80"/><path d="M512.6 375.9C481.8 375.9 456.8 350.9 456.8 320.1 456.8 289.3 481.8 264.3 512.6 264.3 543.4 264.3 568.4 289.3 568.4 320.1 568.4 350.9 543.4 375.9 512.6 375.9ZM512.6 311.9C508.1 311.9 504.4 315.6 504.4 320.1 504.4 324.6 508.1 328.3 512.6 328.3 517.1 328.3 520.8 324.6 520.8 320.1 520.8 315.6 517.1 311.9 512.6 311.9ZM676.8 664.2C646 664.2 621 639.2 621 608.4 621 577.6 646 552.6 676.8 552.6 707.6 552.6 732.6 577.6 732.6 608.4 732.6 639.2 707.5 664.2 676.8 664.2ZM676.8 600.2C672.3 600.2 668.6 603.9 668.6 608.4 668.6 612.9 672.3 616.6 676.8 616.6 681.3 616.6 685 612.9 685 608.4 685 603.9 681.3 600.2 676.8 600.2ZM344.5 662.2C313.7 662.2 288.7 637.2 288.7 606.4 288.7 575.6 313.7 550.6 344.5 550.6 375.3 550.6 400.3 575.6 400.3 606.4 400.3 637.2 375.3 662.2 344.5 662.2ZM344.5 598.2C340 598.2 336.3 601.9 336.3 606.4 336.3 610.9 340 614.6 344.5 614.6 349 614.6 352.7 610.9 352.7 606.4 352.7 601.9 349.1 598.2 344.5 598.2Z" class="MsftOfcThm_Accent1_Fill_v2" fill="#023E80"/><path d="M511.9 736.5C472.3 736.5 432.7 726.1 397.5 705.3 382.3 696.3 377.2 676.7 386.2 661.5 395.2 646.3 414.8 641.2 430 650.2 479.9 679.7 542.1 680 592.2 651 607.5 642.2 627.1 647.4 635.9 662.7 644.7 678 639.5 697.6 624.2 706.4 589.5 726.5 550.7 736.5 511.9 736.5ZM704.7 547.7 704.4 547.7C686.7 547.5 672.5 533.1 672.7 515.4 673.3 457.4 642.5 403.4 592.3 374.5 577 365.7 571.8 346.1 580.6 330.8 589.4 315.5 609 310.3 624.3 319.1 694.4 359.5 737.4 435 736.7 516 736.5 533.6 722.2 547.7 704.7 547.7Z" class="MsftOfcThm_Accent1_Fill_v2" fill="#023E80"/></svg>