<svg width="242.969" height="200" viewBox="0 0 1244 1024" xmlns="http://www.w3.org/2000/svg" xmlns:xlink="http://www.w3.org/1999/xlink" overflow="hidden"><style>
.MsftOfcThm_Background1_Fill_v2 {
 fill:#FFFFFF; 
}
</style>
<path d="M720.241 379.194C666.748 433.23 579.578 433.67 525.542 380.177 525.213 379.851 524.885 379.523 524.559 379.194L474.767 329.402 572.608 231.809 423.232 79.6946C409.76 65.9449 387.693 65.7197 373.943 79.1916 373.774 79.3576 373.606 79.5252 373.44 79.6946L79.4183 374.463C65.6686 387.935 65.4434 410.003 78.9153 423.752 79.0812 423.922 79.2489 424.089 79.4183 424.255L597.504 944.333C610.976 958.082 633.043 958.308 646.793 944.836 646.962 944.67 647.13 944.502 647.296 944.333L672.192 919.437 598.749 844.749C589.807 835.944 586.289 823.012 589.537 810.89 595.215 792.641 614.611 782.449 632.861 788.127 638.328 789.828 643.288 792.859 647.296 796.948L720.739 870.392 770.531 820.6 697.337 745.912C683.587 732.162 683.587 709.869 697.337 696.12 711.087 682.37 733.379 682.37 747.129 696.12L820.572 770.808 870.364 721.016 797.17 646.328C788.009 637.546 784.215 624.552 787.212 612.22 791.915 593.696 810.745 582.492 829.269 587.195 835.658 588.817 841.451 592.231 845.966 597.034L919.409 671.722 944.305 646.826C958.055 633.551 958.44 611.643 945.165 597.894 944.884 597.602 944.597 597.315 944.305 597.034ZM770.033 329.402 990.363 550.478C998.7 558.776 1005.52 568.464 1010.53 579.108L1166.38 422.762C1180.13 409.487 1180.51 387.579 1167.24 373.83 1166.96 373.538 1166.67 373.251 1166.38 372.97L871.36 79.4456C858.085 65.696 836.178 65.3109 822.428 78.5856 822.136 78.8672 821.85 79.1539 821.568 79.4456L572.608 330.148C599.257 357.167 642.762 357.466 669.781 330.817 670.005 330.596 670.228 330.373 670.449 330.148L743.893 255.46C757.642 241.711 779.935 241.711 793.685 255.46 807.434 269.21 807.434 291.503 793.685 305.252L768.789 330.148ZM990.363 697.862 697.088 993.378C656.481 1033.83 590.809 1033.83 550.202 993.378L30.3731 472.802C-10.1355 432.025-10.1355 366.196 30.3731 325.418L323.648 30.6495C363.782-9.9121 429.199-10.2587 469.76 29.8753 470.02 30.132 470.278 30.39 470.534 30.6495L622.4 182.764 774.017 30.4005C814.624-10.0505 880.296-10.0505 920.903 30.4005L1214.43 325.169C1254.94 365.947 1254.94 431.776 1214.43 472.554Z" class="MsftOfcThm_Background1_Fill_v2" fill="#FFFFFF"/></svg>