<svg width="200" height="200" viewBox="0 0 1024 1024" xmlns="http://www.w3.org/2000/svg" xmlns:xlink="http://www.w3.org/1999/xlink" overflow="hidden"><style>
.MsftOfcThm_Accent1_Fill_v2 {
 fill:#023E80; 
}
</style>
<path d="M897 896.2 128 896.2 128 647.1 148.1 640.1C165.6 634 181.9 618.7 194 597.2 207.5 573.3 214.9 542.9 214.9 511.8 214.9 480.7 207.5 450.3 194 426.4 181.9 404.9 165.6 389.6 148.1 383.5L128 376.5 128 127.2 897 127.2 897 376.2 876.1 382.8C858.3 388.4 841.6 403.5 829.2 425.1 815.3 449.2 807.7 480 807.7 511.7 807.7 543.4 815.3 574.1 829.2 598.3 841.7 620 858.3 635 876.1 640.6L897 647.2 897 896.2ZM188 836.2 837 836.2 837 688.9C783.5 660 747.7 590.8 747.7 511.7 747.7 432.6 783.5 363.4 837 334.5L837 187.2 188 187.2 188 336C211 349.2 231.3 370.2 246.3 396.9 265 430.1 274.9 469.9 274.9 511.8 274.9 553.7 265 593.4 246.3 626.7 231.3 653.4 211 674.4 188 687.6L188 836.2Z" class="MsftOfcThm_Accent1_Fill_v2" fill="#023E80"/><path d="M364.707 292.502 412.749 256.556 523.343 404.366 475.3 440.31Z" class="MsftOfcThm_Accent1_Fill_v2" fill="#023E80"/><path d="M501.277 404.269 611.871 256.459 659.913 292.406 549.319 440.215Z" class="MsftOfcThm_Accent1_Fill_v2" fill="#023E80"/><path d="M362.5 393.9 662.5 393.9 662.5 453.9 362.5 453.9ZM362.5 535.8 662.5 535.8 662.5 595.8 362.5 595.8Z" class="MsftOfcThm_Accent1_Fill_v2" fill="#023E80"/><path d="M483.4 397.7 543.4 397.7 543.4 748.9 483.4 748.9Z" class="MsftOfcThm_Accent1_Fill_v2" fill="#023E80"/></svg>