<?xml version='1.0' encoding='utf-8'?>
<svg xmlns="http://www.w3.org/2000/svg" version="1.1" width="1280" height="720" viewBox="0 0 1280 720"><defs><linearGradient id="bggrad1" x1="0.5" y1="0" x2="0.5" y2="1"><stop offset="0" stop-color="#F0F4FC" /><stop offset="1" stop-color="#112D5C" /></linearGradient><filter id="fx1" x="-25%" y="-25%" width="150%" height="150%"><feDropShadow dx="0" dy="16.29" stdDeviation="14.41" flood-color="#3E2716" flood-opacity="0.4" /></filter><filter id="fx2" x="-25%" y="-25%" width="150%" height="150%"><feDropShadow dx="0" dy="16.29" stdDeviation="14.41" flood-color="#3E2716" flood-opacity="0.4" /></filter><filter id="fx3" x="-25%" y="-25%" width="150%" height="150%"><feDropShadow dx="0" dy="16.29" stdDeviation="14.41" flood-color="#3E2716" flood-opacity="0.4" /></filter></defs><rect x="0" y="0" width="1280" height="720" fill="url(#bggrad1)" />
<g id="layout-shape-6" data-name="矩形 5">
<rect x="28.13" y="28.73" width="1224.6" height="670.8" fill="#FFFFFF" stroke="none" stroke-width="1" />
</g>
<g id="shape-6" data-name="文本占位符 5" data-ph-type="body">
<rect x="74.73" y="61.33" width="907.13" height="57.47" fill="none" />
<text x="84.33" y="86.53" text-anchor="start" xml:space="preserve" font-family="&quot;思源黑体 CN Bold&quot;, sans-serif" font-size="24" fill="#000000"><tspan fill="#000000" font-size="24">{{TOC_ITEM_1_TITLE}}</tspan></text>
</g>
<g id="shape-31" data-name="矩形: 圆顶角 2" transform="rotate(270 352.78 231.37) translate(352.78 231.37) scale(-1 -1) translate(-352.78 -231.37)">
<path d="M 291.09 -33.99 L 414.46 -33.99 A 4.09 4.09 0 0 1 418.54 -29.9 L 418.54 496.73 L 418.54 496.73 L 287.01 496.73 L 287.01 496.73 L 287.01 -29.9 A 4.09 4.09 0 0 1 291.09 -33.99 Z" data-pptx-prst="round2SameRect" data-pptx-adj1="3107" data-pptx-adj2="0" fill="#173C7A" stroke-width="1.333" stroke-linecap="butt" stroke="none" stroke-linejoin="miter" filter="url(#fx1)" />
</g>
<g id="shape-32" data-name="弧形 31">
<path d="M 923.12 243.61 A 154.23 150.3 0 0 1 1101.38 373.78" fill="#FFFFFF" stroke-width="10.667" stroke-linecap="round" stroke="#5D3B21" />
</g>
<g id="shape-33" data-name="矩形 32">
<rect x="881.11" y="303.93" width="134.93" height="38.67" fill="none" />
<text x="948.57" y="329.13" text-anchor="middle" xml:space="preserve" font-family="&quot;思源黑体 CN Medium&quot;, sans-serif" font-size="24" fill="#5D3B21"><tspan fill="#5D3B21" font-size="24">{{TOC_ITEM_2_TITLE}}</tspan></text>
</g>
<g id="shape-34" data-name="弧形 33">
<path d="M 999.72 368.24 A 98.23 98.27 0 1 1 908.5 194.68" fill="none" stroke-width="2" stroke="#3E2716" />
</g>
<g id="shape-35" data-name="弧形 34">
<path d="M 1046.44 288 A 98.23 98.27 0 0 1 938.15 382.28" fill="none" stroke-width="2" stroke="#3E2716" />
</g>
<g id="shape-36" data-name="弧形 35">
<path d="M 851.63 302.15 A 98.23 98.27 0 1 1 1027.09 343.19" fill="none" stroke-width="2" stroke="#3E2716" />
</g>
<g id="shape-37" data-name="弧形 36">
<path d="M 967.91 199.16 A 87.6 87.63 0 1 1 865.57 255.77" fill="none" stroke-width="2" stroke="#3E2716" />
</g>
<g id="shape-38" data-name="弧形 37">
<path d="M 1020.92 315.86 A 79.07 79.1 0 0 1 923.06 359.52" fill="none" stroke-width="2" stroke="#3E2716" />
</g>
<g id="shape-39" data-name="弧形 38" transform="translate(948.31 284.57) scale(-1 -1) translate(-948.31 -284.57)">
<path d="M 1020.92 315.86 A 79.07 79.1 0 0 1 923.06 359.52" fill="none" stroke-width="2" stroke="#3E2716" />
</g>
<g id="shape-40" data-name="弧形 39" transform="translate(958.61 401.97) scale(-1 -1) translate(-958.61 -401.97)">
<path d="M 898.9 263.38 A 154.23 150.3 0 1 1 807.3 372.83" fill="none" stroke-width="10.667" stroke-linecap="round" stroke="#5D3B21" />
</g>
<g id="shape-41" data-name="弧形 40" transform="translate(958.61 414.83) scale(-1 -1) translate(-958.61 -414.83)">
<path d="M 830.3 498.23 A 154.23 150.3 0 0 1 1069.73 310.6" fill="none" stroke-width="10.667" stroke-linecap="round" stroke="#5D3B21" />
</g>
<g id="shape-42" data-name="弧形 41">
<path d="M 1153.92 588.04 A 98.23 98.27 0 1 1 1062.7 414.48" fill="none" stroke-width="2" stroke="#3E2716" />
</g>
<g id="shape-43" data-name="弧形 42">
<path d="M 1200.64 507.8 A 98.23 98.27 0 0 1 1092.35 602.08" fill="none" stroke-width="2" stroke="#3E2716" />
</g>
<g id="shape-44" data-name="弧形 43">
<path d="M 1005.83 521.95 A 98.23 98.27 0 1 1 1181.29 562.99" fill="none" stroke-width="2" stroke="#3E2716" />
</g>
<g id="shape-45" data-name="弧形 44">
<path d="M 1122.11 418.96 A 87.6 87.63 0 1 1 1019.77 475.57" fill="none" stroke-width="2" stroke="#3E2716" />
</g>
<g id="shape-46" data-name="弧形 45">
<path d="M 1175.12 535.66 A 79.07 79.1 0 0 1 1077.26 579.32" fill="none" stroke-width="2" stroke="#3E2716" />
</g>
<g id="shape-47" data-name="弧形 46" transform="translate(1102.51 504.37) scale(-1 -1) translate(-1102.51 -504.37)">
<path d="M 1175.12 535.66 A 79.07 79.1 0 0 1 1077.26 579.32" fill="none" stroke-width="2" stroke="#3E2716" />
</g>
<g id="shape-48" data-name="矩形 47">
<rect x="1034.31" y="528.33" width="134.93" height="38.67" fill="none" />
<text x="1101.77" y="553.53" text-anchor="middle" xml:space="preserve" font-family="&quot;思源黑体 CN Medium&quot;, sans-serif" font-size="24" fill="#5D3B21"><tspan fill="#5D3B21" font-size="24">{{TOC_ITEM_3_TITLE}}</tspan></text>
</g>
<g id="shape-49" data-name="弧形 48">
<path d="M 843.92 587.18 A 98.23 98.27 0 1 1 752.7 413.61" fill="none" stroke-width="2" stroke="#3E2716" />
</g>
<g id="shape-50" data-name="弧形 49">
<path d="M 890.64 506.93 A 98.23 98.27 0 0 1 782.35 601.21" fill="none" stroke-width="2" stroke="#3E2716" />
</g>
<g id="shape-51" data-name="弧形 50">
<path d="M 695.83 521.08 A 98.23 98.27 0 1 1 871.29 562.12" fill="none" stroke-width="2" stroke="#3E2716" />
</g>
<g id="shape-52" data-name="椭圆 51">
<ellipse cx="762.04" cy="408.93" rx="5.67" ry="5.67" fill="#5D3B21" stroke="none" stroke-width="1" />
</g>
<g id="shape-53" data-name="椭圆 52">
<ellipse cx="709.75" cy="567.85" rx="5.33" ry="5.33" fill="none" stroke-width="1.253" stroke="#5D3B21" />
</g>
<g id="shape-54" data-name="弧形 53">
<path d="M 812.11 418.09 A 87.6 87.63 0 1 1 709.77 474.71" fill="none" stroke-width="2" stroke="#3E2716" />
</g>
<g id="shape-55" data-name="弧形 54">
<path d="M 865.12 534.79 A 79.07 79.1 0 0 1 767.26 578.46" fill="none" stroke-width="2" stroke="#3E2716" />
</g>
<g id="shape-56" data-name="弧形 55" transform="translate(792.51 503.5) scale(-1 -1) translate(-792.51 -503.5)">
<path d="M 865.12 534.79 A 79.07 79.1 0 0 1 767.26 578.46" fill="none" stroke-width="2" stroke="#3E2716" />
</g>
<g id="shape-57" data-name="矩形 56">
<rect x="724.31" y="527.4" width="134.93" height="38.67" fill="none" />
<text x="791.77" y="552.6" text-anchor="middle" xml:space="preserve" font-family="&quot;思源黑体 CN Medium&quot;, sans-serif" font-size="24" fill="#5D3B21"><tspan fill="#5D3B21" font-size="24">{{TOC_ITEM_4_TITLE}}</tspan></text>
</g>
<g id="shape-58" data-name="图形 239">
<g id="shape-59" data-name="任意多边形: 形状 55">
<path d="M 976.03 298.64 C 975.77 298.64 975.51 298.62 975.27 298.58 L 919.42 298.6 C 919.22 298.6 919.03 298.52 918.89 298.38 C 918.75 298.25 918.68 298.05 918.68 297.85 L 918.68 255.93 C 918.68 255.52 919.01 255.19 919.42 255.19 L 932.17 255.19 C 933.16 254.52 934.23 253.99 935.36 253.64 C 936.55 253.26 937.84 253.07 939.2 253.07 C 939.2 253.07 939.2 253.07 939.2 253.07 C 941.82 253.07 944.19 253.78 946.23 255.19 L 969.96 255.19 L 969.96 247.25 C 969.96 246.84 970.29 246.5 970.7 246.5 L 976.17 246.5 C 976.17 246.5 976.18 246.5 976.18 246.5 C 977.71 246.54 979.03 247.11 980.11 248.2 C 981.2 249.28 981.77 250.6 981.81 252.13 C 981.81 252.14 981.81 252.14 981.81 252.15 L 981.77 292.18 C 981.79 292.32 981.8 292.47 981.81 292.62 C 981.81 292.63 981.81 292.65 981.81 292.66 L 981.81 292.85 C 981.81 294.44 981.24 295.82 980.11 296.94 C 978.99 298.06 977.61 298.64 976.03 298.64 Z M 975.31 297.09 C 975.35 297.09 975.38 297.09 975.42 297.1 C 975.61 297.13 975.81 297.14 976.03 297.14 C 977.22 297.14 978.21 296.73 979.05 295.89 C 979.9 295.04 980.32 294.05 980.32 292.86 L 980.32 292.68 C 980.31 292.56 980.31 292.43 980.29 292.3 C 980.18 291.35 979.78 290.53 979.06 289.83 C 979.06 289.83 979.06 289.83 979.06 289.83 C 978.25 289.01 977.3 288.6 976.16 288.57 L 970.7 288.57 C 970.29 288.57 969.96 288.24 969.96 287.83 L 969.96 256.68 L 948.03 256.68 C 948.06 256.71 948.09 256.74 948.13 256.77 C 948.62 257.26 949.06 257.78 949.45 258.31 C 951.03 260.45 951.83 262.94 951.83 265.73 C 951.83 269.01 950.72 271.88 948.54 274.24 C 948.53 274.25 948.53 274.25 948.53 274.26 C 948.39 274.4 948.26 274.54 948.13 274.67 C 946.64 276.17 944.93 277.23 943.06 277.82 C 943.06 277.82 943.06 277.82 943.06 277.82 C 943.06 277.82 943.06 277.82 943.05 277.82 C 941.84 278.19 940.55 278.38 939.2 278.38 C 935.73 278.38 932.72 277.14 930.26 274.67 C 929.78 274.18 929.34 273.67 928.95 273.16 C 927.36 271.02 926.57 268.51 926.57 265.72 C 926.57 262.45 927.68 259.57 929.85 257.2 C 929.98 257.05 930.12 256.9 930.26 256.77 C 930.29 256.74 930.32 256.71 930.36 256.68 L 920.16 256.68 L 920.16 297.1 L 975.31 297.09 Z M 980.1 288.77 C 980.16 288.83 980.22 288.89 980.28 288.95 L 980.32 252.15 C 980.29 251.01 979.87 250.06 979.06 249.26 C 979.06 249.26 979.05 249.25 979.05 249.25 C 978.24 248.44 977.29 248.03 976.15 248 L 971.44 248 L 971.44 287.08 L 976.16 287.08 C 976.17 287.08 976.17 287.08 976.17 287.08 C 977.7 287.11 979.02 287.68 980.1 288.77 Z M 930.47 258.78 C 928.85 260.77 928.06 263.05 928.06 265.74 C 928.06 268.21 928.76 270.41 930.15 272.28 C 930.49 272.73 930.88 273.19 931.32 273.62 C 933.52 275.83 936.1 276.9 939.2 276.9 C 940.14 276.9 941.04 276.8 941.89 276.6 L 938.55 266.15 L 930.47 258.78 Z M 940.76 268.16 L 943.31 276.16 C 944.62 275.64 945.83 274.84 946.92 273.78 L 940.76 268.16 Z M 940.38 265.8 L 947.92 272.67 C 949.55 270.69 950.34 268.41 950.34 265.73 C 950.34 263.53 949.78 261.54 948.66 259.81 L 940.38 265.8 Z M 931.47 257.67 L 939.25 264.77 L 947.78 258.6 C 947.56 258.34 947.32 258.08 947.07 257.83 C 946.59 257.35 946.08 256.92 945.56 256.54 C 945.56 256.54 945.56 256.54 945.56 256.54 L 945.56 256.54 C 943.73 255.23 941.58 254.57 939.19 254.57 C 939.19 254.57 939.19 254.57 939.19 254.57 C 937.99 254.57 936.85 254.74 935.8 255.08 C 934.74 255.4 933.74 255.9 932.83 256.54 C 932.83 256.54 932.83 256.54 932.83 256.54 C 932.83 256.54 932.83 256.54 932.83 256.54 C 932.36 256.87 931.9 257.25 931.47 257.67 Z" fill="#000000" stroke-width="0.113" stroke-linecap="butt" stroke="none" stroke-linejoin="miter" />
</g>
<g id="shape-60" data-name="任意多边形: 形状 56">
<path d="M 967.45 294.49 L 942.26 294.49 C 941.85 294.49 941.51 294.16 941.51 293.75 C 941.51 293.34 941.85 293 942.26 293 L 967.45 293 C 967.86 293 968.2 293.34 968.2 293.75 C 968.2 294.16 967.86 294.49 967.45 294.49 Z M 937.39 294.4 L 923.74 294.4 C 923.33 294.4 923 294.06 923 293.65 L 923 282.32 C 923 281.91 923.33 281.58 923.74 281.58 L 937.39 281.58 C 937.8 281.58 938.14 281.91 938.14 282.32 L 938.14 293.65 C 938.14 294.06 937.8 294.4 937.39 294.4 Z M 924.49 292.9 L 936.65 292.9 L 936.65 290.5 L 924.49 290.5 L 924.49 292.9 Z M 924.49 289.01 L 936.65 289.01 L 936.65 286.61 L 924.49 286.61 L 924.49 289.01 Z M 924.49 285.12 L 936.65 285.12 L 936.65 283.07 L 924.49 283.07 L 924.49 285.12 Z M 967.45 289.13 L 942.26 289.13 C 941.85 289.13 941.51 288.79 941.51 288.38 C 941.51 287.97 941.85 287.64 942.26 287.64 L 967.45 287.64 C 967.86 287.64 968.2 287.97 968.2 288.38 C 968.2 288.79 967.86 289.13 967.45 289.13 Z M 967.45 283.76 L 942.26 283.76 C 941.85 283.76 941.51 283.42 941.51 283.01 C 941.51 282.6 941.85 282.26 942.26 282.26 L 967.45 282.26 C 967.86 282.26 968.2 282.6 968.2 283.01 C 968.2 283.42 967.86 283.76 967.45 283.76 Z M 923.82 255.16 C 923.82 255.16 923.82 255.16 923.82 255.16 C 922.8 255.16 921.93 254.8 921.21 254.08 C 920.5 253.37 920.15 252.5 920.15 251.48 C 920.15 250.47 920.5 249.6 921.21 248.88 C 921.21 248.88 921.22 248.87 921.22 248.87 C 921.93 248.16 922.8 247.81 923.82 247.81 C 924.65 247.81 925.39 248.05 926.03 248.54 L 933.84 242.32 C 933.6 241.82 933.47 241.27 933.47 240.67 C 933.47 239.66 933.83 238.79 934.54 238.07 C 934.54 238.07 934.54 238.06 934.54 238.06 C 935.26 237.35 936.13 237 937.14 237 C 938.15 237 939.03 237.35 939.73 238.06 C 940.45 238.78 940.81 239.66 940.81 240.67 C 940.81 241.14 940.73 241.58 940.58 241.98 L 947.66 246.46 C 947.73 246.39 947.79 246.31 947.87 246.23 C 947.87 246.23 947.88 246.22 947.88 246.22 C 948.59 245.52 949.46 245.16 950.47 245.16 C 951.49 245.16 952.36 245.52 953.06 246.22 C 953.06 246.22 953.07 246.23 953.07 246.23 L 960.29 241.71 C 960.19 241.38 960.14 241.02 960.14 240.65 C 960.14 239.64 960.5 238.76 961.21 238.05 C 961.21 238.05 961.22 238.04 961.22 238.04 C 961.93 237.33 962.8 236.97 963.81 236.97 C 964.83 236.97 965.7 237.33 966.4 238.04 C 967.12 238.76 967.48 239.64 967.48 240.64 C 967.48 241.66 967.12 242.53 966.4 243.24 C 965.7 243.96 964.83 244.32 963.81 244.32 C 962.8 244.32 961.93 243.96 961.22 243.24 C 961.14 243.17 961.07 243.09 961.01 243.02 L 953.91 247.47 C 954.07 247.89 954.15 248.34 954.15 248.82 C 954.15 249.84 953.79 250.71 953.07 251.42 C 952.36 252.13 951.49 252.5 950.48 252.5 C 949.47 252.5 948.6 252.13 947.88 251.42 C 947.18 250.71 946.82 249.84 946.82 248.82 C 946.82 248.45 946.87 248.1 946.97 247.76 L 939.78 243.21 C 939.78 243.22 939.76 243.23 939.75 243.24 C 939.05 243.96 938.18 244.32 937.16 244.32 C 936.26 244.32 935.47 244.03 934.8 243.46 L 927.04 249.63 C 927.35 250.17 927.51 250.78 927.51 251.45 C 927.51 252.46 927.14 253.33 926.43 254.04 C 925.7 254.8 924.83 255.16 923.82 255.16 Z M 922.27 249.93 C 921.84 250.36 921.64 250.87 921.64 251.48 C 921.64 252.1 921.84 252.6 922.27 253.02 C 922.7 253.45 923.21 253.66 923.82 253.66 C 924.43 253.66 924.93 253.45 925.35 253.02 C 925.35 253.02 925.36 253.01 925.36 253.01 C 925.79 252.59 926 252.09 926 251.48 C 926 250.91 925.82 250.43 925.44 250.01 C 925.44 250.01 925.44 250.01 925.43 250.01 C 925.4 249.98 925.38 249.95 925.35 249.92 C 924.93 249.49 924.43 249.29 923.82 249.29 C 923.21 249.31 922.7 249.51 922.27 249.93 Z M 948.52 247.84 C 948.52 247.84 948.52 247.84 948.52 247.84 C 948.36 248.14 948.28 248.47 948.28 248.85 C 948.28 249.46 948.49 249.97 948.91 250.39 C 949.34 250.82 949.85 251.03 950.46 251.03 C 951.07 251.03 951.57 250.82 951.99 250.39 C 951.99 250.39 952 250.38 952 250.38 C 952.43 249.95 952.64 249.45 952.64 248.84 C 952.64 248.39 952.53 247.99 952.29 247.64 C 952.29 247.64 952.29 247.64 952.29 247.64 C 952.21 247.52 952.11 247.4 952 247.29 C 951.58 246.87 951.08 246.66 950.47 246.66 C 949.86 246.66 949.35 246.87 948.92 247.29 C 948.75 247.46 948.62 247.65 948.52 247.84 Z M 961.85 241.69 C 961.95 241.87 962.08 242.05 962.24 242.22 C 962.67 242.65 963.18 242.86 963.79 242.86 C 964.4 242.86 964.9 242.65 965.33 242.22 C 965.33 242.22 965.33 242.21 965.33 242.21 C 965.76 241.79 965.97 241.29 965.97 240.67 C 965.97 240.06 965.76 239.55 965.33 239.12 C 964.91 238.7 964.41 238.49 963.8 238.49 C 963.19 238.49 962.68 238.7 962.25 239.12 C 961.83 239.55 961.62 240.06 961.62 240.67 C 961.62 241.06 961.69 241.39 961.85 241.69 Z M 935.41 242.02 C 935.46 242.09 935.53 242.16 935.59 242.23 C 936.02 242.66 936.52 242.87 937.13 242.87 C 937.74 242.87 938.24 242.66 938.67 242.23 C 938.67 242.23 938.68 242.22 938.68 242.22 C 938.79 242.11 938.89 241.98 938.97 241.85 C 938.97 241.85 938.98 241.85 938.98 241.85 C 939.2 241.51 939.32 241.13 939.32 240.68 C 939.32 240.07 939.11 239.56 938.68 239.13 C 938.25 238.7 937.75 238.5 937.14 238.5 C 936.53 238.5 936.03 238.7 935.59 239.13 C 935.17 239.56 934.96 240.07 934.96 240.68 C 934.96 241.2 935.11 241.64 935.41 242.02 Z" fill="#5D3B21" stroke-width="0.113" stroke-linecap="butt" stroke="none" stroke-linejoin="miter" />
</g>
</g>
<g id="shape-61" data-name="图形 240">
<g id="shape-62" data-name="任意多边形: 形状 52">
<path d="M 817.37 474.37 L 815.51 474.37 L 815.51 476.02 C 815.02 476.07 814.55 476.18 814.11 476.36 C 813.48 476.62 813.01 477 812.69 477.51 C 812.36 478 812.2 478.53 812.2 479.1 C 812.2 479.62 812.33 480.09 812.6 480.51 C 812.86 480.94 813.26 481.29 813.8 481.58 C 814.22 481.8 814.95 482.04 815.99 482.29 C 817.04 482.53 817.7 482.72 818 482.84 C 818.48 483.01 818.82 483.23 819.03 483.51 C 819.23 483.78 819.33 484.08 819.33 484.43 C 819.33 484.79 819.23 485.11 819.01 485.41 C 818.8 485.71 818.47 485.94 818.04 486.1 C 817.6 486.27 817.09 486.36 816.52 486.36 C 815.88 486.36 815.3 486.25 814.79 486.03 C 814.27 485.8 813.89 485.51 813.65 485.15 C 813.4 484.79 813.25 484.31 813.18 483.74 L 811.76 483.86 C 811.78 484.62 811.99 485.3 812.39 485.91 C 812.78 486.5 813.32 486.95 814.02 487.25 C 814.45 487.43 814.95 487.56 815.51 487.64 L 815.51 489.46 L 817.36 489.46 L 817.36 487.65 C 817.87 487.59 818.35 487.45 818.78 487.25 C 819.43 486.95 819.92 486.54 820.27 486 C 820.61 485.46 820.78 484.89 820.78 484.29 C 820.78 483.69 820.62 483.15 820.31 482.68 C 820 482.21 819.51 481.82 818.84 481.52 C 818.4 481.32 817.57 481.08 816.35 480.8 C 815.12 480.53 814.37 480.26 814.08 479.98 C 813.79 479.72 813.65 479.39 813.65 478.99 C 813.65 478.51 813.85 478.11 814.27 477.78 C 814.68 477.45 815.34 477.28 816.25 477.28 C 817.12 477.28 817.78 477.46 818.22 477.82 C 818.67 478.19 818.93 478.73 819.01 479.44 L 820.45 479.35 C 820.42 478.68 820.24 478.08 819.9 477.56 C 819.55 477.03 819.06 476.64 818.42 476.36 C 818.09 476.23 817.74 476.13 817.37 476.06 L 817.37 474.37 Z" fill="#5D3B21" stroke-width="0.112" stroke-linecap="butt" stroke="none" stroke-linejoin="miter" />
</g>
<g id="shape-63" data-name="任意多边形: 形状 53">
<path d="M 804.71 516.65 L 775 516.65 C 774.6 516.65 774.26 516.32 774.26 515.91 C 774.26 515.51 774.6 515.17 775 515.17 L 804.71 515.17 C 805.12 515.17 805.45 515.51 805.45 515.91 C 805.45 516.32 805.12 516.65 804.71 516.65 Z M 804.71 511.58 L 775 511.58 C 774.6 511.58 774.26 511.25 774.26 510.84 C 774.26 510.44 774.6 510.1 775 510.1 L 804.71 510.1 C 805.12 510.1 805.45 510.44 805.45 510.84 C 805.45 511.25 805.12 511.58 804.71 511.58 Z M 804.71 506.5 L 775 506.5 C 774.6 506.5 774.26 506.17 774.26 505.76 C 774.26 505.35 774.6 505.02 775 505.02 L 804.71 505.02 C 805.12 505.02 805.45 505.35 805.45 505.76 C 805.45 506.17 805.12 506.5 804.71 506.5 Z M 796.44 500.68 C 796.04 500.68 795.71 500.35 795.71 499.94 L 795.71 481.56 L 792.58 484.68 C 792.3 484.97 791.83 484.97 791.54 484.68 C 791.26 484.4 791.26 483.93 791.54 483.64 L 795.93 479.25 C 795.93 479.25 795.94 479.24 795.94 479.24 L 795.94 479.24 C 795.94 479.24 795.94 479.24 795.94 479.24 C 795.94 479.24 795.94 479.24 795.94 479.24 C 795.94 479.24 795.94 479.24 795.94 479.24 C 796 479.18 796.08 479.13 796.16 479.09 C 796.25 479.05 796.33 479.04 796.43 479.04 C 796.43 479.04 796.43 479.04 796.43 479.04 C 796.44 479.04 796.45 479.04 796.47 479.04 C 796.47 479.04 796.47 479.04 796.47 479.04 L 796.47 479.04 C 796.56 479.04 796.64 479.06 796.73 479.09 C 796.81 479.13 796.9 479.18 796.97 479.25 L 801.35 483.64 C 801.64 483.93 801.64 484.4 801.35 484.68 C 801.07 484.97 800.6 484.97 800.31 484.68 L 797.19 481.56 L 797.19 499.95 C 797.18 500.35 796.85 500.68 796.44 500.68 Z M 785.95 500.25 C 785.54 500.25 785.21 499.92 785.21 499.51 L 785.21 487.7 L 782.09 490.82 C 781.8 491.11 781.34 491.11 781.05 490.82 C 780.76 490.54 780.76 490.07 781.05 489.78 L 785.43 485.39 C 785.51 485.32 785.59 485.27 785.68 485.23 C 785.76 485.2 785.85 485.18 785.93 485.18 C 785.93 485.18 785.93 485.18 785.93 485.18 L 785.93 485.18 C 785.95 485.18 785.96 485.18 785.97 485.18 L 785.97 485.18 C 785.97 485.18 785.97 485.18 785.97 485.18 C 786.07 485.18 786.15 485.2 786.23 485.23 C 786.32 485.27 786.4 485.32 786.47 485.39 L 790.86 489.78 C 791.15 490.07 791.15 490.54 790.86 490.82 C 790.57 491.11 790.1 491.11 789.82 490.82 L 786.69 487.7 L 786.69 499.51 C 786.69 499.93 786.35 500.25 785.95 500.25 Z M 775.45 500.16 C 775.05 500.16 774.71 499.83 774.71 499.42 L 774.71 483.74 L 771.59 486.87 C 771.3 487.16 770.84 487.16 770.55 486.87 C 770.26 486.58 770.26 486.12 770.55 485.83 L 774.94 481.44 C 774.94 481.43 774.94 481.43 774.95 481.42 C 774.95 481.42 774.95 481.42 774.95 481.42 C 774.95 481.42 774.95 481.42 774.95 481.42 C 775.02 481.36 775.09 481.31 775.17 481.28 C 775.35 481.2 775.57 481.2 775.75 481.28 C 775.82 481.31 775.9 481.36 775.96 481.42 C 775.96 481.42 775.96 481.42 775.96 481.42 C 775.96 481.42 775.96 481.42 775.96 481.42 C 775.97 481.42 775.98 481.43 775.98 481.44 L 780.37 485.83 C 780.66 486.12 780.66 486.58 780.37 486.87 C 780.08 487.16 779.62 487.16 779.33 486.87 L 776.21 483.74 L 776.21 499.42 C 776.19 499.83 775.86 500.16 775.45 500.16 Z M 802 474.82 L 785.23 474.82 C 784.83 474.82 784.49 474.49 784.49 474.08 C 784.49 473.67 784.83 473.34 785.23 473.34 L 802 473.34 C 802.4 473.34 802.73 473.67 802.73 474.08 C 802.73 474.49 802.4 474.82 802 474.82 Z M 802 469.73 L 785.23 469.73 C 784.83 469.73 784.49 469.4 784.49 468.99 C 784.49 468.59 784.83 468.26 785.23 468.26 L 802 468.26 C 802.4 468.26 802.73 468.59 802.73 468.99 C 802.73 469.4 802.4 469.73 802 469.73 Z" fill="#5D3B21" stroke-width="0.112" stroke-linecap="butt" stroke="none" stroke-linejoin="miter" />
</g>
<g id="shape-64" data-name="任意多边形: 形状 54">
<path d="M 805.44 525.5 L 770.57 525.5 C 766.71 525.5 764.68 523.46 764.68 519.6 L 764.68 475.11 C 764.68 474.99 764.71 474.88 764.76 474.78 L 764.77 474.76 C 764.77 474.74 764.79 474.72 764.8 474.7 C 764.83 474.64 764.87 474.59 764.92 474.54 L 776.33 463.12 C 776.47 462.98 776.66 462.9 776.86 462.9 L 805.44 462.9 C 809.31 462.9 811.35 464.94 811.35 468.81 L 811.35 471.37 C 812.85 470.66 814.5 470.3 816.29 470.3 C 819.45 470.3 822.19 471.44 824.43 473.68 C 826.67 475.92 827.81 478.67 827.81 481.84 C 827.81 485.01 826.67 487.76 824.43 490 C 822.19 492.24 819.45 493.38 816.29 493.38 C 814.51 493.38 812.86 493.02 811.35 492.3 L 811.35 519.59 C 811.35 523.46 809.31 525.5 805.44 525.5 Z M 766.15 475.83 L 766.15 519.6 C 766.15 521.11 766.52 522.24 767.23 522.95 C 767.95 523.67 769.07 524.03 770.58 524.03 L 805.44 524.03 C 806.95 524.03 808.08 523.67 808.8 522.95 C 809.51 522.24 809.87 521.11 809.87 519.6 L 809.87 491.45 C 809.26 491.04 808.68 490.55 808.13 490 C 805.9 487.76 804.76 485.01 804.76 481.84 C 804.76 478.67 805.9 475.92 808.12 473.68 C 808.68 473.13 809.26 472.64 809.87 472.23 L 809.87 468.82 C 809.87 467.31 809.5 466.19 808.79 465.47 C 808.07 464.75 806.94 464.39 805.43 464.39 L 777.61 464.39 L 777.61 469.92 C 777.61 473.78 775.56 475.82 771.7 475.82 L 766.15 475.82 Z M 811.01 490.42 C 812.55 491.4 814.33 491.9 816.29 491.9 C 819.09 491.9 821.41 490.93 823.39 488.95 C 825.37 486.97 826.34 484.65 826.34 481.84 C 826.34 479.04 825.37 476.71 823.39 474.72 C 821.41 472.74 819.09 471.78 816.29 471.78 C 814.33 471.78 812.55 472.27 811.01 473.25 C 811.01 473.25 811.01 473.25 811.01 473.25 C 810.37 473.65 809.76 474.14 809.18 474.72 C 807.2 476.71 806.24 479.04 806.24 481.84 C 806.24 484.64 807.2 486.97 809.18 488.95 C 809.75 489.52 810.37 490.02 811.01 490.42 C 811 490.42 811.01 490.42 811.01 490.42 Z M 767.21 474.35 L 771.7 474.35 C 773.21 474.35 774.34 473.99 775.06 473.27 C 775.77 472.56 776.13 471.43 776.13 469.92 L 776.13 465.41 L 767.21 474.35 Z" fill="#000000" stroke-width="0.112" stroke-linecap="butt" stroke="none" stroke-linejoin="miter" />
</g>
</g>
<g id="shape-65" data-name="图形 253">
<g id="shape-66" data-name="任意多边形: 形状 50">
<path d="M 1095.37 514.17 L 1083.39 514.17 C 1082.98 514.17 1082.65 513.83 1082.65 513.42 C 1082.65 513.01 1082.98 512.68 1083.39 512.68 L 1095.37 512.68 C 1095.78 512.68 1096.11 513.01 1096.11 513.42 C 1096.11 513.83 1095.78 514.17 1095.37 514.17 Z M 1095.37 508.89 L 1083.39 508.89 C 1082.98 508.89 1082.65 508.55 1082.65 508.14 C 1082.65 507.73 1082.98 507.4 1083.39 507.4 L 1095.37 507.4 C 1095.78 507.4 1096.11 507.73 1096.11 508.14 C 1096.11 508.55 1095.78 508.89 1095.37 508.89 Z M 1095.37 503.77 L 1083.39 503.77 C 1082.98 503.77 1082.65 503.44 1082.65 503.03 C 1082.65 502.62 1082.98 502.28 1083.39 502.28 L 1095.37 502.28 C 1095.78 502.28 1096.11 502.62 1096.11 503.03 C 1096.11 503.44 1095.78 503.77 1095.37 503.77 Z M 1095.37 498.66 L 1083.39 498.66 C 1082.98 498.66 1082.65 498.32 1082.65 497.91 C 1082.65 497.5 1082.98 497.17 1083.39 497.17 L 1095.37 497.17 C 1095.78 497.17 1096.11 497.5 1096.11 497.91 C 1096.11 498.32 1095.78 498.66 1095.37 498.66 Z M 1113.33 493.55 L 1083.39 493.55 C 1082.98 493.55 1082.65 493.21 1082.65 492.8 C 1082.65 492.39 1082.98 492.06 1083.39 492.06 L 1113.33 492.06 C 1113.74 492.06 1114.08 492.39 1114.08 492.8 C 1114.08 493.21 1113.74 493.55 1113.33 493.55 Z M 1113.33 488.43 L 1083.39 488.43 C 1082.98 488.43 1082.65 488.1 1082.65 487.69 C 1082.65 487.28 1082.98 486.94 1083.39 486.94 L 1113.33 486.94 C 1113.74 486.94 1114.08 487.28 1114.08 487.69 C 1114.08 488.1 1113.74 488.43 1113.33 488.43 Z M 1113.33 483.3 L 1083.39 483.3 C 1082.98 483.3 1082.65 482.97 1082.65 482.56 C 1082.65 482.15 1082.98 481.81 1083.39 481.81 L 1113.33 481.81 C 1113.74 481.81 1114.08 482.15 1114.08 482.56 C 1114.08 482.97 1113.74 483.3 1113.33 483.3 Z" fill="#5D3B21" stroke-width="0.113" stroke-linecap="butt" stroke="none" stroke-linejoin="miter" />
</g>
<g id="shape-67" data-name="任意多边形: 形状 51">
<path d="M 1124.23 528.24 C 1122.94 528.23 1121.81 527.76 1120.9 526.85 C 1120.9 526.85 1120.89 526.84 1120.89 526.84 L 1119.82 525.76 L 1115.27 521.21 L 1080.43 521.21 C 1076.54 521.21 1074.48 519.15 1074.48 515.25 L 1074.48 477.35 C 1074.48 477.23 1074.51 477.12 1074.56 477.01 L 1074.57 477 C 1074.58 476.97 1074.59 476.96 1074.6 476.94 L 1074.6 476.94 C 1074.6 476.94 1074.6 476.94 1074.6 476.94 C 1074.64 476.88 1074.68 476.83 1074.73 476.78 L 1086.23 465.25 C 1086.37 465.11 1086.56 465.04 1086.76 465.04 L 1115.57 465.04 C 1119.47 465.04 1121.53 467.1 1121.53 470.99 L 1121.53 514.09 L 1126.5 519.07 C 1126.5 519.07 1126.51 519.08 1126.51 519.08 L 1127.57 520.16 C 1128.48 521.07 1128.95 522.2 1128.95 523.5 C 1128.94 524.81 1128.47 525.93 1127.57 526.84 C 1126.65 527.77 1125.53 528.24 1124.23 528.24 Z M 1121.95 525.8 C 1122.59 526.43 1123.34 526.75 1124.24 526.75 C 1125.13 526.75 1125.88 526.43 1126.52 525.8 C 1127.15 525.17 1127.46 524.42 1127.46 523.5 C 1127.46 522.6 1127.15 521.85 1126.52 521.22 C 1126.52 521.22 1126.51 521.21 1126.51 521.21 L 1125.97 520.66 L 1121.4 525.24 L 1121.95 525.8 Z M 1116.11 519.93 L 1116.11 519.93 L 1120.35 524.19 L 1124.92 519.61 L 1120.25 514.94 L 1120.25 514.94 L 1106.04 500.7 L 1101.47 505.28 L 1116.11 519.93 C 1116.1 519.93 1116.11 519.93 1116.11 519.93 Z M 1075.97 478.07 L 1075.97 515.24 C 1075.97 516.77 1076.33 517.9 1077.06 518.63 C 1077.78 519.35 1078.91 519.71 1080.43 519.71 L 1113.79 519.71 L 1099.9 505.81 C 1099.9 505.81 1099.9 505.81 1099.9 505.81 C 1099.9 505.81 1099.9 505.81 1099.9 505.81 C 1099.9 505.81 1099.9 505.81 1099.9 505.81 C 1099.9 505.81 1099.9 505.81 1099.9 505.81 C 1099.9 505.81 1099.9 505.81 1099.9 505.81 C 1099.9 505.81 1099.9 505.81 1099.9 505.81 C 1099.9 505.81 1099.9 505.81 1099.9 505.81 C 1099.81 505.73 1099.76 505.62 1099.72 505.52 L 1096.93 497.51 C 1096.84 497.25 1096.9 496.96 1097.09 496.75 C 1097.29 496.55 1097.57 496.47 1097.84 496.54 L 1106.24 498.93 C 1106.36 498.96 1106.47 499.02 1106.57 499.11 C 1106.57 499.11 1106.57 499.11 1106.57 499.11 C 1106.57 499.11 1106.57 499.11 1106.57 499.11 C 1106.57 499.11 1106.57 499.11 1106.57 499.11 C 1106.57 499.11 1106.57 499.11 1106.57 499.11 C 1106.57 499.11 1106.57 499.11 1106.57 499.11 L 1106.57 499.11 C 1106.57 499.11 1106.57 499.11 1106.57 499.11 C 1106.57 499.11 1106.57 499.11 1106.57 499.11 C 1106.57 499.11 1106.57 499.11 1106.57 499.11 L 1120.04 512.6 L 1120.04 470.99 C 1120.04 469.47 1119.67 468.33 1118.95 467.61 C 1118.23 466.89 1117.09 466.52 1115.56 466.52 L 1087.52 466.52 L 1087.52 472.1 C 1087.52 476 1085.46 478.06 1081.56 478.06 L 1075.97 478.06 Z M 1098.8 498.37 L 1100.73 503.91 L 1104.61 500.02 L 1098.8 498.37 Z M 1077.03 476.58 L 1081.56 476.58 C 1083.08 476.58 1084.22 476.21 1084.94 475.49 C 1085.66 474.77 1086.03 473.63 1086.03 472.11 L 1086.03 467.56 L 1077.03 476.58 Z" fill="#000000" stroke-width="0.113" stroke-linecap="butt" stroke="none" stroke-linejoin="miter" />
</g>
</g>
<g id="shape-68" data-name="文本框 39">
<rect x="111.07" y="175.2" width="456.73" height="43" fill="none" />
<text x="120.09" y="198.87" text-anchor="start" xml:space="preserve" font-family="&quot;思源黑体 CN Medium&quot;, sans-serif" font-size="22.53" fill="#FFFFFF"><tspan fill="#FFFFFF" font-size="22.53">{{TOC_ITEM_1_DESC}}</tspan></text>
</g>
<g id="shape-69" data-name="文本框 40">
<rect x="111.09" y="223.62" width="506.91" height="54.53" fill="none" />
<text x="120.12" y="240.94" text-anchor="start" xml:space="preserve" font-family="&quot;思源黑体 CN Medium&quot;, sans-serif" font-size="15.07" fill="#FFFFFF"><tspan fill="#FFFFFF" font-size="15.07">{{TOC_ITEM_2_DESC}}</tspan></text>
</g>
<g id="shape-70" data-name="椭圆 69">
<ellipse cx="877.35" cy="454.78" rx="3.78" ry="3.78" fill="none" stroke="#5D3B21" stroke-width="1" />
</g>
<g id="shape-71" data-name="椭圆 70">
<ellipse cx="1072.24" cy="410.13" rx="5.67" ry="5.67" fill="#5D3B21" stroke="none" stroke-width="1" />
</g>
<g id="shape-72" data-name="椭圆 71">
<ellipse cx="1039.58" cy="579.6" rx="5.67" ry="5.67" fill="none" stroke="#5D3B21" stroke-width="1" />
</g>
<g id="shape-73" data-name="椭圆 72">
<ellipse cx="1187.55" cy="455.98" rx="3.78" ry="3.78" fill="none" stroke="#5D3B21" stroke-width="1" />
</g>
<g id="shape-74" data-name="椭圆 73">
<ellipse cx="917.71" cy="189.73" rx="5.67" ry="5.67" fill="#5D3B21" stroke="none" stroke-width="1" />
</g>
<g id="shape-75" data-name="椭圆 74">
<ellipse cx="885.04" cy="359.2" rx="5.67" ry="5.67" fill="none" stroke="#5D3B21" stroke-width="1" />
</g>
<g id="shape-76" data-name="椭圆 75">
<ellipse cx="1033.02" cy="235.58" rx="3.78" ry="3.78" fill="none" stroke="#5D3B21" stroke-width="1" />
</g>
<g id="shape-77" data-name="矩形: 圆顶角 42" transform="rotate(270 352.78 404.9) translate(352.78 404.9) scale(-1 -1) translate(-352.78 -404.9)">
<path d="M 291.09 139.53 L 414.46 139.53 A 4.09 4.09 0 0 1 418.54 143.62 L 418.54 670.26 L 418.54 670.26 L 287.01 670.26 L 287.01 670.26 L 287.01 143.62 A 4.09 4.09 0 0 1 291.09 139.53 Z" data-pptx-prst="round2SameRect" data-pptx-adj1="3107" data-pptx-adj2="0" fill="#173C7A" stroke-width="1.333" stroke-linecap="butt" stroke="none" stroke-linejoin="miter" filter="url(#fx2)" />
</g>
<g id="shape-78" data-name="文本框 4">
<rect x="111.07" y="348.73" width="435.4" height="43" fill="none" />
<text x="120.09" y="372.4" text-anchor="start" xml:space="preserve" font-family="&quot;思源黑体 CN Medium&quot;, sans-serif" font-size="22.53" fill="#FFFFFF"><tspan fill="#FFFFFF" font-size="22.53">{{TOC_ITEM_3_DESC}}</tspan></text>
</g>
<g id="shape-79" data-name="文本框 5">
<rect x="111.09" y="397.14" width="506.91" height="54.53" fill="none" />
<text x="120.12" y="414.46" text-anchor="start" xml:space="preserve" font-family="&quot;思源黑体 CN Medium&quot;, sans-serif" font-size="15.07" fill="#FFFFFF"><tspan fill="#FFFFFF" font-size="15.07">{{TOC_ITEM_4_DESC}}</tspan></text>
</g>
<g id="shape-80" data-name="矩形: 圆顶角 46" transform="rotate(270 352.78 580.74) translate(352.78 580.74) scale(-1 -1) translate(-352.78 -580.74)">
<path d="M 291.09 315.38 L 414.46 315.38 A 4.09 4.09 0 0 1 418.54 319.46 L 418.54 846.1 L 418.54 846.1 L 287.01 846.1 L 287.01 846.1 L 287.01 319.46 A 4.09 4.09 0 0 1 291.09 315.38 Z" data-pptx-prst="round2SameRect" data-pptx-adj1="3107" data-pptx-adj2="0" fill="#173C7A" stroke-width="1.333" stroke-linecap="butt" stroke="none" stroke-linejoin="miter" filter="url(#fx3)" />
</g>
<g id="shape-81" data-name="文本框 8">
<rect x="111.07" y="524.53" width="456.8" height="43" fill="none" />
<text x="120.09" y="548.2" text-anchor="start" xml:space="preserve" font-family="&quot;思源黑体 CN Medium&quot;, sans-serif" font-size="22.53" fill="#FFFFFF"><tspan fill="#FFFFFF" font-size="22.53">园内现状：融合教育支持能力存在短板</tspan></text>
</g>
<g id="shape-82" data-name="文本框 9">
<rect x="111.09" y="572.99" width="506.91" height="54.53" fill="none" />
<text x="120.12" y="590.3" text-anchor="start" xml:space="preserve" font-family="&quot;思源黑体 CN Medium&quot;, sans-serif" font-size="15.07" fill="#FFFFFF"><tspan fill="#FFFFFF" font-size="15.07">普惠性幼儿园在师资融合教育能力、环境适配、家园协同等方面存在短板</tspan><tspan x="120.12" dy="18.83" fill="#FFFFFF" font-size="15.07">，难以支撑幼儿发展。</tspan></text>
</g></svg>