<?xml version='1.0' encoding='utf-8'?>
<svg xmlns="http://www.w3.org/2000/svg" version="1.1" width="1280" height="720" viewBox="0 0 1280 720"><defs><linearGradient id="bggrad1" x1="0.5" y1="0" x2="0.5" y2="1"><stop offset="0" stop-color="#F0F4FC" /><stop offset="1" stop-color="#112D5C" /></linearGradient></defs><rect x="0" y="0" width="1280" height="720" fill="url(#bggrad1)" />
<g id="layout-shape-6" data-name="矩形 5">
<rect x="28.13" y="28.73" width="1224.6" height="670.8" fill="#FFFFFF" stroke="none" stroke-width="1" />
</g>
<g id="shape-2" data-name="文本占位符 1" data-ph-type="body">
<rect x="74.73" y="61.33" width="947.47" height="57.47" fill="none" />
<text x="84.33" y="92.2" text-anchor="start" xml:space="preserve" font-family="&quot;思源黑体 CN Bold&quot;, sans-serif" font-size="30.67" fill="#000000"><tspan fill="#000000" font-size="30.67">{{PAGE_TITLE}}</tspan></text>
</g>
<g id="shape-74" data-name="知鱼-1">
<rect x="90.51" y="220.67" width="282.72" height="188.48" fill="none" stroke="#999999" stroke-dasharray="4 4" /><text x="231.87" y="314.91" text-anchor="middle" font-size="14" fill="#999999">[chart]</text>
</g>
<g id="shape-75" data-name="知鱼-2">
<rect x="350.43" y="220.67" width="282.72" height="188.48" fill="none" stroke="#999999" stroke-dasharray="4 4" /><text x="491.8" y="314.91" text-anchor="middle" font-size="14" fill="#999999">[chart]</text>
</g>
<g id="shape-76" data-name="知鱼-3">
<line x1="641.7" y1="148.44" x2="641.7" y2="624.65" stroke-width="2" stroke="#808080" stroke-dasharray="1 3" fill="#173C7A" />
</g>
<g id="shape-77" data-name="组合 76">
<g id="shape-78" data-name="知鱼-4">
<path d="M 254.39 332.01 C 254.39 308.78 254.39 308.78 254.39 308.78 C 254.39 307.1 253.04 305.42 251.01 305.42 C 247.96 305.42 247.96 305.42 247.96 305.42 C 246.27 305.42 244.57 307.1 244.57 308.78 C 244.57 332.01 244.57 332.01 244.57 332.01 C 244.57 333.69 246.27 335.37 247.96 335.37 C 251.01 335.37 251.01 335.37 251.01 335.37 C 253.04 335.37 254.39 333.69 254.39 332.01 Z M 251.68 332.01 C 251.68 332.34 251.35 332.68 251.01 332.68 C 247.96 332.68 247.96 332.68 247.96 332.68 C 247.62 332.68 247.28 332.34 247.28 332.01 C 247.28 308.78 247.28 308.78 247.28 308.78 C 247.28 308.45 247.62 308.11 247.96 308.11 C 251.01 308.11 251.01 308.11 251.01 308.11 C 251.35 308.11 251.68 308.45 251.68 308.78 L 251.68 332.01 Z" stroke-width="1.333" stroke-linecap="butt" stroke="none" stroke-linejoin="miter" fill="none" />
</g>
<g id="shape-79" data-name="知鱼-5">
<path d="M 235.81 312.91 C 234.12 312.91 232.43 314.25 232.43 315.92 C 232.43 332.02 232.43 332.02 232.43 332.02 C 232.43 333.69 234.12 335.37 235.81 335.37 C 238.86 335.37 238.86 335.37 238.86 335.37 C 240.89 335.37 242.25 333.69 242.25 332.02 C 242.25 315.92 242.25 315.92 242.25 315.92 C 242.25 314.25 240.89 312.91 238.86 312.91 L 235.81 312.91 Z M 239.54 315.92 C 239.54 332.02 239.54 332.02 239.54 332.02 C 239.54 332.35 239.2 332.69 238.86 332.69 C 235.81 332.69 235.81 332.69 235.81 332.69 C 235.47 332.69 235.14 332.35 235.14 332.02 C 235.14 315.92 235.14 315.92 235.14 315.92 C 235.14 315.59 235.47 315.59 235.81 315.59 C 238.86 315.59 238.86 315.59 238.86 315.59 C 239.2 315.59 239.54 315.59 239.54 315.92 Z" stroke-width="1.333" stroke-linecap="butt" stroke="none" stroke-linejoin="miter" fill="none" />
</g>
<g id="shape-80" data-name="知鱼-6">
<path d="M 223.77 335.37 C 226.77 335.37 226.77 335.37 226.77 335.37 C 228.77 335.37 230.1 333.69 230.1 332.01 C 230.1 304.12 230.1 304.12 230.1 304.12 C 230.1 302.44 228.77 301.09 226.77 301.09 C 223.77 301.09 223.77 301.09 223.77 301.09 C 222.11 301.09 220.45 302.44 220.45 304.12 C 220.45 332.01 220.45 332.01 220.45 332.01 C 220.45 333.69 222.11 335.37 223.77 335.37 Z M 223.11 304.12 C 223.11 304.12 223.44 303.78 223.77 303.78 C 226.77 303.78 226.77 303.78 226.77 303.78 C 227.1 303.78 227.43 304.12 227.43 304.12 C 227.43 332.01 227.43 332.01 227.43 332.01 C 227.43 332.35 227.1 332.68 226.77 332.68 C 223.77 332.68 223.77 332.68 223.77 332.68 C 223.44 332.68 223.11 332.35 223.11 332.01 L 223.11 304.12 Z" stroke-width="1.333" stroke-linecap="butt" stroke="none" stroke-linejoin="miter" fill="none" />
</g>
<g id="shape-81" data-name="知鱼-7">
<path d="M 208.3 332.02 C 208.3 333.69 209.99 335.37 211.68 335.37 C 214.73 335.37 214.73 335.37 214.73 335.37 C 216.76 335.37 218.12 333.69 218.12 332.02 C 218.12 318.26 218.12 318.26 218.12 318.26 C 218.12 316.24 216.76 314.9 214.73 314.9 C 211.68 314.9 211.68 314.9 211.68 314.9 C 209.99 314.9 208.3 316.24 208.3 318.26 L 208.3 332.02 Z M 211.01 318.26 C 211.01 317.92 211.35 317.59 211.68 317.59 C 214.73 317.59 214.73 317.59 214.73 317.59 C 215.07 317.59 215.41 317.92 215.41 318.26 C 215.41 332.02 215.41 332.02 215.41 332.02 C 215.41 332.35 215.07 332.69 214.73 332.69 C 211.68 332.69 211.68 332.69 211.68 332.69 C 211.35 332.69 211.01 332.35 211.01 332.02 L 211.01 318.26 Z" stroke-width="1.333" stroke-linecap="butt" stroke="none" stroke-linejoin="miter" fill="none" />
</g>
</g>
<g id="shape-82" data-name="组合 81">
<g id="shape-83" data-name="知鱼-8">
<path d="M 506.26 315.61 C 506.26 326.7 506.26 326.7 506.26 326.7 C 506.26 328.38 507.61 330.06 509.65 330.06 C 512.69 330.06 512.69 330.06 512.69 330.06 C 514.39 330.06 516.08 328.38 516.08 326.7 C 516.08 315.61 516.08 315.61 516.08 315.61 C 516.08 313.93 514.39 312.25 512.69 312.25 C 509.65 312.25 509.65 312.25 509.65 312.25 C 507.61 312.25 506.26 313.93 506.26 315.61 Z M 513.37 315.61 C 513.37 326.7 513.37 326.7 513.37 326.7 C 513.37 327.04 513.03 327.37 512.69 327.37 C 509.65 327.37 509.65 327.37 509.65 327.37 C 509.31 327.37 508.97 327.04 508.97 326.7 C 508.97 315.61 508.97 315.61 508.97 315.61 C 508.97 315.28 509.31 314.94 509.65 314.94 C 512.69 314.94 512.69 314.94 512.69 314.94 C 513.03 314.94 513.37 315.28 513.37 315.61 Z" stroke-width="1.333" stroke-linecap="butt" stroke="none" stroke-linejoin="miter" fill="none" />
</g>
<g id="shape-84" data-name="知鱼-9">
<path d="M 500.6 330.06 C 502.27 330.06 503.93 328.38 503.93 326.71 C 503.93 310.61 503.93 310.61 503.93 310.61 C 503.93 308.94 502.27 307.59 500.6 307.59 C 497.61 307.59 497.61 307.59 497.61 307.59 C 495.61 307.59 494.28 308.94 494.28 310.61 C 494.28 326.71 494.28 326.71 494.28 326.71 C 494.28 328.38 495.61 330.06 497.61 330.06 L 500.6 330.06 Z M 496.94 326.71 C 496.94 310.61 496.94 310.61 496.94 310.61 C 496.94 310.28 497.27 310.28 497.61 310.28 C 500.6 310.28 500.6 310.28 500.6 310.28 C 500.94 310.28 501.27 310.28 501.27 310.61 C 501.27 326.71 501.27 326.71 501.27 326.71 C 501.27 327.04 500.94 327.38 500.6 327.38 C 497.61 327.38 497.61 327.38 497.61 327.38 C 497.27 327.38 496.94 327.04 496.94 326.71 Z" stroke-width="1.333" stroke-linecap="butt" stroke="none" stroke-linejoin="miter" fill="none" />
</g>
<g id="shape-85" data-name="知鱼-10">
<path d="M 488.45 330.06 C 490.12 330.06 491.78 328.39 491.78 326.71 C 491.78 305.62 491.78 305.62 491.78 305.62 C 491.78 303.94 490.12 302.6 488.45 302.6 C 485.46 302.6 485.46 302.6 485.46 302.6 C 483.46 302.6 482.13 303.94 482.13 305.62 C 482.13 326.71 482.13 326.71 482.13 326.71 C 482.13 328.39 483.46 330.06 485.46 330.06 L 488.45 330.06 Z M 484.79 326.71 C 484.79 305.62 484.79 305.62 484.79 305.62 C 484.79 305.62 485.13 305.28 485.46 305.28 C 488.45 305.28 488.45 305.28 488.45 305.28 C 488.79 305.28 489.12 305.62 489.12 305.62 C 489.12 326.71 489.12 326.71 489.12 326.71 C 489.12 327.05 488.79 327.38 488.45 327.38 C 485.46 327.38 485.46 327.38 485.46 327.38 C 485.13 327.38 484.79 327.05 484.79 326.71 Z" stroke-width="1.333" stroke-linecap="butt" stroke="none" stroke-linejoin="miter" fill="none" />
</g>
<g id="shape-86" data-name="知鱼-11">
<path d="M 473.37 330.06 C 476.42 330.06 476.42 330.06 476.42 330.06 C 478.11 330.06 479.8 328.38 479.8 326.7 C 479.8 300.81 479.8 300.81 479.8 300.81 C 479.8 298.79 478.11 297.44 476.42 297.44 C 473.37 297.44 473.37 297.44 473.37 297.44 C 471.68 297.44 469.98 298.79 469.98 300.81 C 469.98 326.7 469.98 326.7 469.98 326.7 C 469.98 328.38 471.68 330.06 473.37 330.06 Z M 472.69 300.81 C 472.69 300.47 473.03 300.13 473.37 300.13 C 476.42 300.13 476.42 300.13 476.42 300.13 C 476.75 300.13 477.09 300.47 477.09 300.81 C 477.09 326.7 477.09 326.7 477.09 326.7 C 477.09 327.03 476.75 327.37 476.42 327.37 C 473.37 327.37 473.37 327.37 473.37 327.37 C 473.03 327.37 472.69 327.03 472.69 326.7 L 472.69 300.81 Z" stroke-width="1.333" stroke-linecap="butt" stroke="none" stroke-linejoin="miter" fill="none" />
</g>
</g>
<g id="shape-87" data-name="知鱼-12">
<rect x="204.39" y="154.37" width="54.97" height="19.27" fill="none" />
<text x="213.99" y="165.97" text-anchor="start" xml:space="preserve" font-family="&quot;思源黑体 CN Bold&quot;, sans-serif" font-size="8" fill="#173C7A"><tspan fill="#173C7A" font-size="8">●●●</tspan></text>
</g>
<g id="shape-88" data-name="知鱼-13">
<rect x="464.08" y="154.37" width="54.97" height="19.27" fill="none" />
<text x="473.68" y="165.97" text-anchor="start" xml:space="preserve" font-family="&quot;思源黑体 CN Bold&quot;, sans-serif" font-size="8" fill="#D4BA54"><tspan fill="#D4BA54" font-size="8">●●●</tspan></text>
</g>
<g id="shape-89" data-name="知鱼-14">
<rect x="642.48" y="220.67" width="282.72" height="188.48" fill="none" stroke="#999999" stroke-dasharray="4 4" /><text x="783.84" y="314.91" text-anchor="middle" font-size="14" fill="#999999">[chart]</text>
</g>
<g id="shape-90" data-name="知鱼-15">
<rect x="931.73" y="220.67" width="282.72" height="188.48" fill="none" stroke="#999999" stroke-dasharray="4 4" /><text x="1073.1" y="314.91" text-anchor="middle" font-size="14" fill="#999999">[chart]</text>
</g>
<g id="shape-91" data-name="组合 90">
<g id="shape-92" data-name="知鱼-16">
<path d="M 806.36 332.01 C 806.36 308.78 806.36 308.78 806.36 308.78 C 806.36 307.1 805.01 305.42 802.97 305.42 C 799.93 305.42 799.93 305.42 799.93 305.42 C 798.23 305.42 796.54 307.1 796.54 308.78 C 796.54 332.01 796.54 332.01 796.54 332.01 C 796.54 333.69 798.23 335.37 799.93 335.37 C 802.97 335.37 802.97 335.37 802.97 335.37 C 805.01 335.37 806.36 333.69 806.36 332.01 Z M 803.65 332.01 C 803.65 332.34 803.31 332.68 802.97 332.68 C 799.93 332.68 799.93 332.68 799.93 332.68 C 799.59 332.68 799.25 332.34 799.25 332.01 C 799.25 308.78 799.25 308.78 799.25 308.78 C 799.25 308.45 799.59 308.11 799.93 308.11 C 802.97 308.11 802.97 308.11 802.97 308.11 C 803.31 308.11 803.65 308.45 803.65 308.78 L 803.65 332.01 Z" stroke-width="1.333" stroke-linecap="butt" stroke="none" stroke-linejoin="miter" fill="none" />
</g>
<g id="shape-93" data-name="知鱼-17">
<path d="M 787.78 312.91 C 786.09 312.91 784.39 314.25 784.39 315.92 C 784.39 332.02 784.39 332.02 784.39 332.02 C 784.39 333.69 786.09 335.37 787.78 335.37 C 790.83 335.37 790.83 335.37 790.83 335.37 C 792.86 335.37 794.21 333.69 794.21 332.02 C 794.21 315.92 794.21 315.92 794.21 315.92 C 794.21 314.25 792.86 312.91 790.83 312.91 L 787.78 312.91 Z M 791.5 315.92 C 791.5 332.02 791.5 332.02 791.5 332.02 C 791.5 332.35 791.16 332.69 790.83 332.69 C 787.78 332.69 787.78 332.69 787.78 332.69 C 787.44 332.69 787.1 332.35 787.1 332.02 C 787.1 315.92 787.1 315.92 787.1 315.92 C 787.1 315.59 787.44 315.59 787.78 315.59 C 790.83 315.59 790.83 315.59 790.83 315.59 C 791.16 315.59 791.5 315.59 791.5 315.92 Z" stroke-width="1.333" stroke-linecap="butt" stroke="none" stroke-linejoin="miter" fill="none" />
</g>
<g id="shape-94" data-name="知鱼-18">
<path d="M 775.74 335.37 C 778.74 335.37 778.74 335.37 778.74 335.37 C 780.73 335.37 782.06 333.69 782.06 332.01 C 782.06 304.12 782.06 304.12 782.06 304.12 C 782.06 302.44 780.73 301.09 778.74 301.09 C 775.74 301.09 775.74 301.09 775.74 301.09 C 774.08 301.09 772.41 302.44 772.41 304.12 C 772.41 332.01 772.41 332.01 772.41 332.01 C 772.41 333.69 774.08 335.37 775.74 335.37 Z M 775.08 304.12 C 775.08 304.12 775.41 303.78 775.74 303.78 C 778.74 303.78 778.74 303.78 778.74 303.78 C 779.07 303.78 779.4 304.12 779.4 304.12 C 779.4 332.01 779.4 332.01 779.4 332.01 C 779.4 332.35 779.07 332.68 778.74 332.68 C 775.74 332.68 775.74 332.68 775.74 332.68 C 775.41 332.68 775.08 332.35 775.08 332.01 L 775.08 304.12 Z" stroke-width="1.333" stroke-linecap="butt" stroke="none" stroke-linejoin="miter" fill="none" />
</g>
<g id="shape-95" data-name="知鱼-19">
<path d="M 760.26 332.02 C 760.26 333.69 761.96 335.37 763.65 335.37 C 766.7 335.37 766.7 335.37 766.7 335.37 C 768.73 335.37 770.08 333.69 770.08 332.02 C 770.08 318.26 770.08 318.26 770.08 318.26 C 770.08 316.24 768.73 314.9 766.7 314.9 C 763.65 314.9 763.65 314.9 763.65 314.9 C 761.96 314.9 760.26 316.24 760.26 318.26 L 760.26 332.02 Z M 762.97 318.26 C 762.97 317.92 763.31 317.59 763.65 317.59 C 766.7 317.59 766.7 317.59 766.7 317.59 C 767.04 317.59 767.37 317.92 767.37 318.26 C 767.37 332.02 767.37 332.02 767.37 332.02 C 767.37 332.35 767.04 332.69 766.7 332.69 C 763.65 332.69 763.65 332.69 763.65 332.69 C 763.31 332.69 762.97 332.35 762.97 332.02 L 762.97 318.26 Z" stroke-width="1.333" stroke-linecap="butt" stroke="none" stroke-linejoin="miter" fill="none" />
</g>
</g>
<g id="shape-96" data-name="组合 95">
<g id="shape-97" data-name="知鱼-20">
<path d="M 1087.56 315.61 C 1087.56 326.7 1087.56 326.7 1087.56 326.7 C 1087.56 328.38 1088.91 330.06 1090.95 330.06 C 1093.99 330.06 1093.99 330.06 1093.99 330.06 C 1095.69 330.06 1097.38 328.38 1097.38 326.7 C 1097.38 315.61 1097.38 315.61 1097.38 315.61 C 1097.38 313.93 1095.69 312.25 1093.99 312.25 C 1090.95 312.25 1090.95 312.25 1090.95 312.25 C 1088.91 312.25 1087.56 313.93 1087.56 315.61 Z M 1094.67 315.61 C 1094.67 326.7 1094.67 326.7 1094.67 326.7 C 1094.67 327.04 1094.33 327.37 1093.99 327.37 C 1090.95 327.37 1090.95 327.37 1090.95 327.37 C 1090.61 327.37 1090.27 327.04 1090.27 326.7 C 1090.27 315.61 1090.27 315.61 1090.27 315.61 C 1090.27 315.28 1090.61 314.94 1090.95 314.94 C 1093.99 314.94 1093.99 314.94 1093.99 314.94 C 1094.33 314.94 1094.67 315.28 1094.67 315.61 Z" stroke-width="1.333" stroke-linecap="butt" stroke="none" stroke-linejoin="miter" fill="none" />
</g>
<g id="shape-98" data-name="知鱼-21">
<path d="M 1081.9 330.06 C 1083.57 330.06 1085.23 328.38 1085.23 326.71 C 1085.23 310.61 1085.23 310.61 1085.23 310.61 C 1085.23 308.94 1083.57 307.59 1081.9 307.59 C 1078.91 307.59 1078.91 307.59 1078.91 307.59 C 1076.91 307.59 1075.58 308.94 1075.58 310.61 C 1075.58 326.71 1075.58 326.71 1075.58 326.71 C 1075.58 328.38 1076.91 330.06 1078.91 330.06 L 1081.9 330.06 Z M 1078.24 326.71 C 1078.24 310.61 1078.24 310.61 1078.24 310.61 C 1078.24 310.28 1078.57 310.28 1078.91 310.28 C 1081.9 310.28 1081.9 310.28 1081.9 310.28 C 1082.24 310.28 1082.57 310.28 1082.57 310.61 C 1082.57 326.71 1082.57 326.71 1082.57 326.71 C 1082.57 327.04 1082.24 327.38 1081.9 327.38 C 1078.91 327.38 1078.91 327.38 1078.91 327.38 C 1078.57 327.38 1078.24 327.04 1078.24 326.71 Z" stroke-width="1.333" stroke-linecap="butt" stroke="none" stroke-linejoin="miter" fill="none" />
</g>
<g id="shape-99" data-name="知鱼-22">
<path d="M 1069.75 330.06 C 1071.42 330.06 1073.08 328.39 1073.08 326.71 C 1073.08 305.62 1073.08 305.62 1073.08 305.62 C 1073.08 303.94 1071.42 302.6 1069.75 302.6 C 1066.76 302.6 1066.76 302.6 1066.76 302.6 C 1064.76 302.6 1063.43 303.94 1063.43 305.62 C 1063.43 326.71 1063.43 326.71 1063.43 326.71 C 1063.43 328.39 1064.76 330.06 1066.76 330.06 L 1069.75 330.06 Z M 1066.09 326.71 C 1066.09 305.62 1066.09 305.62 1066.09 305.62 C 1066.09 305.62 1066.43 305.28 1066.76 305.28 C 1069.75 305.28 1069.75 305.28 1069.75 305.28 C 1070.09 305.28 1070.42 305.62 1070.42 305.62 C 1070.42 326.71 1070.42 326.71 1070.42 326.71 C 1070.42 327.05 1070.09 327.38 1069.75 327.38 C 1066.76 327.38 1066.76 327.38 1066.76 327.38 C 1066.43 327.38 1066.09 327.05 1066.09 326.71 Z" stroke-width="1.333" stroke-linecap="butt" stroke="none" stroke-linejoin="miter" fill="none" />
</g>
<g id="shape-100" data-name="知鱼-23">
<path d="M 1054.67 330.06 C 1057.72 330.06 1057.72 330.06 1057.72 330.06 C 1059.41 330.06 1061.1 328.38 1061.1 326.7 C 1061.1 300.81 1061.1 300.81 1061.1 300.81 C 1061.1 298.79 1059.41 297.44 1057.72 297.44 C 1054.67 297.44 1054.67 297.44 1054.67 297.44 C 1052.98 297.44 1051.28 298.79 1051.28 300.81 C 1051.28 326.7 1051.28 326.7 1051.28 326.7 C 1051.28 328.38 1052.98 330.06 1054.67 330.06 Z M 1053.99 300.81 C 1053.99 300.47 1054.33 300.13 1054.67 300.13 C 1057.72 300.13 1057.72 300.13 1057.72 300.13 C 1058.05 300.13 1058.39 300.47 1058.39 300.81 C 1058.39 326.7 1058.39 326.7 1058.39 326.7 C 1058.39 327.03 1058.05 327.37 1057.72 327.37 C 1054.67 327.37 1054.67 327.37 1054.67 327.37 C 1054.33 327.37 1053.99 327.03 1053.99 326.7 L 1053.99 300.81 Z" stroke-width="1.333" stroke-linecap="butt" stroke="none" stroke-linejoin="miter" fill="none" />
</g>
</g>
<g id="shape-101" data-name="知鱼-24">
<rect x="756.35" y="154.37" width="54.97" height="19.27" fill="none" />
<text x="765.95" y="165.97" text-anchor="start" xml:space="preserve" font-family="&quot;思源黑体 CN Bold&quot;, sans-serif" font-size="8" fill="#173C7A"><tspan fill="#173C7A" font-size="8">●●●</tspan></text>
</g>
<g id="shape-102" data-name="知鱼-25">
<rect x="1045.38" y="154.37" width="54.97" height="19.27" fill="none" />
<text x="1054.98" y="165.97" text-anchor="start" xml:space="preserve" font-family="&quot;思源黑体 CN Bold&quot;, sans-serif" font-size="8" fill="#D4BA54"><tspan fill="#D4BA54" font-size="8">●●●</tspan></text>
</g>
<g id="shape-103" data-name="文本框 31">
<rect x="145.62" y="429.6" width="167.2" height="48.33" fill="none" />
<text x="155.22" y="461.6" text-anchor="start" xml:space="preserve" font-family="&quot;思源黑体 CN Medium&quot;, sans-serif" font-size="32" fill="#7C4E2C" font-weight="bold"><tspan fill="#7C4E2C" font-size="32" font-weight="bold">社会趋势</tspan></text>
</g>
<g id="shape-104" data-name="文本框 32">
<rect x="123.8" y="478.07" width="226.67" height="179.2" fill="none" />
<text x="133.4" y="498.73" text-anchor="start" xml:space="preserve" font-family="&quot;思源黑体 CN Medium&quot;, sans-serif" font-size="18.67" fill="#173C7A"><tspan fill="#173C7A" font-size="18.67">{{CONTENT_1}}</tspan></text>
</g>
<g id="shape-105" data-name="文本框 31">
<rect x="394.27" y="433.47" width="191.13" height="48.33" fill="none" />
<text x="403.87" y="465.47" text-anchor="start" xml:space="preserve" font-family="&quot;思源黑体 CN Medium&quot;, sans-serif" font-size="32" fill="#7C4E2C" font-weight="bold"><tspan fill="#7C4E2C" font-size="32" font-weight="bold">照顾者能力</tspan></text>
</g>
<g id="shape-106" data-name="文本框 32">
<rect x="373.27" y="481.93" width="236.87" height="179.2" fill="none" />
<text x="382.87" y="502.6" text-anchor="start" xml:space="preserve" font-family="&quot;思源黑体 CN Medium&quot;, sans-serif" font-size="18.67" fill="#173C7A"><tspan fill="#173C7A" font-size="18.67">{{CONTENT_2}}</tspan></text>
</g>
<g id="shape-107" data-name="文本框 31">
<rect x="705.37" y="429.6" width="167.2" height="48.33" fill="none" />
<text x="714.97" y="461.6" text-anchor="start" xml:space="preserve" font-family="&quot;思源黑体 CN Medium&quot;, sans-serif" font-size="32" fill="#7C4E2C" font-weight="bold"><tspan fill="#7C4E2C" font-size="32" font-weight="bold">政策需求</tspan></text>
</g>
<g id="shape-108" data-name="文本框 32">
<rect x="684.8" y="478.07" width="225.4" height="179.2" fill="none" />
<text x="694.4" y="498.73" text-anchor="start" xml:space="preserve" font-family="&quot;思源黑体 CN Medium&quot;, sans-serif" font-size="18.67" fill="#173C7A"><tspan fill="#173C7A" font-size="18.67">{{CONTENT_3}}</tspan></text>
</g>
<g id="shape-109" data-name="文本框 31">
<rect x="981.74" y="429.6" width="167.2" height="48.33" fill="none" />
<text x="991.34" y="461.6" text-anchor="start" xml:space="preserve" font-family="&quot;思源黑体 CN Medium&quot;, sans-serif" font-size="32" fill="#7C4E2C" font-weight="bold"><tspan fill="#7C4E2C" font-size="32" font-weight="bold">临床痛点</tspan></text>
</g>
<g id="shape-110" data-name="文本框 32">
<rect x="950.47" y="478.07" width="253.27" height="179.2" fill="none" />
<text x="960.07" y="498.73" text-anchor="start" xml:space="preserve" font-family="&quot;思源黑体 CN Medium&quot;, sans-serif" font-size="18.67" fill="#173C7A"><tspan fill="#173C7A" font-size="18.67">现有社区护理服务对居家照</tspan><tspan x="960.07" dy="28" fill="#173C7A" font-size="18.67">护者的压疮预防指导多为单</tspan><tspan x="960.07" dy="28" fill="#173C7A" font-size="18.67">次、碎片化宣讲，缺乏长期</tspan><tspan x="960.07" dy="28" fill="#173C7A" font-size="18.67">、系统的干预方案，难以降</tspan><tspan x="960.07" dy="28" fill="#173C7A" font-size="18.67">低居家失能老人压疮发生风</tspan><tspan x="960.07" dy="28" fill="#173C7A" font-size="18.67">险。</tspan></text>
</g></svg>